G04 #@! TF.GenerationSoftware,KiCad,Pcbnew,5.0.2+dfsg1-1*
G04 #@! TF.CreationDate,2019-05-10T18:20:53+02:00*
G04 #@! TF.ProjectId,bt-trx-dev-board,62742d74-7278-42d6-9465-762d626f6172,2.0*
G04 #@! TF.SameCoordinates,Original*
G04 #@! TF.FileFunction,Legend,Top*
G04 #@! TF.FilePolarity,Positive*
%FSLAX46Y46*%
G04 Gerber Fmt 4.6, Leading zero omitted, Abs format (unit mm)*
G04 Created by KiCad (PCBNEW 5.0.2+dfsg1-1) date Fri 10 May 2019 06:20:53 PM CEST*
%MOMM*%
%LPD*%
G01*
G04 APERTURE LIST*
%ADD10C,0.150000*%
%ADD11C,0.300000*%
%ADD12C,0.200000*%
%ADD13C,0.120000*%
%ADD14C,0.127000*%
%ADD15C,0.010000*%
%ADD16C,0.050000*%
G04 APERTURE END LIST*
D10*
X121561785Y-118317857D02*
X121085595Y-118317857D01*
X121085595Y-117117857D01*
X121895119Y-118317857D02*
X121895119Y-117517857D01*
X121895119Y-117117857D02*
X121847500Y-117175000D01*
X121895119Y-117232142D01*
X121942738Y-117175000D01*
X121895119Y-117117857D01*
X121895119Y-117232142D01*
X122799880Y-118260714D02*
X122704642Y-118317857D01*
X122514166Y-118317857D01*
X122418928Y-118260714D01*
X122371309Y-118203571D01*
X122323690Y-118089285D01*
X122323690Y-117746428D01*
X122371309Y-117632142D01*
X122418928Y-117575000D01*
X122514166Y-117517857D01*
X122704642Y-117517857D01*
X122799880Y-117575000D01*
X123609404Y-118260714D02*
X123514166Y-118317857D01*
X123323690Y-118317857D01*
X123228452Y-118260714D01*
X123180833Y-118146428D01*
X123180833Y-117689285D01*
X123228452Y-117575000D01*
X123323690Y-117517857D01*
X123514166Y-117517857D01*
X123609404Y-117575000D01*
X123657023Y-117689285D01*
X123657023Y-117803571D01*
X123180833Y-117917857D01*
X124085595Y-117517857D02*
X124085595Y-118317857D01*
X124085595Y-117632142D02*
X124133214Y-117575000D01*
X124228452Y-117517857D01*
X124371309Y-117517857D01*
X124466547Y-117575000D01*
X124514166Y-117689285D01*
X124514166Y-118317857D01*
X124942738Y-118260714D02*
X125037976Y-118317857D01*
X125228452Y-118317857D01*
X125323690Y-118260714D01*
X125371309Y-118146428D01*
X125371309Y-118089285D01*
X125323690Y-117975000D01*
X125228452Y-117917857D01*
X125085595Y-117917857D01*
X124990357Y-117860714D01*
X124942738Y-117746428D01*
X124942738Y-117689285D01*
X124990357Y-117575000D01*
X125085595Y-117517857D01*
X125228452Y-117517857D01*
X125323690Y-117575000D01*
X126180833Y-118260714D02*
X126085595Y-118317857D01*
X125895119Y-118317857D01*
X125799880Y-118260714D01*
X125752261Y-118146428D01*
X125752261Y-117689285D01*
X125799880Y-117575000D01*
X125895119Y-117517857D01*
X126085595Y-117517857D01*
X126180833Y-117575000D01*
X126228452Y-117689285D01*
X126228452Y-117803571D01*
X125752261Y-117917857D01*
X127085595Y-118317857D02*
X127085595Y-117117857D01*
X127085595Y-118260714D02*
X126990357Y-118317857D01*
X126799880Y-118317857D01*
X126704642Y-118260714D01*
X126657023Y-118203571D01*
X126609404Y-118089285D01*
X126609404Y-117746428D01*
X126657023Y-117632142D01*
X126704642Y-117575000D01*
X126799880Y-117517857D01*
X126990357Y-117517857D01*
X127085595Y-117575000D01*
X128752261Y-117517857D02*
X128752261Y-118317857D01*
X128323690Y-117517857D02*
X128323690Y-118146428D01*
X128371309Y-118260714D01*
X128466547Y-118317857D01*
X128609404Y-118317857D01*
X128704642Y-118260714D01*
X128752261Y-118203571D01*
X129228452Y-117517857D02*
X129228452Y-118317857D01*
X129228452Y-117632142D02*
X129276071Y-117575000D01*
X129371309Y-117517857D01*
X129514166Y-117517857D01*
X129609404Y-117575000D01*
X129657023Y-117689285D01*
X129657023Y-118317857D01*
X130561785Y-118317857D02*
X130561785Y-117117857D01*
X130561785Y-118260714D02*
X130466547Y-118317857D01*
X130276071Y-118317857D01*
X130180833Y-118260714D01*
X130133214Y-118203571D01*
X130085595Y-118089285D01*
X130085595Y-117746428D01*
X130133214Y-117632142D01*
X130180833Y-117575000D01*
X130276071Y-117517857D01*
X130466547Y-117517857D01*
X130561785Y-117575000D01*
X131418928Y-118260714D02*
X131323690Y-118317857D01*
X131133214Y-118317857D01*
X131037976Y-118260714D01*
X130990357Y-118146428D01*
X130990357Y-117689285D01*
X131037976Y-117575000D01*
X131133214Y-117517857D01*
X131323690Y-117517857D01*
X131418928Y-117575000D01*
X131466547Y-117689285D01*
X131466547Y-117803571D01*
X130990357Y-117917857D01*
X131895119Y-118317857D02*
X131895119Y-117517857D01*
X131895119Y-117746428D02*
X131942738Y-117632142D01*
X131990357Y-117575000D01*
X132085595Y-117517857D01*
X132180833Y-117517857D01*
X121657023Y-120153571D02*
X121609404Y-120210714D01*
X121466547Y-120267857D01*
X121371309Y-120267857D01*
X121228452Y-120210714D01*
X121133214Y-120096428D01*
X121085595Y-119982142D01*
X121037976Y-119753571D01*
X121037976Y-119582142D01*
X121085595Y-119353571D01*
X121133214Y-119239285D01*
X121228452Y-119125000D01*
X121371309Y-119067857D01*
X121466547Y-119067857D01*
X121609404Y-119125000D01*
X121657023Y-119182142D01*
X122085595Y-119639285D02*
X122418928Y-119639285D01*
X122561785Y-120267857D02*
X122085595Y-120267857D01*
X122085595Y-119067857D01*
X122561785Y-119067857D01*
X123561785Y-120267857D02*
X123228452Y-119696428D01*
X122990357Y-120267857D02*
X122990357Y-119067857D01*
X123371309Y-119067857D01*
X123466547Y-119125000D01*
X123514166Y-119182142D01*
X123561785Y-119296428D01*
X123561785Y-119467857D01*
X123514166Y-119582142D01*
X123466547Y-119639285D01*
X123371309Y-119696428D01*
X122990357Y-119696428D01*
X123990357Y-120267857D02*
X123990357Y-119067857D01*
X124561785Y-120267857D01*
X124561785Y-119067857D01*
X125990357Y-119067857D02*
X126180833Y-119067857D01*
X126276071Y-119125000D01*
X126371309Y-119239285D01*
X126418928Y-119467857D01*
X126418928Y-119867857D01*
X126371309Y-120096428D01*
X126276071Y-120210714D01*
X126180833Y-120267857D01*
X125990357Y-120267857D01*
X125895119Y-120210714D01*
X125799880Y-120096428D01*
X125752261Y-119867857D01*
X125752261Y-119467857D01*
X125799880Y-119239285D01*
X125895119Y-119125000D01*
X125990357Y-119067857D01*
X126847500Y-120267857D02*
X126847500Y-119067857D01*
X126847500Y-119639285D02*
X127418928Y-119639285D01*
X127418928Y-120267857D02*
X127418928Y-119067857D01*
X128371309Y-120267857D02*
X127895119Y-120267857D01*
X127895119Y-119067857D01*
X129371309Y-119467857D02*
X129609404Y-120267857D01*
X129847500Y-119467857D01*
X130752261Y-120267857D02*
X130180833Y-120267857D01*
X130466547Y-120267857D02*
X130466547Y-119067857D01*
X130371309Y-119239285D01*
X130276071Y-119353571D01*
X130180833Y-119410714D01*
X131180833Y-120153571D02*
X131228452Y-120210714D01*
X131180833Y-120267857D01*
X131133214Y-120210714D01*
X131180833Y-120153571D01*
X131180833Y-120267857D01*
X131609404Y-119182142D02*
X131657023Y-119125000D01*
X131752261Y-119067857D01*
X131990357Y-119067857D01*
X132085595Y-119125000D01*
X132133214Y-119182142D01*
X132180833Y-119296428D01*
X132180833Y-119410714D01*
X132133214Y-119582142D01*
X131561785Y-120267857D01*
X132180833Y-120267857D01*
X175714285Y-97285714D02*
X175714285Y-97952380D01*
X175285714Y-97285714D02*
X175285714Y-97809523D01*
X175333333Y-97904761D01*
X175428571Y-97952380D01*
X175571428Y-97952380D01*
X175666666Y-97904761D01*
X175714285Y-97857142D01*
X176761904Y-97857142D02*
X176714285Y-97904761D01*
X176571428Y-97952380D01*
X176476190Y-97952380D01*
X176333333Y-97904761D01*
X176238095Y-97809523D01*
X176190476Y-97714285D01*
X176142857Y-97523809D01*
X176142857Y-97380952D01*
X176190476Y-97190476D01*
X176238095Y-97095238D01*
X176333333Y-97000000D01*
X176476190Y-96952380D01*
X176571428Y-96952380D01*
X176714285Y-97000000D01*
X176761904Y-97047619D01*
X177952380Y-97952380D02*
X177952380Y-96952380D01*
X178333333Y-96952380D01*
X178428571Y-97000000D01*
X178476190Y-97047619D01*
X178523809Y-97142857D01*
X178523809Y-97285714D01*
X178476190Y-97380952D01*
X178428571Y-97428571D01*
X178333333Y-97476190D01*
X177952380Y-97476190D01*
X178809523Y-96952380D02*
X179380952Y-96952380D01*
X179095238Y-97952380D02*
X179095238Y-96952380D01*
X179571428Y-96952380D02*
X180142857Y-96952380D01*
X179857142Y-97952380D02*
X179857142Y-96952380D01*
X181238095Y-97428571D02*
X181571428Y-97428571D01*
X181714285Y-97952380D02*
X181238095Y-97952380D01*
X181238095Y-96952380D01*
X181714285Y-96952380D01*
X182142857Y-97952380D02*
X182142857Y-96952380D01*
X182714285Y-97952380D01*
X182714285Y-96952380D01*
X152952380Y-95535714D02*
X152952380Y-96202380D01*
X152523809Y-95535714D02*
X152523809Y-96059523D01*
X152571428Y-96154761D01*
X152666666Y-96202380D01*
X152809523Y-96202380D01*
X152904761Y-96154761D01*
X152952380Y-96107142D01*
X154000000Y-96107142D02*
X153952380Y-96154761D01*
X153809523Y-96202380D01*
X153714285Y-96202380D01*
X153571428Y-96154761D01*
X153476190Y-96059523D01*
X153428571Y-95964285D01*
X153380952Y-95773809D01*
X153380952Y-95630952D01*
X153428571Y-95440476D01*
X153476190Y-95345238D01*
X153571428Y-95250000D01*
X153714285Y-95202380D01*
X153809523Y-95202380D01*
X153952380Y-95250000D01*
X154000000Y-95297619D01*
X155190476Y-96202380D02*
X155190476Y-95202380D01*
X155571428Y-95202380D01*
X155666666Y-95250000D01*
X155714285Y-95297619D01*
X155761904Y-95392857D01*
X155761904Y-95535714D01*
X155714285Y-95630952D01*
X155666666Y-95678571D01*
X155571428Y-95726190D01*
X155190476Y-95726190D01*
X156047619Y-95202380D02*
X156619047Y-95202380D01*
X156333333Y-96202380D02*
X156333333Y-95202380D01*
X156809523Y-95202380D02*
X157380952Y-95202380D01*
X157095238Y-96202380D02*
X157095238Y-95202380D01*
X158809523Y-95678571D02*
X158952380Y-95726190D01*
X159000000Y-95773809D01*
X159047619Y-95869047D01*
X159047619Y-96011904D01*
X159000000Y-96107142D01*
X158952380Y-96154761D01*
X158857142Y-96202380D01*
X158476190Y-96202380D01*
X158476190Y-95202380D01*
X158809523Y-95202380D01*
X158904761Y-95250000D01*
X158952380Y-95297619D01*
X159000000Y-95392857D01*
X159000000Y-95488095D01*
X158952380Y-95583333D01*
X158904761Y-95630952D01*
X158809523Y-95678571D01*
X158476190Y-95678571D01*
X159333333Y-95535714D02*
X159714285Y-95535714D01*
X159476190Y-95202380D02*
X159476190Y-96059523D01*
X159523809Y-96154761D01*
X159619047Y-96202380D01*
X159714285Y-96202380D01*
X160047619Y-95535714D02*
X160047619Y-96202380D01*
X160047619Y-95630952D02*
X160095238Y-95583333D01*
X160190476Y-95535714D01*
X160333333Y-95535714D01*
X160428571Y-95583333D01*
X160476190Y-95678571D01*
X160476190Y-96202380D01*
D11*
X110328571Y-104125000D02*
X110328571Y-104410714D01*
X110400000Y-104553571D01*
X110471428Y-104625000D01*
X110685714Y-104767857D01*
X110971428Y-104839285D01*
X111542857Y-104839285D01*
X111685714Y-104767857D01*
X111757142Y-104696428D01*
X111828571Y-104553571D01*
X111828571Y-104267857D01*
X111757142Y-104125000D01*
X111685714Y-104053571D01*
X111542857Y-103982142D01*
X111185714Y-103982142D01*
X111042857Y-104053571D01*
X110971428Y-104125000D01*
X110900000Y-104267857D01*
X110900000Y-104553571D01*
X110971428Y-104696428D01*
X111042857Y-104767857D01*
X111185714Y-104839285D01*
X110971428Y-103125000D02*
X110900000Y-103267857D01*
X110828571Y-103339285D01*
X110685714Y-103410714D01*
X110614285Y-103410714D01*
X110471428Y-103339285D01*
X110400000Y-103267857D01*
X110328571Y-103125000D01*
X110328571Y-102839285D01*
X110400000Y-102696428D01*
X110471428Y-102625000D01*
X110614285Y-102553571D01*
X110685714Y-102553571D01*
X110828571Y-102625000D01*
X110900000Y-102696428D01*
X110971428Y-102839285D01*
X110971428Y-103125000D01*
X111042857Y-103267857D01*
X111114285Y-103339285D01*
X111257142Y-103410714D01*
X111542857Y-103410714D01*
X111685714Y-103339285D01*
X111757142Y-103267857D01*
X111828571Y-103125000D01*
X111828571Y-102839285D01*
X111757142Y-102696428D01*
X111685714Y-102625000D01*
X111542857Y-102553571D01*
X111257142Y-102553571D01*
X111114285Y-102625000D01*
X111042857Y-102696428D01*
X110971428Y-102839285D01*
X111685714Y-101910714D02*
X111757142Y-101839285D01*
X111828571Y-101910714D01*
X111757142Y-101982142D01*
X111685714Y-101910714D01*
X111828571Y-101910714D01*
X110471428Y-101267857D02*
X110400000Y-101196428D01*
X110328571Y-101053571D01*
X110328571Y-100696428D01*
X110400000Y-100553571D01*
X110471428Y-100482142D01*
X110614285Y-100410714D01*
X110757142Y-100410714D01*
X110971428Y-100482142D01*
X111828571Y-101339285D01*
X111828571Y-100410714D01*
X110328571Y-99053571D02*
X110328571Y-99767857D01*
X111042857Y-99839285D01*
X110971428Y-99767857D01*
X110900000Y-99625000D01*
X110900000Y-99267857D01*
X110971428Y-99125000D01*
X111042857Y-99053571D01*
X111185714Y-98982142D01*
X111542857Y-98982142D01*
X111685714Y-99053571D01*
X111757142Y-99125000D01*
X111828571Y-99267857D01*
X111828571Y-99625000D01*
X111757142Y-99767857D01*
X111685714Y-99839285D01*
X110328571Y-98053571D02*
X110328571Y-97910714D01*
X110400000Y-97767857D01*
X110471428Y-97696428D01*
X110614285Y-97625000D01*
X110900000Y-97553571D01*
X111257142Y-97553571D01*
X111542857Y-97625000D01*
X111685714Y-97696428D01*
X111757142Y-97767857D01*
X111828571Y-97910714D01*
X111828571Y-98053571D01*
X111757142Y-98196428D01*
X111685714Y-98267857D01*
X111542857Y-98339285D01*
X111257142Y-98410714D01*
X110900000Y-98410714D01*
X110614285Y-98339285D01*
X110471428Y-98267857D01*
X110400000Y-98196428D01*
X110328571Y-98053571D01*
X111828571Y-95767857D02*
X110828571Y-95767857D01*
X110971428Y-95767857D02*
X110900000Y-95696428D01*
X110828571Y-95553571D01*
X110828571Y-95339285D01*
X110900000Y-95196428D01*
X111042857Y-95125000D01*
X111828571Y-95125000D01*
X111042857Y-95125000D02*
X110900000Y-95053571D01*
X110828571Y-94910714D01*
X110828571Y-94696428D01*
X110900000Y-94553571D01*
X111042857Y-94482142D01*
X111828571Y-94482142D01*
X111828571Y-93767857D02*
X110828571Y-93767857D01*
X110971428Y-93767857D02*
X110900000Y-93696428D01*
X110828571Y-93553571D01*
X110828571Y-93339285D01*
X110900000Y-93196428D01*
X111042857Y-93125000D01*
X111828571Y-93125000D01*
X111042857Y-93125000D02*
X110900000Y-93053571D01*
X110828571Y-92910714D01*
X110828571Y-92696428D01*
X110900000Y-92553571D01*
X111042857Y-92482142D01*
X111828571Y-92482142D01*
X113250000Y-132750000D02*
X113250000Y-64500000D01*
X119750000Y-132750000D02*
X112663579Y-132750000D01*
X119750000Y-64500000D02*
X112663579Y-64500000D01*
X113250000Y-64500000D02*
X113836421Y-65626504D01*
X113250000Y-64500000D02*
X112663579Y-65626504D01*
X113250000Y-132750000D02*
X113836421Y-131623496D01*
X113250000Y-132750000D02*
X112663579Y-131623496D01*
X146500000Y-137278571D02*
X146214285Y-137278571D01*
X146071428Y-137350000D01*
X146000000Y-137421428D01*
X145857142Y-137635714D01*
X145785714Y-137921428D01*
X145785714Y-138492857D01*
X145857142Y-138635714D01*
X145928571Y-138707142D01*
X146071428Y-138778571D01*
X146357142Y-138778571D01*
X146500000Y-138707142D01*
X146571428Y-138635714D01*
X146642857Y-138492857D01*
X146642857Y-138135714D01*
X146571428Y-137992857D01*
X146500000Y-137921428D01*
X146357142Y-137850000D01*
X146071428Y-137850000D01*
X145928571Y-137921428D01*
X145857142Y-137992857D01*
X145785714Y-138135714D01*
X147928571Y-137778571D02*
X147928571Y-138778571D01*
X147571428Y-137207142D02*
X147214285Y-138278571D01*
X148142857Y-138278571D01*
X148714285Y-138635714D02*
X148785714Y-138707142D01*
X148714285Y-138778571D01*
X148642857Y-138707142D01*
X148714285Y-138635714D01*
X148714285Y-138778571D01*
X150142857Y-137278571D02*
X149428571Y-137278571D01*
X149357142Y-137992857D01*
X149428571Y-137921428D01*
X149571428Y-137850000D01*
X149928571Y-137850000D01*
X150071428Y-137921428D01*
X150142857Y-137992857D01*
X150214285Y-138135714D01*
X150214285Y-138492857D01*
X150142857Y-138635714D01*
X150071428Y-138707142D01*
X149928571Y-138778571D01*
X149571428Y-138778571D01*
X149428571Y-138707142D01*
X149357142Y-138635714D01*
X151142857Y-137278571D02*
X151285714Y-137278571D01*
X151428571Y-137350000D01*
X151500000Y-137421428D01*
X151571428Y-137564285D01*
X151642857Y-137850000D01*
X151642857Y-138207142D01*
X151571428Y-138492857D01*
X151500000Y-138635714D01*
X151428571Y-138707142D01*
X151285714Y-138778571D01*
X151142857Y-138778571D01*
X151000000Y-138707142D01*
X150928571Y-138635714D01*
X150857142Y-138492857D01*
X150785714Y-138207142D01*
X150785714Y-137850000D01*
X150857142Y-137564285D01*
X150928571Y-137421428D01*
X151000000Y-137350000D01*
X151142857Y-137278571D01*
X152571428Y-137278571D02*
X152714285Y-137278571D01*
X152857142Y-137350000D01*
X152928571Y-137421428D01*
X153000000Y-137564285D01*
X153071428Y-137850000D01*
X153071428Y-138207142D01*
X153000000Y-138492857D01*
X152928571Y-138635714D01*
X152857142Y-138707142D01*
X152714285Y-138778571D01*
X152571428Y-138778571D01*
X152428571Y-138707142D01*
X152357142Y-138635714D01*
X152285714Y-138492857D01*
X152214285Y-138207142D01*
X152214285Y-137850000D01*
X152285714Y-137564285D01*
X152357142Y-137421428D01*
X152428571Y-137350000D01*
X152571428Y-137278571D01*
X154857142Y-138778571D02*
X154857142Y-137778571D01*
X154857142Y-137921428D02*
X154928571Y-137850000D01*
X155071428Y-137778571D01*
X155285714Y-137778571D01*
X155428571Y-137850000D01*
X155500000Y-137992857D01*
X155500000Y-138778571D01*
X155500000Y-137992857D02*
X155571428Y-137850000D01*
X155714285Y-137778571D01*
X155928571Y-137778571D01*
X156071428Y-137850000D01*
X156142857Y-137992857D01*
X156142857Y-138778571D01*
X156857142Y-138778571D02*
X156857142Y-137778571D01*
X156857142Y-137921428D02*
X156928571Y-137850000D01*
X157071428Y-137778571D01*
X157285714Y-137778571D01*
X157428571Y-137850000D01*
X157500000Y-137992857D01*
X157500000Y-138778571D01*
X157500000Y-137992857D02*
X157571428Y-137850000D01*
X157714285Y-137778571D01*
X157928571Y-137778571D01*
X158071428Y-137850000D01*
X158142857Y-137992857D01*
X158142857Y-138778571D01*
X119750000Y-136000000D02*
X184250000Y-136000000D01*
X119750000Y-132250000D02*
X119750000Y-136586421D01*
X184250000Y-132250000D02*
X184250000Y-136586421D01*
X184250000Y-136000000D02*
X183123496Y-136586421D01*
X184250000Y-136000000D02*
X183123496Y-135413579D01*
X119750000Y-136000000D02*
X120876504Y-136586421D01*
X119750000Y-136000000D02*
X120876504Y-135413579D01*
D12*
X124500000Y-115761904D02*
X124452380Y-115857142D01*
X124452380Y-116000000D01*
X124500000Y-116142857D01*
X124595238Y-116238095D01*
X124690476Y-116285714D01*
X124880952Y-116333333D01*
X125023809Y-116333333D01*
X125214285Y-116285714D01*
X125309523Y-116238095D01*
X125404761Y-116142857D01*
X125452380Y-116000000D01*
X125452380Y-115904761D01*
X125404761Y-115761904D01*
X125357142Y-115714285D01*
X125023809Y-115714285D01*
X125023809Y-115904761D01*
X125452380Y-115285714D02*
X124452380Y-115285714D01*
X125452380Y-114714285D01*
X124452380Y-114714285D01*
X125452380Y-114238095D02*
X124452380Y-114238095D01*
X124452380Y-114000000D01*
X124500000Y-113857142D01*
X124595238Y-113761904D01*
X124690476Y-113714285D01*
X124880952Y-113666666D01*
X125023809Y-113666666D01*
X125214285Y-113714285D01*
X125309523Y-113761904D01*
X125404761Y-113857142D01*
X125452380Y-114000000D01*
X125452380Y-114238095D01*
X126952380Y-115797619D02*
X126952380Y-115178571D01*
X127333333Y-115511904D01*
X127333333Y-115369047D01*
X127380952Y-115273809D01*
X127428571Y-115226190D01*
X127523809Y-115178571D01*
X127761904Y-115178571D01*
X127857142Y-115226190D01*
X127904761Y-115273809D01*
X127952380Y-115369047D01*
X127952380Y-115654761D01*
X127904761Y-115750000D01*
X127857142Y-115797619D01*
X127857142Y-114750000D02*
X127904761Y-114702380D01*
X127952380Y-114750000D01*
X127904761Y-114797619D01*
X127857142Y-114750000D01*
X127952380Y-114750000D01*
X126952380Y-114369047D02*
X126952380Y-113750000D01*
X127333333Y-114083333D01*
X127333333Y-113940476D01*
X127380952Y-113845238D01*
X127428571Y-113797619D01*
X127523809Y-113750000D01*
X127761904Y-113750000D01*
X127857142Y-113797619D01*
X127904761Y-113845238D01*
X127952380Y-113940476D01*
X127952380Y-114226190D01*
X127904761Y-114321428D01*
X127857142Y-114369047D01*
X132904761Y-116214285D02*
X132952380Y-116071428D01*
X132952380Y-115833333D01*
X132904761Y-115738095D01*
X132857142Y-115690476D01*
X132761904Y-115642857D01*
X132666666Y-115642857D01*
X132571428Y-115690476D01*
X132523809Y-115738095D01*
X132476190Y-115833333D01*
X132428571Y-116023809D01*
X132380952Y-116119047D01*
X132333333Y-116166666D01*
X132238095Y-116214285D01*
X132142857Y-116214285D01*
X132047619Y-116166666D01*
X132000000Y-116119047D01*
X131952380Y-116023809D01*
X131952380Y-115785714D01*
X132000000Y-115642857D01*
X132952380Y-115214285D02*
X131952380Y-115214285D01*
X131952380Y-114976190D01*
X132000000Y-114833333D01*
X132095238Y-114738095D01*
X132190476Y-114690476D01*
X132380952Y-114642857D01*
X132523809Y-114642857D01*
X132714285Y-114690476D01*
X132809523Y-114738095D01*
X132904761Y-114833333D01*
X132952380Y-114976190D01*
X132952380Y-115214285D01*
X132666666Y-114261904D02*
X132666666Y-113785714D01*
X132952380Y-114357142D02*
X131952380Y-114023809D01*
X132952380Y-113690476D01*
X130404761Y-116190476D02*
X130452380Y-116047619D01*
X130452380Y-115809523D01*
X130404761Y-115714285D01*
X130357142Y-115666666D01*
X130261904Y-115619047D01*
X130166666Y-115619047D01*
X130071428Y-115666666D01*
X130023809Y-115714285D01*
X129976190Y-115809523D01*
X129928571Y-116000000D01*
X129880952Y-116095238D01*
X129833333Y-116142857D01*
X129738095Y-116190476D01*
X129642857Y-116190476D01*
X129547619Y-116142857D01*
X129500000Y-116095238D01*
X129452380Y-116000000D01*
X129452380Y-115761904D01*
X129500000Y-115619047D01*
X130357142Y-114619047D02*
X130404761Y-114666666D01*
X130452380Y-114809523D01*
X130452380Y-114904761D01*
X130404761Y-115047619D01*
X130309523Y-115142857D01*
X130214285Y-115190476D01*
X130023809Y-115238095D01*
X129880952Y-115238095D01*
X129690476Y-115190476D01*
X129595238Y-115142857D01*
X129500000Y-115047619D01*
X129452380Y-114904761D01*
X129452380Y-114809523D01*
X129500000Y-114666666D01*
X129547619Y-114619047D01*
X130452380Y-113714285D02*
X130452380Y-114190476D01*
X129452380Y-114190476D01*
D11*
X122064047Y-81403571D02*
X122480714Y-82903571D01*
X122897380Y-81403571D01*
X123195000Y-81403571D02*
X123968809Y-81403571D01*
X123552142Y-81975000D01*
X123730714Y-81975000D01*
X123849761Y-82046428D01*
X123909285Y-82117857D01*
X123968809Y-82260714D01*
X123968809Y-82617857D01*
X123909285Y-82760714D01*
X123849761Y-82832142D01*
X123730714Y-82903571D01*
X123373571Y-82903571D01*
X123254523Y-82832142D01*
X123195000Y-82760714D01*
X124504523Y-82760714D02*
X124564047Y-82832142D01*
X124504523Y-82903571D01*
X124445000Y-82832142D01*
X124504523Y-82760714D01*
X124504523Y-82903571D01*
X125337857Y-81403571D02*
X125456904Y-81403571D01*
X125575952Y-81475000D01*
X125635476Y-81546428D01*
X125695000Y-81689285D01*
X125754523Y-81975000D01*
X125754523Y-82332142D01*
X125695000Y-82617857D01*
X125635476Y-82760714D01*
X125575952Y-82832142D01*
X125456904Y-82903571D01*
X125337857Y-82903571D01*
X125218809Y-82832142D01*
X125159285Y-82760714D01*
X125099761Y-82617857D01*
X125040238Y-82332142D01*
X125040238Y-81975000D01*
X125099761Y-81689285D01*
X125159285Y-81546428D01*
X125218809Y-81475000D01*
X125337857Y-81403571D01*
X130099761Y-82903571D02*
X130099761Y-81403571D01*
X130099761Y-81975000D02*
X130218809Y-81903571D01*
X130456904Y-81903571D01*
X130575952Y-81975000D01*
X130635476Y-82046428D01*
X130695000Y-82189285D01*
X130695000Y-82617857D01*
X130635476Y-82760714D01*
X130575952Y-82832142D01*
X130456904Y-82903571D01*
X130218809Y-82903571D01*
X130099761Y-82832142D01*
X131052142Y-81903571D02*
X131528333Y-81903571D01*
X131230714Y-81403571D02*
X131230714Y-82689285D01*
X131290238Y-82832142D01*
X131409285Y-82903571D01*
X131528333Y-82903571D01*
X131945000Y-82332142D02*
X132897380Y-82332142D01*
X133314047Y-81903571D02*
X133790238Y-81903571D01*
X133492619Y-81403571D02*
X133492619Y-82689285D01*
X133552142Y-82832142D01*
X133671190Y-82903571D01*
X133790238Y-82903571D01*
X134206904Y-82903571D02*
X134206904Y-81903571D01*
X134206904Y-82189285D02*
X134266428Y-82046428D01*
X134325952Y-81975000D01*
X134445000Y-81903571D01*
X134564047Y-81903571D01*
X134861666Y-82903571D02*
X135516428Y-81903571D01*
X134861666Y-81903571D02*
X135516428Y-82903571D01*
X135992619Y-82760714D02*
X136052142Y-82832142D01*
X135992619Y-82903571D01*
X135933095Y-82832142D01*
X135992619Y-82760714D01*
X135992619Y-82903571D01*
X137123571Y-82832142D02*
X137004523Y-82903571D01*
X136766428Y-82903571D01*
X136647380Y-82832142D01*
X136587857Y-82760714D01*
X136528333Y-82617857D01*
X136528333Y-82189285D01*
X136587857Y-82046428D01*
X136647380Y-81975000D01*
X136766428Y-81903571D01*
X137004523Y-81903571D01*
X137123571Y-81975000D01*
X137837857Y-82903571D02*
X137718809Y-82832142D01*
X137659285Y-82760714D01*
X137599761Y-82617857D01*
X137599761Y-82189285D01*
X137659285Y-82046428D01*
X137718809Y-81975000D01*
X137837857Y-81903571D01*
X138016428Y-81903571D01*
X138135476Y-81975000D01*
X138195000Y-82046428D01*
X138254523Y-82189285D01*
X138254523Y-82617857D01*
X138195000Y-82760714D01*
X138135476Y-82832142D01*
X138016428Y-82903571D01*
X137837857Y-82903571D01*
X138790238Y-82903571D02*
X138790238Y-81903571D01*
X138790238Y-82046428D02*
X138849761Y-81975000D01*
X138968809Y-81903571D01*
X139147380Y-81903571D01*
X139266428Y-81975000D01*
X139325952Y-82117857D01*
X139325952Y-82903571D01*
X139325952Y-82117857D02*
X139385476Y-81975000D01*
X139504523Y-81903571D01*
X139683095Y-81903571D01*
X139802142Y-81975000D01*
X139861666Y-82117857D01*
X139861666Y-82903571D01*
X122242619Y-85453571D02*
X122242619Y-83953571D01*
X122540238Y-83953571D01*
X122718809Y-84025000D01*
X122837857Y-84167857D01*
X122897380Y-84310714D01*
X122956904Y-84596428D01*
X122956904Y-84810714D01*
X122897380Y-85096428D01*
X122837857Y-85239285D01*
X122718809Y-85382142D01*
X122540238Y-85453571D01*
X122242619Y-85453571D01*
X124087857Y-85453571D02*
X123492619Y-85453571D01*
X123492619Y-83953571D01*
X125159285Y-85453571D02*
X124445000Y-85453571D01*
X124802142Y-85453571D02*
X124802142Y-83953571D01*
X124683095Y-84167857D01*
X124564047Y-84310714D01*
X124445000Y-84382142D01*
X126409285Y-85310714D02*
X126349761Y-85382142D01*
X126171190Y-85453571D01*
X126052142Y-85453571D01*
X125873571Y-85382142D01*
X125754523Y-85239285D01*
X125695000Y-85096428D01*
X125635476Y-84810714D01*
X125635476Y-84596428D01*
X125695000Y-84310714D01*
X125754523Y-84167857D01*
X125873571Y-84025000D01*
X126052142Y-83953571D01*
X126171190Y-83953571D01*
X126349761Y-84025000D01*
X126409285Y-84096428D01*
X127183095Y-83953571D02*
X127421190Y-83953571D01*
X127540238Y-84025000D01*
X127659285Y-84167857D01*
X127718809Y-84453571D01*
X127718809Y-84953571D01*
X127659285Y-85239285D01*
X127540238Y-85382142D01*
X127421190Y-85453571D01*
X127183095Y-85453571D01*
X127064047Y-85382142D01*
X126945000Y-85239285D01*
X126885476Y-84953571D01*
X126885476Y-84453571D01*
X126945000Y-84167857D01*
X127064047Y-84025000D01*
X127183095Y-83953571D01*
X128254523Y-85453571D02*
X128254523Y-83953571D01*
X128671190Y-85025000D01*
X129087857Y-83953571D01*
X129087857Y-85453571D01*
X130635476Y-84882142D02*
X131587857Y-84882142D01*
X133135476Y-85453571D02*
X133135476Y-83953571D01*
X133433095Y-83953571D01*
X133611666Y-84025000D01*
X133730714Y-84167857D01*
X133790238Y-84310714D01*
X133849761Y-84596428D01*
X133849761Y-84810714D01*
X133790238Y-85096428D01*
X133730714Y-85239285D01*
X133611666Y-85382142D01*
X133433095Y-85453571D01*
X133135476Y-85453571D01*
X135099761Y-85310714D02*
X135040238Y-85382142D01*
X134861666Y-85453571D01*
X134742619Y-85453571D01*
X134564047Y-85382142D01*
X134445000Y-85239285D01*
X134385476Y-85096428D01*
X134325952Y-84810714D01*
X134325952Y-84596428D01*
X134385476Y-84310714D01*
X134445000Y-84167857D01*
X134564047Y-84025000D01*
X134742619Y-83953571D01*
X134861666Y-83953571D01*
X135040238Y-84025000D01*
X135099761Y-84096428D01*
X136290238Y-85453571D02*
X135575952Y-85453571D01*
X135933095Y-85453571D02*
X135933095Y-83953571D01*
X135814047Y-84167857D01*
X135695000Y-84310714D01*
X135575952Y-84382142D01*
X136825952Y-85453571D02*
X136825952Y-83953571D01*
X137242619Y-85025000D01*
X137659285Y-83953571D01*
X137659285Y-85453571D01*
X138254523Y-85453571D02*
X138254523Y-83953571D01*
X139445000Y-85453571D02*
X138849761Y-85453571D01*
X138849761Y-83953571D01*
X122659285Y-76867857D02*
X122837857Y-76939285D01*
X122897380Y-77010714D01*
X122956904Y-77153571D01*
X122956904Y-77367857D01*
X122897380Y-77510714D01*
X122837857Y-77582142D01*
X122718809Y-77653571D01*
X122242619Y-77653571D01*
X122242619Y-76153571D01*
X122659285Y-76153571D01*
X122778333Y-76225000D01*
X122837857Y-76296428D01*
X122897380Y-76439285D01*
X122897380Y-76582142D01*
X122837857Y-76725000D01*
X122778333Y-76796428D01*
X122659285Y-76867857D01*
X122242619Y-76867857D01*
X123314047Y-76153571D02*
X124028333Y-76153571D01*
X123671190Y-77653571D02*
X123671190Y-76153571D01*
X124445000Y-77082142D02*
X125397380Y-77082142D01*
X125814047Y-76153571D02*
X126528333Y-76153571D01*
X126171190Y-77653571D02*
X126171190Y-76153571D01*
X127659285Y-77653571D02*
X127242619Y-76939285D01*
X126945000Y-77653571D02*
X126945000Y-76153571D01*
X127421190Y-76153571D01*
X127540238Y-76225000D01*
X127599761Y-76296428D01*
X127659285Y-76439285D01*
X127659285Y-76653571D01*
X127599761Y-76796428D01*
X127540238Y-76867857D01*
X127421190Y-76939285D01*
X126945000Y-76939285D01*
X128075952Y-76153571D02*
X128909285Y-77653571D01*
X128909285Y-76153571D02*
X128075952Y-77653571D01*
X122242619Y-80203571D02*
X122242619Y-78703571D01*
X122540238Y-78703571D01*
X122718809Y-78775000D01*
X122837857Y-78917857D01*
X122897380Y-79060714D01*
X122956904Y-79346428D01*
X122956904Y-79560714D01*
X122897380Y-79846428D01*
X122837857Y-79989285D01*
X122718809Y-80132142D01*
X122540238Y-80203571D01*
X122242619Y-80203571D01*
X123968809Y-80132142D02*
X123849761Y-80203571D01*
X123611666Y-80203571D01*
X123492619Y-80132142D01*
X123433095Y-79989285D01*
X123433095Y-79417857D01*
X123492619Y-79275000D01*
X123611666Y-79203571D01*
X123849761Y-79203571D01*
X123968809Y-79275000D01*
X124028333Y-79417857D01*
X124028333Y-79560714D01*
X123433095Y-79703571D01*
X124445000Y-79203571D02*
X124742619Y-80203571D01*
X125040238Y-79203571D01*
X125992619Y-80132142D02*
X125873571Y-80203571D01*
X125635476Y-80203571D01*
X125516428Y-80132142D01*
X125456904Y-79989285D01*
X125456904Y-79417857D01*
X125516428Y-79275000D01*
X125635476Y-79203571D01*
X125873571Y-79203571D01*
X125992619Y-79275000D01*
X126052142Y-79417857D01*
X126052142Y-79560714D01*
X125456904Y-79703571D01*
X126766428Y-80203571D02*
X126647380Y-80132142D01*
X126587857Y-79989285D01*
X126587857Y-78703571D01*
X127421190Y-80203571D02*
X127302142Y-80132142D01*
X127242619Y-80060714D01*
X127183095Y-79917857D01*
X127183095Y-79489285D01*
X127242619Y-79346428D01*
X127302142Y-79275000D01*
X127421190Y-79203571D01*
X127599761Y-79203571D01*
X127718809Y-79275000D01*
X127778333Y-79346428D01*
X127837857Y-79489285D01*
X127837857Y-79917857D01*
X127778333Y-80060714D01*
X127718809Y-80132142D01*
X127599761Y-80203571D01*
X127421190Y-80203571D01*
X128373571Y-79203571D02*
X128373571Y-80703571D01*
X128373571Y-79275000D02*
X128492619Y-79203571D01*
X128730714Y-79203571D01*
X128849761Y-79275000D01*
X128909285Y-79346428D01*
X128968809Y-79489285D01*
X128968809Y-79917857D01*
X128909285Y-80060714D01*
X128849761Y-80132142D01*
X128730714Y-80203571D01*
X128492619Y-80203571D01*
X128373571Y-80132142D01*
X129504523Y-80203571D02*
X129504523Y-79203571D01*
X129504523Y-79346428D02*
X129564047Y-79275000D01*
X129683095Y-79203571D01*
X129861666Y-79203571D01*
X129980714Y-79275000D01*
X130040238Y-79417857D01*
X130040238Y-80203571D01*
X130040238Y-79417857D02*
X130099761Y-79275000D01*
X130218809Y-79203571D01*
X130397380Y-79203571D01*
X130516428Y-79275000D01*
X130575952Y-79417857D01*
X130575952Y-80203571D01*
X131647380Y-80132142D02*
X131528333Y-80203571D01*
X131290238Y-80203571D01*
X131171190Y-80132142D01*
X131111666Y-79989285D01*
X131111666Y-79417857D01*
X131171190Y-79275000D01*
X131290238Y-79203571D01*
X131528333Y-79203571D01*
X131647380Y-79275000D01*
X131706904Y-79417857D01*
X131706904Y-79560714D01*
X131111666Y-79703571D01*
X132242619Y-79203571D02*
X132242619Y-80203571D01*
X132242619Y-79346428D02*
X132302142Y-79275000D01*
X132421190Y-79203571D01*
X132599761Y-79203571D01*
X132718809Y-79275000D01*
X132778333Y-79417857D01*
X132778333Y-80203571D01*
X133195000Y-79203571D02*
X133671190Y-79203571D01*
X133373571Y-78703571D02*
X133373571Y-79989285D01*
X133433095Y-80132142D01*
X133552142Y-80203571D01*
X133671190Y-80203571D01*
X135456904Y-79417857D02*
X135635476Y-79489285D01*
X135695000Y-79560714D01*
X135754523Y-79703571D01*
X135754523Y-79917857D01*
X135695000Y-80060714D01*
X135635476Y-80132142D01*
X135516428Y-80203571D01*
X135040238Y-80203571D01*
X135040238Y-78703571D01*
X135456904Y-78703571D01*
X135575952Y-78775000D01*
X135635476Y-78846428D01*
X135695000Y-78989285D01*
X135695000Y-79132142D01*
X135635476Y-79275000D01*
X135575952Y-79346428D01*
X135456904Y-79417857D01*
X135040238Y-79417857D01*
X136468809Y-80203571D02*
X136349761Y-80132142D01*
X136290238Y-80060714D01*
X136230714Y-79917857D01*
X136230714Y-79489285D01*
X136290238Y-79346428D01*
X136349761Y-79275000D01*
X136468809Y-79203571D01*
X136647380Y-79203571D01*
X136766428Y-79275000D01*
X136825952Y-79346428D01*
X136885476Y-79489285D01*
X136885476Y-79917857D01*
X136825952Y-80060714D01*
X136766428Y-80132142D01*
X136647380Y-80203571D01*
X136468809Y-80203571D01*
X137956904Y-80203571D02*
X137956904Y-79417857D01*
X137897380Y-79275000D01*
X137778333Y-79203571D01*
X137540238Y-79203571D01*
X137421190Y-79275000D01*
X137956904Y-80132142D02*
X137837857Y-80203571D01*
X137540238Y-80203571D01*
X137421190Y-80132142D01*
X137361666Y-79989285D01*
X137361666Y-79846428D01*
X137421190Y-79703571D01*
X137540238Y-79632142D01*
X137837857Y-79632142D01*
X137956904Y-79560714D01*
X138552142Y-80203571D02*
X138552142Y-79203571D01*
X138552142Y-79489285D02*
X138611666Y-79346428D01*
X138671190Y-79275000D01*
X138790238Y-79203571D01*
X138909285Y-79203571D01*
X139861666Y-80203571D02*
X139861666Y-78703571D01*
X139861666Y-80132142D02*
X139742619Y-80203571D01*
X139504523Y-80203571D01*
X139385476Y-80132142D01*
X139325952Y-80060714D01*
X139266428Y-79917857D01*
X139266428Y-79489285D01*
X139325952Y-79346428D01*
X139385476Y-79275000D01*
X139504523Y-79203571D01*
X139742619Y-79203571D01*
X139861666Y-79275000D01*
D13*
G04 #@! TO.C,C1*
X150393252Y-76720000D02*
X149870748Y-76720000D01*
X150393252Y-78140000D02*
X149870748Y-78140000D01*
G04 #@! TO.C,C2*
X150343252Y-84940000D02*
X149820748Y-84940000D01*
X150343252Y-83520000D02*
X149820748Y-83520000D01*
G04 #@! TO.C,C3*
X150368252Y-82940000D02*
X149845748Y-82940000D01*
X150368252Y-81520000D02*
X149845748Y-81520000D01*
G04 #@! TO.C,C4*
X145929000Y-89245252D02*
X145929000Y-88722748D01*
X147349000Y-89245252D02*
X147349000Y-88722748D01*
G04 #@! TO.C,C5*
X150368252Y-79520000D02*
X149845748Y-79520000D01*
X150368252Y-80940000D02*
X149845748Y-80940000D01*
G04 #@! TO.C,C6*
X164852000Y-122613748D02*
X164852000Y-123136252D01*
X166272000Y-122613748D02*
X166272000Y-123136252D01*
G04 #@! TO.C,F1*
X162239000Y-120982564D02*
X162239000Y-119778436D01*
X164059000Y-120982564D02*
X164059000Y-119778436D01*
G04 #@! TO.C,J2*
X167908000Y-91582000D02*
X167908000Y-92912000D01*
X166578000Y-91582000D02*
X167908000Y-91582000D01*
X165308000Y-91582000D02*
X165308000Y-94242000D01*
X165308000Y-94242000D02*
X162708000Y-94242000D01*
X165308000Y-91582000D02*
X162708000Y-91582000D01*
X162708000Y-91582000D02*
X162708000Y-94242000D01*
G04 #@! TO.C,L1*
X163143252Y-87740000D02*
X162620748Y-87740000D01*
X163143252Y-86320000D02*
X162620748Y-86320000D01*
G04 #@! TO.C,L2*
X162645748Y-81740000D02*
X163168252Y-81740000D01*
X162645748Y-80320000D02*
X163168252Y-80320000D01*
G04 #@! TO.C,L3*
X161193000Y-119831000D02*
X161193000Y-120231000D01*
X157993000Y-119831000D02*
X157993000Y-120231000D01*
G04 #@! TO.C,R2*
X173488748Y-105210000D02*
X174011252Y-105210000D01*
X173488748Y-103790000D02*
X174011252Y-103790000D01*
G04 #@! TO.C,R3*
X178488748Y-101540000D02*
X179011252Y-101540000D01*
X178488748Y-102960000D02*
X179011252Y-102960000D01*
G04 #@! TO.C,R5*
X166736252Y-97210000D02*
X166213748Y-97210000D01*
X166736252Y-95790000D02*
X166213748Y-95790000D01*
G04 #@! TO.C,TP8*
X136250000Y-68900000D02*
X136250000Y-64500000D01*
X140650000Y-68900000D02*
X136250000Y-68900000D01*
X140650000Y-64500000D02*
X140650000Y-68900000D01*
X136250000Y-64500000D02*
X140650000Y-64500000D01*
D14*
G04 #@! TO.C,U1*
X119850000Y-87600000D02*
X119850000Y-103500000D01*
X119850000Y-103500000D02*
X124750000Y-103500000D01*
X142750000Y-103500000D02*
X143750000Y-103500000D01*
X143750000Y-103500000D02*
X143750000Y-102500000D01*
X143750000Y-87600000D02*
X142750000Y-87600000D01*
X125850000Y-91500000D02*
X119850000Y-91500000D01*
X119850000Y-101500000D02*
X125850000Y-101500000D01*
X125850000Y-101500000D02*
X125850000Y-91500000D01*
X143750000Y-88600000D02*
X143750000Y-87600000D01*
X119850000Y-87600000D02*
X121750000Y-87600000D01*
D13*
G04 #@! TO.C,TP1*
X167457000Y-87030000D02*
G75*
G03X167457000Y-87030000I-950000J0D01*
G01*
G04 #@! TO.C,TP2*
X147457000Y-77430000D02*
G75*
G03X147457000Y-77430000I-950000J0D01*
G01*
G04 #@! TO.C,TP3*
X147457000Y-74830000D02*
G75*
G03X147457000Y-74830000I-950000J0D01*
G01*
G04 #@! TO.C,TP4*
X147457000Y-84276000D02*
G75*
G03X147457000Y-84276000I-950000J0D01*
G01*
G04 #@! TO.C,TP5*
X147457000Y-81609000D02*
G75*
G03X147457000Y-81609000I-950000J0D01*
G01*
G04 #@! TO.C,TP6*
X167457000Y-76230000D02*
G75*
G03X167457000Y-76230000I-950000J0D01*
G01*
G04 #@! TO.C,TP7*
X167457000Y-81030000D02*
G75*
G03X167457000Y-81030000I-950000J0D01*
G01*
G04 #@! TO.C,C7*
X164852000Y-119344252D02*
X164852000Y-118821748D01*
X166272000Y-119344252D02*
X166272000Y-118821748D01*
G04 #@! TO.C,JP2*
X148507000Y-88630000D02*
X151307000Y-88630000D01*
X151307000Y-88630000D02*
X151307000Y-90630000D01*
X151307000Y-90630000D02*
X148507000Y-90630000D01*
X148507000Y-90630000D02*
X148507000Y-88630000D01*
G04 #@! TO.C,U2*
X173593000Y-124135000D02*
X173593000Y-122875000D01*
X173593000Y-117315000D02*
X173593000Y-118575000D01*
X169833000Y-124135000D02*
X173593000Y-124135000D01*
X167583000Y-117315000D02*
X173593000Y-117315000D01*
G04 #@! TO.C,R1*
X168540000Y-110738748D02*
X168540000Y-111261252D01*
X169960000Y-110738748D02*
X169960000Y-111261252D01*
G04 #@! TO.C,R4*
X178488748Y-105290000D02*
X179011252Y-105290000D01*
X178488748Y-106710000D02*
X179011252Y-106710000D01*
G04 #@! TO.C,D2*
X161350000Y-126350000D02*
X161350000Y-129650000D01*
X161350000Y-129650000D02*
X166750000Y-129650000D01*
X161350000Y-126350000D02*
X166750000Y-126350000D01*
G04 #@! TO.C,J4*
X152802000Y-91582000D02*
X152802000Y-94242000D01*
X157942000Y-91582000D02*
X152802000Y-91582000D01*
X157942000Y-94242000D02*
X152802000Y-94242000D01*
X157942000Y-91582000D02*
X157942000Y-94242000D01*
X159212000Y-91582000D02*
X160542000Y-91582000D01*
X160542000Y-91582000D02*
X160542000Y-92912000D01*
G04 #@! TO.C,J6*
X169130000Y-95170000D02*
X169130000Y-97830000D01*
X171730000Y-95170000D02*
X169130000Y-95170000D01*
X171730000Y-97830000D02*
X169130000Y-97830000D01*
X171730000Y-95170000D02*
X171730000Y-97830000D01*
X173000000Y-95170000D02*
X174330000Y-95170000D01*
X174330000Y-95170000D02*
X174330000Y-96500000D01*
G04 #@! TO.C,RV1*
X159327000Y-90270000D02*
X159327000Y-90850000D01*
X159327000Y-87970000D02*
X159327000Y-88490000D01*
X159327000Y-85610000D02*
X159327000Y-86191000D01*
X154087000Y-89120000D02*
X154087000Y-90850000D01*
X154087000Y-85610000D02*
X154087000Y-87340000D01*
X154087000Y-90850000D02*
X159327000Y-90850000D01*
X154087000Y-85610000D02*
X159327000Y-85610000D01*
G04 #@! TO.C,RV2*
X159327000Y-78850000D02*
X154087000Y-78850000D01*
X159327000Y-73610000D02*
X154087000Y-73610000D01*
X159327000Y-78850000D02*
X159327000Y-77120000D01*
X159327000Y-75340000D02*
X159327000Y-73610000D01*
X154087000Y-78850000D02*
X154087000Y-78269000D01*
X154087000Y-76490000D02*
X154087000Y-75970000D01*
X154087000Y-74190000D02*
X154087000Y-73610000D01*
G04 #@! TO.C,RV3*
X154087000Y-79610000D02*
X159327000Y-79610000D01*
X154087000Y-84850000D02*
X159327000Y-84850000D01*
X154087000Y-79610000D02*
X154087000Y-81340000D01*
X154087000Y-83120000D02*
X154087000Y-84850000D01*
X159327000Y-79610000D02*
X159327000Y-80191000D01*
X159327000Y-81970000D02*
X159327000Y-82490000D01*
X159327000Y-84270000D02*
X159327000Y-84850000D01*
G04 #@! TO.C,J5*
X173428000Y-85482000D02*
X172928000Y-84982000D01*
X172428000Y-85482000D02*
X173428000Y-85482000D01*
X172928000Y-84982000D02*
X172428000Y-85482000D01*
X187008000Y-84797000D02*
X187008000Y-69277000D01*
X169048000Y-69277000D02*
X187008000Y-69277000D01*
X169048000Y-69277000D02*
X169048000Y-84797000D01*
X169048000Y-84797000D02*
X187008000Y-84797000D01*
G04 #@! TO.C,J3*
X187138000Y-87644000D02*
X187138000Y-93884000D01*
X187138000Y-93884000D02*
X183138000Y-93884000D01*
X183138000Y-93884000D02*
X183138000Y-94184000D01*
X183138000Y-94184000D02*
X168898000Y-94184000D01*
X168898000Y-94184000D02*
X168898000Y-85744000D01*
X168898000Y-85744000D02*
X183138000Y-85744000D01*
X183138000Y-85744000D02*
X183138000Y-87644000D01*
X183138000Y-87644000D02*
X187138000Y-87644000D01*
G04 #@! TO.C,J7*
X133870000Y-112830000D02*
X133870000Y-110170000D01*
X126190000Y-112830000D02*
X133870000Y-112830000D01*
X126190000Y-110170000D02*
X133870000Y-110170000D01*
X126190000Y-112830000D02*
X126190000Y-110170000D01*
X124920000Y-112830000D02*
X123590000Y-112830000D01*
X123590000Y-112830000D02*
X123590000Y-111500000D01*
G04 #@! TO.C,R6*
X131790000Y-107238748D02*
X131790000Y-107761252D01*
X133210000Y-107238748D02*
X133210000Y-107761252D01*
G04 #@! TO.C,R7*
X130710000Y-107238748D02*
X130710000Y-107761252D01*
X129290000Y-107238748D02*
X129290000Y-107761252D01*
G04 #@! TO.C,SW1*
X176809000Y-125574000D02*
X177159000Y-125574000D01*
X176809000Y-126464000D02*
X176809000Y-125574000D01*
X177109000Y-126464000D02*
X176809000Y-126464000D01*
X179749000Y-126464000D02*
X183599000Y-126464000D01*
X183599000Y-126464000D02*
X183599000Y-118724000D01*
X183599000Y-118724000D02*
X179749000Y-118724000D01*
X179359000Y-120104000D02*
X179359000Y-125084000D01*
X176809000Y-119614000D02*
X176809000Y-118724000D01*
X176809000Y-119614000D02*
X177159000Y-119614000D01*
X177109000Y-118724000D02*
X176809000Y-118724000D01*
D15*
G04 #@! TO.C,N1*
G36*
X121599744Y-125919918D02*
X121655201Y-125947568D01*
X121704148Y-125998480D01*
X121717629Y-126017338D01*
X121732314Y-126042015D01*
X121741842Y-126068816D01*
X121747293Y-126104587D01*
X121749747Y-126156169D01*
X121750286Y-126224267D01*
X121747852Y-126317588D01*
X121739394Y-126387657D01*
X121723174Y-126439931D01*
X121697454Y-126479869D01*
X121660497Y-126512929D01*
X121657782Y-126514886D01*
X121621360Y-126534908D01*
X121577502Y-126544815D01*
X121521724Y-126547257D01*
X121431048Y-126547257D01*
X121431010Y-126635283D01*
X121430166Y-126684308D01*
X121425024Y-126713065D01*
X121411587Y-126730311D01*
X121385858Y-126744808D01*
X121379679Y-126747769D01*
X121350764Y-126761648D01*
X121328376Y-126770414D01*
X121311729Y-126771171D01*
X121300036Y-126761023D01*
X121292510Y-126737073D01*
X121288366Y-126696426D01*
X121286815Y-126636186D01*
X121287071Y-126553455D01*
X121288349Y-126445339D01*
X121288748Y-126413000D01*
X121290185Y-126301524D01*
X121291472Y-126228603D01*
X121430971Y-126228603D01*
X121431755Y-126290499D01*
X121435240Y-126330997D01*
X121443124Y-126357708D01*
X121457105Y-126378244D01*
X121466597Y-126388260D01*
X121505404Y-126417567D01*
X121539763Y-126419952D01*
X121575216Y-126395750D01*
X121576114Y-126394857D01*
X121590539Y-126376153D01*
X121599313Y-126350732D01*
X121603739Y-126311584D01*
X121605118Y-126251697D01*
X121605143Y-126238430D01*
X121601812Y-126155901D01*
X121590969Y-126098691D01*
X121571340Y-126063766D01*
X121541650Y-126048094D01*
X121524491Y-126046514D01*
X121483766Y-126053926D01*
X121455832Y-126078330D01*
X121439017Y-126122980D01*
X121431650Y-126191130D01*
X121430971Y-126228603D01*
X121291472Y-126228603D01*
X121291708Y-126215245D01*
X121293677Y-126150333D01*
X121296450Y-126102958D01*
X121300388Y-126069290D01*
X121305849Y-126045498D01*
X121313192Y-126027753D01*
X121322777Y-126012224D01*
X121326887Y-126006381D01*
X121381405Y-125951185D01*
X121450336Y-125919890D01*
X121530072Y-125911165D01*
X121599744Y-125919918D01*
X121599744Y-125919918D01*
G37*
X121599744Y-125919918D02*
X121655201Y-125947568D01*
X121704148Y-125998480D01*
X121717629Y-126017338D01*
X121732314Y-126042015D01*
X121741842Y-126068816D01*
X121747293Y-126104587D01*
X121749747Y-126156169D01*
X121750286Y-126224267D01*
X121747852Y-126317588D01*
X121739394Y-126387657D01*
X121723174Y-126439931D01*
X121697454Y-126479869D01*
X121660497Y-126512929D01*
X121657782Y-126514886D01*
X121621360Y-126534908D01*
X121577502Y-126544815D01*
X121521724Y-126547257D01*
X121431048Y-126547257D01*
X121431010Y-126635283D01*
X121430166Y-126684308D01*
X121425024Y-126713065D01*
X121411587Y-126730311D01*
X121385858Y-126744808D01*
X121379679Y-126747769D01*
X121350764Y-126761648D01*
X121328376Y-126770414D01*
X121311729Y-126771171D01*
X121300036Y-126761023D01*
X121292510Y-126737073D01*
X121288366Y-126696426D01*
X121286815Y-126636186D01*
X121287071Y-126553455D01*
X121288349Y-126445339D01*
X121288748Y-126413000D01*
X121290185Y-126301524D01*
X121291472Y-126228603D01*
X121430971Y-126228603D01*
X121431755Y-126290499D01*
X121435240Y-126330997D01*
X121443124Y-126357708D01*
X121457105Y-126378244D01*
X121466597Y-126388260D01*
X121505404Y-126417567D01*
X121539763Y-126419952D01*
X121575216Y-126395750D01*
X121576114Y-126394857D01*
X121590539Y-126376153D01*
X121599313Y-126350732D01*
X121603739Y-126311584D01*
X121605118Y-126251697D01*
X121605143Y-126238430D01*
X121601812Y-126155901D01*
X121590969Y-126098691D01*
X121571340Y-126063766D01*
X121541650Y-126048094D01*
X121524491Y-126046514D01*
X121483766Y-126053926D01*
X121455832Y-126078330D01*
X121439017Y-126122980D01*
X121431650Y-126191130D01*
X121430971Y-126228603D01*
X121291472Y-126228603D01*
X121291708Y-126215245D01*
X121293677Y-126150333D01*
X121296450Y-126102958D01*
X121300388Y-126069290D01*
X121305849Y-126045498D01*
X121313192Y-126027753D01*
X121322777Y-126012224D01*
X121326887Y-126006381D01*
X121381405Y-125951185D01*
X121450336Y-125919890D01*
X121530072Y-125911165D01*
X121599744Y-125919918D01*
G36*
X122716093Y-125927780D02*
X122762672Y-125954723D01*
X122795057Y-125981466D01*
X122818742Y-126009484D01*
X122835059Y-126043748D01*
X122845339Y-126089227D01*
X122850914Y-126150892D01*
X122853116Y-126233711D01*
X122853371Y-126293246D01*
X122853371Y-126512391D01*
X122791686Y-126540044D01*
X122730000Y-126567697D01*
X122722743Y-126327670D01*
X122719744Y-126238028D01*
X122716598Y-126172962D01*
X122712701Y-126128026D01*
X122707447Y-126098770D01*
X122700231Y-126080748D01*
X122690450Y-126069511D01*
X122687312Y-126067079D01*
X122639761Y-126048083D01*
X122591697Y-126055600D01*
X122563086Y-126075543D01*
X122551447Y-126089675D01*
X122543391Y-126108220D01*
X122538271Y-126136334D01*
X122535441Y-126179173D01*
X122534256Y-126241895D01*
X122534057Y-126307261D01*
X122534018Y-126389268D01*
X122532614Y-126447316D01*
X122527914Y-126486465D01*
X122517987Y-126511780D01*
X122500903Y-126528323D01*
X122474732Y-126541156D01*
X122439775Y-126554491D01*
X122401596Y-126569007D01*
X122406141Y-126311389D01*
X122407971Y-126218519D01*
X122410112Y-126149889D01*
X122413181Y-126100711D01*
X122417794Y-126066198D01*
X122424568Y-126041562D01*
X122434119Y-126022016D01*
X122445634Y-126004770D01*
X122501190Y-125949680D01*
X122568980Y-125917822D01*
X122642713Y-125910191D01*
X122716093Y-125927780D01*
X122716093Y-125927780D01*
G37*
X122716093Y-125927780D02*
X122762672Y-125954723D01*
X122795057Y-125981466D01*
X122818742Y-126009484D01*
X122835059Y-126043748D01*
X122845339Y-126089227D01*
X122850914Y-126150892D01*
X122853116Y-126233711D01*
X122853371Y-126293246D01*
X122853371Y-126512391D01*
X122791686Y-126540044D01*
X122730000Y-126567697D01*
X122722743Y-126327670D01*
X122719744Y-126238028D01*
X122716598Y-126172962D01*
X122712701Y-126128026D01*
X122707447Y-126098770D01*
X122700231Y-126080748D01*
X122690450Y-126069511D01*
X122687312Y-126067079D01*
X122639761Y-126048083D01*
X122591697Y-126055600D01*
X122563086Y-126075543D01*
X122551447Y-126089675D01*
X122543391Y-126108220D01*
X122538271Y-126136334D01*
X122535441Y-126179173D01*
X122534256Y-126241895D01*
X122534057Y-126307261D01*
X122534018Y-126389268D01*
X122532614Y-126447316D01*
X122527914Y-126486465D01*
X122517987Y-126511780D01*
X122500903Y-126528323D01*
X122474732Y-126541156D01*
X122439775Y-126554491D01*
X122401596Y-126569007D01*
X122406141Y-126311389D01*
X122407971Y-126218519D01*
X122410112Y-126149889D01*
X122413181Y-126100711D01*
X122417794Y-126066198D01*
X122424568Y-126041562D01*
X122434119Y-126022016D01*
X122445634Y-126004770D01*
X122501190Y-125949680D01*
X122568980Y-125917822D01*
X122642713Y-125910191D01*
X122716093Y-125927780D01*
G36*
X121041115Y-125921962D02*
X121109145Y-125957733D01*
X121159351Y-126015301D01*
X121177185Y-126052312D01*
X121191063Y-126107882D01*
X121198167Y-126178096D01*
X121198840Y-126254727D01*
X121193427Y-126329552D01*
X121182270Y-126394342D01*
X121165714Y-126440873D01*
X121160626Y-126448887D01*
X121100355Y-126508707D01*
X121028769Y-126544535D01*
X120951092Y-126555020D01*
X120872548Y-126538810D01*
X120850689Y-126529092D01*
X120808122Y-126499143D01*
X120770763Y-126459433D01*
X120767232Y-126454397D01*
X120752881Y-126430124D01*
X120743394Y-126404178D01*
X120737790Y-126370022D01*
X120735086Y-126321119D01*
X120734299Y-126250935D01*
X120734286Y-126235200D01*
X120734322Y-126230192D01*
X120879429Y-126230192D01*
X120880273Y-126296430D01*
X120883596Y-126340386D01*
X120890583Y-126368779D01*
X120902416Y-126388325D01*
X120908457Y-126394857D01*
X120943186Y-126419680D01*
X120976903Y-126418548D01*
X121010995Y-126397016D01*
X121031329Y-126374029D01*
X121043371Y-126340478D01*
X121050134Y-126287569D01*
X121050598Y-126281399D01*
X121051752Y-126185513D01*
X121039688Y-126114299D01*
X121014570Y-126068194D01*
X120976560Y-126047635D01*
X120962992Y-126046514D01*
X120927364Y-126052152D01*
X120902994Y-126071686D01*
X120888093Y-126109042D01*
X120880875Y-126168150D01*
X120879429Y-126230192D01*
X120734322Y-126230192D01*
X120734826Y-126160413D01*
X120737096Y-126108159D01*
X120742068Y-126071949D01*
X120750713Y-126045299D01*
X120764005Y-126021722D01*
X120766943Y-126017338D01*
X120816313Y-125958249D01*
X120870109Y-125923947D01*
X120935602Y-125910331D01*
X120957842Y-125909665D01*
X121041115Y-125921962D01*
X121041115Y-125921962D01*
G37*
X121041115Y-125921962D02*
X121109145Y-125957733D01*
X121159351Y-126015301D01*
X121177185Y-126052312D01*
X121191063Y-126107882D01*
X121198167Y-126178096D01*
X121198840Y-126254727D01*
X121193427Y-126329552D01*
X121182270Y-126394342D01*
X121165714Y-126440873D01*
X121160626Y-126448887D01*
X121100355Y-126508707D01*
X121028769Y-126544535D01*
X120951092Y-126555020D01*
X120872548Y-126538810D01*
X120850689Y-126529092D01*
X120808122Y-126499143D01*
X120770763Y-126459433D01*
X120767232Y-126454397D01*
X120752881Y-126430124D01*
X120743394Y-126404178D01*
X120737790Y-126370022D01*
X120735086Y-126321119D01*
X120734299Y-126250935D01*
X120734286Y-126235200D01*
X120734322Y-126230192D01*
X120879429Y-126230192D01*
X120880273Y-126296430D01*
X120883596Y-126340386D01*
X120890583Y-126368779D01*
X120902416Y-126388325D01*
X120908457Y-126394857D01*
X120943186Y-126419680D01*
X120976903Y-126418548D01*
X121010995Y-126397016D01*
X121031329Y-126374029D01*
X121043371Y-126340478D01*
X121050134Y-126287569D01*
X121050598Y-126281399D01*
X121051752Y-126185513D01*
X121039688Y-126114299D01*
X121014570Y-126068194D01*
X120976560Y-126047635D01*
X120962992Y-126046514D01*
X120927364Y-126052152D01*
X120902994Y-126071686D01*
X120888093Y-126109042D01*
X120880875Y-126168150D01*
X120879429Y-126230192D01*
X120734322Y-126230192D01*
X120734826Y-126160413D01*
X120737096Y-126108159D01*
X120742068Y-126071949D01*
X120750713Y-126045299D01*
X120764005Y-126021722D01*
X120766943Y-126017338D01*
X120816313Y-125958249D01*
X120870109Y-125923947D01*
X120935602Y-125910331D01*
X120957842Y-125909665D01*
X121041115Y-125921962D01*
G36*
X122168303Y-125931239D02*
X122225527Y-125969735D01*
X122269749Y-126025335D01*
X122296167Y-126096086D01*
X122301510Y-126148162D01*
X122300903Y-126169893D01*
X122295822Y-126186531D01*
X122281855Y-126201437D01*
X122254589Y-126217973D01*
X122209612Y-126239498D01*
X122142511Y-126269374D01*
X122142171Y-126269524D01*
X122080407Y-126297813D01*
X122029759Y-126322933D01*
X121995404Y-126342179D01*
X121982518Y-126352848D01*
X121982514Y-126352934D01*
X121993872Y-126376166D01*
X122020431Y-126401774D01*
X122050923Y-126420221D01*
X122066370Y-126423886D01*
X122108515Y-126411212D01*
X122144808Y-126379471D01*
X122162517Y-126344572D01*
X122179552Y-126318845D01*
X122212922Y-126289546D01*
X122252149Y-126264235D01*
X122286756Y-126250471D01*
X122293993Y-126249714D01*
X122302139Y-126262160D01*
X122302630Y-126293972D01*
X122296643Y-126336866D01*
X122285357Y-126382558D01*
X122269950Y-126422761D01*
X122269171Y-126424322D01*
X122222804Y-126489062D01*
X122162711Y-126533097D01*
X122094465Y-126554711D01*
X122023638Y-126552185D01*
X121955804Y-126523804D01*
X121952788Y-126521808D01*
X121899427Y-126473448D01*
X121864340Y-126410352D01*
X121844922Y-126327387D01*
X121842316Y-126304078D01*
X121837701Y-126194055D01*
X121843233Y-126142748D01*
X121982514Y-126142748D01*
X121984324Y-126174753D01*
X121994222Y-126184093D01*
X122018898Y-126177105D01*
X122057795Y-126160587D01*
X122101275Y-126139881D01*
X122102356Y-126139333D01*
X122139209Y-126119949D01*
X122154000Y-126107013D01*
X122150353Y-126093451D01*
X122134995Y-126075632D01*
X122095923Y-126049845D01*
X122053846Y-126047950D01*
X122016103Y-126066717D01*
X121990034Y-126102915D01*
X121982514Y-126142748D01*
X121843233Y-126142748D01*
X121847194Y-126106027D01*
X121871550Y-126036212D01*
X121905456Y-125987302D01*
X121966653Y-125937878D01*
X122034063Y-125913359D01*
X122102880Y-125911797D01*
X122168303Y-125931239D01*
X122168303Y-125931239D01*
G37*
X122168303Y-125931239D02*
X122225527Y-125969735D01*
X122269749Y-126025335D01*
X122296167Y-126096086D01*
X122301510Y-126148162D01*
X122300903Y-126169893D01*
X122295822Y-126186531D01*
X122281855Y-126201437D01*
X122254589Y-126217973D01*
X122209612Y-126239498D01*
X122142511Y-126269374D01*
X122142171Y-126269524D01*
X122080407Y-126297813D01*
X122029759Y-126322933D01*
X121995404Y-126342179D01*
X121982518Y-126352848D01*
X121982514Y-126352934D01*
X121993872Y-126376166D01*
X122020431Y-126401774D01*
X122050923Y-126420221D01*
X122066370Y-126423886D01*
X122108515Y-126411212D01*
X122144808Y-126379471D01*
X122162517Y-126344572D01*
X122179552Y-126318845D01*
X122212922Y-126289546D01*
X122252149Y-126264235D01*
X122286756Y-126250471D01*
X122293993Y-126249714D01*
X122302139Y-126262160D01*
X122302630Y-126293972D01*
X122296643Y-126336866D01*
X122285357Y-126382558D01*
X122269950Y-126422761D01*
X122269171Y-126424322D01*
X122222804Y-126489062D01*
X122162711Y-126533097D01*
X122094465Y-126554711D01*
X122023638Y-126552185D01*
X121955804Y-126523804D01*
X121952788Y-126521808D01*
X121899427Y-126473448D01*
X121864340Y-126410352D01*
X121844922Y-126327387D01*
X121842316Y-126304078D01*
X121837701Y-126194055D01*
X121843233Y-126142748D01*
X121982514Y-126142748D01*
X121984324Y-126174753D01*
X121994222Y-126184093D01*
X122018898Y-126177105D01*
X122057795Y-126160587D01*
X122101275Y-126139881D01*
X122102356Y-126139333D01*
X122139209Y-126119949D01*
X122154000Y-126107013D01*
X122150353Y-126093451D01*
X122134995Y-126075632D01*
X122095923Y-126049845D01*
X122053846Y-126047950D01*
X122016103Y-126066717D01*
X121990034Y-126102915D01*
X121982514Y-126142748D01*
X121843233Y-126142748D01*
X121847194Y-126106027D01*
X121871550Y-126036212D01*
X121905456Y-125987302D01*
X121966653Y-125937878D01*
X122034063Y-125913359D01*
X122102880Y-125911797D01*
X122168303Y-125931239D01*
G36*
X123375886Y-125851289D02*
X123380139Y-125910613D01*
X123385025Y-125945572D01*
X123391795Y-125960820D01*
X123401702Y-125961015D01*
X123404914Y-125959195D01*
X123447644Y-125946015D01*
X123503227Y-125946785D01*
X123559737Y-125960333D01*
X123595082Y-125977861D01*
X123631321Y-126005861D01*
X123657813Y-126037549D01*
X123675999Y-126077813D01*
X123687322Y-126131543D01*
X123693222Y-126203626D01*
X123695143Y-126298951D01*
X123695177Y-126317237D01*
X123695200Y-126522646D01*
X123649491Y-126538580D01*
X123617027Y-126549420D01*
X123599215Y-126554468D01*
X123598691Y-126554514D01*
X123596937Y-126540828D01*
X123595444Y-126503076D01*
X123594326Y-126446224D01*
X123593697Y-126375234D01*
X123593600Y-126332073D01*
X123593398Y-126246973D01*
X123592358Y-126185981D01*
X123589831Y-126144177D01*
X123585164Y-126116642D01*
X123577707Y-126098456D01*
X123566811Y-126084698D01*
X123560007Y-126078073D01*
X123513272Y-126051375D01*
X123462272Y-126049375D01*
X123416001Y-126071955D01*
X123407444Y-126080107D01*
X123394893Y-126095436D01*
X123386188Y-126113618D01*
X123380631Y-126139909D01*
X123377526Y-126179562D01*
X123376176Y-126237832D01*
X123375886Y-126318173D01*
X123375886Y-126522646D01*
X123330177Y-126538580D01*
X123297713Y-126549420D01*
X123279901Y-126554468D01*
X123279377Y-126554514D01*
X123278037Y-126540623D01*
X123276828Y-126501439D01*
X123275801Y-126440700D01*
X123275002Y-126362141D01*
X123274481Y-126269498D01*
X123274286Y-126166509D01*
X123274286Y-125769342D01*
X123321457Y-125749444D01*
X123368629Y-125729547D01*
X123375886Y-125851289D01*
X123375886Y-125851289D01*
G37*
X123375886Y-125851289D02*
X123380139Y-125910613D01*
X123385025Y-125945572D01*
X123391795Y-125960820D01*
X123401702Y-125961015D01*
X123404914Y-125959195D01*
X123447644Y-125946015D01*
X123503227Y-125946785D01*
X123559737Y-125960333D01*
X123595082Y-125977861D01*
X123631321Y-126005861D01*
X123657813Y-126037549D01*
X123675999Y-126077813D01*
X123687322Y-126131543D01*
X123693222Y-126203626D01*
X123695143Y-126298951D01*
X123695177Y-126317237D01*
X123695200Y-126522646D01*
X123649491Y-126538580D01*
X123617027Y-126549420D01*
X123599215Y-126554468D01*
X123598691Y-126554514D01*
X123596937Y-126540828D01*
X123595444Y-126503076D01*
X123594326Y-126446224D01*
X123593697Y-126375234D01*
X123593600Y-126332073D01*
X123593398Y-126246973D01*
X123592358Y-126185981D01*
X123589831Y-126144177D01*
X123585164Y-126116642D01*
X123577707Y-126098456D01*
X123566811Y-126084698D01*
X123560007Y-126078073D01*
X123513272Y-126051375D01*
X123462272Y-126049375D01*
X123416001Y-126071955D01*
X123407444Y-126080107D01*
X123394893Y-126095436D01*
X123386188Y-126113618D01*
X123380631Y-126139909D01*
X123377526Y-126179562D01*
X123376176Y-126237832D01*
X123375886Y-126318173D01*
X123375886Y-126522646D01*
X123330177Y-126538580D01*
X123297713Y-126549420D01*
X123279901Y-126554468D01*
X123279377Y-126554514D01*
X123278037Y-126540623D01*
X123276828Y-126501439D01*
X123275801Y-126440700D01*
X123275002Y-126362141D01*
X123274481Y-126269498D01*
X123274286Y-126166509D01*
X123274286Y-125769342D01*
X123321457Y-125749444D01*
X123368629Y-125729547D01*
X123375886Y-125851289D01*
G36*
X124039744Y-125950968D02*
X124096616Y-125972087D01*
X124097267Y-125972493D01*
X124132440Y-125998380D01*
X124158407Y-126028633D01*
X124176670Y-126068058D01*
X124188732Y-126121462D01*
X124196096Y-126193651D01*
X124200264Y-126289432D01*
X124200629Y-126303078D01*
X124205876Y-126508842D01*
X124161716Y-126531678D01*
X124129763Y-126547110D01*
X124110470Y-126554423D01*
X124109578Y-126554514D01*
X124106239Y-126541022D01*
X124103587Y-126504626D01*
X124101956Y-126451452D01*
X124101600Y-126408393D01*
X124101592Y-126338641D01*
X124098403Y-126294837D01*
X124087288Y-126273944D01*
X124063501Y-126272925D01*
X124022296Y-126288741D01*
X123960086Y-126317815D01*
X123914341Y-126341963D01*
X123890813Y-126362913D01*
X123883896Y-126385747D01*
X123883886Y-126386877D01*
X123895299Y-126426212D01*
X123929092Y-126447462D01*
X123980809Y-126450539D01*
X124018061Y-126450006D01*
X124037703Y-126460735D01*
X124049952Y-126486505D01*
X124057002Y-126519337D01*
X124046842Y-126537966D01*
X124043017Y-126540632D01*
X124007001Y-126551340D01*
X123956566Y-126552856D01*
X123904626Y-126545759D01*
X123867822Y-126532788D01*
X123816938Y-126489585D01*
X123788014Y-126429446D01*
X123782286Y-126382462D01*
X123786657Y-126340082D01*
X123802475Y-126305488D01*
X123833797Y-126274763D01*
X123884678Y-126243990D01*
X123959176Y-126209252D01*
X123963714Y-126207288D01*
X124030821Y-126176287D01*
X124072232Y-126150862D01*
X124089981Y-126128014D01*
X124086107Y-126104745D01*
X124062643Y-126078056D01*
X124055627Y-126071914D01*
X124008630Y-126048100D01*
X123959933Y-126049103D01*
X123917522Y-126072451D01*
X123889384Y-126115675D01*
X123886769Y-126124160D01*
X123861308Y-126165308D01*
X123829001Y-126185128D01*
X123782286Y-126204770D01*
X123782286Y-126153950D01*
X123796496Y-126080082D01*
X123838675Y-126012327D01*
X123860624Y-125989661D01*
X123910517Y-125960569D01*
X123973967Y-125947400D01*
X124039744Y-125950968D01*
X124039744Y-125950968D01*
G37*
X124039744Y-125950968D02*
X124096616Y-125972087D01*
X124097267Y-125972493D01*
X124132440Y-125998380D01*
X124158407Y-126028633D01*
X124176670Y-126068058D01*
X124188732Y-126121462D01*
X124196096Y-126193651D01*
X124200264Y-126289432D01*
X124200629Y-126303078D01*
X124205876Y-126508842D01*
X124161716Y-126531678D01*
X124129763Y-126547110D01*
X124110470Y-126554423D01*
X124109578Y-126554514D01*
X124106239Y-126541022D01*
X124103587Y-126504626D01*
X124101956Y-126451452D01*
X124101600Y-126408393D01*
X124101592Y-126338641D01*
X124098403Y-126294837D01*
X124087288Y-126273944D01*
X124063501Y-126272925D01*
X124022296Y-126288741D01*
X123960086Y-126317815D01*
X123914341Y-126341963D01*
X123890813Y-126362913D01*
X123883896Y-126385747D01*
X123883886Y-126386877D01*
X123895299Y-126426212D01*
X123929092Y-126447462D01*
X123980809Y-126450539D01*
X124018061Y-126450006D01*
X124037703Y-126460735D01*
X124049952Y-126486505D01*
X124057002Y-126519337D01*
X124046842Y-126537966D01*
X124043017Y-126540632D01*
X124007001Y-126551340D01*
X123956566Y-126552856D01*
X123904626Y-126545759D01*
X123867822Y-126532788D01*
X123816938Y-126489585D01*
X123788014Y-126429446D01*
X123782286Y-126382462D01*
X123786657Y-126340082D01*
X123802475Y-126305488D01*
X123833797Y-126274763D01*
X123884678Y-126243990D01*
X123959176Y-126209252D01*
X123963714Y-126207288D01*
X124030821Y-126176287D01*
X124072232Y-126150862D01*
X124089981Y-126128014D01*
X124086107Y-126104745D01*
X124062643Y-126078056D01*
X124055627Y-126071914D01*
X124008630Y-126048100D01*
X123959933Y-126049103D01*
X123917522Y-126072451D01*
X123889384Y-126115675D01*
X123886769Y-126124160D01*
X123861308Y-126165308D01*
X123829001Y-126185128D01*
X123782286Y-126204770D01*
X123782286Y-126153950D01*
X123796496Y-126080082D01*
X123838675Y-126012327D01*
X123860624Y-125989661D01*
X123910517Y-125960569D01*
X123973967Y-125947400D01*
X124039744Y-125950968D01*
G36*
X124529926Y-125949755D02*
X124595858Y-125974084D01*
X124649273Y-126017117D01*
X124670164Y-126047409D01*
X124692939Y-126102994D01*
X124692466Y-126143186D01*
X124668562Y-126170217D01*
X124659717Y-126174813D01*
X124621530Y-126189144D01*
X124602028Y-126185472D01*
X124595422Y-126161407D01*
X124595086Y-126148114D01*
X124582992Y-126099210D01*
X124551471Y-126064999D01*
X124507659Y-126048476D01*
X124458695Y-126052634D01*
X124418894Y-126074227D01*
X124405450Y-126086544D01*
X124395921Y-126101487D01*
X124389485Y-126124075D01*
X124385317Y-126159328D01*
X124382597Y-126212266D01*
X124380502Y-126287907D01*
X124379960Y-126311857D01*
X124377981Y-126393790D01*
X124375731Y-126451455D01*
X124372357Y-126489608D01*
X124367006Y-126513004D01*
X124358824Y-126526398D01*
X124346959Y-126534545D01*
X124339362Y-126538144D01*
X124307102Y-126550452D01*
X124288111Y-126554514D01*
X124281836Y-126540948D01*
X124278006Y-126499934D01*
X124276600Y-126430999D01*
X124277598Y-126333669D01*
X124277908Y-126318657D01*
X124280101Y-126229859D01*
X124282693Y-126165019D01*
X124286382Y-126119067D01*
X124291864Y-126086935D01*
X124299835Y-126063553D01*
X124310993Y-126043852D01*
X124316830Y-126035410D01*
X124350296Y-125998057D01*
X124387727Y-125969003D01*
X124392309Y-125966467D01*
X124459426Y-125946443D01*
X124529926Y-125949755D01*
X124529926Y-125949755D01*
G37*
X124529926Y-125949755D02*
X124595858Y-125974084D01*
X124649273Y-126017117D01*
X124670164Y-126047409D01*
X124692939Y-126102994D01*
X124692466Y-126143186D01*
X124668562Y-126170217D01*
X124659717Y-126174813D01*
X124621530Y-126189144D01*
X124602028Y-126185472D01*
X124595422Y-126161407D01*
X124595086Y-126148114D01*
X124582992Y-126099210D01*
X124551471Y-126064999D01*
X124507659Y-126048476D01*
X124458695Y-126052634D01*
X124418894Y-126074227D01*
X124405450Y-126086544D01*
X124395921Y-126101487D01*
X124389485Y-126124075D01*
X124385317Y-126159328D01*
X124382597Y-126212266D01*
X124380502Y-126287907D01*
X124379960Y-126311857D01*
X124377981Y-126393790D01*
X124375731Y-126451455D01*
X124372357Y-126489608D01*
X124367006Y-126513004D01*
X124358824Y-126526398D01*
X124346959Y-126534545D01*
X124339362Y-126538144D01*
X124307102Y-126550452D01*
X124288111Y-126554514D01*
X124281836Y-126540948D01*
X124278006Y-126499934D01*
X124276600Y-126430999D01*
X124277598Y-126333669D01*
X124277908Y-126318657D01*
X124280101Y-126229859D01*
X124282693Y-126165019D01*
X124286382Y-126119067D01*
X124291864Y-126086935D01*
X124299835Y-126063553D01*
X124310993Y-126043852D01*
X124316830Y-126035410D01*
X124350296Y-125998057D01*
X124387727Y-125969003D01*
X124392309Y-125966467D01*
X124459426Y-125946443D01*
X124529926Y-125949755D01*
G36*
X125190117Y-126065358D02*
X125189933Y-126173837D01*
X125189219Y-126257287D01*
X125187675Y-126319704D01*
X125185001Y-126365085D01*
X125180894Y-126397429D01*
X125175055Y-126420733D01*
X125167182Y-126438995D01*
X125161221Y-126449418D01*
X125111855Y-126505945D01*
X125049264Y-126541377D01*
X124980013Y-126554090D01*
X124910668Y-126542463D01*
X124869375Y-126521568D01*
X124826025Y-126485422D01*
X124796481Y-126441276D01*
X124778655Y-126383462D01*
X124770463Y-126306313D01*
X124769302Y-126249714D01*
X124769458Y-126245647D01*
X124870857Y-126245647D01*
X124871476Y-126310550D01*
X124874314Y-126353514D01*
X124880840Y-126381622D01*
X124892523Y-126401953D01*
X124906483Y-126417288D01*
X124953365Y-126446890D01*
X125003701Y-126449419D01*
X125051276Y-126424705D01*
X125054979Y-126421356D01*
X125070783Y-126403935D01*
X125080693Y-126383209D01*
X125086058Y-126352362D01*
X125088228Y-126304577D01*
X125088571Y-126251748D01*
X125087827Y-126185381D01*
X125084748Y-126141106D01*
X125078061Y-126112009D01*
X125066496Y-126091173D01*
X125057013Y-126080107D01*
X125012960Y-126052198D01*
X124962224Y-126048843D01*
X124913796Y-126070159D01*
X124904450Y-126078073D01*
X124888540Y-126095647D01*
X124878610Y-126116587D01*
X124873278Y-126147782D01*
X124871163Y-126196122D01*
X124870857Y-126245647D01*
X124769458Y-126245647D01*
X124772810Y-126158568D01*
X124784726Y-126090086D01*
X124807135Y-126038600D01*
X124842124Y-125998443D01*
X124869375Y-125977861D01*
X124918907Y-125955625D01*
X124976316Y-125945304D01*
X125029682Y-125948067D01*
X125059543Y-125959212D01*
X125071261Y-125962383D01*
X125079037Y-125950557D01*
X125084465Y-125918866D01*
X125088571Y-125870593D01*
X125093067Y-125816829D01*
X125099313Y-125784482D01*
X125110676Y-125765985D01*
X125130528Y-125753770D01*
X125143000Y-125748362D01*
X125190171Y-125728601D01*
X125190117Y-126065358D01*
X125190117Y-126065358D01*
G37*
X125190117Y-126065358D02*
X125189933Y-126173837D01*
X125189219Y-126257287D01*
X125187675Y-126319704D01*
X125185001Y-126365085D01*
X125180894Y-126397429D01*
X125175055Y-126420733D01*
X125167182Y-126438995D01*
X125161221Y-126449418D01*
X125111855Y-126505945D01*
X125049264Y-126541377D01*
X124980013Y-126554090D01*
X124910668Y-126542463D01*
X124869375Y-126521568D01*
X124826025Y-126485422D01*
X124796481Y-126441276D01*
X124778655Y-126383462D01*
X124770463Y-126306313D01*
X124769302Y-126249714D01*
X124769458Y-126245647D01*
X124870857Y-126245647D01*
X124871476Y-126310550D01*
X124874314Y-126353514D01*
X124880840Y-126381622D01*
X124892523Y-126401953D01*
X124906483Y-126417288D01*
X124953365Y-126446890D01*
X125003701Y-126449419D01*
X125051276Y-126424705D01*
X125054979Y-126421356D01*
X125070783Y-126403935D01*
X125080693Y-126383209D01*
X125086058Y-126352362D01*
X125088228Y-126304577D01*
X125088571Y-126251748D01*
X125087827Y-126185381D01*
X125084748Y-126141106D01*
X125078061Y-126112009D01*
X125066496Y-126091173D01*
X125057013Y-126080107D01*
X125012960Y-126052198D01*
X124962224Y-126048843D01*
X124913796Y-126070159D01*
X124904450Y-126078073D01*
X124888540Y-126095647D01*
X124878610Y-126116587D01*
X124873278Y-126147782D01*
X124871163Y-126196122D01*
X124870857Y-126245647D01*
X124769458Y-126245647D01*
X124772810Y-126158568D01*
X124784726Y-126090086D01*
X124807135Y-126038600D01*
X124842124Y-125998443D01*
X124869375Y-125977861D01*
X124918907Y-125955625D01*
X124976316Y-125945304D01*
X125029682Y-125948067D01*
X125059543Y-125959212D01*
X125071261Y-125962383D01*
X125079037Y-125950557D01*
X125084465Y-125918866D01*
X125088571Y-125870593D01*
X125093067Y-125816829D01*
X125099313Y-125784482D01*
X125110676Y-125765985D01*
X125130528Y-125753770D01*
X125143000Y-125748362D01*
X125190171Y-125728601D01*
X125190117Y-126065358D01*
G36*
X125779833Y-125958663D02*
X125782048Y-125996850D01*
X125783784Y-126054886D01*
X125784899Y-126128180D01*
X125785257Y-126205055D01*
X125785257Y-126465196D01*
X125739326Y-126511127D01*
X125707675Y-126539429D01*
X125679890Y-126550893D01*
X125641915Y-126550168D01*
X125626840Y-126548321D01*
X125579726Y-126542948D01*
X125540756Y-126539869D01*
X125531257Y-126539585D01*
X125499233Y-126541445D01*
X125453432Y-126546114D01*
X125435674Y-126548321D01*
X125392057Y-126551735D01*
X125362745Y-126544320D01*
X125333680Y-126521427D01*
X125323188Y-126511127D01*
X125277257Y-126465196D01*
X125277257Y-125978602D01*
X125314226Y-125961758D01*
X125346059Y-125949282D01*
X125364683Y-125944914D01*
X125369458Y-125958718D01*
X125373921Y-125997286D01*
X125377775Y-126056356D01*
X125380722Y-126131663D01*
X125382143Y-126195286D01*
X125386114Y-126445657D01*
X125420759Y-126450556D01*
X125452268Y-126447131D01*
X125467708Y-126436041D01*
X125472023Y-126415308D01*
X125475708Y-126371145D01*
X125478469Y-126309146D01*
X125480012Y-126234909D01*
X125480235Y-126196706D01*
X125480457Y-125976783D01*
X125526166Y-125960849D01*
X125558518Y-125950015D01*
X125576115Y-125944962D01*
X125576623Y-125944914D01*
X125578388Y-125958648D01*
X125580329Y-125996730D01*
X125582282Y-126054482D01*
X125584084Y-126127227D01*
X125585343Y-126195286D01*
X125589314Y-126445657D01*
X125676400Y-126445657D01*
X125680396Y-126217240D01*
X125684392Y-125988822D01*
X125726847Y-125966868D01*
X125758192Y-125951793D01*
X125776744Y-125944951D01*
X125777279Y-125944914D01*
X125779833Y-125958663D01*
X125779833Y-125958663D01*
G37*
X125779833Y-125958663D02*
X125782048Y-125996850D01*
X125783784Y-126054886D01*
X125784899Y-126128180D01*
X125785257Y-126205055D01*
X125785257Y-126465196D01*
X125739326Y-126511127D01*
X125707675Y-126539429D01*
X125679890Y-126550893D01*
X125641915Y-126550168D01*
X125626840Y-126548321D01*
X125579726Y-126542948D01*
X125540756Y-126539869D01*
X125531257Y-126539585D01*
X125499233Y-126541445D01*
X125453432Y-126546114D01*
X125435674Y-126548321D01*
X125392057Y-126551735D01*
X125362745Y-126544320D01*
X125333680Y-126521427D01*
X125323188Y-126511127D01*
X125277257Y-126465196D01*
X125277257Y-125978602D01*
X125314226Y-125961758D01*
X125346059Y-125949282D01*
X125364683Y-125944914D01*
X125369458Y-125958718D01*
X125373921Y-125997286D01*
X125377775Y-126056356D01*
X125380722Y-126131663D01*
X125382143Y-126195286D01*
X125386114Y-126445657D01*
X125420759Y-126450556D01*
X125452268Y-126447131D01*
X125467708Y-126436041D01*
X125472023Y-126415308D01*
X125475708Y-126371145D01*
X125478469Y-126309146D01*
X125480012Y-126234909D01*
X125480235Y-126196706D01*
X125480457Y-125976783D01*
X125526166Y-125960849D01*
X125558518Y-125950015D01*
X125576115Y-125944962D01*
X125576623Y-125944914D01*
X125578388Y-125958648D01*
X125580329Y-125996730D01*
X125582282Y-126054482D01*
X125584084Y-126127227D01*
X125585343Y-126195286D01*
X125589314Y-126445657D01*
X125676400Y-126445657D01*
X125680396Y-126217240D01*
X125684392Y-125988822D01*
X125726847Y-125966868D01*
X125758192Y-125951793D01*
X125776744Y-125944951D01*
X125777279Y-125944914D01*
X125779833Y-125958663D01*
G36*
X126144876Y-125956335D02*
X126186667Y-125975344D01*
X126219469Y-125998378D01*
X126243503Y-126024133D01*
X126260097Y-126057358D01*
X126270577Y-126102800D01*
X126276271Y-126165207D01*
X126278507Y-126249327D01*
X126278743Y-126304721D01*
X126278743Y-126520826D01*
X126241774Y-126537670D01*
X126212656Y-126549981D01*
X126198231Y-126554514D01*
X126195472Y-126541025D01*
X126193282Y-126504653D01*
X126191942Y-126451542D01*
X126191657Y-126409372D01*
X126190434Y-126348447D01*
X126187136Y-126300115D01*
X126182321Y-126270518D01*
X126178496Y-126264229D01*
X126152783Y-126270652D01*
X126112418Y-126287125D01*
X126065679Y-126309458D01*
X126020845Y-126333457D01*
X125986193Y-126354930D01*
X125970002Y-126369685D01*
X125969938Y-126369845D01*
X125971330Y-126397152D01*
X125983818Y-126423219D01*
X126005743Y-126444392D01*
X126037743Y-126451474D01*
X126065092Y-126450649D01*
X126103826Y-126450042D01*
X126124158Y-126459116D01*
X126136369Y-126483092D01*
X126137909Y-126487613D01*
X126143203Y-126521806D01*
X126129047Y-126542568D01*
X126092148Y-126552462D01*
X126052289Y-126554292D01*
X125980562Y-126540727D01*
X125943432Y-126521355D01*
X125897576Y-126475845D01*
X125873256Y-126419983D01*
X125871073Y-126360957D01*
X125891629Y-126305953D01*
X125922549Y-126271486D01*
X125953420Y-126252189D01*
X126001942Y-126227759D01*
X126058485Y-126202985D01*
X126067910Y-126199199D01*
X126130019Y-126171791D01*
X126165822Y-126147634D01*
X126177337Y-126123619D01*
X126166580Y-126096635D01*
X126148114Y-126075543D01*
X126104469Y-126049572D01*
X126056446Y-126047624D01*
X126012406Y-126067637D01*
X125980709Y-126107551D01*
X125976549Y-126117848D01*
X125952327Y-126155724D01*
X125916965Y-126183842D01*
X125872343Y-126206917D01*
X125872343Y-126141485D01*
X125874969Y-126101506D01*
X125886230Y-126069997D01*
X125911199Y-126036378D01*
X125935169Y-126010484D01*
X125972441Y-125973817D01*
X126001401Y-125954121D01*
X126032505Y-125946220D01*
X126067713Y-125944914D01*
X126144876Y-125956335D01*
X126144876Y-125956335D01*
G37*
X126144876Y-125956335D02*
X126186667Y-125975344D01*
X126219469Y-125998378D01*
X126243503Y-126024133D01*
X126260097Y-126057358D01*
X126270577Y-126102800D01*
X126276271Y-126165207D01*
X126278507Y-126249327D01*
X126278743Y-126304721D01*
X126278743Y-126520826D01*
X126241774Y-126537670D01*
X126212656Y-126549981D01*
X126198231Y-126554514D01*
X126195472Y-126541025D01*
X126193282Y-126504653D01*
X126191942Y-126451542D01*
X126191657Y-126409372D01*
X126190434Y-126348447D01*
X126187136Y-126300115D01*
X126182321Y-126270518D01*
X126178496Y-126264229D01*
X126152783Y-126270652D01*
X126112418Y-126287125D01*
X126065679Y-126309458D01*
X126020845Y-126333457D01*
X125986193Y-126354930D01*
X125970002Y-126369685D01*
X125969938Y-126369845D01*
X125971330Y-126397152D01*
X125983818Y-126423219D01*
X126005743Y-126444392D01*
X126037743Y-126451474D01*
X126065092Y-126450649D01*
X126103826Y-126450042D01*
X126124158Y-126459116D01*
X126136369Y-126483092D01*
X126137909Y-126487613D01*
X126143203Y-126521806D01*
X126129047Y-126542568D01*
X126092148Y-126552462D01*
X126052289Y-126554292D01*
X125980562Y-126540727D01*
X125943432Y-126521355D01*
X125897576Y-126475845D01*
X125873256Y-126419983D01*
X125871073Y-126360957D01*
X125891629Y-126305953D01*
X125922549Y-126271486D01*
X125953420Y-126252189D01*
X126001942Y-126227759D01*
X126058485Y-126202985D01*
X126067910Y-126199199D01*
X126130019Y-126171791D01*
X126165822Y-126147634D01*
X126177337Y-126123619D01*
X126166580Y-126096635D01*
X126148114Y-126075543D01*
X126104469Y-126049572D01*
X126056446Y-126047624D01*
X126012406Y-126067637D01*
X125980709Y-126107551D01*
X125976549Y-126117848D01*
X125952327Y-126155724D01*
X125916965Y-126183842D01*
X125872343Y-126206917D01*
X125872343Y-126141485D01*
X125874969Y-126101506D01*
X125886230Y-126069997D01*
X125911199Y-126036378D01*
X125935169Y-126010484D01*
X125972441Y-125973817D01*
X126001401Y-125954121D01*
X126032505Y-125946220D01*
X126067713Y-125944914D01*
X126144876Y-125956335D01*
G36*
X126652600Y-125958752D02*
X126669948Y-125966334D01*
X126711356Y-125999128D01*
X126746765Y-126046547D01*
X126768664Y-126097151D01*
X126772229Y-126122098D01*
X126760279Y-126156927D01*
X126734067Y-126175357D01*
X126705964Y-126186516D01*
X126693095Y-126188572D01*
X126686829Y-126173649D01*
X126674456Y-126141175D01*
X126669028Y-126126502D01*
X126638590Y-126075744D01*
X126594520Y-126050427D01*
X126538010Y-126051206D01*
X126533825Y-126052203D01*
X126503655Y-126066507D01*
X126481476Y-126094393D01*
X126466327Y-126139287D01*
X126457250Y-126204615D01*
X126453286Y-126293804D01*
X126452914Y-126341261D01*
X126452730Y-126416071D01*
X126451522Y-126467069D01*
X126448309Y-126499471D01*
X126442109Y-126518495D01*
X126431940Y-126529356D01*
X126416819Y-126537272D01*
X126415946Y-126537670D01*
X126386828Y-126549981D01*
X126372403Y-126554514D01*
X126370186Y-126540809D01*
X126368289Y-126502925D01*
X126366847Y-126445715D01*
X126365998Y-126374027D01*
X126365829Y-126321565D01*
X126366692Y-126220047D01*
X126370070Y-126143032D01*
X126377142Y-126086023D01*
X126389088Y-126044526D01*
X126407090Y-126014043D01*
X126432327Y-125990080D01*
X126457247Y-125973355D01*
X126517171Y-125951097D01*
X126586911Y-125946076D01*
X126652600Y-125958752D01*
X126652600Y-125958752D01*
G37*
X126652600Y-125958752D02*
X126669948Y-125966334D01*
X126711356Y-125999128D01*
X126746765Y-126046547D01*
X126768664Y-126097151D01*
X126772229Y-126122098D01*
X126760279Y-126156927D01*
X126734067Y-126175357D01*
X126705964Y-126186516D01*
X126693095Y-126188572D01*
X126686829Y-126173649D01*
X126674456Y-126141175D01*
X126669028Y-126126502D01*
X126638590Y-126075744D01*
X126594520Y-126050427D01*
X126538010Y-126051206D01*
X126533825Y-126052203D01*
X126503655Y-126066507D01*
X126481476Y-126094393D01*
X126466327Y-126139287D01*
X126457250Y-126204615D01*
X126453286Y-126293804D01*
X126452914Y-126341261D01*
X126452730Y-126416071D01*
X126451522Y-126467069D01*
X126448309Y-126499471D01*
X126442109Y-126518495D01*
X126431940Y-126529356D01*
X126416819Y-126537272D01*
X126415946Y-126537670D01*
X126386828Y-126549981D01*
X126372403Y-126554514D01*
X126370186Y-126540809D01*
X126368289Y-126502925D01*
X126366847Y-126445715D01*
X126365998Y-126374027D01*
X126365829Y-126321565D01*
X126366692Y-126220047D01*
X126370070Y-126143032D01*
X126377142Y-126086023D01*
X126389088Y-126044526D01*
X126407090Y-126014043D01*
X126432327Y-125990080D01*
X126457247Y-125973355D01*
X126517171Y-125951097D01*
X126586911Y-125946076D01*
X126652600Y-125958752D01*
G36*
X127153595Y-125966966D02*
X127211021Y-126004497D01*
X127238719Y-126038096D01*
X127260662Y-126099064D01*
X127262405Y-126147308D01*
X127258457Y-126211816D01*
X127109686Y-126276934D01*
X127037349Y-126310202D01*
X126990084Y-126336964D01*
X126965507Y-126360144D01*
X126961237Y-126382667D01*
X126974889Y-126407455D01*
X126989943Y-126423886D01*
X127033746Y-126450235D01*
X127081389Y-126452081D01*
X127125145Y-126431546D01*
X127157289Y-126390752D01*
X127163038Y-126376347D01*
X127190576Y-126331356D01*
X127222258Y-126312182D01*
X127265714Y-126295779D01*
X127265714Y-126357966D01*
X127261872Y-126400283D01*
X127246823Y-126435969D01*
X127215280Y-126476943D01*
X127210592Y-126482267D01*
X127175506Y-126518720D01*
X127145347Y-126538283D01*
X127107615Y-126547283D01*
X127076335Y-126550230D01*
X127020385Y-126550965D01*
X126980555Y-126541660D01*
X126955708Y-126527846D01*
X126916656Y-126497467D01*
X126889625Y-126464613D01*
X126872517Y-126423294D01*
X126863238Y-126367521D01*
X126859693Y-126291305D01*
X126859410Y-126252622D01*
X126860372Y-126206247D01*
X126948007Y-126206247D01*
X126949023Y-126231126D01*
X126951556Y-126235200D01*
X126968274Y-126229665D01*
X127004249Y-126215017D01*
X127052331Y-126194190D01*
X127062386Y-126189714D01*
X127123152Y-126158814D01*
X127156632Y-126131657D01*
X127163990Y-126106220D01*
X127146391Y-126080481D01*
X127131856Y-126069109D01*
X127079410Y-126046364D01*
X127030322Y-126050122D01*
X126989227Y-126077884D01*
X126960758Y-126127152D01*
X126951631Y-126166257D01*
X126948007Y-126206247D01*
X126860372Y-126206247D01*
X126861285Y-126162249D01*
X126868196Y-126095384D01*
X126881884Y-126046695D01*
X126904096Y-126010849D01*
X126936574Y-125982513D01*
X126950733Y-125973355D01*
X127015053Y-125949507D01*
X127085473Y-125948006D01*
X127153595Y-125966966D01*
X127153595Y-125966966D01*
G37*
X127153595Y-125966966D02*
X127211021Y-126004497D01*
X127238719Y-126038096D01*
X127260662Y-126099064D01*
X127262405Y-126147308D01*
X127258457Y-126211816D01*
X127109686Y-126276934D01*
X127037349Y-126310202D01*
X126990084Y-126336964D01*
X126965507Y-126360144D01*
X126961237Y-126382667D01*
X126974889Y-126407455D01*
X126989943Y-126423886D01*
X127033746Y-126450235D01*
X127081389Y-126452081D01*
X127125145Y-126431546D01*
X127157289Y-126390752D01*
X127163038Y-126376347D01*
X127190576Y-126331356D01*
X127222258Y-126312182D01*
X127265714Y-126295779D01*
X127265714Y-126357966D01*
X127261872Y-126400283D01*
X127246823Y-126435969D01*
X127215280Y-126476943D01*
X127210592Y-126482267D01*
X127175506Y-126518720D01*
X127145347Y-126538283D01*
X127107615Y-126547283D01*
X127076335Y-126550230D01*
X127020385Y-126550965D01*
X126980555Y-126541660D01*
X126955708Y-126527846D01*
X126916656Y-126497467D01*
X126889625Y-126464613D01*
X126872517Y-126423294D01*
X126863238Y-126367521D01*
X126859693Y-126291305D01*
X126859410Y-126252622D01*
X126860372Y-126206247D01*
X126948007Y-126206247D01*
X126949023Y-126231126D01*
X126951556Y-126235200D01*
X126968274Y-126229665D01*
X127004249Y-126215017D01*
X127052331Y-126194190D01*
X127062386Y-126189714D01*
X127123152Y-126158814D01*
X127156632Y-126131657D01*
X127163990Y-126106220D01*
X127146391Y-126080481D01*
X127131856Y-126069109D01*
X127079410Y-126046364D01*
X127030322Y-126050122D01*
X126989227Y-126077884D01*
X126960758Y-126127152D01*
X126951631Y-126166257D01*
X126948007Y-126206247D01*
X126860372Y-126206247D01*
X126861285Y-126162249D01*
X126868196Y-126095384D01*
X126881884Y-126046695D01*
X126904096Y-126010849D01*
X126936574Y-125982513D01*
X126950733Y-125973355D01*
X127015053Y-125949507D01*
X127085473Y-125948006D01*
X127153595Y-125966966D01*
G36*
X124103910Y-121242348D02*
X124182454Y-121242778D01*
X124239298Y-121243942D01*
X124278105Y-121246207D01*
X124302538Y-121249940D01*
X124316262Y-121255506D01*
X124322940Y-121263273D01*
X124326236Y-121273605D01*
X124326556Y-121274943D01*
X124331562Y-121299079D01*
X124340829Y-121346701D01*
X124353392Y-121412741D01*
X124368287Y-121492128D01*
X124384551Y-121579796D01*
X124385119Y-121582875D01*
X124401410Y-121668789D01*
X124416652Y-121744696D01*
X124429861Y-121806045D01*
X124440054Y-121848282D01*
X124446248Y-121866855D01*
X124446543Y-121867184D01*
X124464788Y-121876253D01*
X124502405Y-121891367D01*
X124551271Y-121909262D01*
X124551543Y-121909358D01*
X124613093Y-121932493D01*
X124685657Y-121961965D01*
X124754057Y-121991597D01*
X124757294Y-121993062D01*
X124868702Y-122043626D01*
X125115399Y-121875160D01*
X125191077Y-121823803D01*
X125259631Y-121777889D01*
X125317088Y-121740030D01*
X125359476Y-121712837D01*
X125382825Y-121698921D01*
X125385042Y-121697889D01*
X125402010Y-121702484D01*
X125433701Y-121724655D01*
X125481352Y-121765447D01*
X125546198Y-121825905D01*
X125612397Y-121890227D01*
X125676214Y-121953612D01*
X125733329Y-122011451D01*
X125780305Y-122060175D01*
X125813703Y-122096210D01*
X125830085Y-122115984D01*
X125830694Y-122117002D01*
X125832505Y-122130572D01*
X125825683Y-122152733D01*
X125808540Y-122186478D01*
X125779393Y-122234800D01*
X125736555Y-122300692D01*
X125679448Y-122385517D01*
X125628766Y-122460177D01*
X125583461Y-122527140D01*
X125546150Y-122582516D01*
X125519452Y-122622420D01*
X125505985Y-122642962D01*
X125505137Y-122644356D01*
X125506781Y-122664038D01*
X125519245Y-122702293D01*
X125540048Y-122751889D01*
X125547462Y-122767728D01*
X125579814Y-122838290D01*
X125614328Y-122918353D01*
X125642365Y-122987629D01*
X125662568Y-123039045D01*
X125678615Y-123078119D01*
X125687888Y-123098541D01*
X125689041Y-123100114D01*
X125706096Y-123102721D01*
X125746298Y-123109863D01*
X125804302Y-123120523D01*
X125874763Y-123133685D01*
X125952335Y-123148333D01*
X126031672Y-123163449D01*
X126107431Y-123178018D01*
X126174264Y-123191022D01*
X126226828Y-123201445D01*
X126259776Y-123208270D01*
X126267857Y-123210199D01*
X126276205Y-123214962D01*
X126282506Y-123225718D01*
X126287045Y-123246098D01*
X126290104Y-123279734D01*
X126291967Y-123330255D01*
X126292918Y-123401292D01*
X126293240Y-123496476D01*
X126293257Y-123535492D01*
X126293257Y-123852799D01*
X126217057Y-123867839D01*
X126174663Y-123875995D01*
X126111400Y-123887899D01*
X126034962Y-123902116D01*
X125953043Y-123917210D01*
X125930400Y-123921355D01*
X125854806Y-123936053D01*
X125788953Y-123950505D01*
X125738366Y-123963375D01*
X125708574Y-123973322D01*
X125703612Y-123976287D01*
X125691426Y-123997283D01*
X125673953Y-124037967D01*
X125654577Y-124090322D01*
X125650734Y-124101600D01*
X125625339Y-124171523D01*
X125593817Y-124250418D01*
X125562969Y-124321266D01*
X125562817Y-124321595D01*
X125511447Y-124432733D01*
X125680399Y-124681253D01*
X125849352Y-124929772D01*
X125632429Y-125147058D01*
X125566819Y-125211726D01*
X125506979Y-125268733D01*
X125456267Y-125315033D01*
X125418046Y-125347584D01*
X125395675Y-125363343D01*
X125392466Y-125364343D01*
X125373626Y-125356469D01*
X125335180Y-125334578D01*
X125281330Y-125301267D01*
X125216276Y-125259131D01*
X125145940Y-125211943D01*
X125074555Y-125163810D01*
X125010908Y-125121928D01*
X124959041Y-125088871D01*
X124922995Y-125067218D01*
X124906867Y-125059543D01*
X124887189Y-125066037D01*
X124849875Y-125083150D01*
X124802621Y-125107326D01*
X124797612Y-125110013D01*
X124733977Y-125141927D01*
X124690341Y-125157579D01*
X124663202Y-125157745D01*
X124649057Y-125143204D01*
X124648975Y-125143000D01*
X124641905Y-125125779D01*
X124625042Y-125084899D01*
X124599695Y-125023525D01*
X124567171Y-124944819D01*
X124528778Y-124851947D01*
X124485822Y-124748072D01*
X124444222Y-124647502D01*
X124398504Y-124536516D01*
X124356526Y-124433703D01*
X124319548Y-124342215D01*
X124288827Y-124265201D01*
X124265622Y-124205815D01*
X124251190Y-124167209D01*
X124246743Y-124152800D01*
X124257896Y-124136272D01*
X124287069Y-124109930D01*
X124325971Y-124080887D01*
X124436757Y-123989039D01*
X124523351Y-123883759D01*
X124584716Y-123767266D01*
X124619815Y-123641776D01*
X124627608Y-123509507D01*
X124621943Y-123448457D01*
X124591078Y-123321795D01*
X124537920Y-123209941D01*
X124465767Y-123114001D01*
X124377917Y-123035076D01*
X124277665Y-122974270D01*
X124168310Y-122932687D01*
X124053147Y-122911428D01*
X123935475Y-122911599D01*
X123818590Y-122934301D01*
X123705789Y-122980638D01*
X123600369Y-123051713D01*
X123556368Y-123091911D01*
X123471979Y-123195129D01*
X123413222Y-123307925D01*
X123379704Y-123427010D01*
X123371035Y-123549095D01*
X123386823Y-123670893D01*
X123426678Y-123789116D01*
X123490207Y-123900475D01*
X123577021Y-124001684D01*
X123674029Y-124080887D01*
X123714437Y-124111162D01*
X123742982Y-124137219D01*
X123753257Y-124152825D01*
X123747877Y-124169843D01*
X123732575Y-124210500D01*
X123708612Y-124271642D01*
X123677244Y-124350119D01*
X123639732Y-124442780D01*
X123597333Y-124546472D01*
X123555663Y-124647526D01*
X123509690Y-124758607D01*
X123467107Y-124861541D01*
X123429221Y-124953165D01*
X123397340Y-125030316D01*
X123372771Y-125089831D01*
X123356820Y-125128544D01*
X123350910Y-125143000D01*
X123336948Y-125157685D01*
X123309940Y-125157642D01*
X123266413Y-125142099D01*
X123202890Y-125110284D01*
X123202388Y-125110013D01*
X123154560Y-125085323D01*
X123115897Y-125067338D01*
X123094095Y-125059614D01*
X123093133Y-125059543D01*
X123076721Y-125067378D01*
X123040487Y-125089165D01*
X122988474Y-125122328D01*
X122924725Y-125164291D01*
X122854060Y-125211943D01*
X122782116Y-125260191D01*
X122717274Y-125302151D01*
X122663735Y-125335227D01*
X122625697Y-125356821D01*
X122607533Y-125364343D01*
X122590808Y-125354457D01*
X122557180Y-125326826D01*
X122510010Y-125284495D01*
X122452658Y-125230505D01*
X122388484Y-125167899D01*
X122367497Y-125146983D01*
X122150499Y-124929623D01*
X122315668Y-124687220D01*
X122365864Y-124612781D01*
X122409919Y-124545972D01*
X122445362Y-124490665D01*
X122469719Y-124450729D01*
X122480522Y-124430036D01*
X122480838Y-124428563D01*
X122475143Y-124409058D01*
X122459826Y-124369822D01*
X122437537Y-124317430D01*
X122421893Y-124282355D01*
X122392641Y-124215201D01*
X122365094Y-124147358D01*
X122343737Y-124090034D01*
X122337935Y-124072572D01*
X122321452Y-124025938D01*
X122305340Y-123989905D01*
X122296490Y-123976287D01*
X122276960Y-123967952D01*
X122234334Y-123956137D01*
X122174145Y-123942181D01*
X122101922Y-123927422D01*
X122069600Y-123921355D01*
X121987522Y-123906273D01*
X121908795Y-123891669D01*
X121841109Y-123878980D01*
X121792160Y-123869642D01*
X121782943Y-123867839D01*
X121706743Y-123852799D01*
X121706743Y-123535492D01*
X121706914Y-123431154D01*
X121707616Y-123352213D01*
X121709134Y-123295038D01*
X121711749Y-123255999D01*
X121715746Y-123231465D01*
X121721409Y-123217805D01*
X121729020Y-123211389D01*
X121732143Y-123210199D01*
X121750978Y-123205980D01*
X121792588Y-123197562D01*
X121851630Y-123185961D01*
X121922757Y-123172195D01*
X122000625Y-123157280D01*
X122079887Y-123142232D01*
X122155198Y-123128069D01*
X122221213Y-123115806D01*
X122272587Y-123106461D01*
X122303975Y-123101050D01*
X122310959Y-123100114D01*
X122317285Y-123087596D01*
X122331290Y-123054246D01*
X122350355Y-123006377D01*
X122357634Y-122987629D01*
X122386996Y-122915195D01*
X122421571Y-122835170D01*
X122452537Y-122767728D01*
X122475323Y-122716159D01*
X122490482Y-122673785D01*
X122495542Y-122647834D01*
X122494736Y-122644356D01*
X122484041Y-122627936D01*
X122459620Y-122591417D01*
X122424095Y-122538687D01*
X122380087Y-122473635D01*
X122330217Y-122400151D01*
X122320356Y-122385645D01*
X122262492Y-122299704D01*
X122219956Y-122234261D01*
X122191054Y-122186304D01*
X122174090Y-122152820D01*
X122167367Y-122130795D01*
X122169190Y-122117217D01*
X122169236Y-122117131D01*
X122183586Y-122099297D01*
X122215323Y-122064817D01*
X122261010Y-122017268D01*
X122317204Y-121960222D01*
X122380468Y-121897255D01*
X122387602Y-121890227D01*
X122467330Y-121813020D01*
X122528857Y-121756330D01*
X122573421Y-121719110D01*
X122602257Y-121700315D01*
X122614958Y-121697889D01*
X122633494Y-121708471D01*
X122671961Y-121732916D01*
X122726386Y-121768612D01*
X122792798Y-121812947D01*
X122867225Y-121863311D01*
X122884601Y-121875160D01*
X123131297Y-122043626D01*
X123242706Y-121993062D01*
X123310457Y-121963595D01*
X123383183Y-121933959D01*
X123445703Y-121910330D01*
X123448457Y-121909358D01*
X123497360Y-121891457D01*
X123535057Y-121876320D01*
X123553425Y-121867210D01*
X123553456Y-121867184D01*
X123559285Y-121850717D01*
X123569192Y-121810219D01*
X123582195Y-121750242D01*
X123597309Y-121675340D01*
X123613552Y-121590064D01*
X123614881Y-121582875D01*
X123631175Y-121495014D01*
X123646133Y-121415260D01*
X123658791Y-121348681D01*
X123668186Y-121300347D01*
X123673354Y-121275325D01*
X123673444Y-121274943D01*
X123676589Y-121264299D01*
X123682704Y-121256262D01*
X123695453Y-121250467D01*
X123718500Y-121246547D01*
X123755509Y-121244135D01*
X123810144Y-121242865D01*
X123886067Y-121242371D01*
X123986944Y-121242286D01*
X124000000Y-121242286D01*
X124103910Y-121242348D01*
X124103910Y-121242348D01*
G37*
X124103910Y-121242348D02*
X124182454Y-121242778D01*
X124239298Y-121243942D01*
X124278105Y-121246207D01*
X124302538Y-121249940D01*
X124316262Y-121255506D01*
X124322940Y-121263273D01*
X124326236Y-121273605D01*
X124326556Y-121274943D01*
X124331562Y-121299079D01*
X124340829Y-121346701D01*
X124353392Y-121412741D01*
X124368287Y-121492128D01*
X124384551Y-121579796D01*
X124385119Y-121582875D01*
X124401410Y-121668789D01*
X124416652Y-121744696D01*
X124429861Y-121806045D01*
X124440054Y-121848282D01*
X124446248Y-121866855D01*
X124446543Y-121867184D01*
X124464788Y-121876253D01*
X124502405Y-121891367D01*
X124551271Y-121909262D01*
X124551543Y-121909358D01*
X124613093Y-121932493D01*
X124685657Y-121961965D01*
X124754057Y-121991597D01*
X124757294Y-121993062D01*
X124868702Y-122043626D01*
X125115399Y-121875160D01*
X125191077Y-121823803D01*
X125259631Y-121777889D01*
X125317088Y-121740030D01*
X125359476Y-121712837D01*
X125382825Y-121698921D01*
X125385042Y-121697889D01*
X125402010Y-121702484D01*
X125433701Y-121724655D01*
X125481352Y-121765447D01*
X125546198Y-121825905D01*
X125612397Y-121890227D01*
X125676214Y-121953612D01*
X125733329Y-122011451D01*
X125780305Y-122060175D01*
X125813703Y-122096210D01*
X125830085Y-122115984D01*
X125830694Y-122117002D01*
X125832505Y-122130572D01*
X125825683Y-122152733D01*
X125808540Y-122186478D01*
X125779393Y-122234800D01*
X125736555Y-122300692D01*
X125679448Y-122385517D01*
X125628766Y-122460177D01*
X125583461Y-122527140D01*
X125546150Y-122582516D01*
X125519452Y-122622420D01*
X125505985Y-122642962D01*
X125505137Y-122644356D01*
X125506781Y-122664038D01*
X125519245Y-122702293D01*
X125540048Y-122751889D01*
X125547462Y-122767728D01*
X125579814Y-122838290D01*
X125614328Y-122918353D01*
X125642365Y-122987629D01*
X125662568Y-123039045D01*
X125678615Y-123078119D01*
X125687888Y-123098541D01*
X125689041Y-123100114D01*
X125706096Y-123102721D01*
X125746298Y-123109863D01*
X125804302Y-123120523D01*
X125874763Y-123133685D01*
X125952335Y-123148333D01*
X126031672Y-123163449D01*
X126107431Y-123178018D01*
X126174264Y-123191022D01*
X126226828Y-123201445D01*
X126259776Y-123208270D01*
X126267857Y-123210199D01*
X126276205Y-123214962D01*
X126282506Y-123225718D01*
X126287045Y-123246098D01*
X126290104Y-123279734D01*
X126291967Y-123330255D01*
X126292918Y-123401292D01*
X126293240Y-123496476D01*
X126293257Y-123535492D01*
X126293257Y-123852799D01*
X126217057Y-123867839D01*
X126174663Y-123875995D01*
X126111400Y-123887899D01*
X126034962Y-123902116D01*
X125953043Y-123917210D01*
X125930400Y-123921355D01*
X125854806Y-123936053D01*
X125788953Y-123950505D01*
X125738366Y-123963375D01*
X125708574Y-123973322D01*
X125703612Y-123976287D01*
X125691426Y-123997283D01*
X125673953Y-124037967D01*
X125654577Y-124090322D01*
X125650734Y-124101600D01*
X125625339Y-124171523D01*
X125593817Y-124250418D01*
X125562969Y-124321266D01*
X125562817Y-124321595D01*
X125511447Y-124432733D01*
X125680399Y-124681253D01*
X125849352Y-124929772D01*
X125632429Y-125147058D01*
X125566819Y-125211726D01*
X125506979Y-125268733D01*
X125456267Y-125315033D01*
X125418046Y-125347584D01*
X125395675Y-125363343D01*
X125392466Y-125364343D01*
X125373626Y-125356469D01*
X125335180Y-125334578D01*
X125281330Y-125301267D01*
X125216276Y-125259131D01*
X125145940Y-125211943D01*
X125074555Y-125163810D01*
X125010908Y-125121928D01*
X124959041Y-125088871D01*
X124922995Y-125067218D01*
X124906867Y-125059543D01*
X124887189Y-125066037D01*
X124849875Y-125083150D01*
X124802621Y-125107326D01*
X124797612Y-125110013D01*
X124733977Y-125141927D01*
X124690341Y-125157579D01*
X124663202Y-125157745D01*
X124649057Y-125143204D01*
X124648975Y-125143000D01*
X124641905Y-125125779D01*
X124625042Y-125084899D01*
X124599695Y-125023525D01*
X124567171Y-124944819D01*
X124528778Y-124851947D01*
X124485822Y-124748072D01*
X124444222Y-124647502D01*
X124398504Y-124536516D01*
X124356526Y-124433703D01*
X124319548Y-124342215D01*
X124288827Y-124265201D01*
X124265622Y-124205815D01*
X124251190Y-124167209D01*
X124246743Y-124152800D01*
X124257896Y-124136272D01*
X124287069Y-124109930D01*
X124325971Y-124080887D01*
X124436757Y-123989039D01*
X124523351Y-123883759D01*
X124584716Y-123767266D01*
X124619815Y-123641776D01*
X124627608Y-123509507D01*
X124621943Y-123448457D01*
X124591078Y-123321795D01*
X124537920Y-123209941D01*
X124465767Y-123114001D01*
X124377917Y-123035076D01*
X124277665Y-122974270D01*
X124168310Y-122932687D01*
X124053147Y-122911428D01*
X123935475Y-122911599D01*
X123818590Y-122934301D01*
X123705789Y-122980638D01*
X123600369Y-123051713D01*
X123556368Y-123091911D01*
X123471979Y-123195129D01*
X123413222Y-123307925D01*
X123379704Y-123427010D01*
X123371035Y-123549095D01*
X123386823Y-123670893D01*
X123426678Y-123789116D01*
X123490207Y-123900475D01*
X123577021Y-124001684D01*
X123674029Y-124080887D01*
X123714437Y-124111162D01*
X123742982Y-124137219D01*
X123753257Y-124152825D01*
X123747877Y-124169843D01*
X123732575Y-124210500D01*
X123708612Y-124271642D01*
X123677244Y-124350119D01*
X123639732Y-124442780D01*
X123597333Y-124546472D01*
X123555663Y-124647526D01*
X123509690Y-124758607D01*
X123467107Y-124861541D01*
X123429221Y-124953165D01*
X123397340Y-125030316D01*
X123372771Y-125089831D01*
X123356820Y-125128544D01*
X123350910Y-125143000D01*
X123336948Y-125157685D01*
X123309940Y-125157642D01*
X123266413Y-125142099D01*
X123202890Y-125110284D01*
X123202388Y-125110013D01*
X123154560Y-125085323D01*
X123115897Y-125067338D01*
X123094095Y-125059614D01*
X123093133Y-125059543D01*
X123076721Y-125067378D01*
X123040487Y-125089165D01*
X122988474Y-125122328D01*
X122924725Y-125164291D01*
X122854060Y-125211943D01*
X122782116Y-125260191D01*
X122717274Y-125302151D01*
X122663735Y-125335227D01*
X122625697Y-125356821D01*
X122607533Y-125364343D01*
X122590808Y-125354457D01*
X122557180Y-125326826D01*
X122510010Y-125284495D01*
X122452658Y-125230505D01*
X122388484Y-125167899D01*
X122367497Y-125146983D01*
X122150499Y-124929623D01*
X122315668Y-124687220D01*
X122365864Y-124612781D01*
X122409919Y-124545972D01*
X122445362Y-124490665D01*
X122469719Y-124450729D01*
X122480522Y-124430036D01*
X122480838Y-124428563D01*
X122475143Y-124409058D01*
X122459826Y-124369822D01*
X122437537Y-124317430D01*
X122421893Y-124282355D01*
X122392641Y-124215201D01*
X122365094Y-124147358D01*
X122343737Y-124090034D01*
X122337935Y-124072572D01*
X122321452Y-124025938D01*
X122305340Y-123989905D01*
X122296490Y-123976287D01*
X122276960Y-123967952D01*
X122234334Y-123956137D01*
X122174145Y-123942181D01*
X122101922Y-123927422D01*
X122069600Y-123921355D01*
X121987522Y-123906273D01*
X121908795Y-123891669D01*
X121841109Y-123878980D01*
X121792160Y-123869642D01*
X121782943Y-123867839D01*
X121706743Y-123852799D01*
X121706743Y-123535492D01*
X121706914Y-123431154D01*
X121707616Y-123352213D01*
X121709134Y-123295038D01*
X121711749Y-123255999D01*
X121715746Y-123231465D01*
X121721409Y-123217805D01*
X121729020Y-123211389D01*
X121732143Y-123210199D01*
X121750978Y-123205980D01*
X121792588Y-123197562D01*
X121851630Y-123185961D01*
X121922757Y-123172195D01*
X122000625Y-123157280D01*
X122079887Y-123142232D01*
X122155198Y-123128069D01*
X122221213Y-123115806D01*
X122272587Y-123106461D01*
X122303975Y-123101050D01*
X122310959Y-123100114D01*
X122317285Y-123087596D01*
X122331290Y-123054246D01*
X122350355Y-123006377D01*
X122357634Y-122987629D01*
X122386996Y-122915195D01*
X122421571Y-122835170D01*
X122452537Y-122767728D01*
X122475323Y-122716159D01*
X122490482Y-122673785D01*
X122495542Y-122647834D01*
X122494736Y-122644356D01*
X122484041Y-122627936D01*
X122459620Y-122591417D01*
X122424095Y-122538687D01*
X122380087Y-122473635D01*
X122330217Y-122400151D01*
X122320356Y-122385645D01*
X122262492Y-122299704D01*
X122219956Y-122234261D01*
X122191054Y-122186304D01*
X122174090Y-122152820D01*
X122167367Y-122130795D01*
X122169190Y-122117217D01*
X122169236Y-122117131D01*
X122183586Y-122099297D01*
X122215323Y-122064817D01*
X122261010Y-122017268D01*
X122317204Y-121960222D01*
X122380468Y-121897255D01*
X122387602Y-121890227D01*
X122467330Y-121813020D01*
X122528857Y-121756330D01*
X122573421Y-121719110D01*
X122602257Y-121700315D01*
X122614958Y-121697889D01*
X122633494Y-121708471D01*
X122671961Y-121732916D01*
X122726386Y-121768612D01*
X122792798Y-121812947D01*
X122867225Y-121863311D01*
X122884601Y-121875160D01*
X123131297Y-122043626D01*
X123242706Y-121993062D01*
X123310457Y-121963595D01*
X123383183Y-121933959D01*
X123445703Y-121910330D01*
X123448457Y-121909358D01*
X123497360Y-121891457D01*
X123535057Y-121876320D01*
X123553425Y-121867210D01*
X123553456Y-121867184D01*
X123559285Y-121850717D01*
X123569192Y-121810219D01*
X123582195Y-121750242D01*
X123597309Y-121675340D01*
X123613552Y-121590064D01*
X123614881Y-121582875D01*
X123631175Y-121495014D01*
X123646133Y-121415260D01*
X123658791Y-121348681D01*
X123668186Y-121300347D01*
X123673354Y-121275325D01*
X123673444Y-121274943D01*
X123676589Y-121264299D01*
X123682704Y-121256262D01*
X123695453Y-121250467D01*
X123718500Y-121246547D01*
X123755509Y-121244135D01*
X123810144Y-121242865D01*
X123886067Y-121242371D01*
X123986944Y-121242286D01*
X124000000Y-121242286D01*
X124103910Y-121242348D01*
D13*
G04 #@! TO.C,D1*
X180850000Y-110000000D02*
X180850000Y-113000000D01*
X180850000Y-113000000D02*
X182750000Y-113000000D01*
X182750000Y-113000000D02*
X182750000Y-110000000D01*
G04 #@! TO.C,D3*
X180850000Y-102000000D02*
X180850000Y-105000000D01*
X180850000Y-105000000D02*
X182750000Y-105000000D01*
X182750000Y-105000000D02*
X182750000Y-102000000D01*
G04 #@! TO.C,D5*
X182750000Y-109000000D02*
X182750000Y-106000000D01*
X180850000Y-109000000D02*
X182750000Y-109000000D01*
X180850000Y-106000000D02*
X180850000Y-109000000D01*
G04 #@! TO.C,D4*
X154650000Y-117550000D02*
X150350000Y-117550000D01*
X150350000Y-117550000D02*
X150350000Y-123250000D01*
X154650000Y-117550000D02*
X154650000Y-123250000D01*
G04 #@! TO.C,D6*
X169100000Y-124600000D02*
X169100000Y-127900000D01*
X169100000Y-127900000D02*
X174500000Y-127900000D01*
X169100000Y-124600000D02*
X174500000Y-124600000D01*
G04 #@! TO.C,C8*
X138390000Y-129560000D02*
X142240000Y-129560000D01*
X149110000Y-129560000D02*
X145260000Y-129560000D01*
X149110000Y-119904437D02*
X149110000Y-129560000D01*
X138390000Y-119904437D02*
X138390000Y-129560000D01*
X139454437Y-118840000D02*
X142240000Y-118840000D01*
X148045563Y-118840000D02*
X145260000Y-118840000D01*
X148045563Y-118840000D02*
X149110000Y-119904437D01*
X139454437Y-118840000D02*
X138390000Y-119904437D01*
X146510000Y-117350000D02*
X146510000Y-118600000D01*
X147135000Y-117975000D02*
X145885000Y-117975000D01*
G04 #@! TO.C,C9*
X163236252Y-74710000D02*
X162713748Y-74710000D01*
X163236252Y-73290000D02*
X162713748Y-73290000D01*
G04 #@! TO.C,L4*
X162713748Y-75540000D02*
X163236252Y-75540000D01*
X162713748Y-76960000D02*
X163236252Y-76960000D01*
G04 #@! TO.C,D7*
X175400000Y-105850000D02*
X172100000Y-105850000D01*
X172100000Y-105850000D02*
X172100000Y-111250000D01*
X175400000Y-105850000D02*
X175400000Y-111250000D01*
D10*
G04 #@! TO.C,U3*
X182961000Y-103707000D02*
X184231000Y-103707000D01*
X184231000Y-103707000D02*
X184231000Y-111327000D01*
X184231000Y-111327000D02*
X182961000Y-111327000D01*
X171531000Y-102437000D02*
X167721000Y-102437000D01*
X167721000Y-102437000D02*
X167721000Y-104977000D01*
X167721000Y-104977000D02*
X171531000Y-104977000D01*
X171531000Y-104977000D02*
X171531000Y-102437000D01*
X177881000Y-103707000D02*
X177881000Y-111327000D01*
X177881000Y-111327000D02*
X182961000Y-111327000D01*
X177881000Y-103707000D02*
X182961000Y-103707000D01*
X176611000Y-102437000D02*
X174071000Y-102437000D01*
X174071000Y-102437000D02*
X174071000Y-104977000D01*
X174071000Y-104977000D02*
X176611000Y-104977000D01*
X176611000Y-104977000D02*
X176611000Y-102437000D01*
X149941000Y-110057000D02*
X149941000Y-104977000D01*
X149941000Y-104977000D02*
X152481000Y-104977000D01*
X152481000Y-104977000D02*
X152481000Y-110057000D01*
X152481000Y-110057000D02*
X149941000Y-110057000D01*
X156291000Y-102437000D02*
X156291000Y-112597000D01*
X165181000Y-112597000D02*
X165181000Y-102437000D01*
X156291000Y-112597000D02*
X165181000Y-112597000D01*
X156291000Y-102437000D02*
X165181000Y-102437000D01*
X182961000Y-116407000D02*
X147401000Y-116407000D01*
X147401000Y-116407000D02*
X147401000Y-98627000D01*
X147401000Y-98627000D02*
X182961000Y-98627000D01*
X182961000Y-98627000D02*
X182961000Y-116407000D01*
G04 #@! TO.C,C1*
X150083333Y-76107142D02*
X150035714Y-76154761D01*
X149892857Y-76202380D01*
X149797619Y-76202380D01*
X149654761Y-76154761D01*
X149559523Y-76059523D01*
X149511904Y-75964285D01*
X149464285Y-75773809D01*
X149464285Y-75630952D01*
X149511904Y-75440476D01*
X149559523Y-75345238D01*
X149654761Y-75250000D01*
X149797619Y-75202380D01*
X149892857Y-75202380D01*
X150035714Y-75250000D01*
X150083333Y-75297619D01*
X151035714Y-76202380D02*
X150464285Y-76202380D01*
X150750000Y-76202380D02*
X150750000Y-75202380D01*
X150654761Y-75345238D01*
X150559523Y-75440476D01*
X150464285Y-75488095D01*
G04 #@! TO.C,C2*
X149915333Y-86237142D02*
X149867714Y-86284761D01*
X149724857Y-86332380D01*
X149629619Y-86332380D01*
X149486761Y-86284761D01*
X149391523Y-86189523D01*
X149343904Y-86094285D01*
X149296285Y-85903809D01*
X149296285Y-85760952D01*
X149343904Y-85570476D01*
X149391523Y-85475238D01*
X149486761Y-85380000D01*
X149629619Y-85332380D01*
X149724857Y-85332380D01*
X149867714Y-85380000D01*
X149915333Y-85427619D01*
X150296285Y-85427619D02*
X150343904Y-85380000D01*
X150439142Y-85332380D01*
X150677238Y-85332380D01*
X150772476Y-85380000D01*
X150820095Y-85427619D01*
X150867714Y-85522857D01*
X150867714Y-85618095D01*
X150820095Y-85760952D01*
X150248666Y-86332380D01*
X150867714Y-86332380D01*
G04 #@! TO.C,C3*
X152833333Y-81107142D02*
X152785714Y-81154761D01*
X152642857Y-81202380D01*
X152547619Y-81202380D01*
X152404761Y-81154761D01*
X152309523Y-81059523D01*
X152261904Y-80964285D01*
X152214285Y-80773809D01*
X152214285Y-80630952D01*
X152261904Y-80440476D01*
X152309523Y-80345238D01*
X152404761Y-80250000D01*
X152547619Y-80202380D01*
X152642857Y-80202380D01*
X152785714Y-80250000D01*
X152833333Y-80297619D01*
X153166666Y-80202380D02*
X153785714Y-80202380D01*
X153452380Y-80583333D01*
X153595238Y-80583333D01*
X153690476Y-80630952D01*
X153738095Y-80678571D01*
X153785714Y-80773809D01*
X153785714Y-81011904D01*
X153738095Y-81107142D01*
X153690476Y-81154761D01*
X153595238Y-81202380D01*
X153309523Y-81202380D01*
X153214285Y-81154761D01*
X153166666Y-81107142D01*
G04 #@! TO.C,C4*
X145346142Y-89150666D02*
X145393761Y-89198285D01*
X145441380Y-89341142D01*
X145441380Y-89436380D01*
X145393761Y-89579238D01*
X145298523Y-89674476D01*
X145203285Y-89722095D01*
X145012809Y-89769714D01*
X144869952Y-89769714D01*
X144679476Y-89722095D01*
X144584238Y-89674476D01*
X144489000Y-89579238D01*
X144441380Y-89436380D01*
X144441380Y-89341142D01*
X144489000Y-89198285D01*
X144536619Y-89150666D01*
X144774714Y-88293523D02*
X145441380Y-88293523D01*
X144393761Y-88531619D02*
X145108047Y-88769714D01*
X145108047Y-88150666D01*
G04 #@! TO.C,C5*
X147083333Y-79857142D02*
X147035714Y-79904761D01*
X146892857Y-79952380D01*
X146797619Y-79952380D01*
X146654761Y-79904761D01*
X146559523Y-79809523D01*
X146511904Y-79714285D01*
X146464285Y-79523809D01*
X146464285Y-79380952D01*
X146511904Y-79190476D01*
X146559523Y-79095238D01*
X146654761Y-79000000D01*
X146797619Y-78952380D01*
X146892857Y-78952380D01*
X147035714Y-79000000D01*
X147083333Y-79047619D01*
X147988095Y-78952380D02*
X147511904Y-78952380D01*
X147464285Y-79428571D01*
X147511904Y-79380952D01*
X147607142Y-79333333D01*
X147845238Y-79333333D01*
X147940476Y-79380952D01*
X147988095Y-79428571D01*
X148035714Y-79523809D01*
X148035714Y-79761904D01*
X147988095Y-79857142D01*
X147940476Y-79904761D01*
X147845238Y-79952380D01*
X147607142Y-79952380D01*
X147511904Y-79904761D01*
X147464285Y-79857142D01*
G04 #@! TO.C,C6*
X164107142Y-124166666D02*
X164154761Y-124214285D01*
X164202380Y-124357142D01*
X164202380Y-124452380D01*
X164154761Y-124595238D01*
X164059523Y-124690476D01*
X163964285Y-124738095D01*
X163773809Y-124785714D01*
X163630952Y-124785714D01*
X163440476Y-124738095D01*
X163345238Y-124690476D01*
X163250000Y-124595238D01*
X163202380Y-124452380D01*
X163202380Y-124357142D01*
X163250000Y-124214285D01*
X163297619Y-124166666D01*
X163202380Y-123309523D02*
X163202380Y-123500000D01*
X163250000Y-123595238D01*
X163297619Y-123642857D01*
X163440476Y-123738095D01*
X163630952Y-123785714D01*
X164011904Y-123785714D01*
X164107142Y-123738095D01*
X164154761Y-123690476D01*
X164202380Y-123595238D01*
X164202380Y-123404761D01*
X164154761Y-123309523D01*
X164107142Y-123261904D01*
X164011904Y-123214285D01*
X163773809Y-123214285D01*
X163678571Y-123261904D01*
X163630952Y-123309523D01*
X163583333Y-123404761D01*
X163583333Y-123595238D01*
X163630952Y-123690476D01*
X163678571Y-123738095D01*
X163773809Y-123785714D01*
G04 #@! TO.C,F1*
X161916666Y-123428571D02*
X161583333Y-123428571D01*
X161583333Y-123952380D02*
X161583333Y-122952380D01*
X162059523Y-122952380D01*
X162964285Y-123952380D02*
X162392857Y-123952380D01*
X162678571Y-123952380D02*
X162678571Y-122952380D01*
X162583333Y-123095238D01*
X162488095Y-123190476D01*
X162392857Y-123238095D01*
G04 #@! TO.C,H3*
X-4761904Y-75452380D02*
X-4761904Y-74452380D01*
X-4761904Y-74928571D02*
X-4190476Y-74928571D01*
X-4190476Y-75452380D02*
X-4190476Y-74452380D01*
X-3809523Y-74452380D02*
X-3190476Y-74452380D01*
X-3523809Y-74833333D01*
X-3380952Y-74833333D01*
X-3285714Y-74880952D01*
X-3238095Y-74928571D01*
X-3190476Y-75023809D01*
X-3190476Y-75261904D01*
X-3238095Y-75357142D01*
X-3285714Y-75404761D01*
X-3380952Y-75452380D01*
X-3666666Y-75452380D01*
X-3761904Y-75404761D01*
X-3809523Y-75357142D01*
G04 #@! TO.C,H4*
X-6547619Y-88761904D02*
X-7547619Y-88761904D01*
X-7071428Y-88761904D02*
X-7071428Y-88190476D01*
X-6547619Y-88190476D02*
X-7547619Y-88190476D01*
X-7214285Y-87285714D02*
X-6547619Y-87285714D01*
X-7595238Y-87523809D02*
X-6880952Y-87761904D01*
X-6880952Y-87142857D01*
G04 #@! TO.C,J2*
X164916666Y-89702380D02*
X164916666Y-90416666D01*
X164869047Y-90559523D01*
X164773809Y-90654761D01*
X164630952Y-90702380D01*
X164535714Y-90702380D01*
X165345238Y-89797619D02*
X165392857Y-89750000D01*
X165488095Y-89702380D01*
X165726190Y-89702380D01*
X165821428Y-89750000D01*
X165869047Y-89797619D01*
X165916666Y-89892857D01*
X165916666Y-89988095D01*
X165869047Y-90130952D01*
X165297619Y-90702380D01*
X165916666Y-90702380D01*
G04 #@! TO.C,L1*
X162833333Y-85702380D02*
X162357142Y-85702380D01*
X162357142Y-84702380D01*
X163690476Y-85702380D02*
X163119047Y-85702380D01*
X163404761Y-85702380D02*
X163404761Y-84702380D01*
X163309523Y-84845238D01*
X163214285Y-84940476D01*
X163119047Y-84988095D01*
G04 #@! TO.C,L2*
X162740333Y-79832380D02*
X162264142Y-79832380D01*
X162264142Y-78832380D01*
X163026047Y-78927619D02*
X163073666Y-78880000D01*
X163168904Y-78832380D01*
X163407000Y-78832380D01*
X163502238Y-78880000D01*
X163549857Y-78927619D01*
X163597476Y-79022857D01*
X163597476Y-79118095D01*
X163549857Y-79260952D01*
X162978428Y-79832380D01*
X163597476Y-79832380D01*
G04 #@! TO.C,L3*
X159333333Y-117702380D02*
X158857142Y-117702380D01*
X158857142Y-116702380D01*
X159571428Y-116702380D02*
X160190476Y-116702380D01*
X159857142Y-117083333D01*
X160000000Y-117083333D01*
X160095238Y-117130952D01*
X160142857Y-117178571D01*
X160190476Y-117273809D01*
X160190476Y-117511904D01*
X160142857Y-117607142D01*
X160095238Y-117654761D01*
X160000000Y-117702380D01*
X159714285Y-117702380D01*
X159619047Y-117654761D01*
X159571428Y-117607142D01*
G04 #@! TO.C,R2*
X172583333Y-103202380D02*
X172250000Y-102726190D01*
X172011904Y-103202380D02*
X172011904Y-102202380D01*
X172392857Y-102202380D01*
X172488095Y-102250000D01*
X172535714Y-102297619D01*
X172583333Y-102392857D01*
X172583333Y-102535714D01*
X172535714Y-102630952D01*
X172488095Y-102678571D01*
X172392857Y-102726190D01*
X172011904Y-102726190D01*
X172964285Y-102297619D02*
X173011904Y-102250000D01*
X173107142Y-102202380D01*
X173345238Y-102202380D01*
X173440476Y-102250000D01*
X173488095Y-102297619D01*
X173535714Y-102392857D01*
X173535714Y-102488095D01*
X173488095Y-102630952D01*
X172916666Y-103202380D01*
X173535714Y-103202380D01*
G04 #@! TO.C,R3*
X175583333Y-101952380D02*
X175250000Y-101476190D01*
X175011904Y-101952380D02*
X175011904Y-100952380D01*
X175392857Y-100952380D01*
X175488095Y-101000000D01*
X175535714Y-101047619D01*
X175583333Y-101142857D01*
X175583333Y-101285714D01*
X175535714Y-101380952D01*
X175488095Y-101428571D01*
X175392857Y-101476190D01*
X175011904Y-101476190D01*
X175916666Y-100952380D02*
X176535714Y-100952380D01*
X176202380Y-101333333D01*
X176345238Y-101333333D01*
X176440476Y-101380952D01*
X176488095Y-101428571D01*
X176535714Y-101523809D01*
X176535714Y-101761904D01*
X176488095Y-101857142D01*
X176440476Y-101904761D01*
X176345238Y-101952380D01*
X176059523Y-101952380D01*
X175964285Y-101904761D01*
X175916666Y-101857142D01*
G04 #@! TO.C,R5*
X163083333Y-96952380D02*
X162750000Y-96476190D01*
X162511904Y-96952380D02*
X162511904Y-95952380D01*
X162892857Y-95952380D01*
X162988095Y-96000000D01*
X163035714Y-96047619D01*
X163083333Y-96142857D01*
X163083333Y-96285714D01*
X163035714Y-96380952D01*
X162988095Y-96428571D01*
X162892857Y-96476190D01*
X162511904Y-96476190D01*
X163988095Y-95952380D02*
X163511904Y-95952380D01*
X163464285Y-96428571D01*
X163511904Y-96380952D01*
X163607142Y-96333333D01*
X163845238Y-96333333D01*
X163940476Y-96380952D01*
X163988095Y-96428571D01*
X164035714Y-96523809D01*
X164035714Y-96761904D01*
X163988095Y-96857142D01*
X163940476Y-96904761D01*
X163845238Y-96952380D01*
X163607142Y-96952380D01*
X163511904Y-96904761D01*
X163464285Y-96857142D01*
G04 #@! TO.C,TP8*
X137188095Y-69952380D02*
X137759523Y-69952380D01*
X137473809Y-70952380D02*
X137473809Y-69952380D01*
X138092857Y-70952380D02*
X138092857Y-69952380D01*
X138473809Y-69952380D01*
X138569047Y-70000000D01*
X138616666Y-70047619D01*
X138664285Y-70142857D01*
X138664285Y-70285714D01*
X138616666Y-70380952D01*
X138569047Y-70428571D01*
X138473809Y-70476190D01*
X138092857Y-70476190D01*
X139235714Y-70380952D02*
X139140476Y-70333333D01*
X139092857Y-70285714D01*
X139045238Y-70190476D01*
X139045238Y-70142857D01*
X139092857Y-70047619D01*
X139140476Y-70000000D01*
X139235714Y-69952380D01*
X139426190Y-69952380D01*
X139521428Y-70000000D01*
X139569047Y-70047619D01*
X139616666Y-70142857D01*
X139616666Y-70190476D01*
X139569047Y-70285714D01*
X139521428Y-70333333D01*
X139426190Y-70380952D01*
X139235714Y-70380952D01*
X139140476Y-70428571D01*
X139092857Y-70476190D01*
X139045238Y-70571428D01*
X139045238Y-70761904D01*
X139092857Y-70857142D01*
X139140476Y-70904761D01*
X139235714Y-70952380D01*
X139426190Y-70952380D01*
X139521428Y-70904761D01*
X139569047Y-70857142D01*
X139616666Y-70761904D01*
X139616666Y-70571428D01*
X139569047Y-70476190D01*
X139521428Y-70428571D01*
X139426190Y-70380952D01*
G04 #@! TO.C,U1*
X144902380Y-96761904D02*
X145711904Y-96761904D01*
X145807142Y-96714285D01*
X145854761Y-96666666D01*
X145902380Y-96571428D01*
X145902380Y-96380952D01*
X145854761Y-96285714D01*
X145807142Y-96238095D01*
X145711904Y-96190476D01*
X144902380Y-96190476D01*
X145902380Y-95190476D02*
X145902380Y-95761904D01*
X145902380Y-95476190D02*
X144902380Y-95476190D01*
X145045238Y-95571428D01*
X145140476Y-95666666D01*
X145188095Y-95761904D01*
D16*
X138105400Y-101118502D02*
X138135901Y-101026998D01*
X138135901Y-100874492D01*
X138105400Y-100813490D01*
X138074898Y-100782988D01*
X138013896Y-100752487D01*
X137952894Y-100752487D01*
X137891891Y-100782988D01*
X137861390Y-100813490D01*
X137830889Y-100874492D01*
X137800388Y-100996497D01*
X137769887Y-101057499D01*
X137739385Y-101088000D01*
X137678383Y-101118502D01*
X137617381Y-101118502D01*
X137556378Y-101088000D01*
X137525877Y-101057499D01*
X137495376Y-100996497D01*
X137495376Y-100843991D01*
X137525877Y-100752487D01*
X138135901Y-100477977D02*
X137495376Y-100477977D01*
X138135901Y-99867953D02*
X138135901Y-100172965D01*
X137495376Y-100172965D01*
X138135901Y-99379934D02*
X137800388Y-99379934D01*
X137739385Y-99410435D01*
X137708884Y-99471437D01*
X137708884Y-99593442D01*
X137739385Y-99654444D01*
X138105400Y-99379934D02*
X138135901Y-99440936D01*
X138135901Y-99593442D01*
X138105400Y-99654444D01*
X138044397Y-99684946D01*
X137983395Y-99684946D01*
X137922392Y-99654444D01*
X137891891Y-99593442D01*
X137891891Y-99440936D01*
X137861390Y-99379934D01*
X138135901Y-99074922D02*
X137495376Y-99074922D01*
X137739385Y-99074922D02*
X137708884Y-99013919D01*
X137708884Y-98891915D01*
X137739385Y-98830912D01*
X137769887Y-98800411D01*
X137830889Y-98769910D01*
X138013896Y-98769910D01*
X138074898Y-98800411D01*
X138105400Y-98830912D01*
X138135901Y-98891915D01*
X138135901Y-99013919D01*
X138105400Y-99074922D01*
X138105400Y-98525900D02*
X138135901Y-98464898D01*
X138135901Y-98342893D01*
X138105400Y-98281891D01*
X138044397Y-98251390D01*
X138013896Y-98251390D01*
X137952894Y-98281891D01*
X137922392Y-98342893D01*
X137922392Y-98434397D01*
X137891891Y-98495399D01*
X137830889Y-98525900D01*
X137800388Y-98525900D01*
X137739385Y-98495399D01*
X137708884Y-98434397D01*
X137708884Y-98342893D01*
X137739385Y-98281891D01*
X138196903Y-98129385D02*
X138196903Y-97641366D01*
X137495376Y-97549862D02*
X138135901Y-97397356D01*
X137678383Y-97275352D01*
X138135901Y-97153347D01*
X137495376Y-97000841D01*
X137495376Y-96848335D02*
X137495376Y-96482321D01*
X138135901Y-96665328D02*
X137495376Y-96665328D01*
X137495376Y-96329815D02*
X137495376Y-95933299D01*
X137739385Y-96146808D01*
X137739385Y-96055304D01*
X137769887Y-95994302D01*
X137800388Y-95963800D01*
X137861390Y-95933299D01*
X138013896Y-95933299D01*
X138074898Y-95963800D01*
X138105400Y-95994302D01*
X138135901Y-96055304D01*
X138135901Y-96238311D01*
X138105400Y-96299313D01*
X138074898Y-96329815D01*
X137556378Y-95689290D02*
X137525877Y-95658788D01*
X137495376Y-95597786D01*
X137495376Y-95445280D01*
X137525877Y-95384278D01*
X137556378Y-95353777D01*
X137617381Y-95323275D01*
X137678383Y-95323275D01*
X137769887Y-95353777D01*
X138135901Y-95719791D01*
X138135901Y-95323275D01*
X138135901Y-95048765D02*
X137708884Y-95048765D01*
X137495376Y-95048765D02*
X137525877Y-95079266D01*
X137556378Y-95048765D01*
X137525877Y-95018263D01*
X137495376Y-95048765D01*
X137556378Y-95048765D01*
G04 #@! TO.C,TP1*
D10*
X165488095Y-84202380D02*
X166059523Y-84202380D01*
X165773809Y-85202380D02*
X165773809Y-84202380D01*
X166392857Y-85202380D02*
X166392857Y-84202380D01*
X166773809Y-84202380D01*
X166869047Y-84250000D01*
X166916666Y-84297619D01*
X166964285Y-84392857D01*
X166964285Y-84535714D01*
X166916666Y-84630952D01*
X166869047Y-84678571D01*
X166773809Y-84726190D01*
X166392857Y-84726190D01*
X167916666Y-85202380D02*
X167345238Y-85202380D01*
X167630952Y-85202380D02*
X167630952Y-84202380D01*
X167535714Y-84345238D01*
X167440476Y-84440476D01*
X167345238Y-84488095D01*
G04 #@! TO.C,TP2*
X141988095Y-76952380D02*
X142559523Y-76952380D01*
X142273809Y-77952380D02*
X142273809Y-76952380D01*
X142892857Y-77952380D02*
X142892857Y-76952380D01*
X143273809Y-76952380D01*
X143369047Y-77000000D01*
X143416666Y-77047619D01*
X143464285Y-77142857D01*
X143464285Y-77285714D01*
X143416666Y-77380952D01*
X143369047Y-77428571D01*
X143273809Y-77476190D01*
X142892857Y-77476190D01*
X143845238Y-77047619D02*
X143892857Y-77000000D01*
X143988095Y-76952380D01*
X144226190Y-76952380D01*
X144321428Y-77000000D01*
X144369047Y-77047619D01*
X144416666Y-77142857D01*
X144416666Y-77238095D01*
X144369047Y-77380952D01*
X143797619Y-77952380D01*
X144416666Y-77952380D01*
G04 #@! TO.C,TP3*
X141988095Y-74452380D02*
X142559523Y-74452380D01*
X142273809Y-75452380D02*
X142273809Y-74452380D01*
X142892857Y-75452380D02*
X142892857Y-74452380D01*
X143273809Y-74452380D01*
X143369047Y-74500000D01*
X143416666Y-74547619D01*
X143464285Y-74642857D01*
X143464285Y-74785714D01*
X143416666Y-74880952D01*
X143369047Y-74928571D01*
X143273809Y-74976190D01*
X142892857Y-74976190D01*
X143797619Y-74452380D02*
X144416666Y-74452380D01*
X144083333Y-74833333D01*
X144226190Y-74833333D01*
X144321428Y-74880952D01*
X144369047Y-74928571D01*
X144416666Y-75023809D01*
X144416666Y-75261904D01*
X144369047Y-75357142D01*
X144321428Y-75404761D01*
X144226190Y-75452380D01*
X143940476Y-75452380D01*
X143845238Y-75404761D01*
X143797619Y-75357142D01*
G04 #@! TO.C,TP4*
X142238095Y-83702380D02*
X142809523Y-83702380D01*
X142523809Y-84702380D02*
X142523809Y-83702380D01*
X143142857Y-84702380D02*
X143142857Y-83702380D01*
X143523809Y-83702380D01*
X143619047Y-83750000D01*
X143666666Y-83797619D01*
X143714285Y-83892857D01*
X143714285Y-84035714D01*
X143666666Y-84130952D01*
X143619047Y-84178571D01*
X143523809Y-84226190D01*
X143142857Y-84226190D01*
X144571428Y-84035714D02*
X144571428Y-84702380D01*
X144333333Y-83654761D02*
X144095238Y-84369047D01*
X144714285Y-84369047D01*
G04 #@! TO.C,TP5*
X142238095Y-80952380D02*
X142809523Y-80952380D01*
X142523809Y-81952380D02*
X142523809Y-80952380D01*
X143142857Y-81952380D02*
X143142857Y-80952380D01*
X143523809Y-80952380D01*
X143619047Y-81000000D01*
X143666666Y-81047619D01*
X143714285Y-81142857D01*
X143714285Y-81285714D01*
X143666666Y-81380952D01*
X143619047Y-81428571D01*
X143523809Y-81476190D01*
X143142857Y-81476190D01*
X144619047Y-80952380D02*
X144142857Y-80952380D01*
X144095238Y-81428571D01*
X144142857Y-81380952D01*
X144238095Y-81333333D01*
X144476190Y-81333333D01*
X144571428Y-81380952D01*
X144619047Y-81428571D01*
X144666666Y-81523809D01*
X144666666Y-81761904D01*
X144619047Y-81857142D01*
X144571428Y-81904761D01*
X144476190Y-81952380D01*
X144238095Y-81952380D01*
X144142857Y-81904761D01*
X144095238Y-81857142D01*
G04 #@! TO.C,TP6*
X165238095Y-73702380D02*
X165809523Y-73702380D01*
X165523809Y-74702380D02*
X165523809Y-73702380D01*
X166142857Y-74702380D02*
X166142857Y-73702380D01*
X166523809Y-73702380D01*
X166619047Y-73750000D01*
X166666666Y-73797619D01*
X166714285Y-73892857D01*
X166714285Y-74035714D01*
X166666666Y-74130952D01*
X166619047Y-74178571D01*
X166523809Y-74226190D01*
X166142857Y-74226190D01*
X167571428Y-73702380D02*
X167380952Y-73702380D01*
X167285714Y-73750000D01*
X167238095Y-73797619D01*
X167142857Y-73940476D01*
X167095238Y-74130952D01*
X167095238Y-74511904D01*
X167142857Y-74607142D01*
X167190476Y-74654761D01*
X167285714Y-74702380D01*
X167476190Y-74702380D01*
X167571428Y-74654761D01*
X167619047Y-74607142D01*
X167666666Y-74511904D01*
X167666666Y-74273809D01*
X167619047Y-74178571D01*
X167571428Y-74130952D01*
X167476190Y-74083333D01*
X167285714Y-74083333D01*
X167190476Y-74130952D01*
X167142857Y-74178571D01*
X167095238Y-74273809D01*
G04 #@! TO.C,TP7*
X165245095Y-78452380D02*
X165816523Y-78452380D01*
X165530809Y-79452380D02*
X165530809Y-78452380D01*
X166149857Y-79452380D02*
X166149857Y-78452380D01*
X166530809Y-78452380D01*
X166626047Y-78500000D01*
X166673666Y-78547619D01*
X166721285Y-78642857D01*
X166721285Y-78785714D01*
X166673666Y-78880952D01*
X166626047Y-78928571D01*
X166530809Y-78976190D01*
X166149857Y-78976190D01*
X167054619Y-78452380D02*
X167721285Y-78452380D01*
X167292714Y-79452380D01*
G04 #@! TO.C,C7*
X163583333Y-117607142D02*
X163535714Y-117654761D01*
X163392857Y-117702380D01*
X163297619Y-117702380D01*
X163154761Y-117654761D01*
X163059523Y-117559523D01*
X163011904Y-117464285D01*
X162964285Y-117273809D01*
X162964285Y-117130952D01*
X163011904Y-116940476D01*
X163059523Y-116845238D01*
X163154761Y-116750000D01*
X163297619Y-116702380D01*
X163392857Y-116702380D01*
X163535714Y-116750000D01*
X163583333Y-116797619D01*
X163916666Y-116702380D02*
X164583333Y-116702380D01*
X164154761Y-117702380D01*
G04 #@! TO.C,JP2*
X149166666Y-91202380D02*
X149166666Y-91916666D01*
X149119047Y-92059523D01*
X149023809Y-92154761D01*
X148880952Y-92202380D01*
X148785714Y-92202380D01*
X149642857Y-92202380D02*
X149642857Y-91202380D01*
X150023809Y-91202380D01*
X150119047Y-91250000D01*
X150166666Y-91297619D01*
X150214285Y-91392857D01*
X150214285Y-91535714D01*
X150166666Y-91630952D01*
X150119047Y-91678571D01*
X150023809Y-91726190D01*
X149642857Y-91726190D01*
X150595238Y-91297619D02*
X150642857Y-91250000D01*
X150738095Y-91202380D01*
X150976190Y-91202380D01*
X151071428Y-91250000D01*
X151119047Y-91297619D01*
X151166666Y-91392857D01*
X151166666Y-91488095D01*
X151119047Y-91630952D01*
X150547619Y-92202380D01*
X151166666Y-92202380D01*
G04 #@! TO.C,U2*
X170738095Y-120202380D02*
X170738095Y-121011904D01*
X170785714Y-121107142D01*
X170833333Y-121154761D01*
X170928571Y-121202380D01*
X171119047Y-121202380D01*
X171214285Y-121154761D01*
X171261904Y-121107142D01*
X171309523Y-121011904D01*
X171309523Y-120202380D01*
X171738095Y-120297619D02*
X171785714Y-120250000D01*
X171880952Y-120202380D01*
X172119047Y-120202380D01*
X172214285Y-120250000D01*
X172261904Y-120297619D01*
X172309523Y-120392857D01*
X172309523Y-120488095D01*
X172261904Y-120630952D01*
X171690476Y-121202380D01*
X172309523Y-121202380D01*
G04 #@! TO.C,R1*
X167952380Y-111166666D02*
X167476190Y-111500000D01*
X167952380Y-111738095D02*
X166952380Y-111738095D01*
X166952380Y-111357142D01*
X167000000Y-111261904D01*
X167047619Y-111214285D01*
X167142857Y-111166666D01*
X167285714Y-111166666D01*
X167380952Y-111214285D01*
X167428571Y-111261904D01*
X167476190Y-111357142D01*
X167476190Y-111738095D01*
X167952380Y-110214285D02*
X167952380Y-110785714D01*
X167952380Y-110500000D02*
X166952380Y-110500000D01*
X167095238Y-110595238D01*
X167190476Y-110690476D01*
X167238095Y-110785714D01*
G04 #@! TO.C,R4*
X179333333Y-108202380D02*
X179000000Y-107726190D01*
X178761904Y-108202380D02*
X178761904Y-107202380D01*
X179142857Y-107202380D01*
X179238095Y-107250000D01*
X179285714Y-107297619D01*
X179333333Y-107392857D01*
X179333333Y-107535714D01*
X179285714Y-107630952D01*
X179238095Y-107678571D01*
X179142857Y-107726190D01*
X178761904Y-107726190D01*
X180190476Y-107535714D02*
X180190476Y-108202380D01*
X179952380Y-107154761D02*
X179714285Y-107869047D01*
X180333333Y-107869047D01*
G04 #@! TO.C,D2*
X168511904Y-129702380D02*
X168511904Y-128702380D01*
X168750000Y-128702380D01*
X168892857Y-128750000D01*
X168988095Y-128845238D01*
X169035714Y-128940476D01*
X169083333Y-129130952D01*
X169083333Y-129273809D01*
X169035714Y-129464285D01*
X168988095Y-129559523D01*
X168892857Y-129654761D01*
X168750000Y-129702380D01*
X168511904Y-129702380D01*
X169464285Y-128797619D02*
X169511904Y-128750000D01*
X169607142Y-128702380D01*
X169845238Y-128702380D01*
X169940476Y-128750000D01*
X169988095Y-128797619D01*
X170035714Y-128892857D01*
X170035714Y-128988095D01*
X169988095Y-129130952D01*
X169416666Y-129702380D01*
X170035714Y-129702380D01*
G04 #@! TO.C,J4*
X150416666Y-95202380D02*
X150416666Y-95916666D01*
X150369047Y-96059523D01*
X150273809Y-96154761D01*
X150130952Y-96202380D01*
X150035714Y-96202380D01*
X151321428Y-95535714D02*
X151321428Y-96202380D01*
X151083333Y-95154761D02*
X150845238Y-95869047D01*
X151464285Y-95869047D01*
G04 #@! TO.C,J6*
X175666666Y-95452380D02*
X175666666Y-96166666D01*
X175619047Y-96309523D01*
X175523809Y-96404761D01*
X175380952Y-96452380D01*
X175285714Y-96452380D01*
X176571428Y-95452380D02*
X176380952Y-95452380D01*
X176285714Y-95500000D01*
X176238095Y-95547619D01*
X176142857Y-95690476D01*
X176095238Y-95880952D01*
X176095238Y-96261904D01*
X176142857Y-96357142D01*
X176190476Y-96404761D01*
X176285714Y-96452380D01*
X176476190Y-96452380D01*
X176571428Y-96404761D01*
X176619047Y-96357142D01*
X176666666Y-96261904D01*
X176666666Y-96023809D01*
X176619047Y-95928571D01*
X176571428Y-95880952D01*
X176476190Y-95833333D01*
X176285714Y-95833333D01*
X176190476Y-95880952D01*
X176142857Y-95928571D01*
X176095238Y-96023809D01*
G04 #@! TO.C,RV1*
X161154761Y-89952380D02*
X160821428Y-89476190D01*
X160583333Y-89952380D02*
X160583333Y-88952380D01*
X160964285Y-88952380D01*
X161059523Y-89000000D01*
X161107142Y-89047619D01*
X161154761Y-89142857D01*
X161154761Y-89285714D01*
X161107142Y-89380952D01*
X161059523Y-89428571D01*
X160964285Y-89476190D01*
X160583333Y-89476190D01*
X161440476Y-88952380D02*
X161773809Y-89952380D01*
X162107142Y-88952380D01*
X162964285Y-89952380D02*
X162392857Y-89952380D01*
X162678571Y-89952380D02*
X162678571Y-88952380D01*
X162583333Y-89095238D01*
X162488095Y-89190476D01*
X162392857Y-89238095D01*
G04 #@! TO.C,RV2*
X152654761Y-73202380D02*
X152321428Y-72726190D01*
X152083333Y-73202380D02*
X152083333Y-72202380D01*
X152464285Y-72202380D01*
X152559523Y-72250000D01*
X152607142Y-72297619D01*
X152654761Y-72392857D01*
X152654761Y-72535714D01*
X152607142Y-72630952D01*
X152559523Y-72678571D01*
X152464285Y-72726190D01*
X152083333Y-72726190D01*
X152940476Y-72202380D02*
X153273809Y-73202380D01*
X153607142Y-72202380D01*
X153892857Y-72297619D02*
X153940476Y-72250000D01*
X154035714Y-72202380D01*
X154273809Y-72202380D01*
X154369047Y-72250000D01*
X154416666Y-72297619D01*
X154464285Y-72392857D01*
X154464285Y-72488095D01*
X154416666Y-72630952D01*
X153845238Y-73202380D01*
X154464285Y-73202380D01*
G04 #@! TO.C,RV3*
X161154761Y-83952380D02*
X160821428Y-83476190D01*
X160583333Y-83952380D02*
X160583333Y-82952380D01*
X160964285Y-82952380D01*
X161059523Y-83000000D01*
X161107142Y-83047619D01*
X161154761Y-83142857D01*
X161154761Y-83285714D01*
X161107142Y-83380952D01*
X161059523Y-83428571D01*
X160964285Y-83476190D01*
X160583333Y-83476190D01*
X161440476Y-82952380D02*
X161773809Y-83952380D01*
X162107142Y-82952380D01*
X162345238Y-82952380D02*
X162964285Y-82952380D01*
X162630952Y-83333333D01*
X162773809Y-83333333D01*
X162869047Y-83380952D01*
X162916666Y-83428571D01*
X162964285Y-83523809D01*
X162964285Y-83761904D01*
X162916666Y-83857142D01*
X162869047Y-83904761D01*
X162773809Y-83952380D01*
X162488095Y-83952380D01*
X162392857Y-83904761D01*
X162345238Y-83857142D01*
G04 #@! TO.C,J5*
X167202380Y-70583333D02*
X167916666Y-70583333D01*
X168059523Y-70630952D01*
X168154761Y-70726190D01*
X168202380Y-70869047D01*
X168202380Y-70964285D01*
X167202380Y-69630952D02*
X167202380Y-70107142D01*
X167678571Y-70154761D01*
X167630952Y-70107142D01*
X167583333Y-70011904D01*
X167583333Y-69773809D01*
X167630952Y-69678571D01*
X167678571Y-69630952D01*
X167773809Y-69583333D01*
X168011904Y-69583333D01*
X168107142Y-69630952D01*
X168154761Y-69678571D01*
X168202380Y-69773809D01*
X168202380Y-70011904D01*
X168154761Y-70107142D01*
X168107142Y-70154761D01*
G04 #@! TO.C,J3*
X167202380Y-89583333D02*
X167916666Y-89583333D01*
X168059523Y-89630952D01*
X168154761Y-89726190D01*
X168202380Y-89869047D01*
X168202380Y-89964285D01*
X167202380Y-89202380D02*
X167202380Y-88583333D01*
X167583333Y-88916666D01*
X167583333Y-88773809D01*
X167630952Y-88678571D01*
X167678571Y-88630952D01*
X167773809Y-88583333D01*
X168011904Y-88583333D01*
X168107142Y-88630952D01*
X168154761Y-88678571D01*
X168202380Y-88773809D01*
X168202380Y-89059523D01*
X168154761Y-89154761D01*
X168107142Y-89202380D01*
G04 #@! TO.C,J7*
X121312380Y-111833333D02*
X122026666Y-111833333D01*
X122169523Y-111880952D01*
X122264761Y-111976190D01*
X122312380Y-112119047D01*
X122312380Y-112214285D01*
X121312380Y-111452380D02*
X121312380Y-110785714D01*
X122312380Y-111214285D01*
G04 #@! TO.C,R6*
X132333333Y-105452380D02*
X132000000Y-104976190D01*
X131761904Y-105452380D02*
X131761904Y-104452380D01*
X132142857Y-104452380D01*
X132238095Y-104500000D01*
X132285714Y-104547619D01*
X132333333Y-104642857D01*
X132333333Y-104785714D01*
X132285714Y-104880952D01*
X132238095Y-104928571D01*
X132142857Y-104976190D01*
X131761904Y-104976190D01*
X133190476Y-104452380D02*
X133000000Y-104452380D01*
X132904761Y-104500000D01*
X132857142Y-104547619D01*
X132761904Y-104690476D01*
X132714285Y-104880952D01*
X132714285Y-105261904D01*
X132761904Y-105357142D01*
X132809523Y-105404761D01*
X132904761Y-105452380D01*
X133095238Y-105452380D01*
X133190476Y-105404761D01*
X133238095Y-105357142D01*
X133285714Y-105261904D01*
X133285714Y-105023809D01*
X133238095Y-104928571D01*
X133190476Y-104880952D01*
X133095238Y-104833333D01*
X132904761Y-104833333D01*
X132809523Y-104880952D01*
X132761904Y-104928571D01*
X132714285Y-105023809D01*
G04 #@! TO.C,R7*
X129833333Y-105452380D02*
X129500000Y-104976190D01*
X129261904Y-105452380D02*
X129261904Y-104452380D01*
X129642857Y-104452380D01*
X129738095Y-104500000D01*
X129785714Y-104547619D01*
X129833333Y-104642857D01*
X129833333Y-104785714D01*
X129785714Y-104880952D01*
X129738095Y-104928571D01*
X129642857Y-104976190D01*
X129261904Y-104976190D01*
X130166666Y-104452380D02*
X130833333Y-104452380D01*
X130404761Y-105452380D01*
G04 #@! TO.C,SW1*
X178833761Y-123927333D02*
X178881380Y-123784476D01*
X178881380Y-123546380D01*
X178833761Y-123451142D01*
X178786142Y-123403523D01*
X178690904Y-123355904D01*
X178595666Y-123355904D01*
X178500428Y-123403523D01*
X178452809Y-123451142D01*
X178405190Y-123546380D01*
X178357571Y-123736857D01*
X178309952Y-123832095D01*
X178262333Y-123879714D01*
X178167095Y-123927333D01*
X178071857Y-123927333D01*
X177976619Y-123879714D01*
X177929000Y-123832095D01*
X177881380Y-123736857D01*
X177881380Y-123498761D01*
X177929000Y-123355904D01*
X177881380Y-123022571D02*
X178881380Y-122784476D01*
X178167095Y-122594000D01*
X178881380Y-122403523D01*
X177881380Y-122165428D01*
X178881380Y-121260666D02*
X178881380Y-121832095D01*
X178881380Y-121546380D02*
X177881380Y-121546380D01*
X178024238Y-121641619D01*
X178119476Y-121736857D01*
X178167095Y-121832095D01*
G04 #@! TO.C,D1*
X183702380Y-111488095D02*
X182702380Y-111488095D01*
X182702380Y-111250000D01*
X182750000Y-111107142D01*
X182845238Y-111011904D01*
X182940476Y-110964285D01*
X183130952Y-110916666D01*
X183273809Y-110916666D01*
X183464285Y-110964285D01*
X183559523Y-111011904D01*
X183654761Y-111107142D01*
X183702380Y-111250000D01*
X183702380Y-111488095D01*
X183702380Y-109964285D02*
X183702380Y-110535714D01*
X183702380Y-110250000D02*
X182702380Y-110250000D01*
X182845238Y-110345238D01*
X182940476Y-110440476D01*
X182988095Y-110535714D01*
G04 #@! TO.C,D3*
X183687380Y-103489095D02*
X182687380Y-103489095D01*
X182687380Y-103251000D01*
X182735000Y-103108142D01*
X182830238Y-103012904D01*
X182925476Y-102965285D01*
X183115952Y-102917666D01*
X183258809Y-102917666D01*
X183449285Y-102965285D01*
X183544523Y-103012904D01*
X183639761Y-103108142D01*
X183687380Y-103251000D01*
X183687380Y-103489095D01*
X182687380Y-102584333D02*
X182687380Y-101965285D01*
X183068333Y-102298619D01*
X183068333Y-102155761D01*
X183115952Y-102060523D01*
X183163571Y-102012904D01*
X183258809Y-101965285D01*
X183496904Y-101965285D01*
X183592142Y-102012904D01*
X183639761Y-102060523D01*
X183687380Y-102155761D01*
X183687380Y-102441476D01*
X183639761Y-102536714D01*
X183592142Y-102584333D01*
G04 #@! TO.C,D5*
X183702380Y-107738095D02*
X182702380Y-107738095D01*
X182702380Y-107500000D01*
X182750000Y-107357142D01*
X182845238Y-107261904D01*
X182940476Y-107214285D01*
X183130952Y-107166666D01*
X183273809Y-107166666D01*
X183464285Y-107214285D01*
X183559523Y-107261904D01*
X183654761Y-107357142D01*
X183702380Y-107500000D01*
X183702380Y-107738095D01*
X182702380Y-106261904D02*
X182702380Y-106738095D01*
X183178571Y-106785714D01*
X183130952Y-106738095D01*
X183083333Y-106642857D01*
X183083333Y-106404761D01*
X183130952Y-106309523D01*
X183178571Y-106261904D01*
X183273809Y-106214285D01*
X183511904Y-106214285D01*
X183607142Y-106261904D01*
X183654761Y-106309523D01*
X183702380Y-106404761D01*
X183702380Y-106642857D01*
X183654761Y-106738095D01*
X183607142Y-106785714D01*
G04 #@! TO.C,D4*
X155952380Y-121838095D02*
X154952380Y-121838095D01*
X154952380Y-121600000D01*
X155000000Y-121457142D01*
X155095238Y-121361904D01*
X155190476Y-121314285D01*
X155380952Y-121266666D01*
X155523809Y-121266666D01*
X155714285Y-121314285D01*
X155809523Y-121361904D01*
X155904761Y-121457142D01*
X155952380Y-121600000D01*
X155952380Y-121838095D01*
X155285714Y-120409523D02*
X155952380Y-120409523D01*
X154904761Y-120647619D02*
X155619047Y-120885714D01*
X155619047Y-120266666D01*
G04 #@! TO.C,D6*
X174261904Y-129202380D02*
X174261904Y-128202380D01*
X174500000Y-128202380D01*
X174642857Y-128250000D01*
X174738095Y-128345238D01*
X174785714Y-128440476D01*
X174833333Y-128630952D01*
X174833333Y-128773809D01*
X174785714Y-128964285D01*
X174738095Y-129059523D01*
X174642857Y-129154761D01*
X174500000Y-129202380D01*
X174261904Y-129202380D01*
X175690476Y-128202380D02*
X175500000Y-128202380D01*
X175404761Y-128250000D01*
X175357142Y-128297619D01*
X175261904Y-128440476D01*
X175214285Y-128630952D01*
X175214285Y-129011904D01*
X175261904Y-129107142D01*
X175309523Y-129154761D01*
X175404761Y-129202380D01*
X175595238Y-129202380D01*
X175690476Y-129154761D01*
X175738095Y-129107142D01*
X175785714Y-129011904D01*
X175785714Y-128773809D01*
X175738095Y-128678571D01*
X175690476Y-128630952D01*
X175595238Y-128583333D01*
X175404761Y-128583333D01*
X175309523Y-128630952D01*
X175261904Y-128678571D01*
X175214285Y-128773809D01*
G04 #@! TO.C,C8*
X150583333Y-129357142D02*
X150535714Y-129404761D01*
X150392857Y-129452380D01*
X150297619Y-129452380D01*
X150154761Y-129404761D01*
X150059523Y-129309523D01*
X150011904Y-129214285D01*
X149964285Y-129023809D01*
X149964285Y-128880952D01*
X150011904Y-128690476D01*
X150059523Y-128595238D01*
X150154761Y-128500000D01*
X150297619Y-128452380D01*
X150392857Y-128452380D01*
X150535714Y-128500000D01*
X150583333Y-128547619D01*
X151154761Y-128880952D02*
X151059523Y-128833333D01*
X151011904Y-128785714D01*
X150964285Y-128690476D01*
X150964285Y-128642857D01*
X151011904Y-128547619D01*
X151059523Y-128500000D01*
X151154761Y-128452380D01*
X151345238Y-128452380D01*
X151440476Y-128500000D01*
X151488095Y-128547619D01*
X151535714Y-128642857D01*
X151535714Y-128690476D01*
X151488095Y-128785714D01*
X151440476Y-128833333D01*
X151345238Y-128880952D01*
X151154761Y-128880952D01*
X151059523Y-128928571D01*
X151011904Y-128976190D01*
X150964285Y-129071428D01*
X150964285Y-129261904D01*
X151011904Y-129357142D01*
X151059523Y-129404761D01*
X151154761Y-129452380D01*
X151345238Y-129452380D01*
X151440476Y-129404761D01*
X151488095Y-129357142D01*
X151535714Y-129261904D01*
X151535714Y-129071428D01*
X151488095Y-128976190D01*
X151440476Y-128928571D01*
X151345238Y-128880952D01*
G04 #@! TO.C,C9*
X162808333Y-72607142D02*
X162760714Y-72654761D01*
X162617857Y-72702380D01*
X162522619Y-72702380D01*
X162379761Y-72654761D01*
X162284523Y-72559523D01*
X162236904Y-72464285D01*
X162189285Y-72273809D01*
X162189285Y-72130952D01*
X162236904Y-71940476D01*
X162284523Y-71845238D01*
X162379761Y-71750000D01*
X162522619Y-71702380D01*
X162617857Y-71702380D01*
X162760714Y-71750000D01*
X162808333Y-71797619D01*
X163284523Y-72702380D02*
X163475000Y-72702380D01*
X163570238Y-72654761D01*
X163617857Y-72607142D01*
X163713095Y-72464285D01*
X163760714Y-72273809D01*
X163760714Y-71892857D01*
X163713095Y-71797619D01*
X163665476Y-71750000D01*
X163570238Y-71702380D01*
X163379761Y-71702380D01*
X163284523Y-71750000D01*
X163236904Y-71797619D01*
X163189285Y-71892857D01*
X163189285Y-72130952D01*
X163236904Y-72226190D01*
X163284523Y-72273809D01*
X163379761Y-72321428D01*
X163570238Y-72321428D01*
X163665476Y-72273809D01*
X163713095Y-72226190D01*
X163760714Y-72130952D01*
G04 #@! TO.C,L4*
X162833333Y-78452380D02*
X162357142Y-78452380D01*
X162357142Y-77452380D01*
X163595238Y-77785714D02*
X163595238Y-78452380D01*
X163357142Y-77404761D02*
X163119047Y-78119047D01*
X163738095Y-78119047D01*
G04 #@! TO.C,D7*
X171702380Y-109988095D02*
X170702380Y-109988095D01*
X170702380Y-109750000D01*
X170750000Y-109607142D01*
X170845238Y-109511904D01*
X170940476Y-109464285D01*
X171130952Y-109416666D01*
X171273809Y-109416666D01*
X171464285Y-109464285D01*
X171559523Y-109511904D01*
X171654761Y-109607142D01*
X171702380Y-109750000D01*
X171702380Y-109988095D01*
X170702380Y-109083333D02*
X170702380Y-108416666D01*
X171702380Y-108845238D01*
G04 #@! TO.C,U3*
X164419095Y-117129380D02*
X164419095Y-117938904D01*
X164466714Y-118034142D01*
X164514333Y-118081761D01*
X164609571Y-118129380D01*
X164800047Y-118129380D01*
X164895285Y-118081761D01*
X164942904Y-118034142D01*
X164990523Y-117938904D01*
X164990523Y-117129380D01*
X165371476Y-117129380D02*
X165990523Y-117129380D01*
X165657190Y-117510333D01*
X165800047Y-117510333D01*
X165895285Y-117557952D01*
X165942904Y-117605571D01*
X165990523Y-117700809D01*
X165990523Y-117938904D01*
X165942904Y-118034142D01*
X165895285Y-118081761D01*
X165800047Y-118129380D01*
X165514333Y-118129380D01*
X165419095Y-118081761D01*
X165371476Y-118034142D01*
G04 #@! TD*
M02*
