G04 #@! TF.GenerationSoftware,KiCad,Pcbnew,5.1.4+dfsg1-1*
G04 #@! TF.CreationDate,2019-10-06T21:28:02+02:00*
G04 #@! TF.ProjectId,bt-trx-dev-board,62742d74-7278-42d6-9465-762d626f6172,4.1*
G04 #@! TF.SameCoordinates,Original*
G04 #@! TF.FileFunction,Soldermask,Bot*
G04 #@! TF.FilePolarity,Negative*
%FSLAX46Y46*%
G04 Gerber Fmt 4.6, Leading zero omitted, Abs format (unit mm)*
G04 Created by KiCad (PCBNEW 5.1.4+dfsg1-1) date 2019-10-06 21:28:02*
%MOMM*%
%LPD*%
G04 APERTURE LIST*
%ADD10C,0.100000*%
G04 APERTURE END LIST*
D10*
X194437000Y-99441000D02*
G75*
G03X194437000Y-99441000I-1143000J0D01*
G01*
X196683000Y-93691000D02*
G75*
G03X196683000Y-93691000I-889000J0D01*
G01*
X196683000Y-98191000D02*
G75*
G03X196683000Y-98191000I-889000J0D01*
G01*
X194437000Y-92441000D02*
G75*
G03X194437000Y-92441000I-1143000J0D01*
G01*
G36*
X171756025Y-125932500D02*
G01*
X171906579Y-125962447D01*
X172119037Y-126050450D01*
X172131695Y-126055693D01*
X172207042Y-126086903D01*
X172477451Y-126267585D01*
X172707415Y-126497549D01*
X172888097Y-126767958D01*
X173012553Y-127068421D01*
X173076000Y-127387391D01*
X173076000Y-127712609D01*
X173012553Y-128031579D01*
X172888097Y-128332042D01*
X172707415Y-128602451D01*
X172477451Y-128832415D01*
X172207042Y-129013097D01*
X171906579Y-129137553D01*
X171800256Y-129158702D01*
X171587611Y-129201000D01*
X171262389Y-129201000D01*
X171049744Y-129158702D01*
X170943421Y-129137553D01*
X170642958Y-129013097D01*
X170372549Y-128832415D01*
X170142585Y-128602451D01*
X169961903Y-128332042D01*
X169837447Y-128031579D01*
X169774000Y-127712609D01*
X169774000Y-127387391D01*
X169837447Y-127068421D01*
X169961903Y-126767958D01*
X170142585Y-126497549D01*
X170372549Y-126267585D01*
X170642958Y-126086903D01*
X170718306Y-126055693D01*
X170730963Y-126050450D01*
X170943421Y-125962447D01*
X171093975Y-125932500D01*
X171262389Y-125899000D01*
X171587611Y-125899000D01*
X171756025Y-125932500D01*
X171756025Y-125932500D01*
G37*
G36*
X131756025Y-125932500D02*
G01*
X131906579Y-125962447D01*
X132119037Y-126050450D01*
X132131695Y-126055693D01*
X132207042Y-126086903D01*
X132477451Y-126267585D01*
X132707415Y-126497549D01*
X132888097Y-126767958D01*
X133012553Y-127068421D01*
X133076000Y-127387391D01*
X133076000Y-127712609D01*
X133012553Y-128031579D01*
X132888097Y-128332042D01*
X132707415Y-128602451D01*
X132477451Y-128832415D01*
X132207042Y-129013097D01*
X131906579Y-129137553D01*
X131800256Y-129158702D01*
X131587611Y-129201000D01*
X131262389Y-129201000D01*
X131049744Y-129158702D01*
X130943421Y-129137553D01*
X130642958Y-129013097D01*
X130372549Y-128832415D01*
X130142585Y-128602451D01*
X129961903Y-128332042D01*
X129837447Y-128031579D01*
X129774000Y-127712609D01*
X129774000Y-127387391D01*
X129837447Y-127068421D01*
X129961903Y-126767958D01*
X130142585Y-126497549D01*
X130372549Y-126267585D01*
X130642958Y-126086903D01*
X130718306Y-126055693D01*
X130730963Y-126050450D01*
X130943421Y-125962447D01*
X131093975Y-125932500D01*
X131262389Y-125899000D01*
X131587611Y-125899000D01*
X131756025Y-125932500D01*
X131756025Y-125932500D01*
G37*
G36*
X189136425Y-123752760D02*
G01*
X189136428Y-123752761D01*
X189136429Y-123752761D01*
X189315693Y-123807140D01*
X189315696Y-123807142D01*
X189315697Y-123807142D01*
X189480903Y-123895446D01*
X189625712Y-124014288D01*
X189744554Y-124159097D01*
X189832858Y-124324303D01*
X189832860Y-124324307D01*
X189887239Y-124503571D01*
X189887240Y-124503575D01*
X189901000Y-124643282D01*
X189901000Y-125736718D01*
X189887240Y-125876425D01*
X189887239Y-125876428D01*
X189887239Y-125876429D01*
X189832860Y-126055693D01*
X189832858Y-126055696D01*
X189832858Y-126055697D01*
X189744554Y-126220903D01*
X189625712Y-126365712D01*
X189480903Y-126484554D01*
X189315696Y-126572858D01*
X189315692Y-126572860D01*
X189136428Y-126627239D01*
X189136427Y-126627239D01*
X189136424Y-126627240D01*
X188950000Y-126645601D01*
X188763575Y-126627240D01*
X188763572Y-126627239D01*
X188763571Y-126627239D01*
X188584307Y-126572860D01*
X188584303Y-126572858D01*
X188419097Y-126484554D01*
X188274288Y-126365712D01*
X188155446Y-126220903D01*
X188067142Y-126055696D01*
X188067141Y-126055693D01*
X188067140Y-126055692D01*
X188012761Y-125876428D01*
X188012761Y-125876427D01*
X188012760Y-125876424D01*
X187999000Y-125736717D01*
X187999000Y-124643282D01*
X188012760Y-124503570D01*
X188067140Y-124324308D01*
X188155447Y-124159097D01*
X188274289Y-124014288D01*
X188419098Y-123895446D01*
X188584304Y-123807142D01*
X188584305Y-123807142D01*
X188584308Y-123807140D01*
X188763572Y-123752761D01*
X188763573Y-123752761D01*
X188763576Y-123752760D01*
X188950000Y-123734399D01*
X189136425Y-123752760D01*
X189136425Y-123752760D01*
G37*
G36*
X194636425Y-123752760D02*
G01*
X194636428Y-123752761D01*
X194636429Y-123752761D01*
X194815693Y-123807140D01*
X194815696Y-123807142D01*
X194815697Y-123807142D01*
X194980903Y-123895446D01*
X195125712Y-124014288D01*
X195244554Y-124159097D01*
X195332858Y-124324303D01*
X195332860Y-124324307D01*
X195387239Y-124503571D01*
X195387240Y-124503575D01*
X195401000Y-124643282D01*
X195401000Y-125736718D01*
X195387240Y-125876425D01*
X195387239Y-125876428D01*
X195387239Y-125876429D01*
X195332860Y-126055693D01*
X195332858Y-126055696D01*
X195332858Y-126055697D01*
X195244554Y-126220903D01*
X195125712Y-126365712D01*
X194980903Y-126484554D01*
X194815696Y-126572858D01*
X194815692Y-126572860D01*
X194636428Y-126627239D01*
X194636427Y-126627239D01*
X194636424Y-126627240D01*
X194450000Y-126645601D01*
X194263575Y-126627240D01*
X194263572Y-126627239D01*
X194263571Y-126627239D01*
X194084307Y-126572860D01*
X194084303Y-126572858D01*
X193919097Y-126484554D01*
X193774288Y-126365712D01*
X193655446Y-126220903D01*
X193567142Y-126055696D01*
X193567141Y-126055693D01*
X193567140Y-126055692D01*
X193512761Y-125876428D01*
X193512761Y-125876427D01*
X193512760Y-125876424D01*
X193499000Y-125736717D01*
X193499000Y-124643282D01*
X193512760Y-124503570D01*
X193567140Y-124324308D01*
X193655447Y-124159097D01*
X193774289Y-124014288D01*
X193919098Y-123895446D01*
X194084304Y-123807142D01*
X194084305Y-123807142D01*
X194084308Y-123807140D01*
X194263572Y-123752761D01*
X194263573Y-123752761D01*
X194263576Y-123752760D01*
X194450000Y-123734399D01*
X194636425Y-123752760D01*
X194636425Y-123752760D01*
G37*
G36*
X181847442Y-124137018D02*
G01*
X181913627Y-124143537D01*
X182083466Y-124195057D01*
X182239991Y-124278722D01*
X182275729Y-124308052D01*
X182377186Y-124391314D01*
X182453704Y-124484553D01*
X182489778Y-124528509D01*
X182573443Y-124685034D01*
X182624963Y-124854873D01*
X182642359Y-125031500D01*
X182624963Y-125208127D01*
X182573443Y-125377966D01*
X182489778Y-125534491D01*
X182460448Y-125570229D01*
X182377186Y-125671686D01*
X182297944Y-125736717D01*
X182239991Y-125784278D01*
X182083466Y-125867943D01*
X181913627Y-125919463D01*
X181847442Y-125925982D01*
X181781260Y-125932500D01*
X181692740Y-125932500D01*
X181626558Y-125925982D01*
X181560373Y-125919463D01*
X181390534Y-125867943D01*
X181234009Y-125784278D01*
X181176056Y-125736717D01*
X181096814Y-125671686D01*
X181013552Y-125570229D01*
X180984222Y-125534491D01*
X180900557Y-125377966D01*
X180849037Y-125208127D01*
X180831641Y-125031500D01*
X180849037Y-124854873D01*
X180900557Y-124685034D01*
X180984222Y-124528509D01*
X181020296Y-124484553D01*
X181096814Y-124391314D01*
X181198271Y-124308052D01*
X181234009Y-124278722D01*
X181390534Y-124195057D01*
X181560373Y-124143537D01*
X181626558Y-124137018D01*
X181692740Y-124130500D01*
X181781260Y-124130500D01*
X181847442Y-124137018D01*
X181847442Y-124137018D01*
G37*
G36*
X177177000Y-125869000D02*
G01*
X175375000Y-125869000D01*
X175375000Y-124067000D01*
X177177000Y-124067000D01*
X177177000Y-125869000D01*
X177177000Y-125869000D01*
G37*
G36*
X197036425Y-121752760D02*
G01*
X197036428Y-121752761D01*
X197036429Y-121752761D01*
X197215693Y-121807140D01*
X197215696Y-121807142D01*
X197215697Y-121807142D01*
X197380903Y-121895446D01*
X197525712Y-122014288D01*
X197644554Y-122159097D01*
X197732858Y-122324303D01*
X197732860Y-122324307D01*
X197787239Y-122503571D01*
X197787240Y-122503575D01*
X197801000Y-122643282D01*
X197801000Y-123736718D01*
X197787240Y-123876425D01*
X197787239Y-123876428D01*
X197787239Y-123876429D01*
X197732860Y-124055693D01*
X197732858Y-124055696D01*
X197732858Y-124055697D01*
X197644554Y-124220903D01*
X197525712Y-124365712D01*
X197380903Y-124484554D01*
X197215696Y-124572858D01*
X197215692Y-124572860D01*
X197036428Y-124627239D01*
X197036427Y-124627239D01*
X197036424Y-124627240D01*
X196850000Y-124645601D01*
X196663575Y-124627240D01*
X196663572Y-124627239D01*
X196663571Y-124627239D01*
X196484307Y-124572860D01*
X196484303Y-124572858D01*
X196319097Y-124484554D01*
X196174288Y-124365712D01*
X196055446Y-124220903D01*
X195967142Y-124055696D01*
X195967141Y-124055693D01*
X195967140Y-124055692D01*
X195912761Y-123876428D01*
X195912761Y-123876427D01*
X195912760Y-123876424D01*
X195899000Y-123736717D01*
X195899000Y-122643282D01*
X195912760Y-122503570D01*
X195967140Y-122324308D01*
X196055447Y-122159097D01*
X196174289Y-122014288D01*
X196319098Y-121895446D01*
X196484304Y-121807142D01*
X196484305Y-121807142D01*
X196484308Y-121807140D01*
X196663572Y-121752761D01*
X196663573Y-121752761D01*
X196663576Y-121752760D01*
X196850000Y-121734399D01*
X197036425Y-121752760D01*
X197036425Y-121752760D01*
G37*
G36*
X181847442Y-121597018D02*
G01*
X181913627Y-121603537D01*
X182083466Y-121655057D01*
X182239991Y-121738722D01*
X182257096Y-121752760D01*
X182377186Y-121851314D01*
X182460448Y-121952771D01*
X182489778Y-121988509D01*
X182573443Y-122145034D01*
X182624963Y-122314873D01*
X182642359Y-122491500D01*
X182624963Y-122668127D01*
X182573443Y-122837966D01*
X182489778Y-122994491D01*
X182460448Y-123030229D01*
X182377186Y-123131686D01*
X182275729Y-123214948D01*
X182239991Y-123244278D01*
X182083466Y-123327943D01*
X181913627Y-123379463D01*
X181847443Y-123385981D01*
X181781260Y-123392500D01*
X181692740Y-123392500D01*
X181626557Y-123385981D01*
X181560373Y-123379463D01*
X181390534Y-123327943D01*
X181234009Y-123244278D01*
X181198271Y-123214948D01*
X181096814Y-123131686D01*
X181013552Y-123030229D01*
X180984222Y-122994491D01*
X180900557Y-122837966D01*
X180849037Y-122668127D01*
X180831641Y-122491500D01*
X180849037Y-122314873D01*
X180900557Y-122145034D01*
X180984222Y-121988509D01*
X181013552Y-121952771D01*
X181096814Y-121851314D01*
X181216904Y-121752760D01*
X181234009Y-121738722D01*
X181390534Y-121655057D01*
X181560373Y-121603537D01*
X181626558Y-121597018D01*
X181692740Y-121590500D01*
X181781260Y-121590500D01*
X181847442Y-121597018D01*
X181847442Y-121597018D01*
G37*
G36*
X176386443Y-121533519D02*
G01*
X176452627Y-121540037D01*
X176622466Y-121591557D01*
X176778991Y-121675222D01*
X176814729Y-121704552D01*
X176916186Y-121787814D01*
X176999448Y-121889271D01*
X177028778Y-121925009D01*
X177112443Y-122081534D01*
X177163963Y-122251373D01*
X177181359Y-122428000D01*
X177163963Y-122604627D01*
X177112443Y-122774466D01*
X177028778Y-122930991D01*
X176999448Y-122966729D01*
X176916186Y-123068186D01*
X176814729Y-123151448D01*
X176778991Y-123180778D01*
X176622466Y-123264443D01*
X176452627Y-123315963D01*
X176386442Y-123322482D01*
X176320260Y-123329000D01*
X176231740Y-123329000D01*
X176165558Y-123322482D01*
X176099373Y-123315963D01*
X175929534Y-123264443D01*
X175773009Y-123180778D01*
X175737271Y-123151448D01*
X175635814Y-123068186D01*
X175552552Y-122966729D01*
X175523222Y-122930991D01*
X175439557Y-122774466D01*
X175388037Y-122604627D01*
X175370641Y-122428000D01*
X175388037Y-122251373D01*
X175439557Y-122081534D01*
X175523222Y-121925009D01*
X175552552Y-121889271D01*
X175635814Y-121787814D01*
X175737271Y-121704552D01*
X175773009Y-121675222D01*
X175929534Y-121591557D01*
X176099373Y-121540037D01*
X176165557Y-121533519D01*
X176231740Y-121527000D01*
X176320260Y-121527000D01*
X176386443Y-121533519D01*
X176386443Y-121533519D01*
G37*
G36*
X182638000Y-120852500D02*
G01*
X180836000Y-120852500D01*
X180836000Y-119050500D01*
X182638000Y-119050500D01*
X182638000Y-120852500D01*
X182638000Y-120852500D01*
G37*
G36*
X176386442Y-118993518D02*
G01*
X176452627Y-119000037D01*
X176622466Y-119051557D01*
X176778991Y-119135222D01*
X176814729Y-119164552D01*
X176916186Y-119247814D01*
X176999448Y-119349271D01*
X177028778Y-119385009D01*
X177112443Y-119541534D01*
X177163963Y-119711373D01*
X177181359Y-119888000D01*
X177163963Y-120064627D01*
X177112443Y-120234466D01*
X177028778Y-120390991D01*
X176999448Y-120426729D01*
X176916186Y-120528186D01*
X176814729Y-120611448D01*
X176778991Y-120640778D01*
X176622466Y-120724443D01*
X176452627Y-120775963D01*
X176386442Y-120782482D01*
X176320260Y-120789000D01*
X176231740Y-120789000D01*
X176165558Y-120782482D01*
X176099373Y-120775963D01*
X175929534Y-120724443D01*
X175773009Y-120640778D01*
X175737271Y-120611448D01*
X175635814Y-120528186D01*
X175552552Y-120426729D01*
X175523222Y-120390991D01*
X175439557Y-120234466D01*
X175388037Y-120064627D01*
X175370641Y-119888000D01*
X175388037Y-119711373D01*
X175439557Y-119541534D01*
X175523222Y-119385009D01*
X175552552Y-119349271D01*
X175635814Y-119247814D01*
X175737271Y-119164552D01*
X175773009Y-119135222D01*
X175929534Y-119051557D01*
X176099373Y-119000037D01*
X176165558Y-118993518D01*
X176231740Y-118987000D01*
X176320260Y-118987000D01*
X176386442Y-118993518D01*
X176386442Y-118993518D01*
G37*
G36*
X177026394Y-114770934D02*
G01*
X177177624Y-114833576D01*
X177177626Y-114833577D01*
X177313732Y-114924520D01*
X177429480Y-115040268D01*
X177520423Y-115176374D01*
X177520424Y-115176376D01*
X177583066Y-115327606D01*
X177615000Y-115488152D01*
X177615000Y-115651848D01*
X177583066Y-115812394D01*
X177520424Y-115963624D01*
X177520423Y-115963626D01*
X177429480Y-116099732D01*
X177313732Y-116215480D01*
X177177626Y-116306423D01*
X177177625Y-116306424D01*
X177177624Y-116306424D01*
X177026394Y-116369066D01*
X176865848Y-116401000D01*
X176702152Y-116401000D01*
X176541606Y-116369066D01*
X176390376Y-116306424D01*
X176390375Y-116306424D01*
X176390374Y-116306423D01*
X176254268Y-116215480D01*
X176138520Y-116099732D01*
X176047577Y-115963626D01*
X176047576Y-115963624D01*
X175984934Y-115812394D01*
X175953000Y-115651848D01*
X175953000Y-115488152D01*
X175984934Y-115327606D01*
X176047576Y-115176376D01*
X176047577Y-115176374D01*
X176138520Y-115040268D01*
X176254268Y-114924520D01*
X176390374Y-114833577D01*
X176390376Y-114833576D01*
X176541606Y-114770934D01*
X176702152Y-114739000D01*
X176865848Y-114739000D01*
X177026394Y-114770934D01*
X177026394Y-114770934D01*
G37*
G36*
X194806394Y-114770934D02*
G01*
X194957624Y-114833576D01*
X194957626Y-114833577D01*
X195093732Y-114924520D01*
X195209480Y-115040268D01*
X195300423Y-115176374D01*
X195300424Y-115176376D01*
X195363066Y-115327606D01*
X195395000Y-115488152D01*
X195395000Y-115651848D01*
X195363066Y-115812394D01*
X195300424Y-115963624D01*
X195300423Y-115963626D01*
X195209480Y-116099732D01*
X195093732Y-116215480D01*
X194957626Y-116306423D01*
X194957625Y-116306424D01*
X194957624Y-116306424D01*
X194806394Y-116369066D01*
X194645848Y-116401000D01*
X194482152Y-116401000D01*
X194321606Y-116369066D01*
X194170376Y-116306424D01*
X194170375Y-116306424D01*
X194170374Y-116306423D01*
X194034268Y-116215480D01*
X193918520Y-116099732D01*
X193827577Y-115963626D01*
X193827576Y-115963624D01*
X193764934Y-115812394D01*
X193733000Y-115651848D01*
X193733000Y-115488152D01*
X193764934Y-115327606D01*
X193827576Y-115176376D01*
X193827577Y-115176374D01*
X193918520Y-115040268D01*
X194034268Y-114924520D01*
X194170374Y-114833577D01*
X194170376Y-114833576D01*
X194321606Y-114770934D01*
X194482152Y-114739000D01*
X194645848Y-114739000D01*
X194806394Y-114770934D01*
X194806394Y-114770934D01*
G37*
G36*
X192266394Y-114770934D02*
G01*
X192417624Y-114833576D01*
X192417626Y-114833577D01*
X192553732Y-114924520D01*
X192669480Y-115040268D01*
X192760423Y-115176374D01*
X192760424Y-115176376D01*
X192823066Y-115327606D01*
X192855000Y-115488152D01*
X192855000Y-115651848D01*
X192823066Y-115812394D01*
X192760424Y-115963624D01*
X192760423Y-115963626D01*
X192669480Y-116099732D01*
X192553732Y-116215480D01*
X192417626Y-116306423D01*
X192417625Y-116306424D01*
X192417624Y-116306424D01*
X192266394Y-116369066D01*
X192105848Y-116401000D01*
X191942152Y-116401000D01*
X191781606Y-116369066D01*
X191630376Y-116306424D01*
X191630375Y-116306424D01*
X191630374Y-116306423D01*
X191494268Y-116215480D01*
X191378520Y-116099732D01*
X191287577Y-115963626D01*
X191287576Y-115963624D01*
X191224934Y-115812394D01*
X191193000Y-115651848D01*
X191193000Y-115488152D01*
X191224934Y-115327606D01*
X191287576Y-115176376D01*
X191287577Y-115176374D01*
X191378520Y-115040268D01*
X191494268Y-114924520D01*
X191630374Y-114833577D01*
X191630376Y-114833576D01*
X191781606Y-114770934D01*
X191942152Y-114739000D01*
X192105848Y-114739000D01*
X192266394Y-114770934D01*
X192266394Y-114770934D01*
G37*
G36*
X189726394Y-114770934D02*
G01*
X189877624Y-114833576D01*
X189877626Y-114833577D01*
X190013732Y-114924520D01*
X190129480Y-115040268D01*
X190220423Y-115176374D01*
X190220424Y-115176376D01*
X190283066Y-115327606D01*
X190315000Y-115488152D01*
X190315000Y-115651848D01*
X190283066Y-115812394D01*
X190220424Y-115963624D01*
X190220423Y-115963626D01*
X190129480Y-116099732D01*
X190013732Y-116215480D01*
X189877626Y-116306423D01*
X189877625Y-116306424D01*
X189877624Y-116306424D01*
X189726394Y-116369066D01*
X189565848Y-116401000D01*
X189402152Y-116401000D01*
X189241606Y-116369066D01*
X189090376Y-116306424D01*
X189090375Y-116306424D01*
X189090374Y-116306423D01*
X188954268Y-116215480D01*
X188838520Y-116099732D01*
X188747577Y-115963626D01*
X188747576Y-115963624D01*
X188684934Y-115812394D01*
X188653000Y-115651848D01*
X188653000Y-115488152D01*
X188684934Y-115327606D01*
X188747576Y-115176376D01*
X188747577Y-115176374D01*
X188838520Y-115040268D01*
X188954268Y-114924520D01*
X189090374Y-114833577D01*
X189090376Y-114833576D01*
X189241606Y-114770934D01*
X189402152Y-114739000D01*
X189565848Y-114739000D01*
X189726394Y-114770934D01*
X189726394Y-114770934D01*
G37*
G36*
X187186394Y-114770934D02*
G01*
X187337624Y-114833576D01*
X187337626Y-114833577D01*
X187473732Y-114924520D01*
X187589480Y-115040268D01*
X187680423Y-115176374D01*
X187680424Y-115176376D01*
X187743066Y-115327606D01*
X187775000Y-115488152D01*
X187775000Y-115651848D01*
X187743066Y-115812394D01*
X187680424Y-115963624D01*
X187680423Y-115963626D01*
X187589480Y-116099732D01*
X187473732Y-116215480D01*
X187337626Y-116306423D01*
X187337625Y-116306424D01*
X187337624Y-116306424D01*
X187186394Y-116369066D01*
X187025848Y-116401000D01*
X186862152Y-116401000D01*
X186701606Y-116369066D01*
X186550376Y-116306424D01*
X186550375Y-116306424D01*
X186550374Y-116306423D01*
X186414268Y-116215480D01*
X186298520Y-116099732D01*
X186207577Y-115963626D01*
X186207576Y-115963624D01*
X186144934Y-115812394D01*
X186113000Y-115651848D01*
X186113000Y-115488152D01*
X186144934Y-115327606D01*
X186207576Y-115176376D01*
X186207577Y-115176374D01*
X186298520Y-115040268D01*
X186414268Y-114924520D01*
X186550374Y-114833577D01*
X186550376Y-114833576D01*
X186701606Y-114770934D01*
X186862152Y-114739000D01*
X187025848Y-114739000D01*
X187186394Y-114770934D01*
X187186394Y-114770934D01*
G37*
G36*
X184646394Y-114770934D02*
G01*
X184797624Y-114833576D01*
X184797626Y-114833577D01*
X184933732Y-114924520D01*
X185049480Y-115040268D01*
X185140423Y-115176374D01*
X185140424Y-115176376D01*
X185203066Y-115327606D01*
X185235000Y-115488152D01*
X185235000Y-115651848D01*
X185203066Y-115812394D01*
X185140424Y-115963624D01*
X185140423Y-115963626D01*
X185049480Y-116099732D01*
X184933732Y-116215480D01*
X184797626Y-116306423D01*
X184797625Y-116306424D01*
X184797624Y-116306424D01*
X184646394Y-116369066D01*
X184485848Y-116401000D01*
X184322152Y-116401000D01*
X184161606Y-116369066D01*
X184010376Y-116306424D01*
X184010375Y-116306424D01*
X184010374Y-116306423D01*
X183874268Y-116215480D01*
X183758520Y-116099732D01*
X183667577Y-115963626D01*
X183667576Y-115963624D01*
X183604934Y-115812394D01*
X183573000Y-115651848D01*
X183573000Y-115488152D01*
X183604934Y-115327606D01*
X183667576Y-115176376D01*
X183667577Y-115176374D01*
X183758520Y-115040268D01*
X183874268Y-114924520D01*
X184010374Y-114833577D01*
X184010376Y-114833576D01*
X184161606Y-114770934D01*
X184322152Y-114739000D01*
X184485848Y-114739000D01*
X184646394Y-114770934D01*
X184646394Y-114770934D01*
G37*
G36*
X182106394Y-114770934D02*
G01*
X182257624Y-114833576D01*
X182257626Y-114833577D01*
X182393732Y-114924520D01*
X182509480Y-115040268D01*
X182600423Y-115176374D01*
X182600424Y-115176376D01*
X182663066Y-115327606D01*
X182695000Y-115488152D01*
X182695000Y-115651848D01*
X182663066Y-115812394D01*
X182600424Y-115963624D01*
X182600423Y-115963626D01*
X182509480Y-116099732D01*
X182393732Y-116215480D01*
X182257626Y-116306423D01*
X182257625Y-116306424D01*
X182257624Y-116306424D01*
X182106394Y-116369066D01*
X181945848Y-116401000D01*
X181782152Y-116401000D01*
X181621606Y-116369066D01*
X181470376Y-116306424D01*
X181470375Y-116306424D01*
X181470374Y-116306423D01*
X181334268Y-116215480D01*
X181218520Y-116099732D01*
X181127577Y-115963626D01*
X181127576Y-115963624D01*
X181064934Y-115812394D01*
X181033000Y-115651848D01*
X181033000Y-115488152D01*
X181064934Y-115327606D01*
X181127576Y-115176376D01*
X181127577Y-115176374D01*
X181218520Y-115040268D01*
X181334268Y-114924520D01*
X181470374Y-114833577D01*
X181470376Y-114833576D01*
X181621606Y-114770934D01*
X181782152Y-114739000D01*
X181945848Y-114739000D01*
X182106394Y-114770934D01*
X182106394Y-114770934D01*
G37*
G36*
X179566394Y-114770934D02*
G01*
X179717624Y-114833576D01*
X179717626Y-114833577D01*
X179853732Y-114924520D01*
X179969480Y-115040268D01*
X180060423Y-115176374D01*
X180060424Y-115176376D01*
X180123066Y-115327606D01*
X180155000Y-115488152D01*
X180155000Y-115651848D01*
X180123066Y-115812394D01*
X180060424Y-115963624D01*
X180060423Y-115963626D01*
X179969480Y-116099732D01*
X179853732Y-116215480D01*
X179717626Y-116306423D01*
X179717625Y-116306424D01*
X179717624Y-116306424D01*
X179566394Y-116369066D01*
X179405848Y-116401000D01*
X179242152Y-116401000D01*
X179081606Y-116369066D01*
X178930376Y-116306424D01*
X178930375Y-116306424D01*
X178930374Y-116306423D01*
X178794268Y-116215480D01*
X178678520Y-116099732D01*
X178587577Y-115963626D01*
X178587576Y-115963624D01*
X178524934Y-115812394D01*
X178493000Y-115651848D01*
X178493000Y-115488152D01*
X178524934Y-115327606D01*
X178587576Y-115176376D01*
X178587577Y-115176374D01*
X178678520Y-115040268D01*
X178794268Y-114924520D01*
X178930374Y-114833577D01*
X178930376Y-114833576D01*
X179081606Y-114770934D01*
X179242152Y-114739000D01*
X179405848Y-114739000D01*
X179566394Y-114770934D01*
X179566394Y-114770934D01*
G37*
G36*
X174486394Y-114770934D02*
G01*
X174637624Y-114833576D01*
X174637626Y-114833577D01*
X174773732Y-114924520D01*
X174889480Y-115040268D01*
X174980423Y-115176374D01*
X174980424Y-115176376D01*
X175043066Y-115327606D01*
X175075000Y-115488152D01*
X175075000Y-115651848D01*
X175043066Y-115812394D01*
X174980424Y-115963624D01*
X174980423Y-115963626D01*
X174889480Y-116099732D01*
X174773732Y-116215480D01*
X174637626Y-116306423D01*
X174637625Y-116306424D01*
X174637624Y-116306424D01*
X174486394Y-116369066D01*
X174325848Y-116401000D01*
X174162152Y-116401000D01*
X174001606Y-116369066D01*
X173850376Y-116306424D01*
X173850375Y-116306424D01*
X173850374Y-116306423D01*
X173714268Y-116215480D01*
X173598520Y-116099732D01*
X173507577Y-115963626D01*
X173507576Y-115963624D01*
X173444934Y-115812394D01*
X173413000Y-115651848D01*
X173413000Y-115488152D01*
X173444934Y-115327606D01*
X173507576Y-115176376D01*
X173507577Y-115176374D01*
X173598520Y-115040268D01*
X173714268Y-114924520D01*
X173850374Y-114833577D01*
X173850376Y-114833576D01*
X174001606Y-114770934D01*
X174162152Y-114739000D01*
X174325848Y-114739000D01*
X174486394Y-114770934D01*
X174486394Y-114770934D01*
G37*
G36*
X169406394Y-114770934D02*
G01*
X169557624Y-114833576D01*
X169557626Y-114833577D01*
X169693732Y-114924520D01*
X169809480Y-115040268D01*
X169900423Y-115176374D01*
X169900424Y-115176376D01*
X169963066Y-115327606D01*
X169995000Y-115488152D01*
X169995000Y-115651848D01*
X169963066Y-115812394D01*
X169900424Y-115963624D01*
X169900423Y-115963626D01*
X169809480Y-116099732D01*
X169693732Y-116215480D01*
X169557626Y-116306423D01*
X169557625Y-116306424D01*
X169557624Y-116306424D01*
X169406394Y-116369066D01*
X169245848Y-116401000D01*
X169082152Y-116401000D01*
X168921606Y-116369066D01*
X168770376Y-116306424D01*
X168770375Y-116306424D01*
X168770374Y-116306423D01*
X168634268Y-116215480D01*
X168518520Y-116099732D01*
X168427577Y-115963626D01*
X168427576Y-115963624D01*
X168364934Y-115812394D01*
X168333000Y-115651848D01*
X168333000Y-115488152D01*
X168364934Y-115327606D01*
X168427576Y-115176376D01*
X168427577Y-115176374D01*
X168518520Y-115040268D01*
X168634268Y-114924520D01*
X168770374Y-114833577D01*
X168770376Y-114833576D01*
X168921606Y-114770934D01*
X169082152Y-114739000D01*
X169245848Y-114739000D01*
X169406394Y-114770934D01*
X169406394Y-114770934D01*
G37*
G36*
X152215000Y-116401000D02*
G01*
X150553000Y-116401000D01*
X150553000Y-114739000D01*
X152215000Y-114739000D01*
X152215000Y-116401000D01*
X152215000Y-116401000D01*
G37*
G36*
X166866394Y-114770934D02*
G01*
X167017624Y-114833576D01*
X167017626Y-114833577D01*
X167153732Y-114924520D01*
X167269480Y-115040268D01*
X167360423Y-115176374D01*
X167360424Y-115176376D01*
X167423066Y-115327606D01*
X167455000Y-115488152D01*
X167455000Y-115651848D01*
X167423066Y-115812394D01*
X167360424Y-115963624D01*
X167360423Y-115963626D01*
X167269480Y-116099732D01*
X167153732Y-116215480D01*
X167017626Y-116306423D01*
X167017625Y-116306424D01*
X167017624Y-116306424D01*
X166866394Y-116369066D01*
X166705848Y-116401000D01*
X166542152Y-116401000D01*
X166381606Y-116369066D01*
X166230376Y-116306424D01*
X166230375Y-116306424D01*
X166230374Y-116306423D01*
X166094268Y-116215480D01*
X165978520Y-116099732D01*
X165887577Y-115963626D01*
X165887576Y-115963624D01*
X165824934Y-115812394D01*
X165793000Y-115651848D01*
X165793000Y-115488152D01*
X165824934Y-115327606D01*
X165887576Y-115176376D01*
X165887577Y-115176374D01*
X165978520Y-115040268D01*
X166094268Y-114924520D01*
X166230374Y-114833577D01*
X166230376Y-114833576D01*
X166381606Y-114770934D01*
X166542152Y-114739000D01*
X166705848Y-114739000D01*
X166866394Y-114770934D01*
X166866394Y-114770934D01*
G37*
G36*
X164326394Y-114770934D02*
G01*
X164477624Y-114833576D01*
X164477626Y-114833577D01*
X164613732Y-114924520D01*
X164729480Y-115040268D01*
X164820423Y-115176374D01*
X164820424Y-115176376D01*
X164883066Y-115327606D01*
X164915000Y-115488152D01*
X164915000Y-115651848D01*
X164883066Y-115812394D01*
X164820424Y-115963624D01*
X164820423Y-115963626D01*
X164729480Y-116099732D01*
X164613732Y-116215480D01*
X164477626Y-116306423D01*
X164477625Y-116306424D01*
X164477624Y-116306424D01*
X164326394Y-116369066D01*
X164165848Y-116401000D01*
X164002152Y-116401000D01*
X163841606Y-116369066D01*
X163690376Y-116306424D01*
X163690375Y-116306424D01*
X163690374Y-116306423D01*
X163554268Y-116215480D01*
X163438520Y-116099732D01*
X163347577Y-115963626D01*
X163347576Y-115963624D01*
X163284934Y-115812394D01*
X163253000Y-115651848D01*
X163253000Y-115488152D01*
X163284934Y-115327606D01*
X163347576Y-115176376D01*
X163347577Y-115176374D01*
X163438520Y-115040268D01*
X163554268Y-114924520D01*
X163690374Y-114833577D01*
X163690376Y-114833576D01*
X163841606Y-114770934D01*
X164002152Y-114739000D01*
X164165848Y-114739000D01*
X164326394Y-114770934D01*
X164326394Y-114770934D01*
G37*
G36*
X161786394Y-114770934D02*
G01*
X161937624Y-114833576D01*
X161937626Y-114833577D01*
X162073732Y-114924520D01*
X162189480Y-115040268D01*
X162280423Y-115176374D01*
X162280424Y-115176376D01*
X162343066Y-115327606D01*
X162375000Y-115488152D01*
X162375000Y-115651848D01*
X162343066Y-115812394D01*
X162280424Y-115963624D01*
X162280423Y-115963626D01*
X162189480Y-116099732D01*
X162073732Y-116215480D01*
X161937626Y-116306423D01*
X161937625Y-116306424D01*
X161937624Y-116306424D01*
X161786394Y-116369066D01*
X161625848Y-116401000D01*
X161462152Y-116401000D01*
X161301606Y-116369066D01*
X161150376Y-116306424D01*
X161150375Y-116306424D01*
X161150374Y-116306423D01*
X161014268Y-116215480D01*
X160898520Y-116099732D01*
X160807577Y-115963626D01*
X160807576Y-115963624D01*
X160744934Y-115812394D01*
X160713000Y-115651848D01*
X160713000Y-115488152D01*
X160744934Y-115327606D01*
X160807576Y-115176376D01*
X160807577Y-115176374D01*
X160898520Y-115040268D01*
X161014268Y-114924520D01*
X161150374Y-114833577D01*
X161150376Y-114833576D01*
X161301606Y-114770934D01*
X161462152Y-114739000D01*
X161625848Y-114739000D01*
X161786394Y-114770934D01*
X161786394Y-114770934D01*
G37*
G36*
X159246394Y-114770934D02*
G01*
X159397624Y-114833576D01*
X159397626Y-114833577D01*
X159533732Y-114924520D01*
X159649480Y-115040268D01*
X159740423Y-115176374D01*
X159740424Y-115176376D01*
X159803066Y-115327606D01*
X159835000Y-115488152D01*
X159835000Y-115651848D01*
X159803066Y-115812394D01*
X159740424Y-115963624D01*
X159740423Y-115963626D01*
X159649480Y-116099732D01*
X159533732Y-116215480D01*
X159397626Y-116306423D01*
X159397625Y-116306424D01*
X159397624Y-116306424D01*
X159246394Y-116369066D01*
X159085848Y-116401000D01*
X158922152Y-116401000D01*
X158761606Y-116369066D01*
X158610376Y-116306424D01*
X158610375Y-116306424D01*
X158610374Y-116306423D01*
X158474268Y-116215480D01*
X158358520Y-116099732D01*
X158267577Y-115963626D01*
X158267576Y-115963624D01*
X158204934Y-115812394D01*
X158173000Y-115651848D01*
X158173000Y-115488152D01*
X158204934Y-115327606D01*
X158267576Y-115176376D01*
X158267577Y-115176374D01*
X158358520Y-115040268D01*
X158474268Y-114924520D01*
X158610374Y-114833577D01*
X158610376Y-114833576D01*
X158761606Y-114770934D01*
X158922152Y-114739000D01*
X159085848Y-114739000D01*
X159246394Y-114770934D01*
X159246394Y-114770934D01*
G37*
G36*
X156706394Y-114770934D02*
G01*
X156857624Y-114833576D01*
X156857626Y-114833577D01*
X156993732Y-114924520D01*
X157109480Y-115040268D01*
X157200423Y-115176374D01*
X157200424Y-115176376D01*
X157263066Y-115327606D01*
X157295000Y-115488152D01*
X157295000Y-115651848D01*
X157263066Y-115812394D01*
X157200424Y-115963624D01*
X157200423Y-115963626D01*
X157109480Y-116099732D01*
X156993732Y-116215480D01*
X156857626Y-116306423D01*
X156857625Y-116306424D01*
X156857624Y-116306424D01*
X156706394Y-116369066D01*
X156545848Y-116401000D01*
X156382152Y-116401000D01*
X156221606Y-116369066D01*
X156070376Y-116306424D01*
X156070375Y-116306424D01*
X156070374Y-116306423D01*
X155934268Y-116215480D01*
X155818520Y-116099732D01*
X155727577Y-115963626D01*
X155727576Y-115963624D01*
X155664934Y-115812394D01*
X155633000Y-115651848D01*
X155633000Y-115488152D01*
X155664934Y-115327606D01*
X155727576Y-115176376D01*
X155727577Y-115176374D01*
X155818520Y-115040268D01*
X155934268Y-114924520D01*
X156070374Y-114833577D01*
X156070376Y-114833576D01*
X156221606Y-114770934D01*
X156382152Y-114739000D01*
X156545848Y-114739000D01*
X156706394Y-114770934D01*
X156706394Y-114770934D01*
G37*
G36*
X197346394Y-114770934D02*
G01*
X197497624Y-114833576D01*
X197497626Y-114833577D01*
X197633732Y-114924520D01*
X197749480Y-115040268D01*
X197840423Y-115176374D01*
X197840424Y-115176376D01*
X197903066Y-115327606D01*
X197935000Y-115488152D01*
X197935000Y-115651848D01*
X197903066Y-115812394D01*
X197840424Y-115963624D01*
X197840423Y-115963626D01*
X197749480Y-116099732D01*
X197633732Y-116215480D01*
X197497626Y-116306423D01*
X197497625Y-116306424D01*
X197497624Y-116306424D01*
X197346394Y-116369066D01*
X197185848Y-116401000D01*
X197022152Y-116401000D01*
X196861606Y-116369066D01*
X196710376Y-116306424D01*
X196710375Y-116306424D01*
X196710374Y-116306423D01*
X196574268Y-116215480D01*
X196458520Y-116099732D01*
X196367577Y-115963626D01*
X196367576Y-115963624D01*
X196304934Y-115812394D01*
X196273000Y-115651848D01*
X196273000Y-115488152D01*
X196304934Y-115327606D01*
X196367576Y-115176376D01*
X196367577Y-115176374D01*
X196458520Y-115040268D01*
X196574268Y-114924520D01*
X196710374Y-114833577D01*
X196710376Y-114833576D01*
X196861606Y-114770934D01*
X197022152Y-114739000D01*
X197185848Y-114739000D01*
X197346394Y-114770934D01*
X197346394Y-114770934D01*
G37*
G36*
X154166394Y-114770934D02*
G01*
X154317624Y-114833576D01*
X154317626Y-114833577D01*
X154453732Y-114924520D01*
X154569480Y-115040268D01*
X154660423Y-115176374D01*
X154660424Y-115176376D01*
X154723066Y-115327606D01*
X154755000Y-115488152D01*
X154755000Y-115651848D01*
X154723066Y-115812394D01*
X154660424Y-115963624D01*
X154660423Y-115963626D01*
X154569480Y-116099732D01*
X154453732Y-116215480D01*
X154317626Y-116306423D01*
X154317625Y-116306424D01*
X154317624Y-116306424D01*
X154166394Y-116369066D01*
X154005848Y-116401000D01*
X153842152Y-116401000D01*
X153681606Y-116369066D01*
X153530376Y-116306424D01*
X153530375Y-116306424D01*
X153530374Y-116306423D01*
X153394268Y-116215480D01*
X153278520Y-116099732D01*
X153187577Y-115963626D01*
X153187576Y-115963624D01*
X153124934Y-115812394D01*
X153093000Y-115651848D01*
X153093000Y-115488152D01*
X153124934Y-115327606D01*
X153187576Y-115176376D01*
X153187577Y-115176374D01*
X153278520Y-115040268D01*
X153394268Y-114924520D01*
X153530374Y-114833577D01*
X153530376Y-114833576D01*
X153681606Y-114770934D01*
X153842152Y-114739000D01*
X154005848Y-114739000D01*
X154166394Y-114770934D01*
X154166394Y-114770934D01*
G37*
G36*
X171946394Y-114770934D02*
G01*
X172097624Y-114833576D01*
X172097626Y-114833577D01*
X172233732Y-114924520D01*
X172349480Y-115040268D01*
X172440423Y-115176374D01*
X172440424Y-115176376D01*
X172503066Y-115327606D01*
X172535000Y-115488152D01*
X172535000Y-115651848D01*
X172503066Y-115812394D01*
X172440424Y-115963624D01*
X172440423Y-115963626D01*
X172349480Y-116099732D01*
X172233732Y-116215480D01*
X172097626Y-116306423D01*
X172097625Y-116306424D01*
X172097624Y-116306424D01*
X171946394Y-116369066D01*
X171785848Y-116401000D01*
X171622152Y-116401000D01*
X171461606Y-116369066D01*
X171310376Y-116306424D01*
X171310375Y-116306424D01*
X171310374Y-116306423D01*
X171174268Y-116215480D01*
X171058520Y-116099732D01*
X170967577Y-115963626D01*
X170967576Y-115963624D01*
X170904934Y-115812394D01*
X170873000Y-115651848D01*
X170873000Y-115488152D01*
X170904934Y-115327606D01*
X170967576Y-115176376D01*
X170967577Y-115176374D01*
X171058520Y-115040268D01*
X171174268Y-114924520D01*
X171310374Y-114833577D01*
X171310376Y-114833576D01*
X171461606Y-114770934D01*
X171622152Y-114739000D01*
X171785848Y-114739000D01*
X171946394Y-114770934D01*
X171946394Y-114770934D01*
G37*
G36*
X193518549Y-98312116D02*
G01*
X193629734Y-98334232D01*
X193839203Y-98420997D01*
X194027720Y-98546960D01*
X194188040Y-98707280D01*
X194314003Y-98895797D01*
X194400768Y-99105266D01*
X194445000Y-99327636D01*
X194445000Y-99554364D01*
X194400768Y-99776734D01*
X194314003Y-99986203D01*
X194188040Y-100174720D01*
X194027720Y-100335040D01*
X193839203Y-100461003D01*
X193629734Y-100547768D01*
X193518549Y-100569884D01*
X193407365Y-100592000D01*
X193180635Y-100592000D01*
X193069451Y-100569884D01*
X192958266Y-100547768D01*
X192748797Y-100461003D01*
X192560280Y-100335040D01*
X192399960Y-100174720D01*
X192273997Y-99986203D01*
X192187232Y-99776734D01*
X192143000Y-99554364D01*
X192143000Y-99327636D01*
X192187232Y-99105266D01*
X192273997Y-98895797D01*
X192399960Y-98707280D01*
X192560280Y-98546960D01*
X192748797Y-98420997D01*
X192958266Y-98334232D01*
X193069451Y-98312116D01*
X193180635Y-98290000D01*
X193407365Y-98290000D01*
X193518549Y-98312116D01*
X193518549Y-98312116D01*
G37*
G36*
X195907512Y-97294927D02*
G01*
X196056812Y-97324624D01*
X196220784Y-97392544D01*
X196368354Y-97491147D01*
X196493853Y-97616646D01*
X196592456Y-97764216D01*
X196660376Y-97928188D01*
X196690073Y-98077488D01*
X196695000Y-98102258D01*
X196695000Y-98279742D01*
X196690073Y-98304512D01*
X196660376Y-98453812D01*
X196592456Y-98617784D01*
X196493853Y-98765354D01*
X196368354Y-98890853D01*
X196220784Y-98989456D01*
X196056812Y-99057376D01*
X195907512Y-99087073D01*
X195882742Y-99092000D01*
X195705258Y-99092000D01*
X195680488Y-99087073D01*
X195531188Y-99057376D01*
X195367216Y-98989456D01*
X195219646Y-98890853D01*
X195094147Y-98765354D01*
X194995544Y-98617784D01*
X194927624Y-98453812D01*
X194897927Y-98304512D01*
X194893000Y-98279742D01*
X194893000Y-98102258D01*
X194897927Y-98077488D01*
X194927624Y-97928188D01*
X194995544Y-97764216D01*
X195094147Y-97616646D01*
X195219646Y-97491147D01*
X195367216Y-97392544D01*
X195531188Y-97324624D01*
X195680488Y-97294927D01*
X195705258Y-97290000D01*
X195882742Y-97290000D01*
X195907512Y-97294927D01*
X195907512Y-97294927D01*
G37*
G36*
X195907512Y-92794927D02*
G01*
X196056812Y-92824624D01*
X196220784Y-92892544D01*
X196368354Y-92991147D01*
X196493853Y-93116646D01*
X196592456Y-93264216D01*
X196660376Y-93428188D01*
X196684161Y-93547768D01*
X196692960Y-93592000D01*
X196695000Y-93602259D01*
X196695000Y-93779741D01*
X196660376Y-93953812D01*
X196592456Y-94117784D01*
X196493853Y-94265354D01*
X196368354Y-94390853D01*
X196220784Y-94489456D01*
X196056812Y-94557376D01*
X195907512Y-94587073D01*
X195882742Y-94592000D01*
X195705258Y-94592000D01*
X195680488Y-94587073D01*
X195531188Y-94557376D01*
X195367216Y-94489456D01*
X195219646Y-94390853D01*
X195094147Y-94265354D01*
X194995544Y-94117784D01*
X194927624Y-93953812D01*
X194893000Y-93779741D01*
X194893000Y-93602259D01*
X194895041Y-93592000D01*
X194903839Y-93547768D01*
X194927624Y-93428188D01*
X194995544Y-93264216D01*
X195094147Y-93116646D01*
X195219646Y-92991147D01*
X195367216Y-92892544D01*
X195531188Y-92824624D01*
X195680488Y-92794927D01*
X195705258Y-92790000D01*
X195882742Y-92790000D01*
X195907512Y-92794927D01*
X195907512Y-92794927D01*
G37*
G36*
X193518549Y-91312116D02*
G01*
X193629734Y-91334232D01*
X193839203Y-91420997D01*
X194027720Y-91546960D01*
X194188040Y-91707280D01*
X194314003Y-91895797D01*
X194400768Y-92105266D01*
X194445000Y-92327636D01*
X194445000Y-92554364D01*
X194400768Y-92776734D01*
X194314003Y-92986203D01*
X194188040Y-93174720D01*
X194027720Y-93335040D01*
X193839203Y-93461003D01*
X193629734Y-93547768D01*
X193518549Y-93569884D01*
X193407365Y-93592000D01*
X193180635Y-93592000D01*
X193069451Y-93569884D01*
X192958266Y-93547768D01*
X192748797Y-93461003D01*
X192560280Y-93335040D01*
X192399960Y-93174720D01*
X192273997Y-92986203D01*
X192187232Y-92776734D01*
X192143000Y-92554364D01*
X192143000Y-92327636D01*
X192187232Y-92105266D01*
X192273997Y-91895797D01*
X192399960Y-91707280D01*
X192560280Y-91546960D01*
X192748797Y-91420997D01*
X192958266Y-91334232D01*
X193069451Y-91312116D01*
X193180635Y-91290000D01*
X193407365Y-91290000D01*
X193518549Y-91312116D01*
X193518549Y-91312116D01*
G37*
G36*
X171946394Y-89370934D02*
G01*
X172097624Y-89433576D01*
X172097626Y-89433577D01*
X172233732Y-89524520D01*
X172349480Y-89640268D01*
X172440423Y-89776374D01*
X172440424Y-89776376D01*
X172503066Y-89927606D01*
X172535000Y-90088152D01*
X172535000Y-90251848D01*
X172503066Y-90412394D01*
X172440424Y-90563624D01*
X172440423Y-90563626D01*
X172349480Y-90699732D01*
X172233732Y-90815480D01*
X172097626Y-90906423D01*
X172097625Y-90906424D01*
X172097624Y-90906424D01*
X171946394Y-90969066D01*
X171785848Y-91001000D01*
X171622152Y-91001000D01*
X171461606Y-90969066D01*
X171310376Y-90906424D01*
X171310375Y-90906424D01*
X171310374Y-90906423D01*
X171174268Y-90815480D01*
X171058520Y-90699732D01*
X170967577Y-90563626D01*
X170967576Y-90563624D01*
X170904934Y-90412394D01*
X170873000Y-90251848D01*
X170873000Y-90088152D01*
X170904934Y-89927606D01*
X170967576Y-89776376D01*
X170967577Y-89776374D01*
X171058520Y-89640268D01*
X171174268Y-89524520D01*
X171310374Y-89433577D01*
X171310376Y-89433576D01*
X171461606Y-89370934D01*
X171622152Y-89339000D01*
X171785848Y-89339000D01*
X171946394Y-89370934D01*
X171946394Y-89370934D01*
G37*
G36*
X154166394Y-89370934D02*
G01*
X154317624Y-89433576D01*
X154317626Y-89433577D01*
X154453732Y-89524520D01*
X154569480Y-89640268D01*
X154660423Y-89776374D01*
X154660424Y-89776376D01*
X154723066Y-89927606D01*
X154755000Y-90088152D01*
X154755000Y-90251848D01*
X154723066Y-90412394D01*
X154660424Y-90563624D01*
X154660423Y-90563626D01*
X154569480Y-90699732D01*
X154453732Y-90815480D01*
X154317626Y-90906423D01*
X154317625Y-90906424D01*
X154317624Y-90906424D01*
X154166394Y-90969066D01*
X154005848Y-91001000D01*
X153842152Y-91001000D01*
X153681606Y-90969066D01*
X153530376Y-90906424D01*
X153530375Y-90906424D01*
X153530374Y-90906423D01*
X153394268Y-90815480D01*
X153278520Y-90699732D01*
X153187577Y-90563626D01*
X153187576Y-90563624D01*
X153124934Y-90412394D01*
X153093000Y-90251848D01*
X153093000Y-90088152D01*
X153124934Y-89927606D01*
X153187576Y-89776376D01*
X153187577Y-89776374D01*
X153278520Y-89640268D01*
X153394268Y-89524520D01*
X153530374Y-89433577D01*
X153530376Y-89433576D01*
X153681606Y-89370934D01*
X153842152Y-89339000D01*
X154005848Y-89339000D01*
X154166394Y-89370934D01*
X154166394Y-89370934D01*
G37*
G36*
X169406394Y-89370934D02*
G01*
X169557624Y-89433576D01*
X169557626Y-89433577D01*
X169693732Y-89524520D01*
X169809480Y-89640268D01*
X169900423Y-89776374D01*
X169900424Y-89776376D01*
X169963066Y-89927606D01*
X169995000Y-90088152D01*
X169995000Y-90251848D01*
X169963066Y-90412394D01*
X169900424Y-90563624D01*
X169900423Y-90563626D01*
X169809480Y-90699732D01*
X169693732Y-90815480D01*
X169557626Y-90906423D01*
X169557625Y-90906424D01*
X169557624Y-90906424D01*
X169406394Y-90969066D01*
X169245848Y-91001000D01*
X169082152Y-91001000D01*
X168921606Y-90969066D01*
X168770376Y-90906424D01*
X168770375Y-90906424D01*
X168770374Y-90906423D01*
X168634268Y-90815480D01*
X168518520Y-90699732D01*
X168427577Y-90563626D01*
X168427576Y-90563624D01*
X168364934Y-90412394D01*
X168333000Y-90251848D01*
X168333000Y-90088152D01*
X168364934Y-89927606D01*
X168427576Y-89776376D01*
X168427577Y-89776374D01*
X168518520Y-89640268D01*
X168634268Y-89524520D01*
X168770374Y-89433577D01*
X168770376Y-89433576D01*
X168921606Y-89370934D01*
X169082152Y-89339000D01*
X169245848Y-89339000D01*
X169406394Y-89370934D01*
X169406394Y-89370934D01*
G37*
G36*
X166866394Y-89370934D02*
G01*
X167017624Y-89433576D01*
X167017626Y-89433577D01*
X167153732Y-89524520D01*
X167269480Y-89640268D01*
X167360423Y-89776374D01*
X167360424Y-89776376D01*
X167423066Y-89927606D01*
X167455000Y-90088152D01*
X167455000Y-90251848D01*
X167423066Y-90412394D01*
X167360424Y-90563624D01*
X167360423Y-90563626D01*
X167269480Y-90699732D01*
X167153732Y-90815480D01*
X167017626Y-90906423D01*
X167017625Y-90906424D01*
X167017624Y-90906424D01*
X166866394Y-90969066D01*
X166705848Y-91001000D01*
X166542152Y-91001000D01*
X166381606Y-90969066D01*
X166230376Y-90906424D01*
X166230375Y-90906424D01*
X166230374Y-90906423D01*
X166094268Y-90815480D01*
X165978520Y-90699732D01*
X165887577Y-90563626D01*
X165887576Y-90563624D01*
X165824934Y-90412394D01*
X165793000Y-90251848D01*
X165793000Y-90088152D01*
X165824934Y-89927606D01*
X165887576Y-89776376D01*
X165887577Y-89776374D01*
X165978520Y-89640268D01*
X166094268Y-89524520D01*
X166230374Y-89433577D01*
X166230376Y-89433576D01*
X166381606Y-89370934D01*
X166542152Y-89339000D01*
X166705848Y-89339000D01*
X166866394Y-89370934D01*
X166866394Y-89370934D01*
G37*
G36*
X164326394Y-89370934D02*
G01*
X164477624Y-89433576D01*
X164477626Y-89433577D01*
X164613732Y-89524520D01*
X164729480Y-89640268D01*
X164820423Y-89776374D01*
X164820424Y-89776376D01*
X164883066Y-89927606D01*
X164915000Y-90088152D01*
X164915000Y-90251848D01*
X164883066Y-90412394D01*
X164820424Y-90563624D01*
X164820423Y-90563626D01*
X164729480Y-90699732D01*
X164613732Y-90815480D01*
X164477626Y-90906423D01*
X164477625Y-90906424D01*
X164477624Y-90906424D01*
X164326394Y-90969066D01*
X164165848Y-91001000D01*
X164002152Y-91001000D01*
X163841606Y-90969066D01*
X163690376Y-90906424D01*
X163690375Y-90906424D01*
X163690374Y-90906423D01*
X163554268Y-90815480D01*
X163438520Y-90699732D01*
X163347577Y-90563626D01*
X163347576Y-90563624D01*
X163284934Y-90412394D01*
X163253000Y-90251848D01*
X163253000Y-90088152D01*
X163284934Y-89927606D01*
X163347576Y-89776376D01*
X163347577Y-89776374D01*
X163438520Y-89640268D01*
X163554268Y-89524520D01*
X163690374Y-89433577D01*
X163690376Y-89433576D01*
X163841606Y-89370934D01*
X164002152Y-89339000D01*
X164165848Y-89339000D01*
X164326394Y-89370934D01*
X164326394Y-89370934D01*
G37*
G36*
X161786394Y-89370934D02*
G01*
X161937624Y-89433576D01*
X161937626Y-89433577D01*
X162073732Y-89524520D01*
X162189480Y-89640268D01*
X162280423Y-89776374D01*
X162280424Y-89776376D01*
X162343066Y-89927606D01*
X162375000Y-90088152D01*
X162375000Y-90251848D01*
X162343066Y-90412394D01*
X162280424Y-90563624D01*
X162280423Y-90563626D01*
X162189480Y-90699732D01*
X162073732Y-90815480D01*
X161937626Y-90906423D01*
X161937625Y-90906424D01*
X161937624Y-90906424D01*
X161786394Y-90969066D01*
X161625848Y-91001000D01*
X161462152Y-91001000D01*
X161301606Y-90969066D01*
X161150376Y-90906424D01*
X161150375Y-90906424D01*
X161150374Y-90906423D01*
X161014268Y-90815480D01*
X160898520Y-90699732D01*
X160807577Y-90563626D01*
X160807576Y-90563624D01*
X160744934Y-90412394D01*
X160713000Y-90251848D01*
X160713000Y-90088152D01*
X160744934Y-89927606D01*
X160807576Y-89776376D01*
X160807577Y-89776374D01*
X160898520Y-89640268D01*
X161014268Y-89524520D01*
X161150374Y-89433577D01*
X161150376Y-89433576D01*
X161301606Y-89370934D01*
X161462152Y-89339000D01*
X161625848Y-89339000D01*
X161786394Y-89370934D01*
X161786394Y-89370934D01*
G37*
G36*
X159246394Y-89370934D02*
G01*
X159397624Y-89433576D01*
X159397626Y-89433577D01*
X159533732Y-89524520D01*
X159649480Y-89640268D01*
X159740423Y-89776374D01*
X159740424Y-89776376D01*
X159803066Y-89927606D01*
X159835000Y-90088152D01*
X159835000Y-90251848D01*
X159803066Y-90412394D01*
X159740424Y-90563624D01*
X159740423Y-90563626D01*
X159649480Y-90699732D01*
X159533732Y-90815480D01*
X159397626Y-90906423D01*
X159397625Y-90906424D01*
X159397624Y-90906424D01*
X159246394Y-90969066D01*
X159085848Y-91001000D01*
X158922152Y-91001000D01*
X158761606Y-90969066D01*
X158610376Y-90906424D01*
X158610375Y-90906424D01*
X158610374Y-90906423D01*
X158474268Y-90815480D01*
X158358520Y-90699732D01*
X158267577Y-90563626D01*
X158267576Y-90563624D01*
X158204934Y-90412394D01*
X158173000Y-90251848D01*
X158173000Y-90088152D01*
X158204934Y-89927606D01*
X158267576Y-89776376D01*
X158267577Y-89776374D01*
X158358520Y-89640268D01*
X158474268Y-89524520D01*
X158610374Y-89433577D01*
X158610376Y-89433576D01*
X158761606Y-89370934D01*
X158922152Y-89339000D01*
X159085848Y-89339000D01*
X159246394Y-89370934D01*
X159246394Y-89370934D01*
G37*
G36*
X156706394Y-89370934D02*
G01*
X156857624Y-89433576D01*
X156857626Y-89433577D01*
X156993732Y-89524520D01*
X157109480Y-89640268D01*
X157200423Y-89776374D01*
X157200424Y-89776376D01*
X157263066Y-89927606D01*
X157295000Y-90088152D01*
X157295000Y-90251848D01*
X157263066Y-90412394D01*
X157200424Y-90563624D01*
X157200423Y-90563626D01*
X157109480Y-90699732D01*
X156993732Y-90815480D01*
X156857626Y-90906423D01*
X156857625Y-90906424D01*
X156857624Y-90906424D01*
X156706394Y-90969066D01*
X156545848Y-91001000D01*
X156382152Y-91001000D01*
X156221606Y-90969066D01*
X156070376Y-90906424D01*
X156070375Y-90906424D01*
X156070374Y-90906423D01*
X155934268Y-90815480D01*
X155818520Y-90699732D01*
X155727577Y-90563626D01*
X155727576Y-90563624D01*
X155664934Y-90412394D01*
X155633000Y-90251848D01*
X155633000Y-90088152D01*
X155664934Y-89927606D01*
X155727576Y-89776376D01*
X155727577Y-89776374D01*
X155818520Y-89640268D01*
X155934268Y-89524520D01*
X156070374Y-89433577D01*
X156070376Y-89433576D01*
X156221606Y-89370934D01*
X156382152Y-89339000D01*
X156545848Y-89339000D01*
X156706394Y-89370934D01*
X156706394Y-89370934D01*
G37*
G36*
X151626394Y-89370934D02*
G01*
X151777624Y-89433576D01*
X151777626Y-89433577D01*
X151913732Y-89524520D01*
X152029480Y-89640268D01*
X152120423Y-89776374D01*
X152120424Y-89776376D01*
X152183066Y-89927606D01*
X152215000Y-90088152D01*
X152215000Y-90251848D01*
X152183066Y-90412394D01*
X152120424Y-90563624D01*
X152120423Y-90563626D01*
X152029480Y-90699732D01*
X151913732Y-90815480D01*
X151777626Y-90906423D01*
X151777625Y-90906424D01*
X151777624Y-90906424D01*
X151626394Y-90969066D01*
X151465848Y-91001000D01*
X151302152Y-91001000D01*
X151141606Y-90969066D01*
X150990376Y-90906424D01*
X150990375Y-90906424D01*
X150990374Y-90906423D01*
X150854268Y-90815480D01*
X150738520Y-90699732D01*
X150647577Y-90563626D01*
X150647576Y-90563624D01*
X150584934Y-90412394D01*
X150553000Y-90251848D01*
X150553000Y-90088152D01*
X150584934Y-89927606D01*
X150647576Y-89776376D01*
X150647577Y-89776374D01*
X150738520Y-89640268D01*
X150854268Y-89524520D01*
X150990374Y-89433577D01*
X150990376Y-89433576D01*
X151141606Y-89370934D01*
X151302152Y-89339000D01*
X151465848Y-89339000D01*
X151626394Y-89370934D01*
X151626394Y-89370934D01*
G37*
G36*
X177026394Y-89370934D02*
G01*
X177177624Y-89433576D01*
X177177626Y-89433577D01*
X177313732Y-89524520D01*
X177429480Y-89640268D01*
X177520423Y-89776374D01*
X177520424Y-89776376D01*
X177583066Y-89927606D01*
X177615000Y-90088152D01*
X177615000Y-90251848D01*
X177583066Y-90412394D01*
X177520424Y-90563624D01*
X177520423Y-90563626D01*
X177429480Y-90699732D01*
X177313732Y-90815480D01*
X177177626Y-90906423D01*
X177177625Y-90906424D01*
X177177624Y-90906424D01*
X177026394Y-90969066D01*
X176865848Y-91001000D01*
X176702152Y-91001000D01*
X176541606Y-90969066D01*
X176390376Y-90906424D01*
X176390375Y-90906424D01*
X176390374Y-90906423D01*
X176254268Y-90815480D01*
X176138520Y-90699732D01*
X176047577Y-90563626D01*
X176047576Y-90563624D01*
X175984934Y-90412394D01*
X175953000Y-90251848D01*
X175953000Y-90088152D01*
X175984934Y-89927606D01*
X176047576Y-89776376D01*
X176047577Y-89776374D01*
X176138520Y-89640268D01*
X176254268Y-89524520D01*
X176390374Y-89433577D01*
X176390376Y-89433576D01*
X176541606Y-89370934D01*
X176702152Y-89339000D01*
X176865848Y-89339000D01*
X177026394Y-89370934D01*
X177026394Y-89370934D01*
G37*
G36*
X182106394Y-89370934D02*
G01*
X182257624Y-89433576D01*
X182257626Y-89433577D01*
X182393732Y-89524520D01*
X182509480Y-89640268D01*
X182600423Y-89776374D01*
X182600424Y-89776376D01*
X182663066Y-89927606D01*
X182695000Y-90088152D01*
X182695000Y-90251848D01*
X182663066Y-90412394D01*
X182600424Y-90563624D01*
X182600423Y-90563626D01*
X182509480Y-90699732D01*
X182393732Y-90815480D01*
X182257626Y-90906423D01*
X182257625Y-90906424D01*
X182257624Y-90906424D01*
X182106394Y-90969066D01*
X181945848Y-91001000D01*
X181782152Y-91001000D01*
X181621606Y-90969066D01*
X181470376Y-90906424D01*
X181470375Y-90906424D01*
X181470374Y-90906423D01*
X181334268Y-90815480D01*
X181218520Y-90699732D01*
X181127577Y-90563626D01*
X181127576Y-90563624D01*
X181064934Y-90412394D01*
X181033000Y-90251848D01*
X181033000Y-90088152D01*
X181064934Y-89927606D01*
X181127576Y-89776376D01*
X181127577Y-89776374D01*
X181218520Y-89640268D01*
X181334268Y-89524520D01*
X181470374Y-89433577D01*
X181470376Y-89433576D01*
X181621606Y-89370934D01*
X181782152Y-89339000D01*
X181945848Y-89339000D01*
X182106394Y-89370934D01*
X182106394Y-89370934D01*
G37*
G36*
X184646394Y-89370934D02*
G01*
X184797624Y-89433576D01*
X184797626Y-89433577D01*
X184933732Y-89524520D01*
X185049480Y-89640268D01*
X185140423Y-89776374D01*
X185140424Y-89776376D01*
X185203066Y-89927606D01*
X185235000Y-90088152D01*
X185235000Y-90251848D01*
X185203066Y-90412394D01*
X185140424Y-90563624D01*
X185140423Y-90563626D01*
X185049480Y-90699732D01*
X184933732Y-90815480D01*
X184797626Y-90906423D01*
X184797625Y-90906424D01*
X184797624Y-90906424D01*
X184646394Y-90969066D01*
X184485848Y-91001000D01*
X184322152Y-91001000D01*
X184161606Y-90969066D01*
X184010376Y-90906424D01*
X184010375Y-90906424D01*
X184010374Y-90906423D01*
X183874268Y-90815480D01*
X183758520Y-90699732D01*
X183667577Y-90563626D01*
X183667576Y-90563624D01*
X183604934Y-90412394D01*
X183573000Y-90251848D01*
X183573000Y-90088152D01*
X183604934Y-89927606D01*
X183667576Y-89776376D01*
X183667577Y-89776374D01*
X183758520Y-89640268D01*
X183874268Y-89524520D01*
X184010374Y-89433577D01*
X184010376Y-89433576D01*
X184161606Y-89370934D01*
X184322152Y-89339000D01*
X184485848Y-89339000D01*
X184646394Y-89370934D01*
X184646394Y-89370934D01*
G37*
G36*
X187186394Y-89370934D02*
G01*
X187337624Y-89433576D01*
X187337626Y-89433577D01*
X187473732Y-89524520D01*
X187589480Y-89640268D01*
X187680423Y-89776374D01*
X187680424Y-89776376D01*
X187743066Y-89927606D01*
X187775000Y-90088152D01*
X187775000Y-90251848D01*
X187743066Y-90412394D01*
X187680424Y-90563624D01*
X187680423Y-90563626D01*
X187589480Y-90699732D01*
X187473732Y-90815480D01*
X187337626Y-90906423D01*
X187337625Y-90906424D01*
X187337624Y-90906424D01*
X187186394Y-90969066D01*
X187025848Y-91001000D01*
X186862152Y-91001000D01*
X186701606Y-90969066D01*
X186550376Y-90906424D01*
X186550375Y-90906424D01*
X186550374Y-90906423D01*
X186414268Y-90815480D01*
X186298520Y-90699732D01*
X186207577Y-90563626D01*
X186207576Y-90563624D01*
X186144934Y-90412394D01*
X186113000Y-90251848D01*
X186113000Y-90088152D01*
X186144934Y-89927606D01*
X186207576Y-89776376D01*
X186207577Y-89776374D01*
X186298520Y-89640268D01*
X186414268Y-89524520D01*
X186550374Y-89433577D01*
X186550376Y-89433576D01*
X186701606Y-89370934D01*
X186862152Y-89339000D01*
X187025848Y-89339000D01*
X187186394Y-89370934D01*
X187186394Y-89370934D01*
G37*
G36*
X189726394Y-89370934D02*
G01*
X189877624Y-89433576D01*
X189877626Y-89433577D01*
X190013732Y-89524520D01*
X190129480Y-89640268D01*
X190220423Y-89776374D01*
X190220424Y-89776376D01*
X190283066Y-89927606D01*
X190315000Y-90088152D01*
X190315000Y-90251848D01*
X190283066Y-90412394D01*
X190220424Y-90563624D01*
X190220423Y-90563626D01*
X190129480Y-90699732D01*
X190013732Y-90815480D01*
X189877626Y-90906423D01*
X189877625Y-90906424D01*
X189877624Y-90906424D01*
X189726394Y-90969066D01*
X189565848Y-91001000D01*
X189402152Y-91001000D01*
X189241606Y-90969066D01*
X189090376Y-90906424D01*
X189090375Y-90906424D01*
X189090374Y-90906423D01*
X188954268Y-90815480D01*
X188838520Y-90699732D01*
X188747577Y-90563626D01*
X188747576Y-90563624D01*
X188684934Y-90412394D01*
X188653000Y-90251848D01*
X188653000Y-90088152D01*
X188684934Y-89927606D01*
X188747576Y-89776376D01*
X188747577Y-89776374D01*
X188838520Y-89640268D01*
X188954268Y-89524520D01*
X189090374Y-89433577D01*
X189090376Y-89433576D01*
X189241606Y-89370934D01*
X189402152Y-89339000D01*
X189565848Y-89339000D01*
X189726394Y-89370934D01*
X189726394Y-89370934D01*
G37*
G36*
X192266394Y-89370934D02*
G01*
X192417624Y-89433576D01*
X192417626Y-89433577D01*
X192553732Y-89524520D01*
X192669480Y-89640268D01*
X192760423Y-89776374D01*
X192760424Y-89776376D01*
X192823066Y-89927606D01*
X192855000Y-90088152D01*
X192855000Y-90251848D01*
X192823066Y-90412394D01*
X192760424Y-90563624D01*
X192760423Y-90563626D01*
X192669480Y-90699732D01*
X192553732Y-90815480D01*
X192417626Y-90906423D01*
X192417625Y-90906424D01*
X192417624Y-90906424D01*
X192266394Y-90969066D01*
X192105848Y-91001000D01*
X191942152Y-91001000D01*
X191781606Y-90969066D01*
X191630376Y-90906424D01*
X191630375Y-90906424D01*
X191630374Y-90906423D01*
X191494268Y-90815480D01*
X191378520Y-90699732D01*
X191287577Y-90563626D01*
X191287576Y-90563624D01*
X191224934Y-90412394D01*
X191193000Y-90251848D01*
X191193000Y-90088152D01*
X191224934Y-89927606D01*
X191287576Y-89776376D01*
X191287577Y-89776374D01*
X191378520Y-89640268D01*
X191494268Y-89524520D01*
X191630374Y-89433577D01*
X191630376Y-89433576D01*
X191781606Y-89370934D01*
X191942152Y-89339000D01*
X192105848Y-89339000D01*
X192266394Y-89370934D01*
X192266394Y-89370934D01*
G37*
G36*
X194806394Y-89370934D02*
G01*
X194957624Y-89433576D01*
X194957626Y-89433577D01*
X195093732Y-89524520D01*
X195209480Y-89640268D01*
X195300423Y-89776374D01*
X195300424Y-89776376D01*
X195363066Y-89927606D01*
X195395000Y-90088152D01*
X195395000Y-90251848D01*
X195363066Y-90412394D01*
X195300424Y-90563624D01*
X195300423Y-90563626D01*
X195209480Y-90699732D01*
X195093732Y-90815480D01*
X194957626Y-90906423D01*
X194957625Y-90906424D01*
X194957624Y-90906424D01*
X194806394Y-90969066D01*
X194645848Y-91001000D01*
X194482152Y-91001000D01*
X194321606Y-90969066D01*
X194170376Y-90906424D01*
X194170375Y-90906424D01*
X194170374Y-90906423D01*
X194034268Y-90815480D01*
X193918520Y-90699732D01*
X193827577Y-90563626D01*
X193827576Y-90563624D01*
X193764934Y-90412394D01*
X193733000Y-90251848D01*
X193733000Y-90088152D01*
X193764934Y-89927606D01*
X193827576Y-89776376D01*
X193827577Y-89776374D01*
X193918520Y-89640268D01*
X194034268Y-89524520D01*
X194170374Y-89433577D01*
X194170376Y-89433576D01*
X194321606Y-89370934D01*
X194482152Y-89339000D01*
X194645848Y-89339000D01*
X194806394Y-89370934D01*
X194806394Y-89370934D01*
G37*
G36*
X197346394Y-89370934D02*
G01*
X197497624Y-89433576D01*
X197497626Y-89433577D01*
X197633732Y-89524520D01*
X197749480Y-89640268D01*
X197840423Y-89776374D01*
X197840424Y-89776376D01*
X197903066Y-89927606D01*
X197935000Y-90088152D01*
X197935000Y-90251848D01*
X197903066Y-90412394D01*
X197840424Y-90563624D01*
X197840423Y-90563626D01*
X197749480Y-90699732D01*
X197633732Y-90815480D01*
X197497626Y-90906423D01*
X197497625Y-90906424D01*
X197497624Y-90906424D01*
X197346394Y-90969066D01*
X197185848Y-91001000D01*
X197022152Y-91001000D01*
X196861606Y-90969066D01*
X196710376Y-90906424D01*
X196710375Y-90906424D01*
X196710374Y-90906423D01*
X196574268Y-90815480D01*
X196458520Y-90699732D01*
X196367577Y-90563626D01*
X196367576Y-90563624D01*
X196304934Y-90412394D01*
X196273000Y-90251848D01*
X196273000Y-90088152D01*
X196304934Y-89927606D01*
X196367576Y-89776376D01*
X196367577Y-89776374D01*
X196458520Y-89640268D01*
X196574268Y-89524520D01*
X196710374Y-89433577D01*
X196710376Y-89433576D01*
X196861606Y-89370934D01*
X197022152Y-89339000D01*
X197185848Y-89339000D01*
X197346394Y-89370934D01*
X197346394Y-89370934D01*
G37*
G36*
X179566394Y-89370934D02*
G01*
X179717624Y-89433576D01*
X179717626Y-89433577D01*
X179853732Y-89524520D01*
X179969480Y-89640268D01*
X180060423Y-89776374D01*
X180060424Y-89776376D01*
X180123066Y-89927606D01*
X180155000Y-90088152D01*
X180155000Y-90251848D01*
X180123066Y-90412394D01*
X180060424Y-90563624D01*
X180060423Y-90563626D01*
X179969480Y-90699732D01*
X179853732Y-90815480D01*
X179717626Y-90906423D01*
X179717625Y-90906424D01*
X179717624Y-90906424D01*
X179566394Y-90969066D01*
X179405848Y-91001000D01*
X179242152Y-91001000D01*
X179081606Y-90969066D01*
X178930376Y-90906424D01*
X178930375Y-90906424D01*
X178930374Y-90906423D01*
X178794268Y-90815480D01*
X178678520Y-90699732D01*
X178587577Y-90563626D01*
X178587576Y-90563624D01*
X178524934Y-90412394D01*
X178493000Y-90251848D01*
X178493000Y-90088152D01*
X178524934Y-89927606D01*
X178587576Y-89776376D01*
X178587577Y-89776374D01*
X178678520Y-89640268D01*
X178794268Y-89524520D01*
X178930374Y-89433577D01*
X178930376Y-89433576D01*
X179081606Y-89370934D01*
X179242152Y-89339000D01*
X179405848Y-89339000D01*
X179566394Y-89370934D01*
X179566394Y-89370934D01*
G37*
G36*
X174486394Y-89370934D02*
G01*
X174637624Y-89433576D01*
X174637626Y-89433577D01*
X174773732Y-89524520D01*
X174889480Y-89640268D01*
X174980423Y-89776374D01*
X174980424Y-89776376D01*
X175043066Y-89927606D01*
X175075000Y-90088152D01*
X175075000Y-90251848D01*
X175043066Y-90412394D01*
X174980424Y-90563624D01*
X174980423Y-90563626D01*
X174889480Y-90699732D01*
X174773732Y-90815480D01*
X174637626Y-90906423D01*
X174637625Y-90906424D01*
X174637624Y-90906424D01*
X174486394Y-90969066D01*
X174325848Y-91001000D01*
X174162152Y-91001000D01*
X174001606Y-90969066D01*
X173850376Y-90906424D01*
X173850375Y-90906424D01*
X173850374Y-90906423D01*
X173714268Y-90815480D01*
X173598520Y-90699732D01*
X173507577Y-90563626D01*
X173507576Y-90563624D01*
X173444934Y-90412394D01*
X173413000Y-90251848D01*
X173413000Y-90088152D01*
X173444934Y-89927606D01*
X173507576Y-89776376D01*
X173507577Y-89776374D01*
X173598520Y-89640268D01*
X173714268Y-89524520D01*
X173850374Y-89433577D01*
X173850376Y-89433576D01*
X174001606Y-89370934D01*
X174162152Y-89339000D01*
X174325848Y-89339000D01*
X174486394Y-89370934D01*
X174486394Y-89370934D01*
G37*
G36*
X183244443Y-85846519D02*
G01*
X183310627Y-85853037D01*
X183480466Y-85904557D01*
X183636991Y-85988222D01*
X183672729Y-86017552D01*
X183774186Y-86100814D01*
X183857448Y-86202271D01*
X183886778Y-86238009D01*
X183970443Y-86394534D01*
X184021963Y-86564373D01*
X184039359Y-86741000D01*
X184021963Y-86917627D01*
X183970443Y-87087466D01*
X183886778Y-87243991D01*
X183857448Y-87279729D01*
X183774186Y-87381186D01*
X183672729Y-87464448D01*
X183636991Y-87493778D01*
X183480466Y-87577443D01*
X183310627Y-87628963D01*
X183244442Y-87635482D01*
X183178260Y-87642000D01*
X183089740Y-87642000D01*
X183023558Y-87635482D01*
X182957373Y-87628963D01*
X182787534Y-87577443D01*
X182631009Y-87493778D01*
X182595271Y-87464448D01*
X182493814Y-87381186D01*
X182410552Y-87279729D01*
X182381222Y-87243991D01*
X182297557Y-87087466D01*
X182246037Y-86917627D01*
X182228641Y-86741000D01*
X182246037Y-86564373D01*
X182297557Y-86394534D01*
X182381222Y-86238009D01*
X182410552Y-86202271D01*
X182493814Y-86100814D01*
X182595271Y-86017552D01*
X182631009Y-85988222D01*
X182787534Y-85904557D01*
X182957373Y-85853037D01*
X183023557Y-85846519D01*
X183089740Y-85840000D01*
X183178260Y-85840000D01*
X183244443Y-85846519D01*
X183244443Y-85846519D01*
G37*
G36*
X181495000Y-87642000D02*
G01*
X179693000Y-87642000D01*
X179693000Y-85840000D01*
X181495000Y-85840000D01*
X181495000Y-87642000D01*
X181495000Y-87642000D01*
G37*
G36*
X154034443Y-85211519D02*
G01*
X154100627Y-85218037D01*
X154270466Y-85269557D01*
X154426991Y-85353222D01*
X154462729Y-85382552D01*
X154564186Y-85465814D01*
X154647448Y-85567271D01*
X154676778Y-85603009D01*
X154760443Y-85759534D01*
X154811963Y-85929373D01*
X154829359Y-86106000D01*
X154811963Y-86282627D01*
X154760443Y-86452466D01*
X154676778Y-86608991D01*
X154647448Y-86644729D01*
X154564186Y-86746186D01*
X154462729Y-86829448D01*
X154426991Y-86858778D01*
X154270466Y-86942443D01*
X154100627Y-86993963D01*
X154034442Y-87000482D01*
X153968260Y-87007000D01*
X153879740Y-87007000D01*
X153813558Y-87000482D01*
X153747373Y-86993963D01*
X153577534Y-86942443D01*
X153421009Y-86858778D01*
X153385271Y-86829448D01*
X153283814Y-86746186D01*
X153200552Y-86644729D01*
X153171222Y-86608991D01*
X153087557Y-86452466D01*
X153036037Y-86282627D01*
X153018641Y-86106000D01*
X153036037Y-85929373D01*
X153087557Y-85759534D01*
X153171222Y-85603009D01*
X153200552Y-85567271D01*
X153283814Y-85465814D01*
X153385271Y-85382552D01*
X153421009Y-85353222D01*
X153577534Y-85269557D01*
X153747373Y-85218037D01*
X153813557Y-85211519D01*
X153879740Y-85205000D01*
X153968260Y-85205000D01*
X154034443Y-85211519D01*
X154034443Y-85211519D01*
G37*
G36*
X159114443Y-85211519D02*
G01*
X159180627Y-85218037D01*
X159350466Y-85269557D01*
X159506991Y-85353222D01*
X159542729Y-85382552D01*
X159644186Y-85465814D01*
X159727448Y-85567271D01*
X159756778Y-85603009D01*
X159840443Y-85759534D01*
X159891963Y-85929373D01*
X159909359Y-86106000D01*
X159891963Y-86282627D01*
X159840443Y-86452466D01*
X159756778Y-86608991D01*
X159727448Y-86644729D01*
X159644186Y-86746186D01*
X159542729Y-86829448D01*
X159506991Y-86858778D01*
X159350466Y-86942443D01*
X159180627Y-86993963D01*
X159114442Y-87000482D01*
X159048260Y-87007000D01*
X158959740Y-87007000D01*
X158893558Y-87000482D01*
X158827373Y-86993963D01*
X158657534Y-86942443D01*
X158501009Y-86858778D01*
X158465271Y-86829448D01*
X158363814Y-86746186D01*
X158280552Y-86644729D01*
X158251222Y-86608991D01*
X158167557Y-86452466D01*
X158116037Y-86282627D01*
X158098641Y-86106000D01*
X158116037Y-85929373D01*
X158167557Y-85759534D01*
X158251222Y-85603009D01*
X158280552Y-85567271D01*
X158363814Y-85465814D01*
X158465271Y-85382552D01*
X158501009Y-85353222D01*
X158657534Y-85269557D01*
X158827373Y-85218037D01*
X158893557Y-85211519D01*
X158959740Y-85205000D01*
X159048260Y-85205000D01*
X159114443Y-85211519D01*
X159114443Y-85211519D01*
G37*
G36*
X152285000Y-87007000D02*
G01*
X150483000Y-87007000D01*
X150483000Y-85205000D01*
X152285000Y-85205000D01*
X152285000Y-87007000D01*
X152285000Y-87007000D01*
G37*
G36*
X156574443Y-85211519D02*
G01*
X156640627Y-85218037D01*
X156810466Y-85269557D01*
X156966991Y-85353222D01*
X157002729Y-85382552D01*
X157104186Y-85465814D01*
X157187448Y-85567271D01*
X157216778Y-85603009D01*
X157300443Y-85759534D01*
X157351963Y-85929373D01*
X157369359Y-86106000D01*
X157351963Y-86282627D01*
X157300443Y-86452466D01*
X157216778Y-86608991D01*
X157187448Y-86644729D01*
X157104186Y-86746186D01*
X157002729Y-86829448D01*
X156966991Y-86858778D01*
X156810466Y-86942443D01*
X156640627Y-86993963D01*
X156574442Y-87000482D01*
X156508260Y-87007000D01*
X156419740Y-87007000D01*
X156353558Y-87000482D01*
X156287373Y-86993963D01*
X156117534Y-86942443D01*
X155961009Y-86858778D01*
X155925271Y-86829448D01*
X155823814Y-86746186D01*
X155740552Y-86644729D01*
X155711222Y-86608991D01*
X155627557Y-86452466D01*
X155576037Y-86282627D01*
X155558641Y-86106000D01*
X155576037Y-85929373D01*
X155627557Y-85759534D01*
X155711222Y-85603009D01*
X155740552Y-85567271D01*
X155823814Y-85465814D01*
X155925271Y-85382552D01*
X155961009Y-85353222D01*
X156117534Y-85269557D01*
X156287373Y-85218037D01*
X156353557Y-85211519D01*
X156419740Y-85205000D01*
X156508260Y-85205000D01*
X156574443Y-85211519D01*
X156574443Y-85211519D01*
G37*
G36*
X195955256Y-83481298D02*
G01*
X196061579Y-83502447D01*
X196362042Y-83626903D01*
X196632451Y-83807585D01*
X196862415Y-84037549D01*
X197043097Y-84307958D01*
X197167553Y-84608421D01*
X197231000Y-84927391D01*
X197231000Y-85252609D01*
X197167553Y-85571579D01*
X197043097Y-85872042D01*
X196862415Y-86142451D01*
X196632451Y-86372415D01*
X196362042Y-86553097D01*
X196362041Y-86553098D01*
X196362040Y-86553098D01*
X196334815Y-86564375D01*
X196061579Y-86677553D01*
X195955256Y-86698702D01*
X195742611Y-86741000D01*
X195417389Y-86741000D01*
X195204744Y-86698702D01*
X195098421Y-86677553D01*
X194825185Y-86564375D01*
X194797960Y-86553098D01*
X194797959Y-86553098D01*
X194797958Y-86553097D01*
X194527549Y-86372415D01*
X194297585Y-86142451D01*
X194116903Y-85872042D01*
X193992447Y-85571579D01*
X193929000Y-85252609D01*
X193929000Y-84927391D01*
X193992447Y-84608421D01*
X194116903Y-84307958D01*
X194297585Y-84037549D01*
X194527549Y-83807585D01*
X194797958Y-83626903D01*
X195098421Y-83502447D01*
X195204744Y-83481298D01*
X195417389Y-83439000D01*
X195742611Y-83439000D01*
X195955256Y-83481298D01*
X195955256Y-83481298D01*
G37*
G36*
X190031000Y-84621000D02*
G01*
X188429000Y-84621000D01*
X188429000Y-83019000D01*
X190031000Y-83019000D01*
X190031000Y-84621000D01*
X190031000Y-84621000D01*
G37*
G36*
X186923642Y-81779781D02*
G01*
X187069414Y-81840162D01*
X187069416Y-81840163D01*
X187200608Y-81927822D01*
X187312178Y-82039392D01*
X187319412Y-82050219D01*
X187399838Y-82170586D01*
X187460219Y-82316358D01*
X187491000Y-82471107D01*
X187491000Y-82628893D01*
X187460219Y-82783642D01*
X187399838Y-82929414D01*
X187399837Y-82929416D01*
X187312178Y-83060608D01*
X187200608Y-83172178D01*
X187069416Y-83259837D01*
X187069415Y-83259838D01*
X187069414Y-83259838D01*
X186923642Y-83320219D01*
X186768893Y-83351000D01*
X186611107Y-83351000D01*
X186456358Y-83320219D01*
X186310586Y-83259838D01*
X186310585Y-83259838D01*
X186310584Y-83259837D01*
X186179392Y-83172178D01*
X186067822Y-83060608D01*
X185980163Y-82929416D01*
X185980162Y-82929414D01*
X185919781Y-82783642D01*
X185889000Y-82628893D01*
X185889000Y-82471107D01*
X185919781Y-82316358D01*
X185980162Y-82170586D01*
X186060588Y-82050219D01*
X186067822Y-82039392D01*
X186179392Y-81927822D01*
X186310584Y-81840163D01*
X186310586Y-81840162D01*
X186456358Y-81779781D01*
X186611107Y-81749000D01*
X186768893Y-81749000D01*
X186923642Y-81779781D01*
X186923642Y-81779781D01*
G37*
G36*
X189463642Y-80509781D02*
G01*
X189609414Y-80570162D01*
X189609416Y-80570163D01*
X189740608Y-80657822D01*
X189852178Y-80769392D01*
X189859412Y-80780219D01*
X189939838Y-80900586D01*
X190000219Y-81046358D01*
X190031000Y-81201107D01*
X190031000Y-81358893D01*
X190000219Y-81513642D01*
X189939838Y-81659414D01*
X189939837Y-81659416D01*
X189852178Y-81790608D01*
X189740608Y-81902178D01*
X189609416Y-81989837D01*
X189609415Y-81989838D01*
X189609414Y-81989838D01*
X189463642Y-82050219D01*
X189308893Y-82081000D01*
X189151107Y-82081000D01*
X188996358Y-82050219D01*
X188850586Y-81989838D01*
X188850585Y-81989838D01*
X188850584Y-81989837D01*
X188719392Y-81902178D01*
X188607822Y-81790608D01*
X188520163Y-81659416D01*
X188520162Y-81659414D01*
X188459781Y-81513642D01*
X188429000Y-81358893D01*
X188429000Y-81201107D01*
X188459781Y-81046358D01*
X188520162Y-80900586D01*
X188600588Y-80780219D01*
X188607822Y-80769392D01*
X188719392Y-80657822D01*
X188850584Y-80570163D01*
X188850586Y-80570162D01*
X188996358Y-80509781D01*
X189151107Y-80479000D01*
X189308893Y-80479000D01*
X189463642Y-80509781D01*
X189463642Y-80509781D01*
G37*
G36*
X186923642Y-79239781D02*
G01*
X187069414Y-79300162D01*
X187069416Y-79300163D01*
X187200608Y-79387822D01*
X187312178Y-79499392D01*
X187319412Y-79510219D01*
X187399838Y-79630586D01*
X187460219Y-79776358D01*
X187491000Y-79931107D01*
X187491000Y-80088893D01*
X187460219Y-80243642D01*
X187399838Y-80389414D01*
X187399837Y-80389416D01*
X187312178Y-80520608D01*
X187200608Y-80632178D01*
X187069416Y-80719837D01*
X187069415Y-80719838D01*
X187069414Y-80719838D01*
X186923642Y-80780219D01*
X186768893Y-80811000D01*
X186611107Y-80811000D01*
X186456358Y-80780219D01*
X186310586Y-80719838D01*
X186310585Y-80719838D01*
X186310584Y-80719837D01*
X186179392Y-80632178D01*
X186067822Y-80520608D01*
X185980163Y-80389416D01*
X185980162Y-80389414D01*
X185919781Y-80243642D01*
X185889000Y-80088893D01*
X185889000Y-79931107D01*
X185919781Y-79776358D01*
X185980162Y-79630586D01*
X186060588Y-79510219D01*
X186067822Y-79499392D01*
X186179392Y-79387822D01*
X186310584Y-79300163D01*
X186310586Y-79300162D01*
X186456358Y-79239781D01*
X186611107Y-79209000D01*
X186768893Y-79209000D01*
X186923642Y-79239781D01*
X186923642Y-79239781D01*
G37*
G36*
X189463642Y-77969781D02*
G01*
X189609414Y-78030162D01*
X189609416Y-78030163D01*
X189740608Y-78117822D01*
X189852178Y-78229392D01*
X189859412Y-78240219D01*
X189939838Y-78360586D01*
X190000219Y-78506358D01*
X190031000Y-78661107D01*
X190031000Y-78818893D01*
X190000219Y-78973642D01*
X189939838Y-79119414D01*
X189939837Y-79119416D01*
X189852178Y-79250608D01*
X189740608Y-79362178D01*
X189609416Y-79449837D01*
X189609415Y-79449838D01*
X189609414Y-79449838D01*
X189463642Y-79510219D01*
X189308893Y-79541000D01*
X189151107Y-79541000D01*
X188996358Y-79510219D01*
X188850586Y-79449838D01*
X188850585Y-79449838D01*
X188850584Y-79449837D01*
X188719392Y-79362178D01*
X188607822Y-79250608D01*
X188520163Y-79119416D01*
X188520162Y-79119414D01*
X188459781Y-78973642D01*
X188429000Y-78818893D01*
X188429000Y-78661107D01*
X188459781Y-78506358D01*
X188520162Y-78360586D01*
X188600588Y-78240219D01*
X188607822Y-78229392D01*
X188719392Y-78117822D01*
X188850584Y-78030163D01*
X188850586Y-78030162D01*
X188996358Y-77969781D01*
X189151107Y-77939000D01*
X189308893Y-77939000D01*
X189463642Y-77969781D01*
X189463642Y-77969781D01*
G37*
G36*
X186923642Y-76699781D02*
G01*
X187069414Y-76760162D01*
X187069416Y-76760163D01*
X187200608Y-76847822D01*
X187312178Y-76959392D01*
X187319412Y-76970219D01*
X187399838Y-77090586D01*
X187460219Y-77236358D01*
X187491000Y-77391107D01*
X187491000Y-77548893D01*
X187460219Y-77703642D01*
X187399838Y-77849414D01*
X187399837Y-77849416D01*
X187312178Y-77980608D01*
X187200608Y-78092178D01*
X187069416Y-78179837D01*
X187069415Y-78179838D01*
X187069414Y-78179838D01*
X186923642Y-78240219D01*
X186768893Y-78271000D01*
X186611107Y-78271000D01*
X186456358Y-78240219D01*
X186310586Y-78179838D01*
X186310585Y-78179838D01*
X186310584Y-78179837D01*
X186179392Y-78092178D01*
X186067822Y-77980608D01*
X185980163Y-77849416D01*
X185980162Y-77849414D01*
X185919781Y-77703642D01*
X185889000Y-77548893D01*
X185889000Y-77391107D01*
X185919781Y-77236358D01*
X185980162Y-77090586D01*
X186060588Y-76970219D01*
X186067822Y-76959392D01*
X186179392Y-76847822D01*
X186310584Y-76760163D01*
X186310586Y-76760162D01*
X186456358Y-76699781D01*
X186611107Y-76669000D01*
X186768893Y-76669000D01*
X186923642Y-76699781D01*
X186923642Y-76699781D01*
G37*
G36*
X189463642Y-75429781D02*
G01*
X189609414Y-75490162D01*
X189609416Y-75490163D01*
X189740608Y-75577822D01*
X189852178Y-75689392D01*
X189859412Y-75700219D01*
X189939838Y-75820586D01*
X190000219Y-75966358D01*
X190031000Y-76121107D01*
X190031000Y-76278893D01*
X190000219Y-76433642D01*
X189939838Y-76579414D01*
X189939837Y-76579416D01*
X189852178Y-76710608D01*
X189740608Y-76822178D01*
X189609416Y-76909837D01*
X189609415Y-76909838D01*
X189609414Y-76909838D01*
X189463642Y-76970219D01*
X189308893Y-77001000D01*
X189151107Y-77001000D01*
X188996358Y-76970219D01*
X188850586Y-76909838D01*
X188850585Y-76909838D01*
X188850584Y-76909837D01*
X188719392Y-76822178D01*
X188607822Y-76710608D01*
X188520163Y-76579416D01*
X188520162Y-76579414D01*
X188459781Y-76433642D01*
X188429000Y-76278893D01*
X188429000Y-76121107D01*
X188459781Y-75966358D01*
X188520162Y-75820586D01*
X188600588Y-75700219D01*
X188607822Y-75689392D01*
X188719392Y-75577822D01*
X188850584Y-75490163D01*
X188850586Y-75490162D01*
X188996358Y-75429781D01*
X189151107Y-75399000D01*
X189308893Y-75399000D01*
X189463642Y-75429781D01*
X189463642Y-75429781D01*
G37*
G36*
X186923642Y-74159781D02*
G01*
X187069414Y-74220162D01*
X187069416Y-74220163D01*
X187200608Y-74307822D01*
X187312178Y-74419392D01*
X187327312Y-74442042D01*
X187399838Y-74550586D01*
X187460219Y-74696358D01*
X187491000Y-74851107D01*
X187491000Y-75008893D01*
X187460219Y-75163642D01*
X187399838Y-75309414D01*
X187399837Y-75309416D01*
X187312178Y-75440608D01*
X187200608Y-75552178D01*
X187069416Y-75639837D01*
X187069415Y-75639838D01*
X187069414Y-75639838D01*
X186923642Y-75700219D01*
X186768893Y-75731000D01*
X186611107Y-75731000D01*
X186456358Y-75700219D01*
X186310586Y-75639838D01*
X186310585Y-75639838D01*
X186310584Y-75639837D01*
X186179392Y-75552178D01*
X186067822Y-75440608D01*
X185980163Y-75309416D01*
X185980162Y-75309414D01*
X185919781Y-75163642D01*
X185889000Y-75008893D01*
X185889000Y-74851107D01*
X185919781Y-74696358D01*
X185980162Y-74550586D01*
X186052688Y-74442042D01*
X186067822Y-74419392D01*
X186179392Y-74307822D01*
X186310584Y-74220163D01*
X186310586Y-74220162D01*
X186456358Y-74159781D01*
X186611107Y-74129000D01*
X186768893Y-74129000D01*
X186923642Y-74159781D01*
X186923642Y-74159781D01*
G37*
G36*
X195955256Y-72051298D02*
G01*
X196061579Y-72072447D01*
X196362042Y-72196903D01*
X196632451Y-72377585D01*
X196862415Y-72607549D01*
X197043097Y-72877958D01*
X197167553Y-73178421D01*
X197231000Y-73497391D01*
X197231000Y-73822609D01*
X197167553Y-74141579D01*
X197043097Y-74442042D01*
X196862415Y-74712451D01*
X196632451Y-74942415D01*
X196362042Y-75123097D01*
X196061579Y-75247553D01*
X195955256Y-75268702D01*
X195742611Y-75311000D01*
X195417389Y-75311000D01*
X195204744Y-75268702D01*
X195098421Y-75247553D01*
X194797958Y-75123097D01*
X194527549Y-74942415D01*
X194297585Y-74712451D01*
X194116903Y-74442042D01*
X193992447Y-74141579D01*
X193929000Y-73822609D01*
X193929000Y-73497391D01*
X193992447Y-73178421D01*
X194116903Y-72877958D01*
X194297585Y-72607549D01*
X194527549Y-72377585D01*
X194797958Y-72196903D01*
X195098421Y-72072447D01*
X195204744Y-72051298D01*
X195417389Y-72009000D01*
X195742611Y-72009000D01*
X195955256Y-72051298D01*
X195955256Y-72051298D01*
G37*
G36*
X171800256Y-69441298D02*
G01*
X171906579Y-69462447D01*
X172207042Y-69586903D01*
X172477451Y-69767585D01*
X172707415Y-69997549D01*
X172888097Y-70267958D01*
X173012553Y-70568421D01*
X173076000Y-70887391D01*
X173076000Y-71212609D01*
X173012553Y-71531579D01*
X172888097Y-71832042D01*
X172707415Y-72102451D01*
X172477451Y-72332415D01*
X172207042Y-72513097D01*
X171906579Y-72637553D01*
X171800256Y-72658702D01*
X171587611Y-72701000D01*
X171262389Y-72701000D01*
X171049744Y-72658702D01*
X170943421Y-72637553D01*
X170642958Y-72513097D01*
X170372549Y-72332415D01*
X170142585Y-72102451D01*
X169961903Y-71832042D01*
X169837447Y-71531579D01*
X169774000Y-71212609D01*
X169774000Y-70887391D01*
X169837447Y-70568421D01*
X169961903Y-70267958D01*
X170142585Y-69997549D01*
X170372549Y-69767585D01*
X170642958Y-69586903D01*
X170943421Y-69462447D01*
X171049744Y-69441298D01*
X171262389Y-69399000D01*
X171587611Y-69399000D01*
X171800256Y-69441298D01*
X171800256Y-69441298D01*
G37*
G36*
X131800256Y-69441298D02*
G01*
X131906579Y-69462447D01*
X132207042Y-69586903D01*
X132477451Y-69767585D01*
X132707415Y-69997549D01*
X132888097Y-70267958D01*
X133012553Y-70568421D01*
X133076000Y-70887391D01*
X133076000Y-71212609D01*
X133012553Y-71531579D01*
X132888097Y-71832042D01*
X132707415Y-72102451D01*
X132477451Y-72332415D01*
X132207042Y-72513097D01*
X131906579Y-72637553D01*
X131800256Y-72658702D01*
X131587611Y-72701000D01*
X131262389Y-72701000D01*
X131049744Y-72658702D01*
X130943421Y-72637553D01*
X130642958Y-72513097D01*
X130372549Y-72332415D01*
X130142585Y-72102451D01*
X129961903Y-71832042D01*
X129837447Y-71531579D01*
X129774000Y-71212609D01*
X129774000Y-70887391D01*
X129837447Y-70568421D01*
X129961903Y-70267958D01*
X130142585Y-69997549D01*
X130372549Y-69767585D01*
X130642958Y-69586903D01*
X130943421Y-69462447D01*
X131049744Y-69441298D01*
X131262389Y-69399000D01*
X131587611Y-69399000D01*
X131800256Y-69441298D01*
X131800256Y-69441298D01*
G37*
M02*
