G04 #@! TF.GenerationSoftware,KiCad,Pcbnew,5.1.5+dfsg1-2*
G04 #@! TF.CreationDate,2020-01-25T18:55:07+01:00*
G04 #@! TF.ProjectId,bt-trx-dev-board,62742d74-7278-42d6-9465-762d626f6172,5.0*
G04 #@! TF.SameCoordinates,Original*
G04 #@! TF.FileFunction,Copper,L2,Bot*
G04 #@! TF.FilePolarity,Positive*
%FSLAX46Y46*%
G04 Gerber Fmt 4.6, Leading zero omitted, Abs format (unit mm)*
G04 Created by KiCad (PCBNEW 5.1.5+dfsg1-2) date 2020-01-25 18:55:07*
%MOMM*%
%LPD*%
G04 APERTURE LIST*
%ADD10R,1.700000X1.700000*%
%ADD11O,1.700000X1.700000*%
%ADD12R,1.560000X1.560000*%
%ADD13C,1.560000*%
%ADD14R,1.500000X1.500000*%
%ADD15C,1.500000*%
%ADD16O,1.800000X2.800000*%
%ADD17C,2.200000*%
%ADD18C,1.700000*%
%ADD19C,0.800000*%
%ADD20C,1.000000*%
%ADD21C,0.500000*%
%ADD22C,0.250000*%
%ADD23C,1.000000*%
%ADD24C,0.200000*%
G04 APERTURE END LIST*
D10*
X179070000Y-86360000D03*
D11*
X179070000Y-83820000D03*
X179070000Y-81280000D03*
X179070000Y-78740000D03*
X179070000Y-76200000D03*
X179070000Y-73660000D03*
X179070000Y-71120000D03*
X179070000Y-68580000D03*
D12*
X151384000Y-115570000D03*
D13*
X153924000Y-115570000D03*
X197104000Y-115570000D03*
X156464000Y-115570000D03*
X159004000Y-115570000D03*
X161544000Y-115570000D03*
X164084000Y-115570000D03*
X166624000Y-115570000D03*
X169164000Y-115570000D03*
X171704000Y-115570000D03*
X174244000Y-115570000D03*
X176784000Y-115570000D03*
X179324000Y-115570000D03*
X181864000Y-115570000D03*
X184404000Y-115570000D03*
X186944000Y-115570000D03*
X189484000Y-115570000D03*
X192024000Y-115570000D03*
X194564000Y-115570000D03*
X151384000Y-90170000D03*
X153924000Y-90170000D03*
X156464000Y-90170000D03*
X159004000Y-90170000D03*
X161544000Y-90170000D03*
X164084000Y-90170000D03*
X166624000Y-90170000D03*
X169164000Y-90170000D03*
X171704000Y-90170000D03*
X174244000Y-90170000D03*
X176784000Y-90170000D03*
X179324000Y-90170000D03*
X181864000Y-90170000D03*
X184404000Y-90170000D03*
X186944000Y-90170000D03*
X189484000Y-90170000D03*
X192024000Y-90170000D03*
X194564000Y-90170000D03*
X197104000Y-90170000D03*
D11*
X166370000Y-68580000D03*
X166370000Y-71120000D03*
X166370000Y-73660000D03*
X166370000Y-76200000D03*
X166370000Y-78740000D03*
X166370000Y-81280000D03*
X166370000Y-83820000D03*
D10*
X166370000Y-86360000D03*
X165862000Y-122428000D03*
X150876000Y-76962000D03*
D14*
X189230000Y-83820000D03*
D15*
X186690000Y-82550000D03*
X189230000Y-81280000D03*
X186690000Y-80010000D03*
X189230000Y-78740000D03*
X186690000Y-77470000D03*
X189230000Y-76200000D03*
X186690000Y-74930000D03*
D10*
X181737000Y-119951500D03*
D11*
X181737000Y-122491500D03*
X181737000Y-125031500D03*
D10*
X176276000Y-124968000D03*
D11*
X176276000Y-122428000D03*
X176276000Y-119888000D03*
D10*
X148082000Y-86360000D03*
D11*
X150622000Y-86360000D03*
X153162000Y-86360000D03*
X155702000Y-86360000D03*
D16*
X196850000Y-123190000D03*
X194450000Y-125190000D03*
X188950000Y-125190000D03*
D10*
X159766000Y-86360000D03*
D11*
X162306000Y-86360000D03*
D17*
X193294000Y-99441000D03*
X193294000Y-92441000D03*
D18*
X195794000Y-98191000D03*
X195794000Y-93691000D03*
D10*
X152654000Y-122428000D03*
D11*
X155194000Y-122428000D03*
X157734000Y-122428000D03*
X160274000Y-122428000D03*
D19*
X152908000Y-67818000D03*
X147320000Y-101600000D03*
D20*
X160274000Y-117856000D03*
X163830000Y-108966000D03*
D19*
X121920000Y-83312000D03*
X135890000Y-83312000D03*
X163385500Y-78740000D03*
X151892000Y-131826000D03*
X140970000Y-131826000D03*
X140970000Y-124714000D03*
X151892000Y-124714000D03*
X196850000Y-128016000D03*
X122174000Y-130810000D03*
X121158000Y-92202000D03*
X122682000Y-92202000D03*
X124206000Y-92202000D03*
X125730000Y-92202000D03*
X127254000Y-92202000D03*
X127254000Y-93726000D03*
X127254000Y-95250000D03*
X127254000Y-96774000D03*
X127254000Y-98298000D03*
X127254000Y-99822000D03*
X127254000Y-101346000D03*
X121158000Y-103632000D03*
X122682000Y-103632000D03*
X124206000Y-103632000D03*
X121158000Y-105156000D03*
X121158000Y-90678000D03*
X195580000Y-104140000D03*
X195580000Y-108712000D03*
X195580000Y-113284000D03*
X183896000Y-130302000D03*
X172720000Y-131318000D03*
X162052000Y-131826000D03*
X131572000Y-131572000D03*
X121666000Y-121920000D03*
X121666000Y-109982000D03*
X151130000Y-96520000D03*
X151130000Y-105410000D03*
X164592000Y-105410000D03*
X164338000Y-96520000D03*
X163385500Y-76200000D03*
X174244000Y-83820000D03*
X179578000Y-113284000D03*
X163385500Y-73660000D03*
X127000000Y-83312000D03*
X140970000Y-83312000D03*
D21*
X149098000Y-115570000D02*
X151384000Y-115570000D01*
X147320000Y-101600000D02*
X147320000Y-113792000D01*
X147320000Y-113792000D02*
X149098000Y-115570000D01*
D22*
X151384000Y-118618000D02*
X155194000Y-122428000D01*
X151384000Y-115570000D02*
X151384000Y-118618000D01*
D23*
X197104000Y-116673086D02*
X195921086Y-117856000D01*
X197104000Y-115570000D02*
X197104000Y-116673086D01*
X160274000Y-117856000D02*
X195921086Y-117856000D01*
X167894000Y-106934000D02*
X167894000Y-91440000D01*
X166370000Y-86360000D02*
X167894000Y-87884000D01*
X167894000Y-87884000D02*
X167894000Y-88900000D01*
D21*
X167894000Y-88900000D02*
X167894000Y-91440000D01*
D23*
X163830000Y-108966000D02*
X163830000Y-108966000D01*
X163830000Y-108966000D02*
X165862000Y-108966000D01*
X165862000Y-108966000D02*
X167894000Y-106934000D01*
D22*
X171704000Y-91273086D02*
X176442914Y-96012000D01*
X171704000Y-90170000D02*
X171704000Y-91273086D01*
X193615000Y-96012000D02*
X195794000Y-98191000D01*
X176442914Y-96012000D02*
X193615000Y-96012000D01*
X174244000Y-83820000D02*
X171450000Y-83820000D01*
X171450000Y-83820000D02*
X170434000Y-84836000D01*
X170434000Y-110236000D02*
X173343980Y-113145980D01*
X170434000Y-84836000D02*
X170434000Y-110236000D01*
X173343980Y-113145980D02*
X179439980Y-113145980D01*
X179439980Y-113145980D02*
X179578000Y-113284000D01*
X155194000Y-119888000D02*
X157734000Y-122428000D01*
X177349990Y-113595990D02*
X153866010Y-113595990D01*
X179324000Y-115570000D02*
X177349990Y-113595990D01*
X153866010Y-113595990D02*
X152654000Y-114808000D01*
X152654000Y-114808000D02*
X152654000Y-117348000D01*
X152654000Y-117348000D02*
X155194000Y-119888000D01*
X157734000Y-119888000D02*
X160274000Y-122428000D01*
X175260000Y-114046000D02*
X155702000Y-114046000D01*
X176784000Y-115570000D02*
X175260000Y-114046000D01*
X155702000Y-114046000D02*
X155194000Y-114554000D01*
X155194000Y-114554000D02*
X155194000Y-117348000D01*
X155194000Y-117348000D02*
X157734000Y-119888000D01*
D24*
G36*
X165643228Y-82928753D02*
G01*
X165483319Y-83087664D01*
X165357485Y-83274719D01*
X165270561Y-83482728D01*
X165268480Y-83489617D01*
X165306088Y-83666000D01*
X166216000Y-83666000D01*
X166216000Y-83646000D01*
X166524000Y-83646000D01*
X166524000Y-83666000D01*
X167433912Y-83666000D01*
X167471520Y-83489617D01*
X167469439Y-83482728D01*
X167382515Y-83274719D01*
X167256681Y-83087664D01*
X167096772Y-82928753D01*
X167059474Y-82904000D01*
X176270833Y-82904000D01*
X176482236Y-82960645D01*
X176627355Y-83105764D01*
X176684000Y-83317167D01*
X176684000Y-87892000D01*
X176687407Y-87917882D01*
X176754394Y-88167882D01*
X176761300Y-88186229D01*
X176771652Y-88202876D01*
X176780276Y-88212711D01*
X176963289Y-88395724D01*
X176978443Y-88408160D01*
X176995732Y-88417401D01*
X177008118Y-88421606D01*
X177258118Y-88488593D01*
X177284000Y-88492000D01*
X197861387Y-88492000D01*
X198025001Y-88535809D01*
X198025001Y-89604426D01*
X197942891Y-89481540D01*
X197792460Y-89331109D01*
X197615572Y-89212916D01*
X197419024Y-89131503D01*
X197210371Y-89090000D01*
X196997629Y-89090000D01*
X196788976Y-89131503D01*
X196592428Y-89212916D01*
X196415540Y-89331109D01*
X196265109Y-89481540D01*
X196146916Y-89658428D01*
X196065503Y-89854976D01*
X196024000Y-90063629D01*
X196024000Y-90276371D01*
X196065503Y-90485024D01*
X196146916Y-90681572D01*
X196265109Y-90858460D01*
X196415540Y-91008891D01*
X196592428Y-91127084D01*
X196788976Y-91208497D01*
X196997629Y-91250000D01*
X197210371Y-91250000D01*
X197419024Y-91208497D01*
X197615572Y-91127084D01*
X197792460Y-91008891D01*
X197942891Y-90858460D01*
X198025001Y-90735574D01*
X198025000Y-115004425D01*
X197942891Y-114881540D01*
X197792460Y-114731109D01*
X197615572Y-114612916D01*
X197419024Y-114531503D01*
X197210371Y-114490000D01*
X196997629Y-114490000D01*
X196788976Y-114531503D01*
X196592428Y-114612916D01*
X196415540Y-114731109D01*
X196265109Y-114881540D01*
X196146916Y-115058428D01*
X196065503Y-115254976D01*
X196024000Y-115463629D01*
X196024000Y-115676371D01*
X196065503Y-115885024D01*
X196146916Y-116081572D01*
X196265109Y-116258460D01*
X196304001Y-116297352D01*
X196304001Y-116341715D01*
X195589716Y-117056000D01*
X160195207Y-117056000D01*
X160156465Y-117063706D01*
X160117173Y-117067576D01*
X160079393Y-117079037D01*
X160040649Y-117086743D01*
X160004152Y-117101860D01*
X159966372Y-117113321D01*
X159931554Y-117131932D01*
X159895058Y-117147049D01*
X159862210Y-117168997D01*
X159827394Y-117187607D01*
X159796878Y-117212651D01*
X159764030Y-117234599D01*
X159736098Y-117262531D01*
X159705578Y-117287578D01*
X159680531Y-117318098D01*
X159652599Y-117346030D01*
X159630651Y-117378878D01*
X159605607Y-117409394D01*
X159586997Y-117444210D01*
X159565049Y-117477058D01*
X159549932Y-117513554D01*
X159531321Y-117548372D01*
X159519860Y-117586152D01*
X159504743Y-117622649D01*
X159497037Y-117661393D01*
X159485576Y-117699173D01*
X159481706Y-117738465D01*
X159474000Y-117777207D01*
X159474000Y-117816707D01*
X159470130Y-117856000D01*
X159474000Y-117895293D01*
X159474000Y-117934793D01*
X159481706Y-117973535D01*
X159485576Y-118012827D01*
X159497037Y-118050607D01*
X159504743Y-118089351D01*
X159519860Y-118125848D01*
X159531321Y-118163628D01*
X159549932Y-118198446D01*
X159565049Y-118234942D01*
X159586997Y-118267790D01*
X159605607Y-118302606D01*
X159630651Y-118333122D01*
X159652599Y-118365970D01*
X159680531Y-118393902D01*
X159705578Y-118424422D01*
X159736098Y-118449469D01*
X159764030Y-118477401D01*
X159796878Y-118499349D01*
X159827394Y-118524393D01*
X159862210Y-118543003D01*
X159895058Y-118564951D01*
X159931554Y-118580068D01*
X159966372Y-118598679D01*
X160004152Y-118610140D01*
X160040649Y-118625257D01*
X160079393Y-118632963D01*
X160117173Y-118644424D01*
X160156465Y-118648294D01*
X160195207Y-118656000D01*
X195881795Y-118656000D01*
X195921086Y-118659870D01*
X195960377Y-118656000D01*
X195960379Y-118656000D01*
X196077913Y-118644424D01*
X196228714Y-118598679D01*
X196367692Y-118524393D01*
X196489508Y-118424422D01*
X196514559Y-118393897D01*
X197641902Y-117266555D01*
X197672422Y-117241508D01*
X197749942Y-117147049D01*
X197772393Y-117119693D01*
X197846679Y-116980714D01*
X197892424Y-116829913D01*
X197904000Y-116712379D01*
X197904000Y-116712378D01*
X197907870Y-116673087D01*
X197904000Y-116633796D01*
X197904000Y-116297351D01*
X197942891Y-116258460D01*
X198025000Y-116135575D01*
X198025000Y-122427177D01*
X197996898Y-122304851D01*
X197899722Y-122088503D01*
X197762206Y-121895270D01*
X197589634Y-121732578D01*
X197388638Y-121606679D01*
X197188273Y-121538666D01*
X197004000Y-121575590D01*
X197004000Y-123036000D01*
X197024000Y-123036000D01*
X197024000Y-123344000D01*
X197004000Y-123344000D01*
X197004000Y-124804410D01*
X197188273Y-124841334D01*
X197388638Y-124773321D01*
X197589634Y-124647422D01*
X197762206Y-124484730D01*
X197899722Y-124291497D01*
X197996898Y-124075149D01*
X198025000Y-123952823D01*
X198025000Y-128977967D01*
X191223468Y-129942382D01*
X184058838Y-130805641D01*
X176877674Y-131518668D01*
X169683164Y-132081148D01*
X162478465Y-132492833D01*
X155266079Y-132753567D01*
X150800000Y-132836773D01*
X150800000Y-127362866D01*
X169525000Y-127362866D01*
X169525000Y-127737134D01*
X169598016Y-128104209D01*
X169741242Y-128449987D01*
X169949174Y-128761179D01*
X170213821Y-129025826D01*
X170525013Y-129233758D01*
X170870791Y-129376984D01*
X171237866Y-129450000D01*
X171612134Y-129450000D01*
X171979209Y-129376984D01*
X172324987Y-129233758D01*
X172636179Y-129025826D01*
X172900826Y-128761179D01*
X173108758Y-128449987D01*
X173251984Y-128104209D01*
X173325000Y-127737134D01*
X173325000Y-127362866D01*
X173251984Y-126995791D01*
X173108758Y-126650013D01*
X172900826Y-126338821D01*
X172636179Y-126074174D01*
X172324987Y-125866242D01*
X171979209Y-125723016D01*
X171612134Y-125650000D01*
X171237866Y-125650000D01*
X170870791Y-125723016D01*
X170525013Y-125866242D01*
X170213821Y-126074174D01*
X169949174Y-126338821D01*
X169741242Y-126650013D01*
X169598016Y-126995791D01*
X169525000Y-127362866D01*
X150800000Y-127362866D01*
X150800000Y-125781581D01*
X150799872Y-125780277D01*
X150799601Y-125741532D01*
X150797820Y-125724589D01*
X150797820Y-125707557D01*
X150797273Y-125702350D01*
X150710253Y-124926552D01*
X150703181Y-124893283D01*
X150696584Y-124859966D01*
X150695036Y-124854964D01*
X150461259Y-124118000D01*
X175124549Y-124118000D01*
X175124549Y-125818000D01*
X175130341Y-125876810D01*
X175147496Y-125933360D01*
X175175353Y-125985477D01*
X175212842Y-126031158D01*
X175258523Y-126068647D01*
X175310640Y-126096504D01*
X175367190Y-126113659D01*
X175426000Y-126119451D01*
X177126000Y-126119451D01*
X177184810Y-126113659D01*
X177241360Y-126096504D01*
X177293477Y-126068647D01*
X177339158Y-126031158D01*
X177376647Y-125985477D01*
X177404504Y-125933360D01*
X177421659Y-125876810D01*
X177427451Y-125818000D01*
X177427451Y-124918235D01*
X180587000Y-124918235D01*
X180587000Y-125144765D01*
X180631194Y-125366943D01*
X180717884Y-125576229D01*
X180843737Y-125764582D01*
X181003918Y-125924763D01*
X181192271Y-126050616D01*
X181401557Y-126137306D01*
X181623735Y-126181500D01*
X181850265Y-126181500D01*
X182072443Y-126137306D01*
X182281729Y-126050616D01*
X182470082Y-125924763D01*
X182630263Y-125764582D01*
X182756116Y-125576229D01*
X182842806Y-125366943D01*
X182887000Y-125144765D01*
X182887000Y-124918235D01*
X182842806Y-124696057D01*
X182815879Y-124631050D01*
X187750000Y-124631050D01*
X187750000Y-125748949D01*
X187767363Y-125925240D01*
X187835981Y-126151441D01*
X187947409Y-126359909D01*
X188097366Y-126542634D01*
X188280090Y-126692591D01*
X188488558Y-126804019D01*
X188714759Y-126872637D01*
X188950000Y-126895806D01*
X189185240Y-126872637D01*
X189411441Y-126804019D01*
X189619909Y-126692591D01*
X189802634Y-126542634D01*
X189952591Y-126359910D01*
X190064019Y-126151442D01*
X190132637Y-125925241D01*
X190150000Y-125748950D01*
X190150000Y-124631050D01*
X193250000Y-124631050D01*
X193250000Y-125748949D01*
X193267363Y-125925240D01*
X193335981Y-126151441D01*
X193447409Y-126359909D01*
X193597366Y-126542634D01*
X193780090Y-126692591D01*
X193988558Y-126804019D01*
X194214759Y-126872637D01*
X194450000Y-126895806D01*
X194685240Y-126872637D01*
X194911441Y-126804019D01*
X195119909Y-126692591D01*
X195302634Y-126542634D01*
X195452591Y-126359910D01*
X195564019Y-126151442D01*
X195632637Y-125925241D01*
X195650000Y-125748950D01*
X195650000Y-124631050D01*
X195632637Y-124454759D01*
X195564019Y-124228558D01*
X195452591Y-124020090D01*
X195302634Y-123837366D01*
X195119910Y-123687409D01*
X194911442Y-123575981D01*
X194685241Y-123507363D01*
X194450000Y-123484194D01*
X194214760Y-123507363D01*
X193988559Y-123575981D01*
X193780091Y-123687409D01*
X193597367Y-123837366D01*
X193447410Y-124020090D01*
X193335981Y-124228558D01*
X193267363Y-124454759D01*
X193250000Y-124631050D01*
X190150000Y-124631050D01*
X190132637Y-124454759D01*
X190064019Y-124228558D01*
X189952591Y-124020090D01*
X189802634Y-123837366D01*
X189619910Y-123687409D01*
X189411442Y-123575981D01*
X189185241Y-123507363D01*
X188950000Y-123484194D01*
X188714760Y-123507363D01*
X188488559Y-123575981D01*
X188280091Y-123687409D01*
X188097367Y-123837366D01*
X187947410Y-124020090D01*
X187835981Y-124228558D01*
X187767363Y-124454759D01*
X187750000Y-124631050D01*
X182815879Y-124631050D01*
X182756116Y-124486771D01*
X182630263Y-124298418D01*
X182470082Y-124138237D01*
X182281729Y-124012384D01*
X182072443Y-123925694D01*
X181850265Y-123881500D01*
X181623735Y-123881500D01*
X181401557Y-123925694D01*
X181192271Y-124012384D01*
X181003918Y-124138237D01*
X180843737Y-124298418D01*
X180717884Y-124486771D01*
X180631194Y-124696057D01*
X180587000Y-124918235D01*
X177427451Y-124918235D01*
X177427451Y-124118000D01*
X177421659Y-124059190D01*
X177404504Y-124002640D01*
X177376647Y-123950523D01*
X177339158Y-123904842D01*
X177293477Y-123867353D01*
X177241360Y-123839496D01*
X177184810Y-123822341D01*
X177126000Y-123816549D01*
X175426000Y-123816549D01*
X175367190Y-123822341D01*
X175310640Y-123839496D01*
X175258523Y-123867353D01*
X175212842Y-123904842D01*
X175175353Y-123950523D01*
X175147496Y-124002640D01*
X175130341Y-124059190D01*
X175124549Y-124118000D01*
X150461259Y-124118000D01*
X150458988Y-124110843D01*
X150445576Y-124079551D01*
X150432646Y-124048181D01*
X150430156Y-124043575D01*
X150430156Y-124043574D01*
X150430153Y-124043570D01*
X150054069Y-123359474D01*
X150034847Y-123331402D01*
X150016058Y-123303122D01*
X150012721Y-123299087D01*
X149995027Y-123278000D01*
X151502548Y-123278000D01*
X151508340Y-123336810D01*
X151525495Y-123393361D01*
X151553352Y-123445478D01*
X151590841Y-123491159D01*
X151636522Y-123528648D01*
X151688639Y-123556505D01*
X151745190Y-123573660D01*
X151804000Y-123579452D01*
X152425000Y-123578000D01*
X152500000Y-123503000D01*
X152500000Y-122582000D01*
X152808000Y-122582000D01*
X152808000Y-123503000D01*
X152883000Y-123578000D01*
X153504000Y-123579452D01*
X153562810Y-123573660D01*
X153619361Y-123556505D01*
X153671478Y-123528648D01*
X153717159Y-123491159D01*
X153754648Y-123445478D01*
X153782505Y-123393361D01*
X153799660Y-123336810D01*
X153805452Y-123278000D01*
X153804000Y-122657000D01*
X153729000Y-122582000D01*
X152808000Y-122582000D01*
X152500000Y-122582000D01*
X151579000Y-122582000D01*
X151504000Y-122657000D01*
X151502548Y-123278000D01*
X149995027Y-123278000D01*
X149510920Y-122701064D01*
X149486608Y-122677256D01*
X149462686Y-122653167D01*
X149458629Y-122649857D01*
X148850229Y-122160691D01*
X148821780Y-122142075D01*
X148793612Y-122123075D01*
X148788989Y-122120617D01*
X148097162Y-121758939D01*
X148065640Y-121746203D01*
X148034317Y-121733036D01*
X148029304Y-121731522D01*
X147507683Y-121578000D01*
X151502548Y-121578000D01*
X151504000Y-122199000D01*
X151579000Y-122274000D01*
X152500000Y-122274000D01*
X152500000Y-121353000D01*
X152425000Y-121278000D01*
X151804000Y-121276548D01*
X151745190Y-121282340D01*
X151688639Y-121299495D01*
X151636522Y-121327352D01*
X151590841Y-121364841D01*
X151553352Y-121410522D01*
X151525495Y-121462639D01*
X151508340Y-121519190D01*
X151502548Y-121578000D01*
X147507683Y-121578000D01*
X147280403Y-121511108D01*
X147247001Y-121504737D01*
X147213724Y-121497906D01*
X147208513Y-121497394D01*
X146431062Y-121426640D01*
X146397004Y-121426878D01*
X146363088Y-121426641D01*
X146357877Y-121427151D01*
X145581490Y-121508753D01*
X145548146Y-121515598D01*
X145514810Y-121521957D01*
X145509797Y-121523470D01*
X144764048Y-121754318D01*
X144732709Y-121767492D01*
X144701202Y-121780221D01*
X144696579Y-121782679D01*
X144009869Y-122153982D01*
X143981686Y-122172992D01*
X143953252Y-122191598D01*
X143949194Y-122194907D01*
X143347683Y-122692520D01*
X143323707Y-122716665D01*
X143299450Y-122740418D01*
X143296112Y-122744452D01*
X142802711Y-123349423D01*
X142783892Y-123377747D01*
X142764701Y-123405776D01*
X142762210Y-123410382D01*
X142395711Y-124099666D01*
X142382757Y-124131095D01*
X142369370Y-124162329D01*
X142367821Y-124167331D01*
X142142184Y-124914676D01*
X142135580Y-124948030D01*
X142128516Y-124981262D01*
X142127969Y-124986469D01*
X142051793Y-125763377D01*
X142050000Y-125781582D01*
X142050001Y-132916632D01*
X135212917Y-132765743D01*
X128001446Y-132455389D01*
X120823318Y-131995695D01*
X120823436Y-127362866D01*
X130525000Y-127362866D01*
X130525000Y-127737134D01*
X130598016Y-128104209D01*
X130741242Y-128449987D01*
X130949174Y-128761179D01*
X131213821Y-129025826D01*
X131525013Y-129233758D01*
X131870791Y-129376984D01*
X132237866Y-129450000D01*
X132612134Y-129450000D01*
X132979209Y-129376984D01*
X133324987Y-129233758D01*
X133636179Y-129025826D01*
X133900826Y-128761179D01*
X134108758Y-128449987D01*
X134251984Y-128104209D01*
X134325000Y-127737134D01*
X134325000Y-127362866D01*
X134251984Y-126995791D01*
X134108758Y-126650013D01*
X133900826Y-126338821D01*
X133636179Y-126074174D01*
X133324987Y-125866242D01*
X132979209Y-125723016D01*
X132612134Y-125650000D01*
X132237866Y-125650000D01*
X131870791Y-125723016D01*
X131525013Y-125866242D01*
X131213821Y-126074174D01*
X130949174Y-126338821D01*
X130741242Y-126650013D01*
X130598016Y-126995791D01*
X130525000Y-127362866D01*
X120823436Y-127362866D01*
X120824061Y-102970000D01*
X126465075Y-102970000D01*
X126484584Y-102968079D01*
X126503343Y-102962388D01*
X126520632Y-102953147D01*
X126535786Y-102940711D01*
X126548222Y-102925557D01*
X126557463Y-102908268D01*
X126563154Y-102889509D01*
X126565075Y-102870000D01*
X126565075Y-101531056D01*
X146620000Y-101531056D01*
X146620000Y-101668944D01*
X146646901Y-101804182D01*
X146699668Y-101931574D01*
X146770000Y-102036834D01*
X146770001Y-113764982D01*
X146767340Y-113792000D01*
X146770001Y-113819018D01*
X146777959Y-113899819D01*
X146805479Y-113990538D01*
X146809409Y-114003494D01*
X146860479Y-114099042D01*
X146911987Y-114161804D01*
X146911993Y-114161810D01*
X146929211Y-114182790D01*
X146950191Y-114200008D01*
X148689987Y-115939804D01*
X148707210Y-115960790D01*
X148728196Y-115978013D01*
X148790958Y-116029521D01*
X148886505Y-116080592D01*
X148990181Y-116112042D01*
X149070982Y-116120000D01*
X149070989Y-116120000D01*
X149098000Y-116122660D01*
X149125011Y-116120000D01*
X150302549Y-116120000D01*
X150302549Y-116350000D01*
X150308341Y-116408810D01*
X150325496Y-116465360D01*
X150353353Y-116517477D01*
X150390842Y-116563158D01*
X150436523Y-116600647D01*
X150488640Y-116628504D01*
X150545190Y-116645659D01*
X150604000Y-116651451D01*
X150959000Y-116651451D01*
X150959001Y-118597123D01*
X150956945Y-118618000D01*
X150965150Y-118701314D01*
X150989453Y-118781427D01*
X151028917Y-118855260D01*
X151082027Y-118919974D01*
X151098239Y-118933279D01*
X153441653Y-121276694D01*
X152883000Y-121278000D01*
X152808000Y-121353000D01*
X152808000Y-122274000D01*
X153729000Y-122274000D01*
X153804000Y-122199000D01*
X153805306Y-121640347D01*
X154137788Y-121972828D01*
X154088194Y-122092557D01*
X154044000Y-122314735D01*
X154044000Y-122541265D01*
X154088194Y-122763443D01*
X154174884Y-122972729D01*
X154300737Y-123161082D01*
X154460918Y-123321263D01*
X154649271Y-123447116D01*
X154858557Y-123533806D01*
X155080735Y-123578000D01*
X155307265Y-123578000D01*
X155529443Y-123533806D01*
X155738729Y-123447116D01*
X155927082Y-123321263D01*
X156087263Y-123161082D01*
X156213116Y-122972729D01*
X156299806Y-122763443D01*
X156344000Y-122541265D01*
X156344000Y-122314735D01*
X156299806Y-122092557D01*
X156213116Y-121883271D01*
X156087263Y-121694918D01*
X155927082Y-121534737D01*
X155738729Y-121408884D01*
X155529443Y-121322194D01*
X155307265Y-121278000D01*
X155080735Y-121278000D01*
X154858557Y-121322194D01*
X154738828Y-121371788D01*
X151809000Y-118441960D01*
X151809000Y-116651451D01*
X152164000Y-116651451D01*
X152222810Y-116645659D01*
X152229001Y-116643781D01*
X152229001Y-117327123D01*
X152226945Y-117348000D01*
X152235150Y-117431314D01*
X152248996Y-117476956D01*
X152259453Y-117511427D01*
X152298917Y-117585260D01*
X152352027Y-117649974D01*
X152368239Y-117663279D01*
X154908239Y-120203280D01*
X154908245Y-120203285D01*
X156677788Y-121972828D01*
X156628194Y-122092557D01*
X156584000Y-122314735D01*
X156584000Y-122541265D01*
X156628194Y-122763443D01*
X156714884Y-122972729D01*
X156840737Y-123161082D01*
X157000918Y-123321263D01*
X157189271Y-123447116D01*
X157398557Y-123533806D01*
X157620735Y-123578000D01*
X157847265Y-123578000D01*
X158069443Y-123533806D01*
X158278729Y-123447116D01*
X158467082Y-123321263D01*
X158627263Y-123161082D01*
X158753116Y-122972729D01*
X158839806Y-122763443D01*
X158884000Y-122541265D01*
X158884000Y-122314735D01*
X158839806Y-122092557D01*
X158753116Y-121883271D01*
X158627263Y-121694918D01*
X158467082Y-121534737D01*
X158278729Y-121408884D01*
X158069443Y-121322194D01*
X157847265Y-121278000D01*
X157620735Y-121278000D01*
X157398557Y-121322194D01*
X157278828Y-121371788D01*
X155509285Y-119602245D01*
X155509280Y-119602239D01*
X153079000Y-117171960D01*
X153079000Y-116249317D01*
X153085109Y-116258460D01*
X153235540Y-116408891D01*
X153412428Y-116527084D01*
X153608976Y-116608497D01*
X153817629Y-116650000D01*
X154030371Y-116650000D01*
X154239024Y-116608497D01*
X154435572Y-116527084D01*
X154612460Y-116408891D01*
X154762891Y-116258460D01*
X154769001Y-116249316D01*
X154769001Y-117327123D01*
X154766945Y-117348000D01*
X154775150Y-117431314D01*
X154788996Y-117476956D01*
X154799453Y-117511427D01*
X154838917Y-117585260D01*
X154892027Y-117649974D01*
X154908239Y-117663279D01*
X157448239Y-120203280D01*
X157448245Y-120203285D01*
X159217788Y-121972828D01*
X159168194Y-122092557D01*
X159124000Y-122314735D01*
X159124000Y-122541265D01*
X159168194Y-122763443D01*
X159254884Y-122972729D01*
X159380737Y-123161082D01*
X159540918Y-123321263D01*
X159729271Y-123447116D01*
X159938557Y-123533806D01*
X160160735Y-123578000D01*
X160387265Y-123578000D01*
X160609443Y-123533806D01*
X160818729Y-123447116D01*
X161007082Y-123321263D01*
X161167263Y-123161082D01*
X161293116Y-122972729D01*
X161379806Y-122763443D01*
X161424000Y-122541265D01*
X161424000Y-122314735D01*
X161379806Y-122092557D01*
X161293116Y-121883271D01*
X161167263Y-121694918D01*
X161050345Y-121578000D01*
X164710549Y-121578000D01*
X164710549Y-123278000D01*
X164716341Y-123336810D01*
X164733496Y-123393360D01*
X164761353Y-123445477D01*
X164798842Y-123491158D01*
X164844523Y-123528647D01*
X164896640Y-123556504D01*
X164953190Y-123573659D01*
X165012000Y-123579451D01*
X166712000Y-123579451D01*
X166770810Y-123573659D01*
X166827360Y-123556504D01*
X166879477Y-123528647D01*
X166925158Y-123491158D01*
X166962647Y-123445477D01*
X166990504Y-123393360D01*
X167007659Y-123336810D01*
X167013451Y-123278000D01*
X167013451Y-122314735D01*
X175126000Y-122314735D01*
X175126000Y-122541265D01*
X175170194Y-122763443D01*
X175256884Y-122972729D01*
X175382737Y-123161082D01*
X175542918Y-123321263D01*
X175731271Y-123447116D01*
X175940557Y-123533806D01*
X176162735Y-123578000D01*
X176389265Y-123578000D01*
X176611443Y-123533806D01*
X176820729Y-123447116D01*
X177009082Y-123321263D01*
X177169263Y-123161082D01*
X177295116Y-122972729D01*
X177357599Y-122821883D01*
X180635480Y-122821883D01*
X180637561Y-122828772D01*
X180724485Y-123036781D01*
X180850319Y-123223836D01*
X181010228Y-123382747D01*
X181198066Y-123507408D01*
X181406615Y-123593028D01*
X181583000Y-123556150D01*
X181583000Y-122645500D01*
X181891000Y-122645500D01*
X181891000Y-123556150D01*
X182067385Y-123593028D01*
X182275934Y-123507408D01*
X182463772Y-123382747D01*
X182502762Y-123344000D01*
X195650000Y-123344000D01*
X195650000Y-123844000D01*
X195703102Y-124075149D01*
X195800278Y-124291497D01*
X195937794Y-124484730D01*
X196110366Y-124647422D01*
X196311362Y-124773321D01*
X196511727Y-124841334D01*
X196696000Y-124804410D01*
X196696000Y-123344000D01*
X195650000Y-123344000D01*
X182502762Y-123344000D01*
X182623681Y-123223836D01*
X182749515Y-123036781D01*
X182836439Y-122828772D01*
X182838520Y-122821883D01*
X182800912Y-122645500D01*
X181891000Y-122645500D01*
X181583000Y-122645500D01*
X180673088Y-122645500D01*
X180635480Y-122821883D01*
X177357599Y-122821883D01*
X177381806Y-122763443D01*
X177426000Y-122541265D01*
X177426000Y-122536000D01*
X195650000Y-122536000D01*
X195650000Y-123036000D01*
X196696000Y-123036000D01*
X196696000Y-121575590D01*
X196511727Y-121538666D01*
X196311362Y-121606679D01*
X196110366Y-121732578D01*
X195937794Y-121895270D01*
X195800278Y-122088503D01*
X195703102Y-122304851D01*
X195650000Y-122536000D01*
X177426000Y-122536000D01*
X177426000Y-122314735D01*
X177395444Y-122161117D01*
X180635480Y-122161117D01*
X180673088Y-122337500D01*
X181583000Y-122337500D01*
X181583000Y-121426850D01*
X181891000Y-121426850D01*
X181891000Y-122337500D01*
X182800912Y-122337500D01*
X182838520Y-122161117D01*
X182836439Y-122154228D01*
X182749515Y-121946219D01*
X182623681Y-121759164D01*
X182463772Y-121600253D01*
X182275934Y-121475592D01*
X182067385Y-121389972D01*
X181891000Y-121426850D01*
X181583000Y-121426850D01*
X181406615Y-121389972D01*
X181198066Y-121475592D01*
X181010228Y-121600253D01*
X180850319Y-121759164D01*
X180724485Y-121946219D01*
X180637561Y-122154228D01*
X180635480Y-122161117D01*
X177395444Y-122161117D01*
X177381806Y-122092557D01*
X177295116Y-121883271D01*
X177169263Y-121694918D01*
X177009082Y-121534737D01*
X176820729Y-121408884D01*
X176611443Y-121322194D01*
X176389265Y-121278000D01*
X176162735Y-121278000D01*
X175940557Y-121322194D01*
X175731271Y-121408884D01*
X175542918Y-121534737D01*
X175382737Y-121694918D01*
X175256884Y-121883271D01*
X175170194Y-122092557D01*
X175126000Y-122314735D01*
X167013451Y-122314735D01*
X167013451Y-121578000D01*
X167007659Y-121519190D01*
X166990504Y-121462640D01*
X166962647Y-121410523D01*
X166925158Y-121364842D01*
X166879477Y-121327353D01*
X166827360Y-121299496D01*
X166770810Y-121282341D01*
X166712000Y-121276549D01*
X165012000Y-121276549D01*
X164953190Y-121282341D01*
X164896640Y-121299496D01*
X164844523Y-121327353D01*
X164798842Y-121364842D01*
X164761353Y-121410523D01*
X164733496Y-121462640D01*
X164716341Y-121519190D01*
X164710549Y-121578000D01*
X161050345Y-121578000D01*
X161007082Y-121534737D01*
X160818729Y-121408884D01*
X160609443Y-121322194D01*
X160387265Y-121278000D01*
X160160735Y-121278000D01*
X159938557Y-121322194D01*
X159818828Y-121371788D01*
X158221775Y-119774735D01*
X175126000Y-119774735D01*
X175126000Y-120001265D01*
X175170194Y-120223443D01*
X175256884Y-120432729D01*
X175382737Y-120621082D01*
X175542918Y-120781263D01*
X175731271Y-120907116D01*
X175940557Y-120993806D01*
X176162735Y-121038000D01*
X176389265Y-121038000D01*
X176611443Y-120993806D01*
X176820729Y-120907116D01*
X177009082Y-120781263D01*
X177169263Y-120621082D01*
X177295116Y-120432729D01*
X177381806Y-120223443D01*
X177426000Y-120001265D01*
X177426000Y-119774735D01*
X177381806Y-119552557D01*
X177295116Y-119343271D01*
X177169263Y-119154918D01*
X177115845Y-119101500D01*
X180585549Y-119101500D01*
X180585549Y-120801500D01*
X180591341Y-120860310D01*
X180608496Y-120916860D01*
X180636353Y-120968977D01*
X180673842Y-121014658D01*
X180719523Y-121052147D01*
X180771640Y-121080004D01*
X180828190Y-121097159D01*
X180887000Y-121102951D01*
X182587000Y-121102951D01*
X182645810Y-121097159D01*
X182702360Y-121080004D01*
X182754477Y-121052147D01*
X182800158Y-121014658D01*
X182837647Y-120968977D01*
X182865504Y-120916860D01*
X182882659Y-120860310D01*
X182888451Y-120801500D01*
X182888451Y-119101500D01*
X182882659Y-119042690D01*
X182865504Y-118986140D01*
X182837647Y-118934023D01*
X182800158Y-118888342D01*
X182754477Y-118850853D01*
X182702360Y-118822996D01*
X182645810Y-118805841D01*
X182587000Y-118800049D01*
X180887000Y-118800049D01*
X180828190Y-118805841D01*
X180771640Y-118822996D01*
X180719523Y-118850853D01*
X180673842Y-118888342D01*
X180636353Y-118934023D01*
X180608496Y-118986140D01*
X180591341Y-119042690D01*
X180585549Y-119101500D01*
X177115845Y-119101500D01*
X177009082Y-118994737D01*
X176820729Y-118868884D01*
X176611443Y-118782194D01*
X176389265Y-118738000D01*
X176162735Y-118738000D01*
X175940557Y-118782194D01*
X175731271Y-118868884D01*
X175542918Y-118994737D01*
X175382737Y-119154918D01*
X175256884Y-119343271D01*
X175170194Y-119552557D01*
X175126000Y-119774735D01*
X158221775Y-119774735D01*
X158049285Y-119602245D01*
X158049280Y-119602239D01*
X155619000Y-117171960D01*
X155619000Y-116249317D01*
X155625109Y-116258460D01*
X155775540Y-116408891D01*
X155952428Y-116527084D01*
X156148976Y-116608497D01*
X156357629Y-116650000D01*
X156570371Y-116650000D01*
X156779024Y-116608497D01*
X156975572Y-116527084D01*
X157152460Y-116408891D01*
X157302891Y-116258460D01*
X157421084Y-116081572D01*
X157502497Y-115885024D01*
X157544000Y-115676371D01*
X157544000Y-115463629D01*
X157924000Y-115463629D01*
X157924000Y-115676371D01*
X157965503Y-115885024D01*
X158046916Y-116081572D01*
X158165109Y-116258460D01*
X158315540Y-116408891D01*
X158492428Y-116527084D01*
X158688976Y-116608497D01*
X158897629Y-116650000D01*
X159110371Y-116650000D01*
X159319024Y-116608497D01*
X159515572Y-116527084D01*
X159692460Y-116408891D01*
X159842891Y-116258460D01*
X159961084Y-116081572D01*
X160042497Y-115885024D01*
X160084000Y-115676371D01*
X160084000Y-115463629D01*
X160464000Y-115463629D01*
X160464000Y-115676371D01*
X160505503Y-115885024D01*
X160586916Y-116081572D01*
X160705109Y-116258460D01*
X160855540Y-116408891D01*
X161032428Y-116527084D01*
X161228976Y-116608497D01*
X161437629Y-116650000D01*
X161650371Y-116650000D01*
X161859024Y-116608497D01*
X162055572Y-116527084D01*
X162232460Y-116408891D01*
X162382891Y-116258460D01*
X162501084Y-116081572D01*
X162582497Y-115885024D01*
X162624000Y-115676371D01*
X162624000Y-115463629D01*
X163004000Y-115463629D01*
X163004000Y-115676371D01*
X163045503Y-115885024D01*
X163126916Y-116081572D01*
X163245109Y-116258460D01*
X163395540Y-116408891D01*
X163572428Y-116527084D01*
X163768976Y-116608497D01*
X163977629Y-116650000D01*
X164190371Y-116650000D01*
X164399024Y-116608497D01*
X164595572Y-116527084D01*
X164772460Y-116408891D01*
X164922891Y-116258460D01*
X165041084Y-116081572D01*
X165122497Y-115885024D01*
X165164000Y-115676371D01*
X165164000Y-115463629D01*
X165544000Y-115463629D01*
X165544000Y-115676371D01*
X165585503Y-115885024D01*
X165666916Y-116081572D01*
X165785109Y-116258460D01*
X165935540Y-116408891D01*
X166112428Y-116527084D01*
X166308976Y-116608497D01*
X166517629Y-116650000D01*
X166730371Y-116650000D01*
X166939024Y-116608497D01*
X167135572Y-116527084D01*
X167312460Y-116408891D01*
X167462891Y-116258460D01*
X167581084Y-116081572D01*
X167662497Y-115885024D01*
X167704000Y-115676371D01*
X167704000Y-115463629D01*
X168084000Y-115463629D01*
X168084000Y-115676371D01*
X168125503Y-115885024D01*
X168206916Y-116081572D01*
X168325109Y-116258460D01*
X168475540Y-116408891D01*
X168652428Y-116527084D01*
X168848976Y-116608497D01*
X169057629Y-116650000D01*
X169270371Y-116650000D01*
X169479024Y-116608497D01*
X169675572Y-116527084D01*
X169852460Y-116408891D01*
X170002891Y-116258460D01*
X170121084Y-116081572D01*
X170202497Y-115885024D01*
X170244000Y-115676371D01*
X170244000Y-115463629D01*
X170624000Y-115463629D01*
X170624000Y-115676371D01*
X170665503Y-115885024D01*
X170746916Y-116081572D01*
X170865109Y-116258460D01*
X171015540Y-116408891D01*
X171192428Y-116527084D01*
X171388976Y-116608497D01*
X171597629Y-116650000D01*
X171810371Y-116650000D01*
X172019024Y-116608497D01*
X172215572Y-116527084D01*
X172392460Y-116408891D01*
X172542891Y-116258460D01*
X172661084Y-116081572D01*
X172742497Y-115885024D01*
X172784000Y-115676371D01*
X172784000Y-115463629D01*
X173164000Y-115463629D01*
X173164000Y-115676371D01*
X173205503Y-115885024D01*
X173286916Y-116081572D01*
X173405109Y-116258460D01*
X173555540Y-116408891D01*
X173732428Y-116527084D01*
X173928976Y-116608497D01*
X174137629Y-116650000D01*
X174350371Y-116650000D01*
X174559024Y-116608497D01*
X174755572Y-116527084D01*
X174932460Y-116408891D01*
X175082891Y-116258460D01*
X175201084Y-116081572D01*
X175282497Y-115885024D01*
X175324000Y-115676371D01*
X175324000Y-115463629D01*
X175282497Y-115254976D01*
X175201084Y-115058428D01*
X175082891Y-114881540D01*
X174932460Y-114731109D01*
X174755572Y-114612916D01*
X174559024Y-114531503D01*
X174350371Y-114490000D01*
X174137629Y-114490000D01*
X173928976Y-114531503D01*
X173732428Y-114612916D01*
X173555540Y-114731109D01*
X173405109Y-114881540D01*
X173286916Y-115058428D01*
X173205503Y-115254976D01*
X173164000Y-115463629D01*
X172784000Y-115463629D01*
X172742497Y-115254976D01*
X172661084Y-115058428D01*
X172542891Y-114881540D01*
X172392460Y-114731109D01*
X172215572Y-114612916D01*
X172019024Y-114531503D01*
X171810371Y-114490000D01*
X171597629Y-114490000D01*
X171388976Y-114531503D01*
X171192428Y-114612916D01*
X171015540Y-114731109D01*
X170865109Y-114881540D01*
X170746916Y-115058428D01*
X170665503Y-115254976D01*
X170624000Y-115463629D01*
X170244000Y-115463629D01*
X170202497Y-115254976D01*
X170121084Y-115058428D01*
X170002891Y-114881540D01*
X169852460Y-114731109D01*
X169675572Y-114612916D01*
X169479024Y-114531503D01*
X169270371Y-114490000D01*
X169057629Y-114490000D01*
X168848976Y-114531503D01*
X168652428Y-114612916D01*
X168475540Y-114731109D01*
X168325109Y-114881540D01*
X168206916Y-115058428D01*
X168125503Y-115254976D01*
X168084000Y-115463629D01*
X167704000Y-115463629D01*
X167662497Y-115254976D01*
X167581084Y-115058428D01*
X167462891Y-114881540D01*
X167312460Y-114731109D01*
X167135572Y-114612916D01*
X166939024Y-114531503D01*
X166730371Y-114490000D01*
X166517629Y-114490000D01*
X166308976Y-114531503D01*
X166112428Y-114612916D01*
X165935540Y-114731109D01*
X165785109Y-114881540D01*
X165666916Y-115058428D01*
X165585503Y-115254976D01*
X165544000Y-115463629D01*
X165164000Y-115463629D01*
X165122497Y-115254976D01*
X165041084Y-115058428D01*
X164922891Y-114881540D01*
X164772460Y-114731109D01*
X164595572Y-114612916D01*
X164399024Y-114531503D01*
X164190371Y-114490000D01*
X163977629Y-114490000D01*
X163768976Y-114531503D01*
X163572428Y-114612916D01*
X163395540Y-114731109D01*
X163245109Y-114881540D01*
X163126916Y-115058428D01*
X163045503Y-115254976D01*
X163004000Y-115463629D01*
X162624000Y-115463629D01*
X162582497Y-115254976D01*
X162501084Y-115058428D01*
X162382891Y-114881540D01*
X162232460Y-114731109D01*
X162055572Y-114612916D01*
X161859024Y-114531503D01*
X161650371Y-114490000D01*
X161437629Y-114490000D01*
X161228976Y-114531503D01*
X161032428Y-114612916D01*
X160855540Y-114731109D01*
X160705109Y-114881540D01*
X160586916Y-115058428D01*
X160505503Y-115254976D01*
X160464000Y-115463629D01*
X160084000Y-115463629D01*
X160042497Y-115254976D01*
X159961084Y-115058428D01*
X159842891Y-114881540D01*
X159692460Y-114731109D01*
X159515572Y-114612916D01*
X159319024Y-114531503D01*
X159110371Y-114490000D01*
X158897629Y-114490000D01*
X158688976Y-114531503D01*
X158492428Y-114612916D01*
X158315540Y-114731109D01*
X158165109Y-114881540D01*
X158046916Y-115058428D01*
X157965503Y-115254976D01*
X157924000Y-115463629D01*
X157544000Y-115463629D01*
X157502497Y-115254976D01*
X157421084Y-115058428D01*
X157302891Y-114881540D01*
X157152460Y-114731109D01*
X156975572Y-114612916D01*
X156779024Y-114531503D01*
X156570371Y-114490000D01*
X156357629Y-114490000D01*
X156148976Y-114531503D01*
X155952428Y-114612916D01*
X155775540Y-114731109D01*
X155625109Y-114881540D01*
X155619000Y-114890683D01*
X155619000Y-114730040D01*
X155878041Y-114471000D01*
X175083960Y-114471000D01*
X175781363Y-115168403D01*
X175745503Y-115254976D01*
X175704000Y-115463629D01*
X175704000Y-115676371D01*
X175745503Y-115885024D01*
X175826916Y-116081572D01*
X175945109Y-116258460D01*
X176095540Y-116408891D01*
X176272428Y-116527084D01*
X176468976Y-116608497D01*
X176677629Y-116650000D01*
X176890371Y-116650000D01*
X177099024Y-116608497D01*
X177295572Y-116527084D01*
X177472460Y-116408891D01*
X177622891Y-116258460D01*
X177741084Y-116081572D01*
X177822497Y-115885024D01*
X177864000Y-115676371D01*
X177864000Y-115463629D01*
X177822497Y-115254976D01*
X177741084Y-115058428D01*
X177622891Y-114881540D01*
X177472460Y-114731109D01*
X177295572Y-114612916D01*
X177099024Y-114531503D01*
X176890371Y-114490000D01*
X176677629Y-114490000D01*
X176468976Y-114531503D01*
X176382403Y-114567363D01*
X175836030Y-114020990D01*
X177173950Y-114020990D01*
X178321363Y-115168403D01*
X178285503Y-115254976D01*
X178244000Y-115463629D01*
X178244000Y-115676371D01*
X178285503Y-115885024D01*
X178366916Y-116081572D01*
X178485109Y-116258460D01*
X178635540Y-116408891D01*
X178812428Y-116527084D01*
X179008976Y-116608497D01*
X179217629Y-116650000D01*
X179430371Y-116650000D01*
X179639024Y-116608497D01*
X179835572Y-116527084D01*
X180012460Y-116408891D01*
X180162891Y-116258460D01*
X180281084Y-116081572D01*
X180362497Y-115885024D01*
X180404000Y-115676371D01*
X180404000Y-115463629D01*
X180784000Y-115463629D01*
X180784000Y-115676371D01*
X180825503Y-115885024D01*
X180906916Y-116081572D01*
X181025109Y-116258460D01*
X181175540Y-116408891D01*
X181352428Y-116527084D01*
X181548976Y-116608497D01*
X181757629Y-116650000D01*
X181970371Y-116650000D01*
X182179024Y-116608497D01*
X182375572Y-116527084D01*
X182552460Y-116408891D01*
X182576468Y-116384883D01*
X183806906Y-116384883D01*
X183897164Y-116529600D01*
X184094112Y-116610041D01*
X184302969Y-116650513D01*
X184515708Y-116649461D01*
X184724154Y-116606927D01*
X184910836Y-116529600D01*
X185001094Y-116384883D01*
X184404000Y-115787789D01*
X183806906Y-116384883D01*
X182576468Y-116384883D01*
X182702891Y-116258460D01*
X182821084Y-116081572D01*
X182902497Y-115885024D01*
X182944000Y-115676371D01*
X182944000Y-115468969D01*
X183323487Y-115468969D01*
X183324539Y-115681708D01*
X183367073Y-115890154D01*
X183444400Y-116076836D01*
X183589117Y-116167094D01*
X184186211Y-115570000D01*
X184621789Y-115570000D01*
X185218883Y-116167094D01*
X185363600Y-116076836D01*
X185444041Y-115879888D01*
X185484513Y-115671031D01*
X185483488Y-115463629D01*
X185864000Y-115463629D01*
X185864000Y-115676371D01*
X185905503Y-115885024D01*
X185986916Y-116081572D01*
X186105109Y-116258460D01*
X186255540Y-116408891D01*
X186432428Y-116527084D01*
X186628976Y-116608497D01*
X186837629Y-116650000D01*
X187050371Y-116650000D01*
X187259024Y-116608497D01*
X187455572Y-116527084D01*
X187632460Y-116408891D01*
X187782891Y-116258460D01*
X187901084Y-116081572D01*
X187982497Y-115885024D01*
X188024000Y-115676371D01*
X188024000Y-115463629D01*
X188404000Y-115463629D01*
X188404000Y-115676371D01*
X188445503Y-115885024D01*
X188526916Y-116081572D01*
X188645109Y-116258460D01*
X188795540Y-116408891D01*
X188972428Y-116527084D01*
X189168976Y-116608497D01*
X189377629Y-116650000D01*
X189590371Y-116650000D01*
X189799024Y-116608497D01*
X189995572Y-116527084D01*
X190172460Y-116408891D01*
X190322891Y-116258460D01*
X190441084Y-116081572D01*
X190522497Y-115885024D01*
X190564000Y-115676371D01*
X190564000Y-115463629D01*
X190944000Y-115463629D01*
X190944000Y-115676371D01*
X190985503Y-115885024D01*
X191066916Y-116081572D01*
X191185109Y-116258460D01*
X191335540Y-116408891D01*
X191512428Y-116527084D01*
X191708976Y-116608497D01*
X191917629Y-116650000D01*
X192130371Y-116650000D01*
X192339024Y-116608497D01*
X192535572Y-116527084D01*
X192712460Y-116408891D01*
X192862891Y-116258460D01*
X192981084Y-116081572D01*
X193062497Y-115885024D01*
X193104000Y-115676371D01*
X193104000Y-115463629D01*
X193484000Y-115463629D01*
X193484000Y-115676371D01*
X193525503Y-115885024D01*
X193606916Y-116081572D01*
X193725109Y-116258460D01*
X193875540Y-116408891D01*
X194052428Y-116527084D01*
X194248976Y-116608497D01*
X194457629Y-116650000D01*
X194670371Y-116650000D01*
X194879024Y-116608497D01*
X195075572Y-116527084D01*
X195252460Y-116408891D01*
X195402891Y-116258460D01*
X195521084Y-116081572D01*
X195602497Y-115885024D01*
X195644000Y-115676371D01*
X195644000Y-115463629D01*
X195602497Y-115254976D01*
X195521084Y-115058428D01*
X195402891Y-114881540D01*
X195252460Y-114731109D01*
X195075572Y-114612916D01*
X194879024Y-114531503D01*
X194670371Y-114490000D01*
X194457629Y-114490000D01*
X194248976Y-114531503D01*
X194052428Y-114612916D01*
X193875540Y-114731109D01*
X193725109Y-114881540D01*
X193606916Y-115058428D01*
X193525503Y-115254976D01*
X193484000Y-115463629D01*
X193104000Y-115463629D01*
X193062497Y-115254976D01*
X192981084Y-115058428D01*
X192862891Y-114881540D01*
X192712460Y-114731109D01*
X192535572Y-114612916D01*
X192339024Y-114531503D01*
X192130371Y-114490000D01*
X191917629Y-114490000D01*
X191708976Y-114531503D01*
X191512428Y-114612916D01*
X191335540Y-114731109D01*
X191185109Y-114881540D01*
X191066916Y-115058428D01*
X190985503Y-115254976D01*
X190944000Y-115463629D01*
X190564000Y-115463629D01*
X190522497Y-115254976D01*
X190441084Y-115058428D01*
X190322891Y-114881540D01*
X190172460Y-114731109D01*
X189995572Y-114612916D01*
X189799024Y-114531503D01*
X189590371Y-114490000D01*
X189377629Y-114490000D01*
X189168976Y-114531503D01*
X188972428Y-114612916D01*
X188795540Y-114731109D01*
X188645109Y-114881540D01*
X188526916Y-115058428D01*
X188445503Y-115254976D01*
X188404000Y-115463629D01*
X188024000Y-115463629D01*
X187982497Y-115254976D01*
X187901084Y-115058428D01*
X187782891Y-114881540D01*
X187632460Y-114731109D01*
X187455572Y-114612916D01*
X187259024Y-114531503D01*
X187050371Y-114490000D01*
X186837629Y-114490000D01*
X186628976Y-114531503D01*
X186432428Y-114612916D01*
X186255540Y-114731109D01*
X186105109Y-114881540D01*
X185986916Y-115058428D01*
X185905503Y-115254976D01*
X185864000Y-115463629D01*
X185483488Y-115463629D01*
X185483461Y-115458292D01*
X185440927Y-115249846D01*
X185363600Y-115063164D01*
X185218883Y-114972906D01*
X184621789Y-115570000D01*
X184186211Y-115570000D01*
X183589117Y-114972906D01*
X183444400Y-115063164D01*
X183363959Y-115260112D01*
X183323487Y-115468969D01*
X182944000Y-115468969D01*
X182944000Y-115463629D01*
X182902497Y-115254976D01*
X182821084Y-115058428D01*
X182702891Y-114881540D01*
X182576468Y-114755117D01*
X183806906Y-114755117D01*
X184404000Y-115352211D01*
X185001094Y-114755117D01*
X184910836Y-114610400D01*
X184713888Y-114529959D01*
X184505031Y-114489487D01*
X184292292Y-114490539D01*
X184083846Y-114533073D01*
X183897164Y-114610400D01*
X183806906Y-114755117D01*
X182576468Y-114755117D01*
X182552460Y-114731109D01*
X182375572Y-114612916D01*
X182179024Y-114531503D01*
X181970371Y-114490000D01*
X181757629Y-114490000D01*
X181548976Y-114531503D01*
X181352428Y-114612916D01*
X181175540Y-114731109D01*
X181025109Y-114881540D01*
X180906916Y-115058428D01*
X180825503Y-115254976D01*
X180784000Y-115463629D01*
X180404000Y-115463629D01*
X180362497Y-115254976D01*
X180281084Y-115058428D01*
X180162891Y-114881540D01*
X180012460Y-114731109D01*
X179835572Y-114612916D01*
X179639024Y-114531503D01*
X179430371Y-114490000D01*
X179217629Y-114490000D01*
X179008976Y-114531503D01*
X178922403Y-114567363D01*
X177926020Y-113570980D01*
X178939197Y-113570980D01*
X178957668Y-113615574D01*
X179034274Y-113730224D01*
X179131776Y-113827726D01*
X179246426Y-113904332D01*
X179373818Y-113957099D01*
X179509056Y-113984000D01*
X179646944Y-113984000D01*
X179782182Y-113957099D01*
X179909574Y-113904332D01*
X180024224Y-113827726D01*
X180121726Y-113730224D01*
X180198332Y-113615574D01*
X180251099Y-113488182D01*
X180278000Y-113352944D01*
X180278000Y-113215056D01*
X180251099Y-113079818D01*
X180198332Y-112952426D01*
X180121726Y-112837776D01*
X180024224Y-112740274D01*
X179909574Y-112663668D01*
X179782182Y-112610901D01*
X179646944Y-112584000D01*
X179509056Y-112584000D01*
X179373818Y-112610901D01*
X179246426Y-112663668D01*
X179160652Y-112720980D01*
X173520021Y-112720980D01*
X170859000Y-110059960D01*
X170859000Y-99303112D01*
X191894000Y-99303112D01*
X191894000Y-99578888D01*
X191947801Y-99849365D01*
X192053336Y-100104149D01*
X192206549Y-100333448D01*
X192401552Y-100528451D01*
X192630851Y-100681664D01*
X192885635Y-100787199D01*
X193156112Y-100841000D01*
X193431888Y-100841000D01*
X193702365Y-100787199D01*
X193957149Y-100681664D01*
X194186448Y-100528451D01*
X194381451Y-100333448D01*
X194534664Y-100104149D01*
X194640199Y-99849365D01*
X194694000Y-99578888D01*
X194694000Y-99303112D01*
X194640199Y-99032635D01*
X194534664Y-98777851D01*
X194381451Y-98548552D01*
X194186448Y-98353549D01*
X193957149Y-98200336D01*
X193702365Y-98094801D01*
X193431888Y-98041000D01*
X193156112Y-98041000D01*
X192885635Y-98094801D01*
X192630851Y-98200336D01*
X192401552Y-98353549D01*
X192206549Y-98548552D01*
X192053336Y-98777851D01*
X191947801Y-99032635D01*
X191894000Y-99303112D01*
X170859000Y-99303112D01*
X170859000Y-90849317D01*
X170865109Y-90858460D01*
X171015540Y-91008891D01*
X171192428Y-91127084D01*
X171279001Y-91162944D01*
X171279001Y-91252210D01*
X171276945Y-91273086D01*
X171285150Y-91356400D01*
X171298591Y-91400707D01*
X171309453Y-91436513D01*
X171348917Y-91510346D01*
X171402027Y-91575060D01*
X171418239Y-91588365D01*
X176127633Y-96297760D01*
X176140940Y-96313974D01*
X176205654Y-96367084D01*
X176279487Y-96406548D01*
X176335297Y-96423478D01*
X176359599Y-96430850D01*
X176368012Y-96431679D01*
X176422040Y-96437000D01*
X176422046Y-96437000D01*
X176442913Y-96439055D01*
X176463780Y-96437000D01*
X193438960Y-96437000D01*
X194737788Y-97735828D01*
X194688194Y-97855557D01*
X194644000Y-98077735D01*
X194644000Y-98304265D01*
X194688194Y-98526443D01*
X194774884Y-98735729D01*
X194900737Y-98924082D01*
X195060918Y-99084263D01*
X195249271Y-99210116D01*
X195458557Y-99296806D01*
X195680735Y-99341000D01*
X195907265Y-99341000D01*
X196129443Y-99296806D01*
X196338729Y-99210116D01*
X196527082Y-99084263D01*
X196687263Y-98924082D01*
X196813116Y-98735729D01*
X196899806Y-98526443D01*
X196944000Y-98304265D01*
X196944000Y-98077735D01*
X196899806Y-97855557D01*
X196813116Y-97646271D01*
X196687263Y-97457918D01*
X196527082Y-97297737D01*
X196338729Y-97171884D01*
X196129443Y-97085194D01*
X195907265Y-97041000D01*
X195680735Y-97041000D01*
X195458557Y-97085194D01*
X195338828Y-97134788D01*
X193930283Y-95726243D01*
X193916974Y-95710026D01*
X193852260Y-95656916D01*
X193778427Y-95617452D01*
X193698314Y-95593150D01*
X193635874Y-95587000D01*
X193635867Y-95587000D01*
X193615000Y-95584945D01*
X193594133Y-95587000D01*
X176618955Y-95587000D01*
X175588124Y-94556169D01*
X195146620Y-94556169D01*
X195245424Y-94708051D01*
X195454382Y-94795530D01*
X195676391Y-94840563D01*
X195902920Y-94841419D01*
X196125263Y-94798065D01*
X196334875Y-94712166D01*
X196342576Y-94708051D01*
X196441380Y-94556169D01*
X195794000Y-93908789D01*
X195146620Y-94556169D01*
X175588124Y-94556169D01*
X173335067Y-92303112D01*
X191894000Y-92303112D01*
X191894000Y-92578888D01*
X191947801Y-92849365D01*
X192053336Y-93104149D01*
X192206549Y-93333448D01*
X192401552Y-93528451D01*
X192630851Y-93681664D01*
X192885635Y-93787199D01*
X193156112Y-93841000D01*
X193431888Y-93841000D01*
X193638411Y-93799920D01*
X194643581Y-93799920D01*
X194686935Y-94022263D01*
X194772834Y-94231875D01*
X194776949Y-94239576D01*
X194928831Y-94338380D01*
X195576211Y-93691000D01*
X196011789Y-93691000D01*
X196659169Y-94338380D01*
X196811051Y-94239576D01*
X196898530Y-94030618D01*
X196943563Y-93808609D01*
X196944419Y-93582080D01*
X196901065Y-93359737D01*
X196815166Y-93150125D01*
X196811051Y-93142424D01*
X196659169Y-93043620D01*
X196011789Y-93691000D01*
X195576211Y-93691000D01*
X194928831Y-93043620D01*
X194776949Y-93142424D01*
X194689470Y-93351382D01*
X194644437Y-93573391D01*
X194643581Y-93799920D01*
X193638411Y-93799920D01*
X193702365Y-93787199D01*
X193957149Y-93681664D01*
X194186448Y-93528451D01*
X194381451Y-93333448D01*
X194534664Y-93104149D01*
X194640199Y-92849365D01*
X194644880Y-92825831D01*
X195146620Y-92825831D01*
X195794000Y-93473211D01*
X196441380Y-92825831D01*
X196342576Y-92673949D01*
X196133618Y-92586470D01*
X195911609Y-92541437D01*
X195685080Y-92540581D01*
X195462737Y-92583935D01*
X195253125Y-92669834D01*
X195245424Y-92673949D01*
X195146620Y-92825831D01*
X194644880Y-92825831D01*
X194694000Y-92578888D01*
X194694000Y-92303112D01*
X194640199Y-92032635D01*
X194534664Y-91777851D01*
X194381451Y-91548552D01*
X194186448Y-91353549D01*
X193957149Y-91200336D01*
X193702365Y-91094801D01*
X193431888Y-91041000D01*
X193156112Y-91041000D01*
X192885635Y-91094801D01*
X192630851Y-91200336D01*
X192401552Y-91353549D01*
X192206549Y-91548552D01*
X192053336Y-91777851D01*
X191947801Y-92032635D01*
X191894000Y-92303112D01*
X173335067Y-92303112D01*
X172175596Y-91143642D01*
X172215572Y-91127084D01*
X172392460Y-91008891D01*
X172542891Y-90858460D01*
X172661084Y-90681572D01*
X172742497Y-90485024D01*
X172784000Y-90276371D01*
X172784000Y-90063629D01*
X173164000Y-90063629D01*
X173164000Y-90276371D01*
X173205503Y-90485024D01*
X173286916Y-90681572D01*
X173405109Y-90858460D01*
X173555540Y-91008891D01*
X173732428Y-91127084D01*
X173928976Y-91208497D01*
X174137629Y-91250000D01*
X174350371Y-91250000D01*
X174559024Y-91208497D01*
X174755572Y-91127084D01*
X174932460Y-91008891D01*
X175082891Y-90858460D01*
X175201084Y-90681572D01*
X175282497Y-90485024D01*
X175324000Y-90276371D01*
X175324000Y-90063629D01*
X175704000Y-90063629D01*
X175704000Y-90276371D01*
X175745503Y-90485024D01*
X175826916Y-90681572D01*
X175945109Y-90858460D01*
X176095540Y-91008891D01*
X176272428Y-91127084D01*
X176468976Y-91208497D01*
X176677629Y-91250000D01*
X176890371Y-91250000D01*
X177099024Y-91208497D01*
X177295572Y-91127084D01*
X177472460Y-91008891D01*
X177622891Y-90858460D01*
X177741084Y-90681572D01*
X177822497Y-90485024D01*
X177864000Y-90276371D01*
X177864000Y-90063629D01*
X178244000Y-90063629D01*
X178244000Y-90276371D01*
X178285503Y-90485024D01*
X178366916Y-90681572D01*
X178485109Y-90858460D01*
X178635540Y-91008891D01*
X178812428Y-91127084D01*
X179008976Y-91208497D01*
X179217629Y-91250000D01*
X179430371Y-91250000D01*
X179639024Y-91208497D01*
X179835572Y-91127084D01*
X180012460Y-91008891D01*
X180162891Y-90858460D01*
X180281084Y-90681572D01*
X180362497Y-90485024D01*
X180404000Y-90276371D01*
X180404000Y-90063629D01*
X180784000Y-90063629D01*
X180784000Y-90276371D01*
X180825503Y-90485024D01*
X180906916Y-90681572D01*
X181025109Y-90858460D01*
X181175540Y-91008891D01*
X181352428Y-91127084D01*
X181548976Y-91208497D01*
X181757629Y-91250000D01*
X181970371Y-91250000D01*
X182179024Y-91208497D01*
X182375572Y-91127084D01*
X182552460Y-91008891D01*
X182702891Y-90858460D01*
X182821084Y-90681572D01*
X182902497Y-90485024D01*
X182944000Y-90276371D01*
X182944000Y-90063629D01*
X183324000Y-90063629D01*
X183324000Y-90276371D01*
X183365503Y-90485024D01*
X183446916Y-90681572D01*
X183565109Y-90858460D01*
X183715540Y-91008891D01*
X183892428Y-91127084D01*
X184088976Y-91208497D01*
X184297629Y-91250000D01*
X184510371Y-91250000D01*
X184719024Y-91208497D01*
X184915572Y-91127084D01*
X185092460Y-91008891D01*
X185242891Y-90858460D01*
X185361084Y-90681572D01*
X185442497Y-90485024D01*
X185484000Y-90276371D01*
X185484000Y-90063629D01*
X185864000Y-90063629D01*
X185864000Y-90276371D01*
X185905503Y-90485024D01*
X185986916Y-90681572D01*
X186105109Y-90858460D01*
X186255540Y-91008891D01*
X186432428Y-91127084D01*
X186628976Y-91208497D01*
X186837629Y-91250000D01*
X187050371Y-91250000D01*
X187259024Y-91208497D01*
X187455572Y-91127084D01*
X187632460Y-91008891D01*
X187782891Y-90858460D01*
X187901084Y-90681572D01*
X187982497Y-90485024D01*
X188024000Y-90276371D01*
X188024000Y-90063629D01*
X188404000Y-90063629D01*
X188404000Y-90276371D01*
X188445503Y-90485024D01*
X188526916Y-90681572D01*
X188645109Y-90858460D01*
X188795540Y-91008891D01*
X188972428Y-91127084D01*
X189168976Y-91208497D01*
X189377629Y-91250000D01*
X189590371Y-91250000D01*
X189799024Y-91208497D01*
X189995572Y-91127084D01*
X190172460Y-91008891D01*
X190322891Y-90858460D01*
X190441084Y-90681572D01*
X190522497Y-90485024D01*
X190564000Y-90276371D01*
X190564000Y-90063629D01*
X190944000Y-90063629D01*
X190944000Y-90276371D01*
X190985503Y-90485024D01*
X191066916Y-90681572D01*
X191185109Y-90858460D01*
X191335540Y-91008891D01*
X191512428Y-91127084D01*
X191708976Y-91208497D01*
X191917629Y-91250000D01*
X192130371Y-91250000D01*
X192339024Y-91208497D01*
X192535572Y-91127084D01*
X192712460Y-91008891D01*
X192862891Y-90858460D01*
X192981084Y-90681572D01*
X193062497Y-90485024D01*
X193104000Y-90276371D01*
X193104000Y-90063629D01*
X193484000Y-90063629D01*
X193484000Y-90276371D01*
X193525503Y-90485024D01*
X193606916Y-90681572D01*
X193725109Y-90858460D01*
X193875540Y-91008891D01*
X194052428Y-91127084D01*
X194248976Y-91208497D01*
X194457629Y-91250000D01*
X194670371Y-91250000D01*
X194879024Y-91208497D01*
X195075572Y-91127084D01*
X195252460Y-91008891D01*
X195402891Y-90858460D01*
X195521084Y-90681572D01*
X195602497Y-90485024D01*
X195644000Y-90276371D01*
X195644000Y-90063629D01*
X195602497Y-89854976D01*
X195521084Y-89658428D01*
X195402891Y-89481540D01*
X195252460Y-89331109D01*
X195075572Y-89212916D01*
X194879024Y-89131503D01*
X194670371Y-89090000D01*
X194457629Y-89090000D01*
X194248976Y-89131503D01*
X194052428Y-89212916D01*
X193875540Y-89331109D01*
X193725109Y-89481540D01*
X193606916Y-89658428D01*
X193525503Y-89854976D01*
X193484000Y-90063629D01*
X193104000Y-90063629D01*
X193062497Y-89854976D01*
X192981084Y-89658428D01*
X192862891Y-89481540D01*
X192712460Y-89331109D01*
X192535572Y-89212916D01*
X192339024Y-89131503D01*
X192130371Y-89090000D01*
X191917629Y-89090000D01*
X191708976Y-89131503D01*
X191512428Y-89212916D01*
X191335540Y-89331109D01*
X191185109Y-89481540D01*
X191066916Y-89658428D01*
X190985503Y-89854976D01*
X190944000Y-90063629D01*
X190564000Y-90063629D01*
X190522497Y-89854976D01*
X190441084Y-89658428D01*
X190322891Y-89481540D01*
X190172460Y-89331109D01*
X189995572Y-89212916D01*
X189799024Y-89131503D01*
X189590371Y-89090000D01*
X189377629Y-89090000D01*
X189168976Y-89131503D01*
X188972428Y-89212916D01*
X188795540Y-89331109D01*
X188645109Y-89481540D01*
X188526916Y-89658428D01*
X188445503Y-89854976D01*
X188404000Y-90063629D01*
X188024000Y-90063629D01*
X187982497Y-89854976D01*
X187901084Y-89658428D01*
X187782891Y-89481540D01*
X187632460Y-89331109D01*
X187455572Y-89212916D01*
X187259024Y-89131503D01*
X187050371Y-89090000D01*
X186837629Y-89090000D01*
X186628976Y-89131503D01*
X186432428Y-89212916D01*
X186255540Y-89331109D01*
X186105109Y-89481540D01*
X185986916Y-89658428D01*
X185905503Y-89854976D01*
X185864000Y-90063629D01*
X185484000Y-90063629D01*
X185442497Y-89854976D01*
X185361084Y-89658428D01*
X185242891Y-89481540D01*
X185092460Y-89331109D01*
X184915572Y-89212916D01*
X184719024Y-89131503D01*
X184510371Y-89090000D01*
X184297629Y-89090000D01*
X184088976Y-89131503D01*
X183892428Y-89212916D01*
X183715540Y-89331109D01*
X183565109Y-89481540D01*
X183446916Y-89658428D01*
X183365503Y-89854976D01*
X183324000Y-90063629D01*
X182944000Y-90063629D01*
X182902497Y-89854976D01*
X182821084Y-89658428D01*
X182702891Y-89481540D01*
X182552460Y-89331109D01*
X182375572Y-89212916D01*
X182179024Y-89131503D01*
X181970371Y-89090000D01*
X181757629Y-89090000D01*
X181548976Y-89131503D01*
X181352428Y-89212916D01*
X181175540Y-89331109D01*
X181025109Y-89481540D01*
X180906916Y-89658428D01*
X180825503Y-89854976D01*
X180784000Y-90063629D01*
X180404000Y-90063629D01*
X180362497Y-89854976D01*
X180281084Y-89658428D01*
X180162891Y-89481540D01*
X180012460Y-89331109D01*
X179835572Y-89212916D01*
X179639024Y-89131503D01*
X179430371Y-89090000D01*
X179217629Y-89090000D01*
X179008976Y-89131503D01*
X178812428Y-89212916D01*
X178635540Y-89331109D01*
X178485109Y-89481540D01*
X178366916Y-89658428D01*
X178285503Y-89854976D01*
X178244000Y-90063629D01*
X177864000Y-90063629D01*
X177822497Y-89854976D01*
X177741084Y-89658428D01*
X177622891Y-89481540D01*
X177472460Y-89331109D01*
X177295572Y-89212916D01*
X177099024Y-89131503D01*
X176890371Y-89090000D01*
X176677629Y-89090000D01*
X176468976Y-89131503D01*
X176272428Y-89212916D01*
X176095540Y-89331109D01*
X175945109Y-89481540D01*
X175826916Y-89658428D01*
X175745503Y-89854976D01*
X175704000Y-90063629D01*
X175324000Y-90063629D01*
X175282497Y-89854976D01*
X175201084Y-89658428D01*
X175082891Y-89481540D01*
X174932460Y-89331109D01*
X174755572Y-89212916D01*
X174559024Y-89131503D01*
X174350371Y-89090000D01*
X174137629Y-89090000D01*
X173928976Y-89131503D01*
X173732428Y-89212916D01*
X173555540Y-89331109D01*
X173405109Y-89481540D01*
X173286916Y-89658428D01*
X173205503Y-89854976D01*
X173164000Y-90063629D01*
X172784000Y-90063629D01*
X172742497Y-89854976D01*
X172661084Y-89658428D01*
X172542891Y-89481540D01*
X172392460Y-89331109D01*
X172215572Y-89212916D01*
X172019024Y-89131503D01*
X171810371Y-89090000D01*
X171597629Y-89090000D01*
X171388976Y-89131503D01*
X171192428Y-89212916D01*
X171015540Y-89331109D01*
X170865109Y-89481540D01*
X170859000Y-89490683D01*
X170859000Y-85012040D01*
X171626041Y-84245000D01*
X173686093Y-84245000D01*
X173700274Y-84266224D01*
X173797776Y-84363726D01*
X173912426Y-84440332D01*
X174039818Y-84493099D01*
X174175056Y-84520000D01*
X174312944Y-84520000D01*
X174448182Y-84493099D01*
X174575574Y-84440332D01*
X174690224Y-84363726D01*
X174787726Y-84266224D01*
X174864332Y-84151574D01*
X174917099Y-84024182D01*
X174944000Y-83888944D01*
X174944000Y-83751056D01*
X174917099Y-83615818D01*
X174864332Y-83488426D01*
X174787726Y-83373776D01*
X174690224Y-83276274D01*
X174575574Y-83199668D01*
X174448182Y-83146901D01*
X174312944Y-83120000D01*
X174175056Y-83120000D01*
X174039818Y-83146901D01*
X173912426Y-83199668D01*
X173797776Y-83276274D01*
X173700274Y-83373776D01*
X173686093Y-83395000D01*
X171470867Y-83395000D01*
X171450000Y-83392945D01*
X171429133Y-83395000D01*
X171429126Y-83395000D01*
X171374327Y-83400397D01*
X171366685Y-83401150D01*
X171349900Y-83406242D01*
X171286573Y-83425452D01*
X171212740Y-83464916D01*
X171148026Y-83518026D01*
X171134721Y-83534238D01*
X170148243Y-84520717D01*
X170132026Y-84534026D01*
X170078916Y-84598741D01*
X170039452Y-84672574D01*
X170015150Y-84752687D01*
X170009000Y-84815127D01*
X170009000Y-84815133D01*
X170006945Y-84836000D01*
X170009000Y-84856867D01*
X170009000Y-89490683D01*
X170002891Y-89481540D01*
X169852460Y-89331109D01*
X169675572Y-89212916D01*
X169479024Y-89131503D01*
X169270371Y-89090000D01*
X169057629Y-89090000D01*
X168848976Y-89131503D01*
X168652428Y-89212916D01*
X168623532Y-89232224D01*
X168636679Y-89207628D01*
X168682424Y-89056827D01*
X168694000Y-88939293D01*
X168694000Y-87923282D01*
X168697869Y-87883999D01*
X168694000Y-87844716D01*
X168694000Y-87844707D01*
X168682424Y-87727173D01*
X168636679Y-87576372D01*
X168562394Y-87437395D01*
X168562393Y-87437393D01*
X168487469Y-87346098D01*
X168462422Y-87315578D01*
X168431903Y-87290532D01*
X167521451Y-86380081D01*
X167521451Y-85510000D01*
X167515659Y-85451190D01*
X167498504Y-85394640D01*
X167470647Y-85342523D01*
X167433158Y-85296842D01*
X167387477Y-85259353D01*
X167335360Y-85231496D01*
X167278810Y-85214341D01*
X167220000Y-85208549D01*
X165520000Y-85208549D01*
X165461190Y-85214341D01*
X165404640Y-85231496D01*
X165352523Y-85259353D01*
X165306842Y-85296842D01*
X165269353Y-85342523D01*
X165241496Y-85394640D01*
X165224341Y-85451190D01*
X165218549Y-85510000D01*
X165218549Y-87210000D01*
X165224341Y-87268810D01*
X165241496Y-87325360D01*
X165269353Y-87377477D01*
X165306842Y-87423158D01*
X165352523Y-87460647D01*
X165404640Y-87488504D01*
X165461190Y-87505659D01*
X165520000Y-87511451D01*
X166390081Y-87511451D01*
X167094000Y-88215371D01*
X167094001Y-88939293D01*
X167105577Y-89056827D01*
X167151322Y-89207628D01*
X167225608Y-89346606D01*
X167227409Y-89348800D01*
X167221093Y-89355116D01*
X167130836Y-89210400D01*
X166933888Y-89129959D01*
X166725031Y-89089487D01*
X166512292Y-89090539D01*
X166303846Y-89133073D01*
X166117164Y-89210400D01*
X166026906Y-89355117D01*
X166624000Y-89952211D01*
X166638142Y-89938069D01*
X166855931Y-90155858D01*
X166841789Y-90170000D01*
X166855931Y-90184142D01*
X166638142Y-90401931D01*
X166624000Y-90387789D01*
X166026906Y-90984883D01*
X166117164Y-91129600D01*
X166314112Y-91210041D01*
X166522969Y-91250513D01*
X166735708Y-91249461D01*
X166944154Y-91206927D01*
X167130836Y-91129600D01*
X167221093Y-90984884D01*
X167227409Y-90991200D01*
X167225608Y-90993394D01*
X167151322Y-91132372D01*
X167105577Y-91283173D01*
X167094001Y-91400707D01*
X167094000Y-106602629D01*
X165530630Y-108166000D01*
X163751207Y-108166000D01*
X163712465Y-108173706D01*
X163673173Y-108177576D01*
X163635393Y-108189037D01*
X163596649Y-108196743D01*
X163560152Y-108211860D01*
X163522372Y-108223321D01*
X163487554Y-108241932D01*
X163451058Y-108257049D01*
X163418210Y-108278997D01*
X163383394Y-108297607D01*
X163352878Y-108322651D01*
X163320030Y-108344599D01*
X163292098Y-108372531D01*
X163261578Y-108397578D01*
X163236531Y-108428098D01*
X163208599Y-108456030D01*
X163186651Y-108488878D01*
X163161607Y-108519394D01*
X163142997Y-108554210D01*
X163121049Y-108587058D01*
X163105932Y-108623554D01*
X163087321Y-108658372D01*
X163075860Y-108696152D01*
X163060743Y-108732649D01*
X163053037Y-108771393D01*
X163041576Y-108809173D01*
X163037706Y-108848465D01*
X163030000Y-108887207D01*
X163030000Y-108926707D01*
X163026130Y-108966000D01*
X163030000Y-109005293D01*
X163030000Y-109044793D01*
X163037706Y-109083535D01*
X163041576Y-109122827D01*
X163053037Y-109160607D01*
X163060743Y-109199351D01*
X163075860Y-109235848D01*
X163087321Y-109273628D01*
X163105932Y-109308446D01*
X163121049Y-109344942D01*
X163142997Y-109377790D01*
X163161607Y-109412606D01*
X163186651Y-109443122D01*
X163208599Y-109475970D01*
X163236531Y-109503902D01*
X163261578Y-109534422D01*
X163292098Y-109559469D01*
X163320030Y-109587401D01*
X163352878Y-109609349D01*
X163383394Y-109634393D01*
X163418210Y-109653003D01*
X163451058Y-109674951D01*
X163487554Y-109690068D01*
X163522372Y-109708679D01*
X163560152Y-109720140D01*
X163596649Y-109735257D01*
X163635393Y-109742963D01*
X163673173Y-109754424D01*
X163712465Y-109758294D01*
X163751207Y-109766000D01*
X165822709Y-109766000D01*
X165862000Y-109769870D01*
X165901291Y-109766000D01*
X165901293Y-109766000D01*
X166018827Y-109754424D01*
X166169628Y-109708679D01*
X166308606Y-109634393D01*
X166430422Y-109534422D01*
X166455473Y-109503897D01*
X168431903Y-107527467D01*
X168462422Y-107502422D01*
X168487469Y-107471902D01*
X168562393Y-107380607D01*
X168636679Y-107241628D01*
X168636679Y-107241627D01*
X168682424Y-107090827D01*
X168694000Y-106973293D01*
X168694000Y-106973291D01*
X168697870Y-106934000D01*
X168694000Y-106894709D01*
X168694000Y-91400707D01*
X168682424Y-91283173D01*
X168636679Y-91132372D01*
X168623532Y-91107776D01*
X168652428Y-91127084D01*
X168848976Y-91208497D01*
X169057629Y-91250000D01*
X169270371Y-91250000D01*
X169479024Y-91208497D01*
X169675572Y-91127084D01*
X169852460Y-91008891D01*
X170002891Y-90858460D01*
X170009000Y-90849317D01*
X170009001Y-110215123D01*
X170006945Y-110236000D01*
X170015150Y-110319314D01*
X170039453Y-110399427D01*
X170078917Y-110473260D01*
X170132027Y-110537974D01*
X170148239Y-110551279D01*
X172767949Y-113170990D01*
X153886877Y-113170990D01*
X153866010Y-113168935D01*
X153845143Y-113170990D01*
X153845136Y-113170990D01*
X153790337Y-113176387D01*
X153782695Y-113177140D01*
X153758393Y-113184512D01*
X153702583Y-113201442D01*
X153628750Y-113240906D01*
X153564036Y-113294016D01*
X153550731Y-113310228D01*
X152368243Y-114492717D01*
X152352026Y-114506026D01*
X152326749Y-114536826D01*
X152279360Y-114511496D01*
X152222810Y-114494341D01*
X152164000Y-114488549D01*
X150604000Y-114488549D01*
X150545190Y-114494341D01*
X150488640Y-114511496D01*
X150436523Y-114539353D01*
X150390842Y-114576842D01*
X150353353Y-114622523D01*
X150325496Y-114674640D01*
X150308341Y-114731190D01*
X150302549Y-114790000D01*
X150302549Y-115020000D01*
X149325817Y-115020000D01*
X147870000Y-113564183D01*
X147870000Y-102036834D01*
X147940332Y-101931574D01*
X147993099Y-101804182D01*
X148020000Y-101668944D01*
X148020000Y-101531056D01*
X147993099Y-101395818D01*
X147940332Y-101268426D01*
X147863726Y-101153776D01*
X147766224Y-101056274D01*
X147651574Y-100979668D01*
X147524182Y-100926901D01*
X147388944Y-100900000D01*
X147251056Y-100900000D01*
X147115818Y-100926901D01*
X146988426Y-100979668D01*
X146873776Y-101056274D01*
X146776274Y-101153776D01*
X146699668Y-101268426D01*
X146646901Y-101395818D01*
X146620000Y-101531056D01*
X126565075Y-101531056D01*
X126565075Y-92964000D01*
X126563154Y-92944491D01*
X126557463Y-92925732D01*
X126548222Y-92908443D01*
X126535786Y-92893289D01*
X126520632Y-92880853D01*
X126503343Y-92871612D01*
X126484584Y-92865921D01*
X126465075Y-92864000D01*
X120824320Y-92864000D01*
X120824367Y-90984883D01*
X150786906Y-90984883D01*
X150877164Y-91129600D01*
X151074112Y-91210041D01*
X151282969Y-91250513D01*
X151495708Y-91249461D01*
X151704154Y-91206927D01*
X151890836Y-91129600D01*
X151981094Y-90984883D01*
X151384000Y-90387789D01*
X150786906Y-90984883D01*
X120824367Y-90984883D01*
X120824391Y-90068969D01*
X150303487Y-90068969D01*
X150304539Y-90281708D01*
X150347073Y-90490154D01*
X150424400Y-90676836D01*
X150569117Y-90767094D01*
X151166211Y-90170000D01*
X151601789Y-90170000D01*
X152198883Y-90767094D01*
X152343600Y-90676836D01*
X152424041Y-90479888D01*
X152464513Y-90271031D01*
X152463488Y-90063629D01*
X152844000Y-90063629D01*
X152844000Y-90276371D01*
X152885503Y-90485024D01*
X152966916Y-90681572D01*
X153085109Y-90858460D01*
X153235540Y-91008891D01*
X153412428Y-91127084D01*
X153608976Y-91208497D01*
X153817629Y-91250000D01*
X154030371Y-91250000D01*
X154239024Y-91208497D01*
X154435572Y-91127084D01*
X154612460Y-91008891D01*
X154762891Y-90858460D01*
X154881084Y-90681572D01*
X154962497Y-90485024D01*
X155004000Y-90276371D01*
X155004000Y-90063629D01*
X155384000Y-90063629D01*
X155384000Y-90276371D01*
X155425503Y-90485024D01*
X155506916Y-90681572D01*
X155625109Y-90858460D01*
X155775540Y-91008891D01*
X155952428Y-91127084D01*
X156148976Y-91208497D01*
X156357629Y-91250000D01*
X156570371Y-91250000D01*
X156779024Y-91208497D01*
X156975572Y-91127084D01*
X157152460Y-91008891D01*
X157302891Y-90858460D01*
X157421084Y-90681572D01*
X157502497Y-90485024D01*
X157544000Y-90276371D01*
X157544000Y-90063629D01*
X157924000Y-90063629D01*
X157924000Y-90276371D01*
X157965503Y-90485024D01*
X158046916Y-90681572D01*
X158165109Y-90858460D01*
X158315540Y-91008891D01*
X158492428Y-91127084D01*
X158688976Y-91208497D01*
X158897629Y-91250000D01*
X159110371Y-91250000D01*
X159319024Y-91208497D01*
X159515572Y-91127084D01*
X159692460Y-91008891D01*
X159842891Y-90858460D01*
X159961084Y-90681572D01*
X160042497Y-90485024D01*
X160084000Y-90276371D01*
X160084000Y-90063629D01*
X160464000Y-90063629D01*
X160464000Y-90276371D01*
X160505503Y-90485024D01*
X160586916Y-90681572D01*
X160705109Y-90858460D01*
X160855540Y-91008891D01*
X161032428Y-91127084D01*
X161228976Y-91208497D01*
X161437629Y-91250000D01*
X161650371Y-91250000D01*
X161859024Y-91208497D01*
X162055572Y-91127084D01*
X162232460Y-91008891D01*
X162382891Y-90858460D01*
X162501084Y-90681572D01*
X162582497Y-90485024D01*
X162624000Y-90276371D01*
X162624000Y-90063629D01*
X163004000Y-90063629D01*
X163004000Y-90276371D01*
X163045503Y-90485024D01*
X163126916Y-90681572D01*
X163245109Y-90858460D01*
X163395540Y-91008891D01*
X163572428Y-91127084D01*
X163768976Y-91208497D01*
X163977629Y-91250000D01*
X164190371Y-91250000D01*
X164399024Y-91208497D01*
X164595572Y-91127084D01*
X164772460Y-91008891D01*
X164922891Y-90858460D01*
X165041084Y-90681572D01*
X165122497Y-90485024D01*
X165164000Y-90276371D01*
X165164000Y-90068969D01*
X165543487Y-90068969D01*
X165544539Y-90281708D01*
X165587073Y-90490154D01*
X165664400Y-90676836D01*
X165809117Y-90767094D01*
X166406211Y-90170000D01*
X165809117Y-89572906D01*
X165664400Y-89663164D01*
X165583959Y-89860112D01*
X165543487Y-90068969D01*
X165164000Y-90068969D01*
X165164000Y-90063629D01*
X165122497Y-89854976D01*
X165041084Y-89658428D01*
X164922891Y-89481540D01*
X164772460Y-89331109D01*
X164595572Y-89212916D01*
X164399024Y-89131503D01*
X164190371Y-89090000D01*
X163977629Y-89090000D01*
X163768976Y-89131503D01*
X163572428Y-89212916D01*
X163395540Y-89331109D01*
X163245109Y-89481540D01*
X163126916Y-89658428D01*
X163045503Y-89854976D01*
X163004000Y-90063629D01*
X162624000Y-90063629D01*
X162582497Y-89854976D01*
X162501084Y-89658428D01*
X162382891Y-89481540D01*
X162232460Y-89331109D01*
X162055572Y-89212916D01*
X161859024Y-89131503D01*
X161650371Y-89090000D01*
X161437629Y-89090000D01*
X161228976Y-89131503D01*
X161032428Y-89212916D01*
X160855540Y-89331109D01*
X160705109Y-89481540D01*
X160586916Y-89658428D01*
X160505503Y-89854976D01*
X160464000Y-90063629D01*
X160084000Y-90063629D01*
X160042497Y-89854976D01*
X159961084Y-89658428D01*
X159842891Y-89481540D01*
X159692460Y-89331109D01*
X159515572Y-89212916D01*
X159319024Y-89131503D01*
X159110371Y-89090000D01*
X158897629Y-89090000D01*
X158688976Y-89131503D01*
X158492428Y-89212916D01*
X158315540Y-89331109D01*
X158165109Y-89481540D01*
X158046916Y-89658428D01*
X157965503Y-89854976D01*
X157924000Y-90063629D01*
X157544000Y-90063629D01*
X157502497Y-89854976D01*
X157421084Y-89658428D01*
X157302891Y-89481540D01*
X157152460Y-89331109D01*
X156975572Y-89212916D01*
X156779024Y-89131503D01*
X156570371Y-89090000D01*
X156357629Y-89090000D01*
X156148976Y-89131503D01*
X155952428Y-89212916D01*
X155775540Y-89331109D01*
X155625109Y-89481540D01*
X155506916Y-89658428D01*
X155425503Y-89854976D01*
X155384000Y-90063629D01*
X155004000Y-90063629D01*
X154962497Y-89854976D01*
X154881084Y-89658428D01*
X154762891Y-89481540D01*
X154612460Y-89331109D01*
X154435572Y-89212916D01*
X154239024Y-89131503D01*
X154030371Y-89090000D01*
X153817629Y-89090000D01*
X153608976Y-89131503D01*
X153412428Y-89212916D01*
X153235540Y-89331109D01*
X153085109Y-89481540D01*
X152966916Y-89658428D01*
X152885503Y-89854976D01*
X152844000Y-90063629D01*
X152463488Y-90063629D01*
X152463461Y-90058292D01*
X152420927Y-89849846D01*
X152343600Y-89663164D01*
X152198883Y-89572906D01*
X151601789Y-90170000D01*
X151166211Y-90170000D01*
X150569117Y-89572906D01*
X150424400Y-89663164D01*
X150343959Y-89860112D01*
X150303487Y-90068969D01*
X120824391Y-90068969D01*
X120824392Y-90038795D01*
X120909433Y-90016000D01*
X133358000Y-90016000D01*
X133383882Y-90012593D01*
X133633882Y-89945606D01*
X133652229Y-89938700D01*
X133668876Y-89928348D01*
X133678711Y-89919724D01*
X133861724Y-89736711D01*
X133874160Y-89721557D01*
X133883401Y-89704268D01*
X133887606Y-89691882D01*
X133954593Y-89441882D01*
X133958000Y-89416000D01*
X133958000Y-89355117D01*
X150786906Y-89355117D01*
X151384000Y-89952211D01*
X151981094Y-89355117D01*
X151890836Y-89210400D01*
X151693888Y-89129959D01*
X151485031Y-89089487D01*
X151272292Y-89090539D01*
X151063846Y-89133073D01*
X150877164Y-89210400D01*
X150786906Y-89355117D01*
X133958000Y-89355117D01*
X133958000Y-87210000D01*
X146930548Y-87210000D01*
X146936340Y-87268810D01*
X146953495Y-87325361D01*
X146981352Y-87377478D01*
X147018841Y-87423159D01*
X147064522Y-87460648D01*
X147116639Y-87488505D01*
X147173190Y-87505660D01*
X147232000Y-87511452D01*
X147853000Y-87510000D01*
X147928000Y-87435000D01*
X147928000Y-86514000D01*
X148236000Y-86514000D01*
X148236000Y-87435000D01*
X148311000Y-87510000D01*
X148932000Y-87511452D01*
X148990810Y-87505660D01*
X149047361Y-87488505D01*
X149099478Y-87460648D01*
X149145159Y-87423159D01*
X149182648Y-87377478D01*
X149210505Y-87325361D01*
X149227660Y-87268810D01*
X149233452Y-87210000D01*
X149232000Y-86589000D01*
X149157000Y-86514000D01*
X148236000Y-86514000D01*
X147928000Y-86514000D01*
X147007000Y-86514000D01*
X146932000Y-86589000D01*
X146930548Y-87210000D01*
X133958000Y-87210000D01*
X133958000Y-86246735D01*
X149472000Y-86246735D01*
X149472000Y-86473265D01*
X149516194Y-86695443D01*
X149602884Y-86904729D01*
X149728737Y-87093082D01*
X149888918Y-87253263D01*
X150077271Y-87379116D01*
X150286557Y-87465806D01*
X150508735Y-87510000D01*
X150735265Y-87510000D01*
X150957443Y-87465806D01*
X151166729Y-87379116D01*
X151355082Y-87253263D01*
X151515263Y-87093082D01*
X151641116Y-86904729D01*
X151727806Y-86695443D01*
X151772000Y-86473265D01*
X151772000Y-86246735D01*
X152012000Y-86246735D01*
X152012000Y-86473265D01*
X152056194Y-86695443D01*
X152142884Y-86904729D01*
X152268737Y-87093082D01*
X152428918Y-87253263D01*
X152617271Y-87379116D01*
X152826557Y-87465806D01*
X153048735Y-87510000D01*
X153275265Y-87510000D01*
X153497443Y-87465806D01*
X153706729Y-87379116D01*
X153895082Y-87253263D01*
X154055263Y-87093082D01*
X154181116Y-86904729D01*
X154267806Y-86695443D01*
X154312000Y-86473265D01*
X154312000Y-86246735D01*
X154552000Y-86246735D01*
X154552000Y-86473265D01*
X154596194Y-86695443D01*
X154682884Y-86904729D01*
X154808737Y-87093082D01*
X154968918Y-87253263D01*
X155157271Y-87379116D01*
X155366557Y-87465806D01*
X155588735Y-87510000D01*
X155815265Y-87510000D01*
X156037443Y-87465806D01*
X156246729Y-87379116D01*
X156435082Y-87253263D01*
X156478345Y-87210000D01*
X158614548Y-87210000D01*
X158620340Y-87268810D01*
X158637495Y-87325361D01*
X158665352Y-87377478D01*
X158702841Y-87423159D01*
X158748522Y-87460648D01*
X158800639Y-87488505D01*
X158857190Y-87505660D01*
X158916000Y-87511452D01*
X159537000Y-87510000D01*
X159612000Y-87435000D01*
X159612000Y-86514000D01*
X159920000Y-86514000D01*
X159920000Y-87435000D01*
X159995000Y-87510000D01*
X160616000Y-87511452D01*
X160674810Y-87505660D01*
X160731361Y-87488505D01*
X160783478Y-87460648D01*
X160829159Y-87423159D01*
X160866648Y-87377478D01*
X160894505Y-87325361D01*
X160911660Y-87268810D01*
X160917452Y-87210000D01*
X160916000Y-86589000D01*
X160841000Y-86514000D01*
X159920000Y-86514000D01*
X159612000Y-86514000D01*
X158691000Y-86514000D01*
X158616000Y-86589000D01*
X158614548Y-87210000D01*
X156478345Y-87210000D01*
X156595263Y-87093082D01*
X156721116Y-86904729D01*
X156807806Y-86695443D01*
X156852000Y-86473265D01*
X156852000Y-86246735D01*
X161156000Y-86246735D01*
X161156000Y-86473265D01*
X161200194Y-86695443D01*
X161286884Y-86904729D01*
X161412737Y-87093082D01*
X161572918Y-87253263D01*
X161761271Y-87379116D01*
X161970557Y-87465806D01*
X162192735Y-87510000D01*
X162419265Y-87510000D01*
X162641443Y-87465806D01*
X162850729Y-87379116D01*
X163039082Y-87253263D01*
X163199263Y-87093082D01*
X163325116Y-86904729D01*
X163411806Y-86695443D01*
X163456000Y-86473265D01*
X163456000Y-86246735D01*
X163411806Y-86024557D01*
X163325116Y-85815271D01*
X163199263Y-85626918D01*
X163039082Y-85466737D01*
X162850729Y-85340884D01*
X162641443Y-85254194D01*
X162419265Y-85210000D01*
X162192735Y-85210000D01*
X161970557Y-85254194D01*
X161761271Y-85340884D01*
X161572918Y-85466737D01*
X161412737Y-85626918D01*
X161286884Y-85815271D01*
X161200194Y-86024557D01*
X161156000Y-86246735D01*
X156852000Y-86246735D01*
X156807806Y-86024557D01*
X156721116Y-85815271D01*
X156595263Y-85626918D01*
X156478345Y-85510000D01*
X158614548Y-85510000D01*
X158616000Y-86131000D01*
X158691000Y-86206000D01*
X159612000Y-86206000D01*
X159612000Y-85285000D01*
X159920000Y-85285000D01*
X159920000Y-86206000D01*
X160841000Y-86206000D01*
X160916000Y-86131000D01*
X160917452Y-85510000D01*
X160911660Y-85451190D01*
X160894505Y-85394639D01*
X160866648Y-85342522D01*
X160829159Y-85296841D01*
X160783478Y-85259352D01*
X160731361Y-85231495D01*
X160674810Y-85214340D01*
X160616000Y-85208548D01*
X159995000Y-85210000D01*
X159920000Y-85285000D01*
X159612000Y-85285000D01*
X159537000Y-85210000D01*
X158916000Y-85208548D01*
X158857190Y-85214340D01*
X158800639Y-85231495D01*
X158748522Y-85259352D01*
X158702841Y-85296841D01*
X158665352Y-85342522D01*
X158637495Y-85394639D01*
X158620340Y-85451190D01*
X158614548Y-85510000D01*
X156478345Y-85510000D01*
X156435082Y-85466737D01*
X156246729Y-85340884D01*
X156037443Y-85254194D01*
X155815265Y-85210000D01*
X155588735Y-85210000D01*
X155366557Y-85254194D01*
X155157271Y-85340884D01*
X154968918Y-85466737D01*
X154808737Y-85626918D01*
X154682884Y-85815271D01*
X154596194Y-86024557D01*
X154552000Y-86246735D01*
X154312000Y-86246735D01*
X154267806Y-86024557D01*
X154181116Y-85815271D01*
X154055263Y-85626918D01*
X153895082Y-85466737D01*
X153706729Y-85340884D01*
X153497443Y-85254194D01*
X153275265Y-85210000D01*
X153048735Y-85210000D01*
X152826557Y-85254194D01*
X152617271Y-85340884D01*
X152428918Y-85466737D01*
X152268737Y-85626918D01*
X152142884Y-85815271D01*
X152056194Y-86024557D01*
X152012000Y-86246735D01*
X151772000Y-86246735D01*
X151727806Y-86024557D01*
X151641116Y-85815271D01*
X151515263Y-85626918D01*
X151355082Y-85466737D01*
X151166729Y-85340884D01*
X150957443Y-85254194D01*
X150735265Y-85210000D01*
X150508735Y-85210000D01*
X150286557Y-85254194D01*
X150077271Y-85340884D01*
X149888918Y-85466737D01*
X149728737Y-85626918D01*
X149602884Y-85815271D01*
X149516194Y-86024557D01*
X149472000Y-86246735D01*
X133958000Y-86246735D01*
X133958000Y-85857167D01*
X134014645Y-85645764D01*
X134150409Y-85510000D01*
X146930548Y-85510000D01*
X146932000Y-86131000D01*
X147007000Y-86206000D01*
X147928000Y-86206000D01*
X147928000Y-85285000D01*
X148236000Y-85285000D01*
X148236000Y-86206000D01*
X149157000Y-86206000D01*
X149232000Y-86131000D01*
X149233452Y-85510000D01*
X149227660Y-85451190D01*
X149210505Y-85394639D01*
X149182648Y-85342522D01*
X149145159Y-85296841D01*
X149099478Y-85259352D01*
X149047361Y-85231495D01*
X148990810Y-85214340D01*
X148932000Y-85208548D01*
X148311000Y-85210000D01*
X148236000Y-85285000D01*
X147928000Y-85285000D01*
X147853000Y-85210000D01*
X147232000Y-85208548D01*
X147173190Y-85214340D01*
X147116639Y-85231495D01*
X147064522Y-85259352D01*
X147018841Y-85296841D01*
X146981352Y-85342522D01*
X146953495Y-85394639D01*
X146936340Y-85451190D01*
X146930548Y-85510000D01*
X134150409Y-85510000D01*
X134159764Y-85500645D01*
X134371167Y-85444000D01*
X142113000Y-85444000D01*
X142132509Y-85442079D01*
X142151268Y-85436388D01*
X142241071Y-85399191D01*
X142258360Y-85389950D01*
X142273513Y-85377514D01*
X142285950Y-85362361D01*
X142295191Y-85345071D01*
X142353734Y-85203734D01*
X142386891Y-85190000D01*
X163838000Y-85190000D01*
X163863882Y-85186593D01*
X164113882Y-85119606D01*
X164132229Y-85112700D01*
X164148876Y-85102348D01*
X164158711Y-85093724D01*
X164341724Y-84910711D01*
X164354160Y-84895557D01*
X164363401Y-84878268D01*
X164367606Y-84865882D01*
X164434593Y-84615882D01*
X164438000Y-84590000D01*
X164438000Y-84150383D01*
X165268480Y-84150383D01*
X165270561Y-84157272D01*
X165357485Y-84365281D01*
X165483319Y-84552336D01*
X165643228Y-84711247D01*
X165831066Y-84835908D01*
X166039615Y-84921528D01*
X166216000Y-84884650D01*
X166216000Y-83974000D01*
X166524000Y-83974000D01*
X166524000Y-84884650D01*
X166700385Y-84921528D01*
X166908934Y-84835908D01*
X167096772Y-84711247D01*
X167256681Y-84552336D01*
X167382515Y-84365281D01*
X167469439Y-84157272D01*
X167471520Y-84150383D01*
X167433912Y-83974000D01*
X166524000Y-83974000D01*
X166216000Y-83974000D01*
X165306088Y-83974000D01*
X165268480Y-84150383D01*
X164438000Y-84150383D01*
X164438000Y-83317167D01*
X164494645Y-83105764D01*
X164639764Y-82960645D01*
X164851167Y-82904000D01*
X165680526Y-82904000D01*
X165643228Y-82928753D01*
G37*
X165643228Y-82928753D02*
X165483319Y-83087664D01*
X165357485Y-83274719D01*
X165270561Y-83482728D01*
X165268480Y-83489617D01*
X165306088Y-83666000D01*
X166216000Y-83666000D01*
X166216000Y-83646000D01*
X166524000Y-83646000D01*
X166524000Y-83666000D01*
X167433912Y-83666000D01*
X167471520Y-83489617D01*
X167469439Y-83482728D01*
X167382515Y-83274719D01*
X167256681Y-83087664D01*
X167096772Y-82928753D01*
X167059474Y-82904000D01*
X176270833Y-82904000D01*
X176482236Y-82960645D01*
X176627355Y-83105764D01*
X176684000Y-83317167D01*
X176684000Y-87892000D01*
X176687407Y-87917882D01*
X176754394Y-88167882D01*
X176761300Y-88186229D01*
X176771652Y-88202876D01*
X176780276Y-88212711D01*
X176963289Y-88395724D01*
X176978443Y-88408160D01*
X176995732Y-88417401D01*
X177008118Y-88421606D01*
X177258118Y-88488593D01*
X177284000Y-88492000D01*
X197861387Y-88492000D01*
X198025001Y-88535809D01*
X198025001Y-89604426D01*
X197942891Y-89481540D01*
X197792460Y-89331109D01*
X197615572Y-89212916D01*
X197419024Y-89131503D01*
X197210371Y-89090000D01*
X196997629Y-89090000D01*
X196788976Y-89131503D01*
X196592428Y-89212916D01*
X196415540Y-89331109D01*
X196265109Y-89481540D01*
X196146916Y-89658428D01*
X196065503Y-89854976D01*
X196024000Y-90063629D01*
X196024000Y-90276371D01*
X196065503Y-90485024D01*
X196146916Y-90681572D01*
X196265109Y-90858460D01*
X196415540Y-91008891D01*
X196592428Y-91127084D01*
X196788976Y-91208497D01*
X196997629Y-91250000D01*
X197210371Y-91250000D01*
X197419024Y-91208497D01*
X197615572Y-91127084D01*
X197792460Y-91008891D01*
X197942891Y-90858460D01*
X198025001Y-90735574D01*
X198025000Y-115004425D01*
X197942891Y-114881540D01*
X197792460Y-114731109D01*
X197615572Y-114612916D01*
X197419024Y-114531503D01*
X197210371Y-114490000D01*
X196997629Y-114490000D01*
X196788976Y-114531503D01*
X196592428Y-114612916D01*
X196415540Y-114731109D01*
X196265109Y-114881540D01*
X196146916Y-115058428D01*
X196065503Y-115254976D01*
X196024000Y-115463629D01*
X196024000Y-115676371D01*
X196065503Y-115885024D01*
X196146916Y-116081572D01*
X196265109Y-116258460D01*
X196304001Y-116297352D01*
X196304001Y-116341715D01*
X195589716Y-117056000D01*
X160195207Y-117056000D01*
X160156465Y-117063706D01*
X160117173Y-117067576D01*
X160079393Y-117079037D01*
X160040649Y-117086743D01*
X160004152Y-117101860D01*
X159966372Y-117113321D01*
X159931554Y-117131932D01*
X159895058Y-117147049D01*
X159862210Y-117168997D01*
X159827394Y-117187607D01*
X159796878Y-117212651D01*
X159764030Y-117234599D01*
X159736098Y-117262531D01*
X159705578Y-117287578D01*
X159680531Y-117318098D01*
X159652599Y-117346030D01*
X159630651Y-117378878D01*
X159605607Y-117409394D01*
X159586997Y-117444210D01*
X159565049Y-117477058D01*
X159549932Y-117513554D01*
X159531321Y-117548372D01*
X159519860Y-117586152D01*
X159504743Y-117622649D01*
X159497037Y-117661393D01*
X159485576Y-117699173D01*
X159481706Y-117738465D01*
X159474000Y-117777207D01*
X159474000Y-117816707D01*
X159470130Y-117856000D01*
X159474000Y-117895293D01*
X159474000Y-117934793D01*
X159481706Y-117973535D01*
X159485576Y-118012827D01*
X159497037Y-118050607D01*
X159504743Y-118089351D01*
X159519860Y-118125848D01*
X159531321Y-118163628D01*
X159549932Y-118198446D01*
X159565049Y-118234942D01*
X159586997Y-118267790D01*
X159605607Y-118302606D01*
X159630651Y-118333122D01*
X159652599Y-118365970D01*
X159680531Y-118393902D01*
X159705578Y-118424422D01*
X159736098Y-118449469D01*
X159764030Y-118477401D01*
X159796878Y-118499349D01*
X159827394Y-118524393D01*
X159862210Y-118543003D01*
X159895058Y-118564951D01*
X159931554Y-118580068D01*
X159966372Y-118598679D01*
X160004152Y-118610140D01*
X160040649Y-118625257D01*
X160079393Y-118632963D01*
X160117173Y-118644424D01*
X160156465Y-118648294D01*
X160195207Y-118656000D01*
X195881795Y-118656000D01*
X195921086Y-118659870D01*
X195960377Y-118656000D01*
X195960379Y-118656000D01*
X196077913Y-118644424D01*
X196228714Y-118598679D01*
X196367692Y-118524393D01*
X196489508Y-118424422D01*
X196514559Y-118393897D01*
X197641902Y-117266555D01*
X197672422Y-117241508D01*
X197749942Y-117147049D01*
X197772393Y-117119693D01*
X197846679Y-116980714D01*
X197892424Y-116829913D01*
X197904000Y-116712379D01*
X197904000Y-116712378D01*
X197907870Y-116673087D01*
X197904000Y-116633796D01*
X197904000Y-116297351D01*
X197942891Y-116258460D01*
X198025000Y-116135575D01*
X198025000Y-122427177D01*
X197996898Y-122304851D01*
X197899722Y-122088503D01*
X197762206Y-121895270D01*
X197589634Y-121732578D01*
X197388638Y-121606679D01*
X197188273Y-121538666D01*
X197004000Y-121575590D01*
X197004000Y-123036000D01*
X197024000Y-123036000D01*
X197024000Y-123344000D01*
X197004000Y-123344000D01*
X197004000Y-124804410D01*
X197188273Y-124841334D01*
X197388638Y-124773321D01*
X197589634Y-124647422D01*
X197762206Y-124484730D01*
X197899722Y-124291497D01*
X197996898Y-124075149D01*
X198025000Y-123952823D01*
X198025000Y-128977967D01*
X191223468Y-129942382D01*
X184058838Y-130805641D01*
X176877674Y-131518668D01*
X169683164Y-132081148D01*
X162478465Y-132492833D01*
X155266079Y-132753567D01*
X150800000Y-132836773D01*
X150800000Y-127362866D01*
X169525000Y-127362866D01*
X169525000Y-127737134D01*
X169598016Y-128104209D01*
X169741242Y-128449987D01*
X169949174Y-128761179D01*
X170213821Y-129025826D01*
X170525013Y-129233758D01*
X170870791Y-129376984D01*
X171237866Y-129450000D01*
X171612134Y-129450000D01*
X171979209Y-129376984D01*
X172324987Y-129233758D01*
X172636179Y-129025826D01*
X172900826Y-128761179D01*
X173108758Y-128449987D01*
X173251984Y-128104209D01*
X173325000Y-127737134D01*
X173325000Y-127362866D01*
X173251984Y-126995791D01*
X173108758Y-126650013D01*
X172900826Y-126338821D01*
X172636179Y-126074174D01*
X172324987Y-125866242D01*
X171979209Y-125723016D01*
X171612134Y-125650000D01*
X171237866Y-125650000D01*
X170870791Y-125723016D01*
X170525013Y-125866242D01*
X170213821Y-126074174D01*
X169949174Y-126338821D01*
X169741242Y-126650013D01*
X169598016Y-126995791D01*
X169525000Y-127362866D01*
X150800000Y-127362866D01*
X150800000Y-125781581D01*
X150799872Y-125780277D01*
X150799601Y-125741532D01*
X150797820Y-125724589D01*
X150797820Y-125707557D01*
X150797273Y-125702350D01*
X150710253Y-124926552D01*
X150703181Y-124893283D01*
X150696584Y-124859966D01*
X150695036Y-124854964D01*
X150461259Y-124118000D01*
X175124549Y-124118000D01*
X175124549Y-125818000D01*
X175130341Y-125876810D01*
X175147496Y-125933360D01*
X175175353Y-125985477D01*
X175212842Y-126031158D01*
X175258523Y-126068647D01*
X175310640Y-126096504D01*
X175367190Y-126113659D01*
X175426000Y-126119451D01*
X177126000Y-126119451D01*
X177184810Y-126113659D01*
X177241360Y-126096504D01*
X177293477Y-126068647D01*
X177339158Y-126031158D01*
X177376647Y-125985477D01*
X177404504Y-125933360D01*
X177421659Y-125876810D01*
X177427451Y-125818000D01*
X177427451Y-124918235D01*
X180587000Y-124918235D01*
X180587000Y-125144765D01*
X180631194Y-125366943D01*
X180717884Y-125576229D01*
X180843737Y-125764582D01*
X181003918Y-125924763D01*
X181192271Y-126050616D01*
X181401557Y-126137306D01*
X181623735Y-126181500D01*
X181850265Y-126181500D01*
X182072443Y-126137306D01*
X182281729Y-126050616D01*
X182470082Y-125924763D01*
X182630263Y-125764582D01*
X182756116Y-125576229D01*
X182842806Y-125366943D01*
X182887000Y-125144765D01*
X182887000Y-124918235D01*
X182842806Y-124696057D01*
X182815879Y-124631050D01*
X187750000Y-124631050D01*
X187750000Y-125748949D01*
X187767363Y-125925240D01*
X187835981Y-126151441D01*
X187947409Y-126359909D01*
X188097366Y-126542634D01*
X188280090Y-126692591D01*
X188488558Y-126804019D01*
X188714759Y-126872637D01*
X188950000Y-126895806D01*
X189185240Y-126872637D01*
X189411441Y-126804019D01*
X189619909Y-126692591D01*
X189802634Y-126542634D01*
X189952591Y-126359910D01*
X190064019Y-126151442D01*
X190132637Y-125925241D01*
X190150000Y-125748950D01*
X190150000Y-124631050D01*
X193250000Y-124631050D01*
X193250000Y-125748949D01*
X193267363Y-125925240D01*
X193335981Y-126151441D01*
X193447409Y-126359909D01*
X193597366Y-126542634D01*
X193780090Y-126692591D01*
X193988558Y-126804019D01*
X194214759Y-126872637D01*
X194450000Y-126895806D01*
X194685240Y-126872637D01*
X194911441Y-126804019D01*
X195119909Y-126692591D01*
X195302634Y-126542634D01*
X195452591Y-126359910D01*
X195564019Y-126151442D01*
X195632637Y-125925241D01*
X195650000Y-125748950D01*
X195650000Y-124631050D01*
X195632637Y-124454759D01*
X195564019Y-124228558D01*
X195452591Y-124020090D01*
X195302634Y-123837366D01*
X195119910Y-123687409D01*
X194911442Y-123575981D01*
X194685241Y-123507363D01*
X194450000Y-123484194D01*
X194214760Y-123507363D01*
X193988559Y-123575981D01*
X193780091Y-123687409D01*
X193597367Y-123837366D01*
X193447410Y-124020090D01*
X193335981Y-124228558D01*
X193267363Y-124454759D01*
X193250000Y-124631050D01*
X190150000Y-124631050D01*
X190132637Y-124454759D01*
X190064019Y-124228558D01*
X189952591Y-124020090D01*
X189802634Y-123837366D01*
X189619910Y-123687409D01*
X189411442Y-123575981D01*
X189185241Y-123507363D01*
X188950000Y-123484194D01*
X188714760Y-123507363D01*
X188488559Y-123575981D01*
X188280091Y-123687409D01*
X188097367Y-123837366D01*
X187947410Y-124020090D01*
X187835981Y-124228558D01*
X187767363Y-124454759D01*
X187750000Y-124631050D01*
X182815879Y-124631050D01*
X182756116Y-124486771D01*
X182630263Y-124298418D01*
X182470082Y-124138237D01*
X182281729Y-124012384D01*
X182072443Y-123925694D01*
X181850265Y-123881500D01*
X181623735Y-123881500D01*
X181401557Y-123925694D01*
X181192271Y-124012384D01*
X181003918Y-124138237D01*
X180843737Y-124298418D01*
X180717884Y-124486771D01*
X180631194Y-124696057D01*
X180587000Y-124918235D01*
X177427451Y-124918235D01*
X177427451Y-124118000D01*
X177421659Y-124059190D01*
X177404504Y-124002640D01*
X177376647Y-123950523D01*
X177339158Y-123904842D01*
X177293477Y-123867353D01*
X177241360Y-123839496D01*
X177184810Y-123822341D01*
X177126000Y-123816549D01*
X175426000Y-123816549D01*
X175367190Y-123822341D01*
X175310640Y-123839496D01*
X175258523Y-123867353D01*
X175212842Y-123904842D01*
X175175353Y-123950523D01*
X175147496Y-124002640D01*
X175130341Y-124059190D01*
X175124549Y-124118000D01*
X150461259Y-124118000D01*
X150458988Y-124110843D01*
X150445576Y-124079551D01*
X150432646Y-124048181D01*
X150430156Y-124043575D01*
X150430156Y-124043574D01*
X150430153Y-124043570D01*
X150054069Y-123359474D01*
X150034847Y-123331402D01*
X150016058Y-123303122D01*
X150012721Y-123299087D01*
X149995027Y-123278000D01*
X151502548Y-123278000D01*
X151508340Y-123336810D01*
X151525495Y-123393361D01*
X151553352Y-123445478D01*
X151590841Y-123491159D01*
X151636522Y-123528648D01*
X151688639Y-123556505D01*
X151745190Y-123573660D01*
X151804000Y-123579452D01*
X152425000Y-123578000D01*
X152500000Y-123503000D01*
X152500000Y-122582000D01*
X152808000Y-122582000D01*
X152808000Y-123503000D01*
X152883000Y-123578000D01*
X153504000Y-123579452D01*
X153562810Y-123573660D01*
X153619361Y-123556505D01*
X153671478Y-123528648D01*
X153717159Y-123491159D01*
X153754648Y-123445478D01*
X153782505Y-123393361D01*
X153799660Y-123336810D01*
X153805452Y-123278000D01*
X153804000Y-122657000D01*
X153729000Y-122582000D01*
X152808000Y-122582000D01*
X152500000Y-122582000D01*
X151579000Y-122582000D01*
X151504000Y-122657000D01*
X151502548Y-123278000D01*
X149995027Y-123278000D01*
X149510920Y-122701064D01*
X149486608Y-122677256D01*
X149462686Y-122653167D01*
X149458629Y-122649857D01*
X148850229Y-122160691D01*
X148821780Y-122142075D01*
X148793612Y-122123075D01*
X148788989Y-122120617D01*
X148097162Y-121758939D01*
X148065640Y-121746203D01*
X148034317Y-121733036D01*
X148029304Y-121731522D01*
X147507683Y-121578000D01*
X151502548Y-121578000D01*
X151504000Y-122199000D01*
X151579000Y-122274000D01*
X152500000Y-122274000D01*
X152500000Y-121353000D01*
X152425000Y-121278000D01*
X151804000Y-121276548D01*
X151745190Y-121282340D01*
X151688639Y-121299495D01*
X151636522Y-121327352D01*
X151590841Y-121364841D01*
X151553352Y-121410522D01*
X151525495Y-121462639D01*
X151508340Y-121519190D01*
X151502548Y-121578000D01*
X147507683Y-121578000D01*
X147280403Y-121511108D01*
X147247001Y-121504737D01*
X147213724Y-121497906D01*
X147208513Y-121497394D01*
X146431062Y-121426640D01*
X146397004Y-121426878D01*
X146363088Y-121426641D01*
X146357877Y-121427151D01*
X145581490Y-121508753D01*
X145548146Y-121515598D01*
X145514810Y-121521957D01*
X145509797Y-121523470D01*
X144764048Y-121754318D01*
X144732709Y-121767492D01*
X144701202Y-121780221D01*
X144696579Y-121782679D01*
X144009869Y-122153982D01*
X143981686Y-122172992D01*
X143953252Y-122191598D01*
X143949194Y-122194907D01*
X143347683Y-122692520D01*
X143323707Y-122716665D01*
X143299450Y-122740418D01*
X143296112Y-122744452D01*
X142802711Y-123349423D01*
X142783892Y-123377747D01*
X142764701Y-123405776D01*
X142762210Y-123410382D01*
X142395711Y-124099666D01*
X142382757Y-124131095D01*
X142369370Y-124162329D01*
X142367821Y-124167331D01*
X142142184Y-124914676D01*
X142135580Y-124948030D01*
X142128516Y-124981262D01*
X142127969Y-124986469D01*
X142051793Y-125763377D01*
X142050000Y-125781582D01*
X142050001Y-132916632D01*
X135212917Y-132765743D01*
X128001446Y-132455389D01*
X120823318Y-131995695D01*
X120823436Y-127362866D01*
X130525000Y-127362866D01*
X130525000Y-127737134D01*
X130598016Y-128104209D01*
X130741242Y-128449987D01*
X130949174Y-128761179D01*
X131213821Y-129025826D01*
X131525013Y-129233758D01*
X131870791Y-129376984D01*
X132237866Y-129450000D01*
X132612134Y-129450000D01*
X132979209Y-129376984D01*
X133324987Y-129233758D01*
X133636179Y-129025826D01*
X133900826Y-128761179D01*
X134108758Y-128449987D01*
X134251984Y-128104209D01*
X134325000Y-127737134D01*
X134325000Y-127362866D01*
X134251984Y-126995791D01*
X134108758Y-126650013D01*
X133900826Y-126338821D01*
X133636179Y-126074174D01*
X133324987Y-125866242D01*
X132979209Y-125723016D01*
X132612134Y-125650000D01*
X132237866Y-125650000D01*
X131870791Y-125723016D01*
X131525013Y-125866242D01*
X131213821Y-126074174D01*
X130949174Y-126338821D01*
X130741242Y-126650013D01*
X130598016Y-126995791D01*
X130525000Y-127362866D01*
X120823436Y-127362866D01*
X120824061Y-102970000D01*
X126465075Y-102970000D01*
X126484584Y-102968079D01*
X126503343Y-102962388D01*
X126520632Y-102953147D01*
X126535786Y-102940711D01*
X126548222Y-102925557D01*
X126557463Y-102908268D01*
X126563154Y-102889509D01*
X126565075Y-102870000D01*
X126565075Y-101531056D01*
X146620000Y-101531056D01*
X146620000Y-101668944D01*
X146646901Y-101804182D01*
X146699668Y-101931574D01*
X146770000Y-102036834D01*
X146770001Y-113764982D01*
X146767340Y-113792000D01*
X146770001Y-113819018D01*
X146777959Y-113899819D01*
X146805479Y-113990538D01*
X146809409Y-114003494D01*
X146860479Y-114099042D01*
X146911987Y-114161804D01*
X146911993Y-114161810D01*
X146929211Y-114182790D01*
X146950191Y-114200008D01*
X148689987Y-115939804D01*
X148707210Y-115960790D01*
X148728196Y-115978013D01*
X148790958Y-116029521D01*
X148886505Y-116080592D01*
X148990181Y-116112042D01*
X149070982Y-116120000D01*
X149070989Y-116120000D01*
X149098000Y-116122660D01*
X149125011Y-116120000D01*
X150302549Y-116120000D01*
X150302549Y-116350000D01*
X150308341Y-116408810D01*
X150325496Y-116465360D01*
X150353353Y-116517477D01*
X150390842Y-116563158D01*
X150436523Y-116600647D01*
X150488640Y-116628504D01*
X150545190Y-116645659D01*
X150604000Y-116651451D01*
X150959000Y-116651451D01*
X150959001Y-118597123D01*
X150956945Y-118618000D01*
X150965150Y-118701314D01*
X150989453Y-118781427D01*
X151028917Y-118855260D01*
X151082027Y-118919974D01*
X151098239Y-118933279D01*
X153441653Y-121276694D01*
X152883000Y-121278000D01*
X152808000Y-121353000D01*
X152808000Y-122274000D01*
X153729000Y-122274000D01*
X153804000Y-122199000D01*
X153805306Y-121640347D01*
X154137788Y-121972828D01*
X154088194Y-122092557D01*
X154044000Y-122314735D01*
X154044000Y-122541265D01*
X154088194Y-122763443D01*
X154174884Y-122972729D01*
X154300737Y-123161082D01*
X154460918Y-123321263D01*
X154649271Y-123447116D01*
X154858557Y-123533806D01*
X155080735Y-123578000D01*
X155307265Y-123578000D01*
X155529443Y-123533806D01*
X155738729Y-123447116D01*
X155927082Y-123321263D01*
X156087263Y-123161082D01*
X156213116Y-122972729D01*
X156299806Y-122763443D01*
X156344000Y-122541265D01*
X156344000Y-122314735D01*
X156299806Y-122092557D01*
X156213116Y-121883271D01*
X156087263Y-121694918D01*
X155927082Y-121534737D01*
X155738729Y-121408884D01*
X155529443Y-121322194D01*
X155307265Y-121278000D01*
X155080735Y-121278000D01*
X154858557Y-121322194D01*
X154738828Y-121371788D01*
X151809000Y-118441960D01*
X151809000Y-116651451D01*
X152164000Y-116651451D01*
X152222810Y-116645659D01*
X152229001Y-116643781D01*
X152229001Y-117327123D01*
X152226945Y-117348000D01*
X152235150Y-117431314D01*
X152248996Y-117476956D01*
X152259453Y-117511427D01*
X152298917Y-117585260D01*
X152352027Y-117649974D01*
X152368239Y-117663279D01*
X154908239Y-120203280D01*
X154908245Y-120203285D01*
X156677788Y-121972828D01*
X156628194Y-122092557D01*
X156584000Y-122314735D01*
X156584000Y-122541265D01*
X156628194Y-122763443D01*
X156714884Y-122972729D01*
X156840737Y-123161082D01*
X157000918Y-123321263D01*
X157189271Y-123447116D01*
X157398557Y-123533806D01*
X157620735Y-123578000D01*
X157847265Y-123578000D01*
X158069443Y-123533806D01*
X158278729Y-123447116D01*
X158467082Y-123321263D01*
X158627263Y-123161082D01*
X158753116Y-122972729D01*
X158839806Y-122763443D01*
X158884000Y-122541265D01*
X158884000Y-122314735D01*
X158839806Y-122092557D01*
X158753116Y-121883271D01*
X158627263Y-121694918D01*
X158467082Y-121534737D01*
X158278729Y-121408884D01*
X158069443Y-121322194D01*
X157847265Y-121278000D01*
X157620735Y-121278000D01*
X157398557Y-121322194D01*
X157278828Y-121371788D01*
X155509285Y-119602245D01*
X155509280Y-119602239D01*
X153079000Y-117171960D01*
X153079000Y-116249317D01*
X153085109Y-116258460D01*
X153235540Y-116408891D01*
X153412428Y-116527084D01*
X153608976Y-116608497D01*
X153817629Y-116650000D01*
X154030371Y-116650000D01*
X154239024Y-116608497D01*
X154435572Y-116527084D01*
X154612460Y-116408891D01*
X154762891Y-116258460D01*
X154769001Y-116249316D01*
X154769001Y-117327123D01*
X154766945Y-117348000D01*
X154775150Y-117431314D01*
X154788996Y-117476956D01*
X154799453Y-117511427D01*
X154838917Y-117585260D01*
X154892027Y-117649974D01*
X154908239Y-117663279D01*
X157448239Y-120203280D01*
X157448245Y-120203285D01*
X159217788Y-121972828D01*
X159168194Y-122092557D01*
X159124000Y-122314735D01*
X159124000Y-122541265D01*
X159168194Y-122763443D01*
X159254884Y-122972729D01*
X159380737Y-123161082D01*
X159540918Y-123321263D01*
X159729271Y-123447116D01*
X159938557Y-123533806D01*
X160160735Y-123578000D01*
X160387265Y-123578000D01*
X160609443Y-123533806D01*
X160818729Y-123447116D01*
X161007082Y-123321263D01*
X161167263Y-123161082D01*
X161293116Y-122972729D01*
X161379806Y-122763443D01*
X161424000Y-122541265D01*
X161424000Y-122314735D01*
X161379806Y-122092557D01*
X161293116Y-121883271D01*
X161167263Y-121694918D01*
X161050345Y-121578000D01*
X164710549Y-121578000D01*
X164710549Y-123278000D01*
X164716341Y-123336810D01*
X164733496Y-123393360D01*
X164761353Y-123445477D01*
X164798842Y-123491158D01*
X164844523Y-123528647D01*
X164896640Y-123556504D01*
X164953190Y-123573659D01*
X165012000Y-123579451D01*
X166712000Y-123579451D01*
X166770810Y-123573659D01*
X166827360Y-123556504D01*
X166879477Y-123528647D01*
X166925158Y-123491158D01*
X166962647Y-123445477D01*
X166990504Y-123393360D01*
X167007659Y-123336810D01*
X167013451Y-123278000D01*
X167013451Y-122314735D01*
X175126000Y-122314735D01*
X175126000Y-122541265D01*
X175170194Y-122763443D01*
X175256884Y-122972729D01*
X175382737Y-123161082D01*
X175542918Y-123321263D01*
X175731271Y-123447116D01*
X175940557Y-123533806D01*
X176162735Y-123578000D01*
X176389265Y-123578000D01*
X176611443Y-123533806D01*
X176820729Y-123447116D01*
X177009082Y-123321263D01*
X177169263Y-123161082D01*
X177295116Y-122972729D01*
X177357599Y-122821883D01*
X180635480Y-122821883D01*
X180637561Y-122828772D01*
X180724485Y-123036781D01*
X180850319Y-123223836D01*
X181010228Y-123382747D01*
X181198066Y-123507408D01*
X181406615Y-123593028D01*
X181583000Y-123556150D01*
X181583000Y-122645500D01*
X181891000Y-122645500D01*
X181891000Y-123556150D01*
X182067385Y-123593028D01*
X182275934Y-123507408D01*
X182463772Y-123382747D01*
X182502762Y-123344000D01*
X195650000Y-123344000D01*
X195650000Y-123844000D01*
X195703102Y-124075149D01*
X195800278Y-124291497D01*
X195937794Y-124484730D01*
X196110366Y-124647422D01*
X196311362Y-124773321D01*
X196511727Y-124841334D01*
X196696000Y-124804410D01*
X196696000Y-123344000D01*
X195650000Y-123344000D01*
X182502762Y-123344000D01*
X182623681Y-123223836D01*
X182749515Y-123036781D01*
X182836439Y-122828772D01*
X182838520Y-122821883D01*
X182800912Y-122645500D01*
X181891000Y-122645500D01*
X181583000Y-122645500D01*
X180673088Y-122645500D01*
X180635480Y-122821883D01*
X177357599Y-122821883D01*
X177381806Y-122763443D01*
X177426000Y-122541265D01*
X177426000Y-122536000D01*
X195650000Y-122536000D01*
X195650000Y-123036000D01*
X196696000Y-123036000D01*
X196696000Y-121575590D01*
X196511727Y-121538666D01*
X196311362Y-121606679D01*
X196110366Y-121732578D01*
X195937794Y-121895270D01*
X195800278Y-122088503D01*
X195703102Y-122304851D01*
X195650000Y-122536000D01*
X177426000Y-122536000D01*
X177426000Y-122314735D01*
X177395444Y-122161117D01*
X180635480Y-122161117D01*
X180673088Y-122337500D01*
X181583000Y-122337500D01*
X181583000Y-121426850D01*
X181891000Y-121426850D01*
X181891000Y-122337500D01*
X182800912Y-122337500D01*
X182838520Y-122161117D01*
X182836439Y-122154228D01*
X182749515Y-121946219D01*
X182623681Y-121759164D01*
X182463772Y-121600253D01*
X182275934Y-121475592D01*
X182067385Y-121389972D01*
X181891000Y-121426850D01*
X181583000Y-121426850D01*
X181406615Y-121389972D01*
X181198066Y-121475592D01*
X181010228Y-121600253D01*
X180850319Y-121759164D01*
X180724485Y-121946219D01*
X180637561Y-122154228D01*
X180635480Y-122161117D01*
X177395444Y-122161117D01*
X177381806Y-122092557D01*
X177295116Y-121883271D01*
X177169263Y-121694918D01*
X177009082Y-121534737D01*
X176820729Y-121408884D01*
X176611443Y-121322194D01*
X176389265Y-121278000D01*
X176162735Y-121278000D01*
X175940557Y-121322194D01*
X175731271Y-121408884D01*
X175542918Y-121534737D01*
X175382737Y-121694918D01*
X175256884Y-121883271D01*
X175170194Y-122092557D01*
X175126000Y-122314735D01*
X167013451Y-122314735D01*
X167013451Y-121578000D01*
X167007659Y-121519190D01*
X166990504Y-121462640D01*
X166962647Y-121410523D01*
X166925158Y-121364842D01*
X166879477Y-121327353D01*
X166827360Y-121299496D01*
X166770810Y-121282341D01*
X166712000Y-121276549D01*
X165012000Y-121276549D01*
X164953190Y-121282341D01*
X164896640Y-121299496D01*
X164844523Y-121327353D01*
X164798842Y-121364842D01*
X164761353Y-121410523D01*
X164733496Y-121462640D01*
X164716341Y-121519190D01*
X164710549Y-121578000D01*
X161050345Y-121578000D01*
X161007082Y-121534737D01*
X160818729Y-121408884D01*
X160609443Y-121322194D01*
X160387265Y-121278000D01*
X160160735Y-121278000D01*
X159938557Y-121322194D01*
X159818828Y-121371788D01*
X158221775Y-119774735D01*
X175126000Y-119774735D01*
X175126000Y-120001265D01*
X175170194Y-120223443D01*
X175256884Y-120432729D01*
X175382737Y-120621082D01*
X175542918Y-120781263D01*
X175731271Y-120907116D01*
X175940557Y-120993806D01*
X176162735Y-121038000D01*
X176389265Y-121038000D01*
X176611443Y-120993806D01*
X176820729Y-120907116D01*
X177009082Y-120781263D01*
X177169263Y-120621082D01*
X177295116Y-120432729D01*
X177381806Y-120223443D01*
X177426000Y-120001265D01*
X177426000Y-119774735D01*
X177381806Y-119552557D01*
X177295116Y-119343271D01*
X177169263Y-119154918D01*
X177115845Y-119101500D01*
X180585549Y-119101500D01*
X180585549Y-120801500D01*
X180591341Y-120860310D01*
X180608496Y-120916860D01*
X180636353Y-120968977D01*
X180673842Y-121014658D01*
X180719523Y-121052147D01*
X180771640Y-121080004D01*
X180828190Y-121097159D01*
X180887000Y-121102951D01*
X182587000Y-121102951D01*
X182645810Y-121097159D01*
X182702360Y-121080004D01*
X182754477Y-121052147D01*
X182800158Y-121014658D01*
X182837647Y-120968977D01*
X182865504Y-120916860D01*
X182882659Y-120860310D01*
X182888451Y-120801500D01*
X182888451Y-119101500D01*
X182882659Y-119042690D01*
X182865504Y-118986140D01*
X182837647Y-118934023D01*
X182800158Y-118888342D01*
X182754477Y-118850853D01*
X182702360Y-118822996D01*
X182645810Y-118805841D01*
X182587000Y-118800049D01*
X180887000Y-118800049D01*
X180828190Y-118805841D01*
X180771640Y-118822996D01*
X180719523Y-118850853D01*
X180673842Y-118888342D01*
X180636353Y-118934023D01*
X180608496Y-118986140D01*
X180591341Y-119042690D01*
X180585549Y-119101500D01*
X177115845Y-119101500D01*
X177009082Y-118994737D01*
X176820729Y-118868884D01*
X176611443Y-118782194D01*
X176389265Y-118738000D01*
X176162735Y-118738000D01*
X175940557Y-118782194D01*
X175731271Y-118868884D01*
X175542918Y-118994737D01*
X175382737Y-119154918D01*
X175256884Y-119343271D01*
X175170194Y-119552557D01*
X175126000Y-119774735D01*
X158221775Y-119774735D01*
X158049285Y-119602245D01*
X158049280Y-119602239D01*
X155619000Y-117171960D01*
X155619000Y-116249317D01*
X155625109Y-116258460D01*
X155775540Y-116408891D01*
X155952428Y-116527084D01*
X156148976Y-116608497D01*
X156357629Y-116650000D01*
X156570371Y-116650000D01*
X156779024Y-116608497D01*
X156975572Y-116527084D01*
X157152460Y-116408891D01*
X157302891Y-116258460D01*
X157421084Y-116081572D01*
X157502497Y-115885024D01*
X157544000Y-115676371D01*
X157544000Y-115463629D01*
X157924000Y-115463629D01*
X157924000Y-115676371D01*
X157965503Y-115885024D01*
X158046916Y-116081572D01*
X158165109Y-116258460D01*
X158315540Y-116408891D01*
X158492428Y-116527084D01*
X158688976Y-116608497D01*
X158897629Y-116650000D01*
X159110371Y-116650000D01*
X159319024Y-116608497D01*
X159515572Y-116527084D01*
X159692460Y-116408891D01*
X159842891Y-116258460D01*
X159961084Y-116081572D01*
X160042497Y-115885024D01*
X160084000Y-115676371D01*
X160084000Y-115463629D01*
X160464000Y-115463629D01*
X160464000Y-115676371D01*
X160505503Y-115885024D01*
X160586916Y-116081572D01*
X160705109Y-116258460D01*
X160855540Y-116408891D01*
X161032428Y-116527084D01*
X161228976Y-116608497D01*
X161437629Y-116650000D01*
X161650371Y-116650000D01*
X161859024Y-116608497D01*
X162055572Y-116527084D01*
X162232460Y-116408891D01*
X162382891Y-116258460D01*
X162501084Y-116081572D01*
X162582497Y-115885024D01*
X162624000Y-115676371D01*
X162624000Y-115463629D01*
X163004000Y-115463629D01*
X163004000Y-115676371D01*
X163045503Y-115885024D01*
X163126916Y-116081572D01*
X163245109Y-116258460D01*
X163395540Y-116408891D01*
X163572428Y-116527084D01*
X163768976Y-116608497D01*
X163977629Y-116650000D01*
X164190371Y-116650000D01*
X164399024Y-116608497D01*
X164595572Y-116527084D01*
X164772460Y-116408891D01*
X164922891Y-116258460D01*
X165041084Y-116081572D01*
X165122497Y-115885024D01*
X165164000Y-115676371D01*
X165164000Y-115463629D01*
X165544000Y-115463629D01*
X165544000Y-115676371D01*
X165585503Y-115885024D01*
X165666916Y-116081572D01*
X165785109Y-116258460D01*
X165935540Y-116408891D01*
X166112428Y-116527084D01*
X166308976Y-116608497D01*
X166517629Y-116650000D01*
X166730371Y-116650000D01*
X166939024Y-116608497D01*
X167135572Y-116527084D01*
X167312460Y-116408891D01*
X167462891Y-116258460D01*
X167581084Y-116081572D01*
X167662497Y-115885024D01*
X167704000Y-115676371D01*
X167704000Y-115463629D01*
X168084000Y-115463629D01*
X168084000Y-115676371D01*
X168125503Y-115885024D01*
X168206916Y-116081572D01*
X168325109Y-116258460D01*
X168475540Y-116408891D01*
X168652428Y-116527084D01*
X168848976Y-116608497D01*
X169057629Y-116650000D01*
X169270371Y-116650000D01*
X169479024Y-116608497D01*
X169675572Y-116527084D01*
X169852460Y-116408891D01*
X170002891Y-116258460D01*
X170121084Y-116081572D01*
X170202497Y-115885024D01*
X170244000Y-115676371D01*
X170244000Y-115463629D01*
X170624000Y-115463629D01*
X170624000Y-115676371D01*
X170665503Y-115885024D01*
X170746916Y-116081572D01*
X170865109Y-116258460D01*
X171015540Y-116408891D01*
X171192428Y-116527084D01*
X171388976Y-116608497D01*
X171597629Y-116650000D01*
X171810371Y-116650000D01*
X172019024Y-116608497D01*
X172215572Y-116527084D01*
X172392460Y-116408891D01*
X172542891Y-116258460D01*
X172661084Y-116081572D01*
X172742497Y-115885024D01*
X172784000Y-115676371D01*
X172784000Y-115463629D01*
X173164000Y-115463629D01*
X173164000Y-115676371D01*
X173205503Y-115885024D01*
X173286916Y-116081572D01*
X173405109Y-116258460D01*
X173555540Y-116408891D01*
X173732428Y-116527084D01*
X173928976Y-116608497D01*
X174137629Y-116650000D01*
X174350371Y-116650000D01*
X174559024Y-116608497D01*
X174755572Y-116527084D01*
X174932460Y-116408891D01*
X175082891Y-116258460D01*
X175201084Y-116081572D01*
X175282497Y-115885024D01*
X175324000Y-115676371D01*
X175324000Y-115463629D01*
X175282497Y-115254976D01*
X175201084Y-115058428D01*
X175082891Y-114881540D01*
X174932460Y-114731109D01*
X174755572Y-114612916D01*
X174559024Y-114531503D01*
X174350371Y-114490000D01*
X174137629Y-114490000D01*
X173928976Y-114531503D01*
X173732428Y-114612916D01*
X173555540Y-114731109D01*
X173405109Y-114881540D01*
X173286916Y-115058428D01*
X173205503Y-115254976D01*
X173164000Y-115463629D01*
X172784000Y-115463629D01*
X172742497Y-115254976D01*
X172661084Y-115058428D01*
X172542891Y-114881540D01*
X172392460Y-114731109D01*
X172215572Y-114612916D01*
X172019024Y-114531503D01*
X171810371Y-114490000D01*
X171597629Y-114490000D01*
X171388976Y-114531503D01*
X171192428Y-114612916D01*
X171015540Y-114731109D01*
X170865109Y-114881540D01*
X170746916Y-115058428D01*
X170665503Y-115254976D01*
X170624000Y-115463629D01*
X170244000Y-115463629D01*
X170202497Y-115254976D01*
X170121084Y-115058428D01*
X170002891Y-114881540D01*
X169852460Y-114731109D01*
X169675572Y-114612916D01*
X169479024Y-114531503D01*
X169270371Y-114490000D01*
X169057629Y-114490000D01*
X168848976Y-114531503D01*
X168652428Y-114612916D01*
X168475540Y-114731109D01*
X168325109Y-114881540D01*
X168206916Y-115058428D01*
X168125503Y-115254976D01*
X168084000Y-115463629D01*
X167704000Y-115463629D01*
X167662497Y-115254976D01*
X167581084Y-115058428D01*
X167462891Y-114881540D01*
X167312460Y-114731109D01*
X167135572Y-114612916D01*
X166939024Y-114531503D01*
X166730371Y-114490000D01*
X166517629Y-114490000D01*
X166308976Y-114531503D01*
X166112428Y-114612916D01*
X165935540Y-114731109D01*
X165785109Y-114881540D01*
X165666916Y-115058428D01*
X165585503Y-115254976D01*
X165544000Y-115463629D01*
X165164000Y-115463629D01*
X165122497Y-115254976D01*
X165041084Y-115058428D01*
X164922891Y-114881540D01*
X164772460Y-114731109D01*
X164595572Y-114612916D01*
X164399024Y-114531503D01*
X164190371Y-114490000D01*
X163977629Y-114490000D01*
X163768976Y-114531503D01*
X163572428Y-114612916D01*
X163395540Y-114731109D01*
X163245109Y-114881540D01*
X163126916Y-115058428D01*
X163045503Y-115254976D01*
X163004000Y-115463629D01*
X162624000Y-115463629D01*
X162582497Y-115254976D01*
X162501084Y-115058428D01*
X162382891Y-114881540D01*
X162232460Y-114731109D01*
X162055572Y-114612916D01*
X161859024Y-114531503D01*
X161650371Y-114490000D01*
X161437629Y-114490000D01*
X161228976Y-114531503D01*
X161032428Y-114612916D01*
X160855540Y-114731109D01*
X160705109Y-114881540D01*
X160586916Y-115058428D01*
X160505503Y-115254976D01*
X160464000Y-115463629D01*
X160084000Y-115463629D01*
X160042497Y-115254976D01*
X159961084Y-115058428D01*
X159842891Y-114881540D01*
X159692460Y-114731109D01*
X159515572Y-114612916D01*
X159319024Y-114531503D01*
X159110371Y-114490000D01*
X158897629Y-114490000D01*
X158688976Y-114531503D01*
X158492428Y-114612916D01*
X158315540Y-114731109D01*
X158165109Y-114881540D01*
X158046916Y-115058428D01*
X157965503Y-115254976D01*
X157924000Y-115463629D01*
X157544000Y-115463629D01*
X157502497Y-115254976D01*
X157421084Y-115058428D01*
X157302891Y-114881540D01*
X157152460Y-114731109D01*
X156975572Y-114612916D01*
X156779024Y-114531503D01*
X156570371Y-114490000D01*
X156357629Y-114490000D01*
X156148976Y-114531503D01*
X155952428Y-114612916D01*
X155775540Y-114731109D01*
X155625109Y-114881540D01*
X155619000Y-114890683D01*
X155619000Y-114730040D01*
X155878041Y-114471000D01*
X175083960Y-114471000D01*
X175781363Y-115168403D01*
X175745503Y-115254976D01*
X175704000Y-115463629D01*
X175704000Y-115676371D01*
X175745503Y-115885024D01*
X175826916Y-116081572D01*
X175945109Y-116258460D01*
X176095540Y-116408891D01*
X176272428Y-116527084D01*
X176468976Y-116608497D01*
X176677629Y-116650000D01*
X176890371Y-116650000D01*
X177099024Y-116608497D01*
X177295572Y-116527084D01*
X177472460Y-116408891D01*
X177622891Y-116258460D01*
X177741084Y-116081572D01*
X177822497Y-115885024D01*
X177864000Y-115676371D01*
X177864000Y-115463629D01*
X177822497Y-115254976D01*
X177741084Y-115058428D01*
X177622891Y-114881540D01*
X177472460Y-114731109D01*
X177295572Y-114612916D01*
X177099024Y-114531503D01*
X176890371Y-114490000D01*
X176677629Y-114490000D01*
X176468976Y-114531503D01*
X176382403Y-114567363D01*
X175836030Y-114020990D01*
X177173950Y-114020990D01*
X178321363Y-115168403D01*
X178285503Y-115254976D01*
X178244000Y-115463629D01*
X178244000Y-115676371D01*
X178285503Y-115885024D01*
X178366916Y-116081572D01*
X178485109Y-116258460D01*
X178635540Y-116408891D01*
X178812428Y-116527084D01*
X179008976Y-116608497D01*
X179217629Y-116650000D01*
X179430371Y-116650000D01*
X179639024Y-116608497D01*
X179835572Y-116527084D01*
X180012460Y-116408891D01*
X180162891Y-116258460D01*
X180281084Y-116081572D01*
X180362497Y-115885024D01*
X180404000Y-115676371D01*
X180404000Y-115463629D01*
X180784000Y-115463629D01*
X180784000Y-115676371D01*
X180825503Y-115885024D01*
X180906916Y-116081572D01*
X181025109Y-116258460D01*
X181175540Y-116408891D01*
X181352428Y-116527084D01*
X181548976Y-116608497D01*
X181757629Y-116650000D01*
X181970371Y-116650000D01*
X182179024Y-116608497D01*
X182375572Y-116527084D01*
X182552460Y-116408891D01*
X182576468Y-116384883D01*
X183806906Y-116384883D01*
X183897164Y-116529600D01*
X184094112Y-116610041D01*
X184302969Y-116650513D01*
X184515708Y-116649461D01*
X184724154Y-116606927D01*
X184910836Y-116529600D01*
X185001094Y-116384883D01*
X184404000Y-115787789D01*
X183806906Y-116384883D01*
X182576468Y-116384883D01*
X182702891Y-116258460D01*
X182821084Y-116081572D01*
X182902497Y-115885024D01*
X182944000Y-115676371D01*
X182944000Y-115468969D01*
X183323487Y-115468969D01*
X183324539Y-115681708D01*
X183367073Y-115890154D01*
X183444400Y-116076836D01*
X183589117Y-116167094D01*
X184186211Y-115570000D01*
X184621789Y-115570000D01*
X185218883Y-116167094D01*
X185363600Y-116076836D01*
X185444041Y-115879888D01*
X185484513Y-115671031D01*
X185483488Y-115463629D01*
X185864000Y-115463629D01*
X185864000Y-115676371D01*
X185905503Y-115885024D01*
X185986916Y-116081572D01*
X186105109Y-116258460D01*
X186255540Y-116408891D01*
X186432428Y-116527084D01*
X186628976Y-116608497D01*
X186837629Y-116650000D01*
X187050371Y-116650000D01*
X187259024Y-116608497D01*
X187455572Y-116527084D01*
X187632460Y-116408891D01*
X187782891Y-116258460D01*
X187901084Y-116081572D01*
X187982497Y-115885024D01*
X188024000Y-115676371D01*
X188024000Y-115463629D01*
X188404000Y-115463629D01*
X188404000Y-115676371D01*
X188445503Y-115885024D01*
X188526916Y-116081572D01*
X188645109Y-116258460D01*
X188795540Y-116408891D01*
X188972428Y-116527084D01*
X189168976Y-116608497D01*
X189377629Y-116650000D01*
X189590371Y-116650000D01*
X189799024Y-116608497D01*
X189995572Y-116527084D01*
X190172460Y-116408891D01*
X190322891Y-116258460D01*
X190441084Y-116081572D01*
X190522497Y-115885024D01*
X190564000Y-115676371D01*
X190564000Y-115463629D01*
X190944000Y-115463629D01*
X190944000Y-115676371D01*
X190985503Y-115885024D01*
X191066916Y-116081572D01*
X191185109Y-116258460D01*
X191335540Y-116408891D01*
X191512428Y-116527084D01*
X191708976Y-116608497D01*
X191917629Y-116650000D01*
X192130371Y-116650000D01*
X192339024Y-116608497D01*
X192535572Y-116527084D01*
X192712460Y-116408891D01*
X192862891Y-116258460D01*
X192981084Y-116081572D01*
X193062497Y-115885024D01*
X193104000Y-115676371D01*
X193104000Y-115463629D01*
X193484000Y-115463629D01*
X193484000Y-115676371D01*
X193525503Y-115885024D01*
X193606916Y-116081572D01*
X193725109Y-116258460D01*
X193875540Y-116408891D01*
X194052428Y-116527084D01*
X194248976Y-116608497D01*
X194457629Y-116650000D01*
X194670371Y-116650000D01*
X194879024Y-116608497D01*
X195075572Y-116527084D01*
X195252460Y-116408891D01*
X195402891Y-116258460D01*
X195521084Y-116081572D01*
X195602497Y-115885024D01*
X195644000Y-115676371D01*
X195644000Y-115463629D01*
X195602497Y-115254976D01*
X195521084Y-115058428D01*
X195402891Y-114881540D01*
X195252460Y-114731109D01*
X195075572Y-114612916D01*
X194879024Y-114531503D01*
X194670371Y-114490000D01*
X194457629Y-114490000D01*
X194248976Y-114531503D01*
X194052428Y-114612916D01*
X193875540Y-114731109D01*
X193725109Y-114881540D01*
X193606916Y-115058428D01*
X193525503Y-115254976D01*
X193484000Y-115463629D01*
X193104000Y-115463629D01*
X193062497Y-115254976D01*
X192981084Y-115058428D01*
X192862891Y-114881540D01*
X192712460Y-114731109D01*
X192535572Y-114612916D01*
X192339024Y-114531503D01*
X192130371Y-114490000D01*
X191917629Y-114490000D01*
X191708976Y-114531503D01*
X191512428Y-114612916D01*
X191335540Y-114731109D01*
X191185109Y-114881540D01*
X191066916Y-115058428D01*
X190985503Y-115254976D01*
X190944000Y-115463629D01*
X190564000Y-115463629D01*
X190522497Y-115254976D01*
X190441084Y-115058428D01*
X190322891Y-114881540D01*
X190172460Y-114731109D01*
X189995572Y-114612916D01*
X189799024Y-114531503D01*
X189590371Y-114490000D01*
X189377629Y-114490000D01*
X189168976Y-114531503D01*
X188972428Y-114612916D01*
X188795540Y-114731109D01*
X188645109Y-114881540D01*
X188526916Y-115058428D01*
X188445503Y-115254976D01*
X188404000Y-115463629D01*
X188024000Y-115463629D01*
X187982497Y-115254976D01*
X187901084Y-115058428D01*
X187782891Y-114881540D01*
X187632460Y-114731109D01*
X187455572Y-114612916D01*
X187259024Y-114531503D01*
X187050371Y-114490000D01*
X186837629Y-114490000D01*
X186628976Y-114531503D01*
X186432428Y-114612916D01*
X186255540Y-114731109D01*
X186105109Y-114881540D01*
X185986916Y-115058428D01*
X185905503Y-115254976D01*
X185864000Y-115463629D01*
X185483488Y-115463629D01*
X185483461Y-115458292D01*
X185440927Y-115249846D01*
X185363600Y-115063164D01*
X185218883Y-114972906D01*
X184621789Y-115570000D01*
X184186211Y-115570000D01*
X183589117Y-114972906D01*
X183444400Y-115063164D01*
X183363959Y-115260112D01*
X183323487Y-115468969D01*
X182944000Y-115468969D01*
X182944000Y-115463629D01*
X182902497Y-115254976D01*
X182821084Y-115058428D01*
X182702891Y-114881540D01*
X182576468Y-114755117D01*
X183806906Y-114755117D01*
X184404000Y-115352211D01*
X185001094Y-114755117D01*
X184910836Y-114610400D01*
X184713888Y-114529959D01*
X184505031Y-114489487D01*
X184292292Y-114490539D01*
X184083846Y-114533073D01*
X183897164Y-114610400D01*
X183806906Y-114755117D01*
X182576468Y-114755117D01*
X182552460Y-114731109D01*
X182375572Y-114612916D01*
X182179024Y-114531503D01*
X181970371Y-114490000D01*
X181757629Y-114490000D01*
X181548976Y-114531503D01*
X181352428Y-114612916D01*
X181175540Y-114731109D01*
X181025109Y-114881540D01*
X180906916Y-115058428D01*
X180825503Y-115254976D01*
X180784000Y-115463629D01*
X180404000Y-115463629D01*
X180362497Y-115254976D01*
X180281084Y-115058428D01*
X180162891Y-114881540D01*
X180012460Y-114731109D01*
X179835572Y-114612916D01*
X179639024Y-114531503D01*
X179430371Y-114490000D01*
X179217629Y-114490000D01*
X179008976Y-114531503D01*
X178922403Y-114567363D01*
X177926020Y-113570980D01*
X178939197Y-113570980D01*
X178957668Y-113615574D01*
X179034274Y-113730224D01*
X179131776Y-113827726D01*
X179246426Y-113904332D01*
X179373818Y-113957099D01*
X179509056Y-113984000D01*
X179646944Y-113984000D01*
X179782182Y-113957099D01*
X179909574Y-113904332D01*
X180024224Y-113827726D01*
X180121726Y-113730224D01*
X180198332Y-113615574D01*
X180251099Y-113488182D01*
X180278000Y-113352944D01*
X180278000Y-113215056D01*
X180251099Y-113079818D01*
X180198332Y-112952426D01*
X180121726Y-112837776D01*
X180024224Y-112740274D01*
X179909574Y-112663668D01*
X179782182Y-112610901D01*
X179646944Y-112584000D01*
X179509056Y-112584000D01*
X179373818Y-112610901D01*
X179246426Y-112663668D01*
X179160652Y-112720980D01*
X173520021Y-112720980D01*
X170859000Y-110059960D01*
X170859000Y-99303112D01*
X191894000Y-99303112D01*
X191894000Y-99578888D01*
X191947801Y-99849365D01*
X192053336Y-100104149D01*
X192206549Y-100333448D01*
X192401552Y-100528451D01*
X192630851Y-100681664D01*
X192885635Y-100787199D01*
X193156112Y-100841000D01*
X193431888Y-100841000D01*
X193702365Y-100787199D01*
X193957149Y-100681664D01*
X194186448Y-100528451D01*
X194381451Y-100333448D01*
X194534664Y-100104149D01*
X194640199Y-99849365D01*
X194694000Y-99578888D01*
X194694000Y-99303112D01*
X194640199Y-99032635D01*
X194534664Y-98777851D01*
X194381451Y-98548552D01*
X194186448Y-98353549D01*
X193957149Y-98200336D01*
X193702365Y-98094801D01*
X193431888Y-98041000D01*
X193156112Y-98041000D01*
X192885635Y-98094801D01*
X192630851Y-98200336D01*
X192401552Y-98353549D01*
X192206549Y-98548552D01*
X192053336Y-98777851D01*
X191947801Y-99032635D01*
X191894000Y-99303112D01*
X170859000Y-99303112D01*
X170859000Y-90849317D01*
X170865109Y-90858460D01*
X171015540Y-91008891D01*
X171192428Y-91127084D01*
X171279001Y-91162944D01*
X171279001Y-91252210D01*
X171276945Y-91273086D01*
X171285150Y-91356400D01*
X171298591Y-91400707D01*
X171309453Y-91436513D01*
X171348917Y-91510346D01*
X171402027Y-91575060D01*
X171418239Y-91588365D01*
X176127633Y-96297760D01*
X176140940Y-96313974D01*
X176205654Y-96367084D01*
X176279487Y-96406548D01*
X176335297Y-96423478D01*
X176359599Y-96430850D01*
X176368012Y-96431679D01*
X176422040Y-96437000D01*
X176422046Y-96437000D01*
X176442913Y-96439055D01*
X176463780Y-96437000D01*
X193438960Y-96437000D01*
X194737788Y-97735828D01*
X194688194Y-97855557D01*
X194644000Y-98077735D01*
X194644000Y-98304265D01*
X194688194Y-98526443D01*
X194774884Y-98735729D01*
X194900737Y-98924082D01*
X195060918Y-99084263D01*
X195249271Y-99210116D01*
X195458557Y-99296806D01*
X195680735Y-99341000D01*
X195907265Y-99341000D01*
X196129443Y-99296806D01*
X196338729Y-99210116D01*
X196527082Y-99084263D01*
X196687263Y-98924082D01*
X196813116Y-98735729D01*
X196899806Y-98526443D01*
X196944000Y-98304265D01*
X196944000Y-98077735D01*
X196899806Y-97855557D01*
X196813116Y-97646271D01*
X196687263Y-97457918D01*
X196527082Y-97297737D01*
X196338729Y-97171884D01*
X196129443Y-97085194D01*
X195907265Y-97041000D01*
X195680735Y-97041000D01*
X195458557Y-97085194D01*
X195338828Y-97134788D01*
X193930283Y-95726243D01*
X193916974Y-95710026D01*
X193852260Y-95656916D01*
X193778427Y-95617452D01*
X193698314Y-95593150D01*
X193635874Y-95587000D01*
X193635867Y-95587000D01*
X193615000Y-95584945D01*
X193594133Y-95587000D01*
X176618955Y-95587000D01*
X175588124Y-94556169D01*
X195146620Y-94556169D01*
X195245424Y-94708051D01*
X195454382Y-94795530D01*
X195676391Y-94840563D01*
X195902920Y-94841419D01*
X196125263Y-94798065D01*
X196334875Y-94712166D01*
X196342576Y-94708051D01*
X196441380Y-94556169D01*
X195794000Y-93908789D01*
X195146620Y-94556169D01*
X175588124Y-94556169D01*
X173335067Y-92303112D01*
X191894000Y-92303112D01*
X191894000Y-92578888D01*
X191947801Y-92849365D01*
X192053336Y-93104149D01*
X192206549Y-93333448D01*
X192401552Y-93528451D01*
X192630851Y-93681664D01*
X192885635Y-93787199D01*
X193156112Y-93841000D01*
X193431888Y-93841000D01*
X193638411Y-93799920D01*
X194643581Y-93799920D01*
X194686935Y-94022263D01*
X194772834Y-94231875D01*
X194776949Y-94239576D01*
X194928831Y-94338380D01*
X195576211Y-93691000D01*
X196011789Y-93691000D01*
X196659169Y-94338380D01*
X196811051Y-94239576D01*
X196898530Y-94030618D01*
X196943563Y-93808609D01*
X196944419Y-93582080D01*
X196901065Y-93359737D01*
X196815166Y-93150125D01*
X196811051Y-93142424D01*
X196659169Y-93043620D01*
X196011789Y-93691000D01*
X195576211Y-93691000D01*
X194928831Y-93043620D01*
X194776949Y-93142424D01*
X194689470Y-93351382D01*
X194644437Y-93573391D01*
X194643581Y-93799920D01*
X193638411Y-93799920D01*
X193702365Y-93787199D01*
X193957149Y-93681664D01*
X194186448Y-93528451D01*
X194381451Y-93333448D01*
X194534664Y-93104149D01*
X194640199Y-92849365D01*
X194644880Y-92825831D01*
X195146620Y-92825831D01*
X195794000Y-93473211D01*
X196441380Y-92825831D01*
X196342576Y-92673949D01*
X196133618Y-92586470D01*
X195911609Y-92541437D01*
X195685080Y-92540581D01*
X195462737Y-92583935D01*
X195253125Y-92669834D01*
X195245424Y-92673949D01*
X195146620Y-92825831D01*
X194644880Y-92825831D01*
X194694000Y-92578888D01*
X194694000Y-92303112D01*
X194640199Y-92032635D01*
X194534664Y-91777851D01*
X194381451Y-91548552D01*
X194186448Y-91353549D01*
X193957149Y-91200336D01*
X193702365Y-91094801D01*
X193431888Y-91041000D01*
X193156112Y-91041000D01*
X192885635Y-91094801D01*
X192630851Y-91200336D01*
X192401552Y-91353549D01*
X192206549Y-91548552D01*
X192053336Y-91777851D01*
X191947801Y-92032635D01*
X191894000Y-92303112D01*
X173335067Y-92303112D01*
X172175596Y-91143642D01*
X172215572Y-91127084D01*
X172392460Y-91008891D01*
X172542891Y-90858460D01*
X172661084Y-90681572D01*
X172742497Y-90485024D01*
X172784000Y-90276371D01*
X172784000Y-90063629D01*
X173164000Y-90063629D01*
X173164000Y-90276371D01*
X173205503Y-90485024D01*
X173286916Y-90681572D01*
X173405109Y-90858460D01*
X173555540Y-91008891D01*
X173732428Y-91127084D01*
X173928976Y-91208497D01*
X174137629Y-91250000D01*
X174350371Y-91250000D01*
X174559024Y-91208497D01*
X174755572Y-91127084D01*
X174932460Y-91008891D01*
X175082891Y-90858460D01*
X175201084Y-90681572D01*
X175282497Y-90485024D01*
X175324000Y-90276371D01*
X175324000Y-90063629D01*
X175704000Y-90063629D01*
X175704000Y-90276371D01*
X175745503Y-90485024D01*
X175826916Y-90681572D01*
X175945109Y-90858460D01*
X176095540Y-91008891D01*
X176272428Y-91127084D01*
X176468976Y-91208497D01*
X176677629Y-91250000D01*
X176890371Y-91250000D01*
X177099024Y-91208497D01*
X177295572Y-91127084D01*
X177472460Y-91008891D01*
X177622891Y-90858460D01*
X177741084Y-90681572D01*
X177822497Y-90485024D01*
X177864000Y-90276371D01*
X177864000Y-90063629D01*
X178244000Y-90063629D01*
X178244000Y-90276371D01*
X178285503Y-90485024D01*
X178366916Y-90681572D01*
X178485109Y-90858460D01*
X178635540Y-91008891D01*
X178812428Y-91127084D01*
X179008976Y-91208497D01*
X179217629Y-91250000D01*
X179430371Y-91250000D01*
X179639024Y-91208497D01*
X179835572Y-91127084D01*
X180012460Y-91008891D01*
X180162891Y-90858460D01*
X180281084Y-90681572D01*
X180362497Y-90485024D01*
X180404000Y-90276371D01*
X180404000Y-90063629D01*
X180784000Y-90063629D01*
X180784000Y-90276371D01*
X180825503Y-90485024D01*
X180906916Y-90681572D01*
X181025109Y-90858460D01*
X181175540Y-91008891D01*
X181352428Y-91127084D01*
X181548976Y-91208497D01*
X181757629Y-91250000D01*
X181970371Y-91250000D01*
X182179024Y-91208497D01*
X182375572Y-91127084D01*
X182552460Y-91008891D01*
X182702891Y-90858460D01*
X182821084Y-90681572D01*
X182902497Y-90485024D01*
X182944000Y-90276371D01*
X182944000Y-90063629D01*
X183324000Y-90063629D01*
X183324000Y-90276371D01*
X183365503Y-90485024D01*
X183446916Y-90681572D01*
X183565109Y-90858460D01*
X183715540Y-91008891D01*
X183892428Y-91127084D01*
X184088976Y-91208497D01*
X184297629Y-91250000D01*
X184510371Y-91250000D01*
X184719024Y-91208497D01*
X184915572Y-91127084D01*
X185092460Y-91008891D01*
X185242891Y-90858460D01*
X185361084Y-90681572D01*
X185442497Y-90485024D01*
X185484000Y-90276371D01*
X185484000Y-90063629D01*
X185864000Y-90063629D01*
X185864000Y-90276371D01*
X185905503Y-90485024D01*
X185986916Y-90681572D01*
X186105109Y-90858460D01*
X186255540Y-91008891D01*
X186432428Y-91127084D01*
X186628976Y-91208497D01*
X186837629Y-91250000D01*
X187050371Y-91250000D01*
X187259024Y-91208497D01*
X187455572Y-91127084D01*
X187632460Y-91008891D01*
X187782891Y-90858460D01*
X187901084Y-90681572D01*
X187982497Y-90485024D01*
X188024000Y-90276371D01*
X188024000Y-90063629D01*
X188404000Y-90063629D01*
X188404000Y-90276371D01*
X188445503Y-90485024D01*
X188526916Y-90681572D01*
X188645109Y-90858460D01*
X188795540Y-91008891D01*
X188972428Y-91127084D01*
X189168976Y-91208497D01*
X189377629Y-91250000D01*
X189590371Y-91250000D01*
X189799024Y-91208497D01*
X189995572Y-91127084D01*
X190172460Y-91008891D01*
X190322891Y-90858460D01*
X190441084Y-90681572D01*
X190522497Y-90485024D01*
X190564000Y-90276371D01*
X190564000Y-90063629D01*
X190944000Y-90063629D01*
X190944000Y-90276371D01*
X190985503Y-90485024D01*
X191066916Y-90681572D01*
X191185109Y-90858460D01*
X191335540Y-91008891D01*
X191512428Y-91127084D01*
X191708976Y-91208497D01*
X191917629Y-91250000D01*
X192130371Y-91250000D01*
X192339024Y-91208497D01*
X192535572Y-91127084D01*
X192712460Y-91008891D01*
X192862891Y-90858460D01*
X192981084Y-90681572D01*
X193062497Y-90485024D01*
X193104000Y-90276371D01*
X193104000Y-90063629D01*
X193484000Y-90063629D01*
X193484000Y-90276371D01*
X193525503Y-90485024D01*
X193606916Y-90681572D01*
X193725109Y-90858460D01*
X193875540Y-91008891D01*
X194052428Y-91127084D01*
X194248976Y-91208497D01*
X194457629Y-91250000D01*
X194670371Y-91250000D01*
X194879024Y-91208497D01*
X195075572Y-91127084D01*
X195252460Y-91008891D01*
X195402891Y-90858460D01*
X195521084Y-90681572D01*
X195602497Y-90485024D01*
X195644000Y-90276371D01*
X195644000Y-90063629D01*
X195602497Y-89854976D01*
X195521084Y-89658428D01*
X195402891Y-89481540D01*
X195252460Y-89331109D01*
X195075572Y-89212916D01*
X194879024Y-89131503D01*
X194670371Y-89090000D01*
X194457629Y-89090000D01*
X194248976Y-89131503D01*
X194052428Y-89212916D01*
X193875540Y-89331109D01*
X193725109Y-89481540D01*
X193606916Y-89658428D01*
X193525503Y-89854976D01*
X193484000Y-90063629D01*
X193104000Y-90063629D01*
X193062497Y-89854976D01*
X192981084Y-89658428D01*
X192862891Y-89481540D01*
X192712460Y-89331109D01*
X192535572Y-89212916D01*
X192339024Y-89131503D01*
X192130371Y-89090000D01*
X191917629Y-89090000D01*
X191708976Y-89131503D01*
X191512428Y-89212916D01*
X191335540Y-89331109D01*
X191185109Y-89481540D01*
X191066916Y-89658428D01*
X190985503Y-89854976D01*
X190944000Y-90063629D01*
X190564000Y-90063629D01*
X190522497Y-89854976D01*
X190441084Y-89658428D01*
X190322891Y-89481540D01*
X190172460Y-89331109D01*
X189995572Y-89212916D01*
X189799024Y-89131503D01*
X189590371Y-89090000D01*
X189377629Y-89090000D01*
X189168976Y-89131503D01*
X188972428Y-89212916D01*
X188795540Y-89331109D01*
X188645109Y-89481540D01*
X188526916Y-89658428D01*
X188445503Y-89854976D01*
X188404000Y-90063629D01*
X188024000Y-90063629D01*
X187982497Y-89854976D01*
X187901084Y-89658428D01*
X187782891Y-89481540D01*
X187632460Y-89331109D01*
X187455572Y-89212916D01*
X187259024Y-89131503D01*
X187050371Y-89090000D01*
X186837629Y-89090000D01*
X186628976Y-89131503D01*
X186432428Y-89212916D01*
X186255540Y-89331109D01*
X186105109Y-89481540D01*
X185986916Y-89658428D01*
X185905503Y-89854976D01*
X185864000Y-90063629D01*
X185484000Y-90063629D01*
X185442497Y-89854976D01*
X185361084Y-89658428D01*
X185242891Y-89481540D01*
X185092460Y-89331109D01*
X184915572Y-89212916D01*
X184719024Y-89131503D01*
X184510371Y-89090000D01*
X184297629Y-89090000D01*
X184088976Y-89131503D01*
X183892428Y-89212916D01*
X183715540Y-89331109D01*
X183565109Y-89481540D01*
X183446916Y-89658428D01*
X183365503Y-89854976D01*
X183324000Y-90063629D01*
X182944000Y-90063629D01*
X182902497Y-89854976D01*
X182821084Y-89658428D01*
X182702891Y-89481540D01*
X182552460Y-89331109D01*
X182375572Y-89212916D01*
X182179024Y-89131503D01*
X181970371Y-89090000D01*
X181757629Y-89090000D01*
X181548976Y-89131503D01*
X181352428Y-89212916D01*
X181175540Y-89331109D01*
X181025109Y-89481540D01*
X180906916Y-89658428D01*
X180825503Y-89854976D01*
X180784000Y-90063629D01*
X180404000Y-90063629D01*
X180362497Y-89854976D01*
X180281084Y-89658428D01*
X180162891Y-89481540D01*
X180012460Y-89331109D01*
X179835572Y-89212916D01*
X179639024Y-89131503D01*
X179430371Y-89090000D01*
X179217629Y-89090000D01*
X179008976Y-89131503D01*
X178812428Y-89212916D01*
X178635540Y-89331109D01*
X178485109Y-89481540D01*
X178366916Y-89658428D01*
X178285503Y-89854976D01*
X178244000Y-90063629D01*
X177864000Y-90063629D01*
X177822497Y-89854976D01*
X177741084Y-89658428D01*
X177622891Y-89481540D01*
X177472460Y-89331109D01*
X177295572Y-89212916D01*
X177099024Y-89131503D01*
X176890371Y-89090000D01*
X176677629Y-89090000D01*
X176468976Y-89131503D01*
X176272428Y-89212916D01*
X176095540Y-89331109D01*
X175945109Y-89481540D01*
X175826916Y-89658428D01*
X175745503Y-89854976D01*
X175704000Y-90063629D01*
X175324000Y-90063629D01*
X175282497Y-89854976D01*
X175201084Y-89658428D01*
X175082891Y-89481540D01*
X174932460Y-89331109D01*
X174755572Y-89212916D01*
X174559024Y-89131503D01*
X174350371Y-89090000D01*
X174137629Y-89090000D01*
X173928976Y-89131503D01*
X173732428Y-89212916D01*
X173555540Y-89331109D01*
X173405109Y-89481540D01*
X173286916Y-89658428D01*
X173205503Y-89854976D01*
X173164000Y-90063629D01*
X172784000Y-90063629D01*
X172742497Y-89854976D01*
X172661084Y-89658428D01*
X172542891Y-89481540D01*
X172392460Y-89331109D01*
X172215572Y-89212916D01*
X172019024Y-89131503D01*
X171810371Y-89090000D01*
X171597629Y-89090000D01*
X171388976Y-89131503D01*
X171192428Y-89212916D01*
X171015540Y-89331109D01*
X170865109Y-89481540D01*
X170859000Y-89490683D01*
X170859000Y-85012040D01*
X171626041Y-84245000D01*
X173686093Y-84245000D01*
X173700274Y-84266224D01*
X173797776Y-84363726D01*
X173912426Y-84440332D01*
X174039818Y-84493099D01*
X174175056Y-84520000D01*
X174312944Y-84520000D01*
X174448182Y-84493099D01*
X174575574Y-84440332D01*
X174690224Y-84363726D01*
X174787726Y-84266224D01*
X174864332Y-84151574D01*
X174917099Y-84024182D01*
X174944000Y-83888944D01*
X174944000Y-83751056D01*
X174917099Y-83615818D01*
X174864332Y-83488426D01*
X174787726Y-83373776D01*
X174690224Y-83276274D01*
X174575574Y-83199668D01*
X174448182Y-83146901D01*
X174312944Y-83120000D01*
X174175056Y-83120000D01*
X174039818Y-83146901D01*
X173912426Y-83199668D01*
X173797776Y-83276274D01*
X173700274Y-83373776D01*
X173686093Y-83395000D01*
X171470867Y-83395000D01*
X171450000Y-83392945D01*
X171429133Y-83395000D01*
X171429126Y-83395000D01*
X171374327Y-83400397D01*
X171366685Y-83401150D01*
X171349900Y-83406242D01*
X171286573Y-83425452D01*
X171212740Y-83464916D01*
X171148026Y-83518026D01*
X171134721Y-83534238D01*
X170148243Y-84520717D01*
X170132026Y-84534026D01*
X170078916Y-84598741D01*
X170039452Y-84672574D01*
X170015150Y-84752687D01*
X170009000Y-84815127D01*
X170009000Y-84815133D01*
X170006945Y-84836000D01*
X170009000Y-84856867D01*
X170009000Y-89490683D01*
X170002891Y-89481540D01*
X169852460Y-89331109D01*
X169675572Y-89212916D01*
X169479024Y-89131503D01*
X169270371Y-89090000D01*
X169057629Y-89090000D01*
X168848976Y-89131503D01*
X168652428Y-89212916D01*
X168623532Y-89232224D01*
X168636679Y-89207628D01*
X168682424Y-89056827D01*
X168694000Y-88939293D01*
X168694000Y-87923282D01*
X168697869Y-87883999D01*
X168694000Y-87844716D01*
X168694000Y-87844707D01*
X168682424Y-87727173D01*
X168636679Y-87576372D01*
X168562394Y-87437395D01*
X168562393Y-87437393D01*
X168487469Y-87346098D01*
X168462422Y-87315578D01*
X168431903Y-87290532D01*
X167521451Y-86380081D01*
X167521451Y-85510000D01*
X167515659Y-85451190D01*
X167498504Y-85394640D01*
X167470647Y-85342523D01*
X167433158Y-85296842D01*
X167387477Y-85259353D01*
X167335360Y-85231496D01*
X167278810Y-85214341D01*
X167220000Y-85208549D01*
X165520000Y-85208549D01*
X165461190Y-85214341D01*
X165404640Y-85231496D01*
X165352523Y-85259353D01*
X165306842Y-85296842D01*
X165269353Y-85342523D01*
X165241496Y-85394640D01*
X165224341Y-85451190D01*
X165218549Y-85510000D01*
X165218549Y-87210000D01*
X165224341Y-87268810D01*
X165241496Y-87325360D01*
X165269353Y-87377477D01*
X165306842Y-87423158D01*
X165352523Y-87460647D01*
X165404640Y-87488504D01*
X165461190Y-87505659D01*
X165520000Y-87511451D01*
X166390081Y-87511451D01*
X167094000Y-88215371D01*
X167094001Y-88939293D01*
X167105577Y-89056827D01*
X167151322Y-89207628D01*
X167225608Y-89346606D01*
X167227409Y-89348800D01*
X167221093Y-89355116D01*
X167130836Y-89210400D01*
X166933888Y-89129959D01*
X166725031Y-89089487D01*
X166512292Y-89090539D01*
X166303846Y-89133073D01*
X166117164Y-89210400D01*
X166026906Y-89355117D01*
X166624000Y-89952211D01*
X166638142Y-89938069D01*
X166855931Y-90155858D01*
X166841789Y-90170000D01*
X166855931Y-90184142D01*
X166638142Y-90401931D01*
X166624000Y-90387789D01*
X166026906Y-90984883D01*
X166117164Y-91129600D01*
X166314112Y-91210041D01*
X166522969Y-91250513D01*
X166735708Y-91249461D01*
X166944154Y-91206927D01*
X167130836Y-91129600D01*
X167221093Y-90984884D01*
X167227409Y-90991200D01*
X167225608Y-90993394D01*
X167151322Y-91132372D01*
X167105577Y-91283173D01*
X167094001Y-91400707D01*
X167094000Y-106602629D01*
X165530630Y-108166000D01*
X163751207Y-108166000D01*
X163712465Y-108173706D01*
X163673173Y-108177576D01*
X163635393Y-108189037D01*
X163596649Y-108196743D01*
X163560152Y-108211860D01*
X163522372Y-108223321D01*
X163487554Y-108241932D01*
X163451058Y-108257049D01*
X163418210Y-108278997D01*
X163383394Y-108297607D01*
X163352878Y-108322651D01*
X163320030Y-108344599D01*
X163292098Y-108372531D01*
X163261578Y-108397578D01*
X163236531Y-108428098D01*
X163208599Y-108456030D01*
X163186651Y-108488878D01*
X163161607Y-108519394D01*
X163142997Y-108554210D01*
X163121049Y-108587058D01*
X163105932Y-108623554D01*
X163087321Y-108658372D01*
X163075860Y-108696152D01*
X163060743Y-108732649D01*
X163053037Y-108771393D01*
X163041576Y-108809173D01*
X163037706Y-108848465D01*
X163030000Y-108887207D01*
X163030000Y-108926707D01*
X163026130Y-108966000D01*
X163030000Y-109005293D01*
X163030000Y-109044793D01*
X163037706Y-109083535D01*
X163041576Y-109122827D01*
X163053037Y-109160607D01*
X163060743Y-109199351D01*
X163075860Y-109235848D01*
X163087321Y-109273628D01*
X163105932Y-109308446D01*
X163121049Y-109344942D01*
X163142997Y-109377790D01*
X163161607Y-109412606D01*
X163186651Y-109443122D01*
X163208599Y-109475970D01*
X163236531Y-109503902D01*
X163261578Y-109534422D01*
X163292098Y-109559469D01*
X163320030Y-109587401D01*
X163352878Y-109609349D01*
X163383394Y-109634393D01*
X163418210Y-109653003D01*
X163451058Y-109674951D01*
X163487554Y-109690068D01*
X163522372Y-109708679D01*
X163560152Y-109720140D01*
X163596649Y-109735257D01*
X163635393Y-109742963D01*
X163673173Y-109754424D01*
X163712465Y-109758294D01*
X163751207Y-109766000D01*
X165822709Y-109766000D01*
X165862000Y-109769870D01*
X165901291Y-109766000D01*
X165901293Y-109766000D01*
X166018827Y-109754424D01*
X166169628Y-109708679D01*
X166308606Y-109634393D01*
X166430422Y-109534422D01*
X166455473Y-109503897D01*
X168431903Y-107527467D01*
X168462422Y-107502422D01*
X168487469Y-107471902D01*
X168562393Y-107380607D01*
X168636679Y-107241628D01*
X168636679Y-107241627D01*
X168682424Y-107090827D01*
X168694000Y-106973293D01*
X168694000Y-106973291D01*
X168697870Y-106934000D01*
X168694000Y-106894709D01*
X168694000Y-91400707D01*
X168682424Y-91283173D01*
X168636679Y-91132372D01*
X168623532Y-91107776D01*
X168652428Y-91127084D01*
X168848976Y-91208497D01*
X169057629Y-91250000D01*
X169270371Y-91250000D01*
X169479024Y-91208497D01*
X169675572Y-91127084D01*
X169852460Y-91008891D01*
X170002891Y-90858460D01*
X170009000Y-90849317D01*
X170009001Y-110215123D01*
X170006945Y-110236000D01*
X170015150Y-110319314D01*
X170039453Y-110399427D01*
X170078917Y-110473260D01*
X170132027Y-110537974D01*
X170148239Y-110551279D01*
X172767949Y-113170990D01*
X153886877Y-113170990D01*
X153866010Y-113168935D01*
X153845143Y-113170990D01*
X153845136Y-113170990D01*
X153790337Y-113176387D01*
X153782695Y-113177140D01*
X153758393Y-113184512D01*
X153702583Y-113201442D01*
X153628750Y-113240906D01*
X153564036Y-113294016D01*
X153550731Y-113310228D01*
X152368243Y-114492717D01*
X152352026Y-114506026D01*
X152326749Y-114536826D01*
X152279360Y-114511496D01*
X152222810Y-114494341D01*
X152164000Y-114488549D01*
X150604000Y-114488549D01*
X150545190Y-114494341D01*
X150488640Y-114511496D01*
X150436523Y-114539353D01*
X150390842Y-114576842D01*
X150353353Y-114622523D01*
X150325496Y-114674640D01*
X150308341Y-114731190D01*
X150302549Y-114790000D01*
X150302549Y-115020000D01*
X149325817Y-115020000D01*
X147870000Y-113564183D01*
X147870000Y-102036834D01*
X147940332Y-101931574D01*
X147993099Y-101804182D01*
X148020000Y-101668944D01*
X148020000Y-101531056D01*
X147993099Y-101395818D01*
X147940332Y-101268426D01*
X147863726Y-101153776D01*
X147766224Y-101056274D01*
X147651574Y-100979668D01*
X147524182Y-100926901D01*
X147388944Y-100900000D01*
X147251056Y-100900000D01*
X147115818Y-100926901D01*
X146988426Y-100979668D01*
X146873776Y-101056274D01*
X146776274Y-101153776D01*
X146699668Y-101268426D01*
X146646901Y-101395818D01*
X146620000Y-101531056D01*
X126565075Y-101531056D01*
X126565075Y-92964000D01*
X126563154Y-92944491D01*
X126557463Y-92925732D01*
X126548222Y-92908443D01*
X126535786Y-92893289D01*
X126520632Y-92880853D01*
X126503343Y-92871612D01*
X126484584Y-92865921D01*
X126465075Y-92864000D01*
X120824320Y-92864000D01*
X120824367Y-90984883D01*
X150786906Y-90984883D01*
X150877164Y-91129600D01*
X151074112Y-91210041D01*
X151282969Y-91250513D01*
X151495708Y-91249461D01*
X151704154Y-91206927D01*
X151890836Y-91129600D01*
X151981094Y-90984883D01*
X151384000Y-90387789D01*
X150786906Y-90984883D01*
X120824367Y-90984883D01*
X120824391Y-90068969D01*
X150303487Y-90068969D01*
X150304539Y-90281708D01*
X150347073Y-90490154D01*
X150424400Y-90676836D01*
X150569117Y-90767094D01*
X151166211Y-90170000D01*
X151601789Y-90170000D01*
X152198883Y-90767094D01*
X152343600Y-90676836D01*
X152424041Y-90479888D01*
X152464513Y-90271031D01*
X152463488Y-90063629D01*
X152844000Y-90063629D01*
X152844000Y-90276371D01*
X152885503Y-90485024D01*
X152966916Y-90681572D01*
X153085109Y-90858460D01*
X153235540Y-91008891D01*
X153412428Y-91127084D01*
X153608976Y-91208497D01*
X153817629Y-91250000D01*
X154030371Y-91250000D01*
X154239024Y-91208497D01*
X154435572Y-91127084D01*
X154612460Y-91008891D01*
X154762891Y-90858460D01*
X154881084Y-90681572D01*
X154962497Y-90485024D01*
X155004000Y-90276371D01*
X155004000Y-90063629D01*
X155384000Y-90063629D01*
X155384000Y-90276371D01*
X155425503Y-90485024D01*
X155506916Y-90681572D01*
X155625109Y-90858460D01*
X155775540Y-91008891D01*
X155952428Y-91127084D01*
X156148976Y-91208497D01*
X156357629Y-91250000D01*
X156570371Y-91250000D01*
X156779024Y-91208497D01*
X156975572Y-91127084D01*
X157152460Y-91008891D01*
X157302891Y-90858460D01*
X157421084Y-90681572D01*
X157502497Y-90485024D01*
X157544000Y-90276371D01*
X157544000Y-90063629D01*
X157924000Y-90063629D01*
X157924000Y-90276371D01*
X157965503Y-90485024D01*
X158046916Y-90681572D01*
X158165109Y-90858460D01*
X158315540Y-91008891D01*
X158492428Y-91127084D01*
X158688976Y-91208497D01*
X158897629Y-91250000D01*
X159110371Y-91250000D01*
X159319024Y-91208497D01*
X159515572Y-91127084D01*
X159692460Y-91008891D01*
X159842891Y-90858460D01*
X159961084Y-90681572D01*
X160042497Y-90485024D01*
X160084000Y-90276371D01*
X160084000Y-90063629D01*
X160464000Y-90063629D01*
X160464000Y-90276371D01*
X160505503Y-90485024D01*
X160586916Y-90681572D01*
X160705109Y-90858460D01*
X160855540Y-91008891D01*
X161032428Y-91127084D01*
X161228976Y-91208497D01*
X161437629Y-91250000D01*
X161650371Y-91250000D01*
X161859024Y-91208497D01*
X162055572Y-91127084D01*
X162232460Y-91008891D01*
X162382891Y-90858460D01*
X162501084Y-90681572D01*
X162582497Y-90485024D01*
X162624000Y-90276371D01*
X162624000Y-90063629D01*
X163004000Y-90063629D01*
X163004000Y-90276371D01*
X163045503Y-90485024D01*
X163126916Y-90681572D01*
X163245109Y-90858460D01*
X163395540Y-91008891D01*
X163572428Y-91127084D01*
X163768976Y-91208497D01*
X163977629Y-91250000D01*
X164190371Y-91250000D01*
X164399024Y-91208497D01*
X164595572Y-91127084D01*
X164772460Y-91008891D01*
X164922891Y-90858460D01*
X165041084Y-90681572D01*
X165122497Y-90485024D01*
X165164000Y-90276371D01*
X165164000Y-90068969D01*
X165543487Y-90068969D01*
X165544539Y-90281708D01*
X165587073Y-90490154D01*
X165664400Y-90676836D01*
X165809117Y-90767094D01*
X166406211Y-90170000D01*
X165809117Y-89572906D01*
X165664400Y-89663164D01*
X165583959Y-89860112D01*
X165543487Y-90068969D01*
X165164000Y-90068969D01*
X165164000Y-90063629D01*
X165122497Y-89854976D01*
X165041084Y-89658428D01*
X164922891Y-89481540D01*
X164772460Y-89331109D01*
X164595572Y-89212916D01*
X164399024Y-89131503D01*
X164190371Y-89090000D01*
X163977629Y-89090000D01*
X163768976Y-89131503D01*
X163572428Y-89212916D01*
X163395540Y-89331109D01*
X163245109Y-89481540D01*
X163126916Y-89658428D01*
X163045503Y-89854976D01*
X163004000Y-90063629D01*
X162624000Y-90063629D01*
X162582497Y-89854976D01*
X162501084Y-89658428D01*
X162382891Y-89481540D01*
X162232460Y-89331109D01*
X162055572Y-89212916D01*
X161859024Y-89131503D01*
X161650371Y-89090000D01*
X161437629Y-89090000D01*
X161228976Y-89131503D01*
X161032428Y-89212916D01*
X160855540Y-89331109D01*
X160705109Y-89481540D01*
X160586916Y-89658428D01*
X160505503Y-89854976D01*
X160464000Y-90063629D01*
X160084000Y-90063629D01*
X160042497Y-89854976D01*
X159961084Y-89658428D01*
X159842891Y-89481540D01*
X159692460Y-89331109D01*
X159515572Y-89212916D01*
X159319024Y-89131503D01*
X159110371Y-89090000D01*
X158897629Y-89090000D01*
X158688976Y-89131503D01*
X158492428Y-89212916D01*
X158315540Y-89331109D01*
X158165109Y-89481540D01*
X158046916Y-89658428D01*
X157965503Y-89854976D01*
X157924000Y-90063629D01*
X157544000Y-90063629D01*
X157502497Y-89854976D01*
X157421084Y-89658428D01*
X157302891Y-89481540D01*
X157152460Y-89331109D01*
X156975572Y-89212916D01*
X156779024Y-89131503D01*
X156570371Y-89090000D01*
X156357629Y-89090000D01*
X156148976Y-89131503D01*
X155952428Y-89212916D01*
X155775540Y-89331109D01*
X155625109Y-89481540D01*
X155506916Y-89658428D01*
X155425503Y-89854976D01*
X155384000Y-90063629D01*
X155004000Y-90063629D01*
X154962497Y-89854976D01*
X154881084Y-89658428D01*
X154762891Y-89481540D01*
X154612460Y-89331109D01*
X154435572Y-89212916D01*
X154239024Y-89131503D01*
X154030371Y-89090000D01*
X153817629Y-89090000D01*
X153608976Y-89131503D01*
X153412428Y-89212916D01*
X153235540Y-89331109D01*
X153085109Y-89481540D01*
X152966916Y-89658428D01*
X152885503Y-89854976D01*
X152844000Y-90063629D01*
X152463488Y-90063629D01*
X152463461Y-90058292D01*
X152420927Y-89849846D01*
X152343600Y-89663164D01*
X152198883Y-89572906D01*
X151601789Y-90170000D01*
X151166211Y-90170000D01*
X150569117Y-89572906D01*
X150424400Y-89663164D01*
X150343959Y-89860112D01*
X150303487Y-90068969D01*
X120824391Y-90068969D01*
X120824392Y-90038795D01*
X120909433Y-90016000D01*
X133358000Y-90016000D01*
X133383882Y-90012593D01*
X133633882Y-89945606D01*
X133652229Y-89938700D01*
X133668876Y-89928348D01*
X133678711Y-89919724D01*
X133861724Y-89736711D01*
X133874160Y-89721557D01*
X133883401Y-89704268D01*
X133887606Y-89691882D01*
X133954593Y-89441882D01*
X133958000Y-89416000D01*
X133958000Y-89355117D01*
X150786906Y-89355117D01*
X151384000Y-89952211D01*
X151981094Y-89355117D01*
X151890836Y-89210400D01*
X151693888Y-89129959D01*
X151485031Y-89089487D01*
X151272292Y-89090539D01*
X151063846Y-89133073D01*
X150877164Y-89210400D01*
X150786906Y-89355117D01*
X133958000Y-89355117D01*
X133958000Y-87210000D01*
X146930548Y-87210000D01*
X146936340Y-87268810D01*
X146953495Y-87325361D01*
X146981352Y-87377478D01*
X147018841Y-87423159D01*
X147064522Y-87460648D01*
X147116639Y-87488505D01*
X147173190Y-87505660D01*
X147232000Y-87511452D01*
X147853000Y-87510000D01*
X147928000Y-87435000D01*
X147928000Y-86514000D01*
X148236000Y-86514000D01*
X148236000Y-87435000D01*
X148311000Y-87510000D01*
X148932000Y-87511452D01*
X148990810Y-87505660D01*
X149047361Y-87488505D01*
X149099478Y-87460648D01*
X149145159Y-87423159D01*
X149182648Y-87377478D01*
X149210505Y-87325361D01*
X149227660Y-87268810D01*
X149233452Y-87210000D01*
X149232000Y-86589000D01*
X149157000Y-86514000D01*
X148236000Y-86514000D01*
X147928000Y-86514000D01*
X147007000Y-86514000D01*
X146932000Y-86589000D01*
X146930548Y-87210000D01*
X133958000Y-87210000D01*
X133958000Y-86246735D01*
X149472000Y-86246735D01*
X149472000Y-86473265D01*
X149516194Y-86695443D01*
X149602884Y-86904729D01*
X149728737Y-87093082D01*
X149888918Y-87253263D01*
X150077271Y-87379116D01*
X150286557Y-87465806D01*
X150508735Y-87510000D01*
X150735265Y-87510000D01*
X150957443Y-87465806D01*
X151166729Y-87379116D01*
X151355082Y-87253263D01*
X151515263Y-87093082D01*
X151641116Y-86904729D01*
X151727806Y-86695443D01*
X151772000Y-86473265D01*
X151772000Y-86246735D01*
X152012000Y-86246735D01*
X152012000Y-86473265D01*
X152056194Y-86695443D01*
X152142884Y-86904729D01*
X152268737Y-87093082D01*
X152428918Y-87253263D01*
X152617271Y-87379116D01*
X152826557Y-87465806D01*
X153048735Y-87510000D01*
X153275265Y-87510000D01*
X153497443Y-87465806D01*
X153706729Y-87379116D01*
X153895082Y-87253263D01*
X154055263Y-87093082D01*
X154181116Y-86904729D01*
X154267806Y-86695443D01*
X154312000Y-86473265D01*
X154312000Y-86246735D01*
X154552000Y-86246735D01*
X154552000Y-86473265D01*
X154596194Y-86695443D01*
X154682884Y-86904729D01*
X154808737Y-87093082D01*
X154968918Y-87253263D01*
X155157271Y-87379116D01*
X155366557Y-87465806D01*
X155588735Y-87510000D01*
X155815265Y-87510000D01*
X156037443Y-87465806D01*
X156246729Y-87379116D01*
X156435082Y-87253263D01*
X156478345Y-87210000D01*
X158614548Y-87210000D01*
X158620340Y-87268810D01*
X158637495Y-87325361D01*
X158665352Y-87377478D01*
X158702841Y-87423159D01*
X158748522Y-87460648D01*
X158800639Y-87488505D01*
X158857190Y-87505660D01*
X158916000Y-87511452D01*
X159537000Y-87510000D01*
X159612000Y-87435000D01*
X159612000Y-86514000D01*
X159920000Y-86514000D01*
X159920000Y-87435000D01*
X159995000Y-87510000D01*
X160616000Y-87511452D01*
X160674810Y-87505660D01*
X160731361Y-87488505D01*
X160783478Y-87460648D01*
X160829159Y-87423159D01*
X160866648Y-87377478D01*
X160894505Y-87325361D01*
X160911660Y-87268810D01*
X160917452Y-87210000D01*
X160916000Y-86589000D01*
X160841000Y-86514000D01*
X159920000Y-86514000D01*
X159612000Y-86514000D01*
X158691000Y-86514000D01*
X158616000Y-86589000D01*
X158614548Y-87210000D01*
X156478345Y-87210000D01*
X156595263Y-87093082D01*
X156721116Y-86904729D01*
X156807806Y-86695443D01*
X156852000Y-86473265D01*
X156852000Y-86246735D01*
X161156000Y-86246735D01*
X161156000Y-86473265D01*
X161200194Y-86695443D01*
X161286884Y-86904729D01*
X161412737Y-87093082D01*
X161572918Y-87253263D01*
X161761271Y-87379116D01*
X161970557Y-87465806D01*
X162192735Y-87510000D01*
X162419265Y-87510000D01*
X162641443Y-87465806D01*
X162850729Y-87379116D01*
X163039082Y-87253263D01*
X163199263Y-87093082D01*
X163325116Y-86904729D01*
X163411806Y-86695443D01*
X163456000Y-86473265D01*
X163456000Y-86246735D01*
X163411806Y-86024557D01*
X163325116Y-85815271D01*
X163199263Y-85626918D01*
X163039082Y-85466737D01*
X162850729Y-85340884D01*
X162641443Y-85254194D01*
X162419265Y-85210000D01*
X162192735Y-85210000D01*
X161970557Y-85254194D01*
X161761271Y-85340884D01*
X161572918Y-85466737D01*
X161412737Y-85626918D01*
X161286884Y-85815271D01*
X161200194Y-86024557D01*
X161156000Y-86246735D01*
X156852000Y-86246735D01*
X156807806Y-86024557D01*
X156721116Y-85815271D01*
X156595263Y-85626918D01*
X156478345Y-85510000D01*
X158614548Y-85510000D01*
X158616000Y-86131000D01*
X158691000Y-86206000D01*
X159612000Y-86206000D01*
X159612000Y-85285000D01*
X159920000Y-85285000D01*
X159920000Y-86206000D01*
X160841000Y-86206000D01*
X160916000Y-86131000D01*
X160917452Y-85510000D01*
X160911660Y-85451190D01*
X160894505Y-85394639D01*
X160866648Y-85342522D01*
X160829159Y-85296841D01*
X160783478Y-85259352D01*
X160731361Y-85231495D01*
X160674810Y-85214340D01*
X160616000Y-85208548D01*
X159995000Y-85210000D01*
X159920000Y-85285000D01*
X159612000Y-85285000D01*
X159537000Y-85210000D01*
X158916000Y-85208548D01*
X158857190Y-85214340D01*
X158800639Y-85231495D01*
X158748522Y-85259352D01*
X158702841Y-85296841D01*
X158665352Y-85342522D01*
X158637495Y-85394639D01*
X158620340Y-85451190D01*
X158614548Y-85510000D01*
X156478345Y-85510000D01*
X156435082Y-85466737D01*
X156246729Y-85340884D01*
X156037443Y-85254194D01*
X155815265Y-85210000D01*
X155588735Y-85210000D01*
X155366557Y-85254194D01*
X155157271Y-85340884D01*
X154968918Y-85466737D01*
X154808737Y-85626918D01*
X154682884Y-85815271D01*
X154596194Y-86024557D01*
X154552000Y-86246735D01*
X154312000Y-86246735D01*
X154267806Y-86024557D01*
X154181116Y-85815271D01*
X154055263Y-85626918D01*
X153895082Y-85466737D01*
X153706729Y-85340884D01*
X153497443Y-85254194D01*
X153275265Y-85210000D01*
X153048735Y-85210000D01*
X152826557Y-85254194D01*
X152617271Y-85340884D01*
X152428918Y-85466737D01*
X152268737Y-85626918D01*
X152142884Y-85815271D01*
X152056194Y-86024557D01*
X152012000Y-86246735D01*
X151772000Y-86246735D01*
X151727806Y-86024557D01*
X151641116Y-85815271D01*
X151515263Y-85626918D01*
X151355082Y-85466737D01*
X151166729Y-85340884D01*
X150957443Y-85254194D01*
X150735265Y-85210000D01*
X150508735Y-85210000D01*
X150286557Y-85254194D01*
X150077271Y-85340884D01*
X149888918Y-85466737D01*
X149728737Y-85626918D01*
X149602884Y-85815271D01*
X149516194Y-86024557D01*
X149472000Y-86246735D01*
X133958000Y-86246735D01*
X133958000Y-85857167D01*
X134014645Y-85645764D01*
X134150409Y-85510000D01*
X146930548Y-85510000D01*
X146932000Y-86131000D01*
X147007000Y-86206000D01*
X147928000Y-86206000D01*
X147928000Y-85285000D01*
X148236000Y-85285000D01*
X148236000Y-86206000D01*
X149157000Y-86206000D01*
X149232000Y-86131000D01*
X149233452Y-85510000D01*
X149227660Y-85451190D01*
X149210505Y-85394639D01*
X149182648Y-85342522D01*
X149145159Y-85296841D01*
X149099478Y-85259352D01*
X149047361Y-85231495D01*
X148990810Y-85214340D01*
X148932000Y-85208548D01*
X148311000Y-85210000D01*
X148236000Y-85285000D01*
X147928000Y-85285000D01*
X147853000Y-85210000D01*
X147232000Y-85208548D01*
X147173190Y-85214340D01*
X147116639Y-85231495D01*
X147064522Y-85259352D01*
X147018841Y-85296841D01*
X146981352Y-85342522D01*
X146953495Y-85394639D01*
X146936340Y-85451190D01*
X146930548Y-85510000D01*
X134150409Y-85510000D01*
X134159764Y-85500645D01*
X134371167Y-85444000D01*
X142113000Y-85444000D01*
X142132509Y-85442079D01*
X142151268Y-85436388D01*
X142241071Y-85399191D01*
X142258360Y-85389950D01*
X142273513Y-85377514D01*
X142285950Y-85362361D01*
X142295191Y-85345071D01*
X142353734Y-85203734D01*
X142386891Y-85190000D01*
X163838000Y-85190000D01*
X163863882Y-85186593D01*
X164113882Y-85119606D01*
X164132229Y-85112700D01*
X164148876Y-85102348D01*
X164158711Y-85093724D01*
X164341724Y-84910711D01*
X164354160Y-84895557D01*
X164363401Y-84878268D01*
X164367606Y-84865882D01*
X164434593Y-84615882D01*
X164438000Y-84590000D01*
X164438000Y-84150383D01*
X165268480Y-84150383D01*
X165270561Y-84157272D01*
X165357485Y-84365281D01*
X165483319Y-84552336D01*
X165643228Y-84711247D01*
X165831066Y-84835908D01*
X166039615Y-84921528D01*
X166216000Y-84884650D01*
X166216000Y-83974000D01*
X166524000Y-83974000D01*
X166524000Y-84884650D01*
X166700385Y-84921528D01*
X166908934Y-84835908D01*
X167096772Y-84711247D01*
X167256681Y-84552336D01*
X167382515Y-84365281D01*
X167469439Y-84157272D01*
X167471520Y-84150383D01*
X167433912Y-83974000D01*
X166524000Y-83974000D01*
X166216000Y-83974000D01*
X165306088Y-83974000D01*
X165268480Y-84150383D01*
X164438000Y-84150383D01*
X164438000Y-83317167D01*
X164494645Y-83105764D01*
X164639764Y-82960645D01*
X164851167Y-82904000D01*
X165680526Y-82904000D01*
X165643228Y-82928753D01*
M02*
