M48
; DRILL file {KiCad 5.1.5+dfsg1-2} date Wed 22 Jan 2020 09:52:44 PM CET
; FORMAT={3:3/ absolute / metric / suppress leading zeros}
; #@! TF.CreationDate,2020-01-22T21:52:44+01:00
; #@! TF.GenerationSoftware,Kicad,Pcbnew,5.1.5+dfsg1-2
FMAT,2
METRIC,TZ
T1C0.400
T2C0.500
T3C0.760
T4C1.000
T5C1.040
T6C1.300
T7C3.200
%
G90
G05
T1
X121158Y-90678
X121158Y-92202
X121158Y-103632
X121158Y-105156
X121666Y-109982
X121666Y-121920
X121920Y-83312
X122174Y-130810
X122682Y-92202
X122682Y-103632
X124206Y-92202
X124206Y-103632
X125730Y-92202
X127000Y-83312
X127254Y-92202
X127254Y-93726
X127254Y-95250
X127254Y-96774
X127254Y-98298
X127254Y-99822
X127254Y-101346
X131572Y-131572
X135890Y-83312
X140970Y-83312
X140970Y-124714
X140970Y-131826
X147320Y-101600
X151130Y-96520
X151130Y-105410
X151892Y-124714
X151892Y-131826
X152908Y-67818
X162052Y-131826
X163385Y-73660
X163385Y-76200
X163385Y-78740
X164338Y-96520
X164592Y-105410
X172720Y-131318
X174244Y-83820
X179578Y-113284
X183896Y-130302
X195580Y-104140
X195580Y-108712
X195580Y-113284
X196850Y-128016
T2
X160274Y-117856
X163830Y-108966
T3
X186690Y-74930
X186690Y-77470
X186690Y-80010
X186690Y-82550
X189230Y-76200
X189230Y-78740
X189230Y-81280
X189230Y-83820
T4
X165862Y-122428
X152654Y-122428
X155194Y-122428
X157734Y-122428
X160274Y-122428
X195794Y-93691
X195794Y-98191
X159766Y-86360
X162306Y-86360
X179070Y-68580
X179070Y-71120
X179070Y-73660
X179070Y-76200
X179070Y-78740
X179070Y-81280
X179070Y-83820
X179070Y-86360
X166370Y-68580
X166370Y-71120
X166370Y-73660
X166370Y-76200
X166370Y-78740
X166370Y-81280
X166370Y-83820
X166370Y-86360
X181737Y-119951
X181737Y-122492
X181737Y-125032
X150114Y-76962
X176276Y-119888
X176276Y-122428
X176276Y-124968
X148082Y-86360
X150622Y-86360
X153162Y-86360
X155702Y-86360
T5
X151384Y-90170
X151384Y-115570
X153924Y-90170
X153924Y-115570
X156464Y-90170
X156464Y-115570
X159004Y-90170
X159004Y-115570
X161544Y-90170
X161544Y-115570
X164084Y-90170
X164084Y-115570
X166624Y-90170
X166624Y-115570
X169164Y-90170
X169164Y-115570
X171704Y-90170
X171704Y-115570
X174244Y-90170
X174244Y-115570
X176784Y-90170
X176784Y-115570
X179324Y-90170
X179324Y-115570
X181864Y-90170
X181864Y-115570
X184404Y-90170
X184404Y-115570
X186944Y-90170
X186944Y-115570
X189484Y-90170
X189484Y-115570
X192024Y-90170
X192024Y-115570
X194564Y-90170
X194564Y-115570
X197104Y-90170
X197104Y-115570
T6
X193294Y-92441
X193294Y-99441
T7
X132425Y-127550
X171425Y-127550
X195580Y-73660
X195580Y-85090
X131425Y-70050
X171425Y-71050
T4
G00X188950Y-124690
M15
G01X188950Y-125690
M16
G05
G00X194450Y-124690
M15
G01X194450Y-125690
M16
G05
G00X196850Y-122690
M15
G01X196850Y-123690
M16
G05
T0
M30
