M48
;DRILL file {KiCad 5.0.2+dfsg1-1} date Fri 10 May 2019 06:21:20 PM CEST
;FORMAT={3:3/ absolute / metric / suppress leading zeros}
FMAT,2
METRIC,TZ
T1C0.400
T2C0.760
T3C1.000
T4C1.100
T5C1.300
T6C3.200
%
G90
G05
T1
X121000Y-66000
X121000Y-83000
X121000Y-85000
X121000Y-87000
X121000Y-89000
X121000Y-91000
X121000Y-102000
X121000Y-104000
X121000Y-106000
X121000Y-108000
X121000Y-110000
X121000Y-131000
X123000Y-91000
X123000Y-102000
X125000Y-91000
X125000Y-102000
X127000Y-66000
X127000Y-91000
X127000Y-93000
X127000Y-95000
X127000Y-97000
X127000Y-99000
X127000Y-101000
X127000Y-131000
X137000Y-66000
X138000Y-131000
X143972Y-104850
X145500Y-100750
X157000Y-67000
X157000Y-130000
X164800Y-104596
X183000Y-70000
T2
X170388Y-72592
X170388Y-75132
X170388Y-77672
X170388Y-80212
X172928Y-73862
X172928Y-76402
X172928Y-78942
X172928Y-81482
T3
X170460Y-96500
X173000Y-96500
X124920Y-111500
X127460Y-111500
X130000Y-111500
X132540Y-111500
X180929Y-120344
X180929Y-124844
X154132Y-92912
X156672Y-92912
X159212Y-92912
X164038Y-92912
X166578Y-92912
T4
X148671Y-99897
X148671Y-102437
X148671Y-104977
X148671Y-107517
X148671Y-110057
X148671Y-112597
X148671Y-115137
X151211Y-99897
X151211Y-115137
X153751Y-99897
X153751Y-115137
X156291Y-99897
X156291Y-115137
X158831Y-99897
X158831Y-115137
X161371Y-99897
X161371Y-115137
X163911Y-99897
X163911Y-115137
X166451Y-99897
X166451Y-115137
X168991Y-99897
X168991Y-115137
X171531Y-99897
X171531Y-115137
X174071Y-99897
X174071Y-115137
X176611Y-99897
X176611Y-115137
X179151Y-99897
X179151Y-112597
X179151Y-115137
X181691Y-99897
X181691Y-115137
T5
X178429Y-119094
X178429Y-126094
T6
X179278Y-71322
X179278Y-82752
X157250Y-126750
X157250Y-70250
T3
X173918Y-91364G85X173918Y-92364
G05
X179418Y-91364G85X179418Y-92364
G05
X181818Y-89364G85X181818Y-90364
G05
T0
M30
