M48
; DRILL file {KiCad 5.1.5+dfsg1-2} date Sun 26 Jan 2020 12:38:59 AM CET
; FORMAT={2:4/ absolute / inch / suppress leading zeros}
; #@! TF.CreationDate,2020-01-26T00:38:59+01:00
; #@! TF.GenerationSoftware,Kicad,Pcbnew,5.1.5+dfsg1-2
FMAT,2
INCH,TZ
T1C0.0157
T2C0.0197
T3C0.0299
T4C0.0394
T5C0.0409
T6C0.0512
T7C0.1260
%
G90
G05
T1
X47700Y-35700
X47700Y-36300
X47700Y-40800
X47700Y-41400
X47900Y-43300
X47900Y-48000
X48000Y-32800
X48100Y-51500
X48300Y-36300
X48300Y-40800
X48900Y-36300
X48900Y-40800
X49500Y-36300
X50000Y-32800
X50100Y-36300
X50100Y-36900
X50100Y-37500
X50100Y-38100
X50100Y-38700
X50100Y-39300
X50100Y-39900
X51800Y-51800
X53500Y-32800
X55500Y-32800
X55500Y-49100
X55500Y-51900
X58000Y-40000
X59500Y-38000
X59500Y-41500
X59800Y-49100
X59800Y-51900
X60200Y-26700
X63800Y-51900
X64325Y-29000
X64325Y-30000
X64325Y-31000
X64700Y-38000
X64800Y-41500
X68000Y-51700
X68600Y-33000
X70700Y-44600
X72400Y-51300
X77000Y-41000
X77000Y-42800
X77000Y-44600
X77500Y-50400
T2
X63100Y-46400
X64500Y-42900
T3
X73500Y-29500
X73500Y-30500
X73500Y-31500
X73500Y-32500
X74500Y-30000
X74500Y-31000
X74500Y-32000
X74500Y-33000
T4
X62900Y-34000
X63900Y-34000
X59400Y-30300
X65300Y-48200
X69400Y-47200
X69400Y-48200
X69400Y-49200
X58300Y-34000
X59300Y-34000
X60300Y-34000
X61300Y-34000
X60100Y-48200
X61100Y-48200
X62100Y-48200
X63100Y-48200
X71550Y-47225
X71550Y-48225
X71550Y-49225
X65500Y-27000
X65500Y-28000
X65500Y-29000
X65500Y-30000
X65500Y-31000
X65500Y-32000
X65500Y-33000
X65500Y-34000
X77084Y-36886
X77084Y-38658
X70500Y-27000
X70500Y-28000
X70500Y-29000
X70500Y-30000
X70500Y-31000
X70500Y-32000
X70500Y-33000
X70500Y-34000
T5
X59600Y-35500
X59600Y-45500
X60600Y-35500
X60600Y-45500
X61600Y-35500
X61600Y-45500
X62600Y-35500
X62600Y-45500
X63600Y-35500
X63600Y-45500
X64600Y-35500
X64600Y-45500
X65600Y-35500
X65600Y-45500
X66600Y-35500
X66600Y-45500
X67600Y-35500
X67600Y-45500
X68600Y-35500
X68600Y-45500
X69600Y-35500
X69600Y-45500
X70600Y-35500
X70600Y-45500
X71600Y-35500
X71600Y-45500
X72600Y-35500
X72600Y-45500
X73600Y-35500
X73600Y-45500
X74600Y-35500
X74600Y-45500
X75600Y-35500
X75600Y-45500
X76600Y-35500
X76600Y-45500
X77600Y-35500
X77600Y-45500
T6
X76100Y-36394
X76100Y-39150
T7
X67490Y-50217
X67490Y-27972
X51742Y-27579
X52136Y-50217
X77000Y-29000
X77000Y-33500
T4
G00X74390Y-49091
M15
G01X74390Y-49484
M16
G05
G00X76555Y-49091
M15
G01X76555Y-49484
M16
G05
G00X77500Y-48303
M15
G01X77500Y-48697
M16
G05
T0
M30
