G04 #@! TF.GenerationSoftware,KiCad,Pcbnew,5.1.5+dfsg1-2*
G04 #@! TF.CreationDate,2020-01-26T00:38:51+01:00*
G04 #@! TF.ProjectId,bt-trx-dev-board,62742d74-7278-42d6-9465-762d626f6172,5.0*
G04 #@! TF.SameCoordinates,Original*
G04 #@! TF.FileFunction,Soldermask,Bot*
G04 #@! TF.FilePolarity,Negative*
%FSLAX46Y46*%
G04 Gerber Fmt 4.6, Leading zero omitted, Abs format (unit mm)*
G04 Created by KiCad (PCBNEW 5.1.5+dfsg1-2) date 2020-01-26 00:38:51*
%MOMM*%
%LPD*%
G04 APERTURE LIST*
%ADD10C,0.100000*%
%ADD11C,0.150000*%
G04 APERTURE END LIST*
D10*
X194437000Y-99441000D02*
G75*
G03X194437000Y-99441000I-1143000J0D01*
G01*
X196683000Y-93691000D02*
G75*
G03X196683000Y-93691000I-889000J0D01*
G01*
X196683000Y-98191000D02*
G75*
G03X196683000Y-98191000I-889000J0D01*
G01*
X194437000Y-92441000D02*
G75*
G03X194437000Y-92441000I-1143000J0D01*
G01*
D11*
G36*
X171756025Y-125932500D02*
G01*
X171906579Y-125962447D01*
X172119037Y-126050450D01*
X172131695Y-126055693D01*
X172207042Y-126086903D01*
X172477451Y-126267585D01*
X172707415Y-126497549D01*
X172888097Y-126767958D01*
X173012553Y-127068421D01*
X173076000Y-127387391D01*
X173076000Y-127712609D01*
X173012553Y-128031579D01*
X172888097Y-128332042D01*
X172707415Y-128602451D01*
X172477451Y-128832415D01*
X172207042Y-129013097D01*
X171906579Y-129137553D01*
X171800256Y-129158702D01*
X171587611Y-129201000D01*
X171262389Y-129201000D01*
X171049744Y-129158702D01*
X170943421Y-129137553D01*
X170642958Y-129013097D01*
X170372549Y-128832415D01*
X170142585Y-128602451D01*
X169961903Y-128332042D01*
X169837447Y-128031579D01*
X169774000Y-127712609D01*
X169774000Y-127387391D01*
X169837447Y-127068421D01*
X169961903Y-126767958D01*
X170142585Y-126497549D01*
X170372549Y-126267585D01*
X170642958Y-126086903D01*
X170718306Y-126055693D01*
X170730963Y-126050450D01*
X170943421Y-125962447D01*
X171093975Y-125932500D01*
X171262389Y-125899000D01*
X171587611Y-125899000D01*
X171756025Y-125932500D01*
G37*
G36*
X132756025Y-125932500D02*
G01*
X132906579Y-125962447D01*
X133119037Y-126050450D01*
X133131695Y-126055693D01*
X133207042Y-126086903D01*
X133477451Y-126267585D01*
X133707415Y-126497549D01*
X133888097Y-126767958D01*
X134012553Y-127068421D01*
X134076000Y-127387391D01*
X134076000Y-127712609D01*
X134012553Y-128031579D01*
X133888097Y-128332042D01*
X133707415Y-128602451D01*
X133477451Y-128832415D01*
X133207042Y-129013097D01*
X132906579Y-129137553D01*
X132800256Y-129158702D01*
X132587611Y-129201000D01*
X132262389Y-129201000D01*
X132049744Y-129158702D01*
X131943421Y-129137553D01*
X131642958Y-129013097D01*
X131372549Y-128832415D01*
X131142585Y-128602451D01*
X130961903Y-128332042D01*
X130837447Y-128031579D01*
X130774000Y-127712609D01*
X130774000Y-127387391D01*
X130837447Y-127068421D01*
X130961903Y-126767958D01*
X131142585Y-126497549D01*
X131372549Y-126267585D01*
X131642958Y-126086903D01*
X131718306Y-126055693D01*
X131730963Y-126050450D01*
X131943421Y-125962447D01*
X132093975Y-125932500D01*
X132262389Y-125899000D01*
X132587611Y-125899000D01*
X132756025Y-125932500D01*
G37*
G36*
X194636425Y-123752760D02*
G01*
X194636428Y-123752761D01*
X194636429Y-123752761D01*
X194815693Y-123807140D01*
X194815696Y-123807142D01*
X194815697Y-123807142D01*
X194980903Y-123895446D01*
X195125712Y-124014288D01*
X195244554Y-124159097D01*
X195284079Y-124233044D01*
X195332860Y-124324307D01*
X195387239Y-124503571D01*
X195387240Y-124503575D01*
X195401000Y-124643282D01*
X195401000Y-125736718D01*
X195387240Y-125876425D01*
X195387239Y-125876428D01*
X195387239Y-125876429D01*
X195332860Y-126055693D01*
X195332858Y-126055696D01*
X195332858Y-126055697D01*
X195244554Y-126220903D01*
X195125712Y-126365712D01*
X194980903Y-126484554D01*
X194815696Y-126572858D01*
X194815692Y-126572860D01*
X194636428Y-126627239D01*
X194636427Y-126627239D01*
X194636424Y-126627240D01*
X194450000Y-126645601D01*
X194263575Y-126627240D01*
X194263572Y-126627239D01*
X194263571Y-126627239D01*
X194084307Y-126572860D01*
X194084303Y-126572858D01*
X193919097Y-126484554D01*
X193774288Y-126365712D01*
X193655446Y-126220903D01*
X193567142Y-126055696D01*
X193567141Y-126055693D01*
X193567140Y-126055692D01*
X193512761Y-125876428D01*
X193512761Y-125876427D01*
X193512760Y-125876424D01*
X193499000Y-125736717D01*
X193499000Y-124643282D01*
X193512760Y-124503570D01*
X193567140Y-124324308D01*
X193655447Y-124159097D01*
X193774289Y-124014288D01*
X193919098Y-123895446D01*
X194084304Y-123807142D01*
X194084305Y-123807142D01*
X194084308Y-123807140D01*
X194263572Y-123752761D01*
X194263573Y-123752761D01*
X194263576Y-123752760D01*
X194450000Y-123734399D01*
X194636425Y-123752760D01*
G37*
G36*
X189136425Y-123752760D02*
G01*
X189136428Y-123752761D01*
X189136429Y-123752761D01*
X189315693Y-123807140D01*
X189315696Y-123807142D01*
X189315697Y-123807142D01*
X189480903Y-123895446D01*
X189625712Y-124014288D01*
X189744554Y-124159097D01*
X189784079Y-124233044D01*
X189832860Y-124324307D01*
X189887239Y-124503571D01*
X189887240Y-124503575D01*
X189901000Y-124643282D01*
X189901000Y-125736718D01*
X189887240Y-125876425D01*
X189887239Y-125876428D01*
X189887239Y-125876429D01*
X189832860Y-126055693D01*
X189832858Y-126055696D01*
X189832858Y-126055697D01*
X189744554Y-126220903D01*
X189625712Y-126365712D01*
X189480903Y-126484554D01*
X189315696Y-126572858D01*
X189315692Y-126572860D01*
X189136428Y-126627239D01*
X189136427Y-126627239D01*
X189136424Y-126627240D01*
X188950000Y-126645601D01*
X188763575Y-126627240D01*
X188763572Y-126627239D01*
X188763571Y-126627239D01*
X188584307Y-126572860D01*
X188584303Y-126572858D01*
X188419097Y-126484554D01*
X188274288Y-126365712D01*
X188155446Y-126220903D01*
X188067142Y-126055696D01*
X188067141Y-126055693D01*
X188067140Y-126055692D01*
X188012761Y-125876428D01*
X188012761Y-125876427D01*
X188012760Y-125876424D01*
X187999000Y-125736717D01*
X187999000Y-124643282D01*
X188012760Y-124503570D01*
X188067140Y-124324308D01*
X188155447Y-124159097D01*
X188274289Y-124014288D01*
X188419098Y-123895446D01*
X188584304Y-123807142D01*
X188584305Y-123807142D01*
X188584308Y-123807140D01*
X188763572Y-123752761D01*
X188763573Y-123752761D01*
X188763576Y-123752760D01*
X188950000Y-123734399D01*
X189136425Y-123752760D01*
G37*
G36*
X181850512Y-124135427D02*
G01*
X181999812Y-124165124D01*
X182163784Y-124233044D01*
X182311354Y-124331647D01*
X182436853Y-124457146D01*
X182535456Y-124604716D01*
X182603376Y-124768688D01*
X182638000Y-124942759D01*
X182638000Y-125120241D01*
X182603376Y-125294312D01*
X182535456Y-125458284D01*
X182436853Y-125605854D01*
X182311354Y-125731353D01*
X182163784Y-125829956D01*
X181999812Y-125897876D01*
X181850512Y-125927573D01*
X181825742Y-125932500D01*
X181648258Y-125932500D01*
X181623488Y-125927573D01*
X181474188Y-125897876D01*
X181310216Y-125829956D01*
X181162646Y-125731353D01*
X181037147Y-125605854D01*
X180938544Y-125458284D01*
X180870624Y-125294312D01*
X180836000Y-125120241D01*
X180836000Y-124942759D01*
X180870624Y-124768688D01*
X180938544Y-124604716D01*
X181037147Y-124457146D01*
X181162646Y-124331647D01*
X181310216Y-124233044D01*
X181474188Y-124165124D01*
X181623488Y-124135427D01*
X181648258Y-124130500D01*
X181825742Y-124130500D01*
X181850512Y-124135427D01*
G37*
G36*
X177177000Y-125869000D02*
G01*
X175375000Y-125869000D01*
X175375000Y-124067000D01*
X177177000Y-124067000D01*
X177177000Y-125869000D01*
G37*
G36*
X197036425Y-121752760D02*
G01*
X197036428Y-121752761D01*
X197036429Y-121752761D01*
X197215693Y-121807140D01*
X197215696Y-121807142D01*
X197215697Y-121807142D01*
X197380903Y-121895446D01*
X197525712Y-122014288D01*
X197644554Y-122159097D01*
X197732858Y-122324303D01*
X197732860Y-122324307D01*
X197787239Y-122503571D01*
X197787240Y-122503575D01*
X197801000Y-122643282D01*
X197801000Y-123736718D01*
X197787240Y-123876425D01*
X197787239Y-123876428D01*
X197787239Y-123876429D01*
X197732860Y-124055693D01*
X197732858Y-124055696D01*
X197732858Y-124055697D01*
X197644554Y-124220903D01*
X197525712Y-124365712D01*
X197380903Y-124484554D01*
X197215696Y-124572858D01*
X197215692Y-124572860D01*
X197036428Y-124627239D01*
X197036427Y-124627239D01*
X197036424Y-124627240D01*
X196850000Y-124645601D01*
X196663575Y-124627240D01*
X196663572Y-124627239D01*
X196663571Y-124627239D01*
X196484307Y-124572860D01*
X196484303Y-124572858D01*
X196319097Y-124484554D01*
X196174288Y-124365712D01*
X196055446Y-124220903D01*
X195967142Y-124055696D01*
X195967141Y-124055693D01*
X195967140Y-124055692D01*
X195912761Y-123876428D01*
X195912761Y-123876427D01*
X195912760Y-123876424D01*
X195899000Y-123736717D01*
X195899000Y-122643282D01*
X195912760Y-122503570D01*
X195967140Y-122324308D01*
X196055447Y-122159097D01*
X196174289Y-122014288D01*
X196319098Y-121895446D01*
X196484304Y-121807142D01*
X196484305Y-121807142D01*
X196484308Y-121807140D01*
X196663572Y-121752761D01*
X196663573Y-121752761D01*
X196663576Y-121752760D01*
X196850000Y-121734399D01*
X197036425Y-121752760D01*
G37*
G36*
X181850512Y-121595427D02*
G01*
X181999812Y-121625124D01*
X182163784Y-121693044D01*
X182311354Y-121791647D01*
X182436853Y-121917146D01*
X182535456Y-122064716D01*
X182603376Y-122228688D01*
X182638000Y-122402759D01*
X182638000Y-122580241D01*
X182603376Y-122754312D01*
X182535456Y-122918284D01*
X182436853Y-123065854D01*
X182311354Y-123191353D01*
X182163784Y-123289956D01*
X181999812Y-123357876D01*
X181850512Y-123387573D01*
X181825742Y-123392500D01*
X181648258Y-123392500D01*
X181623488Y-123387573D01*
X181474188Y-123357876D01*
X181310216Y-123289956D01*
X181162646Y-123191353D01*
X181037147Y-123065854D01*
X180938544Y-122918284D01*
X180870624Y-122754312D01*
X180836000Y-122580241D01*
X180836000Y-122402759D01*
X180870624Y-122228688D01*
X180938544Y-122064716D01*
X181037147Y-121917146D01*
X181162646Y-121791647D01*
X181310216Y-121693044D01*
X181474188Y-121625124D01*
X181623488Y-121595427D01*
X181648258Y-121590500D01*
X181825742Y-121590500D01*
X181850512Y-121595427D01*
G37*
G36*
X157847512Y-121531927D02*
G01*
X157996812Y-121561624D01*
X158160784Y-121629544D01*
X158308354Y-121728147D01*
X158433853Y-121853646D01*
X158532456Y-122001216D01*
X158600376Y-122165188D01*
X158635000Y-122339259D01*
X158635000Y-122516741D01*
X158600376Y-122690812D01*
X158532456Y-122854784D01*
X158433853Y-123002354D01*
X158308354Y-123127853D01*
X158160784Y-123226456D01*
X157996812Y-123294376D01*
X157847512Y-123324073D01*
X157822742Y-123329000D01*
X157645258Y-123329000D01*
X157620488Y-123324073D01*
X157471188Y-123294376D01*
X157307216Y-123226456D01*
X157159646Y-123127853D01*
X157034147Y-123002354D01*
X156935544Y-122854784D01*
X156867624Y-122690812D01*
X156833000Y-122516741D01*
X156833000Y-122339259D01*
X156867624Y-122165188D01*
X156935544Y-122001216D01*
X157034147Y-121853646D01*
X157159646Y-121728147D01*
X157307216Y-121629544D01*
X157471188Y-121561624D01*
X157620488Y-121531927D01*
X157645258Y-121527000D01*
X157822742Y-121527000D01*
X157847512Y-121531927D01*
G37*
G36*
X155307512Y-121531927D02*
G01*
X155456812Y-121561624D01*
X155620784Y-121629544D01*
X155768354Y-121728147D01*
X155893853Y-121853646D01*
X155992456Y-122001216D01*
X156060376Y-122165188D01*
X156095000Y-122339259D01*
X156095000Y-122516741D01*
X156060376Y-122690812D01*
X155992456Y-122854784D01*
X155893853Y-123002354D01*
X155768354Y-123127853D01*
X155620784Y-123226456D01*
X155456812Y-123294376D01*
X155307512Y-123324073D01*
X155282742Y-123329000D01*
X155105258Y-123329000D01*
X155080488Y-123324073D01*
X154931188Y-123294376D01*
X154767216Y-123226456D01*
X154619646Y-123127853D01*
X154494147Y-123002354D01*
X154395544Y-122854784D01*
X154327624Y-122690812D01*
X154293000Y-122516741D01*
X154293000Y-122339259D01*
X154327624Y-122165188D01*
X154395544Y-122001216D01*
X154494147Y-121853646D01*
X154619646Y-121728147D01*
X154767216Y-121629544D01*
X154931188Y-121561624D01*
X155080488Y-121531927D01*
X155105258Y-121527000D01*
X155282742Y-121527000D01*
X155307512Y-121531927D01*
G37*
G36*
X153555000Y-123329000D02*
G01*
X151753000Y-123329000D01*
X151753000Y-121527000D01*
X153555000Y-121527000D01*
X153555000Y-123329000D01*
G37*
G36*
X176389512Y-121531927D02*
G01*
X176538812Y-121561624D01*
X176702784Y-121629544D01*
X176850354Y-121728147D01*
X176975853Y-121853646D01*
X177074456Y-122001216D01*
X177142376Y-122165188D01*
X177177000Y-122339259D01*
X177177000Y-122516741D01*
X177142376Y-122690812D01*
X177074456Y-122854784D01*
X176975853Y-123002354D01*
X176850354Y-123127853D01*
X176702784Y-123226456D01*
X176538812Y-123294376D01*
X176389512Y-123324073D01*
X176364742Y-123329000D01*
X176187258Y-123329000D01*
X176162488Y-123324073D01*
X176013188Y-123294376D01*
X175849216Y-123226456D01*
X175701646Y-123127853D01*
X175576147Y-123002354D01*
X175477544Y-122854784D01*
X175409624Y-122690812D01*
X175375000Y-122516741D01*
X175375000Y-122339259D01*
X175409624Y-122165188D01*
X175477544Y-122001216D01*
X175576147Y-121853646D01*
X175701646Y-121728147D01*
X175849216Y-121629544D01*
X176013188Y-121561624D01*
X176162488Y-121531927D01*
X176187258Y-121527000D01*
X176364742Y-121527000D01*
X176389512Y-121531927D01*
G37*
G36*
X166763000Y-123329000D02*
G01*
X164961000Y-123329000D01*
X164961000Y-121527000D01*
X166763000Y-121527000D01*
X166763000Y-123329000D01*
G37*
G36*
X160387512Y-121531927D02*
G01*
X160536812Y-121561624D01*
X160700784Y-121629544D01*
X160848354Y-121728147D01*
X160973853Y-121853646D01*
X161072456Y-122001216D01*
X161140376Y-122165188D01*
X161175000Y-122339259D01*
X161175000Y-122516741D01*
X161140376Y-122690812D01*
X161072456Y-122854784D01*
X160973853Y-123002354D01*
X160848354Y-123127853D01*
X160700784Y-123226456D01*
X160536812Y-123294376D01*
X160387512Y-123324073D01*
X160362742Y-123329000D01*
X160185258Y-123329000D01*
X160160488Y-123324073D01*
X160011188Y-123294376D01*
X159847216Y-123226456D01*
X159699646Y-123127853D01*
X159574147Y-123002354D01*
X159475544Y-122854784D01*
X159407624Y-122690812D01*
X159373000Y-122516741D01*
X159373000Y-122339259D01*
X159407624Y-122165188D01*
X159475544Y-122001216D01*
X159574147Y-121853646D01*
X159699646Y-121728147D01*
X159847216Y-121629544D01*
X160011188Y-121561624D01*
X160160488Y-121531927D01*
X160185258Y-121527000D01*
X160362742Y-121527000D01*
X160387512Y-121531927D01*
G37*
G36*
X182638000Y-120852500D02*
G01*
X180836000Y-120852500D01*
X180836000Y-119050500D01*
X182638000Y-119050500D01*
X182638000Y-120852500D01*
G37*
G36*
X176389512Y-118991927D02*
G01*
X176538812Y-119021624D01*
X176702784Y-119089544D01*
X176850354Y-119188147D01*
X176975853Y-119313646D01*
X177074456Y-119461216D01*
X177142376Y-119625188D01*
X177177000Y-119799259D01*
X177177000Y-119976741D01*
X177142376Y-120150812D01*
X177074456Y-120314784D01*
X176975853Y-120462354D01*
X176850354Y-120587853D01*
X176702784Y-120686456D01*
X176538812Y-120754376D01*
X176389512Y-120784073D01*
X176364742Y-120789000D01*
X176187258Y-120789000D01*
X176162488Y-120784073D01*
X176013188Y-120754376D01*
X175849216Y-120686456D01*
X175701646Y-120587853D01*
X175576147Y-120462354D01*
X175477544Y-120314784D01*
X175409624Y-120150812D01*
X175375000Y-119976741D01*
X175375000Y-119799259D01*
X175409624Y-119625188D01*
X175477544Y-119461216D01*
X175576147Y-119313646D01*
X175701646Y-119188147D01*
X175849216Y-119089544D01*
X176013188Y-119021624D01*
X176162488Y-118991927D01*
X176187258Y-118987000D01*
X176364742Y-118987000D01*
X176389512Y-118991927D01*
G37*
G36*
X159246394Y-114770934D02*
G01*
X159397624Y-114833576D01*
X159397626Y-114833577D01*
X159533732Y-114924520D01*
X159649480Y-115040268D01*
X159740423Y-115176374D01*
X159740424Y-115176376D01*
X159803066Y-115327606D01*
X159835000Y-115488152D01*
X159835000Y-115651848D01*
X159803066Y-115812394D01*
X159740424Y-115963624D01*
X159740423Y-115963626D01*
X159649480Y-116099732D01*
X159533732Y-116215480D01*
X159397626Y-116306423D01*
X159397625Y-116306424D01*
X159397624Y-116306424D01*
X159246394Y-116369066D01*
X159085848Y-116401000D01*
X158922152Y-116401000D01*
X158761606Y-116369066D01*
X158610376Y-116306424D01*
X158610375Y-116306424D01*
X158610374Y-116306423D01*
X158474268Y-116215480D01*
X158358520Y-116099732D01*
X158267577Y-115963626D01*
X158267576Y-115963624D01*
X158204934Y-115812394D01*
X158173000Y-115651848D01*
X158173000Y-115488152D01*
X158204934Y-115327606D01*
X158267576Y-115176376D01*
X158267577Y-115176374D01*
X158358520Y-115040268D01*
X158474268Y-114924520D01*
X158610374Y-114833577D01*
X158610376Y-114833576D01*
X158761606Y-114770934D01*
X158922152Y-114739000D01*
X159085848Y-114739000D01*
X159246394Y-114770934D01*
G37*
G36*
X194806394Y-114770934D02*
G01*
X194957624Y-114833576D01*
X194957626Y-114833577D01*
X195093732Y-114924520D01*
X195209480Y-115040268D01*
X195300423Y-115176374D01*
X195300424Y-115176376D01*
X195363066Y-115327606D01*
X195395000Y-115488152D01*
X195395000Y-115651848D01*
X195363066Y-115812394D01*
X195300424Y-115963624D01*
X195300423Y-115963626D01*
X195209480Y-116099732D01*
X195093732Y-116215480D01*
X194957626Y-116306423D01*
X194957625Y-116306424D01*
X194957624Y-116306424D01*
X194806394Y-116369066D01*
X194645848Y-116401000D01*
X194482152Y-116401000D01*
X194321606Y-116369066D01*
X194170376Y-116306424D01*
X194170375Y-116306424D01*
X194170374Y-116306423D01*
X194034268Y-116215480D01*
X193918520Y-116099732D01*
X193827577Y-115963626D01*
X193827576Y-115963624D01*
X193764934Y-115812394D01*
X193733000Y-115651848D01*
X193733000Y-115488152D01*
X193764934Y-115327606D01*
X193827576Y-115176376D01*
X193827577Y-115176374D01*
X193918520Y-115040268D01*
X194034268Y-114924520D01*
X194170374Y-114833577D01*
X194170376Y-114833576D01*
X194321606Y-114770934D01*
X194482152Y-114739000D01*
X194645848Y-114739000D01*
X194806394Y-114770934D01*
G37*
G36*
X192266394Y-114770934D02*
G01*
X192417624Y-114833576D01*
X192417626Y-114833577D01*
X192553732Y-114924520D01*
X192669480Y-115040268D01*
X192760423Y-115176374D01*
X192760424Y-115176376D01*
X192823066Y-115327606D01*
X192855000Y-115488152D01*
X192855000Y-115651848D01*
X192823066Y-115812394D01*
X192760424Y-115963624D01*
X192760423Y-115963626D01*
X192669480Y-116099732D01*
X192553732Y-116215480D01*
X192417626Y-116306423D01*
X192417625Y-116306424D01*
X192417624Y-116306424D01*
X192266394Y-116369066D01*
X192105848Y-116401000D01*
X191942152Y-116401000D01*
X191781606Y-116369066D01*
X191630376Y-116306424D01*
X191630375Y-116306424D01*
X191630374Y-116306423D01*
X191494268Y-116215480D01*
X191378520Y-116099732D01*
X191287577Y-115963626D01*
X191287576Y-115963624D01*
X191224934Y-115812394D01*
X191193000Y-115651848D01*
X191193000Y-115488152D01*
X191224934Y-115327606D01*
X191287576Y-115176376D01*
X191287577Y-115176374D01*
X191378520Y-115040268D01*
X191494268Y-114924520D01*
X191630374Y-114833577D01*
X191630376Y-114833576D01*
X191781606Y-114770934D01*
X191942152Y-114739000D01*
X192105848Y-114739000D01*
X192266394Y-114770934D01*
G37*
G36*
X189726394Y-114770934D02*
G01*
X189877624Y-114833576D01*
X189877626Y-114833577D01*
X190013732Y-114924520D01*
X190129480Y-115040268D01*
X190220423Y-115176374D01*
X190220424Y-115176376D01*
X190283066Y-115327606D01*
X190315000Y-115488152D01*
X190315000Y-115651848D01*
X190283066Y-115812394D01*
X190220424Y-115963624D01*
X190220423Y-115963626D01*
X190129480Y-116099732D01*
X190013732Y-116215480D01*
X189877626Y-116306423D01*
X189877625Y-116306424D01*
X189877624Y-116306424D01*
X189726394Y-116369066D01*
X189565848Y-116401000D01*
X189402152Y-116401000D01*
X189241606Y-116369066D01*
X189090376Y-116306424D01*
X189090375Y-116306424D01*
X189090374Y-116306423D01*
X188954268Y-116215480D01*
X188838520Y-116099732D01*
X188747577Y-115963626D01*
X188747576Y-115963624D01*
X188684934Y-115812394D01*
X188653000Y-115651848D01*
X188653000Y-115488152D01*
X188684934Y-115327606D01*
X188747576Y-115176376D01*
X188747577Y-115176374D01*
X188838520Y-115040268D01*
X188954268Y-114924520D01*
X189090374Y-114833577D01*
X189090376Y-114833576D01*
X189241606Y-114770934D01*
X189402152Y-114739000D01*
X189565848Y-114739000D01*
X189726394Y-114770934D01*
G37*
G36*
X187186394Y-114770934D02*
G01*
X187337624Y-114833576D01*
X187337626Y-114833577D01*
X187473732Y-114924520D01*
X187589480Y-115040268D01*
X187680423Y-115176374D01*
X187680424Y-115176376D01*
X187743066Y-115327606D01*
X187775000Y-115488152D01*
X187775000Y-115651848D01*
X187743066Y-115812394D01*
X187680424Y-115963624D01*
X187680423Y-115963626D01*
X187589480Y-116099732D01*
X187473732Y-116215480D01*
X187337626Y-116306423D01*
X187337625Y-116306424D01*
X187337624Y-116306424D01*
X187186394Y-116369066D01*
X187025848Y-116401000D01*
X186862152Y-116401000D01*
X186701606Y-116369066D01*
X186550376Y-116306424D01*
X186550375Y-116306424D01*
X186550374Y-116306423D01*
X186414268Y-116215480D01*
X186298520Y-116099732D01*
X186207577Y-115963626D01*
X186207576Y-115963624D01*
X186144934Y-115812394D01*
X186113000Y-115651848D01*
X186113000Y-115488152D01*
X186144934Y-115327606D01*
X186207576Y-115176376D01*
X186207577Y-115176374D01*
X186298520Y-115040268D01*
X186414268Y-114924520D01*
X186550374Y-114833577D01*
X186550376Y-114833576D01*
X186701606Y-114770934D01*
X186862152Y-114739000D01*
X187025848Y-114739000D01*
X187186394Y-114770934D01*
G37*
G36*
X184646394Y-114770934D02*
G01*
X184797624Y-114833576D01*
X184797626Y-114833577D01*
X184933732Y-114924520D01*
X185049480Y-115040268D01*
X185140423Y-115176374D01*
X185140424Y-115176376D01*
X185203066Y-115327606D01*
X185235000Y-115488152D01*
X185235000Y-115651848D01*
X185203066Y-115812394D01*
X185140424Y-115963624D01*
X185140423Y-115963626D01*
X185049480Y-116099732D01*
X184933732Y-116215480D01*
X184797626Y-116306423D01*
X184797625Y-116306424D01*
X184797624Y-116306424D01*
X184646394Y-116369066D01*
X184485848Y-116401000D01*
X184322152Y-116401000D01*
X184161606Y-116369066D01*
X184010376Y-116306424D01*
X184010375Y-116306424D01*
X184010374Y-116306423D01*
X183874268Y-116215480D01*
X183758520Y-116099732D01*
X183667577Y-115963626D01*
X183667576Y-115963624D01*
X183604934Y-115812394D01*
X183573000Y-115651848D01*
X183573000Y-115488152D01*
X183604934Y-115327606D01*
X183667576Y-115176376D01*
X183667577Y-115176374D01*
X183758520Y-115040268D01*
X183874268Y-114924520D01*
X184010374Y-114833577D01*
X184010376Y-114833576D01*
X184161606Y-114770934D01*
X184322152Y-114739000D01*
X184485848Y-114739000D01*
X184646394Y-114770934D01*
G37*
G36*
X179566394Y-114770934D02*
G01*
X179717624Y-114833576D01*
X179717626Y-114833577D01*
X179853732Y-114924520D01*
X179969480Y-115040268D01*
X180060423Y-115176374D01*
X180060424Y-115176376D01*
X180123066Y-115327606D01*
X180155000Y-115488152D01*
X180155000Y-115651848D01*
X180123066Y-115812394D01*
X180060424Y-115963624D01*
X180060423Y-115963626D01*
X179969480Y-116099732D01*
X179853732Y-116215480D01*
X179717626Y-116306423D01*
X179717625Y-116306424D01*
X179717624Y-116306424D01*
X179566394Y-116369066D01*
X179405848Y-116401000D01*
X179242152Y-116401000D01*
X179081606Y-116369066D01*
X178930376Y-116306424D01*
X178930375Y-116306424D01*
X178930374Y-116306423D01*
X178794268Y-116215480D01*
X178678520Y-116099732D01*
X178587577Y-115963626D01*
X178587576Y-115963624D01*
X178524934Y-115812394D01*
X178493000Y-115651848D01*
X178493000Y-115488152D01*
X178524934Y-115327606D01*
X178587576Y-115176376D01*
X178587577Y-115176374D01*
X178678520Y-115040268D01*
X178794268Y-114924520D01*
X178930374Y-114833577D01*
X178930376Y-114833576D01*
X179081606Y-114770934D01*
X179242152Y-114739000D01*
X179405848Y-114739000D01*
X179566394Y-114770934D01*
G37*
G36*
X156706394Y-114770934D02*
G01*
X156857624Y-114833576D01*
X156857626Y-114833577D01*
X156993732Y-114924520D01*
X157109480Y-115040268D01*
X157200423Y-115176374D01*
X157200424Y-115176376D01*
X157263066Y-115327606D01*
X157295000Y-115488152D01*
X157295000Y-115651848D01*
X157263066Y-115812394D01*
X157200424Y-115963624D01*
X157200423Y-115963626D01*
X157109480Y-116099732D01*
X156993732Y-116215480D01*
X156857626Y-116306423D01*
X156857625Y-116306424D01*
X156857624Y-116306424D01*
X156706394Y-116369066D01*
X156545848Y-116401000D01*
X156382152Y-116401000D01*
X156221606Y-116369066D01*
X156070376Y-116306424D01*
X156070375Y-116306424D01*
X156070374Y-116306423D01*
X155934268Y-116215480D01*
X155818520Y-116099732D01*
X155727577Y-115963626D01*
X155727576Y-115963624D01*
X155664934Y-115812394D01*
X155633000Y-115651848D01*
X155633000Y-115488152D01*
X155664934Y-115327606D01*
X155727576Y-115176376D01*
X155727577Y-115176374D01*
X155818520Y-115040268D01*
X155934268Y-114924520D01*
X156070374Y-114833577D01*
X156070376Y-114833576D01*
X156221606Y-114770934D01*
X156382152Y-114739000D01*
X156545848Y-114739000D01*
X156706394Y-114770934D01*
G37*
G36*
X154166394Y-114770934D02*
G01*
X154317624Y-114833576D01*
X154317626Y-114833577D01*
X154453732Y-114924520D01*
X154569480Y-115040268D01*
X154660423Y-115176374D01*
X154660424Y-115176376D01*
X154723066Y-115327606D01*
X154755000Y-115488152D01*
X154755000Y-115651848D01*
X154723066Y-115812394D01*
X154660424Y-115963624D01*
X154660423Y-115963626D01*
X154569480Y-116099732D01*
X154453732Y-116215480D01*
X154317626Y-116306423D01*
X154317625Y-116306424D01*
X154317624Y-116306424D01*
X154166394Y-116369066D01*
X154005848Y-116401000D01*
X153842152Y-116401000D01*
X153681606Y-116369066D01*
X153530376Y-116306424D01*
X153530375Y-116306424D01*
X153530374Y-116306423D01*
X153394268Y-116215480D01*
X153278520Y-116099732D01*
X153187577Y-115963626D01*
X153187576Y-115963624D01*
X153124934Y-115812394D01*
X153093000Y-115651848D01*
X153093000Y-115488152D01*
X153124934Y-115327606D01*
X153187576Y-115176376D01*
X153187577Y-115176374D01*
X153278520Y-115040268D01*
X153394268Y-114924520D01*
X153530374Y-114833577D01*
X153530376Y-114833576D01*
X153681606Y-114770934D01*
X153842152Y-114739000D01*
X154005848Y-114739000D01*
X154166394Y-114770934D01*
G37*
G36*
X197346394Y-114770934D02*
G01*
X197497624Y-114833576D01*
X197497626Y-114833577D01*
X197633732Y-114924520D01*
X197749480Y-115040268D01*
X197840423Y-115176374D01*
X197840424Y-115176376D01*
X197903066Y-115327606D01*
X197935000Y-115488152D01*
X197935000Y-115651848D01*
X197903066Y-115812394D01*
X197840424Y-115963624D01*
X197840423Y-115963626D01*
X197749480Y-116099732D01*
X197633732Y-116215480D01*
X197497626Y-116306423D01*
X197497625Y-116306424D01*
X197497624Y-116306424D01*
X197346394Y-116369066D01*
X197185848Y-116401000D01*
X197022152Y-116401000D01*
X196861606Y-116369066D01*
X196710376Y-116306424D01*
X196710375Y-116306424D01*
X196710374Y-116306423D01*
X196574268Y-116215480D01*
X196458520Y-116099732D01*
X196367577Y-115963626D01*
X196367576Y-115963624D01*
X196304934Y-115812394D01*
X196273000Y-115651848D01*
X196273000Y-115488152D01*
X196304934Y-115327606D01*
X196367576Y-115176376D01*
X196367577Y-115176374D01*
X196458520Y-115040268D01*
X196574268Y-114924520D01*
X196710374Y-114833577D01*
X196710376Y-114833576D01*
X196861606Y-114770934D01*
X197022152Y-114739000D01*
X197185848Y-114739000D01*
X197346394Y-114770934D01*
G37*
G36*
X182106394Y-114770934D02*
G01*
X182257624Y-114833576D01*
X182257626Y-114833577D01*
X182393732Y-114924520D01*
X182509480Y-115040268D01*
X182600423Y-115176374D01*
X182600424Y-115176376D01*
X182663066Y-115327606D01*
X182695000Y-115488152D01*
X182695000Y-115651848D01*
X182663066Y-115812394D01*
X182600424Y-115963624D01*
X182600423Y-115963626D01*
X182509480Y-116099732D01*
X182393732Y-116215480D01*
X182257626Y-116306423D01*
X182257625Y-116306424D01*
X182257624Y-116306424D01*
X182106394Y-116369066D01*
X181945848Y-116401000D01*
X181782152Y-116401000D01*
X181621606Y-116369066D01*
X181470376Y-116306424D01*
X181470375Y-116306424D01*
X181470374Y-116306423D01*
X181334268Y-116215480D01*
X181218520Y-116099732D01*
X181127577Y-115963626D01*
X181127576Y-115963624D01*
X181064934Y-115812394D01*
X181033000Y-115651848D01*
X181033000Y-115488152D01*
X181064934Y-115327606D01*
X181127576Y-115176376D01*
X181127577Y-115176374D01*
X181218520Y-115040268D01*
X181334268Y-114924520D01*
X181470374Y-114833577D01*
X181470376Y-114833576D01*
X181621606Y-114770934D01*
X181782152Y-114739000D01*
X181945848Y-114739000D01*
X182106394Y-114770934D01*
G37*
G36*
X152215000Y-116401000D02*
G01*
X150553000Y-116401000D01*
X150553000Y-114739000D01*
X152215000Y-114739000D01*
X152215000Y-116401000D01*
G37*
G36*
X174486394Y-114770934D02*
G01*
X174637624Y-114833576D01*
X174637626Y-114833577D01*
X174773732Y-114924520D01*
X174889480Y-115040268D01*
X174980423Y-115176374D01*
X174980424Y-115176376D01*
X175043066Y-115327606D01*
X175075000Y-115488152D01*
X175075000Y-115651848D01*
X175043066Y-115812394D01*
X174980424Y-115963624D01*
X174980423Y-115963626D01*
X174889480Y-116099732D01*
X174773732Y-116215480D01*
X174637626Y-116306423D01*
X174637625Y-116306424D01*
X174637624Y-116306424D01*
X174486394Y-116369066D01*
X174325848Y-116401000D01*
X174162152Y-116401000D01*
X174001606Y-116369066D01*
X173850376Y-116306424D01*
X173850375Y-116306424D01*
X173850374Y-116306423D01*
X173714268Y-116215480D01*
X173598520Y-116099732D01*
X173507577Y-115963626D01*
X173507576Y-115963624D01*
X173444934Y-115812394D01*
X173413000Y-115651848D01*
X173413000Y-115488152D01*
X173444934Y-115327606D01*
X173507576Y-115176376D01*
X173507577Y-115176374D01*
X173598520Y-115040268D01*
X173714268Y-114924520D01*
X173850374Y-114833577D01*
X173850376Y-114833576D01*
X174001606Y-114770934D01*
X174162152Y-114739000D01*
X174325848Y-114739000D01*
X174486394Y-114770934D01*
G37*
G36*
X171946394Y-114770934D02*
G01*
X172097624Y-114833576D01*
X172097626Y-114833577D01*
X172233732Y-114924520D01*
X172349480Y-115040268D01*
X172440423Y-115176374D01*
X172440424Y-115176376D01*
X172503066Y-115327606D01*
X172535000Y-115488152D01*
X172535000Y-115651848D01*
X172503066Y-115812394D01*
X172440424Y-115963624D01*
X172440423Y-115963626D01*
X172349480Y-116099732D01*
X172233732Y-116215480D01*
X172097626Y-116306423D01*
X172097625Y-116306424D01*
X172097624Y-116306424D01*
X171946394Y-116369066D01*
X171785848Y-116401000D01*
X171622152Y-116401000D01*
X171461606Y-116369066D01*
X171310376Y-116306424D01*
X171310375Y-116306424D01*
X171310374Y-116306423D01*
X171174268Y-116215480D01*
X171058520Y-116099732D01*
X170967577Y-115963626D01*
X170967576Y-115963624D01*
X170904934Y-115812394D01*
X170873000Y-115651848D01*
X170873000Y-115488152D01*
X170904934Y-115327606D01*
X170967576Y-115176376D01*
X170967577Y-115176374D01*
X171058520Y-115040268D01*
X171174268Y-114924520D01*
X171310374Y-114833577D01*
X171310376Y-114833576D01*
X171461606Y-114770934D01*
X171622152Y-114739000D01*
X171785848Y-114739000D01*
X171946394Y-114770934D01*
G37*
G36*
X169406394Y-114770934D02*
G01*
X169557624Y-114833576D01*
X169557626Y-114833577D01*
X169693732Y-114924520D01*
X169809480Y-115040268D01*
X169900423Y-115176374D01*
X169900424Y-115176376D01*
X169963066Y-115327606D01*
X169995000Y-115488152D01*
X169995000Y-115651848D01*
X169963066Y-115812394D01*
X169900424Y-115963624D01*
X169900423Y-115963626D01*
X169809480Y-116099732D01*
X169693732Y-116215480D01*
X169557626Y-116306423D01*
X169557625Y-116306424D01*
X169557624Y-116306424D01*
X169406394Y-116369066D01*
X169245848Y-116401000D01*
X169082152Y-116401000D01*
X168921606Y-116369066D01*
X168770376Y-116306424D01*
X168770375Y-116306424D01*
X168770374Y-116306423D01*
X168634268Y-116215480D01*
X168518520Y-116099732D01*
X168427577Y-115963626D01*
X168427576Y-115963624D01*
X168364934Y-115812394D01*
X168333000Y-115651848D01*
X168333000Y-115488152D01*
X168364934Y-115327606D01*
X168427576Y-115176376D01*
X168427577Y-115176374D01*
X168518520Y-115040268D01*
X168634268Y-114924520D01*
X168770374Y-114833577D01*
X168770376Y-114833576D01*
X168921606Y-114770934D01*
X169082152Y-114739000D01*
X169245848Y-114739000D01*
X169406394Y-114770934D01*
G37*
G36*
X166866394Y-114770934D02*
G01*
X167017624Y-114833576D01*
X167017626Y-114833577D01*
X167153732Y-114924520D01*
X167269480Y-115040268D01*
X167360423Y-115176374D01*
X167360424Y-115176376D01*
X167423066Y-115327606D01*
X167455000Y-115488152D01*
X167455000Y-115651848D01*
X167423066Y-115812394D01*
X167360424Y-115963624D01*
X167360423Y-115963626D01*
X167269480Y-116099732D01*
X167153732Y-116215480D01*
X167017626Y-116306423D01*
X167017625Y-116306424D01*
X167017624Y-116306424D01*
X166866394Y-116369066D01*
X166705848Y-116401000D01*
X166542152Y-116401000D01*
X166381606Y-116369066D01*
X166230376Y-116306424D01*
X166230375Y-116306424D01*
X166230374Y-116306423D01*
X166094268Y-116215480D01*
X165978520Y-116099732D01*
X165887577Y-115963626D01*
X165887576Y-115963624D01*
X165824934Y-115812394D01*
X165793000Y-115651848D01*
X165793000Y-115488152D01*
X165824934Y-115327606D01*
X165887576Y-115176376D01*
X165887577Y-115176374D01*
X165978520Y-115040268D01*
X166094268Y-114924520D01*
X166230374Y-114833577D01*
X166230376Y-114833576D01*
X166381606Y-114770934D01*
X166542152Y-114739000D01*
X166705848Y-114739000D01*
X166866394Y-114770934D01*
G37*
G36*
X177026394Y-114770934D02*
G01*
X177177624Y-114833576D01*
X177177626Y-114833577D01*
X177313732Y-114924520D01*
X177429480Y-115040268D01*
X177520423Y-115176374D01*
X177520424Y-115176376D01*
X177583066Y-115327606D01*
X177615000Y-115488152D01*
X177615000Y-115651848D01*
X177583066Y-115812394D01*
X177520424Y-115963624D01*
X177520423Y-115963626D01*
X177429480Y-116099732D01*
X177313732Y-116215480D01*
X177177626Y-116306423D01*
X177177625Y-116306424D01*
X177177624Y-116306424D01*
X177026394Y-116369066D01*
X176865848Y-116401000D01*
X176702152Y-116401000D01*
X176541606Y-116369066D01*
X176390376Y-116306424D01*
X176390375Y-116306424D01*
X176390374Y-116306423D01*
X176254268Y-116215480D01*
X176138520Y-116099732D01*
X176047577Y-115963626D01*
X176047576Y-115963624D01*
X175984934Y-115812394D01*
X175953000Y-115651848D01*
X175953000Y-115488152D01*
X175984934Y-115327606D01*
X176047576Y-115176376D01*
X176047577Y-115176374D01*
X176138520Y-115040268D01*
X176254268Y-114924520D01*
X176390374Y-114833577D01*
X176390376Y-114833576D01*
X176541606Y-114770934D01*
X176702152Y-114739000D01*
X176865848Y-114739000D01*
X177026394Y-114770934D01*
G37*
G36*
X164326394Y-114770934D02*
G01*
X164477624Y-114833576D01*
X164477626Y-114833577D01*
X164613732Y-114924520D01*
X164729480Y-115040268D01*
X164820423Y-115176374D01*
X164820424Y-115176376D01*
X164883066Y-115327606D01*
X164915000Y-115488152D01*
X164915000Y-115651848D01*
X164883066Y-115812394D01*
X164820424Y-115963624D01*
X164820423Y-115963626D01*
X164729480Y-116099732D01*
X164613732Y-116215480D01*
X164477626Y-116306423D01*
X164477625Y-116306424D01*
X164477624Y-116306424D01*
X164326394Y-116369066D01*
X164165848Y-116401000D01*
X164002152Y-116401000D01*
X163841606Y-116369066D01*
X163690376Y-116306424D01*
X163690375Y-116306424D01*
X163690374Y-116306423D01*
X163554268Y-116215480D01*
X163438520Y-116099732D01*
X163347577Y-115963626D01*
X163347576Y-115963624D01*
X163284934Y-115812394D01*
X163253000Y-115651848D01*
X163253000Y-115488152D01*
X163284934Y-115327606D01*
X163347576Y-115176376D01*
X163347577Y-115176374D01*
X163438520Y-115040268D01*
X163554268Y-114924520D01*
X163690374Y-114833577D01*
X163690376Y-114833576D01*
X163841606Y-114770934D01*
X164002152Y-114739000D01*
X164165848Y-114739000D01*
X164326394Y-114770934D01*
G37*
G36*
X161786394Y-114770934D02*
G01*
X161937624Y-114833576D01*
X161937626Y-114833577D01*
X162073732Y-114924520D01*
X162189480Y-115040268D01*
X162280423Y-115176374D01*
X162280424Y-115176376D01*
X162343066Y-115327606D01*
X162375000Y-115488152D01*
X162375000Y-115651848D01*
X162343066Y-115812394D01*
X162280424Y-115963624D01*
X162280423Y-115963626D01*
X162189480Y-116099732D01*
X162073732Y-116215480D01*
X161937626Y-116306423D01*
X161937625Y-116306424D01*
X161937624Y-116306424D01*
X161786394Y-116369066D01*
X161625848Y-116401000D01*
X161462152Y-116401000D01*
X161301606Y-116369066D01*
X161150376Y-116306424D01*
X161150375Y-116306424D01*
X161150374Y-116306423D01*
X161014268Y-116215480D01*
X160898520Y-116099732D01*
X160807577Y-115963626D01*
X160807576Y-115963624D01*
X160744934Y-115812394D01*
X160713000Y-115651848D01*
X160713000Y-115488152D01*
X160744934Y-115327606D01*
X160807576Y-115176376D01*
X160807577Y-115176374D01*
X160898520Y-115040268D01*
X161014268Y-114924520D01*
X161150374Y-114833577D01*
X161150376Y-114833576D01*
X161301606Y-114770934D01*
X161462152Y-114739000D01*
X161625848Y-114739000D01*
X161786394Y-114770934D01*
G37*
G36*
X193518549Y-98312116D02*
G01*
X193629734Y-98334232D01*
X193839203Y-98420997D01*
X194027720Y-98546960D01*
X194188040Y-98707280D01*
X194314003Y-98895797D01*
X194400768Y-99105266D01*
X194445000Y-99327636D01*
X194445000Y-99554364D01*
X194400768Y-99776734D01*
X194314003Y-99986203D01*
X194188040Y-100174720D01*
X194027720Y-100335040D01*
X193839203Y-100461003D01*
X193629734Y-100547768D01*
X193518549Y-100569884D01*
X193407365Y-100592000D01*
X193180635Y-100592000D01*
X193069451Y-100569884D01*
X192958266Y-100547768D01*
X192748797Y-100461003D01*
X192560280Y-100335040D01*
X192399960Y-100174720D01*
X192273997Y-99986203D01*
X192187232Y-99776734D01*
X192143000Y-99554364D01*
X192143000Y-99327636D01*
X192187232Y-99105266D01*
X192273997Y-98895797D01*
X192399960Y-98707280D01*
X192560280Y-98546960D01*
X192748797Y-98420997D01*
X192958266Y-98334232D01*
X193069451Y-98312116D01*
X193180635Y-98290000D01*
X193407365Y-98290000D01*
X193518549Y-98312116D01*
G37*
G36*
X195907512Y-97294927D02*
G01*
X196056812Y-97324624D01*
X196220784Y-97392544D01*
X196368354Y-97491147D01*
X196493853Y-97616646D01*
X196592456Y-97764216D01*
X196660376Y-97928188D01*
X196690073Y-98077488D01*
X196695000Y-98102258D01*
X196695000Y-98279742D01*
X196690073Y-98304512D01*
X196660376Y-98453812D01*
X196592456Y-98617784D01*
X196493853Y-98765354D01*
X196368354Y-98890853D01*
X196220784Y-98989456D01*
X196056812Y-99057376D01*
X195907512Y-99087073D01*
X195882742Y-99092000D01*
X195705258Y-99092000D01*
X195680488Y-99087073D01*
X195531188Y-99057376D01*
X195367216Y-98989456D01*
X195219646Y-98890853D01*
X195094147Y-98765354D01*
X194995544Y-98617784D01*
X194927624Y-98453812D01*
X194897927Y-98304512D01*
X194893000Y-98279742D01*
X194893000Y-98102258D01*
X194897927Y-98077488D01*
X194927624Y-97928188D01*
X194995544Y-97764216D01*
X195094147Y-97616646D01*
X195219646Y-97491147D01*
X195367216Y-97392544D01*
X195531188Y-97324624D01*
X195680488Y-97294927D01*
X195705258Y-97290000D01*
X195882742Y-97290000D01*
X195907512Y-97294927D01*
G37*
G36*
X195907512Y-92794927D02*
G01*
X196056812Y-92824624D01*
X196220784Y-92892544D01*
X196368354Y-92991147D01*
X196493853Y-93116646D01*
X196592456Y-93264216D01*
X196660376Y-93428188D01*
X196684161Y-93547768D01*
X196692960Y-93592000D01*
X196695000Y-93602259D01*
X196695000Y-93779741D01*
X196660376Y-93953812D01*
X196592456Y-94117784D01*
X196493853Y-94265354D01*
X196368354Y-94390853D01*
X196220784Y-94489456D01*
X196056812Y-94557376D01*
X195907512Y-94587073D01*
X195882742Y-94592000D01*
X195705258Y-94592000D01*
X195680488Y-94587073D01*
X195531188Y-94557376D01*
X195367216Y-94489456D01*
X195219646Y-94390853D01*
X195094147Y-94265354D01*
X194995544Y-94117784D01*
X194927624Y-93953812D01*
X194893000Y-93779741D01*
X194893000Y-93602259D01*
X194895041Y-93592000D01*
X194903839Y-93547768D01*
X194927624Y-93428188D01*
X194995544Y-93264216D01*
X195094147Y-93116646D01*
X195219646Y-92991147D01*
X195367216Y-92892544D01*
X195531188Y-92824624D01*
X195680488Y-92794927D01*
X195705258Y-92790000D01*
X195882742Y-92790000D01*
X195907512Y-92794927D01*
G37*
G36*
X193518549Y-91312116D02*
G01*
X193629734Y-91334232D01*
X193839203Y-91420997D01*
X194027720Y-91546960D01*
X194188040Y-91707280D01*
X194314003Y-91895797D01*
X194400768Y-92105266D01*
X194445000Y-92327636D01*
X194445000Y-92554364D01*
X194400768Y-92776734D01*
X194314003Y-92986203D01*
X194188040Y-93174720D01*
X194027720Y-93335040D01*
X193839203Y-93461003D01*
X193629734Y-93547768D01*
X193518549Y-93569884D01*
X193407365Y-93592000D01*
X193180635Y-93592000D01*
X193069451Y-93569884D01*
X192958266Y-93547768D01*
X192748797Y-93461003D01*
X192560280Y-93335040D01*
X192399960Y-93174720D01*
X192273997Y-92986203D01*
X192187232Y-92776734D01*
X192143000Y-92554364D01*
X192143000Y-92327636D01*
X192187232Y-92105266D01*
X192273997Y-91895797D01*
X192399960Y-91707280D01*
X192560280Y-91546960D01*
X192748797Y-91420997D01*
X192958266Y-91334232D01*
X193069451Y-91312116D01*
X193180635Y-91290000D01*
X193407365Y-91290000D01*
X193518549Y-91312116D01*
G37*
G36*
X177026394Y-89370934D02*
G01*
X177177624Y-89433576D01*
X177177626Y-89433577D01*
X177313732Y-89524520D01*
X177429480Y-89640268D01*
X177520423Y-89776374D01*
X177520424Y-89776376D01*
X177583066Y-89927606D01*
X177615000Y-90088152D01*
X177615000Y-90251848D01*
X177583066Y-90412394D01*
X177520424Y-90563624D01*
X177520423Y-90563626D01*
X177429480Y-90699732D01*
X177313732Y-90815480D01*
X177177626Y-90906423D01*
X177177625Y-90906424D01*
X177177624Y-90906424D01*
X177026394Y-90969066D01*
X176865848Y-91001000D01*
X176702152Y-91001000D01*
X176541606Y-90969066D01*
X176390376Y-90906424D01*
X176390375Y-90906424D01*
X176390374Y-90906423D01*
X176254268Y-90815480D01*
X176138520Y-90699732D01*
X176047577Y-90563626D01*
X176047576Y-90563624D01*
X175984934Y-90412394D01*
X175953000Y-90251848D01*
X175953000Y-90088152D01*
X175984934Y-89927606D01*
X176047576Y-89776376D01*
X176047577Y-89776374D01*
X176138520Y-89640268D01*
X176254268Y-89524520D01*
X176390374Y-89433577D01*
X176390376Y-89433576D01*
X176541606Y-89370934D01*
X176702152Y-89339000D01*
X176865848Y-89339000D01*
X177026394Y-89370934D01*
G37*
G36*
X179566394Y-89370934D02*
G01*
X179717624Y-89433576D01*
X179717626Y-89433577D01*
X179853732Y-89524520D01*
X179969480Y-89640268D01*
X180060423Y-89776374D01*
X180060424Y-89776376D01*
X180123066Y-89927606D01*
X180155000Y-90088152D01*
X180155000Y-90251848D01*
X180123066Y-90412394D01*
X180060424Y-90563624D01*
X180060423Y-90563626D01*
X179969480Y-90699732D01*
X179853732Y-90815480D01*
X179717626Y-90906423D01*
X179717625Y-90906424D01*
X179717624Y-90906424D01*
X179566394Y-90969066D01*
X179405848Y-91001000D01*
X179242152Y-91001000D01*
X179081606Y-90969066D01*
X178930376Y-90906424D01*
X178930375Y-90906424D01*
X178930374Y-90906423D01*
X178794268Y-90815480D01*
X178678520Y-90699732D01*
X178587577Y-90563626D01*
X178587576Y-90563624D01*
X178524934Y-90412394D01*
X178493000Y-90251848D01*
X178493000Y-90088152D01*
X178524934Y-89927606D01*
X178587576Y-89776376D01*
X178587577Y-89776374D01*
X178678520Y-89640268D01*
X178794268Y-89524520D01*
X178930374Y-89433577D01*
X178930376Y-89433576D01*
X179081606Y-89370934D01*
X179242152Y-89339000D01*
X179405848Y-89339000D01*
X179566394Y-89370934D01*
G37*
G36*
X174486394Y-89370934D02*
G01*
X174637624Y-89433576D01*
X174637626Y-89433577D01*
X174773732Y-89524520D01*
X174889480Y-89640268D01*
X174980423Y-89776374D01*
X174980424Y-89776376D01*
X175043066Y-89927606D01*
X175075000Y-90088152D01*
X175075000Y-90251848D01*
X175043066Y-90412394D01*
X174980424Y-90563624D01*
X174980423Y-90563626D01*
X174889480Y-90699732D01*
X174773732Y-90815480D01*
X174637626Y-90906423D01*
X174637625Y-90906424D01*
X174637624Y-90906424D01*
X174486394Y-90969066D01*
X174325848Y-91001000D01*
X174162152Y-91001000D01*
X174001606Y-90969066D01*
X173850376Y-90906424D01*
X173850375Y-90906424D01*
X173850374Y-90906423D01*
X173714268Y-90815480D01*
X173598520Y-90699732D01*
X173507577Y-90563626D01*
X173507576Y-90563624D01*
X173444934Y-90412394D01*
X173413000Y-90251848D01*
X173413000Y-90088152D01*
X173444934Y-89927606D01*
X173507576Y-89776376D01*
X173507577Y-89776374D01*
X173598520Y-89640268D01*
X173714268Y-89524520D01*
X173850374Y-89433577D01*
X173850376Y-89433576D01*
X174001606Y-89370934D01*
X174162152Y-89339000D01*
X174325848Y-89339000D01*
X174486394Y-89370934D01*
G37*
G36*
X156706394Y-89370934D02*
G01*
X156857624Y-89433576D01*
X156857626Y-89433577D01*
X156993732Y-89524520D01*
X157109480Y-89640268D01*
X157200423Y-89776374D01*
X157200424Y-89776376D01*
X157263066Y-89927606D01*
X157295000Y-90088152D01*
X157295000Y-90251848D01*
X157263066Y-90412394D01*
X157200424Y-90563624D01*
X157200423Y-90563626D01*
X157109480Y-90699732D01*
X156993732Y-90815480D01*
X156857626Y-90906423D01*
X156857625Y-90906424D01*
X156857624Y-90906424D01*
X156706394Y-90969066D01*
X156545848Y-91001000D01*
X156382152Y-91001000D01*
X156221606Y-90969066D01*
X156070376Y-90906424D01*
X156070375Y-90906424D01*
X156070374Y-90906423D01*
X155934268Y-90815480D01*
X155818520Y-90699732D01*
X155727577Y-90563626D01*
X155727576Y-90563624D01*
X155664934Y-90412394D01*
X155633000Y-90251848D01*
X155633000Y-90088152D01*
X155664934Y-89927606D01*
X155727576Y-89776376D01*
X155727577Y-89776374D01*
X155818520Y-89640268D01*
X155934268Y-89524520D01*
X156070374Y-89433577D01*
X156070376Y-89433576D01*
X156221606Y-89370934D01*
X156382152Y-89339000D01*
X156545848Y-89339000D01*
X156706394Y-89370934D01*
G37*
G36*
X171946394Y-89370934D02*
G01*
X172097624Y-89433576D01*
X172097626Y-89433577D01*
X172233732Y-89524520D01*
X172349480Y-89640268D01*
X172440423Y-89776374D01*
X172440424Y-89776376D01*
X172503066Y-89927606D01*
X172535000Y-90088152D01*
X172535000Y-90251848D01*
X172503066Y-90412394D01*
X172440424Y-90563624D01*
X172440423Y-90563626D01*
X172349480Y-90699732D01*
X172233732Y-90815480D01*
X172097626Y-90906423D01*
X172097625Y-90906424D01*
X172097624Y-90906424D01*
X171946394Y-90969066D01*
X171785848Y-91001000D01*
X171622152Y-91001000D01*
X171461606Y-90969066D01*
X171310376Y-90906424D01*
X171310375Y-90906424D01*
X171310374Y-90906423D01*
X171174268Y-90815480D01*
X171058520Y-90699732D01*
X170967577Y-90563626D01*
X170967576Y-90563624D01*
X170904934Y-90412394D01*
X170873000Y-90251848D01*
X170873000Y-90088152D01*
X170904934Y-89927606D01*
X170967576Y-89776376D01*
X170967577Y-89776374D01*
X171058520Y-89640268D01*
X171174268Y-89524520D01*
X171310374Y-89433577D01*
X171310376Y-89433576D01*
X171461606Y-89370934D01*
X171622152Y-89339000D01*
X171785848Y-89339000D01*
X171946394Y-89370934D01*
G37*
G36*
X161786394Y-89370934D02*
G01*
X161937624Y-89433576D01*
X161937626Y-89433577D01*
X162073732Y-89524520D01*
X162189480Y-89640268D01*
X162280423Y-89776374D01*
X162280424Y-89776376D01*
X162343066Y-89927606D01*
X162375000Y-90088152D01*
X162375000Y-90251848D01*
X162343066Y-90412394D01*
X162280424Y-90563624D01*
X162280423Y-90563626D01*
X162189480Y-90699732D01*
X162073732Y-90815480D01*
X161937626Y-90906423D01*
X161937625Y-90906424D01*
X161937624Y-90906424D01*
X161786394Y-90969066D01*
X161625848Y-91001000D01*
X161462152Y-91001000D01*
X161301606Y-90969066D01*
X161150376Y-90906424D01*
X161150375Y-90906424D01*
X161150374Y-90906423D01*
X161014268Y-90815480D01*
X160898520Y-90699732D01*
X160807577Y-90563626D01*
X160807576Y-90563624D01*
X160744934Y-90412394D01*
X160713000Y-90251848D01*
X160713000Y-90088152D01*
X160744934Y-89927606D01*
X160807576Y-89776376D01*
X160807577Y-89776374D01*
X160898520Y-89640268D01*
X161014268Y-89524520D01*
X161150374Y-89433577D01*
X161150376Y-89433576D01*
X161301606Y-89370934D01*
X161462152Y-89339000D01*
X161625848Y-89339000D01*
X161786394Y-89370934D01*
G37*
G36*
X164326394Y-89370934D02*
G01*
X164477624Y-89433576D01*
X164477626Y-89433577D01*
X164613732Y-89524520D01*
X164729480Y-89640268D01*
X164820423Y-89776374D01*
X164820424Y-89776376D01*
X164883066Y-89927606D01*
X164915000Y-90088152D01*
X164915000Y-90251848D01*
X164883066Y-90412394D01*
X164820424Y-90563624D01*
X164820423Y-90563626D01*
X164729480Y-90699732D01*
X164613732Y-90815480D01*
X164477626Y-90906423D01*
X164477625Y-90906424D01*
X164477624Y-90906424D01*
X164326394Y-90969066D01*
X164165848Y-91001000D01*
X164002152Y-91001000D01*
X163841606Y-90969066D01*
X163690376Y-90906424D01*
X163690375Y-90906424D01*
X163690374Y-90906423D01*
X163554268Y-90815480D01*
X163438520Y-90699732D01*
X163347577Y-90563626D01*
X163347576Y-90563624D01*
X163284934Y-90412394D01*
X163253000Y-90251848D01*
X163253000Y-90088152D01*
X163284934Y-89927606D01*
X163347576Y-89776376D01*
X163347577Y-89776374D01*
X163438520Y-89640268D01*
X163554268Y-89524520D01*
X163690374Y-89433577D01*
X163690376Y-89433576D01*
X163841606Y-89370934D01*
X164002152Y-89339000D01*
X164165848Y-89339000D01*
X164326394Y-89370934D01*
G37*
G36*
X166866394Y-89370934D02*
G01*
X167017624Y-89433576D01*
X167017626Y-89433577D01*
X167153732Y-89524520D01*
X167269480Y-89640268D01*
X167360423Y-89776374D01*
X167360424Y-89776376D01*
X167423066Y-89927606D01*
X167455000Y-90088152D01*
X167455000Y-90251848D01*
X167423066Y-90412394D01*
X167360424Y-90563624D01*
X167360423Y-90563626D01*
X167269480Y-90699732D01*
X167153732Y-90815480D01*
X167017626Y-90906423D01*
X167017625Y-90906424D01*
X167017624Y-90906424D01*
X166866394Y-90969066D01*
X166705848Y-91001000D01*
X166542152Y-91001000D01*
X166381606Y-90969066D01*
X166230376Y-90906424D01*
X166230375Y-90906424D01*
X166230374Y-90906423D01*
X166094268Y-90815480D01*
X165978520Y-90699732D01*
X165887577Y-90563626D01*
X165887576Y-90563624D01*
X165824934Y-90412394D01*
X165793000Y-90251848D01*
X165793000Y-90088152D01*
X165824934Y-89927606D01*
X165887576Y-89776376D01*
X165887577Y-89776374D01*
X165978520Y-89640268D01*
X166094268Y-89524520D01*
X166230374Y-89433577D01*
X166230376Y-89433576D01*
X166381606Y-89370934D01*
X166542152Y-89339000D01*
X166705848Y-89339000D01*
X166866394Y-89370934D01*
G37*
G36*
X169406394Y-89370934D02*
G01*
X169557624Y-89433576D01*
X169557626Y-89433577D01*
X169693732Y-89524520D01*
X169809480Y-89640268D01*
X169900423Y-89776374D01*
X169900424Y-89776376D01*
X169963066Y-89927606D01*
X169995000Y-90088152D01*
X169995000Y-90251848D01*
X169963066Y-90412394D01*
X169900424Y-90563624D01*
X169900423Y-90563626D01*
X169809480Y-90699732D01*
X169693732Y-90815480D01*
X169557626Y-90906423D01*
X169557625Y-90906424D01*
X169557624Y-90906424D01*
X169406394Y-90969066D01*
X169245848Y-91001000D01*
X169082152Y-91001000D01*
X168921606Y-90969066D01*
X168770376Y-90906424D01*
X168770375Y-90906424D01*
X168770374Y-90906423D01*
X168634268Y-90815480D01*
X168518520Y-90699732D01*
X168427577Y-90563626D01*
X168427576Y-90563624D01*
X168364934Y-90412394D01*
X168333000Y-90251848D01*
X168333000Y-90088152D01*
X168364934Y-89927606D01*
X168427576Y-89776376D01*
X168427577Y-89776374D01*
X168518520Y-89640268D01*
X168634268Y-89524520D01*
X168770374Y-89433577D01*
X168770376Y-89433576D01*
X168921606Y-89370934D01*
X169082152Y-89339000D01*
X169245848Y-89339000D01*
X169406394Y-89370934D01*
G37*
G36*
X187186394Y-89370934D02*
G01*
X187337624Y-89433576D01*
X187337626Y-89433577D01*
X187473732Y-89524520D01*
X187589480Y-89640268D01*
X187680423Y-89776374D01*
X187680424Y-89776376D01*
X187743066Y-89927606D01*
X187775000Y-90088152D01*
X187775000Y-90251848D01*
X187743066Y-90412394D01*
X187680424Y-90563624D01*
X187680423Y-90563626D01*
X187589480Y-90699732D01*
X187473732Y-90815480D01*
X187337626Y-90906423D01*
X187337625Y-90906424D01*
X187337624Y-90906424D01*
X187186394Y-90969066D01*
X187025848Y-91001000D01*
X186862152Y-91001000D01*
X186701606Y-90969066D01*
X186550376Y-90906424D01*
X186550375Y-90906424D01*
X186550374Y-90906423D01*
X186414268Y-90815480D01*
X186298520Y-90699732D01*
X186207577Y-90563626D01*
X186207576Y-90563624D01*
X186144934Y-90412394D01*
X186113000Y-90251848D01*
X186113000Y-90088152D01*
X186144934Y-89927606D01*
X186207576Y-89776376D01*
X186207577Y-89776374D01*
X186298520Y-89640268D01*
X186414268Y-89524520D01*
X186550374Y-89433577D01*
X186550376Y-89433576D01*
X186701606Y-89370934D01*
X186862152Y-89339000D01*
X187025848Y-89339000D01*
X187186394Y-89370934D01*
G37*
G36*
X184646394Y-89370934D02*
G01*
X184797624Y-89433576D01*
X184797626Y-89433577D01*
X184933732Y-89524520D01*
X185049480Y-89640268D01*
X185140423Y-89776374D01*
X185140424Y-89776376D01*
X185203066Y-89927606D01*
X185235000Y-90088152D01*
X185235000Y-90251848D01*
X185203066Y-90412394D01*
X185140424Y-90563624D01*
X185140423Y-90563626D01*
X185049480Y-90699732D01*
X184933732Y-90815480D01*
X184797626Y-90906423D01*
X184797625Y-90906424D01*
X184797624Y-90906424D01*
X184646394Y-90969066D01*
X184485848Y-91001000D01*
X184322152Y-91001000D01*
X184161606Y-90969066D01*
X184010376Y-90906424D01*
X184010375Y-90906424D01*
X184010374Y-90906423D01*
X183874268Y-90815480D01*
X183758520Y-90699732D01*
X183667577Y-90563626D01*
X183667576Y-90563624D01*
X183604934Y-90412394D01*
X183573000Y-90251848D01*
X183573000Y-90088152D01*
X183604934Y-89927606D01*
X183667576Y-89776376D01*
X183667577Y-89776374D01*
X183758520Y-89640268D01*
X183874268Y-89524520D01*
X184010374Y-89433577D01*
X184010376Y-89433576D01*
X184161606Y-89370934D01*
X184322152Y-89339000D01*
X184485848Y-89339000D01*
X184646394Y-89370934D01*
G37*
G36*
X182106394Y-89370934D02*
G01*
X182257624Y-89433576D01*
X182257626Y-89433577D01*
X182393732Y-89524520D01*
X182509480Y-89640268D01*
X182600423Y-89776374D01*
X182600424Y-89776376D01*
X182663066Y-89927606D01*
X182695000Y-90088152D01*
X182695000Y-90251848D01*
X182663066Y-90412394D01*
X182600424Y-90563624D01*
X182600423Y-90563626D01*
X182509480Y-90699732D01*
X182393732Y-90815480D01*
X182257626Y-90906423D01*
X182257625Y-90906424D01*
X182257624Y-90906424D01*
X182106394Y-90969066D01*
X181945848Y-91001000D01*
X181782152Y-91001000D01*
X181621606Y-90969066D01*
X181470376Y-90906424D01*
X181470375Y-90906424D01*
X181470374Y-90906423D01*
X181334268Y-90815480D01*
X181218520Y-90699732D01*
X181127577Y-90563626D01*
X181127576Y-90563624D01*
X181064934Y-90412394D01*
X181033000Y-90251848D01*
X181033000Y-90088152D01*
X181064934Y-89927606D01*
X181127576Y-89776376D01*
X181127577Y-89776374D01*
X181218520Y-89640268D01*
X181334268Y-89524520D01*
X181470374Y-89433577D01*
X181470376Y-89433576D01*
X181621606Y-89370934D01*
X181782152Y-89339000D01*
X181945848Y-89339000D01*
X182106394Y-89370934D01*
G37*
G36*
X159246394Y-89370934D02*
G01*
X159397624Y-89433576D01*
X159397626Y-89433577D01*
X159533732Y-89524520D01*
X159649480Y-89640268D01*
X159740423Y-89776374D01*
X159740424Y-89776376D01*
X159803066Y-89927606D01*
X159835000Y-90088152D01*
X159835000Y-90251848D01*
X159803066Y-90412394D01*
X159740424Y-90563624D01*
X159740423Y-90563626D01*
X159649480Y-90699732D01*
X159533732Y-90815480D01*
X159397626Y-90906423D01*
X159397625Y-90906424D01*
X159397624Y-90906424D01*
X159246394Y-90969066D01*
X159085848Y-91001000D01*
X158922152Y-91001000D01*
X158761606Y-90969066D01*
X158610376Y-90906424D01*
X158610375Y-90906424D01*
X158610374Y-90906423D01*
X158474268Y-90815480D01*
X158358520Y-90699732D01*
X158267577Y-90563626D01*
X158267576Y-90563624D01*
X158204934Y-90412394D01*
X158173000Y-90251848D01*
X158173000Y-90088152D01*
X158204934Y-89927606D01*
X158267576Y-89776376D01*
X158267577Y-89776374D01*
X158358520Y-89640268D01*
X158474268Y-89524520D01*
X158610374Y-89433577D01*
X158610376Y-89433576D01*
X158761606Y-89370934D01*
X158922152Y-89339000D01*
X159085848Y-89339000D01*
X159246394Y-89370934D01*
G37*
G36*
X154166394Y-89370934D02*
G01*
X154317624Y-89433576D01*
X154317626Y-89433577D01*
X154453732Y-89524520D01*
X154569480Y-89640268D01*
X154660423Y-89776374D01*
X154660424Y-89776376D01*
X154723066Y-89927606D01*
X154755000Y-90088152D01*
X154755000Y-90251848D01*
X154723066Y-90412394D01*
X154660424Y-90563624D01*
X154660423Y-90563626D01*
X154569480Y-90699732D01*
X154453732Y-90815480D01*
X154317626Y-90906423D01*
X154317625Y-90906424D01*
X154317624Y-90906424D01*
X154166394Y-90969066D01*
X154005848Y-91001000D01*
X153842152Y-91001000D01*
X153681606Y-90969066D01*
X153530376Y-90906424D01*
X153530375Y-90906424D01*
X153530374Y-90906423D01*
X153394268Y-90815480D01*
X153278520Y-90699732D01*
X153187577Y-90563626D01*
X153187576Y-90563624D01*
X153124934Y-90412394D01*
X153093000Y-90251848D01*
X153093000Y-90088152D01*
X153124934Y-89927606D01*
X153187576Y-89776376D01*
X153187577Y-89776374D01*
X153278520Y-89640268D01*
X153394268Y-89524520D01*
X153530374Y-89433577D01*
X153530376Y-89433576D01*
X153681606Y-89370934D01*
X153842152Y-89339000D01*
X154005848Y-89339000D01*
X154166394Y-89370934D01*
G37*
G36*
X151626394Y-89370934D02*
G01*
X151777624Y-89433576D01*
X151777626Y-89433577D01*
X151913732Y-89524520D01*
X152029480Y-89640268D01*
X152120423Y-89776374D01*
X152120424Y-89776376D01*
X152183066Y-89927606D01*
X152215000Y-90088152D01*
X152215000Y-90251848D01*
X152183066Y-90412394D01*
X152120424Y-90563624D01*
X152120423Y-90563626D01*
X152029480Y-90699732D01*
X151913732Y-90815480D01*
X151777626Y-90906423D01*
X151777625Y-90906424D01*
X151777624Y-90906424D01*
X151626394Y-90969066D01*
X151465848Y-91001000D01*
X151302152Y-91001000D01*
X151141606Y-90969066D01*
X150990376Y-90906424D01*
X150990375Y-90906424D01*
X150990374Y-90906423D01*
X150854268Y-90815480D01*
X150738520Y-90699732D01*
X150647577Y-90563626D01*
X150647576Y-90563624D01*
X150584934Y-90412394D01*
X150553000Y-90251848D01*
X150553000Y-90088152D01*
X150584934Y-89927606D01*
X150647576Y-89776376D01*
X150647577Y-89776374D01*
X150738520Y-89640268D01*
X150854268Y-89524520D01*
X150990374Y-89433577D01*
X150990376Y-89433576D01*
X151141606Y-89370934D01*
X151302152Y-89339000D01*
X151465848Y-89339000D01*
X151626394Y-89370934D01*
G37*
G36*
X194806394Y-89370934D02*
G01*
X194957624Y-89433576D01*
X194957626Y-89433577D01*
X195093732Y-89524520D01*
X195209480Y-89640268D01*
X195300423Y-89776374D01*
X195300424Y-89776376D01*
X195363066Y-89927606D01*
X195395000Y-90088152D01*
X195395000Y-90251848D01*
X195363066Y-90412394D01*
X195300424Y-90563624D01*
X195300423Y-90563626D01*
X195209480Y-90699732D01*
X195093732Y-90815480D01*
X194957626Y-90906423D01*
X194957625Y-90906424D01*
X194957624Y-90906424D01*
X194806394Y-90969066D01*
X194645848Y-91001000D01*
X194482152Y-91001000D01*
X194321606Y-90969066D01*
X194170376Y-90906424D01*
X194170375Y-90906424D01*
X194170374Y-90906423D01*
X194034268Y-90815480D01*
X193918520Y-90699732D01*
X193827577Y-90563626D01*
X193827576Y-90563624D01*
X193764934Y-90412394D01*
X193733000Y-90251848D01*
X193733000Y-90088152D01*
X193764934Y-89927606D01*
X193827576Y-89776376D01*
X193827577Y-89776374D01*
X193918520Y-89640268D01*
X194034268Y-89524520D01*
X194170374Y-89433577D01*
X194170376Y-89433576D01*
X194321606Y-89370934D01*
X194482152Y-89339000D01*
X194645848Y-89339000D01*
X194806394Y-89370934D01*
G37*
G36*
X192266394Y-89370934D02*
G01*
X192417624Y-89433576D01*
X192417626Y-89433577D01*
X192553732Y-89524520D01*
X192669480Y-89640268D01*
X192760423Y-89776374D01*
X192760424Y-89776376D01*
X192823066Y-89927606D01*
X192855000Y-90088152D01*
X192855000Y-90251848D01*
X192823066Y-90412394D01*
X192760424Y-90563624D01*
X192760423Y-90563626D01*
X192669480Y-90699732D01*
X192553732Y-90815480D01*
X192417626Y-90906423D01*
X192417625Y-90906424D01*
X192417624Y-90906424D01*
X192266394Y-90969066D01*
X192105848Y-91001000D01*
X191942152Y-91001000D01*
X191781606Y-90969066D01*
X191630376Y-90906424D01*
X191630375Y-90906424D01*
X191630374Y-90906423D01*
X191494268Y-90815480D01*
X191378520Y-90699732D01*
X191287577Y-90563626D01*
X191287576Y-90563624D01*
X191224934Y-90412394D01*
X191193000Y-90251848D01*
X191193000Y-90088152D01*
X191224934Y-89927606D01*
X191287576Y-89776376D01*
X191287577Y-89776374D01*
X191378520Y-89640268D01*
X191494268Y-89524520D01*
X191630374Y-89433577D01*
X191630376Y-89433576D01*
X191781606Y-89370934D01*
X191942152Y-89339000D01*
X192105848Y-89339000D01*
X192266394Y-89370934D01*
G37*
G36*
X189726394Y-89370934D02*
G01*
X189877624Y-89433576D01*
X189877626Y-89433577D01*
X190013732Y-89524520D01*
X190129480Y-89640268D01*
X190220423Y-89776374D01*
X190220424Y-89776376D01*
X190283066Y-89927606D01*
X190315000Y-90088152D01*
X190315000Y-90251848D01*
X190283066Y-90412394D01*
X190220424Y-90563624D01*
X190220423Y-90563626D01*
X190129480Y-90699732D01*
X190013732Y-90815480D01*
X189877626Y-90906423D01*
X189877625Y-90906424D01*
X189877624Y-90906424D01*
X189726394Y-90969066D01*
X189565848Y-91001000D01*
X189402152Y-91001000D01*
X189241606Y-90969066D01*
X189090376Y-90906424D01*
X189090375Y-90906424D01*
X189090374Y-90906423D01*
X188954268Y-90815480D01*
X188838520Y-90699732D01*
X188747577Y-90563626D01*
X188747576Y-90563624D01*
X188684934Y-90412394D01*
X188653000Y-90251848D01*
X188653000Y-90088152D01*
X188684934Y-89927606D01*
X188747576Y-89776376D01*
X188747577Y-89776374D01*
X188838520Y-89640268D01*
X188954268Y-89524520D01*
X189090374Y-89433577D01*
X189090376Y-89433576D01*
X189241606Y-89370934D01*
X189402152Y-89339000D01*
X189565848Y-89339000D01*
X189726394Y-89370934D01*
G37*
G36*
X197346394Y-89370934D02*
G01*
X197497624Y-89433576D01*
X197497626Y-89433577D01*
X197633732Y-89524520D01*
X197749480Y-89640268D01*
X197840423Y-89776374D01*
X197840424Y-89776376D01*
X197903066Y-89927606D01*
X197935000Y-90088152D01*
X197935000Y-90251848D01*
X197903066Y-90412394D01*
X197840424Y-90563624D01*
X197840423Y-90563626D01*
X197749480Y-90699732D01*
X197633732Y-90815480D01*
X197497626Y-90906423D01*
X197497625Y-90906424D01*
X197497624Y-90906424D01*
X197346394Y-90969066D01*
X197185848Y-91001000D01*
X197022152Y-91001000D01*
X196861606Y-90969066D01*
X196710376Y-90906424D01*
X196710375Y-90906424D01*
X196710374Y-90906423D01*
X196574268Y-90815480D01*
X196458520Y-90699732D01*
X196367577Y-90563626D01*
X196367576Y-90563624D01*
X196304934Y-90412394D01*
X196273000Y-90251848D01*
X196273000Y-90088152D01*
X196304934Y-89927606D01*
X196367576Y-89776376D01*
X196367577Y-89776374D01*
X196458520Y-89640268D01*
X196574268Y-89524520D01*
X196710374Y-89433577D01*
X196710376Y-89433576D01*
X196861606Y-89370934D01*
X197022152Y-89339000D01*
X197185848Y-89339000D01*
X197346394Y-89370934D01*
G37*
G36*
X160667000Y-87261000D02*
G01*
X158865000Y-87261000D01*
X158865000Y-85459000D01*
X160667000Y-85459000D01*
X160667000Y-87261000D01*
G37*
G36*
X179971000Y-87261000D02*
G01*
X178169000Y-87261000D01*
X178169000Y-85459000D01*
X179971000Y-85459000D01*
X179971000Y-87261000D01*
G37*
G36*
X162419512Y-85463927D02*
G01*
X162568812Y-85493624D01*
X162732784Y-85561544D01*
X162880354Y-85660147D01*
X163005853Y-85785646D01*
X163104456Y-85933216D01*
X163172376Y-86097188D01*
X163207000Y-86271259D01*
X163207000Y-86448741D01*
X163172376Y-86622812D01*
X163104456Y-86786784D01*
X163005853Y-86934354D01*
X162880354Y-87059853D01*
X162732784Y-87158456D01*
X162568812Y-87226376D01*
X162419512Y-87256073D01*
X162394742Y-87261000D01*
X162217258Y-87261000D01*
X162192488Y-87256073D01*
X162043188Y-87226376D01*
X161879216Y-87158456D01*
X161731646Y-87059853D01*
X161606147Y-86934354D01*
X161507544Y-86786784D01*
X161439624Y-86622812D01*
X161405000Y-86448741D01*
X161405000Y-86271259D01*
X161439624Y-86097188D01*
X161507544Y-85933216D01*
X161606147Y-85785646D01*
X161731646Y-85660147D01*
X161879216Y-85561544D01*
X162043188Y-85493624D01*
X162192488Y-85463927D01*
X162217258Y-85459000D01*
X162394742Y-85459000D01*
X162419512Y-85463927D01*
G37*
G36*
X155815512Y-85463927D02*
G01*
X155964812Y-85493624D01*
X156128784Y-85561544D01*
X156276354Y-85660147D01*
X156401853Y-85785646D01*
X156500456Y-85933216D01*
X156568376Y-86097188D01*
X156603000Y-86271259D01*
X156603000Y-86448741D01*
X156568376Y-86622812D01*
X156500456Y-86786784D01*
X156401853Y-86934354D01*
X156276354Y-87059853D01*
X156128784Y-87158456D01*
X155964812Y-87226376D01*
X155815512Y-87256073D01*
X155790742Y-87261000D01*
X155613258Y-87261000D01*
X155588488Y-87256073D01*
X155439188Y-87226376D01*
X155275216Y-87158456D01*
X155127646Y-87059853D01*
X155002147Y-86934354D01*
X154903544Y-86786784D01*
X154835624Y-86622812D01*
X154801000Y-86448741D01*
X154801000Y-86271259D01*
X154835624Y-86097188D01*
X154903544Y-85933216D01*
X155002147Y-85785646D01*
X155127646Y-85660147D01*
X155275216Y-85561544D01*
X155439188Y-85493624D01*
X155588488Y-85463927D01*
X155613258Y-85459000D01*
X155790742Y-85459000D01*
X155815512Y-85463927D01*
G37*
G36*
X153275512Y-85463927D02*
G01*
X153424812Y-85493624D01*
X153588784Y-85561544D01*
X153736354Y-85660147D01*
X153861853Y-85785646D01*
X153960456Y-85933216D01*
X154028376Y-86097188D01*
X154063000Y-86271259D01*
X154063000Y-86448741D01*
X154028376Y-86622812D01*
X153960456Y-86786784D01*
X153861853Y-86934354D01*
X153736354Y-87059853D01*
X153588784Y-87158456D01*
X153424812Y-87226376D01*
X153275512Y-87256073D01*
X153250742Y-87261000D01*
X153073258Y-87261000D01*
X153048488Y-87256073D01*
X152899188Y-87226376D01*
X152735216Y-87158456D01*
X152587646Y-87059853D01*
X152462147Y-86934354D01*
X152363544Y-86786784D01*
X152295624Y-86622812D01*
X152261000Y-86448741D01*
X152261000Y-86271259D01*
X152295624Y-86097188D01*
X152363544Y-85933216D01*
X152462147Y-85785646D01*
X152587646Y-85660147D01*
X152735216Y-85561544D01*
X152899188Y-85493624D01*
X153048488Y-85463927D01*
X153073258Y-85459000D01*
X153250742Y-85459000D01*
X153275512Y-85463927D01*
G37*
G36*
X150735512Y-85463927D02*
G01*
X150884812Y-85493624D01*
X151048784Y-85561544D01*
X151196354Y-85660147D01*
X151321853Y-85785646D01*
X151420456Y-85933216D01*
X151488376Y-86097188D01*
X151523000Y-86271259D01*
X151523000Y-86448741D01*
X151488376Y-86622812D01*
X151420456Y-86786784D01*
X151321853Y-86934354D01*
X151196354Y-87059853D01*
X151048784Y-87158456D01*
X150884812Y-87226376D01*
X150735512Y-87256073D01*
X150710742Y-87261000D01*
X150533258Y-87261000D01*
X150508488Y-87256073D01*
X150359188Y-87226376D01*
X150195216Y-87158456D01*
X150047646Y-87059853D01*
X149922147Y-86934354D01*
X149823544Y-86786784D01*
X149755624Y-86622812D01*
X149721000Y-86448741D01*
X149721000Y-86271259D01*
X149755624Y-86097188D01*
X149823544Y-85933216D01*
X149922147Y-85785646D01*
X150047646Y-85660147D01*
X150195216Y-85561544D01*
X150359188Y-85493624D01*
X150508488Y-85463927D01*
X150533258Y-85459000D01*
X150710742Y-85459000D01*
X150735512Y-85463927D01*
G37*
G36*
X148983000Y-87261000D02*
G01*
X147181000Y-87261000D01*
X147181000Y-85459000D01*
X148983000Y-85459000D01*
X148983000Y-87261000D01*
G37*
G36*
X167271000Y-87261000D02*
G01*
X165469000Y-87261000D01*
X165469000Y-85459000D01*
X167271000Y-85459000D01*
X167271000Y-87261000D01*
G37*
G36*
X195955256Y-83481298D02*
G01*
X196061579Y-83502447D01*
X196362042Y-83626903D01*
X196632451Y-83807585D01*
X196862415Y-84037549D01*
X197043097Y-84307958D01*
X197167553Y-84608421D01*
X197231000Y-84927391D01*
X197231000Y-85252609D01*
X197167553Y-85571579D01*
X197043097Y-85872042D01*
X196862415Y-86142451D01*
X196632451Y-86372415D01*
X196362042Y-86553097D01*
X196061579Y-86677553D01*
X195955256Y-86698702D01*
X195742611Y-86741000D01*
X195417389Y-86741000D01*
X195204744Y-86698702D01*
X195098421Y-86677553D01*
X194797958Y-86553097D01*
X194527549Y-86372415D01*
X194297585Y-86142451D01*
X194116903Y-85872042D01*
X193992447Y-85571579D01*
X193929000Y-85252609D01*
X193929000Y-84927391D01*
X193992447Y-84608421D01*
X194116903Y-84307958D01*
X194297585Y-84037549D01*
X194527549Y-83807585D01*
X194797958Y-83626903D01*
X195098421Y-83502447D01*
X195204744Y-83481298D01*
X195417389Y-83439000D01*
X195742611Y-83439000D01*
X195955256Y-83481298D01*
G37*
G36*
X166483512Y-82923927D02*
G01*
X166632812Y-82953624D01*
X166796784Y-83021544D01*
X166944354Y-83120147D01*
X167069853Y-83245646D01*
X167168456Y-83393216D01*
X167236376Y-83557188D01*
X167271000Y-83731259D01*
X167271000Y-83908741D01*
X167236376Y-84082812D01*
X167168456Y-84246784D01*
X167069853Y-84394354D01*
X166944354Y-84519853D01*
X166796784Y-84618456D01*
X166632812Y-84686376D01*
X166483512Y-84716073D01*
X166458742Y-84721000D01*
X166281258Y-84721000D01*
X166256488Y-84716073D01*
X166107188Y-84686376D01*
X165943216Y-84618456D01*
X165795646Y-84519853D01*
X165670147Y-84394354D01*
X165571544Y-84246784D01*
X165503624Y-84082812D01*
X165469000Y-83908741D01*
X165469000Y-83731259D01*
X165503624Y-83557188D01*
X165571544Y-83393216D01*
X165670147Y-83245646D01*
X165795646Y-83120147D01*
X165943216Y-83021544D01*
X166107188Y-82953624D01*
X166256488Y-82923927D01*
X166281258Y-82919000D01*
X166458742Y-82919000D01*
X166483512Y-82923927D01*
G37*
G36*
X179183512Y-82923927D02*
G01*
X179332812Y-82953624D01*
X179496784Y-83021544D01*
X179644354Y-83120147D01*
X179769853Y-83245646D01*
X179868456Y-83393216D01*
X179936376Y-83557188D01*
X179971000Y-83731259D01*
X179971000Y-83908741D01*
X179936376Y-84082812D01*
X179868456Y-84246784D01*
X179769853Y-84394354D01*
X179644354Y-84519853D01*
X179496784Y-84618456D01*
X179332812Y-84686376D01*
X179183512Y-84716073D01*
X179158742Y-84721000D01*
X178981258Y-84721000D01*
X178956488Y-84716073D01*
X178807188Y-84686376D01*
X178643216Y-84618456D01*
X178495646Y-84519853D01*
X178370147Y-84394354D01*
X178271544Y-84246784D01*
X178203624Y-84082812D01*
X178169000Y-83908741D01*
X178169000Y-83731259D01*
X178203624Y-83557188D01*
X178271544Y-83393216D01*
X178370147Y-83245646D01*
X178495646Y-83120147D01*
X178643216Y-83021544D01*
X178807188Y-82953624D01*
X178956488Y-82923927D01*
X178981258Y-82919000D01*
X179158742Y-82919000D01*
X179183512Y-82923927D01*
G37*
G36*
X190031000Y-84621000D02*
G01*
X188429000Y-84621000D01*
X188429000Y-83019000D01*
X190031000Y-83019000D01*
X190031000Y-84621000D01*
G37*
G36*
X186923642Y-81779781D02*
G01*
X187069414Y-81840162D01*
X187069416Y-81840163D01*
X187200608Y-81927822D01*
X187312178Y-82039392D01*
X187399837Y-82170584D01*
X187399838Y-82170586D01*
X187460219Y-82316358D01*
X187491000Y-82471107D01*
X187491000Y-82628893D01*
X187460219Y-82783642D01*
X187399838Y-82929414D01*
X187399837Y-82929416D01*
X187312178Y-83060608D01*
X187200608Y-83172178D01*
X187069416Y-83259837D01*
X187069415Y-83259838D01*
X187069414Y-83259838D01*
X186923642Y-83320219D01*
X186768893Y-83351000D01*
X186611107Y-83351000D01*
X186456358Y-83320219D01*
X186310586Y-83259838D01*
X186310585Y-83259838D01*
X186310584Y-83259837D01*
X186179392Y-83172178D01*
X186067822Y-83060608D01*
X185980163Y-82929416D01*
X185980162Y-82929414D01*
X185919781Y-82783642D01*
X185889000Y-82628893D01*
X185889000Y-82471107D01*
X185919781Y-82316358D01*
X185980162Y-82170586D01*
X185980163Y-82170584D01*
X186067822Y-82039392D01*
X186179392Y-81927822D01*
X186310584Y-81840163D01*
X186310586Y-81840162D01*
X186456358Y-81779781D01*
X186611107Y-81749000D01*
X186768893Y-81749000D01*
X186923642Y-81779781D01*
G37*
G36*
X179183512Y-80383927D02*
G01*
X179332812Y-80413624D01*
X179496784Y-80481544D01*
X179644354Y-80580147D01*
X179769853Y-80705646D01*
X179868456Y-80853216D01*
X179936376Y-81017188D01*
X179971000Y-81191259D01*
X179971000Y-81368741D01*
X179936376Y-81542812D01*
X179868456Y-81706784D01*
X179769853Y-81854354D01*
X179644354Y-81979853D01*
X179496784Y-82078456D01*
X179332812Y-82146376D01*
X179183512Y-82176073D01*
X179158742Y-82181000D01*
X178981258Y-82181000D01*
X178956488Y-82176073D01*
X178807188Y-82146376D01*
X178643216Y-82078456D01*
X178495646Y-81979853D01*
X178370147Y-81854354D01*
X178271544Y-81706784D01*
X178203624Y-81542812D01*
X178169000Y-81368741D01*
X178169000Y-81191259D01*
X178203624Y-81017188D01*
X178271544Y-80853216D01*
X178370147Y-80705646D01*
X178495646Y-80580147D01*
X178643216Y-80481544D01*
X178807188Y-80413624D01*
X178956488Y-80383927D01*
X178981258Y-80379000D01*
X179158742Y-80379000D01*
X179183512Y-80383927D01*
G37*
G36*
X166483512Y-80383927D02*
G01*
X166632812Y-80413624D01*
X166796784Y-80481544D01*
X166944354Y-80580147D01*
X167069853Y-80705646D01*
X167168456Y-80853216D01*
X167236376Y-81017188D01*
X167271000Y-81191259D01*
X167271000Y-81368741D01*
X167236376Y-81542812D01*
X167168456Y-81706784D01*
X167069853Y-81854354D01*
X166944354Y-81979853D01*
X166796784Y-82078456D01*
X166632812Y-82146376D01*
X166483512Y-82176073D01*
X166458742Y-82181000D01*
X166281258Y-82181000D01*
X166256488Y-82176073D01*
X166107188Y-82146376D01*
X165943216Y-82078456D01*
X165795646Y-81979853D01*
X165670147Y-81854354D01*
X165571544Y-81706784D01*
X165503624Y-81542812D01*
X165469000Y-81368741D01*
X165469000Y-81191259D01*
X165503624Y-81017188D01*
X165571544Y-80853216D01*
X165670147Y-80705646D01*
X165795646Y-80580147D01*
X165943216Y-80481544D01*
X166107188Y-80413624D01*
X166256488Y-80383927D01*
X166281258Y-80379000D01*
X166458742Y-80379000D01*
X166483512Y-80383927D01*
G37*
G36*
X189463642Y-80509781D02*
G01*
X189609414Y-80570162D01*
X189609416Y-80570163D01*
X189740608Y-80657822D01*
X189852178Y-80769392D01*
X189859412Y-80780219D01*
X189939838Y-80900586D01*
X190000219Y-81046358D01*
X190031000Y-81201107D01*
X190031000Y-81358893D01*
X190000219Y-81513642D01*
X189988136Y-81542812D01*
X189939837Y-81659416D01*
X189852178Y-81790608D01*
X189740608Y-81902178D01*
X189609416Y-81989837D01*
X189609415Y-81989838D01*
X189609414Y-81989838D01*
X189463642Y-82050219D01*
X189308893Y-82081000D01*
X189151107Y-82081000D01*
X188996358Y-82050219D01*
X188850586Y-81989838D01*
X188850585Y-81989838D01*
X188850584Y-81989837D01*
X188719392Y-81902178D01*
X188607822Y-81790608D01*
X188520163Y-81659416D01*
X188471864Y-81542812D01*
X188459781Y-81513642D01*
X188429000Y-81358893D01*
X188429000Y-81201107D01*
X188459781Y-81046358D01*
X188520162Y-80900586D01*
X188600588Y-80780219D01*
X188607822Y-80769392D01*
X188719392Y-80657822D01*
X188850584Y-80570163D01*
X188850586Y-80570162D01*
X188996358Y-80509781D01*
X189151107Y-80479000D01*
X189308893Y-80479000D01*
X189463642Y-80509781D01*
G37*
G36*
X186923642Y-79239781D02*
G01*
X187069414Y-79300162D01*
X187069416Y-79300163D01*
X187200608Y-79387822D01*
X187312178Y-79499392D01*
X187399837Y-79630584D01*
X187399838Y-79630586D01*
X187460219Y-79776358D01*
X187491000Y-79931107D01*
X187491000Y-80088893D01*
X187460219Y-80243642D01*
X187399838Y-80389414D01*
X187399837Y-80389416D01*
X187312178Y-80520608D01*
X187200608Y-80632178D01*
X187069416Y-80719837D01*
X187069415Y-80719838D01*
X187069414Y-80719838D01*
X186923642Y-80780219D01*
X186768893Y-80811000D01*
X186611107Y-80811000D01*
X186456358Y-80780219D01*
X186310586Y-80719838D01*
X186310585Y-80719838D01*
X186310584Y-80719837D01*
X186179392Y-80632178D01*
X186067822Y-80520608D01*
X185980163Y-80389416D01*
X185980162Y-80389414D01*
X185919781Y-80243642D01*
X185889000Y-80088893D01*
X185889000Y-79931107D01*
X185919781Y-79776358D01*
X185980162Y-79630586D01*
X185980163Y-79630584D01*
X186067822Y-79499392D01*
X186179392Y-79387822D01*
X186310584Y-79300163D01*
X186310586Y-79300162D01*
X186456358Y-79239781D01*
X186611107Y-79209000D01*
X186768893Y-79209000D01*
X186923642Y-79239781D01*
G37*
G36*
X166483512Y-77843927D02*
G01*
X166632812Y-77873624D01*
X166796784Y-77941544D01*
X166944354Y-78040147D01*
X167069853Y-78165646D01*
X167168456Y-78313216D01*
X167236376Y-78477188D01*
X167271000Y-78651259D01*
X167271000Y-78828741D01*
X167236376Y-79002812D01*
X167168456Y-79166784D01*
X167069853Y-79314354D01*
X166944354Y-79439853D01*
X166796784Y-79538456D01*
X166632812Y-79606376D01*
X166483512Y-79636073D01*
X166458742Y-79641000D01*
X166281258Y-79641000D01*
X166256488Y-79636073D01*
X166107188Y-79606376D01*
X165943216Y-79538456D01*
X165795646Y-79439853D01*
X165670147Y-79314354D01*
X165571544Y-79166784D01*
X165503624Y-79002812D01*
X165469000Y-78828741D01*
X165469000Y-78651259D01*
X165503624Y-78477188D01*
X165571544Y-78313216D01*
X165670147Y-78165646D01*
X165795646Y-78040147D01*
X165943216Y-77941544D01*
X166107188Y-77873624D01*
X166256488Y-77843927D01*
X166281258Y-77839000D01*
X166458742Y-77839000D01*
X166483512Y-77843927D01*
G37*
G36*
X179183512Y-77843927D02*
G01*
X179332812Y-77873624D01*
X179496784Y-77941544D01*
X179644354Y-78040147D01*
X179769853Y-78165646D01*
X179868456Y-78313216D01*
X179936376Y-78477188D01*
X179971000Y-78651259D01*
X179971000Y-78828741D01*
X179936376Y-79002812D01*
X179868456Y-79166784D01*
X179769853Y-79314354D01*
X179644354Y-79439853D01*
X179496784Y-79538456D01*
X179332812Y-79606376D01*
X179183512Y-79636073D01*
X179158742Y-79641000D01*
X178981258Y-79641000D01*
X178956488Y-79636073D01*
X178807188Y-79606376D01*
X178643216Y-79538456D01*
X178495646Y-79439853D01*
X178370147Y-79314354D01*
X178271544Y-79166784D01*
X178203624Y-79002812D01*
X178169000Y-78828741D01*
X178169000Y-78651259D01*
X178203624Y-78477188D01*
X178271544Y-78313216D01*
X178370147Y-78165646D01*
X178495646Y-78040147D01*
X178643216Y-77941544D01*
X178807188Y-77873624D01*
X178956488Y-77843927D01*
X178981258Y-77839000D01*
X179158742Y-77839000D01*
X179183512Y-77843927D01*
G37*
G36*
X189463642Y-77969781D02*
G01*
X189609414Y-78030162D01*
X189609416Y-78030163D01*
X189740608Y-78117822D01*
X189852178Y-78229392D01*
X189859412Y-78240219D01*
X189939838Y-78360586D01*
X190000219Y-78506358D01*
X190031000Y-78661107D01*
X190031000Y-78818893D01*
X190000219Y-78973642D01*
X189988136Y-79002812D01*
X189939837Y-79119416D01*
X189852178Y-79250608D01*
X189740608Y-79362178D01*
X189609416Y-79449837D01*
X189609415Y-79449838D01*
X189609414Y-79449838D01*
X189463642Y-79510219D01*
X189308893Y-79541000D01*
X189151107Y-79541000D01*
X188996358Y-79510219D01*
X188850586Y-79449838D01*
X188850585Y-79449838D01*
X188850584Y-79449837D01*
X188719392Y-79362178D01*
X188607822Y-79250608D01*
X188520163Y-79119416D01*
X188471864Y-79002812D01*
X188459781Y-78973642D01*
X188429000Y-78818893D01*
X188429000Y-78661107D01*
X188459781Y-78506358D01*
X188520162Y-78360586D01*
X188600588Y-78240219D01*
X188607822Y-78229392D01*
X188719392Y-78117822D01*
X188850584Y-78030163D01*
X188850586Y-78030162D01*
X188996358Y-77969781D01*
X189151107Y-77939000D01*
X189308893Y-77939000D01*
X189463642Y-77969781D01*
G37*
G36*
X186923642Y-76699781D02*
G01*
X187069414Y-76760162D01*
X187069416Y-76760163D01*
X187200608Y-76847822D01*
X187312178Y-76959392D01*
X187399837Y-77090584D01*
X187399838Y-77090586D01*
X187460219Y-77236358D01*
X187491000Y-77391107D01*
X187491000Y-77548893D01*
X187460219Y-77703642D01*
X187399838Y-77849414D01*
X187399837Y-77849416D01*
X187312178Y-77980608D01*
X187200608Y-78092178D01*
X187069416Y-78179837D01*
X187069415Y-78179838D01*
X187069414Y-78179838D01*
X186923642Y-78240219D01*
X186768893Y-78271000D01*
X186611107Y-78271000D01*
X186456358Y-78240219D01*
X186310586Y-78179838D01*
X186310585Y-78179838D01*
X186310584Y-78179837D01*
X186179392Y-78092178D01*
X186067822Y-77980608D01*
X185980163Y-77849416D01*
X185980162Y-77849414D01*
X185919781Y-77703642D01*
X185889000Y-77548893D01*
X185889000Y-77391107D01*
X185919781Y-77236358D01*
X185980162Y-77090586D01*
X185980163Y-77090584D01*
X186067822Y-76959392D01*
X186179392Y-76847822D01*
X186310584Y-76760163D01*
X186310586Y-76760162D01*
X186456358Y-76699781D01*
X186611107Y-76669000D01*
X186768893Y-76669000D01*
X186923642Y-76699781D01*
G37*
G36*
X151777000Y-77863000D02*
G01*
X149975000Y-77863000D01*
X149975000Y-76061000D01*
X151777000Y-76061000D01*
X151777000Y-77863000D01*
G37*
G36*
X166483512Y-75303927D02*
G01*
X166632812Y-75333624D01*
X166796784Y-75401544D01*
X166944354Y-75500147D01*
X167069853Y-75625646D01*
X167168456Y-75773216D01*
X167236376Y-75937188D01*
X167271000Y-76111259D01*
X167271000Y-76288741D01*
X167236376Y-76462812D01*
X167168456Y-76626784D01*
X167069853Y-76774354D01*
X166944354Y-76899853D01*
X166796784Y-76998456D01*
X166632812Y-77066376D01*
X166483512Y-77096073D01*
X166458742Y-77101000D01*
X166281258Y-77101000D01*
X166256488Y-77096073D01*
X166107188Y-77066376D01*
X165943216Y-76998456D01*
X165795646Y-76899853D01*
X165670147Y-76774354D01*
X165571544Y-76626784D01*
X165503624Y-76462812D01*
X165469000Y-76288741D01*
X165469000Y-76111259D01*
X165503624Y-75937188D01*
X165571544Y-75773216D01*
X165670147Y-75625646D01*
X165795646Y-75500147D01*
X165943216Y-75401544D01*
X166107188Y-75333624D01*
X166256488Y-75303927D01*
X166281258Y-75299000D01*
X166458742Y-75299000D01*
X166483512Y-75303927D01*
G37*
G36*
X179183512Y-75303927D02*
G01*
X179332812Y-75333624D01*
X179496784Y-75401544D01*
X179644354Y-75500147D01*
X179769853Y-75625646D01*
X179868456Y-75773216D01*
X179936376Y-75937188D01*
X179971000Y-76111259D01*
X179971000Y-76288741D01*
X179936376Y-76462812D01*
X179868456Y-76626784D01*
X179769853Y-76774354D01*
X179644354Y-76899853D01*
X179496784Y-76998456D01*
X179332812Y-77066376D01*
X179183512Y-77096073D01*
X179158742Y-77101000D01*
X178981258Y-77101000D01*
X178956488Y-77096073D01*
X178807188Y-77066376D01*
X178643216Y-76998456D01*
X178495646Y-76899853D01*
X178370147Y-76774354D01*
X178271544Y-76626784D01*
X178203624Y-76462812D01*
X178169000Y-76288741D01*
X178169000Y-76111259D01*
X178203624Y-75937188D01*
X178271544Y-75773216D01*
X178370147Y-75625646D01*
X178495646Y-75500147D01*
X178643216Y-75401544D01*
X178807188Y-75333624D01*
X178956488Y-75303927D01*
X178981258Y-75299000D01*
X179158742Y-75299000D01*
X179183512Y-75303927D01*
G37*
G36*
X189463642Y-75429781D02*
G01*
X189609414Y-75490162D01*
X189609416Y-75490163D01*
X189740608Y-75577822D01*
X189852178Y-75689392D01*
X189859412Y-75700219D01*
X189939838Y-75820586D01*
X190000219Y-75966358D01*
X190031000Y-76121107D01*
X190031000Y-76278893D01*
X190000219Y-76433642D01*
X189988136Y-76462812D01*
X189939837Y-76579416D01*
X189852178Y-76710608D01*
X189740608Y-76822178D01*
X189609416Y-76909837D01*
X189609415Y-76909838D01*
X189609414Y-76909838D01*
X189463642Y-76970219D01*
X189308893Y-77001000D01*
X189151107Y-77001000D01*
X188996358Y-76970219D01*
X188850586Y-76909838D01*
X188850585Y-76909838D01*
X188850584Y-76909837D01*
X188719392Y-76822178D01*
X188607822Y-76710608D01*
X188520163Y-76579416D01*
X188471864Y-76462812D01*
X188459781Y-76433642D01*
X188429000Y-76278893D01*
X188429000Y-76121107D01*
X188459781Y-75966358D01*
X188520162Y-75820586D01*
X188600588Y-75700219D01*
X188607822Y-75689392D01*
X188719392Y-75577822D01*
X188850584Y-75490163D01*
X188850586Y-75490162D01*
X188996358Y-75429781D01*
X189151107Y-75399000D01*
X189308893Y-75399000D01*
X189463642Y-75429781D01*
G37*
G36*
X186923642Y-74159781D02*
G01*
X187069414Y-74220162D01*
X187069416Y-74220163D01*
X187200608Y-74307822D01*
X187312178Y-74419392D01*
X187399837Y-74550584D01*
X187399838Y-74550586D01*
X187460219Y-74696358D01*
X187491000Y-74851107D01*
X187491000Y-75008893D01*
X187460219Y-75163642D01*
X187399838Y-75309414D01*
X187399837Y-75309416D01*
X187312178Y-75440608D01*
X187200608Y-75552178D01*
X187069416Y-75639837D01*
X187069415Y-75639838D01*
X187069414Y-75639838D01*
X186923642Y-75700219D01*
X186768893Y-75731000D01*
X186611107Y-75731000D01*
X186456358Y-75700219D01*
X186310586Y-75639838D01*
X186310585Y-75639838D01*
X186310584Y-75639837D01*
X186179392Y-75552178D01*
X186067822Y-75440608D01*
X185980163Y-75309416D01*
X185980162Y-75309414D01*
X185919781Y-75163642D01*
X185889000Y-75008893D01*
X185889000Y-74851107D01*
X185919781Y-74696358D01*
X185980162Y-74550586D01*
X185980163Y-74550584D01*
X186067822Y-74419392D01*
X186179392Y-74307822D01*
X186310584Y-74220163D01*
X186310586Y-74220162D01*
X186456358Y-74159781D01*
X186611107Y-74129000D01*
X186768893Y-74129000D01*
X186923642Y-74159781D01*
G37*
G36*
X195955256Y-72051298D02*
G01*
X196061579Y-72072447D01*
X196362042Y-72196903D01*
X196632451Y-72377585D01*
X196862415Y-72607549D01*
X197043097Y-72877958D01*
X197129125Y-73085647D01*
X197167553Y-73178422D01*
X197231000Y-73497389D01*
X197231000Y-73822611D01*
X197188702Y-74035256D01*
X197167553Y-74141579D01*
X197043097Y-74442042D01*
X196862415Y-74712451D01*
X196632451Y-74942415D01*
X196362042Y-75123097D01*
X196061579Y-75247553D01*
X195955256Y-75268702D01*
X195742611Y-75311000D01*
X195417389Y-75311000D01*
X195204744Y-75268702D01*
X195098421Y-75247553D01*
X194797958Y-75123097D01*
X194527549Y-74942415D01*
X194297585Y-74712451D01*
X194116903Y-74442042D01*
X193992447Y-74141579D01*
X193971298Y-74035256D01*
X193929000Y-73822611D01*
X193929000Y-73497389D01*
X193992447Y-73178422D01*
X194030876Y-73085647D01*
X194116903Y-72877958D01*
X194297585Y-72607549D01*
X194527549Y-72377585D01*
X194797958Y-72196903D01*
X195098421Y-72072447D01*
X195204744Y-72051298D01*
X195417389Y-72009000D01*
X195742611Y-72009000D01*
X195955256Y-72051298D01*
G37*
G36*
X166483512Y-72763927D02*
G01*
X166632812Y-72793624D01*
X166796784Y-72861544D01*
X166944354Y-72960147D01*
X167069853Y-73085646D01*
X167168456Y-73233216D01*
X167236376Y-73397188D01*
X167271000Y-73571259D01*
X167271000Y-73748741D01*
X167236376Y-73922812D01*
X167168456Y-74086784D01*
X167069853Y-74234354D01*
X166944354Y-74359853D01*
X166796784Y-74458456D01*
X166632812Y-74526376D01*
X166483512Y-74556073D01*
X166458742Y-74561000D01*
X166281258Y-74561000D01*
X166256488Y-74556073D01*
X166107188Y-74526376D01*
X165943216Y-74458456D01*
X165795646Y-74359853D01*
X165670147Y-74234354D01*
X165571544Y-74086784D01*
X165503624Y-73922812D01*
X165469000Y-73748741D01*
X165469000Y-73571259D01*
X165503624Y-73397188D01*
X165571544Y-73233216D01*
X165670147Y-73085646D01*
X165795646Y-72960147D01*
X165943216Y-72861544D01*
X166107188Y-72793624D01*
X166256488Y-72763927D01*
X166281258Y-72759000D01*
X166458742Y-72759000D01*
X166483512Y-72763927D01*
G37*
G36*
X179183512Y-72763927D02*
G01*
X179332812Y-72793624D01*
X179496784Y-72861544D01*
X179644354Y-72960147D01*
X179769853Y-73085646D01*
X179868456Y-73233216D01*
X179936376Y-73397188D01*
X179971000Y-73571259D01*
X179971000Y-73748741D01*
X179936376Y-73922812D01*
X179868456Y-74086784D01*
X179769853Y-74234354D01*
X179644354Y-74359853D01*
X179496784Y-74458456D01*
X179332812Y-74526376D01*
X179183512Y-74556073D01*
X179158742Y-74561000D01*
X178981258Y-74561000D01*
X178956488Y-74556073D01*
X178807188Y-74526376D01*
X178643216Y-74458456D01*
X178495646Y-74359853D01*
X178370147Y-74234354D01*
X178271544Y-74086784D01*
X178203624Y-73922812D01*
X178169000Y-73748741D01*
X178169000Y-73571259D01*
X178203624Y-73397188D01*
X178271544Y-73233216D01*
X178370147Y-73085646D01*
X178495646Y-72960147D01*
X178643216Y-72861544D01*
X178807188Y-72793624D01*
X178956488Y-72763927D01*
X178981258Y-72759000D01*
X179158742Y-72759000D01*
X179183512Y-72763927D01*
G37*
G36*
X171800256Y-69441298D02*
G01*
X171906579Y-69462447D01*
X172207042Y-69586903D01*
X172477451Y-69767585D01*
X172707415Y-69997549D01*
X172888097Y-70267958D01*
X173003120Y-70545647D01*
X173012553Y-70568422D01*
X173069993Y-70857189D01*
X173076000Y-70887391D01*
X173076000Y-71212609D01*
X173012553Y-71531579D01*
X172888097Y-71832042D01*
X172707415Y-72102451D01*
X172477451Y-72332415D01*
X172207042Y-72513097D01*
X171906579Y-72637553D01*
X171800256Y-72658702D01*
X171587611Y-72701000D01*
X171262389Y-72701000D01*
X171049744Y-72658702D01*
X170943421Y-72637553D01*
X170642958Y-72513097D01*
X170372549Y-72332415D01*
X170142585Y-72102451D01*
X169961903Y-71832042D01*
X169837447Y-71531579D01*
X169774000Y-71212609D01*
X169774000Y-70887391D01*
X169780008Y-70857189D01*
X169837447Y-70568422D01*
X169846881Y-70545647D01*
X169961903Y-70267958D01*
X170142585Y-69997549D01*
X170372549Y-69767585D01*
X170642958Y-69586903D01*
X170943421Y-69462447D01*
X171049744Y-69441298D01*
X171262389Y-69399000D01*
X171587611Y-69399000D01*
X171800256Y-69441298D01*
G37*
G36*
X166483512Y-70223927D02*
G01*
X166632812Y-70253624D01*
X166796784Y-70321544D01*
X166944354Y-70420147D01*
X167069853Y-70545646D01*
X167168456Y-70693216D01*
X167236376Y-70857188D01*
X167271000Y-71031259D01*
X167271000Y-71208741D01*
X167236376Y-71382812D01*
X167168456Y-71546784D01*
X167069853Y-71694354D01*
X166944354Y-71819853D01*
X166796784Y-71918456D01*
X166632812Y-71986376D01*
X166483512Y-72016073D01*
X166458742Y-72021000D01*
X166281258Y-72021000D01*
X166256488Y-72016073D01*
X166107188Y-71986376D01*
X165943216Y-71918456D01*
X165795646Y-71819853D01*
X165670147Y-71694354D01*
X165571544Y-71546784D01*
X165503624Y-71382812D01*
X165469000Y-71208741D01*
X165469000Y-71031259D01*
X165503624Y-70857188D01*
X165571544Y-70693216D01*
X165670147Y-70545646D01*
X165795646Y-70420147D01*
X165943216Y-70321544D01*
X166107188Y-70253624D01*
X166256488Y-70223927D01*
X166281258Y-70219000D01*
X166458742Y-70219000D01*
X166483512Y-70223927D01*
G37*
G36*
X179183512Y-70223927D02*
G01*
X179332812Y-70253624D01*
X179496784Y-70321544D01*
X179644354Y-70420147D01*
X179769853Y-70545646D01*
X179868456Y-70693216D01*
X179936376Y-70857188D01*
X179971000Y-71031259D01*
X179971000Y-71208741D01*
X179936376Y-71382812D01*
X179868456Y-71546784D01*
X179769853Y-71694354D01*
X179644354Y-71819853D01*
X179496784Y-71918456D01*
X179332812Y-71986376D01*
X179183512Y-72016073D01*
X179158742Y-72021000D01*
X178981258Y-72021000D01*
X178956488Y-72016073D01*
X178807188Y-71986376D01*
X178643216Y-71918456D01*
X178495646Y-71819853D01*
X178370147Y-71694354D01*
X178271544Y-71546784D01*
X178203624Y-71382812D01*
X178169000Y-71208741D01*
X178169000Y-71031259D01*
X178203624Y-70857188D01*
X178271544Y-70693216D01*
X178370147Y-70545646D01*
X178495646Y-70420147D01*
X178643216Y-70321544D01*
X178807188Y-70253624D01*
X178956488Y-70223927D01*
X178981258Y-70219000D01*
X179158742Y-70219000D01*
X179183512Y-70223927D01*
G37*
G36*
X131800256Y-68441298D02*
G01*
X131906579Y-68462447D01*
X132207042Y-68586903D01*
X132477451Y-68767585D01*
X132707415Y-68997549D01*
X132812188Y-69154353D01*
X132888098Y-69267960D01*
X133012553Y-69568422D01*
X133076000Y-69887389D01*
X133076000Y-70212611D01*
X133064990Y-70267960D01*
X133012553Y-70531579D01*
X132888097Y-70832042D01*
X132707415Y-71102451D01*
X132477451Y-71332415D01*
X132207042Y-71513097D01*
X132207041Y-71513098D01*
X132207040Y-71513098D01*
X132119037Y-71549550D01*
X131906579Y-71637553D01*
X131800256Y-71658702D01*
X131587611Y-71701000D01*
X131262389Y-71701000D01*
X131049744Y-71658702D01*
X130943421Y-71637553D01*
X130730963Y-71549550D01*
X130642960Y-71513098D01*
X130642959Y-71513098D01*
X130642958Y-71513097D01*
X130372549Y-71332415D01*
X130142585Y-71102451D01*
X129961903Y-70832042D01*
X129837447Y-70531579D01*
X129785010Y-70267960D01*
X129774000Y-70212611D01*
X129774000Y-69887389D01*
X129837447Y-69568422D01*
X129961902Y-69267960D01*
X130037812Y-69154353D01*
X130142585Y-68997549D01*
X130372549Y-68767585D01*
X130642958Y-68586903D01*
X130943421Y-68462447D01*
X131049744Y-68441298D01*
X131262389Y-68399000D01*
X131587611Y-68399000D01*
X131800256Y-68441298D01*
G37*
G36*
X166483512Y-67683927D02*
G01*
X166632812Y-67713624D01*
X166796784Y-67781544D01*
X166944354Y-67880147D01*
X167069853Y-68005646D01*
X167168456Y-68153216D01*
X167236376Y-68317188D01*
X167271000Y-68491259D01*
X167271000Y-68668741D01*
X167236376Y-68842812D01*
X167168456Y-69006784D01*
X167069853Y-69154354D01*
X166944354Y-69279853D01*
X166796784Y-69378456D01*
X166632812Y-69446376D01*
X166483512Y-69476073D01*
X166458742Y-69481000D01*
X166281258Y-69481000D01*
X166256488Y-69476073D01*
X166107188Y-69446376D01*
X165943216Y-69378456D01*
X165795646Y-69279853D01*
X165670147Y-69154354D01*
X165571544Y-69006784D01*
X165503624Y-68842812D01*
X165469000Y-68668741D01*
X165469000Y-68491259D01*
X165503624Y-68317188D01*
X165571544Y-68153216D01*
X165670147Y-68005646D01*
X165795646Y-67880147D01*
X165943216Y-67781544D01*
X166107188Y-67713624D01*
X166256488Y-67683927D01*
X166281258Y-67679000D01*
X166458742Y-67679000D01*
X166483512Y-67683927D01*
G37*
G36*
X179183512Y-67683927D02*
G01*
X179332812Y-67713624D01*
X179496784Y-67781544D01*
X179644354Y-67880147D01*
X179769853Y-68005646D01*
X179868456Y-68153216D01*
X179936376Y-68317188D01*
X179971000Y-68491259D01*
X179971000Y-68668741D01*
X179936376Y-68842812D01*
X179868456Y-69006784D01*
X179769853Y-69154354D01*
X179644354Y-69279853D01*
X179496784Y-69378456D01*
X179332812Y-69446376D01*
X179183512Y-69476073D01*
X179158742Y-69481000D01*
X178981258Y-69481000D01*
X178956488Y-69476073D01*
X178807188Y-69446376D01*
X178643216Y-69378456D01*
X178495646Y-69279853D01*
X178370147Y-69154354D01*
X178271544Y-69006784D01*
X178203624Y-68842812D01*
X178169000Y-68668741D01*
X178169000Y-68491259D01*
X178203624Y-68317188D01*
X178271544Y-68153216D01*
X178370147Y-68005646D01*
X178495646Y-67880147D01*
X178643216Y-67781544D01*
X178807188Y-67713624D01*
X178956488Y-67683927D01*
X178981258Y-67679000D01*
X179158742Y-67679000D01*
X179183512Y-67683927D01*
G37*
M02*
