G04 #@! TF.GenerationSoftware,KiCad,Pcbnew,5.0.2+dfsg1-1*
G04 #@! TF.CreationDate,2019-05-10T18:20:53+02:00*
G04 #@! TF.ProjectId,bt-trx-dev-board,62742d74-7278-42d6-9465-762d626f6172,2.0*
G04 #@! TF.SameCoordinates,Original*
G04 #@! TF.FileFunction,Soldermask,Top*
G04 #@! TF.FilePolarity,Negative*
%FSLAX46Y46*%
G04 Gerber Fmt 4.6, Leading zero omitted, Abs format (unit mm)*
G04 Created by KiCad (PCBNEW 5.0.2+dfsg1-1) date Fri 10 May 2019 06:20:53 PM CEST*
%MOMM*%
%LPD*%
G01*
G04 APERTURE LIST*
%ADD10C,0.100000*%
G04 APERTURE END LIST*
D10*
G04 #@! TO.C,SW1*
X181373500Y-120344000D02*
G75*
G03X181373500Y-120344000I-444500J0D01*
G01*
X181373500Y-124844000D02*
G75*
G03X181373500Y-124844000I-444500J0D01*
G01*
X179064000Y-126094000D02*
G75*
G03X179064000Y-126094000I-635000J0D01*
G01*
X179064000Y-119094000D02*
G75*
G03X179064000Y-119094000I-635000J0D01*
G01*
G36*
X144921935Y-126152671D02*
X144951874Y-126161753D01*
X144979469Y-126176503D01*
X145003651Y-126196349D01*
X145023497Y-126220531D01*
X145038247Y-126248126D01*
X145047329Y-126278065D01*
X145051000Y-126315340D01*
X145051000Y-130484660D01*
X145047329Y-130521935D01*
X145038247Y-130551874D01*
X145023497Y-130579469D01*
X145003651Y-130603651D01*
X144979469Y-130623497D01*
X144951874Y-130638247D01*
X144921935Y-130647329D01*
X144884660Y-130651000D01*
X142615340Y-130651000D01*
X142578065Y-130647329D01*
X142548126Y-130638247D01*
X142520531Y-130623497D01*
X142496349Y-130603651D01*
X142476503Y-130579469D01*
X142461753Y-130551874D01*
X142452671Y-130521935D01*
X142449000Y-130484660D01*
X142449000Y-126315340D01*
X142452671Y-126278065D01*
X142461753Y-126248126D01*
X142476503Y-126220531D01*
X142496349Y-126196349D01*
X142520531Y-126176503D01*
X142548126Y-126161753D01*
X142578065Y-126152671D01*
X142615340Y-126149000D01*
X144884660Y-126149000D01*
X144921935Y-126152671D01*
X144921935Y-126152671D01*
G37*
G36*
X168051000Y-128951000D02*
X165449000Y-128951000D01*
X165449000Y-127049000D01*
X168051000Y-127049000D01*
X168051000Y-128951000D01*
X168051000Y-128951000D01*
G37*
G36*
X164051000Y-128951000D02*
X161449000Y-128951000D01*
X161449000Y-127049000D01*
X164051000Y-127049000D01*
X164051000Y-128951000D01*
X164051000Y-128951000D01*
G37*
G36*
X157625256Y-125141298D02*
X157731579Y-125162447D01*
X157822143Y-125199960D01*
X157993128Y-125270784D01*
X158032042Y-125286903D01*
X158141858Y-125360280D01*
X158302454Y-125467587D01*
X158532413Y-125697546D01*
X158713098Y-125967960D01*
X158749550Y-126055963D01*
X158829147Y-126248126D01*
X158837553Y-126268422D01*
X158901000Y-126587389D01*
X158901000Y-126912611D01*
X158885996Y-126988040D01*
X158837553Y-127231579D01*
X158749550Y-127444037D01*
X158713098Y-127532040D01*
X158532413Y-127802454D01*
X158302454Y-128032413D01*
X158302451Y-128032415D01*
X158032042Y-128213097D01*
X157731579Y-128337553D01*
X157625256Y-128358702D01*
X157412611Y-128401000D01*
X157087389Y-128401000D01*
X156874744Y-128358702D01*
X156768421Y-128337553D01*
X156467958Y-128213097D01*
X156197549Y-128032415D01*
X156197546Y-128032413D01*
X155967587Y-127802454D01*
X155786902Y-127532040D01*
X155750450Y-127444037D01*
X155662447Y-127231579D01*
X155614004Y-126988040D01*
X155599000Y-126912611D01*
X155599000Y-126587389D01*
X155662447Y-126268422D01*
X155670854Y-126248126D01*
X155750450Y-126055963D01*
X155786902Y-125967960D01*
X155967587Y-125697546D01*
X156197546Y-125467587D01*
X156358142Y-125360280D01*
X156467958Y-125286903D01*
X156506873Y-125270784D01*
X156677857Y-125199960D01*
X156768421Y-125162447D01*
X156874744Y-125141298D01*
X157087389Y-125099000D01*
X157412611Y-125099000D01*
X157625256Y-125141298D01*
X157625256Y-125141298D01*
G37*
G36*
X178764734Y-124987232D02*
X178974202Y-125073996D01*
X179162723Y-125199962D01*
X179323038Y-125360277D01*
X179449004Y-125548798D01*
X179535768Y-125758266D01*
X179580000Y-125980635D01*
X179580000Y-126207365D01*
X179535768Y-126429734D01*
X179449004Y-126639202D01*
X179323038Y-126827723D01*
X179162723Y-126988038D01*
X178974202Y-127114004D01*
X178764734Y-127200768D01*
X178542365Y-127245000D01*
X178315635Y-127245000D01*
X178093266Y-127200768D01*
X177883798Y-127114004D01*
X177695277Y-126988038D01*
X177534962Y-126827723D01*
X177408996Y-126639202D01*
X177322232Y-126429734D01*
X177278000Y-126207365D01*
X177278000Y-125980635D01*
X177322232Y-125758266D01*
X177408996Y-125548798D01*
X177534962Y-125360277D01*
X177695277Y-125199962D01*
X177883798Y-125073996D01*
X178093266Y-124987232D01*
X178315635Y-124943000D01*
X178542365Y-124943000D01*
X178764734Y-124987232D01*
X178764734Y-124987232D01*
G37*
G36*
X175801000Y-127201000D02*
X173199000Y-127201000D01*
X173199000Y-125299000D01*
X175801000Y-125299000D01*
X175801000Y-127201000D01*
X175801000Y-127201000D01*
G37*
G36*
X171801000Y-127201000D02*
X169199000Y-127201000D01*
X169199000Y-125299000D01*
X171801000Y-125299000D01*
X171801000Y-127201000D01*
X171801000Y-127201000D01*
G37*
G36*
X181191812Y-123977624D02*
X181355784Y-124045544D01*
X181503354Y-124144147D01*
X181628853Y-124269646D01*
X181727456Y-124417216D01*
X181795376Y-124581188D01*
X181830000Y-124755259D01*
X181830000Y-124932741D01*
X181795376Y-125106812D01*
X181727456Y-125270784D01*
X181628853Y-125418354D01*
X181503354Y-125543853D01*
X181355784Y-125642456D01*
X181191812Y-125710376D01*
X181017741Y-125745000D01*
X180840259Y-125745000D01*
X180666188Y-125710376D01*
X180502216Y-125642456D01*
X180354646Y-125543853D01*
X180229147Y-125418354D01*
X180130544Y-125270784D01*
X180062624Y-125106812D01*
X180028000Y-124932741D01*
X180028000Y-124755259D01*
X180062624Y-124581188D01*
X180130544Y-124417216D01*
X180229147Y-124269646D01*
X180354646Y-124144147D01*
X180502216Y-124045544D01*
X180666188Y-123977624D01*
X180840259Y-123943000D01*
X181017741Y-123943000D01*
X181191812Y-123977624D01*
X181191812Y-123977624D01*
G37*
G36*
X153701000Y-124551000D02*
X151299000Y-124551000D01*
X151299000Y-121949000D01*
X153701000Y-121949000D01*
X153701000Y-124551000D01*
X153701000Y-124551000D01*
G37*
G36*
X166150677Y-123278465D02*
X166188364Y-123289898D01*
X166223103Y-123308466D01*
X166253548Y-123333452D01*
X166278534Y-123363897D01*
X166297102Y-123398636D01*
X166308535Y-123436323D01*
X166313000Y-123481661D01*
X166313000Y-124318339D01*
X166308535Y-124363677D01*
X166297102Y-124401364D01*
X166278534Y-124436103D01*
X166253548Y-124466548D01*
X166223103Y-124491534D01*
X166188364Y-124510102D01*
X166150677Y-124521535D01*
X166105339Y-124526000D01*
X165018661Y-124526000D01*
X164973323Y-124521535D01*
X164935636Y-124510102D01*
X164900897Y-124491534D01*
X164870452Y-124466548D01*
X164845466Y-124436103D01*
X164826898Y-124401364D01*
X164815465Y-124363677D01*
X164811000Y-124318339D01*
X164811000Y-123481661D01*
X164815465Y-123436323D01*
X164826898Y-123398636D01*
X164845466Y-123363897D01*
X164870452Y-123333452D01*
X164900897Y-123308466D01*
X164935636Y-123289898D01*
X164973323Y-123278465D01*
X165018661Y-123274000D01*
X166105339Y-123274000D01*
X166150677Y-123278465D01*
X166150677Y-123278465D01*
G37*
G36*
X169584000Y-123826000D02*
X167482000Y-123826000D01*
X167482000Y-122224000D01*
X169584000Y-122224000D01*
X169584000Y-123826000D01*
X169584000Y-123826000D01*
G37*
G36*
X175884000Y-122676000D02*
X173782000Y-122676000D01*
X173782000Y-118774000D01*
X175884000Y-118774000D01*
X175884000Y-122676000D01*
X175884000Y-122676000D01*
G37*
G36*
X163924562Y-121108681D02*
X163959477Y-121119273D01*
X163991665Y-121136478D01*
X164019873Y-121159627D01*
X164043022Y-121187835D01*
X164060227Y-121220023D01*
X164070819Y-121254938D01*
X164075000Y-121297395D01*
X164075000Y-122438605D01*
X164070819Y-122481062D01*
X164060227Y-122515977D01*
X164043022Y-122548165D01*
X164019873Y-122576373D01*
X163991665Y-122599522D01*
X163959477Y-122616727D01*
X163924562Y-122627319D01*
X163882105Y-122631500D01*
X162415895Y-122631500D01*
X162373438Y-122627319D01*
X162338523Y-122616727D01*
X162306335Y-122599522D01*
X162278127Y-122576373D01*
X162254978Y-122548165D01*
X162237773Y-122515977D01*
X162227181Y-122481062D01*
X162223000Y-122438605D01*
X162223000Y-121297395D01*
X162227181Y-121254938D01*
X162237773Y-121220023D01*
X162254978Y-121187835D01*
X162278127Y-121159627D01*
X162306335Y-121136478D01*
X162338523Y-121119273D01*
X162373438Y-121108681D01*
X162415895Y-121104500D01*
X163882105Y-121104500D01*
X163924562Y-121108681D01*
X163924562Y-121108681D01*
G37*
G36*
X166150677Y-121228465D02*
X166188364Y-121239898D01*
X166223103Y-121258466D01*
X166253548Y-121283452D01*
X166278534Y-121313897D01*
X166297102Y-121348636D01*
X166308535Y-121386323D01*
X166313000Y-121431661D01*
X166313000Y-122268339D01*
X166308535Y-122313677D01*
X166297102Y-122351364D01*
X166278534Y-122386103D01*
X166253548Y-122416548D01*
X166223103Y-122441534D01*
X166188364Y-122460102D01*
X166150677Y-122471535D01*
X166105339Y-122476000D01*
X165018661Y-122476000D01*
X164973323Y-122471535D01*
X164935636Y-122460102D01*
X164900897Y-122441534D01*
X164870452Y-122416548D01*
X164845466Y-122386103D01*
X164826898Y-122351364D01*
X164815465Y-122313677D01*
X164811000Y-122268339D01*
X164811000Y-121431661D01*
X164815465Y-121386323D01*
X164826898Y-121348636D01*
X164845466Y-121313897D01*
X164870452Y-121283452D01*
X164900897Y-121258466D01*
X164935636Y-121239898D01*
X164973323Y-121228465D01*
X165018661Y-121224000D01*
X166105339Y-121224000D01*
X166150677Y-121228465D01*
X166150677Y-121228465D01*
G37*
G36*
X144921935Y-117752671D02*
X144951874Y-117761753D01*
X144979469Y-117776503D01*
X145003651Y-117796349D01*
X145023497Y-117820531D01*
X145038247Y-117848126D01*
X145047329Y-117878065D01*
X145051000Y-117915340D01*
X145051000Y-122084660D01*
X145047329Y-122121935D01*
X145038247Y-122151874D01*
X145023497Y-122179469D01*
X145003651Y-122203651D01*
X144979469Y-122223497D01*
X144951874Y-122238247D01*
X144921935Y-122247329D01*
X144884660Y-122251000D01*
X142615340Y-122251000D01*
X142578065Y-122247329D01*
X142548126Y-122238247D01*
X142520531Y-122223497D01*
X142496349Y-122203651D01*
X142476503Y-122179469D01*
X142461753Y-122151874D01*
X142452671Y-122121935D01*
X142449000Y-122084660D01*
X142449000Y-117915340D01*
X142452671Y-117878065D01*
X142461753Y-117848126D01*
X142476503Y-117820531D01*
X142496349Y-117796349D01*
X142520531Y-117776503D01*
X142548126Y-117761753D01*
X142578065Y-117752671D01*
X142615340Y-117749000D01*
X144884660Y-117749000D01*
X144921935Y-117752671D01*
X144921935Y-117752671D01*
G37*
G36*
X161344000Y-121832000D02*
X157842000Y-121832000D01*
X157842000Y-120380000D01*
X161344000Y-120380000D01*
X161344000Y-121832000D01*
X161344000Y-121832000D01*
G37*
G36*
X169584000Y-121526000D02*
X167482000Y-121526000D01*
X167482000Y-119924000D01*
X169584000Y-119924000D01*
X169584000Y-121526000D01*
X169584000Y-121526000D01*
G37*
G36*
X181191812Y-119477624D02*
X181355784Y-119545544D01*
X181503354Y-119644147D01*
X181628853Y-119769646D01*
X181727456Y-119917216D01*
X181795376Y-120081188D01*
X181830000Y-120255259D01*
X181830000Y-120432741D01*
X181795376Y-120606812D01*
X181727456Y-120770784D01*
X181628853Y-120918354D01*
X181503354Y-121043853D01*
X181355784Y-121142456D01*
X181191812Y-121210376D01*
X181017741Y-121245000D01*
X180840259Y-121245000D01*
X180666188Y-121210376D01*
X180502216Y-121142456D01*
X180354646Y-121043853D01*
X180229147Y-120918354D01*
X180130544Y-120770784D01*
X180062624Y-120606812D01*
X180028000Y-120432741D01*
X180028000Y-120255259D01*
X180062624Y-120081188D01*
X180130544Y-119917216D01*
X180229147Y-119769646D01*
X180354646Y-119644147D01*
X180502216Y-119545544D01*
X180666188Y-119477624D01*
X180840259Y-119443000D01*
X181017741Y-119443000D01*
X181191812Y-119477624D01*
X181191812Y-119477624D01*
G37*
G36*
X166150677Y-119486465D02*
X166188364Y-119497898D01*
X166223103Y-119516466D01*
X166253548Y-119541452D01*
X166278534Y-119571897D01*
X166297102Y-119606636D01*
X166308535Y-119644323D01*
X166313000Y-119689661D01*
X166313000Y-120526339D01*
X166308535Y-120571677D01*
X166297102Y-120609364D01*
X166278534Y-120644103D01*
X166253548Y-120674548D01*
X166223103Y-120699534D01*
X166188364Y-120718102D01*
X166150677Y-120729535D01*
X166105339Y-120734000D01*
X165018661Y-120734000D01*
X164973323Y-120729535D01*
X164935636Y-120718102D01*
X164900897Y-120699534D01*
X164870452Y-120674548D01*
X164845466Y-120644103D01*
X164826898Y-120609364D01*
X164815465Y-120571677D01*
X164811000Y-120526339D01*
X164811000Y-119689661D01*
X164815465Y-119644323D01*
X164826898Y-119606636D01*
X164845466Y-119571897D01*
X164870452Y-119541452D01*
X164900897Y-119516466D01*
X164935636Y-119497898D01*
X164973323Y-119486465D01*
X165018661Y-119482000D01*
X166105339Y-119482000D01*
X166150677Y-119486465D01*
X166150677Y-119486465D01*
G37*
G36*
X153701000Y-120251000D02*
X151299000Y-120251000D01*
X151299000Y-117649000D01*
X153701000Y-117649000D01*
X153701000Y-120251000D01*
X153701000Y-120251000D01*
G37*
G36*
X178764734Y-117987232D02*
X178974202Y-118073996D01*
X179162723Y-118199962D01*
X179323038Y-118360277D01*
X179449004Y-118548798D01*
X179535768Y-118758266D01*
X179580000Y-118980635D01*
X179580000Y-119207365D01*
X179535768Y-119429734D01*
X179449004Y-119639202D01*
X179323038Y-119827723D01*
X179162723Y-119988038D01*
X178974202Y-120114004D01*
X178764734Y-120200768D01*
X178542365Y-120245000D01*
X178315635Y-120245000D01*
X178093266Y-120200768D01*
X177883798Y-120114004D01*
X177695277Y-119988038D01*
X177534962Y-119827723D01*
X177408996Y-119639202D01*
X177322232Y-119429734D01*
X177278000Y-119207365D01*
X177278000Y-118980635D01*
X177322232Y-118758266D01*
X177408996Y-118548798D01*
X177534962Y-118360277D01*
X177695277Y-118199962D01*
X177883798Y-118073996D01*
X178093266Y-117987232D01*
X178315635Y-117943000D01*
X178542365Y-117943000D01*
X178764734Y-117987232D01*
X178764734Y-117987232D01*
G37*
G36*
X161344000Y-119682000D02*
X157842000Y-119682000D01*
X157842000Y-118230000D01*
X161344000Y-118230000D01*
X161344000Y-119682000D01*
X161344000Y-119682000D01*
G37*
G36*
X163924562Y-118133681D02*
X163959477Y-118144273D01*
X163991665Y-118161478D01*
X164019873Y-118184627D01*
X164043022Y-118212835D01*
X164060227Y-118245023D01*
X164070819Y-118279938D01*
X164075000Y-118322395D01*
X164075000Y-119463605D01*
X164070819Y-119506062D01*
X164060227Y-119540977D01*
X164043022Y-119573165D01*
X164019873Y-119601373D01*
X163991665Y-119624522D01*
X163959477Y-119641727D01*
X163924562Y-119652319D01*
X163882105Y-119656500D01*
X162415895Y-119656500D01*
X162373438Y-119652319D01*
X162338523Y-119641727D01*
X162306335Y-119624522D01*
X162278127Y-119601373D01*
X162254978Y-119573165D01*
X162237773Y-119540977D01*
X162227181Y-119506062D01*
X162223000Y-119463605D01*
X162223000Y-118322395D01*
X162227181Y-118279938D01*
X162237773Y-118245023D01*
X162254978Y-118212835D01*
X162278127Y-118184627D01*
X162306335Y-118161478D01*
X162338523Y-118144273D01*
X162373438Y-118133681D01*
X162415895Y-118129500D01*
X163882105Y-118129500D01*
X163924562Y-118133681D01*
X163924562Y-118133681D01*
G37*
G36*
X169584000Y-119226000D02*
X167482000Y-119226000D01*
X167482000Y-117624000D01*
X169584000Y-117624000D01*
X169584000Y-119226000D01*
X169584000Y-119226000D01*
G37*
G36*
X166150677Y-117436465D02*
X166188364Y-117447898D01*
X166223103Y-117466466D01*
X166253548Y-117491452D01*
X166278534Y-117521897D01*
X166297102Y-117556636D01*
X166308535Y-117594323D01*
X166313000Y-117639661D01*
X166313000Y-118476339D01*
X166308535Y-118521677D01*
X166297102Y-118559364D01*
X166278534Y-118594103D01*
X166253548Y-118624548D01*
X166223103Y-118649534D01*
X166188364Y-118668102D01*
X166150677Y-118679535D01*
X166105339Y-118684000D01*
X165018661Y-118684000D01*
X164973323Y-118679535D01*
X164935636Y-118668102D01*
X164900897Y-118649534D01*
X164870452Y-118624548D01*
X164845466Y-118594103D01*
X164826898Y-118559364D01*
X164815465Y-118521677D01*
X164811000Y-118476339D01*
X164811000Y-117639661D01*
X164815465Y-117594323D01*
X164826898Y-117556636D01*
X164845466Y-117521897D01*
X164870452Y-117491452D01*
X164900897Y-117466466D01*
X164935636Y-117447898D01*
X164973323Y-117436465D01*
X165018661Y-117432000D01*
X166105339Y-117432000D01*
X166150677Y-117436465D01*
X166150677Y-117436465D01*
G37*
G36*
X181939228Y-114318703D02*
X182094100Y-114382853D01*
X182233481Y-114475985D01*
X182352015Y-114594519D01*
X182445147Y-114733900D01*
X182509297Y-114888772D01*
X182542000Y-115053184D01*
X182542000Y-115220816D01*
X182509297Y-115385228D01*
X182445147Y-115540100D01*
X182352015Y-115679481D01*
X182233481Y-115798015D01*
X182094100Y-115891147D01*
X181939228Y-115955297D01*
X181774816Y-115988000D01*
X181607184Y-115988000D01*
X181442772Y-115955297D01*
X181287900Y-115891147D01*
X181148519Y-115798015D01*
X181029985Y-115679481D01*
X180936853Y-115540100D01*
X180872703Y-115385228D01*
X180840000Y-115220816D01*
X180840000Y-115053184D01*
X180872703Y-114888772D01*
X180936853Y-114733900D01*
X181029985Y-114594519D01*
X181148519Y-114475985D01*
X181287900Y-114382853D01*
X181442772Y-114318703D01*
X181607184Y-114286000D01*
X181774816Y-114286000D01*
X181939228Y-114318703D01*
X181939228Y-114318703D01*
G37*
G36*
X148919228Y-114318703D02*
X149074100Y-114382853D01*
X149213481Y-114475985D01*
X149332015Y-114594519D01*
X149425147Y-114733900D01*
X149489297Y-114888772D01*
X149522000Y-115053184D01*
X149522000Y-115220816D01*
X149489297Y-115385228D01*
X149425147Y-115540100D01*
X149332015Y-115679481D01*
X149213481Y-115798015D01*
X149074100Y-115891147D01*
X148919228Y-115955297D01*
X148754816Y-115988000D01*
X148587184Y-115988000D01*
X148422772Y-115955297D01*
X148267900Y-115891147D01*
X148128519Y-115798015D01*
X148009985Y-115679481D01*
X147916853Y-115540100D01*
X147852703Y-115385228D01*
X147820000Y-115220816D01*
X147820000Y-115053184D01*
X147852703Y-114888772D01*
X147916853Y-114733900D01*
X148009985Y-114594519D01*
X148128519Y-114475985D01*
X148267900Y-114382853D01*
X148422772Y-114318703D01*
X148587184Y-114286000D01*
X148754816Y-114286000D01*
X148919228Y-114318703D01*
X148919228Y-114318703D01*
G37*
G36*
X151459228Y-114318703D02*
X151614100Y-114382853D01*
X151753481Y-114475985D01*
X151872015Y-114594519D01*
X151965147Y-114733900D01*
X152029297Y-114888772D01*
X152062000Y-115053184D01*
X152062000Y-115220816D01*
X152029297Y-115385228D01*
X151965147Y-115540100D01*
X151872015Y-115679481D01*
X151753481Y-115798015D01*
X151614100Y-115891147D01*
X151459228Y-115955297D01*
X151294816Y-115988000D01*
X151127184Y-115988000D01*
X150962772Y-115955297D01*
X150807900Y-115891147D01*
X150668519Y-115798015D01*
X150549985Y-115679481D01*
X150456853Y-115540100D01*
X150392703Y-115385228D01*
X150360000Y-115220816D01*
X150360000Y-115053184D01*
X150392703Y-114888772D01*
X150456853Y-114733900D01*
X150549985Y-114594519D01*
X150668519Y-114475985D01*
X150807900Y-114382853D01*
X150962772Y-114318703D01*
X151127184Y-114286000D01*
X151294816Y-114286000D01*
X151459228Y-114318703D01*
X151459228Y-114318703D01*
G37*
G36*
X153999228Y-114318703D02*
X154154100Y-114382853D01*
X154293481Y-114475985D01*
X154412015Y-114594519D01*
X154505147Y-114733900D01*
X154569297Y-114888772D01*
X154602000Y-115053184D01*
X154602000Y-115220816D01*
X154569297Y-115385228D01*
X154505147Y-115540100D01*
X154412015Y-115679481D01*
X154293481Y-115798015D01*
X154154100Y-115891147D01*
X153999228Y-115955297D01*
X153834816Y-115988000D01*
X153667184Y-115988000D01*
X153502772Y-115955297D01*
X153347900Y-115891147D01*
X153208519Y-115798015D01*
X153089985Y-115679481D01*
X152996853Y-115540100D01*
X152932703Y-115385228D01*
X152900000Y-115220816D01*
X152900000Y-115053184D01*
X152932703Y-114888772D01*
X152996853Y-114733900D01*
X153089985Y-114594519D01*
X153208519Y-114475985D01*
X153347900Y-114382853D01*
X153502772Y-114318703D01*
X153667184Y-114286000D01*
X153834816Y-114286000D01*
X153999228Y-114318703D01*
X153999228Y-114318703D01*
G37*
G36*
X156539228Y-114318703D02*
X156694100Y-114382853D01*
X156833481Y-114475985D01*
X156952015Y-114594519D01*
X157045147Y-114733900D01*
X157109297Y-114888772D01*
X157142000Y-115053184D01*
X157142000Y-115220816D01*
X157109297Y-115385228D01*
X157045147Y-115540100D01*
X156952015Y-115679481D01*
X156833481Y-115798015D01*
X156694100Y-115891147D01*
X156539228Y-115955297D01*
X156374816Y-115988000D01*
X156207184Y-115988000D01*
X156042772Y-115955297D01*
X155887900Y-115891147D01*
X155748519Y-115798015D01*
X155629985Y-115679481D01*
X155536853Y-115540100D01*
X155472703Y-115385228D01*
X155440000Y-115220816D01*
X155440000Y-115053184D01*
X155472703Y-114888772D01*
X155536853Y-114733900D01*
X155629985Y-114594519D01*
X155748519Y-114475985D01*
X155887900Y-114382853D01*
X156042772Y-114318703D01*
X156207184Y-114286000D01*
X156374816Y-114286000D01*
X156539228Y-114318703D01*
X156539228Y-114318703D01*
G37*
G36*
X159079228Y-114318703D02*
X159234100Y-114382853D01*
X159373481Y-114475985D01*
X159492015Y-114594519D01*
X159585147Y-114733900D01*
X159649297Y-114888772D01*
X159682000Y-115053184D01*
X159682000Y-115220816D01*
X159649297Y-115385228D01*
X159585147Y-115540100D01*
X159492015Y-115679481D01*
X159373481Y-115798015D01*
X159234100Y-115891147D01*
X159079228Y-115955297D01*
X158914816Y-115988000D01*
X158747184Y-115988000D01*
X158582772Y-115955297D01*
X158427900Y-115891147D01*
X158288519Y-115798015D01*
X158169985Y-115679481D01*
X158076853Y-115540100D01*
X158012703Y-115385228D01*
X157980000Y-115220816D01*
X157980000Y-115053184D01*
X158012703Y-114888772D01*
X158076853Y-114733900D01*
X158169985Y-114594519D01*
X158288519Y-114475985D01*
X158427900Y-114382853D01*
X158582772Y-114318703D01*
X158747184Y-114286000D01*
X158914816Y-114286000D01*
X159079228Y-114318703D01*
X159079228Y-114318703D01*
G37*
G36*
X161619228Y-114318703D02*
X161774100Y-114382853D01*
X161913481Y-114475985D01*
X162032015Y-114594519D01*
X162125147Y-114733900D01*
X162189297Y-114888772D01*
X162222000Y-115053184D01*
X162222000Y-115220816D01*
X162189297Y-115385228D01*
X162125147Y-115540100D01*
X162032015Y-115679481D01*
X161913481Y-115798015D01*
X161774100Y-115891147D01*
X161619228Y-115955297D01*
X161454816Y-115988000D01*
X161287184Y-115988000D01*
X161122772Y-115955297D01*
X160967900Y-115891147D01*
X160828519Y-115798015D01*
X160709985Y-115679481D01*
X160616853Y-115540100D01*
X160552703Y-115385228D01*
X160520000Y-115220816D01*
X160520000Y-115053184D01*
X160552703Y-114888772D01*
X160616853Y-114733900D01*
X160709985Y-114594519D01*
X160828519Y-114475985D01*
X160967900Y-114382853D01*
X161122772Y-114318703D01*
X161287184Y-114286000D01*
X161454816Y-114286000D01*
X161619228Y-114318703D01*
X161619228Y-114318703D01*
G37*
G36*
X164159228Y-114318703D02*
X164314100Y-114382853D01*
X164453481Y-114475985D01*
X164572015Y-114594519D01*
X164665147Y-114733900D01*
X164729297Y-114888772D01*
X164762000Y-115053184D01*
X164762000Y-115220816D01*
X164729297Y-115385228D01*
X164665147Y-115540100D01*
X164572015Y-115679481D01*
X164453481Y-115798015D01*
X164314100Y-115891147D01*
X164159228Y-115955297D01*
X163994816Y-115988000D01*
X163827184Y-115988000D01*
X163662772Y-115955297D01*
X163507900Y-115891147D01*
X163368519Y-115798015D01*
X163249985Y-115679481D01*
X163156853Y-115540100D01*
X163092703Y-115385228D01*
X163060000Y-115220816D01*
X163060000Y-115053184D01*
X163092703Y-114888772D01*
X163156853Y-114733900D01*
X163249985Y-114594519D01*
X163368519Y-114475985D01*
X163507900Y-114382853D01*
X163662772Y-114318703D01*
X163827184Y-114286000D01*
X163994816Y-114286000D01*
X164159228Y-114318703D01*
X164159228Y-114318703D01*
G37*
G36*
X166699228Y-114318703D02*
X166854100Y-114382853D01*
X166993481Y-114475985D01*
X167112015Y-114594519D01*
X167205147Y-114733900D01*
X167269297Y-114888772D01*
X167302000Y-115053184D01*
X167302000Y-115220816D01*
X167269297Y-115385228D01*
X167205147Y-115540100D01*
X167112015Y-115679481D01*
X166993481Y-115798015D01*
X166854100Y-115891147D01*
X166699228Y-115955297D01*
X166534816Y-115988000D01*
X166367184Y-115988000D01*
X166202772Y-115955297D01*
X166047900Y-115891147D01*
X165908519Y-115798015D01*
X165789985Y-115679481D01*
X165696853Y-115540100D01*
X165632703Y-115385228D01*
X165600000Y-115220816D01*
X165600000Y-115053184D01*
X165632703Y-114888772D01*
X165696853Y-114733900D01*
X165789985Y-114594519D01*
X165908519Y-114475985D01*
X166047900Y-114382853D01*
X166202772Y-114318703D01*
X166367184Y-114286000D01*
X166534816Y-114286000D01*
X166699228Y-114318703D01*
X166699228Y-114318703D01*
G37*
G36*
X169239228Y-114318703D02*
X169394100Y-114382853D01*
X169533481Y-114475985D01*
X169652015Y-114594519D01*
X169745147Y-114733900D01*
X169809297Y-114888772D01*
X169842000Y-115053184D01*
X169842000Y-115220816D01*
X169809297Y-115385228D01*
X169745147Y-115540100D01*
X169652015Y-115679481D01*
X169533481Y-115798015D01*
X169394100Y-115891147D01*
X169239228Y-115955297D01*
X169074816Y-115988000D01*
X168907184Y-115988000D01*
X168742772Y-115955297D01*
X168587900Y-115891147D01*
X168448519Y-115798015D01*
X168329985Y-115679481D01*
X168236853Y-115540100D01*
X168172703Y-115385228D01*
X168140000Y-115220816D01*
X168140000Y-115053184D01*
X168172703Y-114888772D01*
X168236853Y-114733900D01*
X168329985Y-114594519D01*
X168448519Y-114475985D01*
X168587900Y-114382853D01*
X168742772Y-114318703D01*
X168907184Y-114286000D01*
X169074816Y-114286000D01*
X169239228Y-114318703D01*
X169239228Y-114318703D01*
G37*
G36*
X171779228Y-114318703D02*
X171934100Y-114382853D01*
X172073481Y-114475985D01*
X172192015Y-114594519D01*
X172285147Y-114733900D01*
X172349297Y-114888772D01*
X172382000Y-115053184D01*
X172382000Y-115220816D01*
X172349297Y-115385228D01*
X172285147Y-115540100D01*
X172192015Y-115679481D01*
X172073481Y-115798015D01*
X171934100Y-115891147D01*
X171779228Y-115955297D01*
X171614816Y-115988000D01*
X171447184Y-115988000D01*
X171282772Y-115955297D01*
X171127900Y-115891147D01*
X170988519Y-115798015D01*
X170869985Y-115679481D01*
X170776853Y-115540100D01*
X170712703Y-115385228D01*
X170680000Y-115220816D01*
X170680000Y-115053184D01*
X170712703Y-114888772D01*
X170776853Y-114733900D01*
X170869985Y-114594519D01*
X170988519Y-114475985D01*
X171127900Y-114382853D01*
X171282772Y-114318703D01*
X171447184Y-114286000D01*
X171614816Y-114286000D01*
X171779228Y-114318703D01*
X171779228Y-114318703D01*
G37*
G36*
X174319228Y-114318703D02*
X174474100Y-114382853D01*
X174613481Y-114475985D01*
X174732015Y-114594519D01*
X174825147Y-114733900D01*
X174889297Y-114888772D01*
X174922000Y-115053184D01*
X174922000Y-115220816D01*
X174889297Y-115385228D01*
X174825147Y-115540100D01*
X174732015Y-115679481D01*
X174613481Y-115798015D01*
X174474100Y-115891147D01*
X174319228Y-115955297D01*
X174154816Y-115988000D01*
X173987184Y-115988000D01*
X173822772Y-115955297D01*
X173667900Y-115891147D01*
X173528519Y-115798015D01*
X173409985Y-115679481D01*
X173316853Y-115540100D01*
X173252703Y-115385228D01*
X173220000Y-115220816D01*
X173220000Y-115053184D01*
X173252703Y-114888772D01*
X173316853Y-114733900D01*
X173409985Y-114594519D01*
X173528519Y-114475985D01*
X173667900Y-114382853D01*
X173822772Y-114318703D01*
X173987184Y-114286000D01*
X174154816Y-114286000D01*
X174319228Y-114318703D01*
X174319228Y-114318703D01*
G37*
G36*
X176859228Y-114318703D02*
X177014100Y-114382853D01*
X177153481Y-114475985D01*
X177272015Y-114594519D01*
X177365147Y-114733900D01*
X177429297Y-114888772D01*
X177462000Y-115053184D01*
X177462000Y-115220816D01*
X177429297Y-115385228D01*
X177365147Y-115540100D01*
X177272015Y-115679481D01*
X177153481Y-115798015D01*
X177014100Y-115891147D01*
X176859228Y-115955297D01*
X176694816Y-115988000D01*
X176527184Y-115988000D01*
X176362772Y-115955297D01*
X176207900Y-115891147D01*
X176068519Y-115798015D01*
X175949985Y-115679481D01*
X175856853Y-115540100D01*
X175792703Y-115385228D01*
X175760000Y-115220816D01*
X175760000Y-115053184D01*
X175792703Y-114888772D01*
X175856853Y-114733900D01*
X175949985Y-114594519D01*
X176068519Y-114475985D01*
X176207900Y-114382853D01*
X176362772Y-114318703D01*
X176527184Y-114286000D01*
X176694816Y-114286000D01*
X176859228Y-114318703D01*
X176859228Y-114318703D01*
G37*
G36*
X179399228Y-114318703D02*
X179554100Y-114382853D01*
X179693481Y-114475985D01*
X179812015Y-114594519D01*
X179905147Y-114733900D01*
X179969297Y-114888772D01*
X180002000Y-115053184D01*
X180002000Y-115220816D01*
X179969297Y-115385228D01*
X179905147Y-115540100D01*
X179812015Y-115679481D01*
X179693481Y-115798015D01*
X179554100Y-115891147D01*
X179399228Y-115955297D01*
X179234816Y-115988000D01*
X179067184Y-115988000D01*
X178902772Y-115955297D01*
X178747900Y-115891147D01*
X178608519Y-115798015D01*
X178489985Y-115679481D01*
X178396853Y-115540100D01*
X178332703Y-115385228D01*
X178300000Y-115220816D01*
X178300000Y-115053184D01*
X178332703Y-114888772D01*
X178396853Y-114733900D01*
X178489985Y-114594519D01*
X178608519Y-114475985D01*
X178747900Y-114382853D01*
X178902772Y-114318703D01*
X179067184Y-114286000D01*
X179234816Y-114286000D01*
X179399228Y-114318703D01*
X179399228Y-114318703D01*
G37*
G36*
X148919228Y-111778703D02*
X149074100Y-111842853D01*
X149213481Y-111935985D01*
X149332015Y-112054519D01*
X149425147Y-112193900D01*
X149489297Y-112348772D01*
X149522000Y-112513184D01*
X149522000Y-112680816D01*
X149489297Y-112845228D01*
X149425147Y-113000100D01*
X149332015Y-113139481D01*
X149213481Y-113258015D01*
X149074100Y-113351147D01*
X148919228Y-113415297D01*
X148754816Y-113448000D01*
X148587184Y-113448000D01*
X148422772Y-113415297D01*
X148267900Y-113351147D01*
X148128519Y-113258015D01*
X148009985Y-113139481D01*
X147916853Y-113000100D01*
X147852703Y-112845228D01*
X147820000Y-112680816D01*
X147820000Y-112513184D01*
X147852703Y-112348772D01*
X147916853Y-112193900D01*
X148009985Y-112054519D01*
X148128519Y-111935985D01*
X148267900Y-111842853D01*
X148422772Y-111778703D01*
X148587184Y-111746000D01*
X148754816Y-111746000D01*
X148919228Y-111778703D01*
X148919228Y-111778703D01*
G37*
G36*
X179399228Y-111778703D02*
X179554100Y-111842853D01*
X179693481Y-111935985D01*
X179812015Y-112054519D01*
X179905147Y-112193900D01*
X179969297Y-112348772D01*
X180002000Y-112513184D01*
X180002000Y-112680816D01*
X179969297Y-112845228D01*
X179905147Y-113000100D01*
X179812015Y-113139481D01*
X179693481Y-113258015D01*
X179554100Y-113351147D01*
X179399228Y-113415297D01*
X179234816Y-113448000D01*
X179067184Y-113448000D01*
X178902772Y-113415297D01*
X178747900Y-113351147D01*
X178608519Y-113258015D01*
X178489985Y-113139481D01*
X178396853Y-113000100D01*
X178332703Y-112845228D01*
X178300000Y-112680816D01*
X178300000Y-112513184D01*
X178332703Y-112348772D01*
X178396853Y-112193900D01*
X178489985Y-112054519D01*
X178608519Y-111935985D01*
X178747900Y-111842853D01*
X178902772Y-111778703D01*
X179067184Y-111746000D01*
X179234816Y-111746000D01*
X179399228Y-111778703D01*
X179399228Y-111778703D01*
G37*
G36*
X182300431Y-111699569D02*
X182301000Y-111705339D01*
X182301000Y-112694657D01*
X182300431Y-112700431D01*
X182294657Y-112701000D01*
X181205343Y-112701000D01*
X181199569Y-112700431D01*
X181199000Y-112694657D01*
X181199000Y-111705339D01*
X181199569Y-111699569D01*
X181205343Y-111699000D01*
X182294657Y-111699000D01*
X182300431Y-111699569D01*
X182300431Y-111699569D01*
G37*
G36*
X169838677Y-111403465D02*
X169876364Y-111414898D01*
X169911103Y-111433466D01*
X169941548Y-111458452D01*
X169966534Y-111488897D01*
X169985102Y-111523636D01*
X169996535Y-111561323D01*
X170001000Y-111606661D01*
X170001000Y-112443339D01*
X169996535Y-112488677D01*
X169985102Y-112526364D01*
X169966534Y-112561103D01*
X169941548Y-112591548D01*
X169911103Y-112616534D01*
X169876364Y-112635102D01*
X169838677Y-112646535D01*
X169793339Y-112651000D01*
X168706661Y-112651000D01*
X168661323Y-112646535D01*
X168623636Y-112635102D01*
X168588897Y-112616534D01*
X168558452Y-112591548D01*
X168533466Y-112561103D01*
X168514898Y-112526364D01*
X168503465Y-112488677D01*
X168499000Y-112443339D01*
X168499000Y-111606661D01*
X168503465Y-111561323D01*
X168514898Y-111523636D01*
X168533466Y-111488897D01*
X168558452Y-111458452D01*
X168588897Y-111433466D01*
X168623636Y-111414898D01*
X168661323Y-111403465D01*
X168706661Y-111399000D01*
X169793339Y-111399000D01*
X169838677Y-111403465D01*
X169838677Y-111403465D01*
G37*
G36*
X174701000Y-112551000D02*
X172799000Y-112551000D01*
X172799000Y-109949000D01*
X174701000Y-109949000D01*
X174701000Y-112551000D01*
X174701000Y-112551000D01*
G37*
G36*
X132650443Y-110605519D02*
X132716627Y-110612037D01*
X132829853Y-110646384D01*
X132886467Y-110663557D01*
X132988347Y-110718014D01*
X133042991Y-110747222D01*
X133078729Y-110776552D01*
X133180186Y-110859814D01*
X133263448Y-110961271D01*
X133292778Y-110997009D01*
X133292779Y-110997011D01*
X133376443Y-111153533D01*
X133376443Y-111153534D01*
X133427963Y-111323373D01*
X133445359Y-111500000D01*
X133427963Y-111676627D01*
X133406919Y-111746000D01*
X133376443Y-111846467D01*
X133328594Y-111935985D01*
X133292778Y-112002991D01*
X133263448Y-112038729D01*
X133180186Y-112140186D01*
X133114734Y-112193900D01*
X133042991Y-112252778D01*
X133042989Y-112252779D01*
X132886467Y-112336443D01*
X132845823Y-112348772D01*
X132716627Y-112387963D01*
X132650443Y-112394481D01*
X132584260Y-112401000D01*
X132495740Y-112401000D01*
X132429557Y-112394481D01*
X132363373Y-112387963D01*
X132234177Y-112348772D01*
X132193533Y-112336443D01*
X132037011Y-112252779D01*
X132037009Y-112252778D01*
X131965266Y-112193900D01*
X131899814Y-112140186D01*
X131816552Y-112038729D01*
X131787222Y-112002991D01*
X131751406Y-111935985D01*
X131703557Y-111846467D01*
X131673081Y-111746000D01*
X131652037Y-111676627D01*
X131634641Y-111500000D01*
X131652037Y-111323373D01*
X131703557Y-111153534D01*
X131703557Y-111153533D01*
X131787221Y-110997011D01*
X131787222Y-110997009D01*
X131816552Y-110961271D01*
X131899814Y-110859814D01*
X132001271Y-110776552D01*
X132037009Y-110747222D01*
X132091653Y-110718014D01*
X132193533Y-110663557D01*
X132250147Y-110646384D01*
X132363373Y-110612037D01*
X132429557Y-110605519D01*
X132495740Y-110599000D01*
X132584260Y-110599000D01*
X132650443Y-110605519D01*
X132650443Y-110605519D01*
G37*
G36*
X130110443Y-110605519D02*
X130176627Y-110612037D01*
X130289853Y-110646384D01*
X130346467Y-110663557D01*
X130448347Y-110718014D01*
X130502991Y-110747222D01*
X130538729Y-110776552D01*
X130640186Y-110859814D01*
X130723448Y-110961271D01*
X130752778Y-110997009D01*
X130752779Y-110997011D01*
X130836443Y-111153533D01*
X130836443Y-111153534D01*
X130887963Y-111323373D01*
X130905359Y-111500000D01*
X130887963Y-111676627D01*
X130866919Y-111746000D01*
X130836443Y-111846467D01*
X130788594Y-111935985D01*
X130752778Y-112002991D01*
X130723448Y-112038729D01*
X130640186Y-112140186D01*
X130574734Y-112193900D01*
X130502991Y-112252778D01*
X130502989Y-112252779D01*
X130346467Y-112336443D01*
X130305823Y-112348772D01*
X130176627Y-112387963D01*
X130110443Y-112394481D01*
X130044260Y-112401000D01*
X129955740Y-112401000D01*
X129889557Y-112394481D01*
X129823373Y-112387963D01*
X129694177Y-112348772D01*
X129653533Y-112336443D01*
X129497011Y-112252779D01*
X129497009Y-112252778D01*
X129425266Y-112193900D01*
X129359814Y-112140186D01*
X129276552Y-112038729D01*
X129247222Y-112002991D01*
X129211406Y-111935985D01*
X129163557Y-111846467D01*
X129133081Y-111746000D01*
X129112037Y-111676627D01*
X129094641Y-111500000D01*
X129112037Y-111323373D01*
X129163557Y-111153534D01*
X129163557Y-111153533D01*
X129247221Y-110997011D01*
X129247222Y-110997009D01*
X129276552Y-110961271D01*
X129359814Y-110859814D01*
X129461271Y-110776552D01*
X129497009Y-110747222D01*
X129551653Y-110718014D01*
X129653533Y-110663557D01*
X129710147Y-110646384D01*
X129823373Y-110612037D01*
X129889557Y-110605519D01*
X129955740Y-110599000D01*
X130044260Y-110599000D01*
X130110443Y-110605519D01*
X130110443Y-110605519D01*
G37*
G36*
X125821000Y-112401000D02*
X124019000Y-112401000D01*
X124019000Y-110599000D01*
X125821000Y-110599000D01*
X125821000Y-112401000D01*
X125821000Y-112401000D01*
G37*
G36*
X127570443Y-110605519D02*
X127636627Y-110612037D01*
X127749853Y-110646384D01*
X127806467Y-110663557D01*
X127908347Y-110718014D01*
X127962991Y-110747222D01*
X127998729Y-110776552D01*
X128100186Y-110859814D01*
X128183448Y-110961271D01*
X128212778Y-110997009D01*
X128212779Y-110997011D01*
X128296443Y-111153533D01*
X128296443Y-111153534D01*
X128347963Y-111323373D01*
X128365359Y-111500000D01*
X128347963Y-111676627D01*
X128326919Y-111746000D01*
X128296443Y-111846467D01*
X128248594Y-111935985D01*
X128212778Y-112002991D01*
X128183448Y-112038729D01*
X128100186Y-112140186D01*
X128034734Y-112193900D01*
X127962991Y-112252778D01*
X127962989Y-112252779D01*
X127806467Y-112336443D01*
X127765823Y-112348772D01*
X127636627Y-112387963D01*
X127570443Y-112394481D01*
X127504260Y-112401000D01*
X127415740Y-112401000D01*
X127349557Y-112394481D01*
X127283373Y-112387963D01*
X127154177Y-112348772D01*
X127113533Y-112336443D01*
X126957011Y-112252779D01*
X126957009Y-112252778D01*
X126885266Y-112193900D01*
X126819814Y-112140186D01*
X126736552Y-112038729D01*
X126707222Y-112002991D01*
X126671406Y-111935985D01*
X126623557Y-111846467D01*
X126593081Y-111746000D01*
X126572037Y-111676627D01*
X126554641Y-111500000D01*
X126572037Y-111323373D01*
X126623557Y-111153534D01*
X126623557Y-111153533D01*
X126707221Y-110997011D01*
X126707222Y-110997009D01*
X126736552Y-110961271D01*
X126819814Y-110859814D01*
X126921271Y-110776552D01*
X126957009Y-110747222D01*
X127011653Y-110718014D01*
X127113533Y-110663557D01*
X127170147Y-110646384D01*
X127283373Y-110612037D01*
X127349557Y-110605519D01*
X127415740Y-110599000D01*
X127504260Y-110599000D01*
X127570443Y-110605519D01*
X127570443Y-110605519D01*
G37*
G36*
X148919228Y-109238703D02*
X149074100Y-109302853D01*
X149213481Y-109395985D01*
X149332015Y-109514519D01*
X149425147Y-109653900D01*
X149489297Y-109808772D01*
X149522000Y-109973184D01*
X149522000Y-110140816D01*
X149489297Y-110305228D01*
X149425147Y-110460100D01*
X149332015Y-110599481D01*
X149213481Y-110718015D01*
X149074100Y-110811147D01*
X148919228Y-110875297D01*
X148754816Y-110908000D01*
X148587184Y-110908000D01*
X148422772Y-110875297D01*
X148267900Y-110811147D01*
X148128519Y-110718015D01*
X148009985Y-110599481D01*
X147916853Y-110460100D01*
X147852703Y-110305228D01*
X147820000Y-110140816D01*
X147820000Y-109973184D01*
X147852703Y-109808772D01*
X147916853Y-109653900D01*
X148009985Y-109514519D01*
X148128519Y-109395985D01*
X148267900Y-109302853D01*
X148422772Y-109238703D01*
X148587184Y-109206000D01*
X148754816Y-109206000D01*
X148919228Y-109238703D01*
X148919228Y-109238703D01*
G37*
G36*
X169838677Y-109353465D02*
X169876364Y-109364898D01*
X169911103Y-109383466D01*
X169941548Y-109408452D01*
X169966534Y-109438897D01*
X169985102Y-109473636D01*
X169996535Y-109511323D01*
X170001000Y-109556661D01*
X170001000Y-110393339D01*
X169996535Y-110438677D01*
X169985102Y-110476364D01*
X169966534Y-110511103D01*
X169941548Y-110541548D01*
X169911103Y-110566534D01*
X169876364Y-110585102D01*
X169838677Y-110596535D01*
X169793339Y-110601000D01*
X168706661Y-110601000D01*
X168661323Y-110596535D01*
X168623636Y-110585102D01*
X168588897Y-110566534D01*
X168558452Y-110541548D01*
X168533466Y-110511103D01*
X168514898Y-110476364D01*
X168503465Y-110438677D01*
X168499000Y-110393339D01*
X168499000Y-109556661D01*
X168503465Y-109511323D01*
X168514898Y-109473636D01*
X168533466Y-109438897D01*
X168558452Y-109408452D01*
X168588897Y-109383466D01*
X168623636Y-109364898D01*
X168661323Y-109353465D01*
X168706661Y-109349000D01*
X169793339Y-109349000D01*
X169838677Y-109353465D01*
X169838677Y-109353465D01*
G37*
G36*
X182300431Y-109299569D02*
X182301000Y-109305339D01*
X182301000Y-110294657D01*
X182300431Y-110300431D01*
X182294657Y-110301000D01*
X181205343Y-110301000D01*
X181199569Y-110300431D01*
X181199000Y-110294657D01*
X181199000Y-109305339D01*
X181199569Y-109299569D01*
X181205343Y-109299000D01*
X182294657Y-109299000D01*
X182300431Y-109299569D01*
X182300431Y-109299569D01*
G37*
G36*
X130588677Y-107903465D02*
X130626364Y-107914898D01*
X130661103Y-107933466D01*
X130691548Y-107958452D01*
X130716534Y-107988897D01*
X130735102Y-108023636D01*
X130746535Y-108061323D01*
X130751000Y-108106661D01*
X130751000Y-108943339D01*
X130746535Y-108988677D01*
X130735102Y-109026364D01*
X130716534Y-109061103D01*
X130691548Y-109091548D01*
X130661103Y-109116534D01*
X130626364Y-109135102D01*
X130588677Y-109146535D01*
X130543339Y-109151000D01*
X129456661Y-109151000D01*
X129411323Y-109146535D01*
X129373636Y-109135102D01*
X129338897Y-109116534D01*
X129308452Y-109091548D01*
X129283466Y-109061103D01*
X129264898Y-109026364D01*
X129253465Y-108988677D01*
X129249000Y-108943339D01*
X129249000Y-108106661D01*
X129253465Y-108061323D01*
X129264898Y-108023636D01*
X129283466Y-107988897D01*
X129308452Y-107958452D01*
X129338897Y-107933466D01*
X129373636Y-107914898D01*
X129411323Y-107903465D01*
X129456661Y-107899000D01*
X130543339Y-107899000D01*
X130588677Y-107903465D01*
X130588677Y-107903465D01*
G37*
G36*
X133088677Y-107903465D02*
X133126364Y-107914898D01*
X133161103Y-107933466D01*
X133191548Y-107958452D01*
X133216534Y-107988897D01*
X133235102Y-108023636D01*
X133246535Y-108061323D01*
X133251000Y-108106661D01*
X133251000Y-108943339D01*
X133246535Y-108988677D01*
X133235102Y-109026364D01*
X133216534Y-109061103D01*
X133191548Y-109091548D01*
X133161103Y-109116534D01*
X133126364Y-109135102D01*
X133088677Y-109146535D01*
X133043339Y-109151000D01*
X131956661Y-109151000D01*
X131911323Y-109146535D01*
X131873636Y-109135102D01*
X131838897Y-109116534D01*
X131808452Y-109091548D01*
X131783466Y-109061103D01*
X131764898Y-109026364D01*
X131753465Y-108988677D01*
X131749000Y-108943339D01*
X131749000Y-108106661D01*
X131753465Y-108061323D01*
X131764898Y-108023636D01*
X131783466Y-107988897D01*
X131808452Y-107958452D01*
X131838897Y-107933466D01*
X131873636Y-107914898D01*
X131911323Y-107903465D01*
X131956661Y-107899000D01*
X133043339Y-107899000D01*
X133088677Y-107903465D01*
X133088677Y-107903465D01*
G37*
G36*
X182300431Y-107699569D02*
X182301000Y-107705339D01*
X182301000Y-108694657D01*
X182300431Y-108700431D01*
X182294657Y-108701000D01*
X181205343Y-108701000D01*
X181199569Y-108700431D01*
X181199000Y-108694657D01*
X181199000Y-107705339D01*
X181199569Y-107699569D01*
X181205343Y-107699000D01*
X182294657Y-107699000D01*
X182300431Y-107699569D01*
X182300431Y-107699569D01*
G37*
G36*
X174701000Y-108551000D02*
X172799000Y-108551000D01*
X172799000Y-105949000D01*
X174701000Y-105949000D01*
X174701000Y-108551000D01*
X174701000Y-108551000D01*
G37*
G36*
X148919228Y-106698703D02*
X149074100Y-106762853D01*
X149213481Y-106855985D01*
X149332015Y-106974519D01*
X149425147Y-107113900D01*
X149489297Y-107268772D01*
X149522000Y-107433184D01*
X149522000Y-107600816D01*
X149489297Y-107765228D01*
X149425147Y-107920100D01*
X149332015Y-108059481D01*
X149213481Y-108178015D01*
X149074100Y-108271147D01*
X148919228Y-108335297D01*
X148754816Y-108368000D01*
X148587184Y-108368000D01*
X148422772Y-108335297D01*
X148267900Y-108271147D01*
X148128519Y-108178015D01*
X148009985Y-108059481D01*
X147916853Y-107920100D01*
X147852703Y-107765228D01*
X147820000Y-107600816D01*
X147820000Y-107433184D01*
X147852703Y-107268772D01*
X147916853Y-107113900D01*
X148009985Y-106974519D01*
X148128519Y-106855985D01*
X148267900Y-106762853D01*
X148422772Y-106698703D01*
X148587184Y-106666000D01*
X148754816Y-106666000D01*
X148919228Y-106698703D01*
X148919228Y-106698703D01*
G37*
G36*
X130588677Y-105853465D02*
X130626364Y-105864898D01*
X130661103Y-105883466D01*
X130691548Y-105908452D01*
X130716534Y-105938897D01*
X130735102Y-105973636D01*
X130746535Y-106011323D01*
X130751000Y-106056661D01*
X130751000Y-106893339D01*
X130746535Y-106938677D01*
X130735102Y-106976364D01*
X130716534Y-107011103D01*
X130691548Y-107041548D01*
X130661103Y-107066534D01*
X130626364Y-107085102D01*
X130588677Y-107096535D01*
X130543339Y-107101000D01*
X129456661Y-107101000D01*
X129411323Y-107096535D01*
X129373636Y-107085102D01*
X129338897Y-107066534D01*
X129308452Y-107041548D01*
X129283466Y-107011103D01*
X129264898Y-106976364D01*
X129253465Y-106938677D01*
X129249000Y-106893339D01*
X129249000Y-106056661D01*
X129253465Y-106011323D01*
X129264898Y-105973636D01*
X129283466Y-105938897D01*
X129308452Y-105908452D01*
X129338897Y-105883466D01*
X129373636Y-105864898D01*
X129411323Y-105853465D01*
X129456661Y-105849000D01*
X130543339Y-105849000D01*
X130588677Y-105853465D01*
X130588677Y-105853465D01*
G37*
G36*
X133088677Y-105853465D02*
X133126364Y-105864898D01*
X133161103Y-105883466D01*
X133191548Y-105908452D01*
X133216534Y-105938897D01*
X133235102Y-105973636D01*
X133246535Y-106011323D01*
X133251000Y-106056661D01*
X133251000Y-106893339D01*
X133246535Y-106938677D01*
X133235102Y-106976364D01*
X133216534Y-107011103D01*
X133191548Y-107041548D01*
X133161103Y-107066534D01*
X133126364Y-107085102D01*
X133088677Y-107096535D01*
X133043339Y-107101000D01*
X131956661Y-107101000D01*
X131911323Y-107096535D01*
X131873636Y-107085102D01*
X131838897Y-107066534D01*
X131808452Y-107041548D01*
X131783466Y-107011103D01*
X131764898Y-106976364D01*
X131753465Y-106938677D01*
X131749000Y-106893339D01*
X131749000Y-106056661D01*
X131753465Y-106011323D01*
X131764898Y-105973636D01*
X131783466Y-105938897D01*
X131808452Y-105908452D01*
X131838897Y-105883466D01*
X131873636Y-105864898D01*
X131911323Y-105853465D01*
X131956661Y-105849000D01*
X133043339Y-105849000D01*
X133088677Y-105853465D01*
X133088677Y-105853465D01*
G37*
G36*
X180238677Y-105253465D02*
X180276364Y-105264898D01*
X180311103Y-105283466D01*
X180341548Y-105308452D01*
X180366534Y-105338897D01*
X180385102Y-105373636D01*
X180396535Y-105411323D01*
X180401000Y-105456661D01*
X180401000Y-106543339D01*
X180396535Y-106588677D01*
X180385102Y-106626364D01*
X180366534Y-106661103D01*
X180341548Y-106691548D01*
X180311103Y-106716534D01*
X180276364Y-106735102D01*
X180238677Y-106746535D01*
X180193339Y-106751000D01*
X179356661Y-106751000D01*
X179311323Y-106746535D01*
X179273636Y-106735102D01*
X179238897Y-106716534D01*
X179208452Y-106691548D01*
X179183466Y-106661103D01*
X179164898Y-106626364D01*
X179153465Y-106588677D01*
X179149000Y-106543339D01*
X179149000Y-105456661D01*
X179153465Y-105411323D01*
X179164898Y-105373636D01*
X179183466Y-105338897D01*
X179208452Y-105308452D01*
X179238897Y-105283466D01*
X179273636Y-105264898D01*
X179311323Y-105253465D01*
X179356661Y-105249000D01*
X180193339Y-105249000D01*
X180238677Y-105253465D01*
X180238677Y-105253465D01*
G37*
G36*
X178188677Y-105253465D02*
X178226364Y-105264898D01*
X178261103Y-105283466D01*
X178291548Y-105308452D01*
X178316534Y-105338897D01*
X178335102Y-105373636D01*
X178346535Y-105411323D01*
X178351000Y-105456661D01*
X178351000Y-106543339D01*
X178346535Y-106588677D01*
X178335102Y-106626364D01*
X178316534Y-106661103D01*
X178291548Y-106691548D01*
X178261103Y-106716534D01*
X178226364Y-106735102D01*
X178188677Y-106746535D01*
X178143339Y-106751000D01*
X177306661Y-106751000D01*
X177261323Y-106746535D01*
X177223636Y-106735102D01*
X177188897Y-106716534D01*
X177158452Y-106691548D01*
X177133466Y-106661103D01*
X177114898Y-106626364D01*
X177103465Y-106588677D01*
X177099000Y-106543339D01*
X177099000Y-105456661D01*
X177103465Y-105411323D01*
X177114898Y-105373636D01*
X177133466Y-105338897D01*
X177158452Y-105308452D01*
X177188897Y-105283466D01*
X177223636Y-105264898D01*
X177261323Y-105253465D01*
X177306661Y-105249000D01*
X178143339Y-105249000D01*
X178188677Y-105253465D01*
X178188677Y-105253465D01*
G37*
G36*
X182300431Y-105299569D02*
X182301000Y-105305339D01*
X182301000Y-106294657D01*
X182300431Y-106300431D01*
X182294657Y-106301000D01*
X181205343Y-106301000D01*
X181199569Y-106300431D01*
X181199000Y-106294657D01*
X181199000Y-105305339D01*
X181199569Y-105299569D01*
X181205343Y-105299000D01*
X182294657Y-105299000D01*
X182300431Y-105299569D01*
X182300431Y-105299569D01*
G37*
G36*
X148919228Y-104158703D02*
X149074100Y-104222853D01*
X149213481Y-104315985D01*
X149332015Y-104434519D01*
X149425147Y-104573900D01*
X149489297Y-104728772D01*
X149522000Y-104893184D01*
X149522000Y-105060816D01*
X149489297Y-105225228D01*
X149425147Y-105380100D01*
X149332015Y-105519481D01*
X149213481Y-105638015D01*
X149074100Y-105731147D01*
X148919228Y-105795297D01*
X148754816Y-105828000D01*
X148587184Y-105828000D01*
X148422772Y-105795297D01*
X148267900Y-105731147D01*
X148128519Y-105638015D01*
X148009985Y-105519481D01*
X147916853Y-105380100D01*
X147852703Y-105225228D01*
X147820000Y-105060816D01*
X147820000Y-104893184D01*
X147852703Y-104728772D01*
X147916853Y-104573900D01*
X148009985Y-104434519D01*
X148128519Y-104315985D01*
X148267900Y-104222853D01*
X148422772Y-104158703D01*
X148587184Y-104126000D01*
X148754816Y-104126000D01*
X148919228Y-104158703D01*
X148919228Y-104158703D01*
G37*
G36*
X175238677Y-103753465D02*
X175276364Y-103764898D01*
X175311103Y-103783466D01*
X175341548Y-103808452D01*
X175366534Y-103838897D01*
X175385102Y-103873636D01*
X175396535Y-103911323D01*
X175401000Y-103956661D01*
X175401000Y-105043339D01*
X175396535Y-105088677D01*
X175385102Y-105126364D01*
X175366534Y-105161103D01*
X175341548Y-105191548D01*
X175311103Y-105216534D01*
X175276364Y-105235102D01*
X175238677Y-105246535D01*
X175193339Y-105251000D01*
X174356661Y-105251000D01*
X174311323Y-105246535D01*
X174273636Y-105235102D01*
X174238897Y-105216534D01*
X174208452Y-105191548D01*
X174183466Y-105161103D01*
X174164898Y-105126364D01*
X174153465Y-105088677D01*
X174149000Y-105043339D01*
X174149000Y-103956661D01*
X174153465Y-103911323D01*
X174164898Y-103873636D01*
X174183466Y-103838897D01*
X174208452Y-103808452D01*
X174238897Y-103783466D01*
X174273636Y-103764898D01*
X174311323Y-103753465D01*
X174356661Y-103749000D01*
X175193339Y-103749000D01*
X175238677Y-103753465D01*
X175238677Y-103753465D01*
G37*
G36*
X173188677Y-103753465D02*
X173226364Y-103764898D01*
X173261103Y-103783466D01*
X173291548Y-103808452D01*
X173316534Y-103838897D01*
X173335102Y-103873636D01*
X173346535Y-103911323D01*
X173351000Y-103956661D01*
X173351000Y-105043339D01*
X173346535Y-105088677D01*
X173335102Y-105126364D01*
X173316534Y-105161103D01*
X173291548Y-105191548D01*
X173261103Y-105216534D01*
X173226364Y-105235102D01*
X173188677Y-105246535D01*
X173143339Y-105251000D01*
X172306661Y-105251000D01*
X172261323Y-105246535D01*
X172223636Y-105235102D01*
X172188897Y-105216534D01*
X172158452Y-105191548D01*
X172133466Y-105161103D01*
X172114898Y-105126364D01*
X172103465Y-105088677D01*
X172099000Y-105043339D01*
X172099000Y-103956661D01*
X172103465Y-103911323D01*
X172114898Y-103873636D01*
X172133466Y-103838897D01*
X172158452Y-103808452D01*
X172188897Y-103783466D01*
X172223636Y-103764898D01*
X172261323Y-103753465D01*
X172306661Y-103749000D01*
X173143339Y-103749000D01*
X173188677Y-103753465D01*
X173188677Y-103753465D01*
G37*
G36*
X182300431Y-103699569D02*
X182301000Y-103705339D01*
X182301000Y-104694657D01*
X182300431Y-104700431D01*
X182294657Y-104701000D01*
X181205343Y-104701000D01*
X181199569Y-104700431D01*
X181199000Y-104694657D01*
X181199000Y-103705339D01*
X181199569Y-103699569D01*
X181205343Y-103699000D01*
X182294657Y-103699000D01*
X182300431Y-103699569D01*
X182300431Y-103699569D01*
G37*
G36*
X127271000Y-104051000D02*
X126569000Y-104051000D01*
X126569000Y-101949000D01*
X127271000Y-101949000D01*
X127271000Y-104051000D01*
X127271000Y-104051000D01*
G37*
G36*
X133271000Y-104051000D02*
X132569000Y-104051000D01*
X132569000Y-101949000D01*
X133271000Y-101949000D01*
X133271000Y-104051000D01*
X133271000Y-104051000D01*
G37*
G36*
X129271000Y-104051000D02*
X128569000Y-104051000D01*
X128569000Y-101949000D01*
X129271000Y-101949000D01*
X129271000Y-104051000D01*
X129271000Y-104051000D01*
G37*
G36*
X131271000Y-104051000D02*
X130569000Y-104051000D01*
X130569000Y-101949000D01*
X131271000Y-101949000D01*
X131271000Y-104051000D01*
X131271000Y-104051000D01*
G37*
G36*
X141271000Y-104051000D02*
X140569000Y-104051000D01*
X140569000Y-101949000D01*
X141271000Y-101949000D01*
X141271000Y-104051000D01*
X141271000Y-104051000D01*
G37*
G36*
X132271000Y-104051000D02*
X131569000Y-104051000D01*
X131569000Y-101949000D01*
X132271000Y-101949000D01*
X132271000Y-104051000D01*
X132271000Y-104051000D01*
G37*
G36*
X130271000Y-104051000D02*
X129569000Y-104051000D01*
X129569000Y-101949000D01*
X130271000Y-101949000D01*
X130271000Y-104051000D01*
X130271000Y-104051000D01*
G37*
G36*
X135271000Y-104051000D02*
X134569000Y-104051000D01*
X134569000Y-101949000D01*
X135271000Y-101949000D01*
X135271000Y-104051000D01*
X135271000Y-104051000D01*
G37*
G36*
X137271000Y-104051000D02*
X136569000Y-104051000D01*
X136569000Y-101949000D01*
X137271000Y-101949000D01*
X137271000Y-104051000D01*
X137271000Y-104051000D01*
G37*
G36*
X138271000Y-104051000D02*
X137569000Y-104051000D01*
X137569000Y-101949000D01*
X138271000Y-101949000D01*
X138271000Y-104051000D01*
X138271000Y-104051000D01*
G37*
G36*
X139271000Y-104051000D02*
X138569000Y-104051000D01*
X138569000Y-101949000D01*
X139271000Y-101949000D01*
X139271000Y-104051000D01*
X139271000Y-104051000D01*
G37*
G36*
X140271000Y-104051000D02*
X139569000Y-104051000D01*
X139569000Y-101949000D01*
X140271000Y-101949000D01*
X140271000Y-104051000D01*
X140271000Y-104051000D01*
G37*
G36*
X128271000Y-104051000D02*
X127569000Y-104051000D01*
X127569000Y-101949000D01*
X128271000Y-101949000D01*
X128271000Y-104051000D01*
X128271000Y-104051000D01*
G37*
G36*
X126271000Y-104051000D02*
X125569000Y-104051000D01*
X125569000Y-101949000D01*
X126271000Y-101949000D01*
X126271000Y-104051000D01*
X126271000Y-104051000D01*
G37*
G36*
X142271000Y-104051000D02*
X141569000Y-104051000D01*
X141569000Y-102199000D01*
X142271000Y-102199000D01*
X142271000Y-104051000D01*
X142271000Y-104051000D01*
G37*
G36*
X136271000Y-104051000D02*
X135569000Y-104051000D01*
X135569000Y-101949000D01*
X136271000Y-101949000D01*
X136271000Y-104051000D01*
X136271000Y-104051000D01*
G37*
G36*
X134271000Y-104051000D02*
X133569000Y-104051000D01*
X133569000Y-101949000D01*
X134271000Y-101949000D01*
X134271000Y-104051000D01*
X134271000Y-104051000D01*
G37*
G36*
X148919228Y-101618703D02*
X149074100Y-101682853D01*
X149213481Y-101775985D01*
X149332015Y-101894519D01*
X149425147Y-102033900D01*
X149489297Y-102188772D01*
X149522000Y-102353184D01*
X149522000Y-102520816D01*
X149489297Y-102685228D01*
X149425147Y-102840100D01*
X149332015Y-102979481D01*
X149213481Y-103098015D01*
X149074100Y-103191147D01*
X148919228Y-103255297D01*
X148754816Y-103288000D01*
X148587184Y-103288000D01*
X148422772Y-103255297D01*
X148267900Y-103191147D01*
X148128519Y-103098015D01*
X148009985Y-102979481D01*
X147916853Y-102840100D01*
X147852703Y-102685228D01*
X147820000Y-102520816D01*
X147820000Y-102353184D01*
X147852703Y-102188772D01*
X147916853Y-102033900D01*
X148009985Y-101894519D01*
X148128519Y-101775985D01*
X148267900Y-101682853D01*
X148422772Y-101618703D01*
X148587184Y-101586000D01*
X148754816Y-101586000D01*
X148919228Y-101618703D01*
X148919228Y-101618703D01*
G37*
G36*
X180238677Y-101503465D02*
X180276364Y-101514898D01*
X180311103Y-101533466D01*
X180341548Y-101558452D01*
X180366534Y-101588897D01*
X180385102Y-101623636D01*
X180396535Y-101661323D01*
X180401000Y-101706661D01*
X180401000Y-102793339D01*
X180396535Y-102838677D01*
X180385102Y-102876364D01*
X180366534Y-102911103D01*
X180341548Y-102941548D01*
X180311103Y-102966534D01*
X180276364Y-102985102D01*
X180238677Y-102996535D01*
X180193339Y-103001000D01*
X179356661Y-103001000D01*
X179311323Y-102996535D01*
X179273636Y-102985102D01*
X179238897Y-102966534D01*
X179208452Y-102941548D01*
X179183466Y-102911103D01*
X179164898Y-102876364D01*
X179153465Y-102838677D01*
X179149000Y-102793339D01*
X179149000Y-101706661D01*
X179153465Y-101661323D01*
X179164898Y-101623636D01*
X179183466Y-101588897D01*
X179208452Y-101558452D01*
X179238897Y-101533466D01*
X179273636Y-101514898D01*
X179311323Y-101503465D01*
X179356661Y-101499000D01*
X180193339Y-101499000D01*
X180238677Y-101503465D01*
X180238677Y-101503465D01*
G37*
G36*
X178188677Y-101503465D02*
X178226364Y-101514898D01*
X178261103Y-101533466D01*
X178291548Y-101558452D01*
X178316534Y-101588897D01*
X178335102Y-101623636D01*
X178346535Y-101661323D01*
X178351000Y-101706661D01*
X178351000Y-102793339D01*
X178346535Y-102838677D01*
X178335102Y-102876364D01*
X178316534Y-102911103D01*
X178291548Y-102941548D01*
X178261103Y-102966534D01*
X178226364Y-102985102D01*
X178188677Y-102996535D01*
X178143339Y-103001000D01*
X177306661Y-103001000D01*
X177261323Y-102996535D01*
X177223636Y-102985102D01*
X177188897Y-102966534D01*
X177158452Y-102941548D01*
X177133466Y-102911103D01*
X177114898Y-102876364D01*
X177103465Y-102838677D01*
X177099000Y-102793339D01*
X177099000Y-101706661D01*
X177103465Y-101661323D01*
X177114898Y-101623636D01*
X177133466Y-101588897D01*
X177158452Y-101558452D01*
X177188897Y-101533466D01*
X177223636Y-101514898D01*
X177261323Y-101503465D01*
X177306661Y-101499000D01*
X178143339Y-101499000D01*
X178188677Y-101503465D01*
X178188677Y-101503465D01*
G37*
G36*
X182300431Y-101299569D02*
X182301000Y-101305339D01*
X182301000Y-102294657D01*
X182300431Y-102300431D01*
X182294657Y-102301000D01*
X181205343Y-102301000D01*
X181199569Y-102300431D01*
X181199000Y-102294657D01*
X181199000Y-101305339D01*
X181199569Y-101299569D01*
X181205343Y-101299000D01*
X182294657Y-101299000D01*
X182300431Y-101299569D01*
X182300431Y-101299569D01*
G37*
G36*
X144301000Y-101901000D02*
X142449000Y-101901000D01*
X142449000Y-101199000D01*
X144301000Y-101199000D01*
X144301000Y-101901000D01*
X144301000Y-101901000D01*
G37*
G36*
X144301000Y-100901000D02*
X142199000Y-100901000D01*
X142199000Y-100199000D01*
X144301000Y-100199000D01*
X144301000Y-100901000D01*
X144301000Y-100901000D01*
G37*
G36*
X166699228Y-99078703D02*
X166854100Y-99142853D01*
X166993481Y-99235985D01*
X167112015Y-99354519D01*
X167205147Y-99493900D01*
X167269297Y-99648772D01*
X167302000Y-99813184D01*
X167302000Y-99980816D01*
X167269297Y-100145228D01*
X167205147Y-100300100D01*
X167112015Y-100439481D01*
X166993481Y-100558015D01*
X166854100Y-100651147D01*
X166699228Y-100715297D01*
X166534816Y-100748000D01*
X166367184Y-100748000D01*
X166202772Y-100715297D01*
X166047900Y-100651147D01*
X165908519Y-100558015D01*
X165789985Y-100439481D01*
X165696853Y-100300100D01*
X165632703Y-100145228D01*
X165600000Y-99980816D01*
X165600000Y-99813184D01*
X165632703Y-99648772D01*
X165696853Y-99493900D01*
X165789985Y-99354519D01*
X165908519Y-99235985D01*
X166047900Y-99142853D01*
X166202772Y-99078703D01*
X166367184Y-99046000D01*
X166534816Y-99046000D01*
X166699228Y-99078703D01*
X166699228Y-99078703D01*
G37*
G36*
X169239228Y-99078703D02*
X169394100Y-99142853D01*
X169533481Y-99235985D01*
X169652015Y-99354519D01*
X169745147Y-99493900D01*
X169809297Y-99648772D01*
X169842000Y-99813184D01*
X169842000Y-99980816D01*
X169809297Y-100145228D01*
X169745147Y-100300100D01*
X169652015Y-100439481D01*
X169533481Y-100558015D01*
X169394100Y-100651147D01*
X169239228Y-100715297D01*
X169074816Y-100748000D01*
X168907184Y-100748000D01*
X168742772Y-100715297D01*
X168587900Y-100651147D01*
X168448519Y-100558015D01*
X168329985Y-100439481D01*
X168236853Y-100300100D01*
X168172703Y-100145228D01*
X168140000Y-99980816D01*
X168140000Y-99813184D01*
X168172703Y-99648772D01*
X168236853Y-99493900D01*
X168329985Y-99354519D01*
X168448519Y-99235985D01*
X168587900Y-99142853D01*
X168742772Y-99078703D01*
X168907184Y-99046000D01*
X169074816Y-99046000D01*
X169239228Y-99078703D01*
X169239228Y-99078703D01*
G37*
G36*
X164159228Y-99078703D02*
X164314100Y-99142853D01*
X164453481Y-99235985D01*
X164572015Y-99354519D01*
X164665147Y-99493900D01*
X164729297Y-99648772D01*
X164762000Y-99813184D01*
X164762000Y-99980816D01*
X164729297Y-100145228D01*
X164665147Y-100300100D01*
X164572015Y-100439481D01*
X164453481Y-100558015D01*
X164314100Y-100651147D01*
X164159228Y-100715297D01*
X163994816Y-100748000D01*
X163827184Y-100748000D01*
X163662772Y-100715297D01*
X163507900Y-100651147D01*
X163368519Y-100558015D01*
X163249985Y-100439481D01*
X163156853Y-100300100D01*
X163092703Y-100145228D01*
X163060000Y-99980816D01*
X163060000Y-99813184D01*
X163092703Y-99648772D01*
X163156853Y-99493900D01*
X163249985Y-99354519D01*
X163368519Y-99235985D01*
X163507900Y-99142853D01*
X163662772Y-99078703D01*
X163827184Y-99046000D01*
X163994816Y-99046000D01*
X164159228Y-99078703D01*
X164159228Y-99078703D01*
G37*
G36*
X174319228Y-99078703D02*
X174474100Y-99142853D01*
X174613481Y-99235985D01*
X174732015Y-99354519D01*
X174825147Y-99493900D01*
X174889297Y-99648772D01*
X174922000Y-99813184D01*
X174922000Y-99980816D01*
X174889297Y-100145228D01*
X174825147Y-100300100D01*
X174732015Y-100439481D01*
X174613481Y-100558015D01*
X174474100Y-100651147D01*
X174319228Y-100715297D01*
X174154816Y-100748000D01*
X173987184Y-100748000D01*
X173822772Y-100715297D01*
X173667900Y-100651147D01*
X173528519Y-100558015D01*
X173409985Y-100439481D01*
X173316853Y-100300100D01*
X173252703Y-100145228D01*
X173220000Y-99980816D01*
X173220000Y-99813184D01*
X173252703Y-99648772D01*
X173316853Y-99493900D01*
X173409985Y-99354519D01*
X173528519Y-99235985D01*
X173667900Y-99142853D01*
X173822772Y-99078703D01*
X173987184Y-99046000D01*
X174154816Y-99046000D01*
X174319228Y-99078703D01*
X174319228Y-99078703D01*
G37*
G36*
X176859228Y-99078703D02*
X177014100Y-99142853D01*
X177153481Y-99235985D01*
X177272015Y-99354519D01*
X177365147Y-99493900D01*
X177429297Y-99648772D01*
X177462000Y-99813184D01*
X177462000Y-99980816D01*
X177429297Y-100145228D01*
X177365147Y-100300100D01*
X177272015Y-100439481D01*
X177153481Y-100558015D01*
X177014100Y-100651147D01*
X176859228Y-100715297D01*
X176694816Y-100748000D01*
X176527184Y-100748000D01*
X176362772Y-100715297D01*
X176207900Y-100651147D01*
X176068519Y-100558015D01*
X175949985Y-100439481D01*
X175856853Y-100300100D01*
X175792703Y-100145228D01*
X175760000Y-99980816D01*
X175760000Y-99813184D01*
X175792703Y-99648772D01*
X175856853Y-99493900D01*
X175949985Y-99354519D01*
X176068519Y-99235985D01*
X176207900Y-99142853D01*
X176362772Y-99078703D01*
X176527184Y-99046000D01*
X176694816Y-99046000D01*
X176859228Y-99078703D01*
X176859228Y-99078703D01*
G37*
G36*
X179399228Y-99078703D02*
X179554100Y-99142853D01*
X179693481Y-99235985D01*
X179812015Y-99354519D01*
X179905147Y-99493900D01*
X179969297Y-99648772D01*
X180002000Y-99813184D01*
X180002000Y-99980816D01*
X179969297Y-100145228D01*
X179905147Y-100300100D01*
X179812015Y-100439481D01*
X179693481Y-100558015D01*
X179554100Y-100651147D01*
X179399228Y-100715297D01*
X179234816Y-100748000D01*
X179067184Y-100748000D01*
X178902772Y-100715297D01*
X178747900Y-100651147D01*
X178608519Y-100558015D01*
X178489985Y-100439481D01*
X178396853Y-100300100D01*
X178332703Y-100145228D01*
X178300000Y-99980816D01*
X178300000Y-99813184D01*
X178332703Y-99648772D01*
X178396853Y-99493900D01*
X178489985Y-99354519D01*
X178608519Y-99235985D01*
X178747900Y-99142853D01*
X178902772Y-99078703D01*
X179067184Y-99046000D01*
X179234816Y-99046000D01*
X179399228Y-99078703D01*
X179399228Y-99078703D01*
G37*
G36*
X171779228Y-99078703D02*
X171934100Y-99142853D01*
X172073481Y-99235985D01*
X172192015Y-99354519D01*
X172285147Y-99493900D01*
X172349297Y-99648772D01*
X172382000Y-99813184D01*
X172382000Y-99980816D01*
X172349297Y-100145228D01*
X172285147Y-100300100D01*
X172192015Y-100439481D01*
X172073481Y-100558015D01*
X171934100Y-100651147D01*
X171779228Y-100715297D01*
X171614816Y-100748000D01*
X171447184Y-100748000D01*
X171282772Y-100715297D01*
X171127900Y-100651147D01*
X170988519Y-100558015D01*
X170869985Y-100439481D01*
X170776853Y-100300100D01*
X170712703Y-100145228D01*
X170680000Y-99980816D01*
X170680000Y-99813184D01*
X170712703Y-99648772D01*
X170776853Y-99493900D01*
X170869985Y-99354519D01*
X170988519Y-99235985D01*
X171127900Y-99142853D01*
X171282772Y-99078703D01*
X171447184Y-99046000D01*
X171614816Y-99046000D01*
X171779228Y-99078703D01*
X171779228Y-99078703D01*
G37*
G36*
X159079228Y-99078703D02*
X159234100Y-99142853D01*
X159373481Y-99235985D01*
X159492015Y-99354519D01*
X159585147Y-99493900D01*
X159649297Y-99648772D01*
X159682000Y-99813184D01*
X159682000Y-99980816D01*
X159649297Y-100145228D01*
X159585147Y-100300100D01*
X159492015Y-100439481D01*
X159373481Y-100558015D01*
X159234100Y-100651147D01*
X159079228Y-100715297D01*
X158914816Y-100748000D01*
X158747184Y-100748000D01*
X158582772Y-100715297D01*
X158427900Y-100651147D01*
X158288519Y-100558015D01*
X158169985Y-100439481D01*
X158076853Y-100300100D01*
X158012703Y-100145228D01*
X157980000Y-99980816D01*
X157980000Y-99813184D01*
X158012703Y-99648772D01*
X158076853Y-99493900D01*
X158169985Y-99354519D01*
X158288519Y-99235985D01*
X158427900Y-99142853D01*
X158582772Y-99078703D01*
X158747184Y-99046000D01*
X158914816Y-99046000D01*
X159079228Y-99078703D01*
X159079228Y-99078703D01*
G37*
G36*
X156539228Y-99078703D02*
X156694100Y-99142853D01*
X156833481Y-99235985D01*
X156952015Y-99354519D01*
X157045147Y-99493900D01*
X157109297Y-99648772D01*
X157142000Y-99813184D01*
X157142000Y-99980816D01*
X157109297Y-100145228D01*
X157045147Y-100300100D01*
X156952015Y-100439481D01*
X156833481Y-100558015D01*
X156694100Y-100651147D01*
X156539228Y-100715297D01*
X156374816Y-100748000D01*
X156207184Y-100748000D01*
X156042772Y-100715297D01*
X155887900Y-100651147D01*
X155748519Y-100558015D01*
X155629985Y-100439481D01*
X155536853Y-100300100D01*
X155472703Y-100145228D01*
X155440000Y-99980816D01*
X155440000Y-99813184D01*
X155472703Y-99648772D01*
X155536853Y-99493900D01*
X155629985Y-99354519D01*
X155748519Y-99235985D01*
X155887900Y-99142853D01*
X156042772Y-99078703D01*
X156207184Y-99046000D01*
X156374816Y-99046000D01*
X156539228Y-99078703D01*
X156539228Y-99078703D01*
G37*
G36*
X153999228Y-99078703D02*
X154154100Y-99142853D01*
X154293481Y-99235985D01*
X154412015Y-99354519D01*
X154505147Y-99493900D01*
X154569297Y-99648772D01*
X154602000Y-99813184D01*
X154602000Y-99980816D01*
X154569297Y-100145228D01*
X154505147Y-100300100D01*
X154412015Y-100439481D01*
X154293481Y-100558015D01*
X154154100Y-100651147D01*
X153999228Y-100715297D01*
X153834816Y-100748000D01*
X153667184Y-100748000D01*
X153502772Y-100715297D01*
X153347900Y-100651147D01*
X153208519Y-100558015D01*
X153089985Y-100439481D01*
X152996853Y-100300100D01*
X152932703Y-100145228D01*
X152900000Y-99980816D01*
X152900000Y-99813184D01*
X152932703Y-99648772D01*
X152996853Y-99493900D01*
X153089985Y-99354519D01*
X153208519Y-99235985D01*
X153347900Y-99142853D01*
X153502772Y-99078703D01*
X153667184Y-99046000D01*
X153834816Y-99046000D01*
X153999228Y-99078703D01*
X153999228Y-99078703D01*
G37*
G36*
X151459228Y-99078703D02*
X151614100Y-99142853D01*
X151753481Y-99235985D01*
X151872015Y-99354519D01*
X151965147Y-99493900D01*
X152029297Y-99648772D01*
X152062000Y-99813184D01*
X152062000Y-99980816D01*
X152029297Y-100145228D01*
X151965147Y-100300100D01*
X151872015Y-100439481D01*
X151753481Y-100558015D01*
X151614100Y-100651147D01*
X151459228Y-100715297D01*
X151294816Y-100748000D01*
X151127184Y-100748000D01*
X150962772Y-100715297D01*
X150807900Y-100651147D01*
X150668519Y-100558015D01*
X150549985Y-100439481D01*
X150456853Y-100300100D01*
X150392703Y-100145228D01*
X150360000Y-99980816D01*
X150360000Y-99813184D01*
X150392703Y-99648772D01*
X150456853Y-99493900D01*
X150549985Y-99354519D01*
X150668519Y-99235985D01*
X150807900Y-99142853D01*
X150962772Y-99078703D01*
X151127184Y-99046000D01*
X151294816Y-99046000D01*
X151459228Y-99078703D01*
X151459228Y-99078703D01*
G37*
G36*
X148919228Y-99078703D02*
X149074100Y-99142853D01*
X149213481Y-99235985D01*
X149332015Y-99354519D01*
X149425147Y-99493900D01*
X149489297Y-99648772D01*
X149522000Y-99813184D01*
X149522000Y-99980816D01*
X149489297Y-100145228D01*
X149425147Y-100300100D01*
X149332015Y-100439481D01*
X149213481Y-100558015D01*
X149074100Y-100651147D01*
X148919228Y-100715297D01*
X148754816Y-100748000D01*
X148587184Y-100748000D01*
X148422772Y-100715297D01*
X148267900Y-100651147D01*
X148128519Y-100558015D01*
X148009985Y-100439481D01*
X147916853Y-100300100D01*
X147852703Y-100145228D01*
X147820000Y-99980816D01*
X147820000Y-99813184D01*
X147852703Y-99648772D01*
X147916853Y-99493900D01*
X148009985Y-99354519D01*
X148128519Y-99235985D01*
X148267900Y-99142853D01*
X148422772Y-99078703D01*
X148587184Y-99046000D01*
X148754816Y-99046000D01*
X148919228Y-99078703D01*
X148919228Y-99078703D01*
G37*
G36*
X182542000Y-100748000D02*
X180840000Y-100748000D01*
X180840000Y-99046000D01*
X182542000Y-99046000D01*
X182542000Y-100748000D01*
X182542000Y-100748000D01*
G37*
G36*
X161619228Y-99078703D02*
X161774100Y-99142853D01*
X161913481Y-99235985D01*
X162032015Y-99354519D01*
X162125147Y-99493900D01*
X162189297Y-99648772D01*
X162222000Y-99813184D01*
X162222000Y-99980816D01*
X162189297Y-100145228D01*
X162125147Y-100300100D01*
X162032015Y-100439481D01*
X161913481Y-100558015D01*
X161774100Y-100651147D01*
X161619228Y-100715297D01*
X161454816Y-100748000D01*
X161287184Y-100748000D01*
X161122772Y-100715297D01*
X160967900Y-100651147D01*
X160828519Y-100558015D01*
X160709985Y-100439481D01*
X160616853Y-100300100D01*
X160552703Y-100145228D01*
X160520000Y-99980816D01*
X160520000Y-99813184D01*
X160552703Y-99648772D01*
X160616853Y-99493900D01*
X160709985Y-99354519D01*
X160828519Y-99235985D01*
X160967900Y-99142853D01*
X161122772Y-99078703D01*
X161287184Y-99046000D01*
X161454816Y-99046000D01*
X161619228Y-99078703D01*
X161619228Y-99078703D01*
G37*
G36*
X144301000Y-99901000D02*
X142199000Y-99901000D01*
X142199000Y-99199000D01*
X144301000Y-99199000D01*
X144301000Y-99901000D01*
X144301000Y-99901000D01*
G37*
G36*
X144301000Y-98901000D02*
X142199000Y-98901000D01*
X142199000Y-98199000D01*
X144301000Y-98199000D01*
X144301000Y-98901000D01*
X144301000Y-98901000D01*
G37*
G36*
X144301000Y-97901000D02*
X142199000Y-97901000D01*
X142199000Y-97199000D01*
X144301000Y-97199000D01*
X144301000Y-97901000D01*
X144301000Y-97901000D01*
G37*
G36*
X173901000Y-97401000D02*
X172099000Y-97401000D01*
X172099000Y-95599000D01*
X173901000Y-95599000D01*
X173901000Y-97401000D01*
X173901000Y-97401000D01*
G37*
G36*
X170570442Y-95605518D02*
X170636627Y-95612037D01*
X170749853Y-95646384D01*
X170806467Y-95663557D01*
X170945087Y-95737652D01*
X170962991Y-95747222D01*
X170971530Y-95754230D01*
X171100186Y-95859814D01*
X171179665Y-95956661D01*
X171212778Y-95997009D01*
X171212779Y-95997011D01*
X171296443Y-96153533D01*
X171296443Y-96153534D01*
X171347963Y-96323373D01*
X171365359Y-96500000D01*
X171347963Y-96676627D01*
X171313616Y-96789853D01*
X171296443Y-96846467D01*
X171267294Y-96901000D01*
X171212778Y-97002991D01*
X171189032Y-97031925D01*
X171100186Y-97140186D01*
X171021049Y-97205131D01*
X170962991Y-97252778D01*
X170962989Y-97252779D01*
X170806467Y-97336443D01*
X170749853Y-97353616D01*
X170636627Y-97387963D01*
X170570443Y-97394481D01*
X170504260Y-97401000D01*
X170415740Y-97401000D01*
X170349557Y-97394481D01*
X170283373Y-97387963D01*
X170170147Y-97353616D01*
X170113533Y-97336443D01*
X169957011Y-97252779D01*
X169957009Y-97252778D01*
X169898951Y-97205131D01*
X169819814Y-97140186D01*
X169730968Y-97031925D01*
X169707222Y-97002991D01*
X169652706Y-96901000D01*
X169623557Y-96846467D01*
X169606384Y-96789853D01*
X169572037Y-96676627D01*
X169554641Y-96500000D01*
X169572037Y-96323373D01*
X169623557Y-96153534D01*
X169623557Y-96153533D01*
X169707221Y-95997011D01*
X169707222Y-95997009D01*
X169740335Y-95956661D01*
X169819814Y-95859814D01*
X169948470Y-95754230D01*
X169957009Y-95747222D01*
X169974913Y-95737652D01*
X170113533Y-95663557D01*
X170170147Y-95646384D01*
X170283373Y-95612037D01*
X170349557Y-95605519D01*
X170415740Y-95599000D01*
X170504260Y-95599000D01*
X170570442Y-95605518D01*
X170570442Y-95605518D01*
G37*
G36*
X167963677Y-95753465D02*
X168001364Y-95764898D01*
X168036103Y-95783466D01*
X168066548Y-95808452D01*
X168091534Y-95838897D01*
X168110102Y-95873636D01*
X168121535Y-95911323D01*
X168126000Y-95956661D01*
X168126000Y-97043339D01*
X168121535Y-97088677D01*
X168110102Y-97126364D01*
X168091534Y-97161103D01*
X168066548Y-97191548D01*
X168036103Y-97216534D01*
X168001364Y-97235102D01*
X167963677Y-97246535D01*
X167918339Y-97251000D01*
X167081661Y-97251000D01*
X167036323Y-97246535D01*
X166998636Y-97235102D01*
X166963897Y-97216534D01*
X166933452Y-97191548D01*
X166908466Y-97161103D01*
X166889898Y-97126364D01*
X166878465Y-97088677D01*
X166874000Y-97043339D01*
X166874000Y-95956661D01*
X166878465Y-95911323D01*
X166889898Y-95873636D01*
X166908466Y-95838897D01*
X166933452Y-95808452D01*
X166963897Y-95783466D01*
X166998636Y-95764898D01*
X167036323Y-95753465D01*
X167081661Y-95749000D01*
X167918339Y-95749000D01*
X167963677Y-95753465D01*
X167963677Y-95753465D01*
G37*
G36*
X165913677Y-95753465D02*
X165951364Y-95764898D01*
X165986103Y-95783466D01*
X166016548Y-95808452D01*
X166041534Y-95838897D01*
X166060102Y-95873636D01*
X166071535Y-95911323D01*
X166076000Y-95956661D01*
X166076000Y-97043339D01*
X166071535Y-97088677D01*
X166060102Y-97126364D01*
X166041534Y-97161103D01*
X166016548Y-97191548D01*
X165986103Y-97216534D01*
X165951364Y-97235102D01*
X165913677Y-97246535D01*
X165868339Y-97251000D01*
X165031661Y-97251000D01*
X164986323Y-97246535D01*
X164948636Y-97235102D01*
X164913897Y-97216534D01*
X164883452Y-97191548D01*
X164858466Y-97161103D01*
X164839898Y-97126364D01*
X164828465Y-97088677D01*
X164824000Y-97043339D01*
X164824000Y-95956661D01*
X164828465Y-95911323D01*
X164839898Y-95873636D01*
X164858466Y-95838897D01*
X164883452Y-95808452D01*
X164913897Y-95783466D01*
X164948636Y-95764898D01*
X164986323Y-95753465D01*
X165031661Y-95749000D01*
X165868339Y-95749000D01*
X165913677Y-95753465D01*
X165913677Y-95753465D01*
G37*
G36*
X144301000Y-96901000D02*
X142199000Y-96901000D01*
X142199000Y-96199000D01*
X144301000Y-96199000D01*
X144301000Y-96901000D01*
X144301000Y-96901000D01*
G37*
G36*
X144301000Y-95901000D02*
X142199000Y-95901000D01*
X142199000Y-95199000D01*
X144301000Y-95199000D01*
X144301000Y-95901000D01*
X144301000Y-95901000D01*
G37*
G36*
X144301000Y-94901000D02*
X142199000Y-94901000D01*
X142199000Y-94199000D01*
X144301000Y-94199000D01*
X144301000Y-94901000D01*
X144301000Y-94901000D01*
G37*
G36*
X144301000Y-93901000D02*
X142199000Y-93901000D01*
X142199000Y-93199000D01*
X144301000Y-93199000D01*
X144301000Y-93901000D01*
X144301000Y-93901000D01*
G37*
G36*
X156782443Y-92017519D02*
X156848627Y-92024037D01*
X156961853Y-92058384D01*
X157018467Y-92075557D01*
X157157087Y-92149652D01*
X157174991Y-92159222D01*
X157210729Y-92188552D01*
X157312186Y-92271814D01*
X157395448Y-92373271D01*
X157424778Y-92409009D01*
X157424779Y-92409011D01*
X157508443Y-92565533D01*
X157508443Y-92565534D01*
X157559963Y-92735373D01*
X157577359Y-92912000D01*
X157559963Y-93088627D01*
X157538751Y-93158553D01*
X157508443Y-93258467D01*
X157434348Y-93397087D01*
X157424778Y-93414991D01*
X157395448Y-93450729D01*
X157312186Y-93552186D01*
X157210729Y-93635448D01*
X157174991Y-93664778D01*
X157174989Y-93664779D01*
X157018467Y-93748443D01*
X156961853Y-93765616D01*
X156848627Y-93799963D01*
X156782443Y-93806481D01*
X156716260Y-93813000D01*
X156627740Y-93813000D01*
X156561557Y-93806481D01*
X156495373Y-93799963D01*
X156382147Y-93765616D01*
X156325533Y-93748443D01*
X156169011Y-93664779D01*
X156169009Y-93664778D01*
X156133271Y-93635448D01*
X156031814Y-93552186D01*
X155948552Y-93450729D01*
X155919222Y-93414991D01*
X155909652Y-93397087D01*
X155835557Y-93258467D01*
X155805249Y-93158553D01*
X155784037Y-93088627D01*
X155766641Y-92912000D01*
X155784037Y-92735373D01*
X155835557Y-92565534D01*
X155835557Y-92565533D01*
X155919221Y-92409011D01*
X155919222Y-92409009D01*
X155948552Y-92373271D01*
X156031814Y-92271814D01*
X156133271Y-92188552D01*
X156169009Y-92159222D01*
X156186913Y-92149652D01*
X156325533Y-92075557D01*
X156382147Y-92058384D01*
X156495373Y-92024037D01*
X156561557Y-92017519D01*
X156627740Y-92011000D01*
X156716260Y-92011000D01*
X156782443Y-92017519D01*
X156782443Y-92017519D01*
G37*
G36*
X160113000Y-93813000D02*
X158311000Y-93813000D01*
X158311000Y-92011000D01*
X160113000Y-92011000D01*
X160113000Y-93813000D01*
X160113000Y-93813000D01*
G37*
G36*
X164148443Y-92017519D02*
X164214627Y-92024037D01*
X164327853Y-92058384D01*
X164384467Y-92075557D01*
X164523087Y-92149652D01*
X164540991Y-92159222D01*
X164576729Y-92188552D01*
X164678186Y-92271814D01*
X164761448Y-92373271D01*
X164790778Y-92409009D01*
X164790779Y-92409011D01*
X164874443Y-92565533D01*
X164874443Y-92565534D01*
X164925963Y-92735373D01*
X164943359Y-92912000D01*
X164925963Y-93088627D01*
X164904751Y-93158553D01*
X164874443Y-93258467D01*
X164800348Y-93397087D01*
X164790778Y-93414991D01*
X164761448Y-93450729D01*
X164678186Y-93552186D01*
X164576729Y-93635448D01*
X164540991Y-93664778D01*
X164540989Y-93664779D01*
X164384467Y-93748443D01*
X164327853Y-93765616D01*
X164214627Y-93799963D01*
X164148443Y-93806481D01*
X164082260Y-93813000D01*
X163993740Y-93813000D01*
X163927557Y-93806481D01*
X163861373Y-93799963D01*
X163748147Y-93765616D01*
X163691533Y-93748443D01*
X163535011Y-93664779D01*
X163535009Y-93664778D01*
X163499271Y-93635448D01*
X163397814Y-93552186D01*
X163314552Y-93450729D01*
X163285222Y-93414991D01*
X163275652Y-93397087D01*
X163201557Y-93258467D01*
X163171249Y-93158553D01*
X163150037Y-93088627D01*
X163132641Y-92912000D01*
X163150037Y-92735373D01*
X163201557Y-92565534D01*
X163201557Y-92565533D01*
X163285221Y-92409011D01*
X163285222Y-92409009D01*
X163314552Y-92373271D01*
X163397814Y-92271814D01*
X163499271Y-92188552D01*
X163535009Y-92159222D01*
X163552913Y-92149652D01*
X163691533Y-92075557D01*
X163748147Y-92058384D01*
X163861373Y-92024037D01*
X163927557Y-92017519D01*
X163993740Y-92011000D01*
X164082260Y-92011000D01*
X164148443Y-92017519D01*
X164148443Y-92017519D01*
G37*
G36*
X154242443Y-92017519D02*
X154308627Y-92024037D01*
X154421853Y-92058384D01*
X154478467Y-92075557D01*
X154617087Y-92149652D01*
X154634991Y-92159222D01*
X154670729Y-92188552D01*
X154772186Y-92271814D01*
X154855448Y-92373271D01*
X154884778Y-92409009D01*
X154884779Y-92409011D01*
X154968443Y-92565533D01*
X154968443Y-92565534D01*
X155019963Y-92735373D01*
X155037359Y-92912000D01*
X155019963Y-93088627D01*
X154998751Y-93158553D01*
X154968443Y-93258467D01*
X154894348Y-93397087D01*
X154884778Y-93414991D01*
X154855448Y-93450729D01*
X154772186Y-93552186D01*
X154670729Y-93635448D01*
X154634991Y-93664778D01*
X154634989Y-93664779D01*
X154478467Y-93748443D01*
X154421853Y-93765616D01*
X154308627Y-93799963D01*
X154242443Y-93806481D01*
X154176260Y-93813000D01*
X154087740Y-93813000D01*
X154021557Y-93806481D01*
X153955373Y-93799963D01*
X153842147Y-93765616D01*
X153785533Y-93748443D01*
X153629011Y-93664779D01*
X153629009Y-93664778D01*
X153593271Y-93635448D01*
X153491814Y-93552186D01*
X153408552Y-93450729D01*
X153379222Y-93414991D01*
X153369652Y-93397087D01*
X153295557Y-93258467D01*
X153265249Y-93158553D01*
X153244037Y-93088627D01*
X153226641Y-92912000D01*
X153244037Y-92735373D01*
X153295557Y-92565534D01*
X153295557Y-92565533D01*
X153379221Y-92409011D01*
X153379222Y-92409009D01*
X153408552Y-92373271D01*
X153491814Y-92271814D01*
X153593271Y-92188552D01*
X153629009Y-92159222D01*
X153646913Y-92149652D01*
X153785533Y-92075557D01*
X153842147Y-92058384D01*
X153955373Y-92024037D01*
X154021557Y-92017519D01*
X154087740Y-92011000D01*
X154176260Y-92011000D01*
X154242443Y-92017519D01*
X154242443Y-92017519D01*
G37*
G36*
X167479000Y-93813000D02*
X165677000Y-93813000D01*
X165677000Y-92011000D01*
X167479000Y-92011000D01*
X167479000Y-93813000D01*
X167479000Y-93813000D01*
G37*
G36*
X179604425Y-90426760D02*
X179604428Y-90426761D01*
X179604429Y-90426761D01*
X179783693Y-90481140D01*
X179783695Y-90481141D01*
X179948905Y-90569448D01*
X180093712Y-90688288D01*
X180212552Y-90833095D01*
X180212553Y-90833097D01*
X180300860Y-90998307D01*
X180355239Y-91177571D01*
X180355240Y-91177575D01*
X180369000Y-91317282D01*
X180369000Y-92410718D01*
X180355240Y-92550425D01*
X180300859Y-92729695D01*
X180212552Y-92894905D01*
X180093712Y-93039712D01*
X179948904Y-93158554D01*
X179783697Y-93246858D01*
X179783694Y-93246859D01*
X179783692Y-93246860D01*
X179604428Y-93301239D01*
X179604427Y-93301239D01*
X179604424Y-93301240D01*
X179418000Y-93319601D01*
X179231575Y-93301240D01*
X179231572Y-93301239D01*
X179231571Y-93301239D01*
X179052307Y-93246860D01*
X178887097Y-93158553D01*
X178887095Y-93158552D01*
X178742288Y-93039712D01*
X178623446Y-92894904D01*
X178535142Y-92729697D01*
X178485344Y-92565534D01*
X178480761Y-92550428D01*
X178480761Y-92550427D01*
X178480760Y-92550424D01*
X178467000Y-92410717D01*
X178467000Y-91317282D01*
X178480760Y-91177570D01*
X178535140Y-90998309D01*
X178623449Y-90833095D01*
X178742289Y-90688288D01*
X178887096Y-90569448D01*
X179052306Y-90481141D01*
X179052308Y-90481140D01*
X179231572Y-90426761D01*
X179231573Y-90426761D01*
X179231576Y-90426760D01*
X179418000Y-90408399D01*
X179604425Y-90426760D01*
X179604425Y-90426760D01*
G37*
G36*
X174104425Y-90426760D02*
X174104428Y-90426761D01*
X174104429Y-90426761D01*
X174283693Y-90481140D01*
X174283695Y-90481141D01*
X174448905Y-90569448D01*
X174593712Y-90688288D01*
X174712552Y-90833095D01*
X174712553Y-90833097D01*
X174800860Y-90998307D01*
X174855239Y-91177571D01*
X174855240Y-91177575D01*
X174869000Y-91317282D01*
X174869000Y-92410718D01*
X174855240Y-92550425D01*
X174800859Y-92729695D01*
X174712552Y-92894905D01*
X174593712Y-93039712D01*
X174448904Y-93158554D01*
X174283697Y-93246858D01*
X174283694Y-93246859D01*
X174283692Y-93246860D01*
X174104428Y-93301239D01*
X174104427Y-93301239D01*
X174104424Y-93301240D01*
X173918000Y-93319601D01*
X173731575Y-93301240D01*
X173731572Y-93301239D01*
X173731571Y-93301239D01*
X173552307Y-93246860D01*
X173387097Y-93158553D01*
X173387095Y-93158552D01*
X173242288Y-93039712D01*
X173123446Y-92894904D01*
X173035142Y-92729697D01*
X172985344Y-92565534D01*
X172980761Y-92550428D01*
X172980761Y-92550427D01*
X172980760Y-92550424D01*
X172967000Y-92410717D01*
X172967000Y-91317282D01*
X172980760Y-91177570D01*
X173035140Y-90998309D01*
X173123449Y-90833095D01*
X173242289Y-90688288D01*
X173387096Y-90569448D01*
X173552306Y-90481141D01*
X173552308Y-90481140D01*
X173731572Y-90426761D01*
X173731573Y-90426761D01*
X173731576Y-90426760D01*
X173918000Y-90408399D01*
X174104425Y-90426760D01*
X174104425Y-90426760D01*
G37*
G36*
X144301000Y-92901000D02*
X142199000Y-92901000D01*
X142199000Y-92199000D01*
X144301000Y-92199000D01*
X144301000Y-92901000D01*
X144301000Y-92901000D01*
G37*
G36*
X144301000Y-91901000D02*
X142199000Y-91901000D01*
X142199000Y-91199000D01*
X144301000Y-91199000D01*
X144301000Y-91901000D01*
X144301000Y-91901000D01*
G37*
G36*
X182004425Y-88426760D02*
X182004428Y-88426761D01*
X182004429Y-88426761D01*
X182183693Y-88481140D01*
X182183695Y-88481141D01*
X182348905Y-88569448D01*
X182493712Y-88688288D01*
X182612552Y-88833095D01*
X182700859Y-88998305D01*
X182700860Y-88998307D01*
X182755239Y-89177571D01*
X182755240Y-89177575D01*
X182769000Y-89317282D01*
X182769000Y-90410718D01*
X182755240Y-90550425D01*
X182755239Y-90550428D01*
X182755239Y-90550429D01*
X182729585Y-90635000D01*
X182700859Y-90729695D01*
X182612552Y-90894905D01*
X182493712Y-91039712D01*
X182348904Y-91158554D01*
X182183697Y-91246858D01*
X182183694Y-91246859D01*
X182183692Y-91246860D01*
X182004428Y-91301239D01*
X182004427Y-91301239D01*
X182004424Y-91301240D01*
X181818000Y-91319601D01*
X181631575Y-91301240D01*
X181631572Y-91301239D01*
X181631571Y-91301239D01*
X181452307Y-91246860D01*
X181287097Y-91158553D01*
X181287095Y-91158552D01*
X181142288Y-91039712D01*
X181023446Y-90894904D01*
X180935142Y-90729697D01*
X180922581Y-90688288D01*
X180880761Y-90550428D01*
X180880761Y-90550427D01*
X180880760Y-90550424D01*
X180867000Y-90410717D01*
X180867000Y-89317282D01*
X180880760Y-89177570D01*
X180935140Y-88998309D01*
X181023449Y-88833095D01*
X181142289Y-88688288D01*
X181287096Y-88569448D01*
X181452306Y-88481141D01*
X181452308Y-88481140D01*
X181631572Y-88426761D01*
X181631573Y-88426761D01*
X181631576Y-88426760D01*
X181818000Y-88408399D01*
X182004425Y-88426760D01*
X182004425Y-88426760D01*
G37*
G36*
X144301000Y-90901000D02*
X142199000Y-90901000D01*
X142199000Y-90199000D01*
X144301000Y-90199000D01*
X144301000Y-90901000D01*
X144301000Y-90901000D01*
G37*
G36*
X147227677Y-89387465D02*
X147265364Y-89398898D01*
X147300103Y-89417466D01*
X147330548Y-89442452D01*
X147355534Y-89472897D01*
X147374102Y-89507636D01*
X147385535Y-89545323D01*
X147390000Y-89590661D01*
X147390000Y-90427339D01*
X147385535Y-90472677D01*
X147374102Y-90510364D01*
X147355534Y-90545103D01*
X147330548Y-90575548D01*
X147300103Y-90600534D01*
X147265364Y-90619102D01*
X147227677Y-90630535D01*
X147182339Y-90635000D01*
X146095661Y-90635000D01*
X146050323Y-90630535D01*
X146012636Y-90619102D01*
X145977897Y-90600534D01*
X145947452Y-90575548D01*
X145922466Y-90545103D01*
X145903898Y-90510364D01*
X145892465Y-90472677D01*
X145888000Y-90427339D01*
X145888000Y-89590661D01*
X145892465Y-89545323D01*
X145903898Y-89507636D01*
X145922466Y-89472897D01*
X145947452Y-89442452D01*
X145977897Y-89417466D01*
X146012636Y-89398898D01*
X146050323Y-89387465D01*
X146095661Y-89383000D01*
X147182339Y-89383000D01*
X147227677Y-89387465D01*
X147227677Y-89387465D01*
G37*
G36*
X149691999Y-88829737D02*
X149701611Y-88832653D01*
X149710469Y-88837388D01*
X149710471Y-88837390D01*
X149718237Y-88843763D01*
X149724640Y-88851573D01*
X149724673Y-88851622D01*
X149732484Y-88861150D01*
X149732514Y-88861125D01*
X149743857Y-88874974D01*
X149762783Y-88890538D01*
X149784382Y-88902111D01*
X149807824Y-88909248D01*
X149832208Y-88911674D01*
X149856597Y-88909296D01*
X149880053Y-88902207D01*
X149901676Y-88890677D01*
X149920633Y-88875150D01*
X149931324Y-88860766D01*
X149931600Y-88860993D01*
X149939416Y-88851489D01*
X149939419Y-88851484D01*
X149945801Y-88843725D01*
X149945805Y-88843721D01*
X149953572Y-88837360D01*
X149962399Y-88832654D01*
X149962438Y-88832633D01*
X149962440Y-88832632D01*
X149972082Y-88829718D01*
X149988112Y-88828148D01*
X151125860Y-88828148D01*
X151141999Y-88829737D01*
X151151611Y-88832653D01*
X151160469Y-88837388D01*
X151168237Y-88843763D01*
X151174612Y-88851531D01*
X151179347Y-88860389D01*
X151182263Y-88870001D01*
X151183852Y-88886140D01*
X151183852Y-90373860D01*
X151182263Y-90389999D01*
X151179347Y-90399611D01*
X151174612Y-90408469D01*
X151168237Y-90416237D01*
X151160469Y-90422612D01*
X151151611Y-90427347D01*
X151141999Y-90430263D01*
X151125860Y-90431852D01*
X149988140Y-90431852D01*
X149972001Y-90430263D01*
X149962389Y-90427347D01*
X149953531Y-90422612D01*
X149945763Y-90416237D01*
X149935116Y-90403264D01*
X149928954Y-90394041D01*
X149911627Y-90376713D01*
X149891253Y-90363099D01*
X149868614Y-90353721D01*
X149844581Y-90348939D01*
X149820077Y-90348939D01*
X149796043Y-90353718D01*
X149773404Y-90363095D01*
X149753029Y-90376708D01*
X149735701Y-90394035D01*
X149728817Y-90403327D01*
X149718279Y-90416195D01*
X149718275Y-90416199D01*
X149710516Y-90422581D01*
X149701661Y-90427326D01*
X149692050Y-90430252D01*
X149682000Y-90431247D01*
X149681934Y-90431247D01*
X149675825Y-90431852D01*
X148688140Y-90431852D01*
X148672001Y-90430263D01*
X148662389Y-90427347D01*
X148653531Y-90422612D01*
X148645763Y-90416237D01*
X148639388Y-90408469D01*
X148634653Y-90399611D01*
X148631737Y-90389999D01*
X148630148Y-90373860D01*
X148630148Y-88886140D01*
X148631737Y-88870001D01*
X148634653Y-88860389D01*
X148639388Y-88851531D01*
X148645763Y-88843763D01*
X148653531Y-88837388D01*
X148662389Y-88832653D01*
X148672001Y-88829737D01*
X148688140Y-88828148D01*
X149675860Y-88828148D01*
X149691999Y-88829737D01*
X149691999Y-88829737D01*
G37*
G36*
X160158000Y-90081000D02*
X158756000Y-90081000D01*
X158756000Y-88679000D01*
X160158000Y-88679000D01*
X160158000Y-90081000D01*
X160158000Y-90081000D01*
G37*
G36*
X144301000Y-89901000D02*
X142449000Y-89901000D01*
X142449000Y-89199000D01*
X144301000Y-89199000D01*
X144301000Y-89901000D01*
X144301000Y-89901000D01*
G37*
G36*
X130271000Y-89151000D02*
X129569000Y-89151000D01*
X129569000Y-87049000D01*
X130271000Y-87049000D01*
X130271000Y-89151000D01*
X130271000Y-89151000D01*
G37*
G36*
X129271000Y-89151000D02*
X128569000Y-89151000D01*
X128569000Y-87049000D01*
X129271000Y-87049000D01*
X129271000Y-89151000D01*
X129271000Y-89151000D01*
G37*
G36*
X128271000Y-89151000D02*
X127569000Y-89151000D01*
X127569000Y-87049000D01*
X128271000Y-87049000D01*
X128271000Y-89151000D01*
X128271000Y-89151000D01*
G37*
G36*
X127271000Y-89151000D02*
X126569000Y-89151000D01*
X126569000Y-87049000D01*
X127271000Y-87049000D01*
X127271000Y-89151000D01*
X127271000Y-89151000D01*
G37*
G36*
X131271000Y-89151000D02*
X130569000Y-89151000D01*
X130569000Y-87049000D01*
X131271000Y-87049000D01*
X131271000Y-89151000D01*
X131271000Y-89151000D01*
G37*
G36*
X123271000Y-89151000D02*
X122569000Y-89151000D01*
X122569000Y-87049000D01*
X123271000Y-87049000D01*
X123271000Y-89151000D01*
X123271000Y-89151000D01*
G37*
G36*
X137271000Y-89151000D02*
X136569000Y-89151000D01*
X136569000Y-87049000D01*
X137271000Y-87049000D01*
X137271000Y-89151000D01*
X137271000Y-89151000D01*
G37*
G36*
X140271000Y-89151000D02*
X139569000Y-89151000D01*
X139569000Y-87049000D01*
X140271000Y-87049000D01*
X140271000Y-89151000D01*
X140271000Y-89151000D01*
G37*
G36*
X141271000Y-89151000D02*
X140569000Y-89151000D01*
X140569000Y-87049000D01*
X141271000Y-87049000D01*
X141271000Y-89151000D01*
X141271000Y-89151000D01*
G37*
G36*
X138271000Y-89151000D02*
X137569000Y-89151000D01*
X137569000Y-87049000D01*
X138271000Y-87049000D01*
X138271000Y-89151000D01*
X138271000Y-89151000D01*
G37*
G36*
X126271000Y-89151000D02*
X125569000Y-89151000D01*
X125569000Y-87049000D01*
X126271000Y-87049000D01*
X126271000Y-89151000D01*
X126271000Y-89151000D01*
G37*
G36*
X125271000Y-89151000D02*
X124569000Y-89151000D01*
X124569000Y-87049000D01*
X125271000Y-87049000D01*
X125271000Y-89151000D01*
X125271000Y-89151000D01*
G37*
G36*
X132271000Y-89151000D02*
X131569000Y-89151000D01*
X131569000Y-87049000D01*
X132271000Y-87049000D01*
X132271000Y-89151000D01*
X132271000Y-89151000D01*
G37*
G36*
X139271000Y-89151000D02*
X138569000Y-89151000D01*
X138569000Y-87049000D01*
X139271000Y-87049000D01*
X139271000Y-89151000D01*
X139271000Y-89151000D01*
G37*
G36*
X124271000Y-89151000D02*
X123569000Y-89151000D01*
X123569000Y-87049000D01*
X124271000Y-87049000D01*
X124271000Y-89151000D01*
X124271000Y-89151000D01*
G37*
G36*
X136271000Y-89151000D02*
X135569000Y-89151000D01*
X135569000Y-87049000D01*
X136271000Y-87049000D01*
X136271000Y-89151000D01*
X136271000Y-89151000D01*
G37*
G36*
X134271000Y-89151000D02*
X133569000Y-89151000D01*
X133569000Y-87049000D01*
X134271000Y-87049000D01*
X134271000Y-89151000D01*
X134271000Y-89151000D01*
G37*
G36*
X133271000Y-89151000D02*
X132569000Y-89151000D01*
X132569000Y-87049000D01*
X133271000Y-87049000D01*
X133271000Y-89151000D01*
X133271000Y-89151000D01*
G37*
G36*
X135271000Y-89151000D02*
X134569000Y-89151000D01*
X134569000Y-87049000D01*
X135271000Y-87049000D01*
X135271000Y-89151000D01*
X135271000Y-89151000D01*
G37*
G36*
X155008000Y-88931000D02*
X152906000Y-88931000D01*
X152906000Y-87529000D01*
X155008000Y-87529000D01*
X155008000Y-88931000D01*
X155008000Y-88931000D01*
G37*
G36*
X142271000Y-88901000D02*
X141569000Y-88901000D01*
X141569000Y-87049000D01*
X142271000Y-87049000D01*
X142271000Y-88901000D01*
X142271000Y-88901000D01*
G37*
G36*
X147227677Y-87337465D02*
X147265364Y-87348898D01*
X147300103Y-87367466D01*
X147330548Y-87392452D01*
X147355534Y-87422897D01*
X147374102Y-87457636D01*
X147385535Y-87495323D01*
X147390000Y-87540661D01*
X147390000Y-88377339D01*
X147385535Y-88422677D01*
X147374102Y-88460364D01*
X147355534Y-88495103D01*
X147330548Y-88525548D01*
X147300103Y-88550534D01*
X147265364Y-88569102D01*
X147227677Y-88580535D01*
X147182339Y-88585000D01*
X146095661Y-88585000D01*
X146050323Y-88580535D01*
X146012636Y-88569102D01*
X145977897Y-88550534D01*
X145947452Y-88525548D01*
X145922466Y-88495103D01*
X145903898Y-88460364D01*
X145892465Y-88422677D01*
X145888000Y-88377339D01*
X145888000Y-87540661D01*
X145892465Y-87495323D01*
X145903898Y-87457636D01*
X145922466Y-87422897D01*
X145947452Y-87392452D01*
X145977897Y-87367466D01*
X146012636Y-87348898D01*
X146050323Y-87337465D01*
X146095661Y-87333000D01*
X147182339Y-87333000D01*
X147227677Y-87337465D01*
X147227677Y-87337465D01*
G37*
G36*
X166740643Y-86259781D02*
X166886415Y-86320162D01*
X167017611Y-86407824D01*
X167129176Y-86519389D01*
X167216838Y-86650585D01*
X167277219Y-86796357D01*
X167308000Y-86951107D01*
X167308000Y-87108893D01*
X167277219Y-87263643D01*
X167216838Y-87409415D01*
X167129176Y-87540611D01*
X167017611Y-87652176D01*
X166886415Y-87739838D01*
X166740643Y-87800219D01*
X166585893Y-87831000D01*
X166428107Y-87831000D01*
X166273357Y-87800219D01*
X166127585Y-87739838D01*
X165996389Y-87652176D01*
X165884824Y-87540611D01*
X165797162Y-87409415D01*
X165736781Y-87263643D01*
X165706000Y-87108893D01*
X165706000Y-86951107D01*
X165736781Y-86796357D01*
X165797162Y-86650585D01*
X165884824Y-86519389D01*
X165996389Y-86407824D01*
X166127585Y-86320162D01*
X166273357Y-86259781D01*
X166428107Y-86229000D01*
X166585893Y-86229000D01*
X166740643Y-86259781D01*
X166740643Y-86259781D01*
G37*
G36*
X160158000Y-87781000D02*
X158756000Y-87781000D01*
X158756000Y-86379000D01*
X160158000Y-86379000D01*
X160158000Y-87781000D01*
X160158000Y-87781000D01*
G37*
G36*
X164370677Y-86283465D02*
X164408364Y-86294898D01*
X164443103Y-86313466D01*
X164473548Y-86338452D01*
X164498534Y-86368897D01*
X164517102Y-86403636D01*
X164528535Y-86441323D01*
X164533000Y-86486661D01*
X164533000Y-87573339D01*
X164528535Y-87618677D01*
X164517102Y-87656364D01*
X164498534Y-87691103D01*
X164473548Y-87721548D01*
X164443103Y-87746534D01*
X164408364Y-87765102D01*
X164370677Y-87776535D01*
X164325339Y-87781000D01*
X163488661Y-87781000D01*
X163443323Y-87776535D01*
X163405636Y-87765102D01*
X163370897Y-87746534D01*
X163340452Y-87721548D01*
X163315466Y-87691103D01*
X163296898Y-87656364D01*
X163285465Y-87618677D01*
X163281000Y-87573339D01*
X163281000Y-86486661D01*
X163285465Y-86441323D01*
X163296898Y-86403636D01*
X163315466Y-86368897D01*
X163340452Y-86338452D01*
X163370897Y-86313466D01*
X163405636Y-86294898D01*
X163443323Y-86283465D01*
X163488661Y-86279000D01*
X164325339Y-86279000D01*
X164370677Y-86283465D01*
X164370677Y-86283465D01*
G37*
G36*
X162320677Y-86283465D02*
X162358364Y-86294898D01*
X162393103Y-86313466D01*
X162423548Y-86338452D01*
X162448534Y-86368897D01*
X162467102Y-86403636D01*
X162478535Y-86441323D01*
X162483000Y-86486661D01*
X162483000Y-87573339D01*
X162478535Y-87618677D01*
X162467102Y-87656364D01*
X162448534Y-87691103D01*
X162423548Y-87721548D01*
X162393103Y-87746534D01*
X162358364Y-87765102D01*
X162320677Y-87776535D01*
X162275339Y-87781000D01*
X161438661Y-87781000D01*
X161393323Y-87776535D01*
X161355636Y-87765102D01*
X161320897Y-87746534D01*
X161290452Y-87721548D01*
X161265466Y-87691103D01*
X161246898Y-87656364D01*
X161235465Y-87618677D01*
X161231000Y-87573339D01*
X161231000Y-86486661D01*
X161235465Y-86441323D01*
X161246898Y-86403636D01*
X161265466Y-86368897D01*
X161290452Y-86338452D01*
X161320897Y-86313466D01*
X161355636Y-86294898D01*
X161393323Y-86283465D01*
X161438661Y-86279000D01*
X162275339Y-86279000D01*
X162320677Y-86283465D01*
X162320677Y-86283465D01*
G37*
G36*
X146740643Y-83505781D02*
X146886415Y-83566162D01*
X147017611Y-83653824D01*
X147129176Y-83765389D01*
X147216838Y-83896585D01*
X147277219Y-84042357D01*
X147308000Y-84197107D01*
X147308000Y-84354893D01*
X147277219Y-84509643D01*
X147216838Y-84655415D01*
X147129176Y-84786611D01*
X147017611Y-84898176D01*
X146886415Y-84985838D01*
X146740643Y-85046219D01*
X146585893Y-85077000D01*
X146428107Y-85077000D01*
X146273357Y-85046219D01*
X146127585Y-84985838D01*
X145996389Y-84898176D01*
X145884824Y-84786611D01*
X145797162Y-84655415D01*
X145736781Y-84509643D01*
X145706000Y-84354893D01*
X145706000Y-84197107D01*
X145736781Y-84042357D01*
X145797162Y-83896585D01*
X145884824Y-83765389D01*
X145996389Y-83653824D01*
X146127585Y-83566162D01*
X146273357Y-83505781D01*
X146428107Y-83475000D01*
X146585893Y-83475000D01*
X146740643Y-83505781D01*
X146740643Y-83505781D01*
G37*
G36*
X149520677Y-83483465D02*
X149558364Y-83494898D01*
X149593103Y-83513466D01*
X149623548Y-83538452D01*
X149648534Y-83568897D01*
X149667102Y-83603636D01*
X149678535Y-83641323D01*
X149683000Y-83686661D01*
X149683000Y-84773339D01*
X149678535Y-84818677D01*
X149667102Y-84856364D01*
X149648534Y-84891103D01*
X149623548Y-84921548D01*
X149593103Y-84946534D01*
X149558364Y-84965102D01*
X149520677Y-84976535D01*
X149475339Y-84981000D01*
X148638661Y-84981000D01*
X148593323Y-84976535D01*
X148555636Y-84965102D01*
X148520897Y-84946534D01*
X148490452Y-84921548D01*
X148465466Y-84891103D01*
X148446898Y-84856364D01*
X148435465Y-84818677D01*
X148431000Y-84773339D01*
X148431000Y-83686661D01*
X148435465Y-83641323D01*
X148446898Y-83603636D01*
X148465466Y-83568897D01*
X148490452Y-83538452D01*
X148520897Y-83513466D01*
X148555636Y-83494898D01*
X148593323Y-83483465D01*
X148638661Y-83479000D01*
X149475339Y-83479000D01*
X149520677Y-83483465D01*
X149520677Y-83483465D01*
G37*
G36*
X151570677Y-83483465D02*
X151608364Y-83494898D01*
X151643103Y-83513466D01*
X151673548Y-83538452D01*
X151698534Y-83568897D01*
X151717102Y-83603636D01*
X151728535Y-83641323D01*
X151733000Y-83686661D01*
X151733000Y-84773339D01*
X151728535Y-84818677D01*
X151717102Y-84856364D01*
X151698534Y-84891103D01*
X151673548Y-84921548D01*
X151643103Y-84946534D01*
X151608364Y-84965102D01*
X151570677Y-84976535D01*
X151525339Y-84981000D01*
X150688661Y-84981000D01*
X150643323Y-84976535D01*
X150605636Y-84965102D01*
X150570897Y-84946534D01*
X150540452Y-84921548D01*
X150515466Y-84891103D01*
X150496898Y-84856364D01*
X150485465Y-84818677D01*
X150481000Y-84773339D01*
X150481000Y-83686661D01*
X150485465Y-83641323D01*
X150496898Y-83603636D01*
X150515466Y-83568897D01*
X150540452Y-83538452D01*
X150570897Y-83513466D01*
X150605636Y-83494898D01*
X150643323Y-83483465D01*
X150688661Y-83479000D01*
X151525339Y-83479000D01*
X151570677Y-83483465D01*
X151570677Y-83483465D01*
G37*
G36*
X179653256Y-81143298D02*
X179759579Y-81164447D01*
X180060042Y-81288903D01*
X180189429Y-81375357D01*
X180330454Y-81469587D01*
X180560413Y-81699546D01*
X180560415Y-81699549D01*
X180741097Y-81969958D01*
X180865553Y-82270421D01*
X180875184Y-82318838D01*
X180929000Y-82589389D01*
X180929000Y-82914611D01*
X180865553Y-83233578D01*
X180755315Y-83499718D01*
X180741097Y-83534042D01*
X180669414Y-83641323D01*
X180560413Y-83804454D01*
X180330454Y-84034413D01*
X180330451Y-84034415D01*
X180060042Y-84215097D01*
X179759579Y-84339553D01*
X179653256Y-84360702D01*
X179440611Y-84403000D01*
X179115389Y-84403000D01*
X178902744Y-84360702D01*
X178796421Y-84339553D01*
X178495958Y-84215097D01*
X178225549Y-84034415D01*
X178225546Y-84034413D01*
X177995587Y-83804454D01*
X177886586Y-83641323D01*
X177814903Y-83534042D01*
X177800686Y-83499718D01*
X177690447Y-83233578D01*
X177627000Y-82914611D01*
X177627000Y-82589389D01*
X177680816Y-82318838D01*
X177690447Y-82270421D01*
X177814903Y-81969958D01*
X177995585Y-81699549D01*
X177995587Y-81699546D01*
X178225546Y-81469587D01*
X178366571Y-81375357D01*
X178495958Y-81288903D01*
X178796421Y-81164447D01*
X178902744Y-81143298D01*
X179115389Y-81101000D01*
X179440611Y-81101000D01*
X179653256Y-81143298D01*
X179653256Y-81143298D01*
G37*
G36*
X160158000Y-84081000D02*
X158756000Y-84081000D01*
X158756000Y-82679000D01*
X160158000Y-82679000D01*
X160158000Y-84081000D01*
X160158000Y-84081000D01*
G37*
G36*
X151595677Y-81483465D02*
X151633364Y-81494898D01*
X151668103Y-81513466D01*
X151698548Y-81538452D01*
X151723534Y-81568897D01*
X151742102Y-81603636D01*
X151753535Y-81641323D01*
X151758000Y-81686661D01*
X151758000Y-82773339D01*
X151753535Y-82818677D01*
X151742102Y-82856364D01*
X151723534Y-82891103D01*
X151698548Y-82921548D01*
X151668103Y-82946534D01*
X151633364Y-82965102D01*
X151595677Y-82976535D01*
X151550339Y-82981000D01*
X150713661Y-82981000D01*
X150668323Y-82976535D01*
X150630636Y-82965102D01*
X150595897Y-82946534D01*
X150565452Y-82921548D01*
X150540466Y-82891103D01*
X150521898Y-82856364D01*
X150510465Y-82818677D01*
X150506000Y-82773339D01*
X150506000Y-81686661D01*
X150510465Y-81641323D01*
X150521898Y-81603636D01*
X150540466Y-81568897D01*
X150565452Y-81538452D01*
X150595897Y-81513466D01*
X150630636Y-81494898D01*
X150668323Y-81483465D01*
X150713661Y-81479000D01*
X151550339Y-81479000D01*
X151595677Y-81483465D01*
X151595677Y-81483465D01*
G37*
G36*
X149545677Y-81483465D02*
X149583364Y-81494898D01*
X149618103Y-81513466D01*
X149648548Y-81538452D01*
X149673534Y-81568897D01*
X149692102Y-81603636D01*
X149703535Y-81641323D01*
X149708000Y-81686661D01*
X149708000Y-82773339D01*
X149703535Y-82818677D01*
X149692102Y-82856364D01*
X149673534Y-82891103D01*
X149648548Y-82921548D01*
X149618103Y-82946534D01*
X149583364Y-82965102D01*
X149545677Y-82976535D01*
X149500339Y-82981000D01*
X148663661Y-82981000D01*
X148618323Y-82976535D01*
X148580636Y-82965102D01*
X148545897Y-82946534D01*
X148515452Y-82921548D01*
X148490466Y-82891103D01*
X148471898Y-82856364D01*
X148460465Y-82818677D01*
X148456000Y-82773339D01*
X148456000Y-81686661D01*
X148460465Y-81641323D01*
X148471898Y-81603636D01*
X148490466Y-81568897D01*
X148515452Y-81538452D01*
X148545897Y-81513466D01*
X148580636Y-81494898D01*
X148618323Y-81483465D01*
X148663661Y-81479000D01*
X149500339Y-81479000D01*
X149545677Y-81483465D01*
X149545677Y-81483465D01*
G37*
G36*
X155008000Y-82931000D02*
X152906000Y-82931000D01*
X152906000Y-81529000D01*
X155008000Y-81529000D01*
X155008000Y-82931000D01*
X155008000Y-82931000D01*
G37*
G36*
X146740643Y-80838781D02*
X146886415Y-80899162D01*
X147017611Y-80986824D01*
X147129176Y-81098389D01*
X147216838Y-81229585D01*
X147277219Y-81375357D01*
X147308000Y-81530107D01*
X147308000Y-81687893D01*
X147277219Y-81842643D01*
X147216838Y-81988415D01*
X147129176Y-82119611D01*
X147017611Y-82231176D01*
X146886415Y-82318838D01*
X146740643Y-82379219D01*
X146585893Y-82410000D01*
X146428107Y-82410000D01*
X146273357Y-82379219D01*
X146127585Y-82318838D01*
X145996389Y-82231176D01*
X145884824Y-82119611D01*
X145797162Y-81988415D01*
X145736781Y-81842643D01*
X145706000Y-81687893D01*
X145706000Y-81530107D01*
X145736781Y-81375357D01*
X145797162Y-81229585D01*
X145884824Y-81098389D01*
X145996389Y-80986824D01*
X146127585Y-80899162D01*
X146273357Y-80838781D01*
X146428107Y-80808000D01*
X146585893Y-80808000D01*
X146740643Y-80838781D01*
X146740643Y-80838781D01*
G37*
G36*
X173729000Y-82283000D02*
X172127000Y-82283000D01*
X172127000Y-80681000D01*
X173729000Y-80681000D01*
X173729000Y-82283000D01*
X173729000Y-82283000D01*
G37*
G36*
X166740643Y-80259781D02*
X166886415Y-80320162D01*
X167017611Y-80407824D01*
X167129176Y-80519389D01*
X167216838Y-80650585D01*
X167277219Y-80796357D01*
X167308000Y-80951107D01*
X167308000Y-81108893D01*
X167277219Y-81263643D01*
X167216838Y-81409415D01*
X167129176Y-81540611D01*
X167017611Y-81652176D01*
X166886415Y-81739838D01*
X166740643Y-81800219D01*
X166585893Y-81831000D01*
X166428107Y-81831000D01*
X166273357Y-81800219D01*
X166127585Y-81739838D01*
X165996389Y-81652176D01*
X165884824Y-81540611D01*
X165797162Y-81409415D01*
X165736781Y-81263643D01*
X165706000Y-81108893D01*
X165706000Y-80951107D01*
X165736781Y-80796357D01*
X165797162Y-80650585D01*
X165884824Y-80519389D01*
X165996389Y-80407824D01*
X166127585Y-80320162D01*
X166273357Y-80259781D01*
X166428107Y-80229000D01*
X166585893Y-80229000D01*
X166740643Y-80259781D01*
X166740643Y-80259781D01*
G37*
G36*
X162345677Y-80283465D02*
X162383364Y-80294898D01*
X162418103Y-80313466D01*
X162448548Y-80338452D01*
X162473534Y-80368897D01*
X162492102Y-80403636D01*
X162503535Y-80441323D01*
X162508000Y-80486661D01*
X162508000Y-81573339D01*
X162503535Y-81618677D01*
X162492102Y-81656364D01*
X162473534Y-81691103D01*
X162448548Y-81721548D01*
X162418103Y-81746534D01*
X162383364Y-81765102D01*
X162345677Y-81776535D01*
X162300339Y-81781000D01*
X161463661Y-81781000D01*
X161418323Y-81776535D01*
X161380636Y-81765102D01*
X161345897Y-81746534D01*
X161315452Y-81721548D01*
X161290466Y-81691103D01*
X161271898Y-81656364D01*
X161260465Y-81618677D01*
X161256000Y-81573339D01*
X161256000Y-80486661D01*
X161260465Y-80441323D01*
X161271898Y-80403636D01*
X161290466Y-80368897D01*
X161315452Y-80338452D01*
X161345897Y-80313466D01*
X161380636Y-80294898D01*
X161418323Y-80283465D01*
X161463661Y-80279000D01*
X162300339Y-80279000D01*
X162345677Y-80283465D01*
X162345677Y-80283465D01*
G37*
G36*
X160158000Y-81781000D02*
X158756000Y-81781000D01*
X158756000Y-80379000D01*
X160158000Y-80379000D01*
X160158000Y-81781000D01*
X160158000Y-81781000D01*
G37*
G36*
X164395677Y-80283465D02*
X164433364Y-80294898D01*
X164468103Y-80313466D01*
X164498548Y-80338452D01*
X164523534Y-80368897D01*
X164542102Y-80403636D01*
X164553535Y-80441323D01*
X164558000Y-80486661D01*
X164558000Y-81573339D01*
X164553535Y-81618677D01*
X164542102Y-81656364D01*
X164523534Y-81691103D01*
X164498548Y-81721548D01*
X164468103Y-81746534D01*
X164433364Y-81765102D01*
X164395677Y-81776535D01*
X164350339Y-81781000D01*
X163513661Y-81781000D01*
X163468323Y-81776535D01*
X163430636Y-81765102D01*
X163395897Y-81746534D01*
X163365452Y-81721548D01*
X163340466Y-81691103D01*
X163321898Y-81656364D01*
X163310465Y-81618677D01*
X163306000Y-81573339D01*
X163306000Y-80486661D01*
X163310465Y-80441323D01*
X163321898Y-80403636D01*
X163340466Y-80368897D01*
X163365452Y-80338452D01*
X163395897Y-80313466D01*
X163430636Y-80294898D01*
X163468323Y-80283465D01*
X163513661Y-80279000D01*
X164350339Y-80279000D01*
X164395677Y-80283465D01*
X164395677Y-80283465D01*
G37*
G36*
X170621643Y-79441781D02*
X170767415Y-79502162D01*
X170898611Y-79589824D01*
X171010176Y-79701389D01*
X171097838Y-79832585D01*
X171158219Y-79978357D01*
X171189000Y-80133107D01*
X171189000Y-80290893D01*
X171158219Y-80445643D01*
X171097838Y-80591415D01*
X171010176Y-80722611D01*
X170898611Y-80834176D01*
X170767415Y-80921838D01*
X170621643Y-80982219D01*
X170466893Y-81013000D01*
X170309107Y-81013000D01*
X170154357Y-80982219D01*
X170008585Y-80921838D01*
X169877389Y-80834176D01*
X169765824Y-80722611D01*
X169678162Y-80591415D01*
X169617781Y-80445643D01*
X169587000Y-80290893D01*
X169587000Y-80133107D01*
X169617781Y-79978357D01*
X169678162Y-79832585D01*
X169765824Y-79701389D01*
X169877389Y-79589824D01*
X170008585Y-79502162D01*
X170154357Y-79441781D01*
X170309107Y-79411000D01*
X170466893Y-79411000D01*
X170621643Y-79441781D01*
X170621643Y-79441781D01*
G37*
G36*
X151595677Y-79483465D02*
X151633364Y-79494898D01*
X151668103Y-79513466D01*
X151698548Y-79538452D01*
X151723534Y-79568897D01*
X151742102Y-79603636D01*
X151753535Y-79641323D01*
X151758000Y-79686661D01*
X151758000Y-80773339D01*
X151753535Y-80818677D01*
X151742102Y-80856364D01*
X151723534Y-80891103D01*
X151698548Y-80921548D01*
X151668103Y-80946534D01*
X151633364Y-80965102D01*
X151595677Y-80976535D01*
X151550339Y-80981000D01*
X150713661Y-80981000D01*
X150668323Y-80976535D01*
X150630636Y-80965102D01*
X150595897Y-80946534D01*
X150565452Y-80921548D01*
X150540466Y-80891103D01*
X150521898Y-80856364D01*
X150510465Y-80818677D01*
X150506000Y-80773339D01*
X150506000Y-79686661D01*
X150510465Y-79641323D01*
X150521898Y-79603636D01*
X150540466Y-79568897D01*
X150565452Y-79538452D01*
X150595897Y-79513466D01*
X150630636Y-79494898D01*
X150668323Y-79483465D01*
X150713661Y-79479000D01*
X151550339Y-79479000D01*
X151595677Y-79483465D01*
X151595677Y-79483465D01*
G37*
G36*
X149545677Y-79483465D02*
X149583364Y-79494898D01*
X149618103Y-79513466D01*
X149648548Y-79538452D01*
X149673534Y-79568897D01*
X149692102Y-79603636D01*
X149703535Y-79641323D01*
X149708000Y-79686661D01*
X149708000Y-80773339D01*
X149703535Y-80818677D01*
X149692102Y-80856364D01*
X149673534Y-80891103D01*
X149648548Y-80921548D01*
X149618103Y-80946534D01*
X149583364Y-80965102D01*
X149545677Y-80976535D01*
X149500339Y-80981000D01*
X148663661Y-80981000D01*
X148618323Y-80976535D01*
X148580636Y-80965102D01*
X148545897Y-80946534D01*
X148515452Y-80921548D01*
X148490466Y-80891103D01*
X148471898Y-80856364D01*
X148460465Y-80818677D01*
X148456000Y-80773339D01*
X148456000Y-79686661D01*
X148460465Y-79641323D01*
X148471898Y-79603636D01*
X148490466Y-79568897D01*
X148515452Y-79538452D01*
X148545897Y-79513466D01*
X148580636Y-79494898D01*
X148618323Y-79483465D01*
X148663661Y-79479000D01*
X149500339Y-79479000D01*
X149545677Y-79483465D01*
X149545677Y-79483465D01*
G37*
G36*
X173161643Y-78171781D02*
X173307415Y-78232162D01*
X173438611Y-78319824D01*
X173550176Y-78431389D01*
X173637838Y-78562585D01*
X173698219Y-78708357D01*
X173729000Y-78863107D01*
X173729000Y-79020893D01*
X173698219Y-79175643D01*
X173637838Y-79321415D01*
X173550176Y-79452611D01*
X173438611Y-79564176D01*
X173307415Y-79651838D01*
X173161643Y-79712219D01*
X173006893Y-79743000D01*
X172849107Y-79743000D01*
X172694357Y-79712219D01*
X172548585Y-79651838D01*
X172417389Y-79564176D01*
X172305824Y-79452611D01*
X172218162Y-79321415D01*
X172157781Y-79175643D01*
X172127000Y-79020893D01*
X172127000Y-78863107D01*
X172157781Y-78708357D01*
X172218162Y-78562585D01*
X172305824Y-78431389D01*
X172417389Y-78319824D01*
X172548585Y-78232162D01*
X172694357Y-78171781D01*
X172849107Y-78141000D01*
X173006893Y-78141000D01*
X173161643Y-78171781D01*
X173161643Y-78171781D01*
G37*
G36*
X170621643Y-76901781D02*
X170767415Y-76962162D01*
X170898611Y-77049824D01*
X171010176Y-77161389D01*
X171097838Y-77292585D01*
X171158219Y-77438357D01*
X171189000Y-77593107D01*
X171189000Y-77750893D01*
X171158219Y-77905643D01*
X171097838Y-78051415D01*
X171010176Y-78182611D01*
X170898611Y-78294176D01*
X170767415Y-78381838D01*
X170621643Y-78442219D01*
X170466893Y-78473000D01*
X170309107Y-78473000D01*
X170154357Y-78442219D01*
X170008585Y-78381838D01*
X169877389Y-78294176D01*
X169765824Y-78182611D01*
X169678162Y-78051415D01*
X169617781Y-77905643D01*
X169587000Y-77750893D01*
X169587000Y-77593107D01*
X169617781Y-77438357D01*
X169678162Y-77292585D01*
X169765824Y-77161389D01*
X169877389Y-77049824D01*
X170008585Y-76962162D01*
X170154357Y-76901781D01*
X170309107Y-76871000D01*
X170466893Y-76871000D01*
X170621643Y-76901781D01*
X170621643Y-76901781D01*
G37*
G36*
X146740643Y-76659781D02*
X146886415Y-76720162D01*
X147017611Y-76807824D01*
X147129176Y-76919389D01*
X147216838Y-77050585D01*
X147277219Y-77196357D01*
X147308000Y-77351107D01*
X147308000Y-77508893D01*
X147277219Y-77663643D01*
X147216838Y-77809415D01*
X147129176Y-77940611D01*
X147017611Y-78052176D01*
X146886415Y-78139838D01*
X146740643Y-78200219D01*
X146585893Y-78231000D01*
X146428107Y-78231000D01*
X146273357Y-78200219D01*
X146127585Y-78139838D01*
X145996389Y-78052176D01*
X145884824Y-77940611D01*
X145797162Y-77809415D01*
X145736781Y-77663643D01*
X145706000Y-77508893D01*
X145706000Y-77351107D01*
X145736781Y-77196357D01*
X145797162Y-77050585D01*
X145884824Y-76919389D01*
X145996389Y-76807824D01*
X146127585Y-76720162D01*
X146273357Y-76659781D01*
X146428107Y-76629000D01*
X146585893Y-76629000D01*
X146740643Y-76659781D01*
X146740643Y-76659781D01*
G37*
G36*
X151620677Y-76683465D02*
X151658364Y-76694898D01*
X151693103Y-76713466D01*
X151723548Y-76738452D01*
X151748534Y-76768897D01*
X151767102Y-76803636D01*
X151778535Y-76841323D01*
X151783000Y-76886661D01*
X151783000Y-77973339D01*
X151778535Y-78018677D01*
X151767102Y-78056364D01*
X151748534Y-78091103D01*
X151723548Y-78121548D01*
X151693103Y-78146534D01*
X151658364Y-78165102D01*
X151620677Y-78176535D01*
X151575339Y-78181000D01*
X150738661Y-78181000D01*
X150693323Y-78176535D01*
X150655636Y-78165102D01*
X150620897Y-78146534D01*
X150590452Y-78121548D01*
X150565466Y-78091103D01*
X150546898Y-78056364D01*
X150535465Y-78018677D01*
X150531000Y-77973339D01*
X150531000Y-76886661D01*
X150535465Y-76841323D01*
X150546898Y-76803636D01*
X150565466Y-76768897D01*
X150590452Y-76738452D01*
X150620897Y-76713466D01*
X150655636Y-76694898D01*
X150693323Y-76683465D01*
X150738661Y-76679000D01*
X151575339Y-76679000D01*
X151620677Y-76683465D01*
X151620677Y-76683465D01*
G37*
G36*
X149570677Y-76683465D02*
X149608364Y-76694898D01*
X149643103Y-76713466D01*
X149673548Y-76738452D01*
X149698534Y-76768897D01*
X149717102Y-76803636D01*
X149728535Y-76841323D01*
X149733000Y-76886661D01*
X149733000Y-77973339D01*
X149728535Y-78018677D01*
X149717102Y-78056364D01*
X149698534Y-78091103D01*
X149673548Y-78121548D01*
X149643103Y-78146534D01*
X149608364Y-78165102D01*
X149570677Y-78176535D01*
X149525339Y-78181000D01*
X148688661Y-78181000D01*
X148643323Y-78176535D01*
X148605636Y-78165102D01*
X148570897Y-78146534D01*
X148540452Y-78121548D01*
X148515466Y-78091103D01*
X148496898Y-78056364D01*
X148485465Y-78018677D01*
X148481000Y-77973339D01*
X148481000Y-76886661D01*
X148485465Y-76841323D01*
X148496898Y-76803636D01*
X148515466Y-76768897D01*
X148540452Y-76738452D01*
X148570897Y-76713466D01*
X148605636Y-76694898D01*
X148643323Y-76683465D01*
X148688661Y-76679000D01*
X149525339Y-76679000D01*
X149570677Y-76683465D01*
X149570677Y-76683465D01*
G37*
G36*
X154658000Y-78081000D02*
X153256000Y-78081000D01*
X153256000Y-76679000D01*
X154658000Y-76679000D01*
X154658000Y-78081000D01*
X154658000Y-78081000D01*
G37*
G36*
X173161643Y-75631781D02*
X173307415Y-75692162D01*
X173438611Y-75779824D01*
X173550176Y-75891389D01*
X173637838Y-76022585D01*
X173698219Y-76168357D01*
X173729000Y-76323107D01*
X173729000Y-76480893D01*
X173698219Y-76635643D01*
X173637838Y-76781415D01*
X173550176Y-76912611D01*
X173438611Y-77024176D01*
X173307415Y-77111838D01*
X173161643Y-77172219D01*
X173006893Y-77203000D01*
X172849107Y-77203000D01*
X172694357Y-77172219D01*
X172548585Y-77111838D01*
X172417389Y-77024176D01*
X172305824Y-76912611D01*
X172218162Y-76781415D01*
X172157781Y-76635643D01*
X172127000Y-76480893D01*
X172127000Y-76323107D01*
X172157781Y-76168357D01*
X172218162Y-76022585D01*
X172305824Y-75891389D01*
X172417389Y-75779824D01*
X172548585Y-75692162D01*
X172694357Y-75631781D01*
X172849107Y-75601000D01*
X173006893Y-75601000D01*
X173161643Y-75631781D01*
X173161643Y-75631781D01*
G37*
G36*
X166740643Y-75459781D02*
X166886415Y-75520162D01*
X167017611Y-75607824D01*
X167129176Y-75719389D01*
X167216838Y-75850585D01*
X167277219Y-75996357D01*
X167308000Y-76151107D01*
X167308000Y-76308893D01*
X167277219Y-76463643D01*
X167216838Y-76609415D01*
X167129176Y-76740611D01*
X167017611Y-76852176D01*
X166886415Y-76939838D01*
X166740643Y-77000219D01*
X166585893Y-77031000D01*
X166428107Y-77031000D01*
X166273357Y-77000219D01*
X166127585Y-76939838D01*
X165996389Y-76852176D01*
X165884824Y-76740611D01*
X165797162Y-76609415D01*
X165736781Y-76463643D01*
X165706000Y-76308893D01*
X165706000Y-76151107D01*
X165736781Y-75996357D01*
X165797162Y-75850585D01*
X165884824Y-75719389D01*
X165996389Y-75607824D01*
X166127585Y-75520162D01*
X166273357Y-75459781D01*
X166428107Y-75429000D01*
X166585893Y-75429000D01*
X166740643Y-75459781D01*
X166740643Y-75459781D01*
G37*
G36*
X162413677Y-75503465D02*
X162451364Y-75514898D01*
X162486103Y-75533466D01*
X162516548Y-75558452D01*
X162541534Y-75588897D01*
X162560102Y-75623636D01*
X162571535Y-75661323D01*
X162576000Y-75706661D01*
X162576000Y-76793339D01*
X162571535Y-76838677D01*
X162560102Y-76876364D01*
X162541534Y-76911103D01*
X162516548Y-76941548D01*
X162486103Y-76966534D01*
X162451364Y-76985102D01*
X162413677Y-76996535D01*
X162368339Y-77001000D01*
X161531661Y-77001000D01*
X161486323Y-76996535D01*
X161448636Y-76985102D01*
X161413897Y-76966534D01*
X161383452Y-76941548D01*
X161358466Y-76911103D01*
X161339898Y-76876364D01*
X161328465Y-76838677D01*
X161324000Y-76793339D01*
X161324000Y-75706661D01*
X161328465Y-75661323D01*
X161339898Y-75623636D01*
X161358466Y-75588897D01*
X161383452Y-75558452D01*
X161413897Y-75533466D01*
X161448636Y-75514898D01*
X161486323Y-75503465D01*
X161531661Y-75499000D01*
X162368339Y-75499000D01*
X162413677Y-75503465D01*
X162413677Y-75503465D01*
G37*
G36*
X164463677Y-75503465D02*
X164501364Y-75514898D01*
X164536103Y-75533466D01*
X164566548Y-75558452D01*
X164591534Y-75588897D01*
X164610102Y-75623636D01*
X164621535Y-75661323D01*
X164626000Y-75706661D01*
X164626000Y-76793339D01*
X164621535Y-76838677D01*
X164610102Y-76876364D01*
X164591534Y-76911103D01*
X164566548Y-76941548D01*
X164536103Y-76966534D01*
X164501364Y-76985102D01*
X164463677Y-76996535D01*
X164418339Y-77001000D01*
X163581661Y-77001000D01*
X163536323Y-76996535D01*
X163498636Y-76985102D01*
X163463897Y-76966534D01*
X163433452Y-76941548D01*
X163408466Y-76911103D01*
X163389898Y-76876364D01*
X163378465Y-76838677D01*
X163374000Y-76793339D01*
X163374000Y-75706661D01*
X163378465Y-75661323D01*
X163389898Y-75623636D01*
X163408466Y-75588897D01*
X163433452Y-75558452D01*
X163463897Y-75533466D01*
X163498636Y-75514898D01*
X163536323Y-75503465D01*
X163581661Y-75499000D01*
X164418339Y-75499000D01*
X164463677Y-75503465D01*
X164463677Y-75503465D01*
G37*
G36*
X160508000Y-76931000D02*
X158406000Y-76931000D01*
X158406000Y-75529000D01*
X160508000Y-75529000D01*
X160508000Y-76931000D01*
X160508000Y-76931000D01*
G37*
G36*
X170621643Y-74361781D02*
X170767415Y-74422162D01*
X170898611Y-74509824D01*
X171010176Y-74621389D01*
X171097838Y-74752585D01*
X171158219Y-74898357D01*
X171189000Y-75053107D01*
X171189000Y-75210893D01*
X171158219Y-75365643D01*
X171097838Y-75511415D01*
X171010176Y-75642611D01*
X170898611Y-75754176D01*
X170767415Y-75841838D01*
X170621643Y-75902219D01*
X170466893Y-75933000D01*
X170309107Y-75933000D01*
X170154357Y-75902219D01*
X170008585Y-75841838D01*
X169877389Y-75754176D01*
X169765824Y-75642611D01*
X169678162Y-75511415D01*
X169617781Y-75365643D01*
X169587000Y-75210893D01*
X169587000Y-75053107D01*
X169617781Y-74898357D01*
X169678162Y-74752585D01*
X169765824Y-74621389D01*
X169877389Y-74509824D01*
X170008585Y-74422162D01*
X170154357Y-74361781D01*
X170309107Y-74331000D01*
X170466893Y-74331000D01*
X170621643Y-74361781D01*
X170621643Y-74361781D01*
G37*
G36*
X154658000Y-75781000D02*
X153256000Y-75781000D01*
X153256000Y-74379000D01*
X154658000Y-74379000D01*
X154658000Y-75781000D01*
X154658000Y-75781000D01*
G37*
G36*
X146740643Y-74059781D02*
X146886415Y-74120162D01*
X147017611Y-74207824D01*
X147129176Y-74319389D01*
X147216838Y-74450585D01*
X147277219Y-74596357D01*
X147308000Y-74751107D01*
X147308000Y-74908893D01*
X147277219Y-75063643D01*
X147216838Y-75209415D01*
X147129176Y-75340611D01*
X147017611Y-75452176D01*
X146886415Y-75539838D01*
X146740643Y-75600219D01*
X146585893Y-75631000D01*
X146428107Y-75631000D01*
X146273357Y-75600219D01*
X146127585Y-75539838D01*
X145996389Y-75452176D01*
X145884824Y-75340611D01*
X145797162Y-75209415D01*
X145736781Y-75063643D01*
X145706000Y-74908893D01*
X145706000Y-74751107D01*
X145736781Y-74596357D01*
X145797162Y-74450585D01*
X145884824Y-74319389D01*
X145996389Y-74207824D01*
X146127585Y-74120162D01*
X146273357Y-74059781D01*
X146428107Y-74029000D01*
X146585893Y-74029000D01*
X146740643Y-74059781D01*
X146740643Y-74059781D01*
G37*
G36*
X164463677Y-73253465D02*
X164501364Y-73264898D01*
X164536103Y-73283466D01*
X164566548Y-73308452D01*
X164591534Y-73338897D01*
X164610102Y-73373636D01*
X164621535Y-73411323D01*
X164626000Y-73456661D01*
X164626000Y-74543339D01*
X164621535Y-74588677D01*
X164610102Y-74626364D01*
X164591534Y-74661103D01*
X164566548Y-74691548D01*
X164536103Y-74716534D01*
X164501364Y-74735102D01*
X164463677Y-74746535D01*
X164418339Y-74751000D01*
X163581661Y-74751000D01*
X163536323Y-74746535D01*
X163498636Y-74735102D01*
X163463897Y-74716534D01*
X163433452Y-74691548D01*
X163408466Y-74661103D01*
X163389898Y-74626364D01*
X163378465Y-74588677D01*
X163374000Y-74543339D01*
X163374000Y-73456661D01*
X163378465Y-73411323D01*
X163389898Y-73373636D01*
X163408466Y-73338897D01*
X163433452Y-73308452D01*
X163463897Y-73283466D01*
X163498636Y-73264898D01*
X163536323Y-73253465D01*
X163581661Y-73249000D01*
X164418339Y-73249000D01*
X164463677Y-73253465D01*
X164463677Y-73253465D01*
G37*
G36*
X162413677Y-73253465D02*
X162451364Y-73264898D01*
X162486103Y-73283466D01*
X162516548Y-73308452D01*
X162541534Y-73338897D01*
X162560102Y-73373636D01*
X162571535Y-73411323D01*
X162576000Y-73456661D01*
X162576000Y-74543339D01*
X162571535Y-74588677D01*
X162560102Y-74626364D01*
X162541534Y-74661103D01*
X162516548Y-74691548D01*
X162486103Y-74716534D01*
X162451364Y-74735102D01*
X162413677Y-74746535D01*
X162368339Y-74751000D01*
X161531661Y-74751000D01*
X161486323Y-74746535D01*
X161448636Y-74735102D01*
X161413897Y-74716534D01*
X161383452Y-74691548D01*
X161358466Y-74661103D01*
X161339898Y-74626364D01*
X161328465Y-74588677D01*
X161324000Y-74543339D01*
X161324000Y-73456661D01*
X161328465Y-73411323D01*
X161339898Y-73373636D01*
X161358466Y-73338897D01*
X161383452Y-73308452D01*
X161413897Y-73283466D01*
X161448636Y-73264898D01*
X161486323Y-73253465D01*
X161531661Y-73249000D01*
X162368339Y-73249000D01*
X162413677Y-73253465D01*
X162413677Y-73253465D01*
G37*
G36*
X173161643Y-73091781D02*
X173307415Y-73152162D01*
X173438611Y-73239824D01*
X173550176Y-73351389D01*
X173637838Y-73482585D01*
X173698219Y-73628357D01*
X173729000Y-73783107D01*
X173729000Y-73940893D01*
X173698219Y-74095643D01*
X173637838Y-74241415D01*
X173550176Y-74372611D01*
X173438611Y-74484176D01*
X173307415Y-74571838D01*
X173161643Y-74632219D01*
X173006893Y-74663000D01*
X172849107Y-74663000D01*
X172694357Y-74632219D01*
X172548585Y-74571838D01*
X172417389Y-74484176D01*
X172305824Y-74372611D01*
X172218162Y-74241415D01*
X172157781Y-74095643D01*
X172127000Y-73940893D01*
X172127000Y-73783107D01*
X172157781Y-73628357D01*
X172218162Y-73482585D01*
X172305824Y-73351389D01*
X172417389Y-73239824D01*
X172548585Y-73152162D01*
X172694357Y-73091781D01*
X172849107Y-73061000D01*
X173006893Y-73061000D01*
X173161643Y-73091781D01*
X173161643Y-73091781D01*
G37*
G36*
X170621643Y-71821781D02*
X170767415Y-71882162D01*
X170898611Y-71969824D01*
X171010176Y-72081389D01*
X171097838Y-72212585D01*
X171158219Y-72358357D01*
X171189000Y-72513107D01*
X171189000Y-72670893D01*
X171158219Y-72825643D01*
X171097838Y-72971415D01*
X171010176Y-73102611D01*
X170898611Y-73214176D01*
X170767415Y-73301838D01*
X170621643Y-73362219D01*
X170466893Y-73393000D01*
X170309107Y-73393000D01*
X170154357Y-73362219D01*
X170008585Y-73301838D01*
X169877389Y-73214176D01*
X169765824Y-73102611D01*
X169678162Y-72971415D01*
X169617781Y-72825643D01*
X169587000Y-72670893D01*
X169587000Y-72513107D01*
X169617781Y-72358357D01*
X169678162Y-72212585D01*
X169765824Y-72081389D01*
X169877389Y-71969824D01*
X170008585Y-71882162D01*
X170154357Y-71821781D01*
X170309107Y-71791000D01*
X170466893Y-71791000D01*
X170621643Y-71821781D01*
X170621643Y-71821781D01*
G37*
G36*
X179653256Y-69713298D02*
X179759579Y-69734447D01*
X180060042Y-69858903D01*
X180326852Y-70037180D01*
X180330454Y-70039587D01*
X180560413Y-70269546D01*
X180560415Y-70269549D01*
X180741097Y-70539958D01*
X180820469Y-70731578D01*
X180865553Y-70840422D01*
X180929000Y-71159389D01*
X180929000Y-71484611D01*
X180919491Y-71532415D01*
X180865553Y-71803579D01*
X180741097Y-72104042D01*
X180571169Y-72358357D01*
X180560413Y-72374454D01*
X180330454Y-72604413D01*
X180330451Y-72604415D01*
X180060042Y-72785097D01*
X179759579Y-72909553D01*
X179653256Y-72930702D01*
X179440611Y-72973000D01*
X179115389Y-72973000D01*
X178902744Y-72930702D01*
X178796421Y-72909553D01*
X178495958Y-72785097D01*
X178225549Y-72604415D01*
X178225546Y-72604413D01*
X177995587Y-72374454D01*
X177984831Y-72358357D01*
X177814903Y-72104042D01*
X177690447Y-71803579D01*
X177636509Y-71532415D01*
X177627000Y-71484611D01*
X177627000Y-71159389D01*
X177690447Y-70840422D01*
X177735532Y-70731578D01*
X177814903Y-70539958D01*
X177995585Y-70269549D01*
X177995587Y-70269546D01*
X178225546Y-70039587D01*
X178229148Y-70037180D01*
X178495958Y-69858903D01*
X178796421Y-69734447D01*
X178902744Y-69713298D01*
X179115389Y-69671000D01*
X179440611Y-69671000D01*
X179653256Y-69713298D01*
X179653256Y-69713298D01*
G37*
G36*
X157625256Y-68641298D02*
X157731579Y-68662447D01*
X158032042Y-68786903D01*
X158298852Y-68965180D01*
X158302454Y-68967587D01*
X158532413Y-69197546D01*
X158713098Y-69467960D01*
X158837553Y-69768422D01*
X158901000Y-70087389D01*
X158901000Y-70412611D01*
X158858702Y-70625256D01*
X158837553Y-70731579D01*
X158749550Y-70944037D01*
X158713098Y-71032040D01*
X158532413Y-71302454D01*
X158302454Y-71532413D01*
X158302451Y-71532415D01*
X158032042Y-71713097D01*
X157731579Y-71837553D01*
X157625256Y-71858702D01*
X157412611Y-71901000D01*
X157087389Y-71901000D01*
X156874744Y-71858702D01*
X156768421Y-71837553D01*
X156467958Y-71713097D01*
X156197549Y-71532415D01*
X156197546Y-71532413D01*
X155967587Y-71302454D01*
X155786902Y-71032040D01*
X155750450Y-70944037D01*
X155662447Y-70731579D01*
X155641298Y-70625256D01*
X155599000Y-70412611D01*
X155599000Y-70087389D01*
X155662447Y-69768422D01*
X155786902Y-69467960D01*
X155967587Y-69197546D01*
X156197546Y-68967587D01*
X156201148Y-68965180D01*
X156467958Y-68786903D01*
X156768421Y-68662447D01*
X156874744Y-68641298D01*
X157087389Y-68599000D01*
X157412611Y-68599000D01*
X157625256Y-68641298D01*
X157625256Y-68641298D01*
G37*
G36*
X140501000Y-68751000D02*
X136399000Y-68751000D01*
X136399000Y-64649000D01*
X140501000Y-64649000D01*
X140501000Y-68751000D01*
X140501000Y-68751000D01*
G37*
M02*
