G04 #@! TF.GenerationSoftware,KiCad,Pcbnew,5.0.2+dfsg1-1*
G04 #@! TF.CreationDate,2019-05-10T18:20:53+02:00*
G04 #@! TF.ProjectId,bt-trx-dev-board,62742d74-7278-42d6-9465-762d626f6172,2.0*
G04 #@! TF.SameCoordinates,Original*
G04 #@! TF.FileFunction,Paste,Top*
G04 #@! TF.FilePolarity,Positive*
%FSLAX46Y46*%
G04 Gerber Fmt 4.6, Leading zero omitted, Abs format (unit mm)*
G04 Created by KiCad (PCBNEW 5.0.2+dfsg1-1) date Fri 10 May 2019 06:20:53 PM CEST*
%MOMM*%
%LPD*%
G01*
G04 APERTURE LIST*
%ADD10C,0.100000*%
%ADD11C,1.150000*%
%ADD12C,1.425000*%
%ADD13R,3.400000X1.350000*%
%ADD14R,0.600000X1.750000*%
%ADD15R,0.600000X2.000000*%
%ADD16R,1.750000X0.600000*%
%ADD17R,2.000000X0.600000*%
%ADD18R,2.000000X3.800000*%
%ADD19R,2.000000X1.500000*%
%ADD20R,2.500000X1.800000*%
%ADD21R,1.300000X1.300000*%
%ADD22R,2.000000X1.300000*%
%ADD23C,0.900000*%
%ADD24R,2.300000X2.500000*%
%ADD25C,2.500000*%
%ADD26R,1.800000X2.500000*%
G04 APERTURE END LIST*
D10*
G04 #@! TO.C,C1*
G36*
X149456505Y-76731204D02*
X149480773Y-76734804D01*
X149504572Y-76740765D01*
X149527671Y-76749030D01*
X149549850Y-76759520D01*
X149570893Y-76772132D01*
X149590599Y-76786747D01*
X149608777Y-76803223D01*
X149625253Y-76821401D01*
X149639868Y-76841107D01*
X149652480Y-76862150D01*
X149662970Y-76884329D01*
X149671235Y-76907428D01*
X149677196Y-76931227D01*
X149680796Y-76955495D01*
X149682000Y-76979999D01*
X149682000Y-77880001D01*
X149680796Y-77904505D01*
X149677196Y-77928773D01*
X149671235Y-77952572D01*
X149662970Y-77975671D01*
X149652480Y-77997850D01*
X149639868Y-78018893D01*
X149625253Y-78038599D01*
X149608777Y-78056777D01*
X149590599Y-78073253D01*
X149570893Y-78087868D01*
X149549850Y-78100480D01*
X149527671Y-78110970D01*
X149504572Y-78119235D01*
X149480773Y-78125196D01*
X149456505Y-78128796D01*
X149432001Y-78130000D01*
X148781999Y-78130000D01*
X148757495Y-78128796D01*
X148733227Y-78125196D01*
X148709428Y-78119235D01*
X148686329Y-78110970D01*
X148664150Y-78100480D01*
X148643107Y-78087868D01*
X148623401Y-78073253D01*
X148605223Y-78056777D01*
X148588747Y-78038599D01*
X148574132Y-78018893D01*
X148561520Y-77997850D01*
X148551030Y-77975671D01*
X148542765Y-77952572D01*
X148536804Y-77928773D01*
X148533204Y-77904505D01*
X148532000Y-77880001D01*
X148532000Y-76979999D01*
X148533204Y-76955495D01*
X148536804Y-76931227D01*
X148542765Y-76907428D01*
X148551030Y-76884329D01*
X148561520Y-76862150D01*
X148574132Y-76841107D01*
X148588747Y-76821401D01*
X148605223Y-76803223D01*
X148623401Y-76786747D01*
X148643107Y-76772132D01*
X148664150Y-76759520D01*
X148686329Y-76749030D01*
X148709428Y-76740765D01*
X148733227Y-76734804D01*
X148757495Y-76731204D01*
X148781999Y-76730000D01*
X149432001Y-76730000D01*
X149456505Y-76731204D01*
X149456505Y-76731204D01*
G37*
D11*
X149107000Y-77430000D03*
D10*
G36*
X151506505Y-76731204D02*
X151530773Y-76734804D01*
X151554572Y-76740765D01*
X151577671Y-76749030D01*
X151599850Y-76759520D01*
X151620893Y-76772132D01*
X151640599Y-76786747D01*
X151658777Y-76803223D01*
X151675253Y-76821401D01*
X151689868Y-76841107D01*
X151702480Y-76862150D01*
X151712970Y-76884329D01*
X151721235Y-76907428D01*
X151727196Y-76931227D01*
X151730796Y-76955495D01*
X151732000Y-76979999D01*
X151732000Y-77880001D01*
X151730796Y-77904505D01*
X151727196Y-77928773D01*
X151721235Y-77952572D01*
X151712970Y-77975671D01*
X151702480Y-77997850D01*
X151689868Y-78018893D01*
X151675253Y-78038599D01*
X151658777Y-78056777D01*
X151640599Y-78073253D01*
X151620893Y-78087868D01*
X151599850Y-78100480D01*
X151577671Y-78110970D01*
X151554572Y-78119235D01*
X151530773Y-78125196D01*
X151506505Y-78128796D01*
X151482001Y-78130000D01*
X150831999Y-78130000D01*
X150807495Y-78128796D01*
X150783227Y-78125196D01*
X150759428Y-78119235D01*
X150736329Y-78110970D01*
X150714150Y-78100480D01*
X150693107Y-78087868D01*
X150673401Y-78073253D01*
X150655223Y-78056777D01*
X150638747Y-78038599D01*
X150624132Y-78018893D01*
X150611520Y-77997850D01*
X150601030Y-77975671D01*
X150592765Y-77952572D01*
X150586804Y-77928773D01*
X150583204Y-77904505D01*
X150582000Y-77880001D01*
X150582000Y-76979999D01*
X150583204Y-76955495D01*
X150586804Y-76931227D01*
X150592765Y-76907428D01*
X150601030Y-76884329D01*
X150611520Y-76862150D01*
X150624132Y-76841107D01*
X150638747Y-76821401D01*
X150655223Y-76803223D01*
X150673401Y-76786747D01*
X150693107Y-76772132D01*
X150714150Y-76759520D01*
X150736329Y-76749030D01*
X150759428Y-76740765D01*
X150783227Y-76734804D01*
X150807495Y-76731204D01*
X150831999Y-76730000D01*
X151482001Y-76730000D01*
X151506505Y-76731204D01*
X151506505Y-76731204D01*
G37*
D11*
X151157000Y-77430000D03*
G04 #@! TD*
D10*
G04 #@! TO.C,C2*
G36*
X151456505Y-83531204D02*
X151480773Y-83534804D01*
X151504572Y-83540765D01*
X151527671Y-83549030D01*
X151549850Y-83559520D01*
X151570893Y-83572132D01*
X151590599Y-83586747D01*
X151608777Y-83603223D01*
X151625253Y-83621401D01*
X151639868Y-83641107D01*
X151652480Y-83662150D01*
X151662970Y-83684329D01*
X151671235Y-83707428D01*
X151677196Y-83731227D01*
X151680796Y-83755495D01*
X151682000Y-83779999D01*
X151682000Y-84680001D01*
X151680796Y-84704505D01*
X151677196Y-84728773D01*
X151671235Y-84752572D01*
X151662970Y-84775671D01*
X151652480Y-84797850D01*
X151639868Y-84818893D01*
X151625253Y-84838599D01*
X151608777Y-84856777D01*
X151590599Y-84873253D01*
X151570893Y-84887868D01*
X151549850Y-84900480D01*
X151527671Y-84910970D01*
X151504572Y-84919235D01*
X151480773Y-84925196D01*
X151456505Y-84928796D01*
X151432001Y-84930000D01*
X150781999Y-84930000D01*
X150757495Y-84928796D01*
X150733227Y-84925196D01*
X150709428Y-84919235D01*
X150686329Y-84910970D01*
X150664150Y-84900480D01*
X150643107Y-84887868D01*
X150623401Y-84873253D01*
X150605223Y-84856777D01*
X150588747Y-84838599D01*
X150574132Y-84818893D01*
X150561520Y-84797850D01*
X150551030Y-84775671D01*
X150542765Y-84752572D01*
X150536804Y-84728773D01*
X150533204Y-84704505D01*
X150532000Y-84680001D01*
X150532000Y-83779999D01*
X150533204Y-83755495D01*
X150536804Y-83731227D01*
X150542765Y-83707428D01*
X150551030Y-83684329D01*
X150561520Y-83662150D01*
X150574132Y-83641107D01*
X150588747Y-83621401D01*
X150605223Y-83603223D01*
X150623401Y-83586747D01*
X150643107Y-83572132D01*
X150664150Y-83559520D01*
X150686329Y-83549030D01*
X150709428Y-83540765D01*
X150733227Y-83534804D01*
X150757495Y-83531204D01*
X150781999Y-83530000D01*
X151432001Y-83530000D01*
X151456505Y-83531204D01*
X151456505Y-83531204D01*
G37*
D11*
X151107000Y-84230000D03*
D10*
G36*
X149406505Y-83531204D02*
X149430773Y-83534804D01*
X149454572Y-83540765D01*
X149477671Y-83549030D01*
X149499850Y-83559520D01*
X149520893Y-83572132D01*
X149540599Y-83586747D01*
X149558777Y-83603223D01*
X149575253Y-83621401D01*
X149589868Y-83641107D01*
X149602480Y-83662150D01*
X149612970Y-83684329D01*
X149621235Y-83707428D01*
X149627196Y-83731227D01*
X149630796Y-83755495D01*
X149632000Y-83779999D01*
X149632000Y-84680001D01*
X149630796Y-84704505D01*
X149627196Y-84728773D01*
X149621235Y-84752572D01*
X149612970Y-84775671D01*
X149602480Y-84797850D01*
X149589868Y-84818893D01*
X149575253Y-84838599D01*
X149558777Y-84856777D01*
X149540599Y-84873253D01*
X149520893Y-84887868D01*
X149499850Y-84900480D01*
X149477671Y-84910970D01*
X149454572Y-84919235D01*
X149430773Y-84925196D01*
X149406505Y-84928796D01*
X149382001Y-84930000D01*
X148731999Y-84930000D01*
X148707495Y-84928796D01*
X148683227Y-84925196D01*
X148659428Y-84919235D01*
X148636329Y-84910970D01*
X148614150Y-84900480D01*
X148593107Y-84887868D01*
X148573401Y-84873253D01*
X148555223Y-84856777D01*
X148538747Y-84838599D01*
X148524132Y-84818893D01*
X148511520Y-84797850D01*
X148501030Y-84775671D01*
X148492765Y-84752572D01*
X148486804Y-84728773D01*
X148483204Y-84704505D01*
X148482000Y-84680001D01*
X148482000Y-83779999D01*
X148483204Y-83755495D01*
X148486804Y-83731227D01*
X148492765Y-83707428D01*
X148501030Y-83684329D01*
X148511520Y-83662150D01*
X148524132Y-83641107D01*
X148538747Y-83621401D01*
X148555223Y-83603223D01*
X148573401Y-83586747D01*
X148593107Y-83572132D01*
X148614150Y-83559520D01*
X148636329Y-83549030D01*
X148659428Y-83540765D01*
X148683227Y-83534804D01*
X148707495Y-83531204D01*
X148731999Y-83530000D01*
X149382001Y-83530000D01*
X149406505Y-83531204D01*
X149406505Y-83531204D01*
G37*
D11*
X149057000Y-84230000D03*
G04 #@! TD*
D10*
G04 #@! TO.C,C3*
G36*
X151481505Y-81531204D02*
X151505773Y-81534804D01*
X151529572Y-81540765D01*
X151552671Y-81549030D01*
X151574850Y-81559520D01*
X151595893Y-81572132D01*
X151615599Y-81586747D01*
X151633777Y-81603223D01*
X151650253Y-81621401D01*
X151664868Y-81641107D01*
X151677480Y-81662150D01*
X151687970Y-81684329D01*
X151696235Y-81707428D01*
X151702196Y-81731227D01*
X151705796Y-81755495D01*
X151707000Y-81779999D01*
X151707000Y-82680001D01*
X151705796Y-82704505D01*
X151702196Y-82728773D01*
X151696235Y-82752572D01*
X151687970Y-82775671D01*
X151677480Y-82797850D01*
X151664868Y-82818893D01*
X151650253Y-82838599D01*
X151633777Y-82856777D01*
X151615599Y-82873253D01*
X151595893Y-82887868D01*
X151574850Y-82900480D01*
X151552671Y-82910970D01*
X151529572Y-82919235D01*
X151505773Y-82925196D01*
X151481505Y-82928796D01*
X151457001Y-82930000D01*
X150806999Y-82930000D01*
X150782495Y-82928796D01*
X150758227Y-82925196D01*
X150734428Y-82919235D01*
X150711329Y-82910970D01*
X150689150Y-82900480D01*
X150668107Y-82887868D01*
X150648401Y-82873253D01*
X150630223Y-82856777D01*
X150613747Y-82838599D01*
X150599132Y-82818893D01*
X150586520Y-82797850D01*
X150576030Y-82775671D01*
X150567765Y-82752572D01*
X150561804Y-82728773D01*
X150558204Y-82704505D01*
X150557000Y-82680001D01*
X150557000Y-81779999D01*
X150558204Y-81755495D01*
X150561804Y-81731227D01*
X150567765Y-81707428D01*
X150576030Y-81684329D01*
X150586520Y-81662150D01*
X150599132Y-81641107D01*
X150613747Y-81621401D01*
X150630223Y-81603223D01*
X150648401Y-81586747D01*
X150668107Y-81572132D01*
X150689150Y-81559520D01*
X150711329Y-81549030D01*
X150734428Y-81540765D01*
X150758227Y-81534804D01*
X150782495Y-81531204D01*
X150806999Y-81530000D01*
X151457001Y-81530000D01*
X151481505Y-81531204D01*
X151481505Y-81531204D01*
G37*
D11*
X151132000Y-82230000D03*
D10*
G36*
X149431505Y-81531204D02*
X149455773Y-81534804D01*
X149479572Y-81540765D01*
X149502671Y-81549030D01*
X149524850Y-81559520D01*
X149545893Y-81572132D01*
X149565599Y-81586747D01*
X149583777Y-81603223D01*
X149600253Y-81621401D01*
X149614868Y-81641107D01*
X149627480Y-81662150D01*
X149637970Y-81684329D01*
X149646235Y-81707428D01*
X149652196Y-81731227D01*
X149655796Y-81755495D01*
X149657000Y-81779999D01*
X149657000Y-82680001D01*
X149655796Y-82704505D01*
X149652196Y-82728773D01*
X149646235Y-82752572D01*
X149637970Y-82775671D01*
X149627480Y-82797850D01*
X149614868Y-82818893D01*
X149600253Y-82838599D01*
X149583777Y-82856777D01*
X149565599Y-82873253D01*
X149545893Y-82887868D01*
X149524850Y-82900480D01*
X149502671Y-82910970D01*
X149479572Y-82919235D01*
X149455773Y-82925196D01*
X149431505Y-82928796D01*
X149407001Y-82930000D01*
X148756999Y-82930000D01*
X148732495Y-82928796D01*
X148708227Y-82925196D01*
X148684428Y-82919235D01*
X148661329Y-82910970D01*
X148639150Y-82900480D01*
X148618107Y-82887868D01*
X148598401Y-82873253D01*
X148580223Y-82856777D01*
X148563747Y-82838599D01*
X148549132Y-82818893D01*
X148536520Y-82797850D01*
X148526030Y-82775671D01*
X148517765Y-82752572D01*
X148511804Y-82728773D01*
X148508204Y-82704505D01*
X148507000Y-82680001D01*
X148507000Y-81779999D01*
X148508204Y-81755495D01*
X148511804Y-81731227D01*
X148517765Y-81707428D01*
X148526030Y-81684329D01*
X148536520Y-81662150D01*
X148549132Y-81641107D01*
X148563747Y-81621401D01*
X148580223Y-81603223D01*
X148598401Y-81586747D01*
X148618107Y-81572132D01*
X148639150Y-81559520D01*
X148661329Y-81549030D01*
X148684428Y-81540765D01*
X148708227Y-81534804D01*
X148732495Y-81531204D01*
X148756999Y-81530000D01*
X149407001Y-81530000D01*
X149431505Y-81531204D01*
X149431505Y-81531204D01*
G37*
D11*
X149082000Y-82230000D03*
G04 #@! TD*
D10*
G04 #@! TO.C,C4*
G36*
X147113505Y-89435204D02*
X147137773Y-89438804D01*
X147161572Y-89444765D01*
X147184671Y-89453030D01*
X147206850Y-89463520D01*
X147227893Y-89476132D01*
X147247599Y-89490747D01*
X147265777Y-89507223D01*
X147282253Y-89525401D01*
X147296868Y-89545107D01*
X147309480Y-89566150D01*
X147319970Y-89588329D01*
X147328235Y-89611428D01*
X147334196Y-89635227D01*
X147337796Y-89659495D01*
X147339000Y-89683999D01*
X147339000Y-90334001D01*
X147337796Y-90358505D01*
X147334196Y-90382773D01*
X147328235Y-90406572D01*
X147319970Y-90429671D01*
X147309480Y-90451850D01*
X147296868Y-90472893D01*
X147282253Y-90492599D01*
X147265777Y-90510777D01*
X147247599Y-90527253D01*
X147227893Y-90541868D01*
X147206850Y-90554480D01*
X147184671Y-90564970D01*
X147161572Y-90573235D01*
X147137773Y-90579196D01*
X147113505Y-90582796D01*
X147089001Y-90584000D01*
X146188999Y-90584000D01*
X146164495Y-90582796D01*
X146140227Y-90579196D01*
X146116428Y-90573235D01*
X146093329Y-90564970D01*
X146071150Y-90554480D01*
X146050107Y-90541868D01*
X146030401Y-90527253D01*
X146012223Y-90510777D01*
X145995747Y-90492599D01*
X145981132Y-90472893D01*
X145968520Y-90451850D01*
X145958030Y-90429671D01*
X145949765Y-90406572D01*
X145943804Y-90382773D01*
X145940204Y-90358505D01*
X145939000Y-90334001D01*
X145939000Y-89683999D01*
X145940204Y-89659495D01*
X145943804Y-89635227D01*
X145949765Y-89611428D01*
X145958030Y-89588329D01*
X145968520Y-89566150D01*
X145981132Y-89545107D01*
X145995747Y-89525401D01*
X146012223Y-89507223D01*
X146030401Y-89490747D01*
X146050107Y-89476132D01*
X146071150Y-89463520D01*
X146093329Y-89453030D01*
X146116428Y-89444765D01*
X146140227Y-89438804D01*
X146164495Y-89435204D01*
X146188999Y-89434000D01*
X147089001Y-89434000D01*
X147113505Y-89435204D01*
X147113505Y-89435204D01*
G37*
D11*
X146639000Y-90009000D03*
D10*
G36*
X147113505Y-87385204D02*
X147137773Y-87388804D01*
X147161572Y-87394765D01*
X147184671Y-87403030D01*
X147206850Y-87413520D01*
X147227893Y-87426132D01*
X147247599Y-87440747D01*
X147265777Y-87457223D01*
X147282253Y-87475401D01*
X147296868Y-87495107D01*
X147309480Y-87516150D01*
X147319970Y-87538329D01*
X147328235Y-87561428D01*
X147334196Y-87585227D01*
X147337796Y-87609495D01*
X147339000Y-87633999D01*
X147339000Y-88284001D01*
X147337796Y-88308505D01*
X147334196Y-88332773D01*
X147328235Y-88356572D01*
X147319970Y-88379671D01*
X147309480Y-88401850D01*
X147296868Y-88422893D01*
X147282253Y-88442599D01*
X147265777Y-88460777D01*
X147247599Y-88477253D01*
X147227893Y-88491868D01*
X147206850Y-88504480D01*
X147184671Y-88514970D01*
X147161572Y-88523235D01*
X147137773Y-88529196D01*
X147113505Y-88532796D01*
X147089001Y-88534000D01*
X146188999Y-88534000D01*
X146164495Y-88532796D01*
X146140227Y-88529196D01*
X146116428Y-88523235D01*
X146093329Y-88514970D01*
X146071150Y-88504480D01*
X146050107Y-88491868D01*
X146030401Y-88477253D01*
X146012223Y-88460777D01*
X145995747Y-88442599D01*
X145981132Y-88422893D01*
X145968520Y-88401850D01*
X145958030Y-88379671D01*
X145949765Y-88356572D01*
X145943804Y-88332773D01*
X145940204Y-88308505D01*
X145939000Y-88284001D01*
X145939000Y-87633999D01*
X145940204Y-87609495D01*
X145943804Y-87585227D01*
X145949765Y-87561428D01*
X145958030Y-87538329D01*
X145968520Y-87516150D01*
X145981132Y-87495107D01*
X145995747Y-87475401D01*
X146012223Y-87457223D01*
X146030401Y-87440747D01*
X146050107Y-87426132D01*
X146071150Y-87413520D01*
X146093329Y-87403030D01*
X146116428Y-87394765D01*
X146140227Y-87388804D01*
X146164495Y-87385204D01*
X146188999Y-87384000D01*
X147089001Y-87384000D01*
X147113505Y-87385204D01*
X147113505Y-87385204D01*
G37*
D11*
X146639000Y-87959000D03*
G04 #@! TD*
D10*
G04 #@! TO.C,C5*
G36*
X149431505Y-79531204D02*
X149455773Y-79534804D01*
X149479572Y-79540765D01*
X149502671Y-79549030D01*
X149524850Y-79559520D01*
X149545893Y-79572132D01*
X149565599Y-79586747D01*
X149583777Y-79603223D01*
X149600253Y-79621401D01*
X149614868Y-79641107D01*
X149627480Y-79662150D01*
X149637970Y-79684329D01*
X149646235Y-79707428D01*
X149652196Y-79731227D01*
X149655796Y-79755495D01*
X149657000Y-79779999D01*
X149657000Y-80680001D01*
X149655796Y-80704505D01*
X149652196Y-80728773D01*
X149646235Y-80752572D01*
X149637970Y-80775671D01*
X149627480Y-80797850D01*
X149614868Y-80818893D01*
X149600253Y-80838599D01*
X149583777Y-80856777D01*
X149565599Y-80873253D01*
X149545893Y-80887868D01*
X149524850Y-80900480D01*
X149502671Y-80910970D01*
X149479572Y-80919235D01*
X149455773Y-80925196D01*
X149431505Y-80928796D01*
X149407001Y-80930000D01*
X148756999Y-80930000D01*
X148732495Y-80928796D01*
X148708227Y-80925196D01*
X148684428Y-80919235D01*
X148661329Y-80910970D01*
X148639150Y-80900480D01*
X148618107Y-80887868D01*
X148598401Y-80873253D01*
X148580223Y-80856777D01*
X148563747Y-80838599D01*
X148549132Y-80818893D01*
X148536520Y-80797850D01*
X148526030Y-80775671D01*
X148517765Y-80752572D01*
X148511804Y-80728773D01*
X148508204Y-80704505D01*
X148507000Y-80680001D01*
X148507000Y-79779999D01*
X148508204Y-79755495D01*
X148511804Y-79731227D01*
X148517765Y-79707428D01*
X148526030Y-79684329D01*
X148536520Y-79662150D01*
X148549132Y-79641107D01*
X148563747Y-79621401D01*
X148580223Y-79603223D01*
X148598401Y-79586747D01*
X148618107Y-79572132D01*
X148639150Y-79559520D01*
X148661329Y-79549030D01*
X148684428Y-79540765D01*
X148708227Y-79534804D01*
X148732495Y-79531204D01*
X148756999Y-79530000D01*
X149407001Y-79530000D01*
X149431505Y-79531204D01*
X149431505Y-79531204D01*
G37*
D11*
X149082000Y-80230000D03*
D10*
G36*
X151481505Y-79531204D02*
X151505773Y-79534804D01*
X151529572Y-79540765D01*
X151552671Y-79549030D01*
X151574850Y-79559520D01*
X151595893Y-79572132D01*
X151615599Y-79586747D01*
X151633777Y-79603223D01*
X151650253Y-79621401D01*
X151664868Y-79641107D01*
X151677480Y-79662150D01*
X151687970Y-79684329D01*
X151696235Y-79707428D01*
X151702196Y-79731227D01*
X151705796Y-79755495D01*
X151707000Y-79779999D01*
X151707000Y-80680001D01*
X151705796Y-80704505D01*
X151702196Y-80728773D01*
X151696235Y-80752572D01*
X151687970Y-80775671D01*
X151677480Y-80797850D01*
X151664868Y-80818893D01*
X151650253Y-80838599D01*
X151633777Y-80856777D01*
X151615599Y-80873253D01*
X151595893Y-80887868D01*
X151574850Y-80900480D01*
X151552671Y-80910970D01*
X151529572Y-80919235D01*
X151505773Y-80925196D01*
X151481505Y-80928796D01*
X151457001Y-80930000D01*
X150806999Y-80930000D01*
X150782495Y-80928796D01*
X150758227Y-80925196D01*
X150734428Y-80919235D01*
X150711329Y-80910970D01*
X150689150Y-80900480D01*
X150668107Y-80887868D01*
X150648401Y-80873253D01*
X150630223Y-80856777D01*
X150613747Y-80838599D01*
X150599132Y-80818893D01*
X150586520Y-80797850D01*
X150576030Y-80775671D01*
X150567765Y-80752572D01*
X150561804Y-80728773D01*
X150558204Y-80704505D01*
X150557000Y-80680001D01*
X150557000Y-79779999D01*
X150558204Y-79755495D01*
X150561804Y-79731227D01*
X150567765Y-79707428D01*
X150576030Y-79684329D01*
X150586520Y-79662150D01*
X150599132Y-79641107D01*
X150613747Y-79621401D01*
X150630223Y-79603223D01*
X150648401Y-79586747D01*
X150668107Y-79572132D01*
X150689150Y-79559520D01*
X150711329Y-79549030D01*
X150734428Y-79540765D01*
X150758227Y-79534804D01*
X150782495Y-79531204D01*
X150806999Y-79530000D01*
X151457001Y-79530000D01*
X151481505Y-79531204D01*
X151481505Y-79531204D01*
G37*
D11*
X151132000Y-80230000D03*
G04 #@! TD*
D10*
G04 #@! TO.C,C6*
G36*
X166036505Y-123326204D02*
X166060773Y-123329804D01*
X166084572Y-123335765D01*
X166107671Y-123344030D01*
X166129850Y-123354520D01*
X166150893Y-123367132D01*
X166170599Y-123381747D01*
X166188777Y-123398223D01*
X166205253Y-123416401D01*
X166219868Y-123436107D01*
X166232480Y-123457150D01*
X166242970Y-123479329D01*
X166251235Y-123502428D01*
X166257196Y-123526227D01*
X166260796Y-123550495D01*
X166262000Y-123574999D01*
X166262000Y-124225001D01*
X166260796Y-124249505D01*
X166257196Y-124273773D01*
X166251235Y-124297572D01*
X166242970Y-124320671D01*
X166232480Y-124342850D01*
X166219868Y-124363893D01*
X166205253Y-124383599D01*
X166188777Y-124401777D01*
X166170599Y-124418253D01*
X166150893Y-124432868D01*
X166129850Y-124445480D01*
X166107671Y-124455970D01*
X166084572Y-124464235D01*
X166060773Y-124470196D01*
X166036505Y-124473796D01*
X166012001Y-124475000D01*
X165111999Y-124475000D01*
X165087495Y-124473796D01*
X165063227Y-124470196D01*
X165039428Y-124464235D01*
X165016329Y-124455970D01*
X164994150Y-124445480D01*
X164973107Y-124432868D01*
X164953401Y-124418253D01*
X164935223Y-124401777D01*
X164918747Y-124383599D01*
X164904132Y-124363893D01*
X164891520Y-124342850D01*
X164881030Y-124320671D01*
X164872765Y-124297572D01*
X164866804Y-124273773D01*
X164863204Y-124249505D01*
X164862000Y-124225001D01*
X164862000Y-123574999D01*
X164863204Y-123550495D01*
X164866804Y-123526227D01*
X164872765Y-123502428D01*
X164881030Y-123479329D01*
X164891520Y-123457150D01*
X164904132Y-123436107D01*
X164918747Y-123416401D01*
X164935223Y-123398223D01*
X164953401Y-123381747D01*
X164973107Y-123367132D01*
X164994150Y-123354520D01*
X165016329Y-123344030D01*
X165039428Y-123335765D01*
X165063227Y-123329804D01*
X165087495Y-123326204D01*
X165111999Y-123325000D01*
X166012001Y-123325000D01*
X166036505Y-123326204D01*
X166036505Y-123326204D01*
G37*
D11*
X165562000Y-123900000D03*
D10*
G36*
X166036505Y-121276204D02*
X166060773Y-121279804D01*
X166084572Y-121285765D01*
X166107671Y-121294030D01*
X166129850Y-121304520D01*
X166150893Y-121317132D01*
X166170599Y-121331747D01*
X166188777Y-121348223D01*
X166205253Y-121366401D01*
X166219868Y-121386107D01*
X166232480Y-121407150D01*
X166242970Y-121429329D01*
X166251235Y-121452428D01*
X166257196Y-121476227D01*
X166260796Y-121500495D01*
X166262000Y-121524999D01*
X166262000Y-122175001D01*
X166260796Y-122199505D01*
X166257196Y-122223773D01*
X166251235Y-122247572D01*
X166242970Y-122270671D01*
X166232480Y-122292850D01*
X166219868Y-122313893D01*
X166205253Y-122333599D01*
X166188777Y-122351777D01*
X166170599Y-122368253D01*
X166150893Y-122382868D01*
X166129850Y-122395480D01*
X166107671Y-122405970D01*
X166084572Y-122414235D01*
X166060773Y-122420196D01*
X166036505Y-122423796D01*
X166012001Y-122425000D01*
X165111999Y-122425000D01*
X165087495Y-122423796D01*
X165063227Y-122420196D01*
X165039428Y-122414235D01*
X165016329Y-122405970D01*
X164994150Y-122395480D01*
X164973107Y-122382868D01*
X164953401Y-122368253D01*
X164935223Y-122351777D01*
X164918747Y-122333599D01*
X164904132Y-122313893D01*
X164891520Y-122292850D01*
X164881030Y-122270671D01*
X164872765Y-122247572D01*
X164866804Y-122223773D01*
X164863204Y-122199505D01*
X164862000Y-122175001D01*
X164862000Y-121524999D01*
X164863204Y-121500495D01*
X164866804Y-121476227D01*
X164872765Y-121452428D01*
X164881030Y-121429329D01*
X164891520Y-121407150D01*
X164904132Y-121386107D01*
X164918747Y-121366401D01*
X164935223Y-121348223D01*
X164953401Y-121331747D01*
X164973107Y-121317132D01*
X164994150Y-121304520D01*
X165016329Y-121294030D01*
X165039428Y-121285765D01*
X165063227Y-121279804D01*
X165087495Y-121276204D01*
X165111999Y-121275000D01*
X166012001Y-121275000D01*
X166036505Y-121276204D01*
X166036505Y-121276204D01*
G37*
D11*
X165562000Y-121850000D03*
G04 #@! TD*
D10*
G04 #@! TO.C,F1*
G36*
X163798504Y-121156704D02*
X163822773Y-121160304D01*
X163846571Y-121166265D01*
X163869671Y-121174530D01*
X163891849Y-121185020D01*
X163912893Y-121197633D01*
X163932598Y-121212247D01*
X163950777Y-121228723D01*
X163967253Y-121246902D01*
X163981867Y-121266607D01*
X163994480Y-121287651D01*
X164004970Y-121309829D01*
X164013235Y-121332929D01*
X164019196Y-121356727D01*
X164022796Y-121380996D01*
X164024000Y-121405500D01*
X164024000Y-122330500D01*
X164022796Y-122355004D01*
X164019196Y-122379273D01*
X164013235Y-122403071D01*
X164004970Y-122426171D01*
X163994480Y-122448349D01*
X163981867Y-122469393D01*
X163967253Y-122489098D01*
X163950777Y-122507277D01*
X163932598Y-122523753D01*
X163912893Y-122538367D01*
X163891849Y-122550980D01*
X163869671Y-122561470D01*
X163846571Y-122569735D01*
X163822773Y-122575696D01*
X163798504Y-122579296D01*
X163774000Y-122580500D01*
X162524000Y-122580500D01*
X162499496Y-122579296D01*
X162475227Y-122575696D01*
X162451429Y-122569735D01*
X162428329Y-122561470D01*
X162406151Y-122550980D01*
X162385107Y-122538367D01*
X162365402Y-122523753D01*
X162347223Y-122507277D01*
X162330747Y-122489098D01*
X162316133Y-122469393D01*
X162303520Y-122448349D01*
X162293030Y-122426171D01*
X162284765Y-122403071D01*
X162278804Y-122379273D01*
X162275204Y-122355004D01*
X162274000Y-122330500D01*
X162274000Y-121405500D01*
X162275204Y-121380996D01*
X162278804Y-121356727D01*
X162284765Y-121332929D01*
X162293030Y-121309829D01*
X162303520Y-121287651D01*
X162316133Y-121266607D01*
X162330747Y-121246902D01*
X162347223Y-121228723D01*
X162365402Y-121212247D01*
X162385107Y-121197633D01*
X162406151Y-121185020D01*
X162428329Y-121174530D01*
X162451429Y-121166265D01*
X162475227Y-121160304D01*
X162499496Y-121156704D01*
X162524000Y-121155500D01*
X163774000Y-121155500D01*
X163798504Y-121156704D01*
X163798504Y-121156704D01*
G37*
D12*
X163149000Y-121868000D03*
D10*
G36*
X163798504Y-118181704D02*
X163822773Y-118185304D01*
X163846571Y-118191265D01*
X163869671Y-118199530D01*
X163891849Y-118210020D01*
X163912893Y-118222633D01*
X163932598Y-118237247D01*
X163950777Y-118253723D01*
X163967253Y-118271902D01*
X163981867Y-118291607D01*
X163994480Y-118312651D01*
X164004970Y-118334829D01*
X164013235Y-118357929D01*
X164019196Y-118381727D01*
X164022796Y-118405996D01*
X164024000Y-118430500D01*
X164024000Y-119355500D01*
X164022796Y-119380004D01*
X164019196Y-119404273D01*
X164013235Y-119428071D01*
X164004970Y-119451171D01*
X163994480Y-119473349D01*
X163981867Y-119494393D01*
X163967253Y-119514098D01*
X163950777Y-119532277D01*
X163932598Y-119548753D01*
X163912893Y-119563367D01*
X163891849Y-119575980D01*
X163869671Y-119586470D01*
X163846571Y-119594735D01*
X163822773Y-119600696D01*
X163798504Y-119604296D01*
X163774000Y-119605500D01*
X162524000Y-119605500D01*
X162499496Y-119604296D01*
X162475227Y-119600696D01*
X162451429Y-119594735D01*
X162428329Y-119586470D01*
X162406151Y-119575980D01*
X162385107Y-119563367D01*
X162365402Y-119548753D01*
X162347223Y-119532277D01*
X162330747Y-119514098D01*
X162316133Y-119494393D01*
X162303520Y-119473349D01*
X162293030Y-119451171D01*
X162284765Y-119428071D01*
X162278804Y-119404273D01*
X162275204Y-119380004D01*
X162274000Y-119355500D01*
X162274000Y-118430500D01*
X162275204Y-118405996D01*
X162278804Y-118381727D01*
X162284765Y-118357929D01*
X162293030Y-118334829D01*
X162303520Y-118312651D01*
X162316133Y-118291607D01*
X162330747Y-118271902D01*
X162347223Y-118253723D01*
X162365402Y-118237247D01*
X162385107Y-118222633D01*
X162406151Y-118210020D01*
X162428329Y-118199530D01*
X162451429Y-118191265D01*
X162475227Y-118185304D01*
X162499496Y-118181704D01*
X162524000Y-118180500D01*
X163774000Y-118180500D01*
X163798504Y-118181704D01*
X163798504Y-118181704D01*
G37*
D12*
X163149000Y-118893000D03*
G04 #@! TD*
D10*
G04 #@! TO.C,L1*
G36*
X164256505Y-86331204D02*
X164280773Y-86334804D01*
X164304572Y-86340765D01*
X164327671Y-86349030D01*
X164349850Y-86359520D01*
X164370893Y-86372132D01*
X164390599Y-86386747D01*
X164408777Y-86403223D01*
X164425253Y-86421401D01*
X164439868Y-86441107D01*
X164452480Y-86462150D01*
X164462970Y-86484329D01*
X164471235Y-86507428D01*
X164477196Y-86531227D01*
X164480796Y-86555495D01*
X164482000Y-86579999D01*
X164482000Y-87480001D01*
X164480796Y-87504505D01*
X164477196Y-87528773D01*
X164471235Y-87552572D01*
X164462970Y-87575671D01*
X164452480Y-87597850D01*
X164439868Y-87618893D01*
X164425253Y-87638599D01*
X164408777Y-87656777D01*
X164390599Y-87673253D01*
X164370893Y-87687868D01*
X164349850Y-87700480D01*
X164327671Y-87710970D01*
X164304572Y-87719235D01*
X164280773Y-87725196D01*
X164256505Y-87728796D01*
X164232001Y-87730000D01*
X163581999Y-87730000D01*
X163557495Y-87728796D01*
X163533227Y-87725196D01*
X163509428Y-87719235D01*
X163486329Y-87710970D01*
X163464150Y-87700480D01*
X163443107Y-87687868D01*
X163423401Y-87673253D01*
X163405223Y-87656777D01*
X163388747Y-87638599D01*
X163374132Y-87618893D01*
X163361520Y-87597850D01*
X163351030Y-87575671D01*
X163342765Y-87552572D01*
X163336804Y-87528773D01*
X163333204Y-87504505D01*
X163332000Y-87480001D01*
X163332000Y-86579999D01*
X163333204Y-86555495D01*
X163336804Y-86531227D01*
X163342765Y-86507428D01*
X163351030Y-86484329D01*
X163361520Y-86462150D01*
X163374132Y-86441107D01*
X163388747Y-86421401D01*
X163405223Y-86403223D01*
X163423401Y-86386747D01*
X163443107Y-86372132D01*
X163464150Y-86359520D01*
X163486329Y-86349030D01*
X163509428Y-86340765D01*
X163533227Y-86334804D01*
X163557495Y-86331204D01*
X163581999Y-86330000D01*
X164232001Y-86330000D01*
X164256505Y-86331204D01*
X164256505Y-86331204D01*
G37*
D11*
X163907000Y-87030000D03*
D10*
G36*
X162206505Y-86331204D02*
X162230773Y-86334804D01*
X162254572Y-86340765D01*
X162277671Y-86349030D01*
X162299850Y-86359520D01*
X162320893Y-86372132D01*
X162340599Y-86386747D01*
X162358777Y-86403223D01*
X162375253Y-86421401D01*
X162389868Y-86441107D01*
X162402480Y-86462150D01*
X162412970Y-86484329D01*
X162421235Y-86507428D01*
X162427196Y-86531227D01*
X162430796Y-86555495D01*
X162432000Y-86579999D01*
X162432000Y-87480001D01*
X162430796Y-87504505D01*
X162427196Y-87528773D01*
X162421235Y-87552572D01*
X162412970Y-87575671D01*
X162402480Y-87597850D01*
X162389868Y-87618893D01*
X162375253Y-87638599D01*
X162358777Y-87656777D01*
X162340599Y-87673253D01*
X162320893Y-87687868D01*
X162299850Y-87700480D01*
X162277671Y-87710970D01*
X162254572Y-87719235D01*
X162230773Y-87725196D01*
X162206505Y-87728796D01*
X162182001Y-87730000D01*
X161531999Y-87730000D01*
X161507495Y-87728796D01*
X161483227Y-87725196D01*
X161459428Y-87719235D01*
X161436329Y-87710970D01*
X161414150Y-87700480D01*
X161393107Y-87687868D01*
X161373401Y-87673253D01*
X161355223Y-87656777D01*
X161338747Y-87638599D01*
X161324132Y-87618893D01*
X161311520Y-87597850D01*
X161301030Y-87575671D01*
X161292765Y-87552572D01*
X161286804Y-87528773D01*
X161283204Y-87504505D01*
X161282000Y-87480001D01*
X161282000Y-86579999D01*
X161283204Y-86555495D01*
X161286804Y-86531227D01*
X161292765Y-86507428D01*
X161301030Y-86484329D01*
X161311520Y-86462150D01*
X161324132Y-86441107D01*
X161338747Y-86421401D01*
X161355223Y-86403223D01*
X161373401Y-86386747D01*
X161393107Y-86372132D01*
X161414150Y-86359520D01*
X161436329Y-86349030D01*
X161459428Y-86340765D01*
X161483227Y-86334804D01*
X161507495Y-86331204D01*
X161531999Y-86330000D01*
X162182001Y-86330000D01*
X162206505Y-86331204D01*
X162206505Y-86331204D01*
G37*
D11*
X161857000Y-87030000D03*
G04 #@! TD*
D10*
G04 #@! TO.C,L2*
G36*
X164281505Y-80331204D02*
X164305773Y-80334804D01*
X164329572Y-80340765D01*
X164352671Y-80349030D01*
X164374850Y-80359520D01*
X164395893Y-80372132D01*
X164415599Y-80386747D01*
X164433777Y-80403223D01*
X164450253Y-80421401D01*
X164464868Y-80441107D01*
X164477480Y-80462150D01*
X164487970Y-80484329D01*
X164496235Y-80507428D01*
X164502196Y-80531227D01*
X164505796Y-80555495D01*
X164507000Y-80579999D01*
X164507000Y-81480001D01*
X164505796Y-81504505D01*
X164502196Y-81528773D01*
X164496235Y-81552572D01*
X164487970Y-81575671D01*
X164477480Y-81597850D01*
X164464868Y-81618893D01*
X164450253Y-81638599D01*
X164433777Y-81656777D01*
X164415599Y-81673253D01*
X164395893Y-81687868D01*
X164374850Y-81700480D01*
X164352671Y-81710970D01*
X164329572Y-81719235D01*
X164305773Y-81725196D01*
X164281505Y-81728796D01*
X164257001Y-81730000D01*
X163606999Y-81730000D01*
X163582495Y-81728796D01*
X163558227Y-81725196D01*
X163534428Y-81719235D01*
X163511329Y-81710970D01*
X163489150Y-81700480D01*
X163468107Y-81687868D01*
X163448401Y-81673253D01*
X163430223Y-81656777D01*
X163413747Y-81638599D01*
X163399132Y-81618893D01*
X163386520Y-81597850D01*
X163376030Y-81575671D01*
X163367765Y-81552572D01*
X163361804Y-81528773D01*
X163358204Y-81504505D01*
X163357000Y-81480001D01*
X163357000Y-80579999D01*
X163358204Y-80555495D01*
X163361804Y-80531227D01*
X163367765Y-80507428D01*
X163376030Y-80484329D01*
X163386520Y-80462150D01*
X163399132Y-80441107D01*
X163413747Y-80421401D01*
X163430223Y-80403223D01*
X163448401Y-80386747D01*
X163468107Y-80372132D01*
X163489150Y-80359520D01*
X163511329Y-80349030D01*
X163534428Y-80340765D01*
X163558227Y-80334804D01*
X163582495Y-80331204D01*
X163606999Y-80330000D01*
X164257001Y-80330000D01*
X164281505Y-80331204D01*
X164281505Y-80331204D01*
G37*
D11*
X163932000Y-81030000D03*
D10*
G36*
X162231505Y-80331204D02*
X162255773Y-80334804D01*
X162279572Y-80340765D01*
X162302671Y-80349030D01*
X162324850Y-80359520D01*
X162345893Y-80372132D01*
X162365599Y-80386747D01*
X162383777Y-80403223D01*
X162400253Y-80421401D01*
X162414868Y-80441107D01*
X162427480Y-80462150D01*
X162437970Y-80484329D01*
X162446235Y-80507428D01*
X162452196Y-80531227D01*
X162455796Y-80555495D01*
X162457000Y-80579999D01*
X162457000Y-81480001D01*
X162455796Y-81504505D01*
X162452196Y-81528773D01*
X162446235Y-81552572D01*
X162437970Y-81575671D01*
X162427480Y-81597850D01*
X162414868Y-81618893D01*
X162400253Y-81638599D01*
X162383777Y-81656777D01*
X162365599Y-81673253D01*
X162345893Y-81687868D01*
X162324850Y-81700480D01*
X162302671Y-81710970D01*
X162279572Y-81719235D01*
X162255773Y-81725196D01*
X162231505Y-81728796D01*
X162207001Y-81730000D01*
X161556999Y-81730000D01*
X161532495Y-81728796D01*
X161508227Y-81725196D01*
X161484428Y-81719235D01*
X161461329Y-81710970D01*
X161439150Y-81700480D01*
X161418107Y-81687868D01*
X161398401Y-81673253D01*
X161380223Y-81656777D01*
X161363747Y-81638599D01*
X161349132Y-81618893D01*
X161336520Y-81597850D01*
X161326030Y-81575671D01*
X161317765Y-81552572D01*
X161311804Y-81528773D01*
X161308204Y-81504505D01*
X161307000Y-81480001D01*
X161307000Y-80579999D01*
X161308204Y-80555495D01*
X161311804Y-80531227D01*
X161317765Y-80507428D01*
X161326030Y-80484329D01*
X161336520Y-80462150D01*
X161349132Y-80441107D01*
X161363747Y-80421401D01*
X161380223Y-80403223D01*
X161398401Y-80386747D01*
X161418107Y-80372132D01*
X161439150Y-80359520D01*
X161461329Y-80349030D01*
X161484428Y-80340765D01*
X161508227Y-80334804D01*
X161532495Y-80331204D01*
X161556999Y-80330000D01*
X162207001Y-80330000D01*
X162231505Y-80331204D01*
X162231505Y-80331204D01*
G37*
D11*
X161882000Y-81030000D03*
G04 #@! TD*
D13*
G04 #@! TO.C,L3*
X159593000Y-118956000D03*
X159593000Y-121106000D03*
G04 #@! TD*
D10*
G04 #@! TO.C,R2*
G36*
X175124505Y-103801204D02*
X175148773Y-103804804D01*
X175172572Y-103810765D01*
X175195671Y-103819030D01*
X175217850Y-103829520D01*
X175238893Y-103842132D01*
X175258599Y-103856747D01*
X175276777Y-103873223D01*
X175293253Y-103891401D01*
X175307868Y-103911107D01*
X175320480Y-103932150D01*
X175330970Y-103954329D01*
X175339235Y-103977428D01*
X175345196Y-104001227D01*
X175348796Y-104025495D01*
X175350000Y-104049999D01*
X175350000Y-104950001D01*
X175348796Y-104974505D01*
X175345196Y-104998773D01*
X175339235Y-105022572D01*
X175330970Y-105045671D01*
X175320480Y-105067850D01*
X175307868Y-105088893D01*
X175293253Y-105108599D01*
X175276777Y-105126777D01*
X175258599Y-105143253D01*
X175238893Y-105157868D01*
X175217850Y-105170480D01*
X175195671Y-105180970D01*
X175172572Y-105189235D01*
X175148773Y-105195196D01*
X175124505Y-105198796D01*
X175100001Y-105200000D01*
X174449999Y-105200000D01*
X174425495Y-105198796D01*
X174401227Y-105195196D01*
X174377428Y-105189235D01*
X174354329Y-105180970D01*
X174332150Y-105170480D01*
X174311107Y-105157868D01*
X174291401Y-105143253D01*
X174273223Y-105126777D01*
X174256747Y-105108599D01*
X174242132Y-105088893D01*
X174229520Y-105067850D01*
X174219030Y-105045671D01*
X174210765Y-105022572D01*
X174204804Y-104998773D01*
X174201204Y-104974505D01*
X174200000Y-104950001D01*
X174200000Y-104049999D01*
X174201204Y-104025495D01*
X174204804Y-104001227D01*
X174210765Y-103977428D01*
X174219030Y-103954329D01*
X174229520Y-103932150D01*
X174242132Y-103911107D01*
X174256747Y-103891401D01*
X174273223Y-103873223D01*
X174291401Y-103856747D01*
X174311107Y-103842132D01*
X174332150Y-103829520D01*
X174354329Y-103819030D01*
X174377428Y-103810765D01*
X174401227Y-103804804D01*
X174425495Y-103801204D01*
X174449999Y-103800000D01*
X175100001Y-103800000D01*
X175124505Y-103801204D01*
X175124505Y-103801204D01*
G37*
D11*
X174775000Y-104500000D03*
D10*
G36*
X173074505Y-103801204D02*
X173098773Y-103804804D01*
X173122572Y-103810765D01*
X173145671Y-103819030D01*
X173167850Y-103829520D01*
X173188893Y-103842132D01*
X173208599Y-103856747D01*
X173226777Y-103873223D01*
X173243253Y-103891401D01*
X173257868Y-103911107D01*
X173270480Y-103932150D01*
X173280970Y-103954329D01*
X173289235Y-103977428D01*
X173295196Y-104001227D01*
X173298796Y-104025495D01*
X173300000Y-104049999D01*
X173300000Y-104950001D01*
X173298796Y-104974505D01*
X173295196Y-104998773D01*
X173289235Y-105022572D01*
X173280970Y-105045671D01*
X173270480Y-105067850D01*
X173257868Y-105088893D01*
X173243253Y-105108599D01*
X173226777Y-105126777D01*
X173208599Y-105143253D01*
X173188893Y-105157868D01*
X173167850Y-105170480D01*
X173145671Y-105180970D01*
X173122572Y-105189235D01*
X173098773Y-105195196D01*
X173074505Y-105198796D01*
X173050001Y-105200000D01*
X172399999Y-105200000D01*
X172375495Y-105198796D01*
X172351227Y-105195196D01*
X172327428Y-105189235D01*
X172304329Y-105180970D01*
X172282150Y-105170480D01*
X172261107Y-105157868D01*
X172241401Y-105143253D01*
X172223223Y-105126777D01*
X172206747Y-105108599D01*
X172192132Y-105088893D01*
X172179520Y-105067850D01*
X172169030Y-105045671D01*
X172160765Y-105022572D01*
X172154804Y-104998773D01*
X172151204Y-104974505D01*
X172150000Y-104950001D01*
X172150000Y-104049999D01*
X172151204Y-104025495D01*
X172154804Y-104001227D01*
X172160765Y-103977428D01*
X172169030Y-103954329D01*
X172179520Y-103932150D01*
X172192132Y-103911107D01*
X172206747Y-103891401D01*
X172223223Y-103873223D01*
X172241401Y-103856747D01*
X172261107Y-103842132D01*
X172282150Y-103829520D01*
X172304329Y-103819030D01*
X172327428Y-103810765D01*
X172351227Y-103804804D01*
X172375495Y-103801204D01*
X172399999Y-103800000D01*
X173050001Y-103800000D01*
X173074505Y-103801204D01*
X173074505Y-103801204D01*
G37*
D11*
X172725000Y-104500000D03*
G04 #@! TD*
D10*
G04 #@! TO.C,R3*
G36*
X178074505Y-101551204D02*
X178098773Y-101554804D01*
X178122572Y-101560765D01*
X178145671Y-101569030D01*
X178167850Y-101579520D01*
X178188893Y-101592132D01*
X178208599Y-101606747D01*
X178226777Y-101623223D01*
X178243253Y-101641401D01*
X178257868Y-101661107D01*
X178270480Y-101682150D01*
X178280970Y-101704329D01*
X178289235Y-101727428D01*
X178295196Y-101751227D01*
X178298796Y-101775495D01*
X178300000Y-101799999D01*
X178300000Y-102700001D01*
X178298796Y-102724505D01*
X178295196Y-102748773D01*
X178289235Y-102772572D01*
X178280970Y-102795671D01*
X178270480Y-102817850D01*
X178257868Y-102838893D01*
X178243253Y-102858599D01*
X178226777Y-102876777D01*
X178208599Y-102893253D01*
X178188893Y-102907868D01*
X178167850Y-102920480D01*
X178145671Y-102930970D01*
X178122572Y-102939235D01*
X178098773Y-102945196D01*
X178074505Y-102948796D01*
X178050001Y-102950000D01*
X177399999Y-102950000D01*
X177375495Y-102948796D01*
X177351227Y-102945196D01*
X177327428Y-102939235D01*
X177304329Y-102930970D01*
X177282150Y-102920480D01*
X177261107Y-102907868D01*
X177241401Y-102893253D01*
X177223223Y-102876777D01*
X177206747Y-102858599D01*
X177192132Y-102838893D01*
X177179520Y-102817850D01*
X177169030Y-102795671D01*
X177160765Y-102772572D01*
X177154804Y-102748773D01*
X177151204Y-102724505D01*
X177150000Y-102700001D01*
X177150000Y-101799999D01*
X177151204Y-101775495D01*
X177154804Y-101751227D01*
X177160765Y-101727428D01*
X177169030Y-101704329D01*
X177179520Y-101682150D01*
X177192132Y-101661107D01*
X177206747Y-101641401D01*
X177223223Y-101623223D01*
X177241401Y-101606747D01*
X177261107Y-101592132D01*
X177282150Y-101579520D01*
X177304329Y-101569030D01*
X177327428Y-101560765D01*
X177351227Y-101554804D01*
X177375495Y-101551204D01*
X177399999Y-101550000D01*
X178050001Y-101550000D01*
X178074505Y-101551204D01*
X178074505Y-101551204D01*
G37*
D11*
X177725000Y-102250000D03*
D10*
G36*
X180124505Y-101551204D02*
X180148773Y-101554804D01*
X180172572Y-101560765D01*
X180195671Y-101569030D01*
X180217850Y-101579520D01*
X180238893Y-101592132D01*
X180258599Y-101606747D01*
X180276777Y-101623223D01*
X180293253Y-101641401D01*
X180307868Y-101661107D01*
X180320480Y-101682150D01*
X180330970Y-101704329D01*
X180339235Y-101727428D01*
X180345196Y-101751227D01*
X180348796Y-101775495D01*
X180350000Y-101799999D01*
X180350000Y-102700001D01*
X180348796Y-102724505D01*
X180345196Y-102748773D01*
X180339235Y-102772572D01*
X180330970Y-102795671D01*
X180320480Y-102817850D01*
X180307868Y-102838893D01*
X180293253Y-102858599D01*
X180276777Y-102876777D01*
X180258599Y-102893253D01*
X180238893Y-102907868D01*
X180217850Y-102920480D01*
X180195671Y-102930970D01*
X180172572Y-102939235D01*
X180148773Y-102945196D01*
X180124505Y-102948796D01*
X180100001Y-102950000D01*
X179449999Y-102950000D01*
X179425495Y-102948796D01*
X179401227Y-102945196D01*
X179377428Y-102939235D01*
X179354329Y-102930970D01*
X179332150Y-102920480D01*
X179311107Y-102907868D01*
X179291401Y-102893253D01*
X179273223Y-102876777D01*
X179256747Y-102858599D01*
X179242132Y-102838893D01*
X179229520Y-102817850D01*
X179219030Y-102795671D01*
X179210765Y-102772572D01*
X179204804Y-102748773D01*
X179201204Y-102724505D01*
X179200000Y-102700001D01*
X179200000Y-101799999D01*
X179201204Y-101775495D01*
X179204804Y-101751227D01*
X179210765Y-101727428D01*
X179219030Y-101704329D01*
X179229520Y-101682150D01*
X179242132Y-101661107D01*
X179256747Y-101641401D01*
X179273223Y-101623223D01*
X179291401Y-101606747D01*
X179311107Y-101592132D01*
X179332150Y-101579520D01*
X179354329Y-101569030D01*
X179377428Y-101560765D01*
X179401227Y-101554804D01*
X179425495Y-101551204D01*
X179449999Y-101550000D01*
X180100001Y-101550000D01*
X180124505Y-101551204D01*
X180124505Y-101551204D01*
G37*
D11*
X179775000Y-102250000D03*
G04 #@! TD*
D10*
G04 #@! TO.C,R5*
G36*
X167849505Y-95801204D02*
X167873773Y-95804804D01*
X167897572Y-95810765D01*
X167920671Y-95819030D01*
X167942850Y-95829520D01*
X167963893Y-95842132D01*
X167983599Y-95856747D01*
X168001777Y-95873223D01*
X168018253Y-95891401D01*
X168032868Y-95911107D01*
X168045480Y-95932150D01*
X168055970Y-95954329D01*
X168064235Y-95977428D01*
X168070196Y-96001227D01*
X168073796Y-96025495D01*
X168075000Y-96049999D01*
X168075000Y-96950001D01*
X168073796Y-96974505D01*
X168070196Y-96998773D01*
X168064235Y-97022572D01*
X168055970Y-97045671D01*
X168045480Y-97067850D01*
X168032868Y-97088893D01*
X168018253Y-97108599D01*
X168001777Y-97126777D01*
X167983599Y-97143253D01*
X167963893Y-97157868D01*
X167942850Y-97170480D01*
X167920671Y-97180970D01*
X167897572Y-97189235D01*
X167873773Y-97195196D01*
X167849505Y-97198796D01*
X167825001Y-97200000D01*
X167174999Y-97200000D01*
X167150495Y-97198796D01*
X167126227Y-97195196D01*
X167102428Y-97189235D01*
X167079329Y-97180970D01*
X167057150Y-97170480D01*
X167036107Y-97157868D01*
X167016401Y-97143253D01*
X166998223Y-97126777D01*
X166981747Y-97108599D01*
X166967132Y-97088893D01*
X166954520Y-97067850D01*
X166944030Y-97045671D01*
X166935765Y-97022572D01*
X166929804Y-96998773D01*
X166926204Y-96974505D01*
X166925000Y-96950001D01*
X166925000Y-96049999D01*
X166926204Y-96025495D01*
X166929804Y-96001227D01*
X166935765Y-95977428D01*
X166944030Y-95954329D01*
X166954520Y-95932150D01*
X166967132Y-95911107D01*
X166981747Y-95891401D01*
X166998223Y-95873223D01*
X167016401Y-95856747D01*
X167036107Y-95842132D01*
X167057150Y-95829520D01*
X167079329Y-95819030D01*
X167102428Y-95810765D01*
X167126227Y-95804804D01*
X167150495Y-95801204D01*
X167174999Y-95800000D01*
X167825001Y-95800000D01*
X167849505Y-95801204D01*
X167849505Y-95801204D01*
G37*
D11*
X167500000Y-96500000D03*
D10*
G36*
X165799505Y-95801204D02*
X165823773Y-95804804D01*
X165847572Y-95810765D01*
X165870671Y-95819030D01*
X165892850Y-95829520D01*
X165913893Y-95842132D01*
X165933599Y-95856747D01*
X165951777Y-95873223D01*
X165968253Y-95891401D01*
X165982868Y-95911107D01*
X165995480Y-95932150D01*
X166005970Y-95954329D01*
X166014235Y-95977428D01*
X166020196Y-96001227D01*
X166023796Y-96025495D01*
X166025000Y-96049999D01*
X166025000Y-96950001D01*
X166023796Y-96974505D01*
X166020196Y-96998773D01*
X166014235Y-97022572D01*
X166005970Y-97045671D01*
X165995480Y-97067850D01*
X165982868Y-97088893D01*
X165968253Y-97108599D01*
X165951777Y-97126777D01*
X165933599Y-97143253D01*
X165913893Y-97157868D01*
X165892850Y-97170480D01*
X165870671Y-97180970D01*
X165847572Y-97189235D01*
X165823773Y-97195196D01*
X165799505Y-97198796D01*
X165775001Y-97200000D01*
X165124999Y-97200000D01*
X165100495Y-97198796D01*
X165076227Y-97195196D01*
X165052428Y-97189235D01*
X165029329Y-97180970D01*
X165007150Y-97170480D01*
X164986107Y-97157868D01*
X164966401Y-97143253D01*
X164948223Y-97126777D01*
X164931747Y-97108599D01*
X164917132Y-97088893D01*
X164904520Y-97067850D01*
X164894030Y-97045671D01*
X164885765Y-97022572D01*
X164879804Y-96998773D01*
X164876204Y-96974505D01*
X164875000Y-96950001D01*
X164875000Y-96049999D01*
X164876204Y-96025495D01*
X164879804Y-96001227D01*
X164885765Y-95977428D01*
X164894030Y-95954329D01*
X164904520Y-95932150D01*
X164917132Y-95911107D01*
X164931747Y-95891401D01*
X164948223Y-95873223D01*
X164966401Y-95856747D01*
X164986107Y-95842132D01*
X165007150Y-95829520D01*
X165029329Y-95819030D01*
X165052428Y-95810765D01*
X165076227Y-95804804D01*
X165100495Y-95801204D01*
X165124999Y-95800000D01*
X165775001Y-95800000D01*
X165799505Y-95801204D01*
X165799505Y-95801204D01*
G37*
D11*
X165450000Y-96500000D03*
G04 #@! TD*
D14*
G04 #@! TO.C,U1*
X141920000Y-103125000D03*
D15*
X140920000Y-103000000D03*
X139920000Y-103000000D03*
X138920000Y-103000000D03*
X137920000Y-103000000D03*
X135920000Y-103000000D03*
X136920000Y-103000000D03*
X134920000Y-103000000D03*
X129920000Y-103000000D03*
X131920000Y-103000000D03*
X130920000Y-103000000D03*
X132920000Y-103000000D03*
X133920000Y-103000000D03*
X126920000Y-103000000D03*
X128920000Y-103000000D03*
X127920000Y-103000000D03*
X125920000Y-103000000D03*
D16*
X143375000Y-101550000D03*
D17*
X143250000Y-94550000D03*
X143250000Y-96550000D03*
X143250000Y-93550000D03*
X143250000Y-95550000D03*
X143250000Y-100550000D03*
X143250000Y-90550000D03*
X143250000Y-98550000D03*
X143250000Y-97550000D03*
X143250000Y-99550000D03*
X143250000Y-92550000D03*
X143250000Y-91550000D03*
D16*
X143375000Y-89550000D03*
D15*
X131920000Y-88100000D03*
X129920000Y-88100000D03*
X139920000Y-88100000D03*
X132920000Y-88100000D03*
X130920000Y-88100000D03*
X125920000Y-88100000D03*
D14*
X141920000Y-87975000D03*
D15*
X135920000Y-88100000D03*
X137920000Y-88100000D03*
X127920000Y-88100000D03*
X128920000Y-88100000D03*
X126920000Y-88100000D03*
X133920000Y-88100000D03*
X138920000Y-88100000D03*
X140920000Y-88100000D03*
X134920000Y-88100000D03*
X136920000Y-88100000D03*
X122920000Y-88100000D03*
X124920000Y-88100000D03*
X123920000Y-88100000D03*
G04 #@! TD*
D10*
G04 #@! TO.C,C7*
G36*
X166036505Y-119534204D02*
X166060773Y-119537804D01*
X166084572Y-119543765D01*
X166107671Y-119552030D01*
X166129850Y-119562520D01*
X166150893Y-119575132D01*
X166170599Y-119589747D01*
X166188777Y-119606223D01*
X166205253Y-119624401D01*
X166219868Y-119644107D01*
X166232480Y-119665150D01*
X166242970Y-119687329D01*
X166251235Y-119710428D01*
X166257196Y-119734227D01*
X166260796Y-119758495D01*
X166262000Y-119782999D01*
X166262000Y-120433001D01*
X166260796Y-120457505D01*
X166257196Y-120481773D01*
X166251235Y-120505572D01*
X166242970Y-120528671D01*
X166232480Y-120550850D01*
X166219868Y-120571893D01*
X166205253Y-120591599D01*
X166188777Y-120609777D01*
X166170599Y-120626253D01*
X166150893Y-120640868D01*
X166129850Y-120653480D01*
X166107671Y-120663970D01*
X166084572Y-120672235D01*
X166060773Y-120678196D01*
X166036505Y-120681796D01*
X166012001Y-120683000D01*
X165111999Y-120683000D01*
X165087495Y-120681796D01*
X165063227Y-120678196D01*
X165039428Y-120672235D01*
X165016329Y-120663970D01*
X164994150Y-120653480D01*
X164973107Y-120640868D01*
X164953401Y-120626253D01*
X164935223Y-120609777D01*
X164918747Y-120591599D01*
X164904132Y-120571893D01*
X164891520Y-120550850D01*
X164881030Y-120528671D01*
X164872765Y-120505572D01*
X164866804Y-120481773D01*
X164863204Y-120457505D01*
X164862000Y-120433001D01*
X164862000Y-119782999D01*
X164863204Y-119758495D01*
X164866804Y-119734227D01*
X164872765Y-119710428D01*
X164881030Y-119687329D01*
X164891520Y-119665150D01*
X164904132Y-119644107D01*
X164918747Y-119624401D01*
X164935223Y-119606223D01*
X164953401Y-119589747D01*
X164973107Y-119575132D01*
X164994150Y-119562520D01*
X165016329Y-119552030D01*
X165039428Y-119543765D01*
X165063227Y-119537804D01*
X165087495Y-119534204D01*
X165111999Y-119533000D01*
X166012001Y-119533000D01*
X166036505Y-119534204D01*
X166036505Y-119534204D01*
G37*
D11*
X165562000Y-120108000D03*
D10*
G36*
X166036505Y-117484204D02*
X166060773Y-117487804D01*
X166084572Y-117493765D01*
X166107671Y-117502030D01*
X166129850Y-117512520D01*
X166150893Y-117525132D01*
X166170599Y-117539747D01*
X166188777Y-117556223D01*
X166205253Y-117574401D01*
X166219868Y-117594107D01*
X166232480Y-117615150D01*
X166242970Y-117637329D01*
X166251235Y-117660428D01*
X166257196Y-117684227D01*
X166260796Y-117708495D01*
X166262000Y-117732999D01*
X166262000Y-118383001D01*
X166260796Y-118407505D01*
X166257196Y-118431773D01*
X166251235Y-118455572D01*
X166242970Y-118478671D01*
X166232480Y-118500850D01*
X166219868Y-118521893D01*
X166205253Y-118541599D01*
X166188777Y-118559777D01*
X166170599Y-118576253D01*
X166150893Y-118590868D01*
X166129850Y-118603480D01*
X166107671Y-118613970D01*
X166084572Y-118622235D01*
X166060773Y-118628196D01*
X166036505Y-118631796D01*
X166012001Y-118633000D01*
X165111999Y-118633000D01*
X165087495Y-118631796D01*
X165063227Y-118628196D01*
X165039428Y-118622235D01*
X165016329Y-118613970D01*
X164994150Y-118603480D01*
X164973107Y-118590868D01*
X164953401Y-118576253D01*
X164935223Y-118559777D01*
X164918747Y-118541599D01*
X164904132Y-118521893D01*
X164891520Y-118500850D01*
X164881030Y-118478671D01*
X164872765Y-118455572D01*
X164866804Y-118431773D01*
X164863204Y-118407505D01*
X164862000Y-118383001D01*
X164862000Y-117732999D01*
X164863204Y-117708495D01*
X164866804Y-117684227D01*
X164872765Y-117660428D01*
X164881030Y-117637329D01*
X164891520Y-117615150D01*
X164904132Y-117594107D01*
X164918747Y-117574401D01*
X164935223Y-117556223D01*
X164953401Y-117539747D01*
X164973107Y-117525132D01*
X164994150Y-117512520D01*
X165016329Y-117502030D01*
X165039428Y-117493765D01*
X165063227Y-117487804D01*
X165087495Y-117484204D01*
X165111999Y-117483000D01*
X166012001Y-117483000D01*
X166036505Y-117484204D01*
X166036505Y-117484204D01*
G37*
D11*
X165562000Y-118058000D03*
G04 #@! TD*
D18*
G04 #@! TO.C,U2*
X174833000Y-120725000D03*
D19*
X168533000Y-120725000D03*
X168533000Y-123025000D03*
X168533000Y-118425000D03*
G04 #@! TD*
D10*
G04 #@! TO.C,R1*
G36*
X169724505Y-111451204D02*
X169748773Y-111454804D01*
X169772572Y-111460765D01*
X169795671Y-111469030D01*
X169817850Y-111479520D01*
X169838893Y-111492132D01*
X169858599Y-111506747D01*
X169876777Y-111523223D01*
X169893253Y-111541401D01*
X169907868Y-111561107D01*
X169920480Y-111582150D01*
X169930970Y-111604329D01*
X169939235Y-111627428D01*
X169945196Y-111651227D01*
X169948796Y-111675495D01*
X169950000Y-111699999D01*
X169950000Y-112350001D01*
X169948796Y-112374505D01*
X169945196Y-112398773D01*
X169939235Y-112422572D01*
X169930970Y-112445671D01*
X169920480Y-112467850D01*
X169907868Y-112488893D01*
X169893253Y-112508599D01*
X169876777Y-112526777D01*
X169858599Y-112543253D01*
X169838893Y-112557868D01*
X169817850Y-112570480D01*
X169795671Y-112580970D01*
X169772572Y-112589235D01*
X169748773Y-112595196D01*
X169724505Y-112598796D01*
X169700001Y-112600000D01*
X168799999Y-112600000D01*
X168775495Y-112598796D01*
X168751227Y-112595196D01*
X168727428Y-112589235D01*
X168704329Y-112580970D01*
X168682150Y-112570480D01*
X168661107Y-112557868D01*
X168641401Y-112543253D01*
X168623223Y-112526777D01*
X168606747Y-112508599D01*
X168592132Y-112488893D01*
X168579520Y-112467850D01*
X168569030Y-112445671D01*
X168560765Y-112422572D01*
X168554804Y-112398773D01*
X168551204Y-112374505D01*
X168550000Y-112350001D01*
X168550000Y-111699999D01*
X168551204Y-111675495D01*
X168554804Y-111651227D01*
X168560765Y-111627428D01*
X168569030Y-111604329D01*
X168579520Y-111582150D01*
X168592132Y-111561107D01*
X168606747Y-111541401D01*
X168623223Y-111523223D01*
X168641401Y-111506747D01*
X168661107Y-111492132D01*
X168682150Y-111479520D01*
X168704329Y-111469030D01*
X168727428Y-111460765D01*
X168751227Y-111454804D01*
X168775495Y-111451204D01*
X168799999Y-111450000D01*
X169700001Y-111450000D01*
X169724505Y-111451204D01*
X169724505Y-111451204D01*
G37*
D11*
X169250000Y-112025000D03*
D10*
G36*
X169724505Y-109401204D02*
X169748773Y-109404804D01*
X169772572Y-109410765D01*
X169795671Y-109419030D01*
X169817850Y-109429520D01*
X169838893Y-109442132D01*
X169858599Y-109456747D01*
X169876777Y-109473223D01*
X169893253Y-109491401D01*
X169907868Y-109511107D01*
X169920480Y-109532150D01*
X169930970Y-109554329D01*
X169939235Y-109577428D01*
X169945196Y-109601227D01*
X169948796Y-109625495D01*
X169950000Y-109649999D01*
X169950000Y-110300001D01*
X169948796Y-110324505D01*
X169945196Y-110348773D01*
X169939235Y-110372572D01*
X169930970Y-110395671D01*
X169920480Y-110417850D01*
X169907868Y-110438893D01*
X169893253Y-110458599D01*
X169876777Y-110476777D01*
X169858599Y-110493253D01*
X169838893Y-110507868D01*
X169817850Y-110520480D01*
X169795671Y-110530970D01*
X169772572Y-110539235D01*
X169748773Y-110545196D01*
X169724505Y-110548796D01*
X169700001Y-110550000D01*
X168799999Y-110550000D01*
X168775495Y-110548796D01*
X168751227Y-110545196D01*
X168727428Y-110539235D01*
X168704329Y-110530970D01*
X168682150Y-110520480D01*
X168661107Y-110507868D01*
X168641401Y-110493253D01*
X168623223Y-110476777D01*
X168606747Y-110458599D01*
X168592132Y-110438893D01*
X168579520Y-110417850D01*
X168569030Y-110395671D01*
X168560765Y-110372572D01*
X168554804Y-110348773D01*
X168551204Y-110324505D01*
X168550000Y-110300001D01*
X168550000Y-109649999D01*
X168551204Y-109625495D01*
X168554804Y-109601227D01*
X168560765Y-109577428D01*
X168569030Y-109554329D01*
X168579520Y-109532150D01*
X168592132Y-109511107D01*
X168606747Y-109491401D01*
X168623223Y-109473223D01*
X168641401Y-109456747D01*
X168661107Y-109442132D01*
X168682150Y-109429520D01*
X168704329Y-109419030D01*
X168727428Y-109410765D01*
X168751227Y-109404804D01*
X168775495Y-109401204D01*
X168799999Y-109400000D01*
X169700001Y-109400000D01*
X169724505Y-109401204D01*
X169724505Y-109401204D01*
G37*
D11*
X169250000Y-109975000D03*
G04 #@! TD*
D10*
G04 #@! TO.C,R4*
G36*
X178074505Y-105301204D02*
X178098773Y-105304804D01*
X178122572Y-105310765D01*
X178145671Y-105319030D01*
X178167850Y-105329520D01*
X178188893Y-105342132D01*
X178208599Y-105356747D01*
X178226777Y-105373223D01*
X178243253Y-105391401D01*
X178257868Y-105411107D01*
X178270480Y-105432150D01*
X178280970Y-105454329D01*
X178289235Y-105477428D01*
X178295196Y-105501227D01*
X178298796Y-105525495D01*
X178300000Y-105549999D01*
X178300000Y-106450001D01*
X178298796Y-106474505D01*
X178295196Y-106498773D01*
X178289235Y-106522572D01*
X178280970Y-106545671D01*
X178270480Y-106567850D01*
X178257868Y-106588893D01*
X178243253Y-106608599D01*
X178226777Y-106626777D01*
X178208599Y-106643253D01*
X178188893Y-106657868D01*
X178167850Y-106670480D01*
X178145671Y-106680970D01*
X178122572Y-106689235D01*
X178098773Y-106695196D01*
X178074505Y-106698796D01*
X178050001Y-106700000D01*
X177399999Y-106700000D01*
X177375495Y-106698796D01*
X177351227Y-106695196D01*
X177327428Y-106689235D01*
X177304329Y-106680970D01*
X177282150Y-106670480D01*
X177261107Y-106657868D01*
X177241401Y-106643253D01*
X177223223Y-106626777D01*
X177206747Y-106608599D01*
X177192132Y-106588893D01*
X177179520Y-106567850D01*
X177169030Y-106545671D01*
X177160765Y-106522572D01*
X177154804Y-106498773D01*
X177151204Y-106474505D01*
X177150000Y-106450001D01*
X177150000Y-105549999D01*
X177151204Y-105525495D01*
X177154804Y-105501227D01*
X177160765Y-105477428D01*
X177169030Y-105454329D01*
X177179520Y-105432150D01*
X177192132Y-105411107D01*
X177206747Y-105391401D01*
X177223223Y-105373223D01*
X177241401Y-105356747D01*
X177261107Y-105342132D01*
X177282150Y-105329520D01*
X177304329Y-105319030D01*
X177327428Y-105310765D01*
X177351227Y-105304804D01*
X177375495Y-105301204D01*
X177399999Y-105300000D01*
X178050001Y-105300000D01*
X178074505Y-105301204D01*
X178074505Y-105301204D01*
G37*
D11*
X177725000Y-106000000D03*
D10*
G36*
X180124505Y-105301204D02*
X180148773Y-105304804D01*
X180172572Y-105310765D01*
X180195671Y-105319030D01*
X180217850Y-105329520D01*
X180238893Y-105342132D01*
X180258599Y-105356747D01*
X180276777Y-105373223D01*
X180293253Y-105391401D01*
X180307868Y-105411107D01*
X180320480Y-105432150D01*
X180330970Y-105454329D01*
X180339235Y-105477428D01*
X180345196Y-105501227D01*
X180348796Y-105525495D01*
X180350000Y-105549999D01*
X180350000Y-106450001D01*
X180348796Y-106474505D01*
X180345196Y-106498773D01*
X180339235Y-106522572D01*
X180330970Y-106545671D01*
X180320480Y-106567850D01*
X180307868Y-106588893D01*
X180293253Y-106608599D01*
X180276777Y-106626777D01*
X180258599Y-106643253D01*
X180238893Y-106657868D01*
X180217850Y-106670480D01*
X180195671Y-106680970D01*
X180172572Y-106689235D01*
X180148773Y-106695196D01*
X180124505Y-106698796D01*
X180100001Y-106700000D01*
X179449999Y-106700000D01*
X179425495Y-106698796D01*
X179401227Y-106695196D01*
X179377428Y-106689235D01*
X179354329Y-106680970D01*
X179332150Y-106670480D01*
X179311107Y-106657868D01*
X179291401Y-106643253D01*
X179273223Y-106626777D01*
X179256747Y-106608599D01*
X179242132Y-106588893D01*
X179229520Y-106567850D01*
X179219030Y-106545671D01*
X179210765Y-106522572D01*
X179204804Y-106498773D01*
X179201204Y-106474505D01*
X179200000Y-106450001D01*
X179200000Y-105549999D01*
X179201204Y-105525495D01*
X179204804Y-105501227D01*
X179210765Y-105477428D01*
X179219030Y-105454329D01*
X179229520Y-105432150D01*
X179242132Y-105411107D01*
X179256747Y-105391401D01*
X179273223Y-105373223D01*
X179291401Y-105356747D01*
X179311107Y-105342132D01*
X179332150Y-105329520D01*
X179354329Y-105319030D01*
X179377428Y-105310765D01*
X179401227Y-105304804D01*
X179425495Y-105301204D01*
X179449999Y-105300000D01*
X180100001Y-105300000D01*
X180124505Y-105301204D01*
X180124505Y-105301204D01*
G37*
D11*
X179775000Y-106000000D03*
G04 #@! TD*
D20*
G04 #@! TO.C,D2*
X162750000Y-128000000D03*
X166750000Y-128000000D03*
G04 #@! TD*
D21*
G04 #@! TO.C,RV1*
X159457000Y-89380000D03*
D22*
X153957000Y-88230000D03*
D21*
X159457000Y-87080000D03*
G04 #@! TD*
G04 #@! TO.C,RV2*
X153957000Y-77380000D03*
D22*
X159457000Y-76230000D03*
D21*
X153957000Y-75080000D03*
G04 #@! TD*
G04 #@! TO.C,RV3*
X159457000Y-81080000D03*
D22*
X153957000Y-82230000D03*
D21*
X159457000Y-83380000D03*
G04 #@! TD*
D10*
G04 #@! TO.C,R6*
G36*
X132974505Y-107951204D02*
X132998773Y-107954804D01*
X133022572Y-107960765D01*
X133045671Y-107969030D01*
X133067850Y-107979520D01*
X133088893Y-107992132D01*
X133108599Y-108006747D01*
X133126777Y-108023223D01*
X133143253Y-108041401D01*
X133157868Y-108061107D01*
X133170480Y-108082150D01*
X133180970Y-108104329D01*
X133189235Y-108127428D01*
X133195196Y-108151227D01*
X133198796Y-108175495D01*
X133200000Y-108199999D01*
X133200000Y-108850001D01*
X133198796Y-108874505D01*
X133195196Y-108898773D01*
X133189235Y-108922572D01*
X133180970Y-108945671D01*
X133170480Y-108967850D01*
X133157868Y-108988893D01*
X133143253Y-109008599D01*
X133126777Y-109026777D01*
X133108599Y-109043253D01*
X133088893Y-109057868D01*
X133067850Y-109070480D01*
X133045671Y-109080970D01*
X133022572Y-109089235D01*
X132998773Y-109095196D01*
X132974505Y-109098796D01*
X132950001Y-109100000D01*
X132049999Y-109100000D01*
X132025495Y-109098796D01*
X132001227Y-109095196D01*
X131977428Y-109089235D01*
X131954329Y-109080970D01*
X131932150Y-109070480D01*
X131911107Y-109057868D01*
X131891401Y-109043253D01*
X131873223Y-109026777D01*
X131856747Y-109008599D01*
X131842132Y-108988893D01*
X131829520Y-108967850D01*
X131819030Y-108945671D01*
X131810765Y-108922572D01*
X131804804Y-108898773D01*
X131801204Y-108874505D01*
X131800000Y-108850001D01*
X131800000Y-108199999D01*
X131801204Y-108175495D01*
X131804804Y-108151227D01*
X131810765Y-108127428D01*
X131819030Y-108104329D01*
X131829520Y-108082150D01*
X131842132Y-108061107D01*
X131856747Y-108041401D01*
X131873223Y-108023223D01*
X131891401Y-108006747D01*
X131911107Y-107992132D01*
X131932150Y-107979520D01*
X131954329Y-107969030D01*
X131977428Y-107960765D01*
X132001227Y-107954804D01*
X132025495Y-107951204D01*
X132049999Y-107950000D01*
X132950001Y-107950000D01*
X132974505Y-107951204D01*
X132974505Y-107951204D01*
G37*
D11*
X132500000Y-108525000D03*
D10*
G36*
X132974505Y-105901204D02*
X132998773Y-105904804D01*
X133022572Y-105910765D01*
X133045671Y-105919030D01*
X133067850Y-105929520D01*
X133088893Y-105942132D01*
X133108599Y-105956747D01*
X133126777Y-105973223D01*
X133143253Y-105991401D01*
X133157868Y-106011107D01*
X133170480Y-106032150D01*
X133180970Y-106054329D01*
X133189235Y-106077428D01*
X133195196Y-106101227D01*
X133198796Y-106125495D01*
X133200000Y-106149999D01*
X133200000Y-106800001D01*
X133198796Y-106824505D01*
X133195196Y-106848773D01*
X133189235Y-106872572D01*
X133180970Y-106895671D01*
X133170480Y-106917850D01*
X133157868Y-106938893D01*
X133143253Y-106958599D01*
X133126777Y-106976777D01*
X133108599Y-106993253D01*
X133088893Y-107007868D01*
X133067850Y-107020480D01*
X133045671Y-107030970D01*
X133022572Y-107039235D01*
X132998773Y-107045196D01*
X132974505Y-107048796D01*
X132950001Y-107050000D01*
X132049999Y-107050000D01*
X132025495Y-107048796D01*
X132001227Y-107045196D01*
X131977428Y-107039235D01*
X131954329Y-107030970D01*
X131932150Y-107020480D01*
X131911107Y-107007868D01*
X131891401Y-106993253D01*
X131873223Y-106976777D01*
X131856747Y-106958599D01*
X131842132Y-106938893D01*
X131829520Y-106917850D01*
X131819030Y-106895671D01*
X131810765Y-106872572D01*
X131804804Y-106848773D01*
X131801204Y-106824505D01*
X131800000Y-106800001D01*
X131800000Y-106149999D01*
X131801204Y-106125495D01*
X131804804Y-106101227D01*
X131810765Y-106077428D01*
X131819030Y-106054329D01*
X131829520Y-106032150D01*
X131842132Y-106011107D01*
X131856747Y-105991401D01*
X131873223Y-105973223D01*
X131891401Y-105956747D01*
X131911107Y-105942132D01*
X131932150Y-105929520D01*
X131954329Y-105919030D01*
X131977428Y-105910765D01*
X132001227Y-105904804D01*
X132025495Y-105901204D01*
X132049999Y-105900000D01*
X132950001Y-105900000D01*
X132974505Y-105901204D01*
X132974505Y-105901204D01*
G37*
D11*
X132500000Y-106475000D03*
G04 #@! TD*
D10*
G04 #@! TO.C,R7*
G36*
X130474505Y-105901204D02*
X130498773Y-105904804D01*
X130522572Y-105910765D01*
X130545671Y-105919030D01*
X130567850Y-105929520D01*
X130588893Y-105942132D01*
X130608599Y-105956747D01*
X130626777Y-105973223D01*
X130643253Y-105991401D01*
X130657868Y-106011107D01*
X130670480Y-106032150D01*
X130680970Y-106054329D01*
X130689235Y-106077428D01*
X130695196Y-106101227D01*
X130698796Y-106125495D01*
X130700000Y-106149999D01*
X130700000Y-106800001D01*
X130698796Y-106824505D01*
X130695196Y-106848773D01*
X130689235Y-106872572D01*
X130680970Y-106895671D01*
X130670480Y-106917850D01*
X130657868Y-106938893D01*
X130643253Y-106958599D01*
X130626777Y-106976777D01*
X130608599Y-106993253D01*
X130588893Y-107007868D01*
X130567850Y-107020480D01*
X130545671Y-107030970D01*
X130522572Y-107039235D01*
X130498773Y-107045196D01*
X130474505Y-107048796D01*
X130450001Y-107050000D01*
X129549999Y-107050000D01*
X129525495Y-107048796D01*
X129501227Y-107045196D01*
X129477428Y-107039235D01*
X129454329Y-107030970D01*
X129432150Y-107020480D01*
X129411107Y-107007868D01*
X129391401Y-106993253D01*
X129373223Y-106976777D01*
X129356747Y-106958599D01*
X129342132Y-106938893D01*
X129329520Y-106917850D01*
X129319030Y-106895671D01*
X129310765Y-106872572D01*
X129304804Y-106848773D01*
X129301204Y-106824505D01*
X129300000Y-106800001D01*
X129300000Y-106149999D01*
X129301204Y-106125495D01*
X129304804Y-106101227D01*
X129310765Y-106077428D01*
X129319030Y-106054329D01*
X129329520Y-106032150D01*
X129342132Y-106011107D01*
X129356747Y-105991401D01*
X129373223Y-105973223D01*
X129391401Y-105956747D01*
X129411107Y-105942132D01*
X129432150Y-105929520D01*
X129454329Y-105919030D01*
X129477428Y-105910765D01*
X129501227Y-105904804D01*
X129525495Y-105901204D01*
X129549999Y-105900000D01*
X130450001Y-105900000D01*
X130474505Y-105901204D01*
X130474505Y-105901204D01*
G37*
D11*
X130000000Y-106475000D03*
D10*
G36*
X130474505Y-107951204D02*
X130498773Y-107954804D01*
X130522572Y-107960765D01*
X130545671Y-107969030D01*
X130567850Y-107979520D01*
X130588893Y-107992132D01*
X130608599Y-108006747D01*
X130626777Y-108023223D01*
X130643253Y-108041401D01*
X130657868Y-108061107D01*
X130670480Y-108082150D01*
X130680970Y-108104329D01*
X130689235Y-108127428D01*
X130695196Y-108151227D01*
X130698796Y-108175495D01*
X130700000Y-108199999D01*
X130700000Y-108850001D01*
X130698796Y-108874505D01*
X130695196Y-108898773D01*
X130689235Y-108922572D01*
X130680970Y-108945671D01*
X130670480Y-108967850D01*
X130657868Y-108988893D01*
X130643253Y-109008599D01*
X130626777Y-109026777D01*
X130608599Y-109043253D01*
X130588893Y-109057868D01*
X130567850Y-109070480D01*
X130545671Y-109080970D01*
X130522572Y-109089235D01*
X130498773Y-109095196D01*
X130474505Y-109098796D01*
X130450001Y-109100000D01*
X129549999Y-109100000D01*
X129525495Y-109098796D01*
X129501227Y-109095196D01*
X129477428Y-109089235D01*
X129454329Y-109080970D01*
X129432150Y-109070480D01*
X129411107Y-109057868D01*
X129391401Y-109043253D01*
X129373223Y-109026777D01*
X129356747Y-109008599D01*
X129342132Y-108988893D01*
X129329520Y-108967850D01*
X129319030Y-108945671D01*
X129310765Y-108922572D01*
X129304804Y-108898773D01*
X129301204Y-108874505D01*
X129300000Y-108850001D01*
X129300000Y-108199999D01*
X129301204Y-108175495D01*
X129304804Y-108151227D01*
X129310765Y-108127428D01*
X129319030Y-108104329D01*
X129329520Y-108082150D01*
X129342132Y-108061107D01*
X129356747Y-108041401D01*
X129373223Y-108023223D01*
X129391401Y-108006747D01*
X129411107Y-107992132D01*
X129432150Y-107979520D01*
X129454329Y-107969030D01*
X129477428Y-107960765D01*
X129501227Y-107954804D01*
X129525495Y-107951204D01*
X129549999Y-107950000D01*
X130450001Y-107950000D01*
X130474505Y-107951204D01*
X130474505Y-107951204D01*
G37*
D11*
X130000000Y-108525000D03*
G04 #@! TD*
D10*
G04 #@! TO.C,D1*
G36*
X182168822Y-111750433D02*
X182177558Y-111751729D01*
X182186126Y-111753875D01*
X182194442Y-111756851D01*
X182202426Y-111760627D01*
X182210001Y-111765168D01*
X182217095Y-111770429D01*
X182223640Y-111776360D01*
X182229571Y-111782905D01*
X182234832Y-111789999D01*
X182239373Y-111797574D01*
X182243149Y-111805558D01*
X182246125Y-111813874D01*
X182248271Y-111822442D01*
X182249567Y-111831178D01*
X182250000Y-111840000D01*
X182250000Y-112560000D01*
X182249567Y-112568822D01*
X182248271Y-112577558D01*
X182246125Y-112586126D01*
X182243149Y-112594442D01*
X182239373Y-112602426D01*
X182234832Y-112610001D01*
X182229571Y-112617095D01*
X182223640Y-112623640D01*
X182217095Y-112629571D01*
X182210001Y-112634832D01*
X182202426Y-112639373D01*
X182194442Y-112643149D01*
X182186126Y-112646125D01*
X182177558Y-112648271D01*
X182168822Y-112649567D01*
X182160000Y-112650000D01*
X181340000Y-112650000D01*
X181331178Y-112649567D01*
X181322442Y-112648271D01*
X181313874Y-112646125D01*
X181305558Y-112643149D01*
X181297574Y-112639373D01*
X181289999Y-112634832D01*
X181282905Y-112629571D01*
X181276360Y-112623640D01*
X181270429Y-112617095D01*
X181265168Y-112610001D01*
X181260627Y-112602426D01*
X181256851Y-112594442D01*
X181253875Y-112586126D01*
X181251729Y-112577558D01*
X181250433Y-112568822D01*
X181250000Y-112560000D01*
X181250000Y-111840000D01*
X181250433Y-111831178D01*
X181251729Y-111822442D01*
X181253875Y-111813874D01*
X181256851Y-111805558D01*
X181260627Y-111797574D01*
X181265168Y-111789999D01*
X181270429Y-111782905D01*
X181276360Y-111776360D01*
X181282905Y-111770429D01*
X181289999Y-111765168D01*
X181297574Y-111760627D01*
X181305558Y-111756851D01*
X181313874Y-111753875D01*
X181322442Y-111751729D01*
X181331178Y-111750433D01*
X181340000Y-111750000D01*
X182160000Y-111750000D01*
X182168822Y-111750433D01*
X182168822Y-111750433D01*
G37*
D23*
X181750000Y-112200000D03*
D10*
G36*
X182168822Y-109350433D02*
X182177558Y-109351729D01*
X182186126Y-109353875D01*
X182194442Y-109356851D01*
X182202426Y-109360627D01*
X182210001Y-109365168D01*
X182217095Y-109370429D01*
X182223640Y-109376360D01*
X182229571Y-109382905D01*
X182234832Y-109389999D01*
X182239373Y-109397574D01*
X182243149Y-109405558D01*
X182246125Y-109413874D01*
X182248271Y-109422442D01*
X182249567Y-109431178D01*
X182250000Y-109440000D01*
X182250000Y-110160000D01*
X182249567Y-110168822D01*
X182248271Y-110177558D01*
X182246125Y-110186126D01*
X182243149Y-110194442D01*
X182239373Y-110202426D01*
X182234832Y-110210001D01*
X182229571Y-110217095D01*
X182223640Y-110223640D01*
X182217095Y-110229571D01*
X182210001Y-110234832D01*
X182202426Y-110239373D01*
X182194442Y-110243149D01*
X182186126Y-110246125D01*
X182177558Y-110248271D01*
X182168822Y-110249567D01*
X182160000Y-110250000D01*
X181340000Y-110250000D01*
X181331178Y-110249567D01*
X181322442Y-110248271D01*
X181313874Y-110246125D01*
X181305558Y-110243149D01*
X181297574Y-110239373D01*
X181289999Y-110234832D01*
X181282905Y-110229571D01*
X181276360Y-110223640D01*
X181270429Y-110217095D01*
X181265168Y-110210001D01*
X181260627Y-110202426D01*
X181256851Y-110194442D01*
X181253875Y-110186126D01*
X181251729Y-110177558D01*
X181250433Y-110168822D01*
X181250000Y-110160000D01*
X181250000Y-109440000D01*
X181250433Y-109431178D01*
X181251729Y-109422442D01*
X181253875Y-109413874D01*
X181256851Y-109405558D01*
X181260627Y-109397574D01*
X181265168Y-109389999D01*
X181270429Y-109382905D01*
X181276360Y-109376360D01*
X181282905Y-109370429D01*
X181289999Y-109365168D01*
X181297574Y-109360627D01*
X181305558Y-109356851D01*
X181313874Y-109353875D01*
X181322442Y-109351729D01*
X181331178Y-109350433D01*
X181340000Y-109350000D01*
X182160000Y-109350000D01*
X182168822Y-109350433D01*
X182168822Y-109350433D01*
G37*
D23*
X181750000Y-109800000D03*
G04 #@! TD*
D10*
G04 #@! TO.C,D3*
G36*
X182168822Y-103750433D02*
X182177558Y-103751729D01*
X182186126Y-103753875D01*
X182194442Y-103756851D01*
X182202426Y-103760627D01*
X182210001Y-103765168D01*
X182217095Y-103770429D01*
X182223640Y-103776360D01*
X182229571Y-103782905D01*
X182234832Y-103789999D01*
X182239373Y-103797574D01*
X182243149Y-103805558D01*
X182246125Y-103813874D01*
X182248271Y-103822442D01*
X182249567Y-103831178D01*
X182250000Y-103840000D01*
X182250000Y-104560000D01*
X182249567Y-104568822D01*
X182248271Y-104577558D01*
X182246125Y-104586126D01*
X182243149Y-104594442D01*
X182239373Y-104602426D01*
X182234832Y-104610001D01*
X182229571Y-104617095D01*
X182223640Y-104623640D01*
X182217095Y-104629571D01*
X182210001Y-104634832D01*
X182202426Y-104639373D01*
X182194442Y-104643149D01*
X182186126Y-104646125D01*
X182177558Y-104648271D01*
X182168822Y-104649567D01*
X182160000Y-104650000D01*
X181340000Y-104650000D01*
X181331178Y-104649567D01*
X181322442Y-104648271D01*
X181313874Y-104646125D01*
X181305558Y-104643149D01*
X181297574Y-104639373D01*
X181289999Y-104634832D01*
X181282905Y-104629571D01*
X181276360Y-104623640D01*
X181270429Y-104617095D01*
X181265168Y-104610001D01*
X181260627Y-104602426D01*
X181256851Y-104594442D01*
X181253875Y-104586126D01*
X181251729Y-104577558D01*
X181250433Y-104568822D01*
X181250000Y-104560000D01*
X181250000Y-103840000D01*
X181250433Y-103831178D01*
X181251729Y-103822442D01*
X181253875Y-103813874D01*
X181256851Y-103805558D01*
X181260627Y-103797574D01*
X181265168Y-103789999D01*
X181270429Y-103782905D01*
X181276360Y-103776360D01*
X181282905Y-103770429D01*
X181289999Y-103765168D01*
X181297574Y-103760627D01*
X181305558Y-103756851D01*
X181313874Y-103753875D01*
X181322442Y-103751729D01*
X181331178Y-103750433D01*
X181340000Y-103750000D01*
X182160000Y-103750000D01*
X182168822Y-103750433D01*
X182168822Y-103750433D01*
G37*
D23*
X181750000Y-104200000D03*
D10*
G36*
X182168822Y-101350433D02*
X182177558Y-101351729D01*
X182186126Y-101353875D01*
X182194442Y-101356851D01*
X182202426Y-101360627D01*
X182210001Y-101365168D01*
X182217095Y-101370429D01*
X182223640Y-101376360D01*
X182229571Y-101382905D01*
X182234832Y-101389999D01*
X182239373Y-101397574D01*
X182243149Y-101405558D01*
X182246125Y-101413874D01*
X182248271Y-101422442D01*
X182249567Y-101431178D01*
X182250000Y-101440000D01*
X182250000Y-102160000D01*
X182249567Y-102168822D01*
X182248271Y-102177558D01*
X182246125Y-102186126D01*
X182243149Y-102194442D01*
X182239373Y-102202426D01*
X182234832Y-102210001D01*
X182229571Y-102217095D01*
X182223640Y-102223640D01*
X182217095Y-102229571D01*
X182210001Y-102234832D01*
X182202426Y-102239373D01*
X182194442Y-102243149D01*
X182186126Y-102246125D01*
X182177558Y-102248271D01*
X182168822Y-102249567D01*
X182160000Y-102250000D01*
X181340000Y-102250000D01*
X181331178Y-102249567D01*
X181322442Y-102248271D01*
X181313874Y-102246125D01*
X181305558Y-102243149D01*
X181297574Y-102239373D01*
X181289999Y-102234832D01*
X181282905Y-102229571D01*
X181276360Y-102223640D01*
X181270429Y-102217095D01*
X181265168Y-102210001D01*
X181260627Y-102202426D01*
X181256851Y-102194442D01*
X181253875Y-102186126D01*
X181251729Y-102177558D01*
X181250433Y-102168822D01*
X181250000Y-102160000D01*
X181250000Y-101440000D01*
X181250433Y-101431178D01*
X181251729Y-101422442D01*
X181253875Y-101413874D01*
X181256851Y-101405558D01*
X181260627Y-101397574D01*
X181265168Y-101389999D01*
X181270429Y-101382905D01*
X181276360Y-101376360D01*
X181282905Y-101370429D01*
X181289999Y-101365168D01*
X181297574Y-101360627D01*
X181305558Y-101356851D01*
X181313874Y-101353875D01*
X181322442Y-101351729D01*
X181331178Y-101350433D01*
X181340000Y-101350000D01*
X182160000Y-101350000D01*
X182168822Y-101350433D01*
X182168822Y-101350433D01*
G37*
D23*
X181750000Y-101800000D03*
G04 #@! TD*
D10*
G04 #@! TO.C,D5*
G36*
X182168822Y-105350433D02*
X182177558Y-105351729D01*
X182186126Y-105353875D01*
X182194442Y-105356851D01*
X182202426Y-105360627D01*
X182210001Y-105365168D01*
X182217095Y-105370429D01*
X182223640Y-105376360D01*
X182229571Y-105382905D01*
X182234832Y-105389999D01*
X182239373Y-105397574D01*
X182243149Y-105405558D01*
X182246125Y-105413874D01*
X182248271Y-105422442D01*
X182249567Y-105431178D01*
X182250000Y-105440000D01*
X182250000Y-106160000D01*
X182249567Y-106168822D01*
X182248271Y-106177558D01*
X182246125Y-106186126D01*
X182243149Y-106194442D01*
X182239373Y-106202426D01*
X182234832Y-106210001D01*
X182229571Y-106217095D01*
X182223640Y-106223640D01*
X182217095Y-106229571D01*
X182210001Y-106234832D01*
X182202426Y-106239373D01*
X182194442Y-106243149D01*
X182186126Y-106246125D01*
X182177558Y-106248271D01*
X182168822Y-106249567D01*
X182160000Y-106250000D01*
X181340000Y-106250000D01*
X181331178Y-106249567D01*
X181322442Y-106248271D01*
X181313874Y-106246125D01*
X181305558Y-106243149D01*
X181297574Y-106239373D01*
X181289999Y-106234832D01*
X181282905Y-106229571D01*
X181276360Y-106223640D01*
X181270429Y-106217095D01*
X181265168Y-106210001D01*
X181260627Y-106202426D01*
X181256851Y-106194442D01*
X181253875Y-106186126D01*
X181251729Y-106177558D01*
X181250433Y-106168822D01*
X181250000Y-106160000D01*
X181250000Y-105440000D01*
X181250433Y-105431178D01*
X181251729Y-105422442D01*
X181253875Y-105413874D01*
X181256851Y-105405558D01*
X181260627Y-105397574D01*
X181265168Y-105389999D01*
X181270429Y-105382905D01*
X181276360Y-105376360D01*
X181282905Y-105370429D01*
X181289999Y-105365168D01*
X181297574Y-105360627D01*
X181305558Y-105356851D01*
X181313874Y-105353875D01*
X181322442Y-105351729D01*
X181331178Y-105350433D01*
X181340000Y-105350000D01*
X182160000Y-105350000D01*
X182168822Y-105350433D01*
X182168822Y-105350433D01*
G37*
D23*
X181750000Y-105800000D03*
D10*
G36*
X182168822Y-107750433D02*
X182177558Y-107751729D01*
X182186126Y-107753875D01*
X182194442Y-107756851D01*
X182202426Y-107760627D01*
X182210001Y-107765168D01*
X182217095Y-107770429D01*
X182223640Y-107776360D01*
X182229571Y-107782905D01*
X182234832Y-107789999D01*
X182239373Y-107797574D01*
X182243149Y-107805558D01*
X182246125Y-107813874D01*
X182248271Y-107822442D01*
X182249567Y-107831178D01*
X182250000Y-107840000D01*
X182250000Y-108560000D01*
X182249567Y-108568822D01*
X182248271Y-108577558D01*
X182246125Y-108586126D01*
X182243149Y-108594442D01*
X182239373Y-108602426D01*
X182234832Y-108610001D01*
X182229571Y-108617095D01*
X182223640Y-108623640D01*
X182217095Y-108629571D01*
X182210001Y-108634832D01*
X182202426Y-108639373D01*
X182194442Y-108643149D01*
X182186126Y-108646125D01*
X182177558Y-108648271D01*
X182168822Y-108649567D01*
X182160000Y-108650000D01*
X181340000Y-108650000D01*
X181331178Y-108649567D01*
X181322442Y-108648271D01*
X181313874Y-108646125D01*
X181305558Y-108643149D01*
X181297574Y-108639373D01*
X181289999Y-108634832D01*
X181282905Y-108629571D01*
X181276360Y-108623640D01*
X181270429Y-108617095D01*
X181265168Y-108610001D01*
X181260627Y-108602426D01*
X181256851Y-108594442D01*
X181253875Y-108586126D01*
X181251729Y-108577558D01*
X181250433Y-108568822D01*
X181250000Y-108560000D01*
X181250000Y-107840000D01*
X181250433Y-107831178D01*
X181251729Y-107822442D01*
X181253875Y-107813874D01*
X181256851Y-107805558D01*
X181260627Y-107797574D01*
X181265168Y-107789999D01*
X181270429Y-107782905D01*
X181276360Y-107776360D01*
X181282905Y-107770429D01*
X181289999Y-107765168D01*
X181297574Y-107760627D01*
X181305558Y-107756851D01*
X181313874Y-107753875D01*
X181322442Y-107751729D01*
X181331178Y-107750433D01*
X181340000Y-107750000D01*
X182160000Y-107750000D01*
X182168822Y-107750433D01*
X182168822Y-107750433D01*
G37*
D23*
X181750000Y-108200000D03*
G04 #@! TD*
D24*
G04 #@! TO.C,D4*
X152500000Y-118950000D03*
X152500000Y-123250000D03*
G04 #@! TD*
D20*
G04 #@! TO.C,D6*
X170500000Y-126250000D03*
X174500000Y-126250000D03*
G04 #@! TD*
D10*
G04 #@! TO.C,C8*
G36*
X144774504Y-117801204D02*
X144798773Y-117804804D01*
X144822571Y-117810765D01*
X144845671Y-117819030D01*
X144867849Y-117829520D01*
X144888893Y-117842133D01*
X144908598Y-117856747D01*
X144926777Y-117873223D01*
X144943253Y-117891402D01*
X144957867Y-117911107D01*
X144970480Y-117932151D01*
X144980970Y-117954329D01*
X144989235Y-117977429D01*
X144995196Y-118001227D01*
X144998796Y-118025496D01*
X145000000Y-118050000D01*
X145000000Y-121950000D01*
X144998796Y-121974504D01*
X144995196Y-121998773D01*
X144989235Y-122022571D01*
X144980970Y-122045671D01*
X144970480Y-122067849D01*
X144957867Y-122088893D01*
X144943253Y-122108598D01*
X144926777Y-122126777D01*
X144908598Y-122143253D01*
X144888893Y-122157867D01*
X144867849Y-122170480D01*
X144845671Y-122180970D01*
X144822571Y-122189235D01*
X144798773Y-122195196D01*
X144774504Y-122198796D01*
X144750000Y-122200000D01*
X142750000Y-122200000D01*
X142725496Y-122198796D01*
X142701227Y-122195196D01*
X142677429Y-122189235D01*
X142654329Y-122180970D01*
X142632151Y-122170480D01*
X142611107Y-122157867D01*
X142591402Y-122143253D01*
X142573223Y-122126777D01*
X142556747Y-122108598D01*
X142542133Y-122088893D01*
X142529520Y-122067849D01*
X142519030Y-122045671D01*
X142510765Y-122022571D01*
X142504804Y-121998773D01*
X142501204Y-121974504D01*
X142500000Y-121950000D01*
X142500000Y-118050000D01*
X142501204Y-118025496D01*
X142504804Y-118001227D01*
X142510765Y-117977429D01*
X142519030Y-117954329D01*
X142529520Y-117932151D01*
X142542133Y-117911107D01*
X142556747Y-117891402D01*
X142573223Y-117873223D01*
X142591402Y-117856747D01*
X142611107Y-117842133D01*
X142632151Y-117829520D01*
X142654329Y-117819030D01*
X142677429Y-117810765D01*
X142701227Y-117804804D01*
X142725496Y-117801204D01*
X142750000Y-117800000D01*
X144750000Y-117800000D01*
X144774504Y-117801204D01*
X144774504Y-117801204D01*
G37*
D25*
X143750000Y-120000000D03*
D10*
G36*
X144774504Y-126201204D02*
X144798773Y-126204804D01*
X144822571Y-126210765D01*
X144845671Y-126219030D01*
X144867849Y-126229520D01*
X144888893Y-126242133D01*
X144908598Y-126256747D01*
X144926777Y-126273223D01*
X144943253Y-126291402D01*
X144957867Y-126311107D01*
X144970480Y-126332151D01*
X144980970Y-126354329D01*
X144989235Y-126377429D01*
X144995196Y-126401227D01*
X144998796Y-126425496D01*
X145000000Y-126450000D01*
X145000000Y-130350000D01*
X144998796Y-130374504D01*
X144995196Y-130398773D01*
X144989235Y-130422571D01*
X144980970Y-130445671D01*
X144970480Y-130467849D01*
X144957867Y-130488893D01*
X144943253Y-130508598D01*
X144926777Y-130526777D01*
X144908598Y-130543253D01*
X144888893Y-130557867D01*
X144867849Y-130570480D01*
X144845671Y-130580970D01*
X144822571Y-130589235D01*
X144798773Y-130595196D01*
X144774504Y-130598796D01*
X144750000Y-130600000D01*
X142750000Y-130600000D01*
X142725496Y-130598796D01*
X142701227Y-130595196D01*
X142677429Y-130589235D01*
X142654329Y-130580970D01*
X142632151Y-130570480D01*
X142611107Y-130557867D01*
X142591402Y-130543253D01*
X142573223Y-130526777D01*
X142556747Y-130508598D01*
X142542133Y-130488893D01*
X142529520Y-130467849D01*
X142519030Y-130445671D01*
X142510765Y-130422571D01*
X142504804Y-130398773D01*
X142501204Y-130374504D01*
X142500000Y-130350000D01*
X142500000Y-126450000D01*
X142501204Y-126425496D01*
X142504804Y-126401227D01*
X142510765Y-126377429D01*
X142519030Y-126354329D01*
X142529520Y-126332151D01*
X142542133Y-126311107D01*
X142556747Y-126291402D01*
X142573223Y-126273223D01*
X142591402Y-126256747D01*
X142611107Y-126242133D01*
X142632151Y-126229520D01*
X142654329Y-126219030D01*
X142677429Y-126210765D01*
X142701227Y-126204804D01*
X142725496Y-126201204D01*
X142750000Y-126200000D01*
X144750000Y-126200000D01*
X144774504Y-126201204D01*
X144774504Y-126201204D01*
G37*
D25*
X143750000Y-128400000D03*
G04 #@! TD*
D10*
G04 #@! TO.C,C9*
G36*
X164349505Y-73301204D02*
X164373773Y-73304804D01*
X164397572Y-73310765D01*
X164420671Y-73319030D01*
X164442850Y-73329520D01*
X164463893Y-73342132D01*
X164483599Y-73356747D01*
X164501777Y-73373223D01*
X164518253Y-73391401D01*
X164532868Y-73411107D01*
X164545480Y-73432150D01*
X164555970Y-73454329D01*
X164564235Y-73477428D01*
X164570196Y-73501227D01*
X164573796Y-73525495D01*
X164575000Y-73549999D01*
X164575000Y-74450001D01*
X164573796Y-74474505D01*
X164570196Y-74498773D01*
X164564235Y-74522572D01*
X164555970Y-74545671D01*
X164545480Y-74567850D01*
X164532868Y-74588893D01*
X164518253Y-74608599D01*
X164501777Y-74626777D01*
X164483599Y-74643253D01*
X164463893Y-74657868D01*
X164442850Y-74670480D01*
X164420671Y-74680970D01*
X164397572Y-74689235D01*
X164373773Y-74695196D01*
X164349505Y-74698796D01*
X164325001Y-74700000D01*
X163674999Y-74700000D01*
X163650495Y-74698796D01*
X163626227Y-74695196D01*
X163602428Y-74689235D01*
X163579329Y-74680970D01*
X163557150Y-74670480D01*
X163536107Y-74657868D01*
X163516401Y-74643253D01*
X163498223Y-74626777D01*
X163481747Y-74608599D01*
X163467132Y-74588893D01*
X163454520Y-74567850D01*
X163444030Y-74545671D01*
X163435765Y-74522572D01*
X163429804Y-74498773D01*
X163426204Y-74474505D01*
X163425000Y-74450001D01*
X163425000Y-73549999D01*
X163426204Y-73525495D01*
X163429804Y-73501227D01*
X163435765Y-73477428D01*
X163444030Y-73454329D01*
X163454520Y-73432150D01*
X163467132Y-73411107D01*
X163481747Y-73391401D01*
X163498223Y-73373223D01*
X163516401Y-73356747D01*
X163536107Y-73342132D01*
X163557150Y-73329520D01*
X163579329Y-73319030D01*
X163602428Y-73310765D01*
X163626227Y-73304804D01*
X163650495Y-73301204D01*
X163674999Y-73300000D01*
X164325001Y-73300000D01*
X164349505Y-73301204D01*
X164349505Y-73301204D01*
G37*
D11*
X164000000Y-74000000D03*
D10*
G36*
X162299505Y-73301204D02*
X162323773Y-73304804D01*
X162347572Y-73310765D01*
X162370671Y-73319030D01*
X162392850Y-73329520D01*
X162413893Y-73342132D01*
X162433599Y-73356747D01*
X162451777Y-73373223D01*
X162468253Y-73391401D01*
X162482868Y-73411107D01*
X162495480Y-73432150D01*
X162505970Y-73454329D01*
X162514235Y-73477428D01*
X162520196Y-73501227D01*
X162523796Y-73525495D01*
X162525000Y-73549999D01*
X162525000Y-74450001D01*
X162523796Y-74474505D01*
X162520196Y-74498773D01*
X162514235Y-74522572D01*
X162505970Y-74545671D01*
X162495480Y-74567850D01*
X162482868Y-74588893D01*
X162468253Y-74608599D01*
X162451777Y-74626777D01*
X162433599Y-74643253D01*
X162413893Y-74657868D01*
X162392850Y-74670480D01*
X162370671Y-74680970D01*
X162347572Y-74689235D01*
X162323773Y-74695196D01*
X162299505Y-74698796D01*
X162275001Y-74700000D01*
X161624999Y-74700000D01*
X161600495Y-74698796D01*
X161576227Y-74695196D01*
X161552428Y-74689235D01*
X161529329Y-74680970D01*
X161507150Y-74670480D01*
X161486107Y-74657868D01*
X161466401Y-74643253D01*
X161448223Y-74626777D01*
X161431747Y-74608599D01*
X161417132Y-74588893D01*
X161404520Y-74567850D01*
X161394030Y-74545671D01*
X161385765Y-74522572D01*
X161379804Y-74498773D01*
X161376204Y-74474505D01*
X161375000Y-74450001D01*
X161375000Y-73549999D01*
X161376204Y-73525495D01*
X161379804Y-73501227D01*
X161385765Y-73477428D01*
X161394030Y-73454329D01*
X161404520Y-73432150D01*
X161417132Y-73411107D01*
X161431747Y-73391401D01*
X161448223Y-73373223D01*
X161466401Y-73356747D01*
X161486107Y-73342132D01*
X161507150Y-73329520D01*
X161529329Y-73319030D01*
X161552428Y-73310765D01*
X161576227Y-73304804D01*
X161600495Y-73301204D01*
X161624999Y-73300000D01*
X162275001Y-73300000D01*
X162299505Y-73301204D01*
X162299505Y-73301204D01*
G37*
D11*
X161950000Y-74000000D03*
G04 #@! TD*
D10*
G04 #@! TO.C,L4*
G36*
X162299505Y-75551204D02*
X162323773Y-75554804D01*
X162347572Y-75560765D01*
X162370671Y-75569030D01*
X162392850Y-75579520D01*
X162413893Y-75592132D01*
X162433599Y-75606747D01*
X162451777Y-75623223D01*
X162468253Y-75641401D01*
X162482868Y-75661107D01*
X162495480Y-75682150D01*
X162505970Y-75704329D01*
X162514235Y-75727428D01*
X162520196Y-75751227D01*
X162523796Y-75775495D01*
X162525000Y-75799999D01*
X162525000Y-76700001D01*
X162523796Y-76724505D01*
X162520196Y-76748773D01*
X162514235Y-76772572D01*
X162505970Y-76795671D01*
X162495480Y-76817850D01*
X162482868Y-76838893D01*
X162468253Y-76858599D01*
X162451777Y-76876777D01*
X162433599Y-76893253D01*
X162413893Y-76907868D01*
X162392850Y-76920480D01*
X162370671Y-76930970D01*
X162347572Y-76939235D01*
X162323773Y-76945196D01*
X162299505Y-76948796D01*
X162275001Y-76950000D01*
X161624999Y-76950000D01*
X161600495Y-76948796D01*
X161576227Y-76945196D01*
X161552428Y-76939235D01*
X161529329Y-76930970D01*
X161507150Y-76920480D01*
X161486107Y-76907868D01*
X161466401Y-76893253D01*
X161448223Y-76876777D01*
X161431747Y-76858599D01*
X161417132Y-76838893D01*
X161404520Y-76817850D01*
X161394030Y-76795671D01*
X161385765Y-76772572D01*
X161379804Y-76748773D01*
X161376204Y-76724505D01*
X161375000Y-76700001D01*
X161375000Y-75799999D01*
X161376204Y-75775495D01*
X161379804Y-75751227D01*
X161385765Y-75727428D01*
X161394030Y-75704329D01*
X161404520Y-75682150D01*
X161417132Y-75661107D01*
X161431747Y-75641401D01*
X161448223Y-75623223D01*
X161466401Y-75606747D01*
X161486107Y-75592132D01*
X161507150Y-75579520D01*
X161529329Y-75569030D01*
X161552428Y-75560765D01*
X161576227Y-75554804D01*
X161600495Y-75551204D01*
X161624999Y-75550000D01*
X162275001Y-75550000D01*
X162299505Y-75551204D01*
X162299505Y-75551204D01*
G37*
D11*
X161950000Y-76250000D03*
D10*
G36*
X164349505Y-75551204D02*
X164373773Y-75554804D01*
X164397572Y-75560765D01*
X164420671Y-75569030D01*
X164442850Y-75579520D01*
X164463893Y-75592132D01*
X164483599Y-75606747D01*
X164501777Y-75623223D01*
X164518253Y-75641401D01*
X164532868Y-75661107D01*
X164545480Y-75682150D01*
X164555970Y-75704329D01*
X164564235Y-75727428D01*
X164570196Y-75751227D01*
X164573796Y-75775495D01*
X164575000Y-75799999D01*
X164575000Y-76700001D01*
X164573796Y-76724505D01*
X164570196Y-76748773D01*
X164564235Y-76772572D01*
X164555970Y-76795671D01*
X164545480Y-76817850D01*
X164532868Y-76838893D01*
X164518253Y-76858599D01*
X164501777Y-76876777D01*
X164483599Y-76893253D01*
X164463893Y-76907868D01*
X164442850Y-76920480D01*
X164420671Y-76930970D01*
X164397572Y-76939235D01*
X164373773Y-76945196D01*
X164349505Y-76948796D01*
X164325001Y-76950000D01*
X163674999Y-76950000D01*
X163650495Y-76948796D01*
X163626227Y-76945196D01*
X163602428Y-76939235D01*
X163579329Y-76930970D01*
X163557150Y-76920480D01*
X163536107Y-76907868D01*
X163516401Y-76893253D01*
X163498223Y-76876777D01*
X163481747Y-76858599D01*
X163467132Y-76838893D01*
X163454520Y-76817850D01*
X163444030Y-76795671D01*
X163435765Y-76772572D01*
X163429804Y-76748773D01*
X163426204Y-76724505D01*
X163425000Y-76700001D01*
X163425000Y-75799999D01*
X163426204Y-75775495D01*
X163429804Y-75751227D01*
X163435765Y-75727428D01*
X163444030Y-75704329D01*
X163454520Y-75682150D01*
X163467132Y-75661107D01*
X163481747Y-75641401D01*
X163498223Y-75623223D01*
X163516401Y-75606747D01*
X163536107Y-75592132D01*
X163557150Y-75579520D01*
X163579329Y-75569030D01*
X163602428Y-75560765D01*
X163626227Y-75554804D01*
X163650495Y-75551204D01*
X163674999Y-75550000D01*
X164325001Y-75550000D01*
X164349505Y-75551204D01*
X164349505Y-75551204D01*
G37*
D11*
X164000000Y-76250000D03*
G04 #@! TD*
D26*
G04 #@! TO.C,D7*
X173750000Y-107250000D03*
X173750000Y-111250000D03*
G04 #@! TD*
M02*
