M48
; DRILL file {KiCad 5.1.2+dfsg1-1} date Tue 13 Aug 2019 10:46:05 PM CEST
; FORMAT={3:3/ absolute / metric / suppress leading zeros}
; #@! TF.CreationDate,2019-08-13T22:46:05+02:00
; #@! TF.GenerationSoftware,Kicad,Pcbnew,5.1.2+dfsg1-1
FMAT,2
METRIC,TZ
T1C0.400
T2C0.500
T3C0.760
T4C1.000
T5C1.040
T6C0.750
T7C3.200
%
G90
G05
T1
X121412Y-81280
X121412Y-83312
X121412Y-85344
X121412Y-87376
X121412Y-99060
X121412Y-101092
X121412Y-103124
X122174Y-67818
X122174Y-130810
X123444Y-87376
X123444Y-99060
X125476Y-87376
X125476Y-99060
X126238Y-77978
X127508Y-87376
X127508Y-89408
X127508Y-91440
X127508Y-93472
X127508Y-95504
X127508Y-97536
X127762Y-82296
X128778Y-75438
X129540Y-97536
X130556Y-86614
X131572Y-78740
X132588Y-75438
X132842Y-82296
X134620Y-86614
X135382Y-81026
X136398Y-75438
X140208Y-66294
X140208Y-70358
X140208Y-75438
X140208Y-81026
X140970Y-124714
X140970Y-131826
X141986Y-86614
X144018Y-81026
X147828Y-81026
X149606Y-99822
X151638Y-66294
X151638Y-76962
X151638Y-81026
X151892Y-70358
X151892Y-124714
X151892Y-131826
X154178Y-82804
X154940Y-70358
X157988Y-70358
X158750Y-84328
X161036Y-70358
X163068Y-84328
X164084Y-70358
X164592Y-114046
X167132Y-70358
X168402Y-72644
X168402Y-86868
X174498Y-72898
X174498Y-86868
X178308Y-72898
X178308Y-86868
X182118Y-72898
X185928Y-72898
X196596Y-70612
X196850Y-128016
T2
X186690Y-108712
T3
X186690Y-74930
X186690Y-77470
X186690Y-80010
X186690Y-82550
X189230Y-76200
X189230Y-78740
X189230Y-81280
X189230Y-83820
T4
X166370Y-120904
X168910Y-120904
X176530Y-120650
X176530Y-123190
X176530Y-125730
X157480Y-120904
X160020Y-120904
X150622Y-86106
X153162Y-86106
X155702Y-86106
X158242Y-86106
T5
X148082Y-90170
X148082Y-115570
X150622Y-90170
X150622Y-115570
X153162Y-90170
X153162Y-115570
X155702Y-90170
X155702Y-115570
X158242Y-90170
X158242Y-115570
X160782Y-90170
X160782Y-115570
X163322Y-90170
X163322Y-115570
X165862Y-90170
X165862Y-115570
X168402Y-90170
X168402Y-115570
X170942Y-90170
X170942Y-115570
X173482Y-90170
X173482Y-115570
X176022Y-90170
X176022Y-115570
X178562Y-90170
X178562Y-115570
X181102Y-90170
X181102Y-115570
X183642Y-90170
X183642Y-115570
X186182Y-90170
X186182Y-115570
X188722Y-90170
X188722Y-115570
X191262Y-90170
X191262Y-115570
X193802Y-90170
X193802Y-115570
T6
X194967Y-95758
X197717Y-95758
T7
X195580Y-73660
X195580Y-85090
X171425Y-127550
X131425Y-127550
X131425Y-71050
X171425Y-71050
T4
G00X188950Y-124690
M15
G01X188950Y-125690
M16
G05
G00X194450Y-124690
M15
G01X194450Y-125690
M16
G05
G00X196850Y-122690
M15
G01X196850Y-123690
M16
G05
T0
M30
