G04 #@! TF.GenerationSoftware,KiCad,Pcbnew,5.1.4+dfsg1-1*
G04 #@! TF.CreationDate,2019-10-06T21:28:02+02:00*
G04 #@! TF.ProjectId,bt-trx-dev-board,62742d74-7278-42d6-9465-762d626f6172,4.1*
G04 #@! TF.SameCoordinates,Original*
G04 #@! TF.FileFunction,Copper,L2,Bot*
G04 #@! TF.FilePolarity,Positive*
%FSLAX46Y46*%
G04 Gerber Fmt 4.6, Leading zero omitted, Abs format (unit mm)*
G04 Created by KiCad (PCBNEW 5.1.4+dfsg1-1) date 2019-10-06 21:28:02*
%MOMM*%
%LPD*%
G04 APERTURE LIST*
%ADD10R,1.560000X1.560000*%
%ADD11C,1.560000*%
%ADD12R,1.700000X1.700000*%
%ADD13O,1.700000X1.700000*%
%ADD14R,1.500000X1.500000*%
%ADD15C,1.500000*%
%ADD16O,1.800000X2.800000*%
%ADD17C,2.200000*%
%ADD18C,1.700000*%
%ADD19C,0.800000*%
%ADD20C,1.000000*%
%ADD21C,0.500000*%
%ADD22C,0.250000*%
%ADD23C,1.000000*%
%ADD24C,0.200000*%
G04 APERTURE END LIST*
D10*
X151384000Y-115570000D03*
D11*
X153924000Y-115570000D03*
X197104000Y-115570000D03*
X156464000Y-115570000D03*
X159004000Y-115570000D03*
X161544000Y-115570000D03*
X164084000Y-115570000D03*
X166624000Y-115570000D03*
X169164000Y-115570000D03*
X171704000Y-115570000D03*
X174244000Y-115570000D03*
X176784000Y-115570000D03*
X179324000Y-115570000D03*
X181864000Y-115570000D03*
X184404000Y-115570000D03*
X186944000Y-115570000D03*
X189484000Y-115570000D03*
X192024000Y-115570000D03*
X194564000Y-115570000D03*
X151384000Y-90170000D03*
X153924000Y-90170000D03*
X156464000Y-90170000D03*
X159004000Y-90170000D03*
X161544000Y-90170000D03*
X164084000Y-90170000D03*
X166624000Y-90170000D03*
X169164000Y-90170000D03*
X171704000Y-90170000D03*
X174244000Y-90170000D03*
X176784000Y-90170000D03*
X179324000Y-90170000D03*
X181864000Y-90170000D03*
X184404000Y-90170000D03*
X186944000Y-90170000D03*
X189484000Y-90170000D03*
X192024000Y-90170000D03*
X194564000Y-90170000D03*
X197104000Y-90170000D03*
D12*
X181737000Y-119951500D03*
D13*
X181737000Y-122491500D03*
X181737000Y-125031500D03*
D14*
X189230000Y-83820000D03*
D15*
X186690000Y-82550000D03*
X189230000Y-81280000D03*
X186690000Y-80010000D03*
X189230000Y-78740000D03*
X186690000Y-77470000D03*
X189230000Y-76200000D03*
X186690000Y-74930000D03*
D12*
X176276000Y-124968000D03*
D13*
X176276000Y-122428000D03*
X176276000Y-119888000D03*
D12*
X151384000Y-86106000D03*
D13*
X153924000Y-86106000D03*
X156464000Y-86106000D03*
X159004000Y-86106000D03*
D16*
X196850000Y-123190000D03*
X194450000Y-125190000D03*
X188950000Y-125190000D03*
D12*
X180594000Y-86741000D03*
D13*
X183134000Y-86741000D03*
D17*
X193294000Y-99441000D03*
X193294000Y-92441000D03*
D18*
X195794000Y-98191000D03*
X195794000Y-93691000D03*
D19*
X140208000Y-66294000D03*
X121412000Y-87376000D03*
X123444000Y-87376000D03*
X125476000Y-87376000D03*
X127508000Y-87376000D03*
X127508000Y-89408000D03*
X127508000Y-91440000D03*
X127508000Y-93472000D03*
X127508000Y-95504000D03*
X127508000Y-97536000D03*
X121412000Y-99060000D03*
X123444000Y-99060000D03*
X125476000Y-99060000D03*
X121412000Y-101092000D03*
X121412000Y-103124000D03*
X121412000Y-85344000D03*
X121412000Y-83312000D03*
X130556000Y-86614000D03*
X134620000Y-86614000D03*
X141986000Y-86614000D03*
X129540000Y-97536000D03*
X127762000Y-82296000D03*
X132842000Y-82296000D03*
X151638000Y-76962000D03*
X151638000Y-81026000D03*
X185928000Y-72898000D03*
X182118000Y-72898000D03*
X178308000Y-72898000D03*
X174498000Y-72898000D03*
X168402000Y-72644000D03*
X151892000Y-70358000D03*
X154940000Y-70358000D03*
X157988000Y-70358000D03*
X167132000Y-70358000D03*
X161036000Y-70358000D03*
X164084000Y-70358000D03*
X147828000Y-81026000D03*
X144018000Y-81026000D03*
X140208000Y-81026000D03*
X135382000Y-81026000D03*
X140208000Y-75438000D03*
X136398000Y-75438000D03*
X132588000Y-75438000D03*
X128778000Y-75438000D03*
X126238000Y-77978000D03*
X121412000Y-81280000D03*
X173228000Y-86868000D03*
X168402000Y-86868000D03*
X163068000Y-84328000D03*
X158750000Y-84328000D03*
X154178000Y-82804000D03*
X131572000Y-78740000D03*
X151892000Y-131826000D03*
X140970000Y-131826000D03*
X140970000Y-124714000D03*
X151892000Y-124714000D03*
X140208000Y-70358000D03*
X122174000Y-67818000D03*
X196596000Y-70612000D03*
X196850000Y-128016000D03*
X122174000Y-130810000D03*
X151638000Y-66294000D03*
D20*
X151384000Y-119253000D03*
D19*
X148717000Y-99822000D03*
X184404000Y-108712000D03*
X166624000Y-120523000D03*
X177889001Y-86322001D03*
D21*
X150104000Y-115570000D02*
X151384000Y-115570000D01*
X148717000Y-99822000D02*
X148717000Y-114183000D01*
X148717000Y-114183000D02*
X150104000Y-115570000D01*
D22*
X151384000Y-116600000D02*
X151384000Y-119253000D01*
X151384000Y-115570000D02*
X151384000Y-116600000D01*
X180594000Y-109220000D02*
X180594000Y-118110000D01*
X189230000Y-78740000D02*
X190755011Y-80265011D01*
X180594000Y-118110000D02*
X176276000Y-122428000D01*
X190755011Y-80265011D02*
X190755011Y-86358989D01*
X190755011Y-86358989D02*
X188214000Y-88900000D01*
X188214000Y-101600000D02*
X187833000Y-101981000D01*
X188214000Y-88900000D02*
X188214000Y-101600000D01*
X187833000Y-101981000D02*
X180594000Y-109220000D01*
D23*
X191580021Y-78550021D02*
X191580020Y-86700720D01*
X189230000Y-76200000D02*
X191580021Y-78550021D01*
X191580020Y-86700720D02*
X190754000Y-87526740D01*
X190754000Y-87526740D02*
X190754000Y-89281000D01*
D21*
X190754000Y-89281000D02*
X190754000Y-90043000D01*
X190754000Y-90043000D02*
X190754000Y-90868500D01*
D23*
X184404000Y-108712000D02*
X190754000Y-102362000D01*
X190754000Y-102362000D02*
X190754000Y-91090402D01*
D22*
X166624000Y-115570000D02*
X166624000Y-120523000D01*
X173482000Y-117094000D02*
X176276000Y-119888000D01*
X169164000Y-115570000D02*
X170688000Y-117094000D01*
X170688000Y-117094000D02*
X173482000Y-117094000D01*
X183134000Y-88916000D02*
X188230000Y-83820000D01*
X183134000Y-105407180D02*
X183134000Y-88916000D01*
X188230000Y-83820000D02*
X189230000Y-83820000D01*
X176784000Y-115570000D02*
X176784000Y-111757180D01*
X176784000Y-111757180D02*
X183134000Y-105407180D01*
X179324000Y-109853590D02*
X179324000Y-115570000D01*
X189230000Y-81280000D02*
X190305001Y-82355001D01*
X190305001Y-84830001D02*
X185674000Y-89461002D01*
X190305001Y-82355001D02*
X190305001Y-84830001D01*
X185674000Y-103503590D02*
X185514545Y-103663045D01*
X185674000Y-89461002D02*
X185674000Y-103503590D01*
X185514545Y-103663045D02*
X179324000Y-109853590D01*
X187800000Y-125190000D02*
X188950000Y-125190000D01*
X186944000Y-124334000D02*
X187800000Y-125190000D01*
X186944000Y-115570000D02*
X186944000Y-124334000D01*
X164084000Y-115570000D02*
X166370000Y-113284000D01*
X174620770Y-113284000D02*
X176333991Y-111570779D01*
X166370000Y-113284000D02*
X174620770Y-113284000D01*
X176333991Y-111570779D02*
X177889001Y-110015769D01*
X177889001Y-110015769D02*
X177889001Y-86322001D01*
X177889001Y-86322001D02*
X177889001Y-86322001D01*
D24*
G36*
X142050000Y-72852464D02*
G01*
X142050128Y-72853768D01*
X142050399Y-72892513D01*
X142052180Y-72909456D01*
X142052180Y-72926489D01*
X142052727Y-72931696D01*
X142139747Y-73707494D01*
X142146820Y-73740769D01*
X142153416Y-73774080D01*
X142154963Y-73779082D01*
X142391012Y-74523202D01*
X142404408Y-74554457D01*
X142417354Y-74585865D01*
X142419844Y-74590472D01*
X142795931Y-75274572D01*
X142815141Y-75302627D01*
X142833942Y-75330925D01*
X142837279Y-75334959D01*
X143339081Y-75932983D01*
X143363373Y-75956771D01*
X143387313Y-75980879D01*
X143391371Y-75984189D01*
X143999770Y-76473354D01*
X144028211Y-76491965D01*
X144056388Y-76510971D01*
X144061011Y-76513429D01*
X144752839Y-76875108D01*
X144784368Y-76887846D01*
X144815683Y-76901010D01*
X144820696Y-76902524D01*
X145569597Y-77122938D01*
X145602999Y-77129309D01*
X145636276Y-77136140D01*
X145641488Y-77136652D01*
X146418938Y-77207406D01*
X146452997Y-77207168D01*
X146486912Y-77207405D01*
X146492123Y-77206895D01*
X147268511Y-77125293D01*
X147301862Y-77118447D01*
X147335190Y-77112089D01*
X147340200Y-77110577D01*
X147340206Y-77110575D01*
X148085952Y-76879729D01*
X148117324Y-76866541D01*
X148148798Y-76853825D01*
X148153421Y-76851367D01*
X148840131Y-76480064D01*
X148868299Y-76461064D01*
X148896748Y-76442448D01*
X148900806Y-76439139D01*
X149502317Y-75941525D01*
X149526276Y-75917398D01*
X149550549Y-75893628D01*
X149553887Y-75889594D01*
X149689507Y-75723307D01*
X186114482Y-75723307D01*
X186201069Y-75864956D01*
X186392865Y-75942377D01*
X186596079Y-75980893D01*
X186802902Y-75979024D01*
X187005387Y-75936842D01*
X187178931Y-75864956D01*
X187265518Y-75723307D01*
X186690000Y-75147789D01*
X186114482Y-75723307D01*
X149689507Y-75723307D01*
X150047289Y-75284623D01*
X150066118Y-75256283D01*
X150085299Y-75228270D01*
X150087790Y-75223664D01*
X150293872Y-74836079D01*
X185639107Y-74836079D01*
X185640976Y-75042902D01*
X185683158Y-75245387D01*
X185755044Y-75418931D01*
X185896693Y-75505518D01*
X186472211Y-74930000D01*
X186907789Y-74930000D01*
X187483307Y-75505518D01*
X187624956Y-75418931D01*
X187702377Y-75227135D01*
X187740893Y-75023921D01*
X187739024Y-74817098D01*
X187696842Y-74614613D01*
X187624956Y-74441069D01*
X187483307Y-74354482D01*
X186907789Y-74930000D01*
X186472211Y-74930000D01*
X185896693Y-74354482D01*
X185755044Y-74441069D01*
X185677623Y-74632865D01*
X185639107Y-74836079D01*
X150293872Y-74836079D01*
X150454290Y-74534379D01*
X150467246Y-74502944D01*
X150480630Y-74471717D01*
X150482179Y-74466715D01*
X150581818Y-74136693D01*
X186114482Y-74136693D01*
X186690000Y-74712211D01*
X187265518Y-74136693D01*
X187178931Y-73995044D01*
X186987135Y-73917623D01*
X186783921Y-73879107D01*
X186577098Y-73880976D01*
X186374613Y-73923158D01*
X186201069Y-73995044D01*
X186114482Y-74136693D01*
X150581818Y-74136693D01*
X150707816Y-73719370D01*
X150714420Y-73686016D01*
X150721484Y-73652784D01*
X150722031Y-73647576D01*
X150739161Y-73472866D01*
X193680000Y-73472866D01*
X193680000Y-73847134D01*
X193753016Y-74214209D01*
X193896242Y-74559987D01*
X194104174Y-74871179D01*
X194368821Y-75135826D01*
X194680013Y-75343758D01*
X195025791Y-75486984D01*
X195392866Y-75560000D01*
X195767134Y-75560000D01*
X196134209Y-75486984D01*
X196479987Y-75343758D01*
X196791179Y-75135826D01*
X197055826Y-74871179D01*
X197263758Y-74559987D01*
X197406984Y-74214209D01*
X197480000Y-73847134D01*
X197480000Y-73472866D01*
X197406984Y-73105791D01*
X197263758Y-72760013D01*
X197055826Y-72448821D01*
X196791179Y-72184174D01*
X196479987Y-71976242D01*
X196134209Y-71833016D01*
X195767134Y-71760000D01*
X195392866Y-71760000D01*
X195025791Y-71833016D01*
X194680013Y-71976242D01*
X194368821Y-72184174D01*
X194104174Y-72448821D01*
X193896242Y-72760013D01*
X193753016Y-73105791D01*
X193680000Y-73472866D01*
X150739161Y-73472866D01*
X150798210Y-72870639D01*
X150800000Y-72852465D01*
X150800000Y-70862866D01*
X169525000Y-70862866D01*
X169525000Y-71237134D01*
X169598016Y-71604209D01*
X169741242Y-71949987D01*
X169949174Y-72261179D01*
X170213821Y-72525826D01*
X170525013Y-72733758D01*
X170870791Y-72876984D01*
X171237866Y-72950000D01*
X171612134Y-72950000D01*
X171979209Y-72876984D01*
X172324987Y-72733758D01*
X172636179Y-72525826D01*
X172900826Y-72261179D01*
X173108758Y-71949987D01*
X173251984Y-71604209D01*
X173325000Y-71237134D01*
X173325000Y-70862866D01*
X173251984Y-70495791D01*
X173108758Y-70150013D01*
X172900826Y-69838821D01*
X172636179Y-69574174D01*
X172324987Y-69366242D01*
X171979209Y-69223016D01*
X171612134Y-69150000D01*
X171237866Y-69150000D01*
X170870791Y-69223016D01*
X170525013Y-69366242D01*
X170213821Y-69574174D01*
X169949174Y-69838821D01*
X169741242Y-70150013D01*
X169598016Y-70495791D01*
X169525000Y-70862866D01*
X150800000Y-70862866D01*
X150800000Y-65798592D01*
X157634440Y-65949423D01*
X164844215Y-66259705D01*
X172045917Y-66720908D01*
X179236351Y-67332829D01*
X186412449Y-68095205D01*
X193571639Y-69007781D01*
X198025001Y-69654863D01*
X198025001Y-89604426D01*
X197942891Y-89481540D01*
X197792460Y-89331109D01*
X197615572Y-89212916D01*
X197419024Y-89131503D01*
X197210371Y-89090000D01*
X196997629Y-89090000D01*
X196788976Y-89131503D01*
X196592428Y-89212916D01*
X196415540Y-89331109D01*
X196265109Y-89481540D01*
X196146916Y-89658428D01*
X196065503Y-89854976D01*
X196024000Y-90063629D01*
X196024000Y-90276371D01*
X196065503Y-90485024D01*
X196146916Y-90681572D01*
X196265109Y-90858460D01*
X196415540Y-91008891D01*
X196592428Y-91127084D01*
X196788976Y-91208497D01*
X196997629Y-91250000D01*
X197210371Y-91250000D01*
X197419024Y-91208497D01*
X197615572Y-91127084D01*
X197792460Y-91008891D01*
X197942891Y-90858460D01*
X198025001Y-90735574D01*
X198025000Y-115004425D01*
X197942891Y-114881540D01*
X197792460Y-114731109D01*
X197615572Y-114612916D01*
X197419024Y-114531503D01*
X197210371Y-114490000D01*
X196997629Y-114490000D01*
X196788976Y-114531503D01*
X196592428Y-114612916D01*
X196415540Y-114731109D01*
X196265109Y-114881540D01*
X196146916Y-115058428D01*
X196065503Y-115254976D01*
X196024000Y-115463629D01*
X196024000Y-115676371D01*
X196065503Y-115885024D01*
X196146916Y-116081572D01*
X196265109Y-116258460D01*
X196415540Y-116408891D01*
X196592428Y-116527084D01*
X196788976Y-116608497D01*
X196997629Y-116650000D01*
X197210371Y-116650000D01*
X197419024Y-116608497D01*
X197615572Y-116527084D01*
X197792460Y-116408891D01*
X197942891Y-116258460D01*
X198025000Y-116135575D01*
X198025000Y-122427177D01*
X197996898Y-122304851D01*
X197899722Y-122088503D01*
X197762206Y-121895270D01*
X197589634Y-121732578D01*
X197388638Y-121606679D01*
X197188273Y-121538666D01*
X197004000Y-121575590D01*
X197004000Y-123036000D01*
X197024000Y-123036000D01*
X197024000Y-123344000D01*
X197004000Y-123344000D01*
X197004000Y-124804410D01*
X197188273Y-124841334D01*
X197388638Y-124773321D01*
X197589634Y-124647422D01*
X197762206Y-124484730D01*
X197899722Y-124291497D01*
X197996898Y-124075149D01*
X198025000Y-123952823D01*
X198025000Y-128977967D01*
X191223468Y-129942382D01*
X184058838Y-130805641D01*
X176877674Y-131518668D01*
X169683164Y-132081148D01*
X162478465Y-132492833D01*
X155266079Y-132753567D01*
X150800000Y-132836773D01*
X150800000Y-127362866D01*
X169525000Y-127362866D01*
X169525000Y-127737134D01*
X169598016Y-128104209D01*
X169741242Y-128449987D01*
X169949174Y-128761179D01*
X170213821Y-129025826D01*
X170525013Y-129233758D01*
X170870791Y-129376984D01*
X171237866Y-129450000D01*
X171612134Y-129450000D01*
X171979209Y-129376984D01*
X172324987Y-129233758D01*
X172636179Y-129025826D01*
X172900826Y-128761179D01*
X173108758Y-128449987D01*
X173251984Y-128104209D01*
X173325000Y-127737134D01*
X173325000Y-127362866D01*
X173251984Y-126995791D01*
X173108758Y-126650013D01*
X172900826Y-126338821D01*
X172636179Y-126074174D01*
X172324987Y-125866242D01*
X171979209Y-125723016D01*
X171612134Y-125650000D01*
X171237866Y-125650000D01*
X170870791Y-125723016D01*
X170525013Y-125866242D01*
X170213821Y-126074174D01*
X169949174Y-126338821D01*
X169741242Y-126650013D01*
X169598016Y-126995791D01*
X169525000Y-127362866D01*
X150800000Y-127362866D01*
X150800000Y-125781581D01*
X150799872Y-125780277D01*
X150799601Y-125741532D01*
X150797820Y-125724589D01*
X150797820Y-125707557D01*
X150797273Y-125702350D01*
X150710253Y-124926552D01*
X150703181Y-124893283D01*
X150696584Y-124859966D01*
X150695036Y-124854964D01*
X150461259Y-124118000D01*
X175124549Y-124118000D01*
X175124549Y-125818000D01*
X175130341Y-125876810D01*
X175147496Y-125933360D01*
X175175353Y-125985477D01*
X175212842Y-126031158D01*
X175258523Y-126068647D01*
X175310640Y-126096504D01*
X175367190Y-126113659D01*
X175426000Y-126119451D01*
X177126000Y-126119451D01*
X177184810Y-126113659D01*
X177241360Y-126096504D01*
X177293477Y-126068647D01*
X177339158Y-126031158D01*
X177376647Y-125985477D01*
X177404504Y-125933360D01*
X177421659Y-125876810D01*
X177427451Y-125818000D01*
X177427451Y-125031500D01*
X180581436Y-125031500D01*
X180603640Y-125256939D01*
X180669398Y-125473715D01*
X180776184Y-125673497D01*
X180919893Y-125848607D01*
X181095003Y-125992316D01*
X181294785Y-126099102D01*
X181511561Y-126164860D01*
X181680508Y-126181500D01*
X181793492Y-126181500D01*
X181962439Y-126164860D01*
X182179215Y-126099102D01*
X182378997Y-125992316D01*
X182554107Y-125848607D01*
X182697816Y-125673497D01*
X182804602Y-125473715D01*
X182870360Y-125256939D01*
X182892564Y-125031500D01*
X182870360Y-124806061D01*
X182804602Y-124589285D01*
X182697816Y-124389503D01*
X182554107Y-124214393D01*
X182378997Y-124070684D01*
X182179215Y-123963898D01*
X181962439Y-123898140D01*
X181793492Y-123881500D01*
X181680508Y-123881500D01*
X181511561Y-123898140D01*
X181294785Y-123963898D01*
X181095003Y-124070684D01*
X180919893Y-124214393D01*
X180776184Y-124389503D01*
X180669398Y-124589285D01*
X180603640Y-124806061D01*
X180581436Y-125031500D01*
X177427451Y-125031500D01*
X177427451Y-124118000D01*
X177421659Y-124059190D01*
X177404504Y-124002640D01*
X177376647Y-123950523D01*
X177339158Y-123904842D01*
X177293477Y-123867353D01*
X177241360Y-123839496D01*
X177184810Y-123822341D01*
X177126000Y-123816549D01*
X175426000Y-123816549D01*
X175367190Y-123822341D01*
X175310640Y-123839496D01*
X175258523Y-123867353D01*
X175212842Y-123904842D01*
X175175353Y-123950523D01*
X175147496Y-124002640D01*
X175130341Y-124059190D01*
X175124549Y-124118000D01*
X150461259Y-124118000D01*
X150458988Y-124110843D01*
X150445576Y-124079551D01*
X150432646Y-124048181D01*
X150430156Y-124043575D01*
X150430156Y-124043574D01*
X150430153Y-124043570D01*
X150054069Y-123359474D01*
X150034847Y-123331402D01*
X150016058Y-123303122D01*
X150012721Y-123299087D01*
X149510920Y-122701064D01*
X149486608Y-122677256D01*
X149462686Y-122653167D01*
X149458629Y-122649857D01*
X148850229Y-122160691D01*
X148821780Y-122142075D01*
X148793612Y-122123075D01*
X148788989Y-122120617D01*
X148097162Y-121758939D01*
X148065640Y-121746203D01*
X148034317Y-121733036D01*
X148029304Y-121731522D01*
X147280403Y-121511108D01*
X147247001Y-121504737D01*
X147213724Y-121497906D01*
X147208513Y-121497394D01*
X146431062Y-121426640D01*
X146397004Y-121426878D01*
X146363088Y-121426641D01*
X146357877Y-121427151D01*
X145581490Y-121508753D01*
X145548146Y-121515598D01*
X145514810Y-121521957D01*
X145509797Y-121523470D01*
X144764048Y-121754318D01*
X144732709Y-121767492D01*
X144701202Y-121780221D01*
X144696579Y-121782679D01*
X144009869Y-122153982D01*
X143981686Y-122172992D01*
X143953252Y-122191598D01*
X143949194Y-122194907D01*
X143347683Y-122692520D01*
X143323707Y-122716665D01*
X143299450Y-122740418D01*
X143296112Y-122744452D01*
X142802711Y-123349423D01*
X142783892Y-123377747D01*
X142764701Y-123405776D01*
X142762210Y-123410382D01*
X142395711Y-124099666D01*
X142382757Y-124131095D01*
X142369370Y-124162329D01*
X142367821Y-124167331D01*
X142142184Y-124914676D01*
X142135580Y-124948030D01*
X142128516Y-124981262D01*
X142127969Y-124986469D01*
X142051793Y-125763377D01*
X142050000Y-125781582D01*
X142050001Y-132916632D01*
X135212917Y-132765743D01*
X128001446Y-132455389D01*
X120823318Y-131995695D01*
X120823436Y-127362866D01*
X129525000Y-127362866D01*
X129525000Y-127737134D01*
X129598016Y-128104209D01*
X129741242Y-128449987D01*
X129949174Y-128761179D01*
X130213821Y-129025826D01*
X130525013Y-129233758D01*
X130870791Y-129376984D01*
X131237866Y-129450000D01*
X131612134Y-129450000D01*
X131979209Y-129376984D01*
X132324987Y-129233758D01*
X132636179Y-129025826D01*
X132900826Y-128761179D01*
X133108758Y-128449987D01*
X133251984Y-128104209D01*
X133325000Y-127737134D01*
X133325000Y-127362866D01*
X133251984Y-126995791D01*
X133108758Y-126650013D01*
X132900826Y-126338821D01*
X132636179Y-126074174D01*
X132324987Y-125866242D01*
X131979209Y-125723016D01*
X131612134Y-125650000D01*
X131237866Y-125650000D01*
X130870791Y-125723016D01*
X130525013Y-125866242D01*
X130213821Y-126074174D01*
X129949174Y-126338821D01*
X129741242Y-126650013D01*
X129598016Y-126995791D01*
X129525000Y-127362866D01*
X120823436Y-127362866D01*
X120824142Y-99753056D01*
X148017000Y-99753056D01*
X148017000Y-99890944D01*
X148043901Y-100026182D01*
X148096668Y-100153574D01*
X148167000Y-100258834D01*
X148167001Y-114155982D01*
X148164340Y-114183000D01*
X148174959Y-114290818D01*
X148206409Y-114394494D01*
X148257479Y-114490042D01*
X148308987Y-114552804D01*
X148308993Y-114552810D01*
X148326211Y-114573790D01*
X148347191Y-114591008D01*
X149695992Y-115939810D01*
X149713210Y-115960790D01*
X149734190Y-115978008D01*
X149734195Y-115978013D01*
X149786097Y-116020607D01*
X149796958Y-116029521D01*
X149892506Y-116080592D01*
X149996181Y-116112042D01*
X150076982Y-116120000D01*
X150076991Y-116120000D01*
X150103999Y-116122660D01*
X150131007Y-116120000D01*
X150302549Y-116120000D01*
X150302549Y-116350000D01*
X150308341Y-116408810D01*
X150325496Y-116465360D01*
X150353353Y-116517477D01*
X150390842Y-116563158D01*
X150436523Y-116600647D01*
X150488640Y-116628504D01*
X150545190Y-116645659D01*
X150604000Y-116651451D01*
X150959000Y-116651451D01*
X150959001Y-118574823D01*
X150874030Y-118631599D01*
X150762599Y-118743030D01*
X150675049Y-118874058D01*
X150614743Y-119019649D01*
X150584000Y-119174207D01*
X150584000Y-119331793D01*
X150614743Y-119486351D01*
X150675049Y-119631942D01*
X150762599Y-119762970D01*
X150874030Y-119874401D01*
X151005058Y-119961951D01*
X151150649Y-120022257D01*
X151305207Y-120053000D01*
X151462793Y-120053000D01*
X151617351Y-120022257D01*
X151762942Y-119961951D01*
X151893970Y-119874401D01*
X152005401Y-119762970D01*
X152092951Y-119631942D01*
X152153257Y-119486351D01*
X152184000Y-119331793D01*
X152184000Y-119174207D01*
X152153257Y-119019649D01*
X152092951Y-118874058D01*
X152005401Y-118743030D01*
X151893970Y-118631599D01*
X151809000Y-118574824D01*
X151809000Y-116651451D01*
X152164000Y-116651451D01*
X152222810Y-116645659D01*
X152279360Y-116628504D01*
X152331477Y-116600647D01*
X152377158Y-116563158D01*
X152414647Y-116517477D01*
X152442504Y-116465360D01*
X152459659Y-116408810D01*
X152465451Y-116350000D01*
X152465451Y-115463629D01*
X152844000Y-115463629D01*
X152844000Y-115676371D01*
X152885503Y-115885024D01*
X152966916Y-116081572D01*
X153085109Y-116258460D01*
X153235540Y-116408891D01*
X153412428Y-116527084D01*
X153608976Y-116608497D01*
X153817629Y-116650000D01*
X154030371Y-116650000D01*
X154239024Y-116608497D01*
X154435572Y-116527084D01*
X154612460Y-116408891D01*
X154762891Y-116258460D01*
X154881084Y-116081572D01*
X154962497Y-115885024D01*
X155004000Y-115676371D01*
X155004000Y-115463629D01*
X155384000Y-115463629D01*
X155384000Y-115676371D01*
X155425503Y-115885024D01*
X155506916Y-116081572D01*
X155625109Y-116258460D01*
X155775540Y-116408891D01*
X155952428Y-116527084D01*
X156148976Y-116608497D01*
X156357629Y-116650000D01*
X156570371Y-116650000D01*
X156779024Y-116608497D01*
X156975572Y-116527084D01*
X157152460Y-116408891D01*
X157302891Y-116258460D01*
X157421084Y-116081572D01*
X157502497Y-115885024D01*
X157544000Y-115676371D01*
X157544000Y-115463629D01*
X157924000Y-115463629D01*
X157924000Y-115676371D01*
X157965503Y-115885024D01*
X158046916Y-116081572D01*
X158165109Y-116258460D01*
X158315540Y-116408891D01*
X158492428Y-116527084D01*
X158688976Y-116608497D01*
X158897629Y-116650000D01*
X159110371Y-116650000D01*
X159319024Y-116608497D01*
X159515572Y-116527084D01*
X159692460Y-116408891D01*
X159716468Y-116384883D01*
X160946906Y-116384883D01*
X161037164Y-116529600D01*
X161234112Y-116610041D01*
X161442969Y-116650513D01*
X161655708Y-116649461D01*
X161864154Y-116606927D01*
X162050836Y-116529600D01*
X162141094Y-116384883D01*
X161544000Y-115787789D01*
X160946906Y-116384883D01*
X159716468Y-116384883D01*
X159842891Y-116258460D01*
X159961084Y-116081572D01*
X160042497Y-115885024D01*
X160084000Y-115676371D01*
X160084000Y-115468969D01*
X160463487Y-115468969D01*
X160464539Y-115681708D01*
X160507073Y-115890154D01*
X160584400Y-116076836D01*
X160729117Y-116167094D01*
X161326211Y-115570000D01*
X161761789Y-115570000D01*
X162358883Y-116167094D01*
X162503600Y-116076836D01*
X162584041Y-115879888D01*
X162624513Y-115671031D01*
X162623488Y-115463629D01*
X163004000Y-115463629D01*
X163004000Y-115676371D01*
X163045503Y-115885024D01*
X163126916Y-116081572D01*
X163245109Y-116258460D01*
X163395540Y-116408891D01*
X163572428Y-116527084D01*
X163768976Y-116608497D01*
X163977629Y-116650000D01*
X164190371Y-116650000D01*
X164399024Y-116608497D01*
X164595572Y-116527084D01*
X164772460Y-116408891D01*
X164922891Y-116258460D01*
X165041084Y-116081572D01*
X165122497Y-115885024D01*
X165164000Y-115676371D01*
X165164000Y-115463629D01*
X165544000Y-115463629D01*
X165544000Y-115676371D01*
X165585503Y-115885024D01*
X165666916Y-116081572D01*
X165785109Y-116258460D01*
X165935540Y-116408891D01*
X166112428Y-116527084D01*
X166199000Y-116562943D01*
X166199001Y-119965092D01*
X166177776Y-119979274D01*
X166080274Y-120076776D01*
X166003668Y-120191426D01*
X165950901Y-120318818D01*
X165924000Y-120454056D01*
X165924000Y-120591944D01*
X165950901Y-120727182D01*
X166003668Y-120854574D01*
X166080274Y-120969224D01*
X166177776Y-121066726D01*
X166292426Y-121143332D01*
X166419818Y-121196099D01*
X166555056Y-121223000D01*
X166692944Y-121223000D01*
X166828182Y-121196099D01*
X166955574Y-121143332D01*
X167070224Y-121066726D01*
X167167726Y-120969224D01*
X167244332Y-120854574D01*
X167297099Y-120727182D01*
X167324000Y-120591944D01*
X167324000Y-120454056D01*
X167297099Y-120318818D01*
X167244332Y-120191426D01*
X167167726Y-120076776D01*
X167070224Y-119979274D01*
X167049000Y-119965093D01*
X167049000Y-116562943D01*
X167135572Y-116527084D01*
X167312460Y-116408891D01*
X167462891Y-116258460D01*
X167581084Y-116081572D01*
X167662497Y-115885024D01*
X167704000Y-115676371D01*
X167704000Y-115463629D01*
X168084000Y-115463629D01*
X168084000Y-115676371D01*
X168125503Y-115885024D01*
X168206916Y-116081572D01*
X168325109Y-116258460D01*
X168475540Y-116408891D01*
X168652428Y-116527084D01*
X168848976Y-116608497D01*
X169057629Y-116650000D01*
X169270371Y-116650000D01*
X169479024Y-116608497D01*
X169565597Y-116572637D01*
X170372719Y-117379760D01*
X170386026Y-117395974D01*
X170450740Y-117449084D01*
X170524573Y-117488548D01*
X170580383Y-117505478D01*
X170604685Y-117512850D01*
X170613098Y-117513679D01*
X170667126Y-117519000D01*
X170667132Y-117519000D01*
X170687999Y-117521055D01*
X170708866Y-117519000D01*
X173305960Y-117519000D01*
X175216878Y-119429919D01*
X175208398Y-119445785D01*
X175142640Y-119662561D01*
X175120436Y-119888000D01*
X175142640Y-120113439D01*
X175208398Y-120330215D01*
X175315184Y-120529997D01*
X175458893Y-120705107D01*
X175634003Y-120848816D01*
X175833785Y-120955602D01*
X176050561Y-121021360D01*
X176219508Y-121038000D01*
X176332492Y-121038000D01*
X176501439Y-121021360D01*
X176718215Y-120955602D01*
X176917997Y-120848816D01*
X177093107Y-120705107D01*
X177236816Y-120529997D01*
X177343602Y-120330215D01*
X177409360Y-120113439D01*
X177431564Y-119888000D01*
X177409360Y-119662561D01*
X177343602Y-119445785D01*
X177236816Y-119246003D01*
X177093107Y-119070893D01*
X176917997Y-118927184D01*
X176718215Y-118820398D01*
X176501439Y-118754640D01*
X176332492Y-118738000D01*
X176219508Y-118738000D01*
X176050561Y-118754640D01*
X175833785Y-118820398D01*
X175817919Y-118828878D01*
X173797283Y-116808243D01*
X173783974Y-116792026D01*
X173719260Y-116738916D01*
X173645427Y-116699452D01*
X173565314Y-116675150D01*
X173502874Y-116669000D01*
X173502867Y-116669000D01*
X173482000Y-116666945D01*
X173461133Y-116669000D01*
X170864041Y-116669000D01*
X170166637Y-115971597D01*
X170202497Y-115885024D01*
X170244000Y-115676371D01*
X170244000Y-115463629D01*
X170624000Y-115463629D01*
X170624000Y-115676371D01*
X170665503Y-115885024D01*
X170746916Y-116081572D01*
X170865109Y-116258460D01*
X171015540Y-116408891D01*
X171192428Y-116527084D01*
X171388976Y-116608497D01*
X171597629Y-116650000D01*
X171810371Y-116650000D01*
X172019024Y-116608497D01*
X172215572Y-116527084D01*
X172392460Y-116408891D01*
X172542891Y-116258460D01*
X172661084Y-116081572D01*
X172742497Y-115885024D01*
X172784000Y-115676371D01*
X172784000Y-115463629D01*
X173164000Y-115463629D01*
X173164000Y-115676371D01*
X173205503Y-115885024D01*
X173286916Y-116081572D01*
X173405109Y-116258460D01*
X173555540Y-116408891D01*
X173732428Y-116527084D01*
X173928976Y-116608497D01*
X174137629Y-116650000D01*
X174350371Y-116650000D01*
X174559024Y-116608497D01*
X174755572Y-116527084D01*
X174932460Y-116408891D01*
X175082891Y-116258460D01*
X175201084Y-116081572D01*
X175282497Y-115885024D01*
X175324000Y-115676371D01*
X175324000Y-115463629D01*
X175282497Y-115254976D01*
X175201084Y-115058428D01*
X175082891Y-114881540D01*
X174932460Y-114731109D01*
X174755572Y-114612916D01*
X174559024Y-114531503D01*
X174350371Y-114490000D01*
X174137629Y-114490000D01*
X173928976Y-114531503D01*
X173732428Y-114612916D01*
X173555540Y-114731109D01*
X173405109Y-114881540D01*
X173286916Y-115058428D01*
X173205503Y-115254976D01*
X173164000Y-115463629D01*
X172784000Y-115463629D01*
X172742497Y-115254976D01*
X172661084Y-115058428D01*
X172542891Y-114881540D01*
X172392460Y-114731109D01*
X172215572Y-114612916D01*
X172019024Y-114531503D01*
X171810371Y-114490000D01*
X171597629Y-114490000D01*
X171388976Y-114531503D01*
X171192428Y-114612916D01*
X171015540Y-114731109D01*
X170865109Y-114881540D01*
X170746916Y-115058428D01*
X170665503Y-115254976D01*
X170624000Y-115463629D01*
X170244000Y-115463629D01*
X170202497Y-115254976D01*
X170121084Y-115058428D01*
X170002891Y-114881540D01*
X169852460Y-114731109D01*
X169675572Y-114612916D01*
X169479024Y-114531503D01*
X169270371Y-114490000D01*
X169057629Y-114490000D01*
X168848976Y-114531503D01*
X168652428Y-114612916D01*
X168475540Y-114731109D01*
X168325109Y-114881540D01*
X168206916Y-115058428D01*
X168125503Y-115254976D01*
X168084000Y-115463629D01*
X167704000Y-115463629D01*
X167662497Y-115254976D01*
X167581084Y-115058428D01*
X167462891Y-114881540D01*
X167312460Y-114731109D01*
X167135572Y-114612916D01*
X166939024Y-114531503D01*
X166730371Y-114490000D01*
X166517629Y-114490000D01*
X166308976Y-114531503D01*
X166112428Y-114612916D01*
X165935540Y-114731109D01*
X165785109Y-114881540D01*
X165666916Y-115058428D01*
X165585503Y-115254976D01*
X165544000Y-115463629D01*
X165164000Y-115463629D01*
X165122497Y-115254976D01*
X165086637Y-115168403D01*
X166546041Y-113709000D01*
X174599903Y-113709000D01*
X174620770Y-113711055D01*
X174641637Y-113709000D01*
X174641644Y-113709000D01*
X174704084Y-113702850D01*
X174784197Y-113678548D01*
X174858030Y-113639084D01*
X174922744Y-113585974D01*
X174936053Y-113569757D01*
X176359001Y-112146810D01*
X176359000Y-114577057D01*
X176272428Y-114612916D01*
X176095540Y-114731109D01*
X175945109Y-114881540D01*
X175826916Y-115058428D01*
X175745503Y-115254976D01*
X175704000Y-115463629D01*
X175704000Y-115676371D01*
X175745503Y-115885024D01*
X175826916Y-116081572D01*
X175945109Y-116258460D01*
X176095540Y-116408891D01*
X176272428Y-116527084D01*
X176468976Y-116608497D01*
X176677629Y-116650000D01*
X176890371Y-116650000D01*
X177099024Y-116608497D01*
X177295572Y-116527084D01*
X177472460Y-116408891D01*
X177622891Y-116258460D01*
X177741084Y-116081572D01*
X177822497Y-115885024D01*
X177864000Y-115676371D01*
X177864000Y-115463629D01*
X177822497Y-115254976D01*
X177741084Y-115058428D01*
X177622891Y-114881540D01*
X177472460Y-114731109D01*
X177295572Y-114612916D01*
X177209000Y-114577057D01*
X177209000Y-111933220D01*
X178899000Y-110243220D01*
X178899001Y-114577056D01*
X178812428Y-114612916D01*
X178635540Y-114731109D01*
X178485109Y-114881540D01*
X178366916Y-115058428D01*
X178285503Y-115254976D01*
X178244000Y-115463629D01*
X178244000Y-115676371D01*
X178285503Y-115885024D01*
X178366916Y-116081572D01*
X178485109Y-116258460D01*
X178635540Y-116408891D01*
X178812428Y-116527084D01*
X179008976Y-116608497D01*
X179217629Y-116650000D01*
X179430371Y-116650000D01*
X179639024Y-116608497D01*
X179835572Y-116527084D01*
X180012460Y-116408891D01*
X180162891Y-116258460D01*
X180169001Y-116249316D01*
X180169001Y-117933958D01*
X176734081Y-121368879D01*
X176718215Y-121360398D01*
X176501439Y-121294640D01*
X176332492Y-121278000D01*
X176219508Y-121278000D01*
X176050561Y-121294640D01*
X175833785Y-121360398D01*
X175634003Y-121467184D01*
X175458893Y-121610893D01*
X175315184Y-121786003D01*
X175208398Y-121985785D01*
X175142640Y-122202561D01*
X175120436Y-122428000D01*
X175142640Y-122653439D01*
X175208398Y-122870215D01*
X175315184Y-123069997D01*
X175458893Y-123245107D01*
X175634003Y-123388816D01*
X175833785Y-123495602D01*
X176050561Y-123561360D01*
X176219508Y-123578000D01*
X176332492Y-123578000D01*
X176501439Y-123561360D01*
X176718215Y-123495602D01*
X176917997Y-123388816D01*
X177093107Y-123245107D01*
X177236816Y-123069997D01*
X177343602Y-122870215D01*
X177358263Y-122821883D01*
X180635480Y-122821883D01*
X180637561Y-122828772D01*
X180724485Y-123036781D01*
X180850319Y-123223836D01*
X181010228Y-123382747D01*
X181198066Y-123507408D01*
X181406615Y-123593028D01*
X181583000Y-123556150D01*
X181583000Y-122645500D01*
X181891000Y-122645500D01*
X181891000Y-123556150D01*
X182067385Y-123593028D01*
X182275934Y-123507408D01*
X182463772Y-123382747D01*
X182623681Y-123223836D01*
X182749515Y-123036781D01*
X182836439Y-122828772D01*
X182838520Y-122821883D01*
X182800912Y-122645500D01*
X181891000Y-122645500D01*
X181583000Y-122645500D01*
X180673088Y-122645500D01*
X180635480Y-122821883D01*
X177358263Y-122821883D01*
X177409360Y-122653439D01*
X177431564Y-122428000D01*
X177409360Y-122202561D01*
X177396789Y-122161117D01*
X180635480Y-122161117D01*
X180673088Y-122337500D01*
X181583000Y-122337500D01*
X181583000Y-121426850D01*
X181891000Y-121426850D01*
X181891000Y-122337500D01*
X182800912Y-122337500D01*
X182838520Y-122161117D01*
X182836439Y-122154228D01*
X182749515Y-121946219D01*
X182623681Y-121759164D01*
X182463772Y-121600253D01*
X182275934Y-121475592D01*
X182067385Y-121389972D01*
X181891000Y-121426850D01*
X181583000Y-121426850D01*
X181406615Y-121389972D01*
X181198066Y-121475592D01*
X181010228Y-121600253D01*
X180850319Y-121759164D01*
X180724485Y-121946219D01*
X180637561Y-122154228D01*
X180635480Y-122161117D01*
X177396789Y-122161117D01*
X177343602Y-121985785D01*
X177335121Y-121969919D01*
X180203540Y-119101500D01*
X180585549Y-119101500D01*
X180585549Y-120801500D01*
X180591341Y-120860310D01*
X180608496Y-120916860D01*
X180636353Y-120968977D01*
X180673842Y-121014658D01*
X180719523Y-121052147D01*
X180771640Y-121080004D01*
X180828190Y-121097159D01*
X180887000Y-121102951D01*
X182587000Y-121102951D01*
X182645810Y-121097159D01*
X182702360Y-121080004D01*
X182754477Y-121052147D01*
X182800158Y-121014658D01*
X182837647Y-120968977D01*
X182865504Y-120916860D01*
X182882659Y-120860310D01*
X182888451Y-120801500D01*
X182888451Y-119101500D01*
X182882659Y-119042690D01*
X182865504Y-118986140D01*
X182837647Y-118934023D01*
X182800158Y-118888342D01*
X182754477Y-118850853D01*
X182702360Y-118822996D01*
X182645810Y-118805841D01*
X182587000Y-118800049D01*
X180887000Y-118800049D01*
X180828190Y-118805841D01*
X180771640Y-118822996D01*
X180719523Y-118850853D01*
X180673842Y-118888342D01*
X180636353Y-118934023D01*
X180608496Y-118986140D01*
X180591341Y-119042690D01*
X180585549Y-119101500D01*
X180203540Y-119101500D01*
X180879762Y-118425279D01*
X180895974Y-118411974D01*
X180949084Y-118347260D01*
X180988548Y-118273427D01*
X181012850Y-118193314D01*
X181019000Y-118130874D01*
X181019000Y-118130868D01*
X181021055Y-118110001D01*
X181019000Y-118089134D01*
X181019000Y-116249317D01*
X181025109Y-116258460D01*
X181175540Y-116408891D01*
X181352428Y-116527084D01*
X181548976Y-116608497D01*
X181757629Y-116650000D01*
X181970371Y-116650000D01*
X182179024Y-116608497D01*
X182375572Y-116527084D01*
X182552460Y-116408891D01*
X182576468Y-116384883D01*
X183806906Y-116384883D01*
X183897164Y-116529600D01*
X184094112Y-116610041D01*
X184302969Y-116650513D01*
X184515708Y-116649461D01*
X184724154Y-116606927D01*
X184910836Y-116529600D01*
X185001094Y-116384883D01*
X184404000Y-115787789D01*
X183806906Y-116384883D01*
X182576468Y-116384883D01*
X182702891Y-116258460D01*
X182821084Y-116081572D01*
X182902497Y-115885024D01*
X182944000Y-115676371D01*
X182944000Y-115468969D01*
X183323487Y-115468969D01*
X183324539Y-115681708D01*
X183367073Y-115890154D01*
X183444400Y-116076836D01*
X183589117Y-116167094D01*
X184186211Y-115570000D01*
X184621789Y-115570000D01*
X185218883Y-116167094D01*
X185363600Y-116076836D01*
X185444041Y-115879888D01*
X185484513Y-115671031D01*
X185483488Y-115463629D01*
X185864000Y-115463629D01*
X185864000Y-115676371D01*
X185905503Y-115885024D01*
X185986916Y-116081572D01*
X186105109Y-116258460D01*
X186255540Y-116408891D01*
X186432428Y-116527084D01*
X186519000Y-116562943D01*
X186519001Y-124313123D01*
X186516945Y-124334000D01*
X186525150Y-124417314D01*
X186545601Y-124484730D01*
X186549453Y-124497427D01*
X186588917Y-124571260D01*
X186642027Y-124635974D01*
X186658239Y-124649279D01*
X187484721Y-125475762D01*
X187498026Y-125491974D01*
X187562740Y-125545084D01*
X187610855Y-125570801D01*
X187636572Y-125584548D01*
X187716685Y-125608850D01*
X187724327Y-125609603D01*
X187750000Y-125612131D01*
X187750000Y-125748949D01*
X187767363Y-125925240D01*
X187835981Y-126151441D01*
X187947409Y-126359909D01*
X188097366Y-126542634D01*
X188280090Y-126692591D01*
X188488558Y-126804019D01*
X188714759Y-126872637D01*
X188950000Y-126895806D01*
X189185240Y-126872637D01*
X189411441Y-126804019D01*
X189619909Y-126692591D01*
X189802634Y-126542634D01*
X189952591Y-126359910D01*
X190064019Y-126151442D01*
X190132637Y-125925241D01*
X190150000Y-125748950D01*
X190150000Y-124631050D01*
X193250000Y-124631050D01*
X193250000Y-125748949D01*
X193267363Y-125925240D01*
X193335981Y-126151441D01*
X193447409Y-126359909D01*
X193597366Y-126542634D01*
X193780090Y-126692591D01*
X193988558Y-126804019D01*
X194214759Y-126872637D01*
X194450000Y-126895806D01*
X194685240Y-126872637D01*
X194911441Y-126804019D01*
X195119909Y-126692591D01*
X195302634Y-126542634D01*
X195452591Y-126359910D01*
X195564019Y-126151442D01*
X195632637Y-125925241D01*
X195650000Y-125748950D01*
X195650000Y-124631050D01*
X195632637Y-124454759D01*
X195564019Y-124228558D01*
X195452591Y-124020090D01*
X195302634Y-123837366D01*
X195119910Y-123687409D01*
X194911442Y-123575981D01*
X194685241Y-123507363D01*
X194450000Y-123484194D01*
X194214760Y-123507363D01*
X193988559Y-123575981D01*
X193780091Y-123687409D01*
X193597367Y-123837366D01*
X193447410Y-124020090D01*
X193335981Y-124228558D01*
X193267363Y-124454759D01*
X193250000Y-124631050D01*
X190150000Y-124631050D01*
X190132637Y-124454759D01*
X190064019Y-124228558D01*
X189952591Y-124020090D01*
X189802634Y-123837366D01*
X189619910Y-123687409D01*
X189411442Y-123575981D01*
X189185241Y-123507363D01*
X188950000Y-123484194D01*
X188714760Y-123507363D01*
X188488559Y-123575981D01*
X188280091Y-123687409D01*
X188097367Y-123837366D01*
X187947410Y-124020090D01*
X187835981Y-124228558D01*
X187767363Y-124454759D01*
X187758257Y-124547216D01*
X187369000Y-124157960D01*
X187369000Y-123344000D01*
X195650000Y-123344000D01*
X195650000Y-123844000D01*
X195703102Y-124075149D01*
X195800278Y-124291497D01*
X195937794Y-124484730D01*
X196110366Y-124647422D01*
X196311362Y-124773321D01*
X196511727Y-124841334D01*
X196696000Y-124804410D01*
X196696000Y-123344000D01*
X195650000Y-123344000D01*
X187369000Y-123344000D01*
X187369000Y-122536000D01*
X195650000Y-122536000D01*
X195650000Y-123036000D01*
X196696000Y-123036000D01*
X196696000Y-121575590D01*
X196511727Y-121538666D01*
X196311362Y-121606679D01*
X196110366Y-121732578D01*
X195937794Y-121895270D01*
X195800278Y-122088503D01*
X195703102Y-122304851D01*
X195650000Y-122536000D01*
X187369000Y-122536000D01*
X187369000Y-116562943D01*
X187455572Y-116527084D01*
X187632460Y-116408891D01*
X187782891Y-116258460D01*
X187901084Y-116081572D01*
X187982497Y-115885024D01*
X188024000Y-115676371D01*
X188024000Y-115463629D01*
X188404000Y-115463629D01*
X188404000Y-115676371D01*
X188445503Y-115885024D01*
X188526916Y-116081572D01*
X188645109Y-116258460D01*
X188795540Y-116408891D01*
X188972428Y-116527084D01*
X189168976Y-116608497D01*
X189377629Y-116650000D01*
X189590371Y-116650000D01*
X189799024Y-116608497D01*
X189995572Y-116527084D01*
X190172460Y-116408891D01*
X190322891Y-116258460D01*
X190441084Y-116081572D01*
X190522497Y-115885024D01*
X190564000Y-115676371D01*
X190564000Y-115463629D01*
X190944000Y-115463629D01*
X190944000Y-115676371D01*
X190985503Y-115885024D01*
X191066916Y-116081572D01*
X191185109Y-116258460D01*
X191335540Y-116408891D01*
X191512428Y-116527084D01*
X191708976Y-116608497D01*
X191917629Y-116650000D01*
X192130371Y-116650000D01*
X192339024Y-116608497D01*
X192535572Y-116527084D01*
X192712460Y-116408891D01*
X192862891Y-116258460D01*
X192981084Y-116081572D01*
X193062497Y-115885024D01*
X193104000Y-115676371D01*
X193104000Y-115463629D01*
X193484000Y-115463629D01*
X193484000Y-115676371D01*
X193525503Y-115885024D01*
X193606916Y-116081572D01*
X193725109Y-116258460D01*
X193875540Y-116408891D01*
X194052428Y-116527084D01*
X194248976Y-116608497D01*
X194457629Y-116650000D01*
X194670371Y-116650000D01*
X194879024Y-116608497D01*
X195075572Y-116527084D01*
X195252460Y-116408891D01*
X195402891Y-116258460D01*
X195521084Y-116081572D01*
X195602497Y-115885024D01*
X195644000Y-115676371D01*
X195644000Y-115463629D01*
X195602497Y-115254976D01*
X195521084Y-115058428D01*
X195402891Y-114881540D01*
X195252460Y-114731109D01*
X195075572Y-114612916D01*
X194879024Y-114531503D01*
X194670371Y-114490000D01*
X194457629Y-114490000D01*
X194248976Y-114531503D01*
X194052428Y-114612916D01*
X193875540Y-114731109D01*
X193725109Y-114881540D01*
X193606916Y-115058428D01*
X193525503Y-115254976D01*
X193484000Y-115463629D01*
X193104000Y-115463629D01*
X193062497Y-115254976D01*
X192981084Y-115058428D01*
X192862891Y-114881540D01*
X192712460Y-114731109D01*
X192535572Y-114612916D01*
X192339024Y-114531503D01*
X192130371Y-114490000D01*
X191917629Y-114490000D01*
X191708976Y-114531503D01*
X191512428Y-114612916D01*
X191335540Y-114731109D01*
X191185109Y-114881540D01*
X191066916Y-115058428D01*
X190985503Y-115254976D01*
X190944000Y-115463629D01*
X190564000Y-115463629D01*
X190522497Y-115254976D01*
X190441084Y-115058428D01*
X190322891Y-114881540D01*
X190172460Y-114731109D01*
X189995572Y-114612916D01*
X189799024Y-114531503D01*
X189590371Y-114490000D01*
X189377629Y-114490000D01*
X189168976Y-114531503D01*
X188972428Y-114612916D01*
X188795540Y-114731109D01*
X188645109Y-114881540D01*
X188526916Y-115058428D01*
X188445503Y-115254976D01*
X188404000Y-115463629D01*
X188024000Y-115463629D01*
X187982497Y-115254976D01*
X187901084Y-115058428D01*
X187782891Y-114881540D01*
X187632460Y-114731109D01*
X187455572Y-114612916D01*
X187259024Y-114531503D01*
X187050371Y-114490000D01*
X186837629Y-114490000D01*
X186628976Y-114531503D01*
X186432428Y-114612916D01*
X186255540Y-114731109D01*
X186105109Y-114881540D01*
X185986916Y-115058428D01*
X185905503Y-115254976D01*
X185864000Y-115463629D01*
X185483488Y-115463629D01*
X185483461Y-115458292D01*
X185440927Y-115249846D01*
X185363600Y-115063164D01*
X185218883Y-114972906D01*
X184621789Y-115570000D01*
X184186211Y-115570000D01*
X183589117Y-114972906D01*
X183444400Y-115063164D01*
X183363959Y-115260112D01*
X183323487Y-115468969D01*
X182944000Y-115468969D01*
X182944000Y-115463629D01*
X182902497Y-115254976D01*
X182821084Y-115058428D01*
X182702891Y-114881540D01*
X182576468Y-114755117D01*
X183806906Y-114755117D01*
X184404000Y-115352211D01*
X185001094Y-114755117D01*
X184910836Y-114610400D01*
X184713888Y-114529959D01*
X184505031Y-114489487D01*
X184292292Y-114490539D01*
X184083846Y-114533073D01*
X183897164Y-114610400D01*
X183806906Y-114755117D01*
X182576468Y-114755117D01*
X182552460Y-114731109D01*
X182375572Y-114612916D01*
X182179024Y-114531503D01*
X181970371Y-114490000D01*
X181757629Y-114490000D01*
X181548976Y-114531503D01*
X181352428Y-114612916D01*
X181175540Y-114731109D01*
X181025109Y-114881540D01*
X181019000Y-114890683D01*
X181019000Y-109396040D01*
X188148280Y-102266761D01*
X188148284Y-102266756D01*
X188499762Y-101915279D01*
X188515974Y-101901974D01*
X188569084Y-101837260D01*
X188608548Y-101763427D01*
X188632850Y-101683314D01*
X188639000Y-101620874D01*
X188639000Y-101620868D01*
X188641055Y-101600001D01*
X188639000Y-101579134D01*
X188639000Y-90849317D01*
X188645109Y-90858460D01*
X188795540Y-91008891D01*
X188972428Y-91127084D01*
X189168976Y-91208497D01*
X189377629Y-91250000D01*
X189590371Y-91250000D01*
X189799024Y-91208497D01*
X189954001Y-91144303D01*
X189954000Y-102030629D01*
X183810531Y-108174099D01*
X183735607Y-108265394D01*
X183661321Y-108404373D01*
X183615577Y-108555173D01*
X183600130Y-108712000D01*
X183615577Y-108868827D01*
X183661321Y-109019627D01*
X183735607Y-109158606D01*
X183835579Y-109280421D01*
X183957394Y-109380393D01*
X184096373Y-109454679D01*
X184247173Y-109500423D01*
X184404000Y-109515870D01*
X184560827Y-109500423D01*
X184711627Y-109454679D01*
X184850606Y-109380393D01*
X184941901Y-109305469D01*
X191291904Y-102955467D01*
X191322422Y-102930422D01*
X191347469Y-102899902D01*
X191422393Y-102808607D01*
X191496679Y-102669628D01*
X191496679Y-102669627D01*
X191542424Y-102518827D01*
X191554000Y-102401293D01*
X191554000Y-102401292D01*
X191557870Y-102362001D01*
X191554000Y-102322710D01*
X191554000Y-99303112D01*
X191894000Y-99303112D01*
X191894000Y-99578888D01*
X191947801Y-99849365D01*
X192053336Y-100104149D01*
X192206549Y-100333448D01*
X192401552Y-100528451D01*
X192630851Y-100681664D01*
X192885635Y-100787199D01*
X193156112Y-100841000D01*
X193431888Y-100841000D01*
X193702365Y-100787199D01*
X193957149Y-100681664D01*
X194186448Y-100528451D01*
X194381451Y-100333448D01*
X194534664Y-100104149D01*
X194640199Y-99849365D01*
X194694000Y-99578888D01*
X194694000Y-99303112D01*
X194640199Y-99032635D01*
X194534664Y-98777851D01*
X194381451Y-98548552D01*
X194186448Y-98353549D01*
X193957149Y-98200336D01*
X193702365Y-98094801D01*
X193616569Y-98077735D01*
X194644000Y-98077735D01*
X194644000Y-98304265D01*
X194688194Y-98526443D01*
X194774884Y-98735729D01*
X194900737Y-98924082D01*
X195060918Y-99084263D01*
X195249271Y-99210116D01*
X195458557Y-99296806D01*
X195680735Y-99341000D01*
X195907265Y-99341000D01*
X196129443Y-99296806D01*
X196338729Y-99210116D01*
X196527082Y-99084263D01*
X196687263Y-98924082D01*
X196813116Y-98735729D01*
X196899806Y-98526443D01*
X196944000Y-98304265D01*
X196944000Y-98077735D01*
X196899806Y-97855557D01*
X196813116Y-97646271D01*
X196687263Y-97457918D01*
X196527082Y-97297737D01*
X196338729Y-97171884D01*
X196129443Y-97085194D01*
X195907265Y-97041000D01*
X195680735Y-97041000D01*
X195458557Y-97085194D01*
X195249271Y-97171884D01*
X195060918Y-97297737D01*
X194900737Y-97457918D01*
X194774884Y-97646271D01*
X194688194Y-97855557D01*
X194644000Y-98077735D01*
X193616569Y-98077735D01*
X193431888Y-98041000D01*
X193156112Y-98041000D01*
X192885635Y-98094801D01*
X192630851Y-98200336D01*
X192401552Y-98353549D01*
X192206549Y-98548552D01*
X192053336Y-98777851D01*
X191947801Y-99032635D01*
X191894000Y-99303112D01*
X191554000Y-99303112D01*
X191554000Y-94556169D01*
X195146620Y-94556169D01*
X195245424Y-94708051D01*
X195454382Y-94795530D01*
X195676391Y-94840563D01*
X195902920Y-94841419D01*
X196125263Y-94798065D01*
X196334875Y-94712166D01*
X196342576Y-94708051D01*
X196441380Y-94556169D01*
X195794000Y-93908789D01*
X195146620Y-94556169D01*
X191554000Y-94556169D01*
X191554000Y-92303112D01*
X191894000Y-92303112D01*
X191894000Y-92578888D01*
X191947801Y-92849365D01*
X192053336Y-93104149D01*
X192206549Y-93333448D01*
X192401552Y-93528451D01*
X192630851Y-93681664D01*
X192885635Y-93787199D01*
X193156112Y-93841000D01*
X193431888Y-93841000D01*
X193638411Y-93799920D01*
X194643581Y-93799920D01*
X194686935Y-94022263D01*
X194772834Y-94231875D01*
X194776949Y-94239576D01*
X194928831Y-94338380D01*
X195576211Y-93691000D01*
X196011789Y-93691000D01*
X196659169Y-94338380D01*
X196811051Y-94239576D01*
X196898530Y-94030618D01*
X196943563Y-93808609D01*
X196944419Y-93582080D01*
X196901065Y-93359737D01*
X196815166Y-93150125D01*
X196811051Y-93142424D01*
X196659169Y-93043620D01*
X196011789Y-93691000D01*
X195576211Y-93691000D01*
X194928831Y-93043620D01*
X194776949Y-93142424D01*
X194689470Y-93351382D01*
X194644437Y-93573391D01*
X194643581Y-93799920D01*
X193638411Y-93799920D01*
X193702365Y-93787199D01*
X193957149Y-93681664D01*
X194186448Y-93528451D01*
X194381451Y-93333448D01*
X194534664Y-93104149D01*
X194640199Y-92849365D01*
X194644880Y-92825831D01*
X195146620Y-92825831D01*
X195794000Y-93473211D01*
X196441380Y-92825831D01*
X196342576Y-92673949D01*
X196133618Y-92586470D01*
X195911609Y-92541437D01*
X195685080Y-92540581D01*
X195462737Y-92583935D01*
X195253125Y-92669834D01*
X195245424Y-92673949D01*
X195146620Y-92825831D01*
X194644880Y-92825831D01*
X194694000Y-92578888D01*
X194694000Y-92303112D01*
X194640199Y-92032635D01*
X194534664Y-91777851D01*
X194381451Y-91548552D01*
X194186448Y-91353549D01*
X193957149Y-91200336D01*
X193702365Y-91094801D01*
X193431888Y-91041000D01*
X193156112Y-91041000D01*
X192885635Y-91094801D01*
X192630851Y-91200336D01*
X192401552Y-91353549D01*
X192206549Y-91548552D01*
X192053336Y-91777851D01*
X191947801Y-92032635D01*
X191894000Y-92303112D01*
X191554000Y-92303112D01*
X191554000Y-91144304D01*
X191708976Y-91208497D01*
X191917629Y-91250000D01*
X192130371Y-91250000D01*
X192339024Y-91208497D01*
X192535572Y-91127084D01*
X192712460Y-91008891D01*
X192862891Y-90858460D01*
X192981084Y-90681572D01*
X193062497Y-90485024D01*
X193104000Y-90276371D01*
X193104000Y-90063629D01*
X193484000Y-90063629D01*
X193484000Y-90276371D01*
X193525503Y-90485024D01*
X193606916Y-90681572D01*
X193725109Y-90858460D01*
X193875540Y-91008891D01*
X194052428Y-91127084D01*
X194248976Y-91208497D01*
X194457629Y-91250000D01*
X194670371Y-91250000D01*
X194879024Y-91208497D01*
X195075572Y-91127084D01*
X195252460Y-91008891D01*
X195402891Y-90858460D01*
X195521084Y-90681572D01*
X195602497Y-90485024D01*
X195644000Y-90276371D01*
X195644000Y-90063629D01*
X195602497Y-89854976D01*
X195521084Y-89658428D01*
X195402891Y-89481540D01*
X195252460Y-89331109D01*
X195075572Y-89212916D01*
X194879024Y-89131503D01*
X194670371Y-89090000D01*
X194457629Y-89090000D01*
X194248976Y-89131503D01*
X194052428Y-89212916D01*
X193875540Y-89331109D01*
X193725109Y-89481540D01*
X193606916Y-89658428D01*
X193525503Y-89854976D01*
X193484000Y-90063629D01*
X193104000Y-90063629D01*
X193062497Y-89854976D01*
X192981084Y-89658428D01*
X192862891Y-89481540D01*
X192712460Y-89331109D01*
X192535572Y-89212916D01*
X192339024Y-89131503D01*
X192130371Y-89090000D01*
X191917629Y-89090000D01*
X191708976Y-89131503D01*
X191554000Y-89195696D01*
X191554000Y-87858110D01*
X192117921Y-87294189D01*
X192148441Y-87269142D01*
X192176867Y-87234505D01*
X192248413Y-87147327D01*
X192322699Y-87008348D01*
X192368443Y-86857547D01*
X192383890Y-86700720D01*
X192380019Y-86661420D01*
X192380019Y-84902866D01*
X193680000Y-84902866D01*
X193680000Y-85277134D01*
X193753016Y-85644209D01*
X193896242Y-85989987D01*
X194104174Y-86301179D01*
X194368821Y-86565826D01*
X194680013Y-86773758D01*
X195025791Y-86916984D01*
X195392866Y-86990000D01*
X195767134Y-86990000D01*
X196134209Y-86916984D01*
X196479987Y-86773758D01*
X196791179Y-86565826D01*
X197055826Y-86301179D01*
X197263758Y-85989987D01*
X197406984Y-85644209D01*
X197480000Y-85277134D01*
X197480000Y-84902866D01*
X197406984Y-84535791D01*
X197263758Y-84190013D01*
X197055826Y-83878821D01*
X196791179Y-83614174D01*
X196479987Y-83406242D01*
X196134209Y-83263016D01*
X195767134Y-83190000D01*
X195392866Y-83190000D01*
X195025791Y-83263016D01*
X194680013Y-83406242D01*
X194368821Y-83614174D01*
X194104174Y-83878821D01*
X193896242Y-84190013D01*
X193753016Y-84535791D01*
X193680000Y-84902866D01*
X192380019Y-84902866D01*
X192380021Y-78589312D01*
X192383891Y-78550021D01*
X192372860Y-78438026D01*
X192368445Y-78393195D01*
X192322700Y-78242394D01*
X192322700Y-78242393D01*
X192248414Y-78103414D01*
X192173491Y-78012120D01*
X192173485Y-78012114D01*
X192148443Y-77981600D01*
X192117929Y-77956558D01*
X190280000Y-76118630D01*
X190280000Y-76096584D01*
X190239650Y-75893726D01*
X190160498Y-75702638D01*
X190045589Y-75530664D01*
X189899336Y-75384411D01*
X189727362Y-75269502D01*
X189536274Y-75190350D01*
X189333416Y-75150000D01*
X189126584Y-75150000D01*
X188923726Y-75190350D01*
X188732638Y-75269502D01*
X188560664Y-75384411D01*
X188414411Y-75530664D01*
X188299502Y-75702638D01*
X188220350Y-75893726D01*
X188180000Y-76096584D01*
X188180000Y-76303416D01*
X188220350Y-76506274D01*
X188299502Y-76697362D01*
X188414411Y-76869336D01*
X188560664Y-77015589D01*
X188732638Y-77130498D01*
X188923726Y-77209650D01*
X189126584Y-77250000D01*
X189148630Y-77250000D01*
X189694533Y-77795904D01*
X189536274Y-77730350D01*
X189333416Y-77690000D01*
X189126584Y-77690000D01*
X188923726Y-77730350D01*
X188732638Y-77809502D01*
X188560664Y-77924411D01*
X188414411Y-78070664D01*
X188299502Y-78242638D01*
X188220350Y-78433726D01*
X188180000Y-78636584D01*
X188180000Y-78843416D01*
X188220350Y-79046274D01*
X188299502Y-79237362D01*
X188414411Y-79409336D01*
X188560664Y-79555589D01*
X188732638Y-79670498D01*
X188923726Y-79749650D01*
X189126584Y-79790000D01*
X189333416Y-79790000D01*
X189536274Y-79749650D01*
X189608636Y-79719676D01*
X190330011Y-80441052D01*
X190330011Y-81778971D01*
X190209676Y-81658636D01*
X190239650Y-81586274D01*
X190280000Y-81383416D01*
X190280000Y-81176584D01*
X190239650Y-80973726D01*
X190160498Y-80782638D01*
X190045589Y-80610664D01*
X189899336Y-80464411D01*
X189727362Y-80349502D01*
X189536274Y-80270350D01*
X189333416Y-80230000D01*
X189126584Y-80230000D01*
X188923726Y-80270350D01*
X188732638Y-80349502D01*
X188560664Y-80464411D01*
X188414411Y-80610664D01*
X188299502Y-80782638D01*
X188220350Y-80973726D01*
X188180000Y-81176584D01*
X188180000Y-81383416D01*
X188220350Y-81586274D01*
X188299502Y-81777362D01*
X188414411Y-81949336D01*
X188560664Y-82095589D01*
X188732638Y-82210498D01*
X188923726Y-82289650D01*
X189126584Y-82330000D01*
X189333416Y-82330000D01*
X189536274Y-82289650D01*
X189608636Y-82259676D01*
X189880001Y-82531042D01*
X189880001Y-82768549D01*
X188480000Y-82768549D01*
X188421190Y-82774341D01*
X188364640Y-82791496D01*
X188312523Y-82819353D01*
X188266842Y-82856842D01*
X188229353Y-82902523D01*
X188201496Y-82954640D01*
X188184341Y-83011190D01*
X188178549Y-83070000D01*
X188178549Y-83398012D01*
X188155098Y-83400321D01*
X188146685Y-83401150D01*
X188129900Y-83406242D01*
X188066573Y-83425452D01*
X187992740Y-83464916D01*
X187928026Y-83518026D01*
X187914721Y-83534238D01*
X184127948Y-87321012D01*
X184201602Y-87183215D01*
X184267360Y-86966439D01*
X184289564Y-86741000D01*
X184267360Y-86515561D01*
X184201602Y-86298785D01*
X184094816Y-86099003D01*
X183951107Y-85923893D01*
X183775997Y-85780184D01*
X183576215Y-85673398D01*
X183359439Y-85607640D01*
X183190492Y-85591000D01*
X183077508Y-85591000D01*
X182908561Y-85607640D01*
X182691785Y-85673398D01*
X182492003Y-85780184D01*
X182316893Y-85923893D01*
X182173184Y-86099003D01*
X182066398Y-86298785D01*
X182000640Y-86515561D01*
X181978436Y-86741000D01*
X182000640Y-86966439D01*
X182066398Y-87183215D01*
X182173184Y-87382997D01*
X182316893Y-87558107D01*
X182492003Y-87701816D01*
X182691785Y-87808602D01*
X182908561Y-87874360D01*
X183077508Y-87891000D01*
X183190492Y-87891000D01*
X183359439Y-87874360D01*
X183576215Y-87808602D01*
X183714012Y-87734948D01*
X182848239Y-88600721D01*
X182832027Y-88614026D01*
X182778917Y-88678740D01*
X182752406Y-88728339D01*
X182739453Y-88752573D01*
X182715150Y-88832686D01*
X182706945Y-88916000D01*
X182709001Y-88936877D01*
X182709001Y-89490684D01*
X182702891Y-89481540D01*
X182552460Y-89331109D01*
X182375572Y-89212916D01*
X182179024Y-89131503D01*
X181970371Y-89090000D01*
X181757629Y-89090000D01*
X181548976Y-89131503D01*
X181352428Y-89212916D01*
X181175540Y-89331109D01*
X181025109Y-89481540D01*
X180906916Y-89658428D01*
X180825503Y-89854976D01*
X180784000Y-90063629D01*
X180784000Y-90276371D01*
X180825503Y-90485024D01*
X180906916Y-90681572D01*
X181025109Y-90858460D01*
X181175540Y-91008891D01*
X181352428Y-91127084D01*
X181548976Y-91208497D01*
X181757629Y-91250000D01*
X181970371Y-91250000D01*
X182179024Y-91208497D01*
X182375572Y-91127084D01*
X182552460Y-91008891D01*
X182702891Y-90858460D01*
X182709001Y-90849316D01*
X182709000Y-105231139D01*
X178314001Y-109626139D01*
X178314001Y-90553824D01*
X178366916Y-90681572D01*
X178485109Y-90858460D01*
X178635540Y-91008891D01*
X178812428Y-91127084D01*
X179008976Y-91208497D01*
X179217629Y-91250000D01*
X179430371Y-91250000D01*
X179639024Y-91208497D01*
X179835572Y-91127084D01*
X180012460Y-91008891D01*
X180162891Y-90858460D01*
X180281084Y-90681572D01*
X180362497Y-90485024D01*
X180404000Y-90276371D01*
X180404000Y-90063629D01*
X180362497Y-89854976D01*
X180281084Y-89658428D01*
X180162891Y-89481540D01*
X180012460Y-89331109D01*
X179835572Y-89212916D01*
X179639024Y-89131503D01*
X179430371Y-89090000D01*
X179217629Y-89090000D01*
X179008976Y-89131503D01*
X178812428Y-89212916D01*
X178635540Y-89331109D01*
X178485109Y-89481540D01*
X178366916Y-89658428D01*
X178314001Y-89786176D01*
X178314001Y-87591000D01*
X179442548Y-87591000D01*
X179448340Y-87649810D01*
X179465495Y-87706361D01*
X179493352Y-87758478D01*
X179530841Y-87804159D01*
X179576522Y-87841648D01*
X179628639Y-87869505D01*
X179685190Y-87886660D01*
X179744000Y-87892452D01*
X180365000Y-87891000D01*
X180440000Y-87816000D01*
X180440000Y-86895000D01*
X180748000Y-86895000D01*
X180748000Y-87816000D01*
X180823000Y-87891000D01*
X181444000Y-87892452D01*
X181502810Y-87886660D01*
X181559361Y-87869505D01*
X181611478Y-87841648D01*
X181657159Y-87804159D01*
X181694648Y-87758478D01*
X181722505Y-87706361D01*
X181739660Y-87649810D01*
X181745452Y-87591000D01*
X181744000Y-86970000D01*
X181669000Y-86895000D01*
X180748000Y-86895000D01*
X180440000Y-86895000D01*
X179519000Y-86895000D01*
X179444000Y-86970000D01*
X179442548Y-87591000D01*
X178314001Y-87591000D01*
X178314001Y-86879908D01*
X178335225Y-86865727D01*
X178432727Y-86768225D01*
X178509333Y-86653575D01*
X178562100Y-86526183D01*
X178589001Y-86390945D01*
X178589001Y-86253057D01*
X178562100Y-86117819D01*
X178509333Y-85990427D01*
X178442899Y-85891000D01*
X179442548Y-85891000D01*
X179444000Y-86512000D01*
X179519000Y-86587000D01*
X180440000Y-86587000D01*
X180440000Y-85666000D01*
X180748000Y-85666000D01*
X180748000Y-86587000D01*
X181669000Y-86587000D01*
X181744000Y-86512000D01*
X181745452Y-85891000D01*
X181739660Y-85832190D01*
X181722505Y-85775639D01*
X181694648Y-85723522D01*
X181657159Y-85677841D01*
X181611478Y-85640352D01*
X181559361Y-85612495D01*
X181502810Y-85595340D01*
X181444000Y-85589548D01*
X180823000Y-85591000D01*
X180748000Y-85666000D01*
X180440000Y-85666000D01*
X180365000Y-85591000D01*
X179744000Y-85589548D01*
X179685190Y-85595340D01*
X179628639Y-85612495D01*
X179576522Y-85640352D01*
X179530841Y-85677841D01*
X179493352Y-85723522D01*
X179465495Y-85775639D01*
X179448340Y-85832190D01*
X179442548Y-85891000D01*
X178442899Y-85891000D01*
X178432727Y-85875777D01*
X178335225Y-85778275D01*
X178220575Y-85701669D01*
X178093183Y-85648902D01*
X177957945Y-85622001D01*
X177820057Y-85622001D01*
X177684819Y-85648902D01*
X177557427Y-85701669D01*
X177442777Y-85778275D01*
X177345275Y-85875777D01*
X177268669Y-85990427D01*
X177215902Y-86117819D01*
X177189001Y-86253057D01*
X177189001Y-86390945D01*
X177215902Y-86526183D01*
X177268669Y-86653575D01*
X177345275Y-86768225D01*
X177442777Y-86865727D01*
X177464002Y-86879909D01*
X177464002Y-89325457D01*
X177295572Y-89212916D01*
X177099024Y-89131503D01*
X176890371Y-89090000D01*
X176677629Y-89090000D01*
X176468976Y-89131503D01*
X176272428Y-89212916D01*
X176095540Y-89331109D01*
X175945109Y-89481540D01*
X175826916Y-89658428D01*
X175745503Y-89854976D01*
X175704000Y-90063629D01*
X175704000Y-90276371D01*
X175745503Y-90485024D01*
X175826916Y-90681572D01*
X175945109Y-90858460D01*
X176095540Y-91008891D01*
X176272428Y-91127084D01*
X176468976Y-91208497D01*
X176677629Y-91250000D01*
X176890371Y-91250000D01*
X177099024Y-91208497D01*
X177295572Y-91127084D01*
X177464002Y-91014543D01*
X177464001Y-109839728D01*
X176048235Y-111255495D01*
X176048230Y-111255499D01*
X174444730Y-112859000D01*
X166390866Y-112859000D01*
X166369999Y-112856945D01*
X166349132Y-112859000D01*
X166349126Y-112859000D01*
X166295098Y-112864321D01*
X166286685Y-112865150D01*
X166262383Y-112872522D01*
X166206573Y-112889452D01*
X166132740Y-112928916D01*
X166068026Y-112982026D01*
X166054721Y-112998238D01*
X164485597Y-114567363D01*
X164399024Y-114531503D01*
X164190371Y-114490000D01*
X163977629Y-114490000D01*
X163768976Y-114531503D01*
X163572428Y-114612916D01*
X163395540Y-114731109D01*
X163245109Y-114881540D01*
X163126916Y-115058428D01*
X163045503Y-115254976D01*
X163004000Y-115463629D01*
X162623488Y-115463629D01*
X162623461Y-115458292D01*
X162580927Y-115249846D01*
X162503600Y-115063164D01*
X162358883Y-114972906D01*
X161761789Y-115570000D01*
X161326211Y-115570000D01*
X160729117Y-114972906D01*
X160584400Y-115063164D01*
X160503959Y-115260112D01*
X160463487Y-115468969D01*
X160084000Y-115468969D01*
X160084000Y-115463629D01*
X160042497Y-115254976D01*
X159961084Y-115058428D01*
X159842891Y-114881540D01*
X159716468Y-114755117D01*
X160946906Y-114755117D01*
X161544000Y-115352211D01*
X162141094Y-114755117D01*
X162050836Y-114610400D01*
X161853888Y-114529959D01*
X161645031Y-114489487D01*
X161432292Y-114490539D01*
X161223846Y-114533073D01*
X161037164Y-114610400D01*
X160946906Y-114755117D01*
X159716468Y-114755117D01*
X159692460Y-114731109D01*
X159515572Y-114612916D01*
X159319024Y-114531503D01*
X159110371Y-114490000D01*
X158897629Y-114490000D01*
X158688976Y-114531503D01*
X158492428Y-114612916D01*
X158315540Y-114731109D01*
X158165109Y-114881540D01*
X158046916Y-115058428D01*
X157965503Y-115254976D01*
X157924000Y-115463629D01*
X157544000Y-115463629D01*
X157502497Y-115254976D01*
X157421084Y-115058428D01*
X157302891Y-114881540D01*
X157152460Y-114731109D01*
X156975572Y-114612916D01*
X156779024Y-114531503D01*
X156570371Y-114490000D01*
X156357629Y-114490000D01*
X156148976Y-114531503D01*
X155952428Y-114612916D01*
X155775540Y-114731109D01*
X155625109Y-114881540D01*
X155506916Y-115058428D01*
X155425503Y-115254976D01*
X155384000Y-115463629D01*
X155004000Y-115463629D01*
X154962497Y-115254976D01*
X154881084Y-115058428D01*
X154762891Y-114881540D01*
X154612460Y-114731109D01*
X154435572Y-114612916D01*
X154239024Y-114531503D01*
X154030371Y-114490000D01*
X153817629Y-114490000D01*
X153608976Y-114531503D01*
X153412428Y-114612916D01*
X153235540Y-114731109D01*
X153085109Y-114881540D01*
X152966916Y-115058428D01*
X152885503Y-115254976D01*
X152844000Y-115463629D01*
X152465451Y-115463629D01*
X152465451Y-114790000D01*
X152459659Y-114731190D01*
X152442504Y-114674640D01*
X152414647Y-114622523D01*
X152377158Y-114576842D01*
X152331477Y-114539353D01*
X152279360Y-114511496D01*
X152222810Y-114494341D01*
X152164000Y-114488549D01*
X150604000Y-114488549D01*
X150545190Y-114494341D01*
X150488640Y-114511496D01*
X150436523Y-114539353D01*
X150390842Y-114576842D01*
X150353353Y-114622523D01*
X150325496Y-114674640D01*
X150308341Y-114731190D01*
X150302549Y-114790000D01*
X150302549Y-114990731D01*
X149267000Y-113955183D01*
X149267000Y-100258834D01*
X149337332Y-100153574D01*
X149390099Y-100026182D01*
X149417000Y-99890944D01*
X149417000Y-99753056D01*
X149390099Y-99617818D01*
X149337332Y-99490426D01*
X149260726Y-99375776D01*
X149163224Y-99278274D01*
X149048574Y-99201668D01*
X148921182Y-99148901D01*
X148785944Y-99122000D01*
X148648056Y-99122000D01*
X148512818Y-99148901D01*
X148385426Y-99201668D01*
X148270776Y-99278274D01*
X148173274Y-99375776D01*
X148096668Y-99490426D01*
X148043901Y-99617818D01*
X148017000Y-99753056D01*
X120824142Y-99753056D01*
X120824184Y-98144000D01*
X126492000Y-98144000D01*
X126511509Y-98142079D01*
X126530268Y-98136388D01*
X126547557Y-98127147D01*
X126562711Y-98114711D01*
X126575147Y-98099557D01*
X126584388Y-98082268D01*
X126590079Y-98063509D01*
X126592000Y-98044000D01*
X126592000Y-90984883D01*
X150786906Y-90984883D01*
X150877164Y-91129600D01*
X151074112Y-91210041D01*
X151282969Y-91250513D01*
X151495708Y-91249461D01*
X151704154Y-91206927D01*
X151890836Y-91129600D01*
X151981094Y-90984883D01*
X151384000Y-90387789D01*
X150786906Y-90984883D01*
X126592000Y-90984883D01*
X126592000Y-90068969D01*
X150303487Y-90068969D01*
X150304539Y-90281708D01*
X150347073Y-90490154D01*
X150424400Y-90676836D01*
X150569117Y-90767094D01*
X151166211Y-90170000D01*
X151601789Y-90170000D01*
X152198883Y-90767094D01*
X152343600Y-90676836D01*
X152424041Y-90479888D01*
X152464513Y-90271031D01*
X152463488Y-90063629D01*
X152844000Y-90063629D01*
X152844000Y-90276371D01*
X152885503Y-90485024D01*
X152966916Y-90681572D01*
X153085109Y-90858460D01*
X153235540Y-91008891D01*
X153412428Y-91127084D01*
X153608976Y-91208497D01*
X153817629Y-91250000D01*
X154030371Y-91250000D01*
X154239024Y-91208497D01*
X154435572Y-91127084D01*
X154612460Y-91008891D01*
X154762891Y-90858460D01*
X154881084Y-90681572D01*
X154962497Y-90485024D01*
X155004000Y-90276371D01*
X155004000Y-90063629D01*
X155384000Y-90063629D01*
X155384000Y-90276371D01*
X155425503Y-90485024D01*
X155506916Y-90681572D01*
X155625109Y-90858460D01*
X155775540Y-91008891D01*
X155952428Y-91127084D01*
X156148976Y-91208497D01*
X156357629Y-91250000D01*
X156570371Y-91250000D01*
X156779024Y-91208497D01*
X156975572Y-91127084D01*
X157152460Y-91008891D01*
X157302891Y-90858460D01*
X157421084Y-90681572D01*
X157502497Y-90485024D01*
X157544000Y-90276371D01*
X157544000Y-90063629D01*
X157924000Y-90063629D01*
X157924000Y-90276371D01*
X157965503Y-90485024D01*
X158046916Y-90681572D01*
X158165109Y-90858460D01*
X158315540Y-91008891D01*
X158492428Y-91127084D01*
X158688976Y-91208497D01*
X158897629Y-91250000D01*
X159110371Y-91250000D01*
X159319024Y-91208497D01*
X159515572Y-91127084D01*
X159692460Y-91008891D01*
X159842891Y-90858460D01*
X159961084Y-90681572D01*
X160042497Y-90485024D01*
X160084000Y-90276371D01*
X160084000Y-90063629D01*
X160464000Y-90063629D01*
X160464000Y-90276371D01*
X160505503Y-90485024D01*
X160586916Y-90681572D01*
X160705109Y-90858460D01*
X160855540Y-91008891D01*
X161032428Y-91127084D01*
X161228976Y-91208497D01*
X161437629Y-91250000D01*
X161650371Y-91250000D01*
X161859024Y-91208497D01*
X162055572Y-91127084D01*
X162232460Y-91008891D01*
X162382891Y-90858460D01*
X162501084Y-90681572D01*
X162582497Y-90485024D01*
X162624000Y-90276371D01*
X162624000Y-90063629D01*
X163004000Y-90063629D01*
X163004000Y-90276371D01*
X163045503Y-90485024D01*
X163126916Y-90681572D01*
X163245109Y-90858460D01*
X163395540Y-91008891D01*
X163572428Y-91127084D01*
X163768976Y-91208497D01*
X163977629Y-91250000D01*
X164190371Y-91250000D01*
X164399024Y-91208497D01*
X164595572Y-91127084D01*
X164772460Y-91008891D01*
X164796468Y-90984883D01*
X166026906Y-90984883D01*
X166117164Y-91129600D01*
X166314112Y-91210041D01*
X166522969Y-91250513D01*
X166735708Y-91249461D01*
X166944154Y-91206927D01*
X167130836Y-91129600D01*
X167221094Y-90984883D01*
X166624000Y-90387789D01*
X166026906Y-90984883D01*
X164796468Y-90984883D01*
X164922891Y-90858460D01*
X165041084Y-90681572D01*
X165122497Y-90485024D01*
X165164000Y-90276371D01*
X165164000Y-90068969D01*
X165543487Y-90068969D01*
X165544539Y-90281708D01*
X165587073Y-90490154D01*
X165664400Y-90676836D01*
X165809117Y-90767094D01*
X166406211Y-90170000D01*
X166841789Y-90170000D01*
X167438883Y-90767094D01*
X167583600Y-90676836D01*
X167664041Y-90479888D01*
X167704513Y-90271031D01*
X167703488Y-90063629D01*
X168084000Y-90063629D01*
X168084000Y-90276371D01*
X168125503Y-90485024D01*
X168206916Y-90681572D01*
X168325109Y-90858460D01*
X168475540Y-91008891D01*
X168652428Y-91127084D01*
X168848976Y-91208497D01*
X169057629Y-91250000D01*
X169270371Y-91250000D01*
X169479024Y-91208497D01*
X169675572Y-91127084D01*
X169852460Y-91008891D01*
X170002891Y-90858460D01*
X170121084Y-90681572D01*
X170202497Y-90485024D01*
X170244000Y-90276371D01*
X170244000Y-90063629D01*
X170624000Y-90063629D01*
X170624000Y-90276371D01*
X170665503Y-90485024D01*
X170746916Y-90681572D01*
X170865109Y-90858460D01*
X171015540Y-91008891D01*
X171192428Y-91127084D01*
X171388976Y-91208497D01*
X171597629Y-91250000D01*
X171810371Y-91250000D01*
X172019024Y-91208497D01*
X172215572Y-91127084D01*
X172392460Y-91008891D01*
X172542891Y-90858460D01*
X172661084Y-90681572D01*
X172742497Y-90485024D01*
X172784000Y-90276371D01*
X172784000Y-90063629D01*
X173164000Y-90063629D01*
X173164000Y-90276371D01*
X173205503Y-90485024D01*
X173286916Y-90681572D01*
X173405109Y-90858460D01*
X173555540Y-91008891D01*
X173732428Y-91127084D01*
X173928976Y-91208497D01*
X174137629Y-91250000D01*
X174350371Y-91250000D01*
X174559024Y-91208497D01*
X174755572Y-91127084D01*
X174932460Y-91008891D01*
X175082891Y-90858460D01*
X175201084Y-90681572D01*
X175282497Y-90485024D01*
X175324000Y-90276371D01*
X175324000Y-90063629D01*
X175282497Y-89854976D01*
X175201084Y-89658428D01*
X175082891Y-89481540D01*
X174932460Y-89331109D01*
X174755572Y-89212916D01*
X174559024Y-89131503D01*
X174350371Y-89090000D01*
X174137629Y-89090000D01*
X173928976Y-89131503D01*
X173732428Y-89212916D01*
X173555540Y-89331109D01*
X173405109Y-89481540D01*
X173286916Y-89658428D01*
X173205503Y-89854976D01*
X173164000Y-90063629D01*
X172784000Y-90063629D01*
X172742497Y-89854976D01*
X172661084Y-89658428D01*
X172542891Y-89481540D01*
X172392460Y-89331109D01*
X172215572Y-89212916D01*
X172019024Y-89131503D01*
X171810371Y-89090000D01*
X171597629Y-89090000D01*
X171388976Y-89131503D01*
X171192428Y-89212916D01*
X171015540Y-89331109D01*
X170865109Y-89481540D01*
X170746916Y-89658428D01*
X170665503Y-89854976D01*
X170624000Y-90063629D01*
X170244000Y-90063629D01*
X170202497Y-89854976D01*
X170121084Y-89658428D01*
X170002891Y-89481540D01*
X169852460Y-89331109D01*
X169675572Y-89212916D01*
X169479024Y-89131503D01*
X169270371Y-89090000D01*
X169057629Y-89090000D01*
X168848976Y-89131503D01*
X168652428Y-89212916D01*
X168475540Y-89331109D01*
X168325109Y-89481540D01*
X168206916Y-89658428D01*
X168125503Y-89854976D01*
X168084000Y-90063629D01*
X167703488Y-90063629D01*
X167703461Y-90058292D01*
X167660927Y-89849846D01*
X167583600Y-89663164D01*
X167438883Y-89572906D01*
X166841789Y-90170000D01*
X166406211Y-90170000D01*
X165809117Y-89572906D01*
X165664400Y-89663164D01*
X165583959Y-89860112D01*
X165543487Y-90068969D01*
X165164000Y-90068969D01*
X165164000Y-90063629D01*
X165122497Y-89854976D01*
X165041084Y-89658428D01*
X164922891Y-89481540D01*
X164796468Y-89355117D01*
X166026906Y-89355117D01*
X166624000Y-89952211D01*
X167221094Y-89355117D01*
X167130836Y-89210400D01*
X166933888Y-89129959D01*
X166725031Y-89089487D01*
X166512292Y-89090539D01*
X166303846Y-89133073D01*
X166117164Y-89210400D01*
X166026906Y-89355117D01*
X164796468Y-89355117D01*
X164772460Y-89331109D01*
X164595572Y-89212916D01*
X164399024Y-89131503D01*
X164190371Y-89090000D01*
X163977629Y-89090000D01*
X163768976Y-89131503D01*
X163572428Y-89212916D01*
X163395540Y-89331109D01*
X163245109Y-89481540D01*
X163126916Y-89658428D01*
X163045503Y-89854976D01*
X163004000Y-90063629D01*
X162624000Y-90063629D01*
X162582497Y-89854976D01*
X162501084Y-89658428D01*
X162382891Y-89481540D01*
X162232460Y-89331109D01*
X162055572Y-89212916D01*
X161859024Y-89131503D01*
X161650371Y-89090000D01*
X161437629Y-89090000D01*
X161228976Y-89131503D01*
X161032428Y-89212916D01*
X160855540Y-89331109D01*
X160705109Y-89481540D01*
X160586916Y-89658428D01*
X160505503Y-89854976D01*
X160464000Y-90063629D01*
X160084000Y-90063629D01*
X160042497Y-89854976D01*
X159961084Y-89658428D01*
X159842891Y-89481540D01*
X159692460Y-89331109D01*
X159515572Y-89212916D01*
X159319024Y-89131503D01*
X159110371Y-89090000D01*
X158897629Y-89090000D01*
X158688976Y-89131503D01*
X158492428Y-89212916D01*
X158315540Y-89331109D01*
X158165109Y-89481540D01*
X158046916Y-89658428D01*
X157965503Y-89854976D01*
X157924000Y-90063629D01*
X157544000Y-90063629D01*
X157502497Y-89854976D01*
X157421084Y-89658428D01*
X157302891Y-89481540D01*
X157152460Y-89331109D01*
X156975572Y-89212916D01*
X156779024Y-89131503D01*
X156570371Y-89090000D01*
X156357629Y-89090000D01*
X156148976Y-89131503D01*
X155952428Y-89212916D01*
X155775540Y-89331109D01*
X155625109Y-89481540D01*
X155506916Y-89658428D01*
X155425503Y-89854976D01*
X155384000Y-90063629D01*
X155004000Y-90063629D01*
X154962497Y-89854976D01*
X154881084Y-89658428D01*
X154762891Y-89481540D01*
X154612460Y-89331109D01*
X154435572Y-89212916D01*
X154239024Y-89131503D01*
X154030371Y-89090000D01*
X153817629Y-89090000D01*
X153608976Y-89131503D01*
X153412428Y-89212916D01*
X153235540Y-89331109D01*
X153085109Y-89481540D01*
X152966916Y-89658428D01*
X152885503Y-89854976D01*
X152844000Y-90063629D01*
X152463488Y-90063629D01*
X152463461Y-90058292D01*
X152420927Y-89849846D01*
X152343600Y-89663164D01*
X152198883Y-89572906D01*
X151601789Y-90170000D01*
X151166211Y-90170000D01*
X150569117Y-89572906D01*
X150424400Y-89663164D01*
X150343959Y-89860112D01*
X150303487Y-90068969D01*
X126592000Y-90068969D01*
X126592000Y-89355117D01*
X150786906Y-89355117D01*
X151384000Y-89952211D01*
X151981094Y-89355117D01*
X151890836Y-89210400D01*
X151693888Y-89129959D01*
X151485031Y-89089487D01*
X151272292Y-89090539D01*
X151063846Y-89133073D01*
X150877164Y-89210400D01*
X150786906Y-89355117D01*
X126592000Y-89355117D01*
X126592000Y-88138000D01*
X126590079Y-88118491D01*
X126584388Y-88099732D01*
X126575147Y-88082443D01*
X126562711Y-88067289D01*
X126547557Y-88054853D01*
X126530268Y-88045612D01*
X126511509Y-88039921D01*
X126492000Y-88038000D01*
X120824443Y-88038000D01*
X120824470Y-86956000D01*
X150232548Y-86956000D01*
X150238340Y-87014810D01*
X150255495Y-87071361D01*
X150283352Y-87123478D01*
X150320841Y-87169159D01*
X150366522Y-87206648D01*
X150418639Y-87234505D01*
X150475190Y-87251660D01*
X150534000Y-87257452D01*
X151155000Y-87256000D01*
X151230000Y-87181000D01*
X151230000Y-86260000D01*
X151538000Y-86260000D01*
X151538000Y-87181000D01*
X151613000Y-87256000D01*
X152234000Y-87257452D01*
X152292810Y-87251660D01*
X152349361Y-87234505D01*
X152401478Y-87206648D01*
X152447159Y-87169159D01*
X152484648Y-87123478D01*
X152512505Y-87071361D01*
X152529660Y-87014810D01*
X152535452Y-86956000D01*
X152534000Y-86335000D01*
X152459000Y-86260000D01*
X151538000Y-86260000D01*
X151230000Y-86260000D01*
X150309000Y-86260000D01*
X150234000Y-86335000D01*
X150232548Y-86956000D01*
X120824470Y-86956000D01*
X120824491Y-86106000D01*
X152768436Y-86106000D01*
X152790640Y-86331439D01*
X152856398Y-86548215D01*
X152963184Y-86747997D01*
X153106893Y-86923107D01*
X153282003Y-87066816D01*
X153481785Y-87173602D01*
X153698561Y-87239360D01*
X153867508Y-87256000D01*
X153980492Y-87256000D01*
X154149439Y-87239360D01*
X154366215Y-87173602D01*
X154565997Y-87066816D01*
X154741107Y-86923107D01*
X154884816Y-86747997D01*
X154991602Y-86548215D01*
X155057360Y-86331439D01*
X155079564Y-86106000D01*
X155308436Y-86106000D01*
X155330640Y-86331439D01*
X155396398Y-86548215D01*
X155503184Y-86747997D01*
X155646893Y-86923107D01*
X155822003Y-87066816D01*
X156021785Y-87173602D01*
X156238561Y-87239360D01*
X156407508Y-87256000D01*
X156520492Y-87256000D01*
X156689439Y-87239360D01*
X156906215Y-87173602D01*
X157105997Y-87066816D01*
X157281107Y-86923107D01*
X157424816Y-86747997D01*
X157531602Y-86548215D01*
X157597360Y-86331439D01*
X157619564Y-86106000D01*
X157848436Y-86106000D01*
X157870640Y-86331439D01*
X157936398Y-86548215D01*
X158043184Y-86747997D01*
X158186893Y-86923107D01*
X158362003Y-87066816D01*
X158561785Y-87173602D01*
X158778561Y-87239360D01*
X158947508Y-87256000D01*
X159060492Y-87256000D01*
X159229439Y-87239360D01*
X159446215Y-87173602D01*
X159645997Y-87066816D01*
X159821107Y-86923107D01*
X159964816Y-86747997D01*
X160071602Y-86548215D01*
X160137360Y-86331439D01*
X160159564Y-86106000D01*
X160137360Y-85880561D01*
X160071602Y-85663785D01*
X159964816Y-85464003D01*
X159821107Y-85288893D01*
X159645997Y-85145184D01*
X159446215Y-85038398D01*
X159229439Y-84972640D01*
X159060492Y-84956000D01*
X158947508Y-84956000D01*
X158778561Y-84972640D01*
X158561785Y-85038398D01*
X158362003Y-85145184D01*
X158186893Y-85288893D01*
X158043184Y-85464003D01*
X157936398Y-85663785D01*
X157870640Y-85880561D01*
X157848436Y-86106000D01*
X157619564Y-86106000D01*
X157597360Y-85880561D01*
X157531602Y-85663785D01*
X157424816Y-85464003D01*
X157281107Y-85288893D01*
X157105997Y-85145184D01*
X156906215Y-85038398D01*
X156689439Y-84972640D01*
X156520492Y-84956000D01*
X156407508Y-84956000D01*
X156238561Y-84972640D01*
X156021785Y-85038398D01*
X155822003Y-85145184D01*
X155646893Y-85288893D01*
X155503184Y-85464003D01*
X155396398Y-85663785D01*
X155330640Y-85880561D01*
X155308436Y-86106000D01*
X155079564Y-86106000D01*
X155057360Y-85880561D01*
X154991602Y-85663785D01*
X154884816Y-85464003D01*
X154741107Y-85288893D01*
X154565997Y-85145184D01*
X154366215Y-85038398D01*
X154149439Y-84972640D01*
X153980492Y-84956000D01*
X153867508Y-84956000D01*
X153698561Y-84972640D01*
X153481785Y-85038398D01*
X153282003Y-85145184D01*
X153106893Y-85288893D01*
X152963184Y-85464003D01*
X152856398Y-85663785D01*
X152790640Y-85880561D01*
X152768436Y-86106000D01*
X120824491Y-86106000D01*
X120824513Y-85256000D01*
X150232548Y-85256000D01*
X150234000Y-85877000D01*
X150309000Y-85952000D01*
X151230000Y-85952000D01*
X151230000Y-85031000D01*
X151538000Y-85031000D01*
X151538000Y-85952000D01*
X152459000Y-85952000D01*
X152534000Y-85877000D01*
X152535452Y-85256000D01*
X152529660Y-85197190D01*
X152512505Y-85140639D01*
X152484648Y-85088522D01*
X152447159Y-85042841D01*
X152401478Y-85005352D01*
X152349361Y-84977495D01*
X152292810Y-84960340D01*
X152234000Y-84954548D01*
X151613000Y-84956000D01*
X151538000Y-85031000D01*
X151230000Y-85031000D01*
X151155000Y-84956000D01*
X150534000Y-84954548D01*
X150475190Y-84960340D01*
X150418639Y-84977495D01*
X150366522Y-85005352D01*
X150320841Y-85042841D01*
X150283352Y-85088522D01*
X150255495Y-85140639D01*
X150238340Y-85197190D01*
X150232548Y-85256000D01*
X120824513Y-85256000D01*
X120824585Y-82446584D01*
X185640000Y-82446584D01*
X185640000Y-82653416D01*
X185680350Y-82856274D01*
X185759502Y-83047362D01*
X185874411Y-83219336D01*
X186020664Y-83365589D01*
X186192638Y-83480498D01*
X186383726Y-83559650D01*
X186586584Y-83600000D01*
X186793416Y-83600000D01*
X186996274Y-83559650D01*
X187187362Y-83480498D01*
X187359336Y-83365589D01*
X187505589Y-83219336D01*
X187620498Y-83047362D01*
X187699650Y-82856274D01*
X187740000Y-82653416D01*
X187740000Y-82446584D01*
X187699650Y-82243726D01*
X187620498Y-82052638D01*
X187505589Y-81880664D01*
X187359336Y-81734411D01*
X187187362Y-81619502D01*
X186996274Y-81540350D01*
X186793416Y-81500000D01*
X186586584Y-81500000D01*
X186383726Y-81540350D01*
X186192638Y-81619502D01*
X186020664Y-81734411D01*
X185874411Y-81880664D01*
X185759502Y-82052638D01*
X185680350Y-82243726D01*
X185640000Y-82446584D01*
X120824585Y-82446584D01*
X120824650Y-79906584D01*
X185640000Y-79906584D01*
X185640000Y-80113416D01*
X185680350Y-80316274D01*
X185759502Y-80507362D01*
X185874411Y-80679336D01*
X186020664Y-80825589D01*
X186192638Y-80940498D01*
X186383726Y-81019650D01*
X186586584Y-81060000D01*
X186793416Y-81060000D01*
X186996274Y-81019650D01*
X187187362Y-80940498D01*
X187359336Y-80825589D01*
X187505589Y-80679336D01*
X187620498Y-80507362D01*
X187699650Y-80316274D01*
X187740000Y-80113416D01*
X187740000Y-79906584D01*
X187699650Y-79703726D01*
X187620498Y-79512638D01*
X187505589Y-79340664D01*
X187359336Y-79194411D01*
X187187362Y-79079502D01*
X186996274Y-79000350D01*
X186793416Y-78960000D01*
X186586584Y-78960000D01*
X186383726Y-79000350D01*
X186192638Y-79079502D01*
X186020664Y-79194411D01*
X185874411Y-79340664D01*
X185759502Y-79512638D01*
X185680350Y-79703726D01*
X185640000Y-79906584D01*
X120824650Y-79906584D01*
X120824715Y-77366584D01*
X185640000Y-77366584D01*
X185640000Y-77573416D01*
X185680350Y-77776274D01*
X185759502Y-77967362D01*
X185874411Y-78139336D01*
X186020664Y-78285589D01*
X186192638Y-78400498D01*
X186383726Y-78479650D01*
X186586584Y-78520000D01*
X186793416Y-78520000D01*
X186996274Y-78479650D01*
X187187362Y-78400498D01*
X187359336Y-78285589D01*
X187505589Y-78139336D01*
X187620498Y-77967362D01*
X187699650Y-77776274D01*
X187740000Y-77573416D01*
X187740000Y-77366584D01*
X187699650Y-77163726D01*
X187620498Y-76972638D01*
X187505589Y-76800664D01*
X187359336Y-76654411D01*
X187187362Y-76539502D01*
X186996274Y-76460350D01*
X186793416Y-76420000D01*
X186586584Y-76420000D01*
X186383726Y-76460350D01*
X186192638Y-76539502D01*
X186020664Y-76654411D01*
X185874411Y-76800664D01*
X185759502Y-76972638D01*
X185680350Y-77163726D01*
X185640000Y-77366584D01*
X120824715Y-77366584D01*
X120824882Y-70862866D01*
X129525000Y-70862866D01*
X129525000Y-71237134D01*
X129598016Y-71604209D01*
X129741242Y-71949987D01*
X129949174Y-72261179D01*
X130213821Y-72525826D01*
X130525013Y-72733758D01*
X130870791Y-72876984D01*
X131237866Y-72950000D01*
X131612134Y-72950000D01*
X131979209Y-72876984D01*
X132324987Y-72733758D01*
X132636179Y-72525826D01*
X132900826Y-72261179D01*
X133108758Y-71949987D01*
X133251984Y-71604209D01*
X133325000Y-71237134D01*
X133325000Y-70862866D01*
X133251984Y-70495791D01*
X133108758Y-70150013D01*
X132900826Y-69838821D01*
X132636179Y-69574174D01*
X132324987Y-69366242D01*
X131979209Y-69223016D01*
X131612134Y-69150000D01*
X131237866Y-69150000D01*
X130870791Y-69223016D01*
X130525013Y-69366242D01*
X130213821Y-69574174D01*
X129949174Y-69838821D01*
X129741242Y-70150013D01*
X129598016Y-70495791D01*
X129525000Y-70862866D01*
X120824882Y-70862866D01*
X120824991Y-66641676D01*
X127655577Y-66197346D01*
X134866781Y-65879743D01*
X142050001Y-65713992D01*
X142050000Y-72852464D01*
X142050000Y-72852464D01*
G37*
X142050000Y-72852464D02*
X142050128Y-72853768D01*
X142050399Y-72892513D01*
X142052180Y-72909456D01*
X142052180Y-72926489D01*
X142052727Y-72931696D01*
X142139747Y-73707494D01*
X142146820Y-73740769D01*
X142153416Y-73774080D01*
X142154963Y-73779082D01*
X142391012Y-74523202D01*
X142404408Y-74554457D01*
X142417354Y-74585865D01*
X142419844Y-74590472D01*
X142795931Y-75274572D01*
X142815141Y-75302627D01*
X142833942Y-75330925D01*
X142837279Y-75334959D01*
X143339081Y-75932983D01*
X143363373Y-75956771D01*
X143387313Y-75980879D01*
X143391371Y-75984189D01*
X143999770Y-76473354D01*
X144028211Y-76491965D01*
X144056388Y-76510971D01*
X144061011Y-76513429D01*
X144752839Y-76875108D01*
X144784368Y-76887846D01*
X144815683Y-76901010D01*
X144820696Y-76902524D01*
X145569597Y-77122938D01*
X145602999Y-77129309D01*
X145636276Y-77136140D01*
X145641488Y-77136652D01*
X146418938Y-77207406D01*
X146452997Y-77207168D01*
X146486912Y-77207405D01*
X146492123Y-77206895D01*
X147268511Y-77125293D01*
X147301862Y-77118447D01*
X147335190Y-77112089D01*
X147340200Y-77110577D01*
X147340206Y-77110575D01*
X148085952Y-76879729D01*
X148117324Y-76866541D01*
X148148798Y-76853825D01*
X148153421Y-76851367D01*
X148840131Y-76480064D01*
X148868299Y-76461064D01*
X148896748Y-76442448D01*
X148900806Y-76439139D01*
X149502317Y-75941525D01*
X149526276Y-75917398D01*
X149550549Y-75893628D01*
X149553887Y-75889594D01*
X149689507Y-75723307D01*
X186114482Y-75723307D01*
X186201069Y-75864956D01*
X186392865Y-75942377D01*
X186596079Y-75980893D01*
X186802902Y-75979024D01*
X187005387Y-75936842D01*
X187178931Y-75864956D01*
X187265518Y-75723307D01*
X186690000Y-75147789D01*
X186114482Y-75723307D01*
X149689507Y-75723307D01*
X150047289Y-75284623D01*
X150066118Y-75256283D01*
X150085299Y-75228270D01*
X150087790Y-75223664D01*
X150293872Y-74836079D01*
X185639107Y-74836079D01*
X185640976Y-75042902D01*
X185683158Y-75245387D01*
X185755044Y-75418931D01*
X185896693Y-75505518D01*
X186472211Y-74930000D01*
X186907789Y-74930000D01*
X187483307Y-75505518D01*
X187624956Y-75418931D01*
X187702377Y-75227135D01*
X187740893Y-75023921D01*
X187739024Y-74817098D01*
X187696842Y-74614613D01*
X187624956Y-74441069D01*
X187483307Y-74354482D01*
X186907789Y-74930000D01*
X186472211Y-74930000D01*
X185896693Y-74354482D01*
X185755044Y-74441069D01*
X185677623Y-74632865D01*
X185639107Y-74836079D01*
X150293872Y-74836079D01*
X150454290Y-74534379D01*
X150467246Y-74502944D01*
X150480630Y-74471717D01*
X150482179Y-74466715D01*
X150581818Y-74136693D01*
X186114482Y-74136693D01*
X186690000Y-74712211D01*
X187265518Y-74136693D01*
X187178931Y-73995044D01*
X186987135Y-73917623D01*
X186783921Y-73879107D01*
X186577098Y-73880976D01*
X186374613Y-73923158D01*
X186201069Y-73995044D01*
X186114482Y-74136693D01*
X150581818Y-74136693D01*
X150707816Y-73719370D01*
X150714420Y-73686016D01*
X150721484Y-73652784D01*
X150722031Y-73647576D01*
X150739161Y-73472866D01*
X193680000Y-73472866D01*
X193680000Y-73847134D01*
X193753016Y-74214209D01*
X193896242Y-74559987D01*
X194104174Y-74871179D01*
X194368821Y-75135826D01*
X194680013Y-75343758D01*
X195025791Y-75486984D01*
X195392866Y-75560000D01*
X195767134Y-75560000D01*
X196134209Y-75486984D01*
X196479987Y-75343758D01*
X196791179Y-75135826D01*
X197055826Y-74871179D01*
X197263758Y-74559987D01*
X197406984Y-74214209D01*
X197480000Y-73847134D01*
X197480000Y-73472866D01*
X197406984Y-73105791D01*
X197263758Y-72760013D01*
X197055826Y-72448821D01*
X196791179Y-72184174D01*
X196479987Y-71976242D01*
X196134209Y-71833016D01*
X195767134Y-71760000D01*
X195392866Y-71760000D01*
X195025791Y-71833016D01*
X194680013Y-71976242D01*
X194368821Y-72184174D01*
X194104174Y-72448821D01*
X193896242Y-72760013D01*
X193753016Y-73105791D01*
X193680000Y-73472866D01*
X150739161Y-73472866D01*
X150798210Y-72870639D01*
X150800000Y-72852465D01*
X150800000Y-70862866D01*
X169525000Y-70862866D01*
X169525000Y-71237134D01*
X169598016Y-71604209D01*
X169741242Y-71949987D01*
X169949174Y-72261179D01*
X170213821Y-72525826D01*
X170525013Y-72733758D01*
X170870791Y-72876984D01*
X171237866Y-72950000D01*
X171612134Y-72950000D01*
X171979209Y-72876984D01*
X172324987Y-72733758D01*
X172636179Y-72525826D01*
X172900826Y-72261179D01*
X173108758Y-71949987D01*
X173251984Y-71604209D01*
X173325000Y-71237134D01*
X173325000Y-70862866D01*
X173251984Y-70495791D01*
X173108758Y-70150013D01*
X172900826Y-69838821D01*
X172636179Y-69574174D01*
X172324987Y-69366242D01*
X171979209Y-69223016D01*
X171612134Y-69150000D01*
X171237866Y-69150000D01*
X170870791Y-69223016D01*
X170525013Y-69366242D01*
X170213821Y-69574174D01*
X169949174Y-69838821D01*
X169741242Y-70150013D01*
X169598016Y-70495791D01*
X169525000Y-70862866D01*
X150800000Y-70862866D01*
X150800000Y-65798592D01*
X157634440Y-65949423D01*
X164844215Y-66259705D01*
X172045917Y-66720908D01*
X179236351Y-67332829D01*
X186412449Y-68095205D01*
X193571639Y-69007781D01*
X198025001Y-69654863D01*
X198025001Y-89604426D01*
X197942891Y-89481540D01*
X197792460Y-89331109D01*
X197615572Y-89212916D01*
X197419024Y-89131503D01*
X197210371Y-89090000D01*
X196997629Y-89090000D01*
X196788976Y-89131503D01*
X196592428Y-89212916D01*
X196415540Y-89331109D01*
X196265109Y-89481540D01*
X196146916Y-89658428D01*
X196065503Y-89854976D01*
X196024000Y-90063629D01*
X196024000Y-90276371D01*
X196065503Y-90485024D01*
X196146916Y-90681572D01*
X196265109Y-90858460D01*
X196415540Y-91008891D01*
X196592428Y-91127084D01*
X196788976Y-91208497D01*
X196997629Y-91250000D01*
X197210371Y-91250000D01*
X197419024Y-91208497D01*
X197615572Y-91127084D01*
X197792460Y-91008891D01*
X197942891Y-90858460D01*
X198025001Y-90735574D01*
X198025000Y-115004425D01*
X197942891Y-114881540D01*
X197792460Y-114731109D01*
X197615572Y-114612916D01*
X197419024Y-114531503D01*
X197210371Y-114490000D01*
X196997629Y-114490000D01*
X196788976Y-114531503D01*
X196592428Y-114612916D01*
X196415540Y-114731109D01*
X196265109Y-114881540D01*
X196146916Y-115058428D01*
X196065503Y-115254976D01*
X196024000Y-115463629D01*
X196024000Y-115676371D01*
X196065503Y-115885024D01*
X196146916Y-116081572D01*
X196265109Y-116258460D01*
X196415540Y-116408891D01*
X196592428Y-116527084D01*
X196788976Y-116608497D01*
X196997629Y-116650000D01*
X197210371Y-116650000D01*
X197419024Y-116608497D01*
X197615572Y-116527084D01*
X197792460Y-116408891D01*
X197942891Y-116258460D01*
X198025000Y-116135575D01*
X198025000Y-122427177D01*
X197996898Y-122304851D01*
X197899722Y-122088503D01*
X197762206Y-121895270D01*
X197589634Y-121732578D01*
X197388638Y-121606679D01*
X197188273Y-121538666D01*
X197004000Y-121575590D01*
X197004000Y-123036000D01*
X197024000Y-123036000D01*
X197024000Y-123344000D01*
X197004000Y-123344000D01*
X197004000Y-124804410D01*
X197188273Y-124841334D01*
X197388638Y-124773321D01*
X197589634Y-124647422D01*
X197762206Y-124484730D01*
X197899722Y-124291497D01*
X197996898Y-124075149D01*
X198025000Y-123952823D01*
X198025000Y-128977967D01*
X191223468Y-129942382D01*
X184058838Y-130805641D01*
X176877674Y-131518668D01*
X169683164Y-132081148D01*
X162478465Y-132492833D01*
X155266079Y-132753567D01*
X150800000Y-132836773D01*
X150800000Y-127362866D01*
X169525000Y-127362866D01*
X169525000Y-127737134D01*
X169598016Y-128104209D01*
X169741242Y-128449987D01*
X169949174Y-128761179D01*
X170213821Y-129025826D01*
X170525013Y-129233758D01*
X170870791Y-129376984D01*
X171237866Y-129450000D01*
X171612134Y-129450000D01*
X171979209Y-129376984D01*
X172324987Y-129233758D01*
X172636179Y-129025826D01*
X172900826Y-128761179D01*
X173108758Y-128449987D01*
X173251984Y-128104209D01*
X173325000Y-127737134D01*
X173325000Y-127362866D01*
X173251984Y-126995791D01*
X173108758Y-126650013D01*
X172900826Y-126338821D01*
X172636179Y-126074174D01*
X172324987Y-125866242D01*
X171979209Y-125723016D01*
X171612134Y-125650000D01*
X171237866Y-125650000D01*
X170870791Y-125723016D01*
X170525013Y-125866242D01*
X170213821Y-126074174D01*
X169949174Y-126338821D01*
X169741242Y-126650013D01*
X169598016Y-126995791D01*
X169525000Y-127362866D01*
X150800000Y-127362866D01*
X150800000Y-125781581D01*
X150799872Y-125780277D01*
X150799601Y-125741532D01*
X150797820Y-125724589D01*
X150797820Y-125707557D01*
X150797273Y-125702350D01*
X150710253Y-124926552D01*
X150703181Y-124893283D01*
X150696584Y-124859966D01*
X150695036Y-124854964D01*
X150461259Y-124118000D01*
X175124549Y-124118000D01*
X175124549Y-125818000D01*
X175130341Y-125876810D01*
X175147496Y-125933360D01*
X175175353Y-125985477D01*
X175212842Y-126031158D01*
X175258523Y-126068647D01*
X175310640Y-126096504D01*
X175367190Y-126113659D01*
X175426000Y-126119451D01*
X177126000Y-126119451D01*
X177184810Y-126113659D01*
X177241360Y-126096504D01*
X177293477Y-126068647D01*
X177339158Y-126031158D01*
X177376647Y-125985477D01*
X177404504Y-125933360D01*
X177421659Y-125876810D01*
X177427451Y-125818000D01*
X177427451Y-125031500D01*
X180581436Y-125031500D01*
X180603640Y-125256939D01*
X180669398Y-125473715D01*
X180776184Y-125673497D01*
X180919893Y-125848607D01*
X181095003Y-125992316D01*
X181294785Y-126099102D01*
X181511561Y-126164860D01*
X181680508Y-126181500D01*
X181793492Y-126181500D01*
X181962439Y-126164860D01*
X182179215Y-126099102D01*
X182378997Y-125992316D01*
X182554107Y-125848607D01*
X182697816Y-125673497D01*
X182804602Y-125473715D01*
X182870360Y-125256939D01*
X182892564Y-125031500D01*
X182870360Y-124806061D01*
X182804602Y-124589285D01*
X182697816Y-124389503D01*
X182554107Y-124214393D01*
X182378997Y-124070684D01*
X182179215Y-123963898D01*
X181962439Y-123898140D01*
X181793492Y-123881500D01*
X181680508Y-123881500D01*
X181511561Y-123898140D01*
X181294785Y-123963898D01*
X181095003Y-124070684D01*
X180919893Y-124214393D01*
X180776184Y-124389503D01*
X180669398Y-124589285D01*
X180603640Y-124806061D01*
X180581436Y-125031500D01*
X177427451Y-125031500D01*
X177427451Y-124118000D01*
X177421659Y-124059190D01*
X177404504Y-124002640D01*
X177376647Y-123950523D01*
X177339158Y-123904842D01*
X177293477Y-123867353D01*
X177241360Y-123839496D01*
X177184810Y-123822341D01*
X177126000Y-123816549D01*
X175426000Y-123816549D01*
X175367190Y-123822341D01*
X175310640Y-123839496D01*
X175258523Y-123867353D01*
X175212842Y-123904842D01*
X175175353Y-123950523D01*
X175147496Y-124002640D01*
X175130341Y-124059190D01*
X175124549Y-124118000D01*
X150461259Y-124118000D01*
X150458988Y-124110843D01*
X150445576Y-124079551D01*
X150432646Y-124048181D01*
X150430156Y-124043575D01*
X150430156Y-124043574D01*
X150430153Y-124043570D01*
X150054069Y-123359474D01*
X150034847Y-123331402D01*
X150016058Y-123303122D01*
X150012721Y-123299087D01*
X149510920Y-122701064D01*
X149486608Y-122677256D01*
X149462686Y-122653167D01*
X149458629Y-122649857D01*
X148850229Y-122160691D01*
X148821780Y-122142075D01*
X148793612Y-122123075D01*
X148788989Y-122120617D01*
X148097162Y-121758939D01*
X148065640Y-121746203D01*
X148034317Y-121733036D01*
X148029304Y-121731522D01*
X147280403Y-121511108D01*
X147247001Y-121504737D01*
X147213724Y-121497906D01*
X147208513Y-121497394D01*
X146431062Y-121426640D01*
X146397004Y-121426878D01*
X146363088Y-121426641D01*
X146357877Y-121427151D01*
X145581490Y-121508753D01*
X145548146Y-121515598D01*
X145514810Y-121521957D01*
X145509797Y-121523470D01*
X144764048Y-121754318D01*
X144732709Y-121767492D01*
X144701202Y-121780221D01*
X144696579Y-121782679D01*
X144009869Y-122153982D01*
X143981686Y-122172992D01*
X143953252Y-122191598D01*
X143949194Y-122194907D01*
X143347683Y-122692520D01*
X143323707Y-122716665D01*
X143299450Y-122740418D01*
X143296112Y-122744452D01*
X142802711Y-123349423D01*
X142783892Y-123377747D01*
X142764701Y-123405776D01*
X142762210Y-123410382D01*
X142395711Y-124099666D01*
X142382757Y-124131095D01*
X142369370Y-124162329D01*
X142367821Y-124167331D01*
X142142184Y-124914676D01*
X142135580Y-124948030D01*
X142128516Y-124981262D01*
X142127969Y-124986469D01*
X142051793Y-125763377D01*
X142050000Y-125781582D01*
X142050001Y-132916632D01*
X135212917Y-132765743D01*
X128001446Y-132455389D01*
X120823318Y-131995695D01*
X120823436Y-127362866D01*
X129525000Y-127362866D01*
X129525000Y-127737134D01*
X129598016Y-128104209D01*
X129741242Y-128449987D01*
X129949174Y-128761179D01*
X130213821Y-129025826D01*
X130525013Y-129233758D01*
X130870791Y-129376984D01*
X131237866Y-129450000D01*
X131612134Y-129450000D01*
X131979209Y-129376984D01*
X132324987Y-129233758D01*
X132636179Y-129025826D01*
X132900826Y-128761179D01*
X133108758Y-128449987D01*
X133251984Y-128104209D01*
X133325000Y-127737134D01*
X133325000Y-127362866D01*
X133251984Y-126995791D01*
X133108758Y-126650013D01*
X132900826Y-126338821D01*
X132636179Y-126074174D01*
X132324987Y-125866242D01*
X131979209Y-125723016D01*
X131612134Y-125650000D01*
X131237866Y-125650000D01*
X130870791Y-125723016D01*
X130525013Y-125866242D01*
X130213821Y-126074174D01*
X129949174Y-126338821D01*
X129741242Y-126650013D01*
X129598016Y-126995791D01*
X129525000Y-127362866D01*
X120823436Y-127362866D01*
X120824142Y-99753056D01*
X148017000Y-99753056D01*
X148017000Y-99890944D01*
X148043901Y-100026182D01*
X148096668Y-100153574D01*
X148167000Y-100258834D01*
X148167001Y-114155982D01*
X148164340Y-114183000D01*
X148174959Y-114290818D01*
X148206409Y-114394494D01*
X148257479Y-114490042D01*
X148308987Y-114552804D01*
X148308993Y-114552810D01*
X148326211Y-114573790D01*
X148347191Y-114591008D01*
X149695992Y-115939810D01*
X149713210Y-115960790D01*
X149734190Y-115978008D01*
X149734195Y-115978013D01*
X149786097Y-116020607D01*
X149796958Y-116029521D01*
X149892506Y-116080592D01*
X149996181Y-116112042D01*
X150076982Y-116120000D01*
X150076991Y-116120000D01*
X150103999Y-116122660D01*
X150131007Y-116120000D01*
X150302549Y-116120000D01*
X150302549Y-116350000D01*
X150308341Y-116408810D01*
X150325496Y-116465360D01*
X150353353Y-116517477D01*
X150390842Y-116563158D01*
X150436523Y-116600647D01*
X150488640Y-116628504D01*
X150545190Y-116645659D01*
X150604000Y-116651451D01*
X150959000Y-116651451D01*
X150959001Y-118574823D01*
X150874030Y-118631599D01*
X150762599Y-118743030D01*
X150675049Y-118874058D01*
X150614743Y-119019649D01*
X150584000Y-119174207D01*
X150584000Y-119331793D01*
X150614743Y-119486351D01*
X150675049Y-119631942D01*
X150762599Y-119762970D01*
X150874030Y-119874401D01*
X151005058Y-119961951D01*
X151150649Y-120022257D01*
X151305207Y-120053000D01*
X151462793Y-120053000D01*
X151617351Y-120022257D01*
X151762942Y-119961951D01*
X151893970Y-119874401D01*
X152005401Y-119762970D01*
X152092951Y-119631942D01*
X152153257Y-119486351D01*
X152184000Y-119331793D01*
X152184000Y-119174207D01*
X152153257Y-119019649D01*
X152092951Y-118874058D01*
X152005401Y-118743030D01*
X151893970Y-118631599D01*
X151809000Y-118574824D01*
X151809000Y-116651451D01*
X152164000Y-116651451D01*
X152222810Y-116645659D01*
X152279360Y-116628504D01*
X152331477Y-116600647D01*
X152377158Y-116563158D01*
X152414647Y-116517477D01*
X152442504Y-116465360D01*
X152459659Y-116408810D01*
X152465451Y-116350000D01*
X152465451Y-115463629D01*
X152844000Y-115463629D01*
X152844000Y-115676371D01*
X152885503Y-115885024D01*
X152966916Y-116081572D01*
X153085109Y-116258460D01*
X153235540Y-116408891D01*
X153412428Y-116527084D01*
X153608976Y-116608497D01*
X153817629Y-116650000D01*
X154030371Y-116650000D01*
X154239024Y-116608497D01*
X154435572Y-116527084D01*
X154612460Y-116408891D01*
X154762891Y-116258460D01*
X154881084Y-116081572D01*
X154962497Y-115885024D01*
X155004000Y-115676371D01*
X155004000Y-115463629D01*
X155384000Y-115463629D01*
X155384000Y-115676371D01*
X155425503Y-115885024D01*
X155506916Y-116081572D01*
X155625109Y-116258460D01*
X155775540Y-116408891D01*
X155952428Y-116527084D01*
X156148976Y-116608497D01*
X156357629Y-116650000D01*
X156570371Y-116650000D01*
X156779024Y-116608497D01*
X156975572Y-116527084D01*
X157152460Y-116408891D01*
X157302891Y-116258460D01*
X157421084Y-116081572D01*
X157502497Y-115885024D01*
X157544000Y-115676371D01*
X157544000Y-115463629D01*
X157924000Y-115463629D01*
X157924000Y-115676371D01*
X157965503Y-115885024D01*
X158046916Y-116081572D01*
X158165109Y-116258460D01*
X158315540Y-116408891D01*
X158492428Y-116527084D01*
X158688976Y-116608497D01*
X158897629Y-116650000D01*
X159110371Y-116650000D01*
X159319024Y-116608497D01*
X159515572Y-116527084D01*
X159692460Y-116408891D01*
X159716468Y-116384883D01*
X160946906Y-116384883D01*
X161037164Y-116529600D01*
X161234112Y-116610041D01*
X161442969Y-116650513D01*
X161655708Y-116649461D01*
X161864154Y-116606927D01*
X162050836Y-116529600D01*
X162141094Y-116384883D01*
X161544000Y-115787789D01*
X160946906Y-116384883D01*
X159716468Y-116384883D01*
X159842891Y-116258460D01*
X159961084Y-116081572D01*
X160042497Y-115885024D01*
X160084000Y-115676371D01*
X160084000Y-115468969D01*
X160463487Y-115468969D01*
X160464539Y-115681708D01*
X160507073Y-115890154D01*
X160584400Y-116076836D01*
X160729117Y-116167094D01*
X161326211Y-115570000D01*
X161761789Y-115570000D01*
X162358883Y-116167094D01*
X162503600Y-116076836D01*
X162584041Y-115879888D01*
X162624513Y-115671031D01*
X162623488Y-115463629D01*
X163004000Y-115463629D01*
X163004000Y-115676371D01*
X163045503Y-115885024D01*
X163126916Y-116081572D01*
X163245109Y-116258460D01*
X163395540Y-116408891D01*
X163572428Y-116527084D01*
X163768976Y-116608497D01*
X163977629Y-116650000D01*
X164190371Y-116650000D01*
X164399024Y-116608497D01*
X164595572Y-116527084D01*
X164772460Y-116408891D01*
X164922891Y-116258460D01*
X165041084Y-116081572D01*
X165122497Y-115885024D01*
X165164000Y-115676371D01*
X165164000Y-115463629D01*
X165544000Y-115463629D01*
X165544000Y-115676371D01*
X165585503Y-115885024D01*
X165666916Y-116081572D01*
X165785109Y-116258460D01*
X165935540Y-116408891D01*
X166112428Y-116527084D01*
X166199000Y-116562943D01*
X166199001Y-119965092D01*
X166177776Y-119979274D01*
X166080274Y-120076776D01*
X166003668Y-120191426D01*
X165950901Y-120318818D01*
X165924000Y-120454056D01*
X165924000Y-120591944D01*
X165950901Y-120727182D01*
X166003668Y-120854574D01*
X166080274Y-120969224D01*
X166177776Y-121066726D01*
X166292426Y-121143332D01*
X166419818Y-121196099D01*
X166555056Y-121223000D01*
X166692944Y-121223000D01*
X166828182Y-121196099D01*
X166955574Y-121143332D01*
X167070224Y-121066726D01*
X167167726Y-120969224D01*
X167244332Y-120854574D01*
X167297099Y-120727182D01*
X167324000Y-120591944D01*
X167324000Y-120454056D01*
X167297099Y-120318818D01*
X167244332Y-120191426D01*
X167167726Y-120076776D01*
X167070224Y-119979274D01*
X167049000Y-119965093D01*
X167049000Y-116562943D01*
X167135572Y-116527084D01*
X167312460Y-116408891D01*
X167462891Y-116258460D01*
X167581084Y-116081572D01*
X167662497Y-115885024D01*
X167704000Y-115676371D01*
X167704000Y-115463629D01*
X168084000Y-115463629D01*
X168084000Y-115676371D01*
X168125503Y-115885024D01*
X168206916Y-116081572D01*
X168325109Y-116258460D01*
X168475540Y-116408891D01*
X168652428Y-116527084D01*
X168848976Y-116608497D01*
X169057629Y-116650000D01*
X169270371Y-116650000D01*
X169479024Y-116608497D01*
X169565597Y-116572637D01*
X170372719Y-117379760D01*
X170386026Y-117395974D01*
X170450740Y-117449084D01*
X170524573Y-117488548D01*
X170580383Y-117505478D01*
X170604685Y-117512850D01*
X170613098Y-117513679D01*
X170667126Y-117519000D01*
X170667132Y-117519000D01*
X170687999Y-117521055D01*
X170708866Y-117519000D01*
X173305960Y-117519000D01*
X175216878Y-119429919D01*
X175208398Y-119445785D01*
X175142640Y-119662561D01*
X175120436Y-119888000D01*
X175142640Y-120113439D01*
X175208398Y-120330215D01*
X175315184Y-120529997D01*
X175458893Y-120705107D01*
X175634003Y-120848816D01*
X175833785Y-120955602D01*
X176050561Y-121021360D01*
X176219508Y-121038000D01*
X176332492Y-121038000D01*
X176501439Y-121021360D01*
X176718215Y-120955602D01*
X176917997Y-120848816D01*
X177093107Y-120705107D01*
X177236816Y-120529997D01*
X177343602Y-120330215D01*
X177409360Y-120113439D01*
X177431564Y-119888000D01*
X177409360Y-119662561D01*
X177343602Y-119445785D01*
X177236816Y-119246003D01*
X177093107Y-119070893D01*
X176917997Y-118927184D01*
X176718215Y-118820398D01*
X176501439Y-118754640D01*
X176332492Y-118738000D01*
X176219508Y-118738000D01*
X176050561Y-118754640D01*
X175833785Y-118820398D01*
X175817919Y-118828878D01*
X173797283Y-116808243D01*
X173783974Y-116792026D01*
X173719260Y-116738916D01*
X173645427Y-116699452D01*
X173565314Y-116675150D01*
X173502874Y-116669000D01*
X173502867Y-116669000D01*
X173482000Y-116666945D01*
X173461133Y-116669000D01*
X170864041Y-116669000D01*
X170166637Y-115971597D01*
X170202497Y-115885024D01*
X170244000Y-115676371D01*
X170244000Y-115463629D01*
X170624000Y-115463629D01*
X170624000Y-115676371D01*
X170665503Y-115885024D01*
X170746916Y-116081572D01*
X170865109Y-116258460D01*
X171015540Y-116408891D01*
X171192428Y-116527084D01*
X171388976Y-116608497D01*
X171597629Y-116650000D01*
X171810371Y-116650000D01*
X172019024Y-116608497D01*
X172215572Y-116527084D01*
X172392460Y-116408891D01*
X172542891Y-116258460D01*
X172661084Y-116081572D01*
X172742497Y-115885024D01*
X172784000Y-115676371D01*
X172784000Y-115463629D01*
X173164000Y-115463629D01*
X173164000Y-115676371D01*
X173205503Y-115885024D01*
X173286916Y-116081572D01*
X173405109Y-116258460D01*
X173555540Y-116408891D01*
X173732428Y-116527084D01*
X173928976Y-116608497D01*
X174137629Y-116650000D01*
X174350371Y-116650000D01*
X174559024Y-116608497D01*
X174755572Y-116527084D01*
X174932460Y-116408891D01*
X175082891Y-116258460D01*
X175201084Y-116081572D01*
X175282497Y-115885024D01*
X175324000Y-115676371D01*
X175324000Y-115463629D01*
X175282497Y-115254976D01*
X175201084Y-115058428D01*
X175082891Y-114881540D01*
X174932460Y-114731109D01*
X174755572Y-114612916D01*
X174559024Y-114531503D01*
X174350371Y-114490000D01*
X174137629Y-114490000D01*
X173928976Y-114531503D01*
X173732428Y-114612916D01*
X173555540Y-114731109D01*
X173405109Y-114881540D01*
X173286916Y-115058428D01*
X173205503Y-115254976D01*
X173164000Y-115463629D01*
X172784000Y-115463629D01*
X172742497Y-115254976D01*
X172661084Y-115058428D01*
X172542891Y-114881540D01*
X172392460Y-114731109D01*
X172215572Y-114612916D01*
X172019024Y-114531503D01*
X171810371Y-114490000D01*
X171597629Y-114490000D01*
X171388976Y-114531503D01*
X171192428Y-114612916D01*
X171015540Y-114731109D01*
X170865109Y-114881540D01*
X170746916Y-115058428D01*
X170665503Y-115254976D01*
X170624000Y-115463629D01*
X170244000Y-115463629D01*
X170202497Y-115254976D01*
X170121084Y-115058428D01*
X170002891Y-114881540D01*
X169852460Y-114731109D01*
X169675572Y-114612916D01*
X169479024Y-114531503D01*
X169270371Y-114490000D01*
X169057629Y-114490000D01*
X168848976Y-114531503D01*
X168652428Y-114612916D01*
X168475540Y-114731109D01*
X168325109Y-114881540D01*
X168206916Y-115058428D01*
X168125503Y-115254976D01*
X168084000Y-115463629D01*
X167704000Y-115463629D01*
X167662497Y-115254976D01*
X167581084Y-115058428D01*
X167462891Y-114881540D01*
X167312460Y-114731109D01*
X167135572Y-114612916D01*
X166939024Y-114531503D01*
X166730371Y-114490000D01*
X166517629Y-114490000D01*
X166308976Y-114531503D01*
X166112428Y-114612916D01*
X165935540Y-114731109D01*
X165785109Y-114881540D01*
X165666916Y-115058428D01*
X165585503Y-115254976D01*
X165544000Y-115463629D01*
X165164000Y-115463629D01*
X165122497Y-115254976D01*
X165086637Y-115168403D01*
X166546041Y-113709000D01*
X174599903Y-113709000D01*
X174620770Y-113711055D01*
X174641637Y-113709000D01*
X174641644Y-113709000D01*
X174704084Y-113702850D01*
X174784197Y-113678548D01*
X174858030Y-113639084D01*
X174922744Y-113585974D01*
X174936053Y-113569757D01*
X176359001Y-112146810D01*
X176359000Y-114577057D01*
X176272428Y-114612916D01*
X176095540Y-114731109D01*
X175945109Y-114881540D01*
X175826916Y-115058428D01*
X175745503Y-115254976D01*
X175704000Y-115463629D01*
X175704000Y-115676371D01*
X175745503Y-115885024D01*
X175826916Y-116081572D01*
X175945109Y-116258460D01*
X176095540Y-116408891D01*
X176272428Y-116527084D01*
X176468976Y-116608497D01*
X176677629Y-116650000D01*
X176890371Y-116650000D01*
X177099024Y-116608497D01*
X177295572Y-116527084D01*
X177472460Y-116408891D01*
X177622891Y-116258460D01*
X177741084Y-116081572D01*
X177822497Y-115885024D01*
X177864000Y-115676371D01*
X177864000Y-115463629D01*
X177822497Y-115254976D01*
X177741084Y-115058428D01*
X177622891Y-114881540D01*
X177472460Y-114731109D01*
X177295572Y-114612916D01*
X177209000Y-114577057D01*
X177209000Y-111933220D01*
X178899000Y-110243220D01*
X178899001Y-114577056D01*
X178812428Y-114612916D01*
X178635540Y-114731109D01*
X178485109Y-114881540D01*
X178366916Y-115058428D01*
X178285503Y-115254976D01*
X178244000Y-115463629D01*
X178244000Y-115676371D01*
X178285503Y-115885024D01*
X178366916Y-116081572D01*
X178485109Y-116258460D01*
X178635540Y-116408891D01*
X178812428Y-116527084D01*
X179008976Y-116608497D01*
X179217629Y-116650000D01*
X179430371Y-116650000D01*
X179639024Y-116608497D01*
X179835572Y-116527084D01*
X180012460Y-116408891D01*
X180162891Y-116258460D01*
X180169001Y-116249316D01*
X180169001Y-117933958D01*
X176734081Y-121368879D01*
X176718215Y-121360398D01*
X176501439Y-121294640D01*
X176332492Y-121278000D01*
X176219508Y-121278000D01*
X176050561Y-121294640D01*
X175833785Y-121360398D01*
X175634003Y-121467184D01*
X175458893Y-121610893D01*
X175315184Y-121786003D01*
X175208398Y-121985785D01*
X175142640Y-122202561D01*
X175120436Y-122428000D01*
X175142640Y-122653439D01*
X175208398Y-122870215D01*
X175315184Y-123069997D01*
X175458893Y-123245107D01*
X175634003Y-123388816D01*
X175833785Y-123495602D01*
X176050561Y-123561360D01*
X176219508Y-123578000D01*
X176332492Y-123578000D01*
X176501439Y-123561360D01*
X176718215Y-123495602D01*
X176917997Y-123388816D01*
X177093107Y-123245107D01*
X177236816Y-123069997D01*
X177343602Y-122870215D01*
X177358263Y-122821883D01*
X180635480Y-122821883D01*
X180637561Y-122828772D01*
X180724485Y-123036781D01*
X180850319Y-123223836D01*
X181010228Y-123382747D01*
X181198066Y-123507408D01*
X181406615Y-123593028D01*
X181583000Y-123556150D01*
X181583000Y-122645500D01*
X181891000Y-122645500D01*
X181891000Y-123556150D01*
X182067385Y-123593028D01*
X182275934Y-123507408D01*
X182463772Y-123382747D01*
X182623681Y-123223836D01*
X182749515Y-123036781D01*
X182836439Y-122828772D01*
X182838520Y-122821883D01*
X182800912Y-122645500D01*
X181891000Y-122645500D01*
X181583000Y-122645500D01*
X180673088Y-122645500D01*
X180635480Y-122821883D01*
X177358263Y-122821883D01*
X177409360Y-122653439D01*
X177431564Y-122428000D01*
X177409360Y-122202561D01*
X177396789Y-122161117D01*
X180635480Y-122161117D01*
X180673088Y-122337500D01*
X181583000Y-122337500D01*
X181583000Y-121426850D01*
X181891000Y-121426850D01*
X181891000Y-122337500D01*
X182800912Y-122337500D01*
X182838520Y-122161117D01*
X182836439Y-122154228D01*
X182749515Y-121946219D01*
X182623681Y-121759164D01*
X182463772Y-121600253D01*
X182275934Y-121475592D01*
X182067385Y-121389972D01*
X181891000Y-121426850D01*
X181583000Y-121426850D01*
X181406615Y-121389972D01*
X181198066Y-121475592D01*
X181010228Y-121600253D01*
X180850319Y-121759164D01*
X180724485Y-121946219D01*
X180637561Y-122154228D01*
X180635480Y-122161117D01*
X177396789Y-122161117D01*
X177343602Y-121985785D01*
X177335121Y-121969919D01*
X180203540Y-119101500D01*
X180585549Y-119101500D01*
X180585549Y-120801500D01*
X180591341Y-120860310D01*
X180608496Y-120916860D01*
X180636353Y-120968977D01*
X180673842Y-121014658D01*
X180719523Y-121052147D01*
X180771640Y-121080004D01*
X180828190Y-121097159D01*
X180887000Y-121102951D01*
X182587000Y-121102951D01*
X182645810Y-121097159D01*
X182702360Y-121080004D01*
X182754477Y-121052147D01*
X182800158Y-121014658D01*
X182837647Y-120968977D01*
X182865504Y-120916860D01*
X182882659Y-120860310D01*
X182888451Y-120801500D01*
X182888451Y-119101500D01*
X182882659Y-119042690D01*
X182865504Y-118986140D01*
X182837647Y-118934023D01*
X182800158Y-118888342D01*
X182754477Y-118850853D01*
X182702360Y-118822996D01*
X182645810Y-118805841D01*
X182587000Y-118800049D01*
X180887000Y-118800049D01*
X180828190Y-118805841D01*
X180771640Y-118822996D01*
X180719523Y-118850853D01*
X180673842Y-118888342D01*
X180636353Y-118934023D01*
X180608496Y-118986140D01*
X180591341Y-119042690D01*
X180585549Y-119101500D01*
X180203540Y-119101500D01*
X180879762Y-118425279D01*
X180895974Y-118411974D01*
X180949084Y-118347260D01*
X180988548Y-118273427D01*
X181012850Y-118193314D01*
X181019000Y-118130874D01*
X181019000Y-118130868D01*
X181021055Y-118110001D01*
X181019000Y-118089134D01*
X181019000Y-116249317D01*
X181025109Y-116258460D01*
X181175540Y-116408891D01*
X181352428Y-116527084D01*
X181548976Y-116608497D01*
X181757629Y-116650000D01*
X181970371Y-116650000D01*
X182179024Y-116608497D01*
X182375572Y-116527084D01*
X182552460Y-116408891D01*
X182576468Y-116384883D01*
X183806906Y-116384883D01*
X183897164Y-116529600D01*
X184094112Y-116610041D01*
X184302969Y-116650513D01*
X184515708Y-116649461D01*
X184724154Y-116606927D01*
X184910836Y-116529600D01*
X185001094Y-116384883D01*
X184404000Y-115787789D01*
X183806906Y-116384883D01*
X182576468Y-116384883D01*
X182702891Y-116258460D01*
X182821084Y-116081572D01*
X182902497Y-115885024D01*
X182944000Y-115676371D01*
X182944000Y-115468969D01*
X183323487Y-115468969D01*
X183324539Y-115681708D01*
X183367073Y-115890154D01*
X183444400Y-116076836D01*
X183589117Y-116167094D01*
X184186211Y-115570000D01*
X184621789Y-115570000D01*
X185218883Y-116167094D01*
X185363600Y-116076836D01*
X185444041Y-115879888D01*
X185484513Y-115671031D01*
X185483488Y-115463629D01*
X185864000Y-115463629D01*
X185864000Y-115676371D01*
X185905503Y-115885024D01*
X185986916Y-116081572D01*
X186105109Y-116258460D01*
X186255540Y-116408891D01*
X186432428Y-116527084D01*
X186519000Y-116562943D01*
X186519001Y-124313123D01*
X186516945Y-124334000D01*
X186525150Y-124417314D01*
X186545601Y-124484730D01*
X186549453Y-124497427D01*
X186588917Y-124571260D01*
X186642027Y-124635974D01*
X186658239Y-124649279D01*
X187484721Y-125475762D01*
X187498026Y-125491974D01*
X187562740Y-125545084D01*
X187610855Y-125570801D01*
X187636572Y-125584548D01*
X187716685Y-125608850D01*
X187724327Y-125609603D01*
X187750000Y-125612131D01*
X187750000Y-125748949D01*
X187767363Y-125925240D01*
X187835981Y-126151441D01*
X187947409Y-126359909D01*
X188097366Y-126542634D01*
X188280090Y-126692591D01*
X188488558Y-126804019D01*
X188714759Y-126872637D01*
X188950000Y-126895806D01*
X189185240Y-126872637D01*
X189411441Y-126804019D01*
X189619909Y-126692591D01*
X189802634Y-126542634D01*
X189952591Y-126359910D01*
X190064019Y-126151442D01*
X190132637Y-125925241D01*
X190150000Y-125748950D01*
X190150000Y-124631050D01*
X193250000Y-124631050D01*
X193250000Y-125748949D01*
X193267363Y-125925240D01*
X193335981Y-126151441D01*
X193447409Y-126359909D01*
X193597366Y-126542634D01*
X193780090Y-126692591D01*
X193988558Y-126804019D01*
X194214759Y-126872637D01*
X194450000Y-126895806D01*
X194685240Y-126872637D01*
X194911441Y-126804019D01*
X195119909Y-126692591D01*
X195302634Y-126542634D01*
X195452591Y-126359910D01*
X195564019Y-126151442D01*
X195632637Y-125925241D01*
X195650000Y-125748950D01*
X195650000Y-124631050D01*
X195632637Y-124454759D01*
X195564019Y-124228558D01*
X195452591Y-124020090D01*
X195302634Y-123837366D01*
X195119910Y-123687409D01*
X194911442Y-123575981D01*
X194685241Y-123507363D01*
X194450000Y-123484194D01*
X194214760Y-123507363D01*
X193988559Y-123575981D01*
X193780091Y-123687409D01*
X193597367Y-123837366D01*
X193447410Y-124020090D01*
X193335981Y-124228558D01*
X193267363Y-124454759D01*
X193250000Y-124631050D01*
X190150000Y-124631050D01*
X190132637Y-124454759D01*
X190064019Y-124228558D01*
X189952591Y-124020090D01*
X189802634Y-123837366D01*
X189619910Y-123687409D01*
X189411442Y-123575981D01*
X189185241Y-123507363D01*
X188950000Y-123484194D01*
X188714760Y-123507363D01*
X188488559Y-123575981D01*
X188280091Y-123687409D01*
X188097367Y-123837366D01*
X187947410Y-124020090D01*
X187835981Y-124228558D01*
X187767363Y-124454759D01*
X187758257Y-124547216D01*
X187369000Y-124157960D01*
X187369000Y-123344000D01*
X195650000Y-123344000D01*
X195650000Y-123844000D01*
X195703102Y-124075149D01*
X195800278Y-124291497D01*
X195937794Y-124484730D01*
X196110366Y-124647422D01*
X196311362Y-124773321D01*
X196511727Y-124841334D01*
X196696000Y-124804410D01*
X196696000Y-123344000D01*
X195650000Y-123344000D01*
X187369000Y-123344000D01*
X187369000Y-122536000D01*
X195650000Y-122536000D01*
X195650000Y-123036000D01*
X196696000Y-123036000D01*
X196696000Y-121575590D01*
X196511727Y-121538666D01*
X196311362Y-121606679D01*
X196110366Y-121732578D01*
X195937794Y-121895270D01*
X195800278Y-122088503D01*
X195703102Y-122304851D01*
X195650000Y-122536000D01*
X187369000Y-122536000D01*
X187369000Y-116562943D01*
X187455572Y-116527084D01*
X187632460Y-116408891D01*
X187782891Y-116258460D01*
X187901084Y-116081572D01*
X187982497Y-115885024D01*
X188024000Y-115676371D01*
X188024000Y-115463629D01*
X188404000Y-115463629D01*
X188404000Y-115676371D01*
X188445503Y-115885024D01*
X188526916Y-116081572D01*
X188645109Y-116258460D01*
X188795540Y-116408891D01*
X188972428Y-116527084D01*
X189168976Y-116608497D01*
X189377629Y-116650000D01*
X189590371Y-116650000D01*
X189799024Y-116608497D01*
X189995572Y-116527084D01*
X190172460Y-116408891D01*
X190322891Y-116258460D01*
X190441084Y-116081572D01*
X190522497Y-115885024D01*
X190564000Y-115676371D01*
X190564000Y-115463629D01*
X190944000Y-115463629D01*
X190944000Y-115676371D01*
X190985503Y-115885024D01*
X191066916Y-116081572D01*
X191185109Y-116258460D01*
X191335540Y-116408891D01*
X191512428Y-116527084D01*
X191708976Y-116608497D01*
X191917629Y-116650000D01*
X192130371Y-116650000D01*
X192339024Y-116608497D01*
X192535572Y-116527084D01*
X192712460Y-116408891D01*
X192862891Y-116258460D01*
X192981084Y-116081572D01*
X193062497Y-115885024D01*
X193104000Y-115676371D01*
X193104000Y-115463629D01*
X193484000Y-115463629D01*
X193484000Y-115676371D01*
X193525503Y-115885024D01*
X193606916Y-116081572D01*
X193725109Y-116258460D01*
X193875540Y-116408891D01*
X194052428Y-116527084D01*
X194248976Y-116608497D01*
X194457629Y-116650000D01*
X194670371Y-116650000D01*
X194879024Y-116608497D01*
X195075572Y-116527084D01*
X195252460Y-116408891D01*
X195402891Y-116258460D01*
X195521084Y-116081572D01*
X195602497Y-115885024D01*
X195644000Y-115676371D01*
X195644000Y-115463629D01*
X195602497Y-115254976D01*
X195521084Y-115058428D01*
X195402891Y-114881540D01*
X195252460Y-114731109D01*
X195075572Y-114612916D01*
X194879024Y-114531503D01*
X194670371Y-114490000D01*
X194457629Y-114490000D01*
X194248976Y-114531503D01*
X194052428Y-114612916D01*
X193875540Y-114731109D01*
X193725109Y-114881540D01*
X193606916Y-115058428D01*
X193525503Y-115254976D01*
X193484000Y-115463629D01*
X193104000Y-115463629D01*
X193062497Y-115254976D01*
X192981084Y-115058428D01*
X192862891Y-114881540D01*
X192712460Y-114731109D01*
X192535572Y-114612916D01*
X192339024Y-114531503D01*
X192130371Y-114490000D01*
X191917629Y-114490000D01*
X191708976Y-114531503D01*
X191512428Y-114612916D01*
X191335540Y-114731109D01*
X191185109Y-114881540D01*
X191066916Y-115058428D01*
X190985503Y-115254976D01*
X190944000Y-115463629D01*
X190564000Y-115463629D01*
X190522497Y-115254976D01*
X190441084Y-115058428D01*
X190322891Y-114881540D01*
X190172460Y-114731109D01*
X189995572Y-114612916D01*
X189799024Y-114531503D01*
X189590371Y-114490000D01*
X189377629Y-114490000D01*
X189168976Y-114531503D01*
X188972428Y-114612916D01*
X188795540Y-114731109D01*
X188645109Y-114881540D01*
X188526916Y-115058428D01*
X188445503Y-115254976D01*
X188404000Y-115463629D01*
X188024000Y-115463629D01*
X187982497Y-115254976D01*
X187901084Y-115058428D01*
X187782891Y-114881540D01*
X187632460Y-114731109D01*
X187455572Y-114612916D01*
X187259024Y-114531503D01*
X187050371Y-114490000D01*
X186837629Y-114490000D01*
X186628976Y-114531503D01*
X186432428Y-114612916D01*
X186255540Y-114731109D01*
X186105109Y-114881540D01*
X185986916Y-115058428D01*
X185905503Y-115254976D01*
X185864000Y-115463629D01*
X185483488Y-115463629D01*
X185483461Y-115458292D01*
X185440927Y-115249846D01*
X185363600Y-115063164D01*
X185218883Y-114972906D01*
X184621789Y-115570000D01*
X184186211Y-115570000D01*
X183589117Y-114972906D01*
X183444400Y-115063164D01*
X183363959Y-115260112D01*
X183323487Y-115468969D01*
X182944000Y-115468969D01*
X182944000Y-115463629D01*
X182902497Y-115254976D01*
X182821084Y-115058428D01*
X182702891Y-114881540D01*
X182576468Y-114755117D01*
X183806906Y-114755117D01*
X184404000Y-115352211D01*
X185001094Y-114755117D01*
X184910836Y-114610400D01*
X184713888Y-114529959D01*
X184505031Y-114489487D01*
X184292292Y-114490539D01*
X184083846Y-114533073D01*
X183897164Y-114610400D01*
X183806906Y-114755117D01*
X182576468Y-114755117D01*
X182552460Y-114731109D01*
X182375572Y-114612916D01*
X182179024Y-114531503D01*
X181970371Y-114490000D01*
X181757629Y-114490000D01*
X181548976Y-114531503D01*
X181352428Y-114612916D01*
X181175540Y-114731109D01*
X181025109Y-114881540D01*
X181019000Y-114890683D01*
X181019000Y-109396040D01*
X188148280Y-102266761D01*
X188148284Y-102266756D01*
X188499762Y-101915279D01*
X188515974Y-101901974D01*
X188569084Y-101837260D01*
X188608548Y-101763427D01*
X188632850Y-101683314D01*
X188639000Y-101620874D01*
X188639000Y-101620868D01*
X188641055Y-101600001D01*
X188639000Y-101579134D01*
X188639000Y-90849317D01*
X188645109Y-90858460D01*
X188795540Y-91008891D01*
X188972428Y-91127084D01*
X189168976Y-91208497D01*
X189377629Y-91250000D01*
X189590371Y-91250000D01*
X189799024Y-91208497D01*
X189954001Y-91144303D01*
X189954000Y-102030629D01*
X183810531Y-108174099D01*
X183735607Y-108265394D01*
X183661321Y-108404373D01*
X183615577Y-108555173D01*
X183600130Y-108712000D01*
X183615577Y-108868827D01*
X183661321Y-109019627D01*
X183735607Y-109158606D01*
X183835579Y-109280421D01*
X183957394Y-109380393D01*
X184096373Y-109454679D01*
X184247173Y-109500423D01*
X184404000Y-109515870D01*
X184560827Y-109500423D01*
X184711627Y-109454679D01*
X184850606Y-109380393D01*
X184941901Y-109305469D01*
X191291904Y-102955467D01*
X191322422Y-102930422D01*
X191347469Y-102899902D01*
X191422393Y-102808607D01*
X191496679Y-102669628D01*
X191496679Y-102669627D01*
X191542424Y-102518827D01*
X191554000Y-102401293D01*
X191554000Y-102401292D01*
X191557870Y-102362001D01*
X191554000Y-102322710D01*
X191554000Y-99303112D01*
X191894000Y-99303112D01*
X191894000Y-99578888D01*
X191947801Y-99849365D01*
X192053336Y-100104149D01*
X192206549Y-100333448D01*
X192401552Y-100528451D01*
X192630851Y-100681664D01*
X192885635Y-100787199D01*
X193156112Y-100841000D01*
X193431888Y-100841000D01*
X193702365Y-100787199D01*
X193957149Y-100681664D01*
X194186448Y-100528451D01*
X194381451Y-100333448D01*
X194534664Y-100104149D01*
X194640199Y-99849365D01*
X194694000Y-99578888D01*
X194694000Y-99303112D01*
X194640199Y-99032635D01*
X194534664Y-98777851D01*
X194381451Y-98548552D01*
X194186448Y-98353549D01*
X193957149Y-98200336D01*
X193702365Y-98094801D01*
X193616569Y-98077735D01*
X194644000Y-98077735D01*
X194644000Y-98304265D01*
X194688194Y-98526443D01*
X194774884Y-98735729D01*
X194900737Y-98924082D01*
X195060918Y-99084263D01*
X195249271Y-99210116D01*
X195458557Y-99296806D01*
X195680735Y-99341000D01*
X195907265Y-99341000D01*
X196129443Y-99296806D01*
X196338729Y-99210116D01*
X196527082Y-99084263D01*
X196687263Y-98924082D01*
X196813116Y-98735729D01*
X196899806Y-98526443D01*
X196944000Y-98304265D01*
X196944000Y-98077735D01*
X196899806Y-97855557D01*
X196813116Y-97646271D01*
X196687263Y-97457918D01*
X196527082Y-97297737D01*
X196338729Y-97171884D01*
X196129443Y-97085194D01*
X195907265Y-97041000D01*
X195680735Y-97041000D01*
X195458557Y-97085194D01*
X195249271Y-97171884D01*
X195060918Y-97297737D01*
X194900737Y-97457918D01*
X194774884Y-97646271D01*
X194688194Y-97855557D01*
X194644000Y-98077735D01*
X193616569Y-98077735D01*
X193431888Y-98041000D01*
X193156112Y-98041000D01*
X192885635Y-98094801D01*
X192630851Y-98200336D01*
X192401552Y-98353549D01*
X192206549Y-98548552D01*
X192053336Y-98777851D01*
X191947801Y-99032635D01*
X191894000Y-99303112D01*
X191554000Y-99303112D01*
X191554000Y-94556169D01*
X195146620Y-94556169D01*
X195245424Y-94708051D01*
X195454382Y-94795530D01*
X195676391Y-94840563D01*
X195902920Y-94841419D01*
X196125263Y-94798065D01*
X196334875Y-94712166D01*
X196342576Y-94708051D01*
X196441380Y-94556169D01*
X195794000Y-93908789D01*
X195146620Y-94556169D01*
X191554000Y-94556169D01*
X191554000Y-92303112D01*
X191894000Y-92303112D01*
X191894000Y-92578888D01*
X191947801Y-92849365D01*
X192053336Y-93104149D01*
X192206549Y-93333448D01*
X192401552Y-93528451D01*
X192630851Y-93681664D01*
X192885635Y-93787199D01*
X193156112Y-93841000D01*
X193431888Y-93841000D01*
X193638411Y-93799920D01*
X194643581Y-93799920D01*
X194686935Y-94022263D01*
X194772834Y-94231875D01*
X194776949Y-94239576D01*
X194928831Y-94338380D01*
X195576211Y-93691000D01*
X196011789Y-93691000D01*
X196659169Y-94338380D01*
X196811051Y-94239576D01*
X196898530Y-94030618D01*
X196943563Y-93808609D01*
X196944419Y-93582080D01*
X196901065Y-93359737D01*
X196815166Y-93150125D01*
X196811051Y-93142424D01*
X196659169Y-93043620D01*
X196011789Y-93691000D01*
X195576211Y-93691000D01*
X194928831Y-93043620D01*
X194776949Y-93142424D01*
X194689470Y-93351382D01*
X194644437Y-93573391D01*
X194643581Y-93799920D01*
X193638411Y-93799920D01*
X193702365Y-93787199D01*
X193957149Y-93681664D01*
X194186448Y-93528451D01*
X194381451Y-93333448D01*
X194534664Y-93104149D01*
X194640199Y-92849365D01*
X194644880Y-92825831D01*
X195146620Y-92825831D01*
X195794000Y-93473211D01*
X196441380Y-92825831D01*
X196342576Y-92673949D01*
X196133618Y-92586470D01*
X195911609Y-92541437D01*
X195685080Y-92540581D01*
X195462737Y-92583935D01*
X195253125Y-92669834D01*
X195245424Y-92673949D01*
X195146620Y-92825831D01*
X194644880Y-92825831D01*
X194694000Y-92578888D01*
X194694000Y-92303112D01*
X194640199Y-92032635D01*
X194534664Y-91777851D01*
X194381451Y-91548552D01*
X194186448Y-91353549D01*
X193957149Y-91200336D01*
X193702365Y-91094801D01*
X193431888Y-91041000D01*
X193156112Y-91041000D01*
X192885635Y-91094801D01*
X192630851Y-91200336D01*
X192401552Y-91353549D01*
X192206549Y-91548552D01*
X192053336Y-91777851D01*
X191947801Y-92032635D01*
X191894000Y-92303112D01*
X191554000Y-92303112D01*
X191554000Y-91144304D01*
X191708976Y-91208497D01*
X191917629Y-91250000D01*
X192130371Y-91250000D01*
X192339024Y-91208497D01*
X192535572Y-91127084D01*
X192712460Y-91008891D01*
X192862891Y-90858460D01*
X192981084Y-90681572D01*
X193062497Y-90485024D01*
X193104000Y-90276371D01*
X193104000Y-90063629D01*
X193484000Y-90063629D01*
X193484000Y-90276371D01*
X193525503Y-90485024D01*
X193606916Y-90681572D01*
X193725109Y-90858460D01*
X193875540Y-91008891D01*
X194052428Y-91127084D01*
X194248976Y-91208497D01*
X194457629Y-91250000D01*
X194670371Y-91250000D01*
X194879024Y-91208497D01*
X195075572Y-91127084D01*
X195252460Y-91008891D01*
X195402891Y-90858460D01*
X195521084Y-90681572D01*
X195602497Y-90485024D01*
X195644000Y-90276371D01*
X195644000Y-90063629D01*
X195602497Y-89854976D01*
X195521084Y-89658428D01*
X195402891Y-89481540D01*
X195252460Y-89331109D01*
X195075572Y-89212916D01*
X194879024Y-89131503D01*
X194670371Y-89090000D01*
X194457629Y-89090000D01*
X194248976Y-89131503D01*
X194052428Y-89212916D01*
X193875540Y-89331109D01*
X193725109Y-89481540D01*
X193606916Y-89658428D01*
X193525503Y-89854976D01*
X193484000Y-90063629D01*
X193104000Y-90063629D01*
X193062497Y-89854976D01*
X192981084Y-89658428D01*
X192862891Y-89481540D01*
X192712460Y-89331109D01*
X192535572Y-89212916D01*
X192339024Y-89131503D01*
X192130371Y-89090000D01*
X191917629Y-89090000D01*
X191708976Y-89131503D01*
X191554000Y-89195696D01*
X191554000Y-87858110D01*
X192117921Y-87294189D01*
X192148441Y-87269142D01*
X192176867Y-87234505D01*
X192248413Y-87147327D01*
X192322699Y-87008348D01*
X192368443Y-86857547D01*
X192383890Y-86700720D01*
X192380019Y-86661420D01*
X192380019Y-84902866D01*
X193680000Y-84902866D01*
X193680000Y-85277134D01*
X193753016Y-85644209D01*
X193896242Y-85989987D01*
X194104174Y-86301179D01*
X194368821Y-86565826D01*
X194680013Y-86773758D01*
X195025791Y-86916984D01*
X195392866Y-86990000D01*
X195767134Y-86990000D01*
X196134209Y-86916984D01*
X196479987Y-86773758D01*
X196791179Y-86565826D01*
X197055826Y-86301179D01*
X197263758Y-85989987D01*
X197406984Y-85644209D01*
X197480000Y-85277134D01*
X197480000Y-84902866D01*
X197406984Y-84535791D01*
X197263758Y-84190013D01*
X197055826Y-83878821D01*
X196791179Y-83614174D01*
X196479987Y-83406242D01*
X196134209Y-83263016D01*
X195767134Y-83190000D01*
X195392866Y-83190000D01*
X195025791Y-83263016D01*
X194680013Y-83406242D01*
X194368821Y-83614174D01*
X194104174Y-83878821D01*
X193896242Y-84190013D01*
X193753016Y-84535791D01*
X193680000Y-84902866D01*
X192380019Y-84902866D01*
X192380021Y-78589312D01*
X192383891Y-78550021D01*
X192372860Y-78438026D01*
X192368445Y-78393195D01*
X192322700Y-78242394D01*
X192322700Y-78242393D01*
X192248414Y-78103414D01*
X192173491Y-78012120D01*
X192173485Y-78012114D01*
X192148443Y-77981600D01*
X192117929Y-77956558D01*
X190280000Y-76118630D01*
X190280000Y-76096584D01*
X190239650Y-75893726D01*
X190160498Y-75702638D01*
X190045589Y-75530664D01*
X189899336Y-75384411D01*
X189727362Y-75269502D01*
X189536274Y-75190350D01*
X189333416Y-75150000D01*
X189126584Y-75150000D01*
X188923726Y-75190350D01*
X188732638Y-75269502D01*
X188560664Y-75384411D01*
X188414411Y-75530664D01*
X188299502Y-75702638D01*
X188220350Y-75893726D01*
X188180000Y-76096584D01*
X188180000Y-76303416D01*
X188220350Y-76506274D01*
X188299502Y-76697362D01*
X188414411Y-76869336D01*
X188560664Y-77015589D01*
X188732638Y-77130498D01*
X188923726Y-77209650D01*
X189126584Y-77250000D01*
X189148630Y-77250000D01*
X189694533Y-77795904D01*
X189536274Y-77730350D01*
X189333416Y-77690000D01*
X189126584Y-77690000D01*
X188923726Y-77730350D01*
X188732638Y-77809502D01*
X188560664Y-77924411D01*
X188414411Y-78070664D01*
X188299502Y-78242638D01*
X188220350Y-78433726D01*
X188180000Y-78636584D01*
X188180000Y-78843416D01*
X188220350Y-79046274D01*
X188299502Y-79237362D01*
X188414411Y-79409336D01*
X188560664Y-79555589D01*
X188732638Y-79670498D01*
X188923726Y-79749650D01*
X189126584Y-79790000D01*
X189333416Y-79790000D01*
X189536274Y-79749650D01*
X189608636Y-79719676D01*
X190330011Y-80441052D01*
X190330011Y-81778971D01*
X190209676Y-81658636D01*
X190239650Y-81586274D01*
X190280000Y-81383416D01*
X190280000Y-81176584D01*
X190239650Y-80973726D01*
X190160498Y-80782638D01*
X190045589Y-80610664D01*
X189899336Y-80464411D01*
X189727362Y-80349502D01*
X189536274Y-80270350D01*
X189333416Y-80230000D01*
X189126584Y-80230000D01*
X188923726Y-80270350D01*
X188732638Y-80349502D01*
X188560664Y-80464411D01*
X188414411Y-80610664D01*
X188299502Y-80782638D01*
X188220350Y-80973726D01*
X188180000Y-81176584D01*
X188180000Y-81383416D01*
X188220350Y-81586274D01*
X188299502Y-81777362D01*
X188414411Y-81949336D01*
X188560664Y-82095589D01*
X188732638Y-82210498D01*
X188923726Y-82289650D01*
X189126584Y-82330000D01*
X189333416Y-82330000D01*
X189536274Y-82289650D01*
X189608636Y-82259676D01*
X189880001Y-82531042D01*
X189880001Y-82768549D01*
X188480000Y-82768549D01*
X188421190Y-82774341D01*
X188364640Y-82791496D01*
X188312523Y-82819353D01*
X188266842Y-82856842D01*
X188229353Y-82902523D01*
X188201496Y-82954640D01*
X188184341Y-83011190D01*
X188178549Y-83070000D01*
X188178549Y-83398012D01*
X188155098Y-83400321D01*
X188146685Y-83401150D01*
X188129900Y-83406242D01*
X188066573Y-83425452D01*
X187992740Y-83464916D01*
X187928026Y-83518026D01*
X187914721Y-83534238D01*
X184127948Y-87321012D01*
X184201602Y-87183215D01*
X184267360Y-86966439D01*
X184289564Y-86741000D01*
X184267360Y-86515561D01*
X184201602Y-86298785D01*
X184094816Y-86099003D01*
X183951107Y-85923893D01*
X183775997Y-85780184D01*
X183576215Y-85673398D01*
X183359439Y-85607640D01*
X183190492Y-85591000D01*
X183077508Y-85591000D01*
X182908561Y-85607640D01*
X182691785Y-85673398D01*
X182492003Y-85780184D01*
X182316893Y-85923893D01*
X182173184Y-86099003D01*
X182066398Y-86298785D01*
X182000640Y-86515561D01*
X181978436Y-86741000D01*
X182000640Y-86966439D01*
X182066398Y-87183215D01*
X182173184Y-87382997D01*
X182316893Y-87558107D01*
X182492003Y-87701816D01*
X182691785Y-87808602D01*
X182908561Y-87874360D01*
X183077508Y-87891000D01*
X183190492Y-87891000D01*
X183359439Y-87874360D01*
X183576215Y-87808602D01*
X183714012Y-87734948D01*
X182848239Y-88600721D01*
X182832027Y-88614026D01*
X182778917Y-88678740D01*
X182752406Y-88728339D01*
X182739453Y-88752573D01*
X182715150Y-88832686D01*
X182706945Y-88916000D01*
X182709001Y-88936877D01*
X182709001Y-89490684D01*
X182702891Y-89481540D01*
X182552460Y-89331109D01*
X182375572Y-89212916D01*
X182179024Y-89131503D01*
X181970371Y-89090000D01*
X181757629Y-89090000D01*
X181548976Y-89131503D01*
X181352428Y-89212916D01*
X181175540Y-89331109D01*
X181025109Y-89481540D01*
X180906916Y-89658428D01*
X180825503Y-89854976D01*
X180784000Y-90063629D01*
X180784000Y-90276371D01*
X180825503Y-90485024D01*
X180906916Y-90681572D01*
X181025109Y-90858460D01*
X181175540Y-91008891D01*
X181352428Y-91127084D01*
X181548976Y-91208497D01*
X181757629Y-91250000D01*
X181970371Y-91250000D01*
X182179024Y-91208497D01*
X182375572Y-91127084D01*
X182552460Y-91008891D01*
X182702891Y-90858460D01*
X182709001Y-90849316D01*
X182709000Y-105231139D01*
X178314001Y-109626139D01*
X178314001Y-90553824D01*
X178366916Y-90681572D01*
X178485109Y-90858460D01*
X178635540Y-91008891D01*
X178812428Y-91127084D01*
X179008976Y-91208497D01*
X179217629Y-91250000D01*
X179430371Y-91250000D01*
X179639024Y-91208497D01*
X179835572Y-91127084D01*
X180012460Y-91008891D01*
X180162891Y-90858460D01*
X180281084Y-90681572D01*
X180362497Y-90485024D01*
X180404000Y-90276371D01*
X180404000Y-90063629D01*
X180362497Y-89854976D01*
X180281084Y-89658428D01*
X180162891Y-89481540D01*
X180012460Y-89331109D01*
X179835572Y-89212916D01*
X179639024Y-89131503D01*
X179430371Y-89090000D01*
X179217629Y-89090000D01*
X179008976Y-89131503D01*
X178812428Y-89212916D01*
X178635540Y-89331109D01*
X178485109Y-89481540D01*
X178366916Y-89658428D01*
X178314001Y-89786176D01*
X178314001Y-87591000D01*
X179442548Y-87591000D01*
X179448340Y-87649810D01*
X179465495Y-87706361D01*
X179493352Y-87758478D01*
X179530841Y-87804159D01*
X179576522Y-87841648D01*
X179628639Y-87869505D01*
X179685190Y-87886660D01*
X179744000Y-87892452D01*
X180365000Y-87891000D01*
X180440000Y-87816000D01*
X180440000Y-86895000D01*
X180748000Y-86895000D01*
X180748000Y-87816000D01*
X180823000Y-87891000D01*
X181444000Y-87892452D01*
X181502810Y-87886660D01*
X181559361Y-87869505D01*
X181611478Y-87841648D01*
X181657159Y-87804159D01*
X181694648Y-87758478D01*
X181722505Y-87706361D01*
X181739660Y-87649810D01*
X181745452Y-87591000D01*
X181744000Y-86970000D01*
X181669000Y-86895000D01*
X180748000Y-86895000D01*
X180440000Y-86895000D01*
X179519000Y-86895000D01*
X179444000Y-86970000D01*
X179442548Y-87591000D01*
X178314001Y-87591000D01*
X178314001Y-86879908D01*
X178335225Y-86865727D01*
X178432727Y-86768225D01*
X178509333Y-86653575D01*
X178562100Y-86526183D01*
X178589001Y-86390945D01*
X178589001Y-86253057D01*
X178562100Y-86117819D01*
X178509333Y-85990427D01*
X178442899Y-85891000D01*
X179442548Y-85891000D01*
X179444000Y-86512000D01*
X179519000Y-86587000D01*
X180440000Y-86587000D01*
X180440000Y-85666000D01*
X180748000Y-85666000D01*
X180748000Y-86587000D01*
X181669000Y-86587000D01*
X181744000Y-86512000D01*
X181745452Y-85891000D01*
X181739660Y-85832190D01*
X181722505Y-85775639D01*
X181694648Y-85723522D01*
X181657159Y-85677841D01*
X181611478Y-85640352D01*
X181559361Y-85612495D01*
X181502810Y-85595340D01*
X181444000Y-85589548D01*
X180823000Y-85591000D01*
X180748000Y-85666000D01*
X180440000Y-85666000D01*
X180365000Y-85591000D01*
X179744000Y-85589548D01*
X179685190Y-85595340D01*
X179628639Y-85612495D01*
X179576522Y-85640352D01*
X179530841Y-85677841D01*
X179493352Y-85723522D01*
X179465495Y-85775639D01*
X179448340Y-85832190D01*
X179442548Y-85891000D01*
X178442899Y-85891000D01*
X178432727Y-85875777D01*
X178335225Y-85778275D01*
X178220575Y-85701669D01*
X178093183Y-85648902D01*
X177957945Y-85622001D01*
X177820057Y-85622001D01*
X177684819Y-85648902D01*
X177557427Y-85701669D01*
X177442777Y-85778275D01*
X177345275Y-85875777D01*
X177268669Y-85990427D01*
X177215902Y-86117819D01*
X177189001Y-86253057D01*
X177189001Y-86390945D01*
X177215902Y-86526183D01*
X177268669Y-86653575D01*
X177345275Y-86768225D01*
X177442777Y-86865727D01*
X177464002Y-86879909D01*
X177464002Y-89325457D01*
X177295572Y-89212916D01*
X177099024Y-89131503D01*
X176890371Y-89090000D01*
X176677629Y-89090000D01*
X176468976Y-89131503D01*
X176272428Y-89212916D01*
X176095540Y-89331109D01*
X175945109Y-89481540D01*
X175826916Y-89658428D01*
X175745503Y-89854976D01*
X175704000Y-90063629D01*
X175704000Y-90276371D01*
X175745503Y-90485024D01*
X175826916Y-90681572D01*
X175945109Y-90858460D01*
X176095540Y-91008891D01*
X176272428Y-91127084D01*
X176468976Y-91208497D01*
X176677629Y-91250000D01*
X176890371Y-91250000D01*
X177099024Y-91208497D01*
X177295572Y-91127084D01*
X177464002Y-91014543D01*
X177464001Y-109839728D01*
X176048235Y-111255495D01*
X176048230Y-111255499D01*
X174444730Y-112859000D01*
X166390866Y-112859000D01*
X166369999Y-112856945D01*
X166349132Y-112859000D01*
X166349126Y-112859000D01*
X166295098Y-112864321D01*
X166286685Y-112865150D01*
X166262383Y-112872522D01*
X166206573Y-112889452D01*
X166132740Y-112928916D01*
X166068026Y-112982026D01*
X166054721Y-112998238D01*
X164485597Y-114567363D01*
X164399024Y-114531503D01*
X164190371Y-114490000D01*
X163977629Y-114490000D01*
X163768976Y-114531503D01*
X163572428Y-114612916D01*
X163395540Y-114731109D01*
X163245109Y-114881540D01*
X163126916Y-115058428D01*
X163045503Y-115254976D01*
X163004000Y-115463629D01*
X162623488Y-115463629D01*
X162623461Y-115458292D01*
X162580927Y-115249846D01*
X162503600Y-115063164D01*
X162358883Y-114972906D01*
X161761789Y-115570000D01*
X161326211Y-115570000D01*
X160729117Y-114972906D01*
X160584400Y-115063164D01*
X160503959Y-115260112D01*
X160463487Y-115468969D01*
X160084000Y-115468969D01*
X160084000Y-115463629D01*
X160042497Y-115254976D01*
X159961084Y-115058428D01*
X159842891Y-114881540D01*
X159716468Y-114755117D01*
X160946906Y-114755117D01*
X161544000Y-115352211D01*
X162141094Y-114755117D01*
X162050836Y-114610400D01*
X161853888Y-114529959D01*
X161645031Y-114489487D01*
X161432292Y-114490539D01*
X161223846Y-114533073D01*
X161037164Y-114610400D01*
X160946906Y-114755117D01*
X159716468Y-114755117D01*
X159692460Y-114731109D01*
X159515572Y-114612916D01*
X159319024Y-114531503D01*
X159110371Y-114490000D01*
X158897629Y-114490000D01*
X158688976Y-114531503D01*
X158492428Y-114612916D01*
X158315540Y-114731109D01*
X158165109Y-114881540D01*
X158046916Y-115058428D01*
X157965503Y-115254976D01*
X157924000Y-115463629D01*
X157544000Y-115463629D01*
X157502497Y-115254976D01*
X157421084Y-115058428D01*
X157302891Y-114881540D01*
X157152460Y-114731109D01*
X156975572Y-114612916D01*
X156779024Y-114531503D01*
X156570371Y-114490000D01*
X156357629Y-114490000D01*
X156148976Y-114531503D01*
X155952428Y-114612916D01*
X155775540Y-114731109D01*
X155625109Y-114881540D01*
X155506916Y-115058428D01*
X155425503Y-115254976D01*
X155384000Y-115463629D01*
X155004000Y-115463629D01*
X154962497Y-115254976D01*
X154881084Y-115058428D01*
X154762891Y-114881540D01*
X154612460Y-114731109D01*
X154435572Y-114612916D01*
X154239024Y-114531503D01*
X154030371Y-114490000D01*
X153817629Y-114490000D01*
X153608976Y-114531503D01*
X153412428Y-114612916D01*
X153235540Y-114731109D01*
X153085109Y-114881540D01*
X152966916Y-115058428D01*
X152885503Y-115254976D01*
X152844000Y-115463629D01*
X152465451Y-115463629D01*
X152465451Y-114790000D01*
X152459659Y-114731190D01*
X152442504Y-114674640D01*
X152414647Y-114622523D01*
X152377158Y-114576842D01*
X152331477Y-114539353D01*
X152279360Y-114511496D01*
X152222810Y-114494341D01*
X152164000Y-114488549D01*
X150604000Y-114488549D01*
X150545190Y-114494341D01*
X150488640Y-114511496D01*
X150436523Y-114539353D01*
X150390842Y-114576842D01*
X150353353Y-114622523D01*
X150325496Y-114674640D01*
X150308341Y-114731190D01*
X150302549Y-114790000D01*
X150302549Y-114990731D01*
X149267000Y-113955183D01*
X149267000Y-100258834D01*
X149337332Y-100153574D01*
X149390099Y-100026182D01*
X149417000Y-99890944D01*
X149417000Y-99753056D01*
X149390099Y-99617818D01*
X149337332Y-99490426D01*
X149260726Y-99375776D01*
X149163224Y-99278274D01*
X149048574Y-99201668D01*
X148921182Y-99148901D01*
X148785944Y-99122000D01*
X148648056Y-99122000D01*
X148512818Y-99148901D01*
X148385426Y-99201668D01*
X148270776Y-99278274D01*
X148173274Y-99375776D01*
X148096668Y-99490426D01*
X148043901Y-99617818D01*
X148017000Y-99753056D01*
X120824142Y-99753056D01*
X120824184Y-98144000D01*
X126492000Y-98144000D01*
X126511509Y-98142079D01*
X126530268Y-98136388D01*
X126547557Y-98127147D01*
X126562711Y-98114711D01*
X126575147Y-98099557D01*
X126584388Y-98082268D01*
X126590079Y-98063509D01*
X126592000Y-98044000D01*
X126592000Y-90984883D01*
X150786906Y-90984883D01*
X150877164Y-91129600D01*
X151074112Y-91210041D01*
X151282969Y-91250513D01*
X151495708Y-91249461D01*
X151704154Y-91206927D01*
X151890836Y-91129600D01*
X151981094Y-90984883D01*
X151384000Y-90387789D01*
X150786906Y-90984883D01*
X126592000Y-90984883D01*
X126592000Y-90068969D01*
X150303487Y-90068969D01*
X150304539Y-90281708D01*
X150347073Y-90490154D01*
X150424400Y-90676836D01*
X150569117Y-90767094D01*
X151166211Y-90170000D01*
X151601789Y-90170000D01*
X152198883Y-90767094D01*
X152343600Y-90676836D01*
X152424041Y-90479888D01*
X152464513Y-90271031D01*
X152463488Y-90063629D01*
X152844000Y-90063629D01*
X152844000Y-90276371D01*
X152885503Y-90485024D01*
X152966916Y-90681572D01*
X153085109Y-90858460D01*
X153235540Y-91008891D01*
X153412428Y-91127084D01*
X153608976Y-91208497D01*
X153817629Y-91250000D01*
X154030371Y-91250000D01*
X154239024Y-91208497D01*
X154435572Y-91127084D01*
X154612460Y-91008891D01*
X154762891Y-90858460D01*
X154881084Y-90681572D01*
X154962497Y-90485024D01*
X155004000Y-90276371D01*
X155004000Y-90063629D01*
X155384000Y-90063629D01*
X155384000Y-90276371D01*
X155425503Y-90485024D01*
X155506916Y-90681572D01*
X155625109Y-90858460D01*
X155775540Y-91008891D01*
X155952428Y-91127084D01*
X156148976Y-91208497D01*
X156357629Y-91250000D01*
X156570371Y-91250000D01*
X156779024Y-91208497D01*
X156975572Y-91127084D01*
X157152460Y-91008891D01*
X157302891Y-90858460D01*
X157421084Y-90681572D01*
X157502497Y-90485024D01*
X157544000Y-90276371D01*
X157544000Y-90063629D01*
X157924000Y-90063629D01*
X157924000Y-90276371D01*
X157965503Y-90485024D01*
X158046916Y-90681572D01*
X158165109Y-90858460D01*
X158315540Y-91008891D01*
X158492428Y-91127084D01*
X158688976Y-91208497D01*
X158897629Y-91250000D01*
X159110371Y-91250000D01*
X159319024Y-91208497D01*
X159515572Y-91127084D01*
X159692460Y-91008891D01*
X159842891Y-90858460D01*
X159961084Y-90681572D01*
X160042497Y-90485024D01*
X160084000Y-90276371D01*
X160084000Y-90063629D01*
X160464000Y-90063629D01*
X160464000Y-90276371D01*
X160505503Y-90485024D01*
X160586916Y-90681572D01*
X160705109Y-90858460D01*
X160855540Y-91008891D01*
X161032428Y-91127084D01*
X161228976Y-91208497D01*
X161437629Y-91250000D01*
X161650371Y-91250000D01*
X161859024Y-91208497D01*
X162055572Y-91127084D01*
X162232460Y-91008891D01*
X162382891Y-90858460D01*
X162501084Y-90681572D01*
X162582497Y-90485024D01*
X162624000Y-90276371D01*
X162624000Y-90063629D01*
X163004000Y-90063629D01*
X163004000Y-90276371D01*
X163045503Y-90485024D01*
X163126916Y-90681572D01*
X163245109Y-90858460D01*
X163395540Y-91008891D01*
X163572428Y-91127084D01*
X163768976Y-91208497D01*
X163977629Y-91250000D01*
X164190371Y-91250000D01*
X164399024Y-91208497D01*
X164595572Y-91127084D01*
X164772460Y-91008891D01*
X164796468Y-90984883D01*
X166026906Y-90984883D01*
X166117164Y-91129600D01*
X166314112Y-91210041D01*
X166522969Y-91250513D01*
X166735708Y-91249461D01*
X166944154Y-91206927D01*
X167130836Y-91129600D01*
X167221094Y-90984883D01*
X166624000Y-90387789D01*
X166026906Y-90984883D01*
X164796468Y-90984883D01*
X164922891Y-90858460D01*
X165041084Y-90681572D01*
X165122497Y-90485024D01*
X165164000Y-90276371D01*
X165164000Y-90068969D01*
X165543487Y-90068969D01*
X165544539Y-90281708D01*
X165587073Y-90490154D01*
X165664400Y-90676836D01*
X165809117Y-90767094D01*
X166406211Y-90170000D01*
X166841789Y-90170000D01*
X167438883Y-90767094D01*
X167583600Y-90676836D01*
X167664041Y-90479888D01*
X167704513Y-90271031D01*
X167703488Y-90063629D01*
X168084000Y-90063629D01*
X168084000Y-90276371D01*
X168125503Y-90485024D01*
X168206916Y-90681572D01*
X168325109Y-90858460D01*
X168475540Y-91008891D01*
X168652428Y-91127084D01*
X168848976Y-91208497D01*
X169057629Y-91250000D01*
X169270371Y-91250000D01*
X169479024Y-91208497D01*
X169675572Y-91127084D01*
X169852460Y-91008891D01*
X170002891Y-90858460D01*
X170121084Y-90681572D01*
X170202497Y-90485024D01*
X170244000Y-90276371D01*
X170244000Y-90063629D01*
X170624000Y-90063629D01*
X170624000Y-90276371D01*
X170665503Y-90485024D01*
X170746916Y-90681572D01*
X170865109Y-90858460D01*
X171015540Y-91008891D01*
X171192428Y-91127084D01*
X171388976Y-91208497D01*
X171597629Y-91250000D01*
X171810371Y-91250000D01*
X172019024Y-91208497D01*
X172215572Y-91127084D01*
X172392460Y-91008891D01*
X172542891Y-90858460D01*
X172661084Y-90681572D01*
X172742497Y-90485024D01*
X172784000Y-90276371D01*
X172784000Y-90063629D01*
X173164000Y-90063629D01*
X173164000Y-90276371D01*
X173205503Y-90485024D01*
X173286916Y-90681572D01*
X173405109Y-90858460D01*
X173555540Y-91008891D01*
X173732428Y-91127084D01*
X173928976Y-91208497D01*
X174137629Y-91250000D01*
X174350371Y-91250000D01*
X174559024Y-91208497D01*
X174755572Y-91127084D01*
X174932460Y-91008891D01*
X175082891Y-90858460D01*
X175201084Y-90681572D01*
X175282497Y-90485024D01*
X175324000Y-90276371D01*
X175324000Y-90063629D01*
X175282497Y-89854976D01*
X175201084Y-89658428D01*
X175082891Y-89481540D01*
X174932460Y-89331109D01*
X174755572Y-89212916D01*
X174559024Y-89131503D01*
X174350371Y-89090000D01*
X174137629Y-89090000D01*
X173928976Y-89131503D01*
X173732428Y-89212916D01*
X173555540Y-89331109D01*
X173405109Y-89481540D01*
X173286916Y-89658428D01*
X173205503Y-89854976D01*
X173164000Y-90063629D01*
X172784000Y-90063629D01*
X172742497Y-89854976D01*
X172661084Y-89658428D01*
X172542891Y-89481540D01*
X172392460Y-89331109D01*
X172215572Y-89212916D01*
X172019024Y-89131503D01*
X171810371Y-89090000D01*
X171597629Y-89090000D01*
X171388976Y-89131503D01*
X171192428Y-89212916D01*
X171015540Y-89331109D01*
X170865109Y-89481540D01*
X170746916Y-89658428D01*
X170665503Y-89854976D01*
X170624000Y-90063629D01*
X170244000Y-90063629D01*
X170202497Y-89854976D01*
X170121084Y-89658428D01*
X170002891Y-89481540D01*
X169852460Y-89331109D01*
X169675572Y-89212916D01*
X169479024Y-89131503D01*
X169270371Y-89090000D01*
X169057629Y-89090000D01*
X168848976Y-89131503D01*
X168652428Y-89212916D01*
X168475540Y-89331109D01*
X168325109Y-89481540D01*
X168206916Y-89658428D01*
X168125503Y-89854976D01*
X168084000Y-90063629D01*
X167703488Y-90063629D01*
X167703461Y-90058292D01*
X167660927Y-89849846D01*
X167583600Y-89663164D01*
X167438883Y-89572906D01*
X166841789Y-90170000D01*
X166406211Y-90170000D01*
X165809117Y-89572906D01*
X165664400Y-89663164D01*
X165583959Y-89860112D01*
X165543487Y-90068969D01*
X165164000Y-90068969D01*
X165164000Y-90063629D01*
X165122497Y-89854976D01*
X165041084Y-89658428D01*
X164922891Y-89481540D01*
X164796468Y-89355117D01*
X166026906Y-89355117D01*
X166624000Y-89952211D01*
X167221094Y-89355117D01*
X167130836Y-89210400D01*
X166933888Y-89129959D01*
X166725031Y-89089487D01*
X166512292Y-89090539D01*
X166303846Y-89133073D01*
X166117164Y-89210400D01*
X166026906Y-89355117D01*
X164796468Y-89355117D01*
X164772460Y-89331109D01*
X164595572Y-89212916D01*
X164399024Y-89131503D01*
X164190371Y-89090000D01*
X163977629Y-89090000D01*
X163768976Y-89131503D01*
X163572428Y-89212916D01*
X163395540Y-89331109D01*
X163245109Y-89481540D01*
X163126916Y-89658428D01*
X163045503Y-89854976D01*
X163004000Y-90063629D01*
X162624000Y-90063629D01*
X162582497Y-89854976D01*
X162501084Y-89658428D01*
X162382891Y-89481540D01*
X162232460Y-89331109D01*
X162055572Y-89212916D01*
X161859024Y-89131503D01*
X161650371Y-89090000D01*
X161437629Y-89090000D01*
X161228976Y-89131503D01*
X161032428Y-89212916D01*
X160855540Y-89331109D01*
X160705109Y-89481540D01*
X160586916Y-89658428D01*
X160505503Y-89854976D01*
X160464000Y-90063629D01*
X160084000Y-90063629D01*
X160042497Y-89854976D01*
X159961084Y-89658428D01*
X159842891Y-89481540D01*
X159692460Y-89331109D01*
X159515572Y-89212916D01*
X159319024Y-89131503D01*
X159110371Y-89090000D01*
X158897629Y-89090000D01*
X158688976Y-89131503D01*
X158492428Y-89212916D01*
X158315540Y-89331109D01*
X158165109Y-89481540D01*
X158046916Y-89658428D01*
X157965503Y-89854976D01*
X157924000Y-90063629D01*
X157544000Y-90063629D01*
X157502497Y-89854976D01*
X157421084Y-89658428D01*
X157302891Y-89481540D01*
X157152460Y-89331109D01*
X156975572Y-89212916D01*
X156779024Y-89131503D01*
X156570371Y-89090000D01*
X156357629Y-89090000D01*
X156148976Y-89131503D01*
X155952428Y-89212916D01*
X155775540Y-89331109D01*
X155625109Y-89481540D01*
X155506916Y-89658428D01*
X155425503Y-89854976D01*
X155384000Y-90063629D01*
X155004000Y-90063629D01*
X154962497Y-89854976D01*
X154881084Y-89658428D01*
X154762891Y-89481540D01*
X154612460Y-89331109D01*
X154435572Y-89212916D01*
X154239024Y-89131503D01*
X154030371Y-89090000D01*
X153817629Y-89090000D01*
X153608976Y-89131503D01*
X153412428Y-89212916D01*
X153235540Y-89331109D01*
X153085109Y-89481540D01*
X152966916Y-89658428D01*
X152885503Y-89854976D01*
X152844000Y-90063629D01*
X152463488Y-90063629D01*
X152463461Y-90058292D01*
X152420927Y-89849846D01*
X152343600Y-89663164D01*
X152198883Y-89572906D01*
X151601789Y-90170000D01*
X151166211Y-90170000D01*
X150569117Y-89572906D01*
X150424400Y-89663164D01*
X150343959Y-89860112D01*
X150303487Y-90068969D01*
X126592000Y-90068969D01*
X126592000Y-89355117D01*
X150786906Y-89355117D01*
X151384000Y-89952211D01*
X151981094Y-89355117D01*
X151890836Y-89210400D01*
X151693888Y-89129959D01*
X151485031Y-89089487D01*
X151272292Y-89090539D01*
X151063846Y-89133073D01*
X150877164Y-89210400D01*
X150786906Y-89355117D01*
X126592000Y-89355117D01*
X126592000Y-88138000D01*
X126590079Y-88118491D01*
X126584388Y-88099732D01*
X126575147Y-88082443D01*
X126562711Y-88067289D01*
X126547557Y-88054853D01*
X126530268Y-88045612D01*
X126511509Y-88039921D01*
X126492000Y-88038000D01*
X120824443Y-88038000D01*
X120824470Y-86956000D01*
X150232548Y-86956000D01*
X150238340Y-87014810D01*
X150255495Y-87071361D01*
X150283352Y-87123478D01*
X150320841Y-87169159D01*
X150366522Y-87206648D01*
X150418639Y-87234505D01*
X150475190Y-87251660D01*
X150534000Y-87257452D01*
X151155000Y-87256000D01*
X151230000Y-87181000D01*
X151230000Y-86260000D01*
X151538000Y-86260000D01*
X151538000Y-87181000D01*
X151613000Y-87256000D01*
X152234000Y-87257452D01*
X152292810Y-87251660D01*
X152349361Y-87234505D01*
X152401478Y-87206648D01*
X152447159Y-87169159D01*
X152484648Y-87123478D01*
X152512505Y-87071361D01*
X152529660Y-87014810D01*
X152535452Y-86956000D01*
X152534000Y-86335000D01*
X152459000Y-86260000D01*
X151538000Y-86260000D01*
X151230000Y-86260000D01*
X150309000Y-86260000D01*
X150234000Y-86335000D01*
X150232548Y-86956000D01*
X120824470Y-86956000D01*
X120824491Y-86106000D01*
X152768436Y-86106000D01*
X152790640Y-86331439D01*
X152856398Y-86548215D01*
X152963184Y-86747997D01*
X153106893Y-86923107D01*
X153282003Y-87066816D01*
X153481785Y-87173602D01*
X153698561Y-87239360D01*
X153867508Y-87256000D01*
X153980492Y-87256000D01*
X154149439Y-87239360D01*
X154366215Y-87173602D01*
X154565997Y-87066816D01*
X154741107Y-86923107D01*
X154884816Y-86747997D01*
X154991602Y-86548215D01*
X155057360Y-86331439D01*
X155079564Y-86106000D01*
X155308436Y-86106000D01*
X155330640Y-86331439D01*
X155396398Y-86548215D01*
X155503184Y-86747997D01*
X155646893Y-86923107D01*
X155822003Y-87066816D01*
X156021785Y-87173602D01*
X156238561Y-87239360D01*
X156407508Y-87256000D01*
X156520492Y-87256000D01*
X156689439Y-87239360D01*
X156906215Y-87173602D01*
X157105997Y-87066816D01*
X157281107Y-86923107D01*
X157424816Y-86747997D01*
X157531602Y-86548215D01*
X157597360Y-86331439D01*
X157619564Y-86106000D01*
X157848436Y-86106000D01*
X157870640Y-86331439D01*
X157936398Y-86548215D01*
X158043184Y-86747997D01*
X158186893Y-86923107D01*
X158362003Y-87066816D01*
X158561785Y-87173602D01*
X158778561Y-87239360D01*
X158947508Y-87256000D01*
X159060492Y-87256000D01*
X159229439Y-87239360D01*
X159446215Y-87173602D01*
X159645997Y-87066816D01*
X159821107Y-86923107D01*
X159964816Y-86747997D01*
X160071602Y-86548215D01*
X160137360Y-86331439D01*
X160159564Y-86106000D01*
X160137360Y-85880561D01*
X160071602Y-85663785D01*
X159964816Y-85464003D01*
X159821107Y-85288893D01*
X159645997Y-85145184D01*
X159446215Y-85038398D01*
X159229439Y-84972640D01*
X159060492Y-84956000D01*
X158947508Y-84956000D01*
X158778561Y-84972640D01*
X158561785Y-85038398D01*
X158362003Y-85145184D01*
X158186893Y-85288893D01*
X158043184Y-85464003D01*
X157936398Y-85663785D01*
X157870640Y-85880561D01*
X157848436Y-86106000D01*
X157619564Y-86106000D01*
X157597360Y-85880561D01*
X157531602Y-85663785D01*
X157424816Y-85464003D01*
X157281107Y-85288893D01*
X157105997Y-85145184D01*
X156906215Y-85038398D01*
X156689439Y-84972640D01*
X156520492Y-84956000D01*
X156407508Y-84956000D01*
X156238561Y-84972640D01*
X156021785Y-85038398D01*
X155822003Y-85145184D01*
X155646893Y-85288893D01*
X155503184Y-85464003D01*
X155396398Y-85663785D01*
X155330640Y-85880561D01*
X155308436Y-86106000D01*
X155079564Y-86106000D01*
X155057360Y-85880561D01*
X154991602Y-85663785D01*
X154884816Y-85464003D01*
X154741107Y-85288893D01*
X154565997Y-85145184D01*
X154366215Y-85038398D01*
X154149439Y-84972640D01*
X153980492Y-84956000D01*
X153867508Y-84956000D01*
X153698561Y-84972640D01*
X153481785Y-85038398D01*
X153282003Y-85145184D01*
X153106893Y-85288893D01*
X152963184Y-85464003D01*
X152856398Y-85663785D01*
X152790640Y-85880561D01*
X152768436Y-86106000D01*
X120824491Y-86106000D01*
X120824513Y-85256000D01*
X150232548Y-85256000D01*
X150234000Y-85877000D01*
X150309000Y-85952000D01*
X151230000Y-85952000D01*
X151230000Y-85031000D01*
X151538000Y-85031000D01*
X151538000Y-85952000D01*
X152459000Y-85952000D01*
X152534000Y-85877000D01*
X152535452Y-85256000D01*
X152529660Y-85197190D01*
X152512505Y-85140639D01*
X152484648Y-85088522D01*
X152447159Y-85042841D01*
X152401478Y-85005352D01*
X152349361Y-84977495D01*
X152292810Y-84960340D01*
X152234000Y-84954548D01*
X151613000Y-84956000D01*
X151538000Y-85031000D01*
X151230000Y-85031000D01*
X151155000Y-84956000D01*
X150534000Y-84954548D01*
X150475190Y-84960340D01*
X150418639Y-84977495D01*
X150366522Y-85005352D01*
X150320841Y-85042841D01*
X150283352Y-85088522D01*
X150255495Y-85140639D01*
X150238340Y-85197190D01*
X150232548Y-85256000D01*
X120824513Y-85256000D01*
X120824585Y-82446584D01*
X185640000Y-82446584D01*
X185640000Y-82653416D01*
X185680350Y-82856274D01*
X185759502Y-83047362D01*
X185874411Y-83219336D01*
X186020664Y-83365589D01*
X186192638Y-83480498D01*
X186383726Y-83559650D01*
X186586584Y-83600000D01*
X186793416Y-83600000D01*
X186996274Y-83559650D01*
X187187362Y-83480498D01*
X187359336Y-83365589D01*
X187505589Y-83219336D01*
X187620498Y-83047362D01*
X187699650Y-82856274D01*
X187740000Y-82653416D01*
X187740000Y-82446584D01*
X187699650Y-82243726D01*
X187620498Y-82052638D01*
X187505589Y-81880664D01*
X187359336Y-81734411D01*
X187187362Y-81619502D01*
X186996274Y-81540350D01*
X186793416Y-81500000D01*
X186586584Y-81500000D01*
X186383726Y-81540350D01*
X186192638Y-81619502D01*
X186020664Y-81734411D01*
X185874411Y-81880664D01*
X185759502Y-82052638D01*
X185680350Y-82243726D01*
X185640000Y-82446584D01*
X120824585Y-82446584D01*
X120824650Y-79906584D01*
X185640000Y-79906584D01*
X185640000Y-80113416D01*
X185680350Y-80316274D01*
X185759502Y-80507362D01*
X185874411Y-80679336D01*
X186020664Y-80825589D01*
X186192638Y-80940498D01*
X186383726Y-81019650D01*
X186586584Y-81060000D01*
X186793416Y-81060000D01*
X186996274Y-81019650D01*
X187187362Y-80940498D01*
X187359336Y-80825589D01*
X187505589Y-80679336D01*
X187620498Y-80507362D01*
X187699650Y-80316274D01*
X187740000Y-80113416D01*
X187740000Y-79906584D01*
X187699650Y-79703726D01*
X187620498Y-79512638D01*
X187505589Y-79340664D01*
X187359336Y-79194411D01*
X187187362Y-79079502D01*
X186996274Y-79000350D01*
X186793416Y-78960000D01*
X186586584Y-78960000D01*
X186383726Y-79000350D01*
X186192638Y-79079502D01*
X186020664Y-79194411D01*
X185874411Y-79340664D01*
X185759502Y-79512638D01*
X185680350Y-79703726D01*
X185640000Y-79906584D01*
X120824650Y-79906584D01*
X120824715Y-77366584D01*
X185640000Y-77366584D01*
X185640000Y-77573416D01*
X185680350Y-77776274D01*
X185759502Y-77967362D01*
X185874411Y-78139336D01*
X186020664Y-78285589D01*
X186192638Y-78400498D01*
X186383726Y-78479650D01*
X186586584Y-78520000D01*
X186793416Y-78520000D01*
X186996274Y-78479650D01*
X187187362Y-78400498D01*
X187359336Y-78285589D01*
X187505589Y-78139336D01*
X187620498Y-77967362D01*
X187699650Y-77776274D01*
X187740000Y-77573416D01*
X187740000Y-77366584D01*
X187699650Y-77163726D01*
X187620498Y-76972638D01*
X187505589Y-76800664D01*
X187359336Y-76654411D01*
X187187362Y-76539502D01*
X186996274Y-76460350D01*
X186793416Y-76420000D01*
X186586584Y-76420000D01*
X186383726Y-76460350D01*
X186192638Y-76539502D01*
X186020664Y-76654411D01*
X185874411Y-76800664D01*
X185759502Y-76972638D01*
X185680350Y-77163726D01*
X185640000Y-77366584D01*
X120824715Y-77366584D01*
X120824882Y-70862866D01*
X129525000Y-70862866D01*
X129525000Y-71237134D01*
X129598016Y-71604209D01*
X129741242Y-71949987D01*
X129949174Y-72261179D01*
X130213821Y-72525826D01*
X130525013Y-72733758D01*
X130870791Y-72876984D01*
X131237866Y-72950000D01*
X131612134Y-72950000D01*
X131979209Y-72876984D01*
X132324987Y-72733758D01*
X132636179Y-72525826D01*
X132900826Y-72261179D01*
X133108758Y-71949987D01*
X133251984Y-71604209D01*
X133325000Y-71237134D01*
X133325000Y-70862866D01*
X133251984Y-70495791D01*
X133108758Y-70150013D01*
X132900826Y-69838821D01*
X132636179Y-69574174D01*
X132324987Y-69366242D01*
X131979209Y-69223016D01*
X131612134Y-69150000D01*
X131237866Y-69150000D01*
X130870791Y-69223016D01*
X130525013Y-69366242D01*
X130213821Y-69574174D01*
X129949174Y-69838821D01*
X129741242Y-70150013D01*
X129598016Y-70495791D01*
X129525000Y-70862866D01*
X120824882Y-70862866D01*
X120824991Y-66641676D01*
X127655577Y-66197346D01*
X134866781Y-65879743D01*
X142050001Y-65713992D01*
X142050000Y-72852464D01*
M02*
