G04 #@! TF.GenerationSoftware,KiCad,Pcbnew,5.0.2+dfsg1-1*
G04 #@! TF.CreationDate,2019-05-10T18:20:53+02:00*
G04 #@! TF.ProjectId,bt-trx-dev-board,62742d74-7278-42d6-9465-762d626f6172,2.0*
G04 #@! TF.SameCoordinates,Original*
G04 #@! TF.FileFunction,Copper,L2,Bot*
G04 #@! TF.FilePolarity,Positive*
%FSLAX46Y46*%
G04 Gerber Fmt 4.6, Leading zero omitted, Abs format (unit mm)*
G04 Created by KiCad (PCBNEW 5.0.2+dfsg1-1) date Fri 10 May 2019 06:20:53 PM CEST*
%MOMM*%
%LPD*%
G01*
G04 APERTURE LIST*
G04 #@! TA.AperFunction,ComponentPad*
%ADD10O,1.700000X1.700000*%
G04 #@! TD*
G04 #@! TA.AperFunction,ComponentPad*
%ADD11R,1.700000X1.700000*%
G04 #@! TD*
G04 #@! TA.AperFunction,ComponentPad*
%ADD12R,1.500000X1.500000*%
G04 #@! TD*
G04 #@! TA.AperFunction,ComponentPad*
%ADD13C,1.500000*%
G04 #@! TD*
G04 #@! TA.AperFunction,ComponentPad*
%ADD14O,1.800000X2.800000*%
G04 #@! TD*
G04 #@! TA.AperFunction,ComponentPad*
%ADD15C,2.200000*%
G04 #@! TD*
G04 #@! TA.AperFunction,ComponentPad*
%ADD16C,1.700000*%
G04 #@! TD*
G04 #@! TA.AperFunction,ComponentPad*
%ADD17C,1.600000*%
G04 #@! TD*
G04 #@! TA.AperFunction,ComponentPad*
%ADD18R,1.600000X1.600000*%
G04 #@! TD*
G04 #@! TA.AperFunction,ViaPad*
%ADD19C,0.800000*%
G04 #@! TD*
G04 #@! TA.AperFunction,Conductor*
%ADD20C,0.500000*%
G04 #@! TD*
G04 #@! TA.AperFunction,Conductor*
%ADD21C,0.250000*%
G04 #@! TD*
G04 #@! TA.AperFunction,Conductor*
%ADD22C,0.200000*%
G04 #@! TD*
G04 APERTURE END LIST*
D10*
G04 #@! TO.P,J2,2*
G04 #@! TO.N,/PTT_BUTTON*
X164038000Y-92912000D03*
D11*
G04 #@! TO.P,J2,1*
G04 #@! TO.N,GND*
X166578000Y-92912000D03*
G04 #@! TD*
G04 #@! TO.P,J4,1*
G04 #@! TO.N,/PTT_BUTTON*
X159212000Y-92912000D03*
D10*
G04 #@! TO.P,J4,2*
G04 #@! TO.N,/PTT*
X156672000Y-92912000D03*
G04 #@! TO.P,J4,3*
G04 #@! TO.N,/PTT_UC*
X154132000Y-92912000D03*
G04 #@! TD*
D11*
G04 #@! TO.P,J6,1*
G04 #@! TO.N,/PTT_BUTTON*
X173000000Y-96500000D03*
D10*
G04 #@! TO.P,J6,2*
G04 #@! TO.N,/PTT_IN*
X170460000Y-96500000D03*
G04 #@! TD*
D12*
G04 #@! TO.P,J5,1*
G04 #@! TO.N,/CAT_TX*
X172928000Y-81482000D03*
D13*
G04 #@! TO.P,J5,2*
G04 #@! TO.N,/AUDIO_IN_B*
X170388000Y-80212000D03*
G04 #@! TO.P,J5,3*
G04 #@! TO.N,/CAT_RX*
X172928000Y-78942000D03*
G04 #@! TO.P,J5,4*
G04 #@! TO.N,/AUDIO_IN_A*
X170388000Y-77672000D03*
G04 #@! TO.P,J5,5*
G04 #@! TO.N,/PTT*
X172928000Y-76402000D03*
G04 #@! TO.P,J5,6*
G04 #@! TO.N,/AUDIO_OUT*
X170388000Y-75132000D03*
G04 #@! TO.P,J5,7*
G04 #@! TO.N,/V_IN*
X172928000Y-73862000D03*
G04 #@! TO.P,J5,8*
G04 #@! TO.N,GND*
X170388000Y-72592000D03*
G04 #@! TD*
D14*
G04 #@! TO.P,J3,S*
G04 #@! TO.N,GND*
X181818000Y-89864000D03*
G04 #@! TO.P,J3,T*
G04 #@! TO.N,/PTT_BUTTON*
X179418000Y-91864000D03*
G04 #@! TO.P,J3,R*
G04 #@! TO.N,N/C*
X173918000Y-91864000D03*
G04 #@! TD*
D11*
G04 #@! TO.P,J7,1*
G04 #@! TO.N,GND*
X124920000Y-111500000D03*
D10*
G04 #@! TO.P,J7,2*
G04 #@! TO.N,+3V3*
X127460000Y-111500000D03*
G04 #@! TO.P,J7,3*
G04 #@! TO.N,/Microcontroller/SCL*
X130000000Y-111500000D03*
G04 #@! TO.P,J7,4*
G04 #@! TO.N,/Microcontroller/SDA*
X132540000Y-111500000D03*
G04 #@! TD*
D15*
G04 #@! TO.P,SW1,*
G04 #@! TO.N,*
X178429000Y-126094000D03*
X178429000Y-119094000D03*
D16*
G04 #@! TO.P,SW1,2*
G04 #@! TO.N,GND*
X180929000Y-124844000D03*
G04 #@! TO.P,SW1,1*
G04 #@! TO.N,/Microcontroller/BTN0*
X180929000Y-120344000D03*
G04 #@! TD*
D17*
G04 #@! TO.P,U3,17*
G04 #@! TO.N,GND*
X148671000Y-107517000D03*
G04 #@! TO.P,U3,18*
G04 #@! TO.N,N/C*
X148671000Y-110057000D03*
G04 #@! TO.P,U3,19*
X148671000Y-112597000D03*
G04 #@! TO.P,U3,20*
G04 #@! TO.N,/WT32_ONOFF_FROM_UC*
X148671000Y-115137000D03*
G04 #@! TO.P,U3,16*
G04 #@! TO.N,+3V3*
X148671000Y-104977000D03*
G04 #@! TO.P,U3,15*
G04 #@! TO.N,N/C*
X148671000Y-102437000D03*
G04 #@! TO.P,U3,14*
X148671000Y-99897000D03*
G04 #@! TO.P,U3,21*
G04 #@! TO.N,/UART_UC_CTS*
X151211000Y-115137000D03*
G04 #@! TO.P,U3,22*
G04 #@! TO.N,/UART_UC_RTS*
X153751000Y-115137000D03*
G04 #@! TO.P,U3,23*
G04 #@! TO.N,N/C*
X156291000Y-115137000D03*
G04 #@! TO.P,U3,24*
X158831000Y-115137000D03*
G04 #@! TO.P,U3,25*
G04 #@! TO.N,/Microcontroller/SDA*
X161371000Y-115137000D03*
G04 #@! TO.P,U3,26*
G04 #@! TO.N,/Microcontroller/SCL*
X163911000Y-115137000D03*
G04 #@! TO.P,U3,27*
G04 #@! TO.N,N/C*
X166451000Y-115137000D03*
G04 #@! TO.P,U3,28*
X168991000Y-115137000D03*
G04 #@! TO.P,U3,29*
X171531000Y-115137000D03*
G04 #@! TO.P,U3,30*
G04 #@! TO.N,/Microcontroller/BTN0*
X174071000Y-115137000D03*
G04 #@! TO.P,U3,31*
G04 #@! TO.N,+3V3*
X176611000Y-115137000D03*
G04 #@! TO.P,U3,32*
G04 #@! TO.N,GND*
X179151000Y-115137000D03*
G04 #@! TO.P,U3,33*
G04 #@! TO.N,+5V*
X181691000Y-115137000D03*
G04 #@! TO.P,U3,34*
G04 #@! TO.N,/Microcontroller/VUSB*
X179151000Y-112597000D03*
G04 #@! TO.P,U3,13*
G04 #@! TO.N,N/C*
X151211000Y-99897000D03*
G04 #@! TO.P,U3,12*
X153751000Y-99897000D03*
G04 #@! TO.P,U3,11*
X156291000Y-99897000D03*
G04 #@! TO.P,U3,10*
G04 #@! TO.N,/UART_UC_TX*
X158831000Y-99897000D03*
G04 #@! TO.P,U3,9*
G04 #@! TO.N,/UART_UC_RX*
X161371000Y-99897000D03*
G04 #@! TO.P,U3,8*
G04 #@! TO.N,/PTT_UC*
X163911000Y-99897000D03*
G04 #@! TO.P,U3,7*
G04 #@! TO.N,/PTT_IN*
X166451000Y-99897000D03*
G04 #@! TO.P,U3,6*
G04 #@! TO.N,/Microcontroller/LED1*
X168991000Y-99897000D03*
G04 #@! TO.P,U3,5*
G04 #@! TO.N,/Microcontroller/LED0*
X171531000Y-99897000D03*
G04 #@! TO.P,U3,4*
G04 #@! TO.N,N/C*
X174071000Y-99897000D03*
G04 #@! TO.P,U3,3*
G04 #@! TO.N,/CAT_TX*
X176611000Y-99897000D03*
G04 #@! TO.P,U3,2*
G04 #@! TO.N,/CAT_RX*
X179151000Y-99897000D03*
D18*
G04 #@! TO.P,U3,1*
G04 #@! TO.N,GND*
X181691000Y-99897000D03*
G04 #@! TD*
D19*
G04 #@! TO.N,GND*
X137000000Y-66000000D03*
X121000000Y-91000000D03*
X123000000Y-91000000D03*
X125000000Y-91000000D03*
X127000000Y-91000000D03*
X127000000Y-93000000D03*
X127000000Y-95000000D03*
X127000000Y-97000000D03*
X127000000Y-99000000D03*
X127000000Y-101000000D03*
X121000000Y-102000000D03*
X123000000Y-102000000D03*
X125000000Y-102000000D03*
X121000000Y-89000000D03*
X121000000Y-87000000D03*
X121000000Y-85000000D03*
X121000000Y-83000000D03*
X121000000Y-104000000D03*
X121000000Y-106000000D03*
X121000000Y-108000000D03*
X121000000Y-110000000D03*
X121000000Y-66000000D03*
X127000000Y-66000000D03*
X127000000Y-131000000D03*
X121000000Y-131000000D03*
X138000000Y-131000000D03*
X183000000Y-70000000D03*
X157000000Y-67000000D03*
X157000000Y-130000000D03*
X145500000Y-100750000D03*
G04 #@! TO.N,+3V3*
X164800000Y-104596000D03*
X143972000Y-104850000D03*
G04 #@! TD*
D20*
G04 #@! TO.N,+3V3*
X149802370Y-104977000D02*
X150183370Y-104596000D01*
X148671000Y-104977000D02*
X149802370Y-104977000D01*
X150183370Y-104596000D02*
X164800000Y-104596000D01*
X148544000Y-104850000D02*
X148671000Y-104977000D01*
X143972000Y-104850000D02*
X148544000Y-104850000D01*
X127460000Y-110297919D02*
X127500000Y-110257919D01*
X127460000Y-111500000D02*
X127460000Y-110297919D01*
X127500000Y-110257919D02*
X127500000Y-108000000D01*
X130650000Y-104850000D02*
X143972000Y-104850000D01*
X127500000Y-108000000D02*
X130650000Y-104850000D01*
D21*
G04 #@! TO.N,/PTT_BUTTON*
X174100000Y-96500000D02*
X173000000Y-96500000D01*
X175282000Y-96500000D02*
X174100000Y-96500000D01*
X179418000Y-92364000D02*
X175282000Y-96500000D01*
X179418000Y-91864000D02*
X179418000Y-92364000D01*
G04 #@! TO.N,/PTT_UC*
X154132000Y-94368081D02*
X157501919Y-97738000D01*
X154132000Y-93166000D02*
X154132000Y-94368081D01*
X161752000Y-97738000D02*
X163911000Y-99897000D01*
X157501919Y-97738000D02*
X161752000Y-97738000D01*
G04 #@! TO.N,/Microcontroller/BTN0*
X180929000Y-118179000D02*
X180929000Y-120344000D01*
X179750000Y-117000000D02*
X180929000Y-118179000D01*
X174071000Y-115137000D02*
X175934000Y-117000000D01*
X175934000Y-117000000D02*
X179750000Y-117000000D01*
G04 #@! TD*
D22*
G04 #@! TO.N,GND*
G36*
X127875000Y-72070976D02*
X127876929Y-72080674D01*
X127897426Y-72471786D01*
X127898831Y-72480862D01*
X127898831Y-72490056D01*
X127904837Y-72528846D01*
X128070162Y-73320212D01*
X128075708Y-73337694D01*
X128079397Y-73355667D01*
X128093079Y-73392457D01*
X128414154Y-74134416D01*
X128423104Y-74150430D01*
X128430330Y-74167289D01*
X128451125Y-74200568D01*
X128451130Y-74200577D01*
X128451134Y-74200581D01*
X128914838Y-74862820D01*
X128926827Y-74876709D01*
X128937293Y-74891768D01*
X128964353Y-74920183D01*
X128964362Y-74920194D01*
X128964368Y-74920198D01*
X129551761Y-75475670D01*
X129566290Y-75486859D01*
X129579579Y-75499514D01*
X129611801Y-75521908D01*
X129611810Y-75521915D01*
X129611815Y-75521917D01*
X130298907Y-75947932D01*
X130315392Y-75955972D01*
X130330950Y-75965694D01*
X130367028Y-75981157D01*
X131125753Y-76260314D01*
X131143522Y-76264876D01*
X131160714Y-76271270D01*
X131199164Y-76279163D01*
X131998525Y-76400055D01*
X132016850Y-76400951D01*
X132034975Y-76403757D01*
X132074227Y-76403757D01*
X132881569Y-76361446D01*
X132899692Y-76358640D01*
X132918019Y-76357744D01*
X132956469Y-76349851D01*
X133558083Y-76193142D01*
X171878000Y-76193142D01*
X171878000Y-76610858D01*
X172037853Y-76996777D01*
X172333223Y-77292147D01*
X172719142Y-77452000D01*
X173136858Y-77452000D01*
X173522777Y-77292147D01*
X173818147Y-76996777D01*
X173978000Y-76610858D01*
X173978000Y-76193142D01*
X173818147Y-75807223D01*
X173522777Y-75511853D01*
X173136858Y-75352000D01*
X172719142Y-75352000D01*
X172333223Y-75511853D01*
X172037853Y-75807223D01*
X171878000Y-76193142D01*
X133558083Y-76193142D01*
X133738815Y-76146065D01*
X133756009Y-76139671D01*
X133773775Y-76135109D01*
X133809853Y-76119646D01*
X134535242Y-75762710D01*
X134550796Y-75752991D01*
X134567286Y-75744948D01*
X134599517Y-75722546D01*
X135238318Y-75227041D01*
X135251600Y-75214393D01*
X135266136Y-75203199D01*
X135293195Y-75174784D01*
X135293205Y-75174774D01*
X135293209Y-75174769D01*
X135508879Y-74923142D01*
X169338000Y-74923142D01*
X169338000Y-75340858D01*
X169497853Y-75726777D01*
X169793223Y-76022147D01*
X170179142Y-76182000D01*
X170596858Y-76182000D01*
X170982777Y-76022147D01*
X171278147Y-75726777D01*
X171438000Y-75340858D01*
X171438000Y-74923142D01*
X171278147Y-74537223D01*
X170982777Y-74241853D01*
X170596858Y-74082000D01*
X170179142Y-74082000D01*
X169793223Y-74241853D01*
X169497853Y-74537223D01*
X169338000Y-74923142D01*
X135508879Y-74923142D01*
X135819323Y-74560941D01*
X135829791Y-74545879D01*
X135841779Y-74531991D01*
X135862579Y-74498704D01*
X136254524Y-73791617D01*
X136261750Y-73774758D01*
X136270699Y-73758745D01*
X136284381Y-73721954D01*
X136386404Y-73396396D01*
X169801393Y-73396396D01*
X169889867Y-73539621D01*
X170290424Y-73658116D01*
X170337584Y-73653142D01*
X171878000Y-73653142D01*
X171878000Y-74070858D01*
X172037853Y-74456777D01*
X172333223Y-74752147D01*
X172719142Y-74912000D01*
X173136858Y-74912000D01*
X173522777Y-74752147D01*
X173818147Y-74456777D01*
X173978000Y-74070858D01*
X173978000Y-73653142D01*
X173818147Y-73267223D01*
X173522777Y-72971853D01*
X173136858Y-72812000D01*
X172719142Y-72812000D01*
X172333223Y-72971853D01*
X172037853Y-73267223D01*
X171878000Y-73653142D01*
X170337584Y-73653142D01*
X170705837Y-73614303D01*
X170886133Y-73539621D01*
X170974607Y-73396396D01*
X170388000Y-72809789D01*
X169801393Y-73396396D01*
X136386404Y-73396396D01*
X136526141Y-72950498D01*
X136529829Y-72932534D01*
X136535377Y-72915044D01*
X136541378Y-72876274D01*
X136541382Y-72876254D01*
X136541382Y-72876244D01*
X136580166Y-72494424D01*
X169321884Y-72494424D01*
X169365697Y-72909837D01*
X169440379Y-73090133D01*
X169583604Y-73178607D01*
X170170211Y-72592000D01*
X170605789Y-72592000D01*
X171192396Y-73178607D01*
X171335621Y-73090133D01*
X171454116Y-72689576D01*
X171410303Y-72274163D01*
X171335621Y-72093867D01*
X171192396Y-72005393D01*
X170605789Y-72592000D01*
X170170211Y-72592000D01*
X169583604Y-72005393D01*
X169440379Y-72093867D01*
X169321884Y-72494424D01*
X136580166Y-72494424D01*
X136621277Y-72089696D01*
X136625000Y-72070977D01*
X136625000Y-69872067D01*
X155350000Y-69872067D01*
X155350000Y-70627933D01*
X155639258Y-71326263D01*
X156173737Y-71860742D01*
X156872067Y-72150000D01*
X157627933Y-72150000D01*
X158326263Y-71860742D01*
X158399401Y-71787604D01*
X169801393Y-71787604D01*
X170388000Y-72374211D01*
X170974607Y-71787604D01*
X170886133Y-71644379D01*
X170485576Y-71525884D01*
X170070163Y-71569697D01*
X169889867Y-71644379D01*
X169801393Y-71787604D01*
X158399401Y-71787604D01*
X158860742Y-71326263D01*
X159019052Y-70944067D01*
X177378000Y-70944067D01*
X177378000Y-71699933D01*
X177667258Y-72398263D01*
X178201737Y-72932742D01*
X178900067Y-73222000D01*
X179655933Y-73222000D01*
X180354263Y-72932742D01*
X180888742Y-72398263D01*
X181178000Y-71699933D01*
X181178000Y-70944067D01*
X180888742Y-70245737D01*
X180354263Y-69711258D01*
X179655933Y-69422000D01*
X178900067Y-69422000D01*
X178201737Y-69711258D01*
X177667258Y-70245737D01*
X177378000Y-70944067D01*
X159019052Y-70944067D01*
X159150000Y-70627933D01*
X159150000Y-69872067D01*
X158860742Y-69173737D01*
X158326263Y-68639258D01*
X157627933Y-68350000D01*
X156872067Y-68350000D01*
X156173737Y-68639258D01*
X155639258Y-69173737D01*
X155350000Y-69872067D01*
X136625000Y-69872067D01*
X136625000Y-64998592D01*
X143459440Y-65149423D01*
X150669215Y-65459705D01*
X157870917Y-65920908D01*
X165061351Y-66532829D01*
X172237449Y-67295205D01*
X179396639Y-68207781D01*
X183850001Y-68854863D01*
X183850000Y-128177967D01*
X177048468Y-129142382D01*
X169883838Y-130005641D01*
X162702674Y-130718668D01*
X155508164Y-131281148D01*
X148303465Y-131692833D01*
X141091079Y-131953567D01*
X136625000Y-132036773D01*
X136625000Y-126372067D01*
X155350000Y-126372067D01*
X155350000Y-127127933D01*
X155639258Y-127826263D01*
X156173737Y-128360742D01*
X156872067Y-128650000D01*
X157627933Y-128650000D01*
X158326263Y-128360742D01*
X158860742Y-127826263D01*
X159150000Y-127127933D01*
X159150000Y-126372067D01*
X158919472Y-125815523D01*
X177029000Y-125815523D01*
X177029000Y-126372477D01*
X177242137Y-126887037D01*
X177635963Y-127280863D01*
X178150523Y-127494000D01*
X178707477Y-127494000D01*
X179222037Y-127280863D01*
X179615863Y-126887037D01*
X179829000Y-126372477D01*
X179829000Y-125815523D01*
X179789967Y-125721288D01*
X180269501Y-125721288D01*
X180370363Y-125874898D01*
X180807394Y-126010206D01*
X181262939Y-125967971D01*
X181487637Y-125874898D01*
X181588499Y-125721288D01*
X180929000Y-125061789D01*
X180269501Y-125721288D01*
X179789967Y-125721288D01*
X179615863Y-125300963D01*
X179222037Y-124907137D01*
X178776027Y-124722394D01*
X179762794Y-124722394D01*
X179805029Y-125177939D01*
X179898102Y-125402637D01*
X180051712Y-125503499D01*
X180711211Y-124844000D01*
X181146789Y-124844000D01*
X181806288Y-125503499D01*
X181959898Y-125402637D01*
X182095206Y-124965606D01*
X182052971Y-124510061D01*
X181959898Y-124285363D01*
X181806288Y-124184501D01*
X181146789Y-124844000D01*
X180711211Y-124844000D01*
X180051712Y-124184501D01*
X179898102Y-124285363D01*
X179762794Y-124722394D01*
X178776027Y-124722394D01*
X178707477Y-124694000D01*
X178150523Y-124694000D01*
X177635963Y-124907137D01*
X177242137Y-125300963D01*
X177029000Y-125815523D01*
X158919472Y-125815523D01*
X158860742Y-125673737D01*
X158326263Y-125139258D01*
X157627933Y-124850000D01*
X156872067Y-124850000D01*
X156173737Y-125139258D01*
X155639258Y-125673737D01*
X155350000Y-126372067D01*
X136625000Y-126372067D01*
X136625000Y-124963069D01*
X136623071Y-124953370D01*
X136602574Y-124562260D01*
X136601169Y-124553184D01*
X136601169Y-124543990D01*
X136595163Y-124505200D01*
X136482667Y-123966712D01*
X180269501Y-123966712D01*
X180929000Y-124626211D01*
X181588499Y-123966712D01*
X181487637Y-123813102D01*
X181050606Y-123677794D01*
X180595061Y-123720029D01*
X180370363Y-123813102D01*
X180269501Y-123966712D01*
X136482667Y-123966712D01*
X136429838Y-123713834D01*
X136424292Y-123696351D01*
X136420603Y-123678380D01*
X136406921Y-123641590D01*
X136085846Y-122899630D01*
X136076899Y-122883622D01*
X136069671Y-122866757D01*
X136048870Y-122833470D01*
X135585162Y-122171227D01*
X135573177Y-122157342D01*
X135562707Y-122142278D01*
X135535647Y-122113863D01*
X135535638Y-122113852D01*
X135535632Y-122113848D01*
X134948239Y-121558376D01*
X134933710Y-121547187D01*
X134920421Y-121534532D01*
X134888199Y-121512138D01*
X134888190Y-121512131D01*
X134888185Y-121512129D01*
X134201093Y-121086114D01*
X134184608Y-121078074D01*
X134169050Y-121068352D01*
X134132972Y-121052889D01*
X133374247Y-120773732D01*
X133356478Y-120769170D01*
X133339286Y-120762776D01*
X133300836Y-120754883D01*
X132501475Y-120633991D01*
X132483150Y-120633095D01*
X132465025Y-120630289D01*
X132425773Y-120630289D01*
X131618431Y-120672600D01*
X131600308Y-120675406D01*
X131581981Y-120676302D01*
X131543531Y-120684195D01*
X130761186Y-120887981D01*
X130743994Y-120894375D01*
X130726225Y-120898937D01*
X130690147Y-120914400D01*
X129964758Y-121271336D01*
X129949204Y-121281055D01*
X129932714Y-121289098D01*
X129900483Y-121311500D01*
X129261682Y-121807005D01*
X129248397Y-121819656D01*
X129233864Y-121830848D01*
X129206805Y-121859262D01*
X129206795Y-121859272D01*
X129206791Y-121859277D01*
X128680676Y-122473106D01*
X128670207Y-122488168D01*
X128658221Y-122502055D01*
X128637421Y-122535342D01*
X128245477Y-123242428D01*
X128238252Y-123259285D01*
X128229301Y-123275301D01*
X128215619Y-123312091D01*
X127973859Y-124083548D01*
X127970172Y-124101510D01*
X127964623Y-124119002D01*
X127958619Y-124157792D01*
X127878723Y-124944352D01*
X127875000Y-124963070D01*
X127875001Y-132116632D01*
X121036282Y-131965707D01*
X120148319Y-131935158D01*
X120148646Y-118815523D01*
X177029000Y-118815523D01*
X177029000Y-119372477D01*
X177242137Y-119887037D01*
X177635963Y-120280863D01*
X178150523Y-120494000D01*
X178707477Y-120494000D01*
X179222037Y-120280863D01*
X179615863Y-119887037D01*
X179829000Y-119372477D01*
X179829000Y-118815523D01*
X179615863Y-118300963D01*
X179222037Y-117907137D01*
X178707477Y-117694000D01*
X178150523Y-117694000D01*
X177635963Y-117907137D01*
X177242137Y-118300963D01*
X177029000Y-118815523D01*
X120148646Y-118815523D01*
X120148744Y-114918196D01*
X147571000Y-114918196D01*
X147571000Y-115355804D01*
X147738465Y-115760100D01*
X148047900Y-116069535D01*
X148452196Y-116237000D01*
X148889804Y-116237000D01*
X149294100Y-116069535D01*
X149603535Y-115760100D01*
X149771000Y-115355804D01*
X149771000Y-114918196D01*
X150111000Y-114918196D01*
X150111000Y-115355804D01*
X150278465Y-115760100D01*
X150587900Y-116069535D01*
X150992196Y-116237000D01*
X151429804Y-116237000D01*
X151834100Y-116069535D01*
X152143535Y-115760100D01*
X152311000Y-115355804D01*
X152311000Y-114918196D01*
X152651000Y-114918196D01*
X152651000Y-115355804D01*
X152818465Y-115760100D01*
X153127900Y-116069535D01*
X153532196Y-116237000D01*
X153969804Y-116237000D01*
X154374100Y-116069535D01*
X154683535Y-115760100D01*
X154851000Y-115355804D01*
X154851000Y-114918196D01*
X155191000Y-114918196D01*
X155191000Y-115355804D01*
X155358465Y-115760100D01*
X155667900Y-116069535D01*
X156072196Y-116237000D01*
X156509804Y-116237000D01*
X156914100Y-116069535D01*
X157223535Y-115760100D01*
X157391000Y-115355804D01*
X157391000Y-114918196D01*
X157731000Y-114918196D01*
X157731000Y-115355804D01*
X157898465Y-115760100D01*
X158207900Y-116069535D01*
X158612196Y-116237000D01*
X159049804Y-116237000D01*
X159454100Y-116069535D01*
X159763535Y-115760100D01*
X159931000Y-115355804D01*
X159931000Y-114918196D01*
X160271000Y-114918196D01*
X160271000Y-115355804D01*
X160438465Y-115760100D01*
X160747900Y-116069535D01*
X161152196Y-116237000D01*
X161589804Y-116237000D01*
X161994100Y-116069535D01*
X162303535Y-115760100D01*
X162471000Y-115355804D01*
X162471000Y-114918196D01*
X162811000Y-114918196D01*
X162811000Y-115355804D01*
X162978465Y-115760100D01*
X163287900Y-116069535D01*
X163692196Y-116237000D01*
X164129804Y-116237000D01*
X164534100Y-116069535D01*
X164843535Y-115760100D01*
X165011000Y-115355804D01*
X165011000Y-114918196D01*
X165351000Y-114918196D01*
X165351000Y-115355804D01*
X165518465Y-115760100D01*
X165827900Y-116069535D01*
X166232196Y-116237000D01*
X166669804Y-116237000D01*
X167074100Y-116069535D01*
X167383535Y-115760100D01*
X167551000Y-115355804D01*
X167551000Y-114918196D01*
X167891000Y-114918196D01*
X167891000Y-115355804D01*
X168058465Y-115760100D01*
X168367900Y-116069535D01*
X168772196Y-116237000D01*
X169209804Y-116237000D01*
X169614100Y-116069535D01*
X169923535Y-115760100D01*
X170091000Y-115355804D01*
X170091000Y-114918196D01*
X170431000Y-114918196D01*
X170431000Y-115355804D01*
X170598465Y-115760100D01*
X170907900Y-116069535D01*
X171312196Y-116237000D01*
X171749804Y-116237000D01*
X172154100Y-116069535D01*
X172463535Y-115760100D01*
X172631000Y-115355804D01*
X172631000Y-114918196D01*
X172971000Y-114918196D01*
X172971000Y-115355804D01*
X173138465Y-115760100D01*
X173447900Y-116069535D01*
X173852196Y-116237000D01*
X174289804Y-116237000D01*
X174487904Y-116154944D01*
X175603881Y-117270922D01*
X175627592Y-117306408D01*
X175663077Y-117330118D01*
X175768173Y-117400341D01*
X175934000Y-117433326D01*
X175975857Y-117425000D01*
X179573960Y-117425000D01*
X180504000Y-118355041D01*
X180504001Y-119275289D01*
X180277577Y-119369077D01*
X179954077Y-119692577D01*
X179779000Y-120115251D01*
X179779000Y-120572749D01*
X179954077Y-120995423D01*
X180277577Y-121318923D01*
X180700251Y-121494000D01*
X181157749Y-121494000D01*
X181580423Y-121318923D01*
X181903923Y-120995423D01*
X182079000Y-120572749D01*
X182079000Y-120115251D01*
X181903923Y-119692577D01*
X181580423Y-119369077D01*
X181354000Y-119275290D01*
X181354000Y-118220857D01*
X181362326Y-118179000D01*
X181329341Y-118013173D01*
X181259118Y-117908077D01*
X181235408Y-117872592D01*
X181199923Y-117848882D01*
X180080121Y-116729081D01*
X180056408Y-116693592D01*
X179915827Y-116599659D01*
X179791858Y-116575000D01*
X179791857Y-116575000D01*
X179750000Y-116566674D01*
X179708143Y-116575000D01*
X176110041Y-116575000D01*
X175088944Y-115553904D01*
X175171000Y-115355804D01*
X175171000Y-114918196D01*
X175511000Y-114918196D01*
X175511000Y-115355804D01*
X175678465Y-115760100D01*
X175987900Y-116069535D01*
X176392196Y-116237000D01*
X176829804Y-116237000D01*
X177234100Y-116069535D01*
X177325774Y-115977861D01*
X178527928Y-115977861D01*
X178622602Y-116126278D01*
X179041403Y-116253183D01*
X179476891Y-116210160D01*
X179679398Y-116126278D01*
X179774072Y-115977861D01*
X179151000Y-115354789D01*
X178527928Y-115977861D01*
X177325774Y-115977861D01*
X177543535Y-115760100D01*
X177711000Y-115355804D01*
X177711000Y-115027403D01*
X178034817Y-115027403D01*
X178077840Y-115462891D01*
X178161722Y-115665398D01*
X178310139Y-115760072D01*
X178933211Y-115137000D01*
X179368789Y-115137000D01*
X179991861Y-115760072D01*
X180140278Y-115665398D01*
X180267183Y-115246597D01*
X180234740Y-114918196D01*
X180591000Y-114918196D01*
X180591000Y-115355804D01*
X180758465Y-115760100D01*
X181067900Y-116069535D01*
X181472196Y-116237000D01*
X181909804Y-116237000D01*
X182314100Y-116069535D01*
X182623535Y-115760100D01*
X182791000Y-115355804D01*
X182791000Y-114918196D01*
X182623535Y-114513900D01*
X182314100Y-114204465D01*
X181909804Y-114037000D01*
X181472196Y-114037000D01*
X181067900Y-114204465D01*
X180758465Y-114513900D01*
X180591000Y-114918196D01*
X180234740Y-114918196D01*
X180224160Y-114811109D01*
X180140278Y-114608602D01*
X179991861Y-114513928D01*
X179368789Y-115137000D01*
X178933211Y-115137000D01*
X178310139Y-114513928D01*
X178161722Y-114608602D01*
X178034817Y-115027403D01*
X177711000Y-115027403D01*
X177711000Y-114918196D01*
X177543535Y-114513900D01*
X177325774Y-114296139D01*
X178527928Y-114296139D01*
X179151000Y-114919211D01*
X179774072Y-114296139D01*
X179679398Y-114147722D01*
X179260597Y-114020817D01*
X178825109Y-114063840D01*
X178622602Y-114147722D01*
X178527928Y-114296139D01*
X177325774Y-114296139D01*
X177234100Y-114204465D01*
X176829804Y-114037000D01*
X176392196Y-114037000D01*
X175987900Y-114204465D01*
X175678465Y-114513900D01*
X175511000Y-114918196D01*
X175171000Y-114918196D01*
X175003535Y-114513900D01*
X174694100Y-114204465D01*
X174289804Y-114037000D01*
X173852196Y-114037000D01*
X173447900Y-114204465D01*
X173138465Y-114513900D01*
X172971000Y-114918196D01*
X172631000Y-114918196D01*
X172463535Y-114513900D01*
X172154100Y-114204465D01*
X171749804Y-114037000D01*
X171312196Y-114037000D01*
X170907900Y-114204465D01*
X170598465Y-114513900D01*
X170431000Y-114918196D01*
X170091000Y-114918196D01*
X169923535Y-114513900D01*
X169614100Y-114204465D01*
X169209804Y-114037000D01*
X168772196Y-114037000D01*
X168367900Y-114204465D01*
X168058465Y-114513900D01*
X167891000Y-114918196D01*
X167551000Y-114918196D01*
X167383535Y-114513900D01*
X167074100Y-114204465D01*
X166669804Y-114037000D01*
X166232196Y-114037000D01*
X165827900Y-114204465D01*
X165518465Y-114513900D01*
X165351000Y-114918196D01*
X165011000Y-114918196D01*
X164843535Y-114513900D01*
X164534100Y-114204465D01*
X164129804Y-114037000D01*
X163692196Y-114037000D01*
X163287900Y-114204465D01*
X162978465Y-114513900D01*
X162811000Y-114918196D01*
X162471000Y-114918196D01*
X162303535Y-114513900D01*
X161994100Y-114204465D01*
X161589804Y-114037000D01*
X161152196Y-114037000D01*
X160747900Y-114204465D01*
X160438465Y-114513900D01*
X160271000Y-114918196D01*
X159931000Y-114918196D01*
X159763535Y-114513900D01*
X159454100Y-114204465D01*
X159049804Y-114037000D01*
X158612196Y-114037000D01*
X158207900Y-114204465D01*
X157898465Y-114513900D01*
X157731000Y-114918196D01*
X157391000Y-114918196D01*
X157223535Y-114513900D01*
X156914100Y-114204465D01*
X156509804Y-114037000D01*
X156072196Y-114037000D01*
X155667900Y-114204465D01*
X155358465Y-114513900D01*
X155191000Y-114918196D01*
X154851000Y-114918196D01*
X154683535Y-114513900D01*
X154374100Y-114204465D01*
X153969804Y-114037000D01*
X153532196Y-114037000D01*
X153127900Y-114204465D01*
X152818465Y-114513900D01*
X152651000Y-114918196D01*
X152311000Y-114918196D01*
X152143535Y-114513900D01*
X151834100Y-114204465D01*
X151429804Y-114037000D01*
X150992196Y-114037000D01*
X150587900Y-114204465D01*
X150278465Y-114513900D01*
X150111000Y-114918196D01*
X149771000Y-114918196D01*
X149603535Y-114513900D01*
X149294100Y-114204465D01*
X148889804Y-114037000D01*
X148452196Y-114037000D01*
X148047900Y-114204465D01*
X147738465Y-114513900D01*
X147571000Y-114918196D01*
X120148744Y-114918196D01*
X120148824Y-111729000D01*
X123770000Y-111729000D01*
X123770000Y-112409674D01*
X123815672Y-112519937D01*
X123900064Y-112604328D01*
X124010327Y-112650000D01*
X124691000Y-112650000D01*
X124766000Y-112575000D01*
X124766000Y-111654000D01*
X125074000Y-111654000D01*
X125074000Y-112575000D01*
X125149000Y-112650000D01*
X125829673Y-112650000D01*
X125939936Y-112604328D01*
X126024328Y-112519937D01*
X126070000Y-112409674D01*
X126070000Y-111729000D01*
X125995000Y-111654000D01*
X125074000Y-111654000D01*
X124766000Y-111654000D01*
X123845000Y-111654000D01*
X123770000Y-111729000D01*
X120148824Y-111729000D01*
X120148829Y-111500000D01*
X126287471Y-111500000D01*
X126376724Y-111948707D01*
X126630897Y-112329103D01*
X127011293Y-112583276D01*
X127346739Y-112650000D01*
X127573261Y-112650000D01*
X127908707Y-112583276D01*
X128289103Y-112329103D01*
X128543276Y-111948707D01*
X128632529Y-111500000D01*
X128827471Y-111500000D01*
X128916724Y-111948707D01*
X129170897Y-112329103D01*
X129551293Y-112583276D01*
X129886739Y-112650000D01*
X130113261Y-112650000D01*
X130448707Y-112583276D01*
X130829103Y-112329103D01*
X131083276Y-111948707D01*
X131172529Y-111500000D01*
X131367471Y-111500000D01*
X131456724Y-111948707D01*
X131710897Y-112329103D01*
X132091293Y-112583276D01*
X132426739Y-112650000D01*
X132653261Y-112650000D01*
X132988707Y-112583276D01*
X133295630Y-112378196D01*
X147571000Y-112378196D01*
X147571000Y-112815804D01*
X147738465Y-113220100D01*
X148047900Y-113529535D01*
X148452196Y-113697000D01*
X148889804Y-113697000D01*
X149294100Y-113529535D01*
X149603535Y-113220100D01*
X149771000Y-112815804D01*
X149771000Y-112378196D01*
X178051000Y-112378196D01*
X178051000Y-112815804D01*
X178218465Y-113220100D01*
X178527900Y-113529535D01*
X178932196Y-113697000D01*
X179369804Y-113697000D01*
X179774100Y-113529535D01*
X180083535Y-113220100D01*
X180251000Y-112815804D01*
X180251000Y-112378196D01*
X180083535Y-111973900D01*
X179774100Y-111664465D01*
X179369804Y-111497000D01*
X178932196Y-111497000D01*
X178527900Y-111664465D01*
X178218465Y-111973900D01*
X178051000Y-112378196D01*
X149771000Y-112378196D01*
X149603535Y-111973900D01*
X149294100Y-111664465D01*
X148889804Y-111497000D01*
X148452196Y-111497000D01*
X148047900Y-111664465D01*
X147738465Y-111973900D01*
X147571000Y-112378196D01*
X133295630Y-112378196D01*
X133369103Y-112329103D01*
X133623276Y-111948707D01*
X133712529Y-111500000D01*
X133623276Y-111051293D01*
X133369103Y-110670897D01*
X132988707Y-110416724D01*
X132653261Y-110350000D01*
X132426739Y-110350000D01*
X132091293Y-110416724D01*
X131710897Y-110670897D01*
X131456724Y-111051293D01*
X131367471Y-111500000D01*
X131172529Y-111500000D01*
X131083276Y-111051293D01*
X130829103Y-110670897D01*
X130448707Y-110416724D01*
X130113261Y-110350000D01*
X129886739Y-110350000D01*
X129551293Y-110416724D01*
X129170897Y-110670897D01*
X128916724Y-111051293D01*
X128827471Y-111500000D01*
X128632529Y-111500000D01*
X128543276Y-111051293D01*
X128289103Y-110670897D01*
X128010101Y-110484473D01*
X128018089Y-110472518D01*
X128050000Y-110312089D01*
X128050000Y-110312088D01*
X128060775Y-110257919D01*
X128050000Y-110203750D01*
X128050000Y-109838196D01*
X147571000Y-109838196D01*
X147571000Y-110275804D01*
X147738465Y-110680100D01*
X148047900Y-110989535D01*
X148452196Y-111157000D01*
X148889804Y-111157000D01*
X149294100Y-110989535D01*
X149603535Y-110680100D01*
X149771000Y-110275804D01*
X149771000Y-109838196D01*
X149603535Y-109433900D01*
X149294100Y-109124465D01*
X148889804Y-108957000D01*
X148452196Y-108957000D01*
X148047900Y-109124465D01*
X147738465Y-109433900D01*
X147571000Y-109838196D01*
X128050000Y-109838196D01*
X128050000Y-108357861D01*
X148047928Y-108357861D01*
X148142602Y-108506278D01*
X148561403Y-108633183D01*
X148996891Y-108590160D01*
X149199398Y-108506278D01*
X149294072Y-108357861D01*
X148671000Y-107734789D01*
X148047928Y-108357861D01*
X128050000Y-108357861D01*
X128050000Y-108227816D01*
X128870413Y-107407403D01*
X147554817Y-107407403D01*
X147597840Y-107842891D01*
X147681722Y-108045398D01*
X147830139Y-108140072D01*
X148453211Y-107517000D01*
X148888789Y-107517000D01*
X149511861Y-108140072D01*
X149660278Y-108045398D01*
X149787183Y-107626597D01*
X149744160Y-107191109D01*
X149660278Y-106988602D01*
X149511861Y-106893928D01*
X148888789Y-107517000D01*
X148453211Y-107517000D01*
X147830139Y-106893928D01*
X147681722Y-106988602D01*
X147554817Y-107407403D01*
X128870413Y-107407403D01*
X129601677Y-106676139D01*
X148047928Y-106676139D01*
X148671000Y-107299211D01*
X149294072Y-106676139D01*
X149199398Y-106527722D01*
X148780597Y-106400817D01*
X148345109Y-106443840D01*
X148142602Y-106527722D01*
X148047928Y-106676139D01*
X129601677Y-106676139D01*
X130877817Y-105400000D01*
X143532050Y-105400000D01*
X143575482Y-105443432D01*
X143832761Y-105550000D01*
X144111239Y-105550000D01*
X144368518Y-105443432D01*
X144411950Y-105400000D01*
X147655581Y-105400000D01*
X147738465Y-105600100D01*
X148047900Y-105909535D01*
X148452196Y-106077000D01*
X148889804Y-106077000D01*
X149294100Y-105909535D01*
X149603535Y-105600100D01*
X149633814Y-105527000D01*
X149748201Y-105527000D01*
X149802370Y-105537775D01*
X149856539Y-105527000D01*
X149856540Y-105527000D01*
X150016969Y-105495089D01*
X150198898Y-105373528D01*
X150229586Y-105327601D01*
X150411187Y-105146000D01*
X164360050Y-105146000D01*
X164403482Y-105189432D01*
X164660761Y-105296000D01*
X164939239Y-105296000D01*
X165196518Y-105189432D01*
X165393432Y-104992518D01*
X165500000Y-104735239D01*
X165500000Y-104456761D01*
X165393432Y-104199482D01*
X165196518Y-104002568D01*
X164939239Y-103896000D01*
X164660761Y-103896000D01*
X164403482Y-104002568D01*
X164360050Y-104046000D01*
X150237538Y-104046000D01*
X150183369Y-104035225D01*
X150129200Y-104046000D01*
X149968771Y-104077911D01*
X149968770Y-104077912D01*
X149968769Y-104077912D01*
X149860882Y-104150000D01*
X149786842Y-104199472D01*
X149756157Y-104245395D01*
X149616457Y-104385096D01*
X149603535Y-104353900D01*
X149294100Y-104044465D01*
X148889804Y-103877000D01*
X148452196Y-103877000D01*
X148047900Y-104044465D01*
X147792365Y-104300000D01*
X144411950Y-104300000D01*
X144368518Y-104256568D01*
X144111239Y-104150000D01*
X143832761Y-104150000D01*
X143575482Y-104256568D01*
X143532050Y-104300000D01*
X130704169Y-104300000D01*
X130650000Y-104289225D01*
X130595831Y-104300000D01*
X130595830Y-104300000D01*
X130435401Y-104331911D01*
X130253472Y-104453472D01*
X130222786Y-104499397D01*
X127149398Y-107572786D01*
X127103473Y-107603472D01*
X127072788Y-107649396D01*
X126981912Y-107785401D01*
X126939225Y-108000000D01*
X126950001Y-108054174D01*
X126950000Y-110071215D01*
X126941912Y-110083320D01*
X126899225Y-110297919D01*
X126910001Y-110352092D01*
X126910001Y-110484405D01*
X126630897Y-110670897D01*
X126376724Y-111051293D01*
X126287471Y-111500000D01*
X120148829Y-111500000D01*
X120148852Y-110590326D01*
X123770000Y-110590326D01*
X123770000Y-111271000D01*
X123845000Y-111346000D01*
X124766000Y-111346000D01*
X124766000Y-110425000D01*
X125074000Y-110425000D01*
X125074000Y-111346000D01*
X125995000Y-111346000D01*
X126070000Y-111271000D01*
X126070000Y-110590326D01*
X126024328Y-110480063D01*
X125939936Y-110395672D01*
X125829673Y-110350000D01*
X125149000Y-110350000D01*
X125074000Y-110425000D01*
X124766000Y-110425000D01*
X124691000Y-110350000D01*
X124010327Y-110350000D01*
X123900064Y-110395672D01*
X123815672Y-110480063D01*
X123770000Y-110590326D01*
X120148852Y-110590326D01*
X120149062Y-102218196D01*
X147571000Y-102218196D01*
X147571000Y-102655804D01*
X147738465Y-103060100D01*
X148047900Y-103369535D01*
X148452196Y-103537000D01*
X148889804Y-103537000D01*
X149294100Y-103369535D01*
X149603535Y-103060100D01*
X149771000Y-102655804D01*
X149771000Y-102218196D01*
X149603535Y-101813900D01*
X149294100Y-101504465D01*
X148889804Y-101337000D01*
X148452196Y-101337000D01*
X148047900Y-101504465D01*
X147738465Y-101813900D01*
X147571000Y-102218196D01*
X120149062Y-102218196D01*
X120149078Y-101600000D01*
X126000000Y-101600000D01*
X126038268Y-101592388D01*
X126070711Y-101570711D01*
X126092388Y-101538268D01*
X126100000Y-101500000D01*
X126100000Y-99678196D01*
X147571000Y-99678196D01*
X147571000Y-100115804D01*
X147738465Y-100520100D01*
X148047900Y-100829535D01*
X148452196Y-100997000D01*
X148889804Y-100997000D01*
X149294100Y-100829535D01*
X149603535Y-100520100D01*
X149771000Y-100115804D01*
X149771000Y-99678196D01*
X150111000Y-99678196D01*
X150111000Y-100115804D01*
X150278465Y-100520100D01*
X150587900Y-100829535D01*
X150992196Y-100997000D01*
X151429804Y-100997000D01*
X151834100Y-100829535D01*
X152143535Y-100520100D01*
X152311000Y-100115804D01*
X152311000Y-99678196D01*
X152651000Y-99678196D01*
X152651000Y-100115804D01*
X152818465Y-100520100D01*
X153127900Y-100829535D01*
X153532196Y-100997000D01*
X153969804Y-100997000D01*
X154374100Y-100829535D01*
X154683535Y-100520100D01*
X154851000Y-100115804D01*
X154851000Y-99678196D01*
X155191000Y-99678196D01*
X155191000Y-100115804D01*
X155358465Y-100520100D01*
X155667900Y-100829535D01*
X156072196Y-100997000D01*
X156509804Y-100997000D01*
X156914100Y-100829535D01*
X157223535Y-100520100D01*
X157391000Y-100115804D01*
X157391000Y-99678196D01*
X157731000Y-99678196D01*
X157731000Y-100115804D01*
X157898465Y-100520100D01*
X158207900Y-100829535D01*
X158612196Y-100997000D01*
X159049804Y-100997000D01*
X159454100Y-100829535D01*
X159763535Y-100520100D01*
X159931000Y-100115804D01*
X159931000Y-99678196D01*
X160271000Y-99678196D01*
X160271000Y-100115804D01*
X160438465Y-100520100D01*
X160747900Y-100829535D01*
X161152196Y-100997000D01*
X161589804Y-100997000D01*
X161994100Y-100829535D01*
X162303535Y-100520100D01*
X162471000Y-100115804D01*
X162471000Y-99678196D01*
X162303535Y-99273900D01*
X161994100Y-98964465D01*
X161589804Y-98797000D01*
X161152196Y-98797000D01*
X160747900Y-98964465D01*
X160438465Y-99273900D01*
X160271000Y-99678196D01*
X159931000Y-99678196D01*
X159763535Y-99273900D01*
X159454100Y-98964465D01*
X159049804Y-98797000D01*
X158612196Y-98797000D01*
X158207900Y-98964465D01*
X157898465Y-99273900D01*
X157731000Y-99678196D01*
X157391000Y-99678196D01*
X157223535Y-99273900D01*
X156914100Y-98964465D01*
X156509804Y-98797000D01*
X156072196Y-98797000D01*
X155667900Y-98964465D01*
X155358465Y-99273900D01*
X155191000Y-99678196D01*
X154851000Y-99678196D01*
X154683535Y-99273900D01*
X154374100Y-98964465D01*
X153969804Y-98797000D01*
X153532196Y-98797000D01*
X153127900Y-98964465D01*
X152818465Y-99273900D01*
X152651000Y-99678196D01*
X152311000Y-99678196D01*
X152143535Y-99273900D01*
X151834100Y-98964465D01*
X151429804Y-98797000D01*
X150992196Y-98797000D01*
X150587900Y-98964465D01*
X150278465Y-99273900D01*
X150111000Y-99678196D01*
X149771000Y-99678196D01*
X149603535Y-99273900D01*
X149294100Y-98964465D01*
X148889804Y-98797000D01*
X148452196Y-98797000D01*
X148047900Y-98964465D01*
X147738465Y-99273900D01*
X147571000Y-99678196D01*
X126100000Y-99678196D01*
X126100000Y-92912000D01*
X152959471Y-92912000D01*
X153048724Y-93360707D01*
X153302897Y-93741103D01*
X153683293Y-93995276D01*
X153707001Y-93999992D01*
X153707001Y-94326219D01*
X153698674Y-94368081D01*
X153731659Y-94533907D01*
X153731660Y-94533908D01*
X153825593Y-94674489D01*
X153861079Y-94698200D01*
X157171800Y-98008922D01*
X157195511Y-98044408D01*
X157230996Y-98068118D01*
X157336092Y-98138341D01*
X157501918Y-98171326D01*
X157543776Y-98163000D01*
X161575960Y-98163000D01*
X162893056Y-99480096D01*
X162811000Y-99678196D01*
X162811000Y-100115804D01*
X162978465Y-100520100D01*
X163287900Y-100829535D01*
X163692196Y-100997000D01*
X164129804Y-100997000D01*
X164534100Y-100829535D01*
X164843535Y-100520100D01*
X165011000Y-100115804D01*
X165011000Y-99678196D01*
X165351000Y-99678196D01*
X165351000Y-100115804D01*
X165518465Y-100520100D01*
X165827900Y-100829535D01*
X166232196Y-100997000D01*
X166669804Y-100997000D01*
X167074100Y-100829535D01*
X167383535Y-100520100D01*
X167551000Y-100115804D01*
X167551000Y-99678196D01*
X167891000Y-99678196D01*
X167891000Y-100115804D01*
X168058465Y-100520100D01*
X168367900Y-100829535D01*
X168772196Y-100997000D01*
X169209804Y-100997000D01*
X169614100Y-100829535D01*
X169923535Y-100520100D01*
X170091000Y-100115804D01*
X170091000Y-99678196D01*
X170431000Y-99678196D01*
X170431000Y-100115804D01*
X170598465Y-100520100D01*
X170907900Y-100829535D01*
X171312196Y-100997000D01*
X171749804Y-100997000D01*
X172154100Y-100829535D01*
X172463535Y-100520100D01*
X172631000Y-100115804D01*
X172631000Y-99678196D01*
X172971000Y-99678196D01*
X172971000Y-100115804D01*
X173138465Y-100520100D01*
X173447900Y-100829535D01*
X173852196Y-100997000D01*
X174289804Y-100997000D01*
X174694100Y-100829535D01*
X175003535Y-100520100D01*
X175171000Y-100115804D01*
X175171000Y-99678196D01*
X175511000Y-99678196D01*
X175511000Y-100115804D01*
X175678465Y-100520100D01*
X175987900Y-100829535D01*
X176392196Y-100997000D01*
X176829804Y-100997000D01*
X177234100Y-100829535D01*
X177543535Y-100520100D01*
X177711000Y-100115804D01*
X177711000Y-99678196D01*
X178051000Y-99678196D01*
X178051000Y-100115804D01*
X178218465Y-100520100D01*
X178527900Y-100829535D01*
X178932196Y-100997000D01*
X179369804Y-100997000D01*
X179774100Y-100829535D01*
X180083535Y-100520100D01*
X180246776Y-100126000D01*
X180591000Y-100126000D01*
X180591000Y-100756673D01*
X180636672Y-100866936D01*
X180721063Y-100951328D01*
X180831326Y-100997000D01*
X181462000Y-100997000D01*
X181537000Y-100922000D01*
X181537000Y-100051000D01*
X181845000Y-100051000D01*
X181845000Y-100922000D01*
X181920000Y-100997000D01*
X182550674Y-100997000D01*
X182660937Y-100951328D01*
X182745328Y-100866936D01*
X182791000Y-100756673D01*
X182791000Y-100126000D01*
X182716000Y-100051000D01*
X181845000Y-100051000D01*
X181537000Y-100051000D01*
X180666000Y-100051000D01*
X180591000Y-100126000D01*
X180246776Y-100126000D01*
X180251000Y-100115804D01*
X180251000Y-99678196D01*
X180083535Y-99273900D01*
X179846962Y-99037327D01*
X180591000Y-99037327D01*
X180591000Y-99668000D01*
X180666000Y-99743000D01*
X181537000Y-99743000D01*
X181537000Y-98872000D01*
X181845000Y-98872000D01*
X181845000Y-99743000D01*
X182716000Y-99743000D01*
X182791000Y-99668000D01*
X182791000Y-99037327D01*
X182745328Y-98927064D01*
X182660937Y-98842672D01*
X182550674Y-98797000D01*
X181920000Y-98797000D01*
X181845000Y-98872000D01*
X181537000Y-98872000D01*
X181462000Y-98797000D01*
X180831326Y-98797000D01*
X180721063Y-98842672D01*
X180636672Y-98927064D01*
X180591000Y-99037327D01*
X179846962Y-99037327D01*
X179774100Y-98964465D01*
X179369804Y-98797000D01*
X178932196Y-98797000D01*
X178527900Y-98964465D01*
X178218465Y-99273900D01*
X178051000Y-99678196D01*
X177711000Y-99678196D01*
X177543535Y-99273900D01*
X177234100Y-98964465D01*
X176829804Y-98797000D01*
X176392196Y-98797000D01*
X175987900Y-98964465D01*
X175678465Y-99273900D01*
X175511000Y-99678196D01*
X175171000Y-99678196D01*
X175003535Y-99273900D01*
X174694100Y-98964465D01*
X174289804Y-98797000D01*
X173852196Y-98797000D01*
X173447900Y-98964465D01*
X173138465Y-99273900D01*
X172971000Y-99678196D01*
X172631000Y-99678196D01*
X172463535Y-99273900D01*
X172154100Y-98964465D01*
X171749804Y-98797000D01*
X171312196Y-98797000D01*
X170907900Y-98964465D01*
X170598465Y-99273900D01*
X170431000Y-99678196D01*
X170091000Y-99678196D01*
X169923535Y-99273900D01*
X169614100Y-98964465D01*
X169209804Y-98797000D01*
X168772196Y-98797000D01*
X168367900Y-98964465D01*
X168058465Y-99273900D01*
X167891000Y-99678196D01*
X167551000Y-99678196D01*
X167383535Y-99273900D01*
X167074100Y-98964465D01*
X166669804Y-98797000D01*
X166232196Y-98797000D01*
X165827900Y-98964465D01*
X165518465Y-99273900D01*
X165351000Y-99678196D01*
X165011000Y-99678196D01*
X164843535Y-99273900D01*
X164534100Y-98964465D01*
X164129804Y-98797000D01*
X163692196Y-98797000D01*
X163494096Y-98879056D01*
X162082121Y-97467081D01*
X162058408Y-97431592D01*
X161917827Y-97337659D01*
X161793858Y-97313000D01*
X161793857Y-97313000D01*
X161752000Y-97304674D01*
X161710143Y-97313000D01*
X157677960Y-97313000D01*
X156864960Y-96500000D01*
X169287471Y-96500000D01*
X169376724Y-96948707D01*
X169630897Y-97329103D01*
X170011293Y-97583276D01*
X170346739Y-97650000D01*
X170573261Y-97650000D01*
X170908707Y-97583276D01*
X171289103Y-97329103D01*
X171543276Y-96948707D01*
X171632529Y-96500000D01*
X171543276Y-96051293D01*
X171289103Y-95670897D01*
X171257829Y-95650000D01*
X171844123Y-95650000D01*
X171844123Y-97350000D01*
X171867407Y-97467054D01*
X171933712Y-97566288D01*
X172032946Y-97632593D01*
X172150000Y-97655877D01*
X173850000Y-97655877D01*
X173967054Y-97632593D01*
X174066288Y-97566288D01*
X174132593Y-97467054D01*
X174155877Y-97350000D01*
X174155877Y-96925000D01*
X175240143Y-96925000D01*
X175282000Y-96933326D01*
X175323857Y-96925000D01*
X175323858Y-96925000D01*
X175447827Y-96900341D01*
X175588408Y-96806408D01*
X175612121Y-96770919D01*
X178913146Y-93469895D01*
X178949783Y-93494375D01*
X179418000Y-93587509D01*
X179886216Y-93494375D01*
X180283152Y-93229152D01*
X180548375Y-92832217D01*
X180618000Y-92482188D01*
X180618000Y-91245812D01*
X180548375Y-90895783D01*
X180283152Y-90498848D01*
X179886217Y-90233625D01*
X179418000Y-90140491D01*
X178949784Y-90233625D01*
X178552849Y-90498848D01*
X178287625Y-90895783D01*
X178218000Y-91245812D01*
X178218000Y-92482187D01*
X178287625Y-92832216D01*
X178312105Y-92868854D01*
X175105960Y-96075000D01*
X174155877Y-96075000D01*
X174155877Y-95650000D01*
X174132593Y-95532946D01*
X174066288Y-95433712D01*
X173967054Y-95367407D01*
X173850000Y-95344123D01*
X172150000Y-95344123D01*
X172032946Y-95367407D01*
X171933712Y-95433712D01*
X171867407Y-95532946D01*
X171844123Y-95650000D01*
X171257829Y-95650000D01*
X170908707Y-95416724D01*
X170573261Y-95350000D01*
X170346739Y-95350000D01*
X170011293Y-95416724D01*
X169630897Y-95670897D01*
X169376724Y-96051293D01*
X169287471Y-96500000D01*
X156864960Y-96500000D01*
X154557000Y-94192041D01*
X154557000Y-93999992D01*
X154580707Y-93995276D01*
X154961103Y-93741103D01*
X155215276Y-93360707D01*
X155304529Y-92912000D01*
X155499471Y-92912000D01*
X155588724Y-93360707D01*
X155842897Y-93741103D01*
X156223293Y-93995276D01*
X156558739Y-94062000D01*
X156785261Y-94062000D01*
X157120707Y-93995276D01*
X157501103Y-93741103D01*
X157755276Y-93360707D01*
X157844529Y-92912000D01*
X157755276Y-92463293D01*
X157501103Y-92082897D01*
X157469829Y-92062000D01*
X158056123Y-92062000D01*
X158056123Y-93762000D01*
X158079407Y-93879054D01*
X158145712Y-93978288D01*
X158244946Y-94044593D01*
X158362000Y-94067877D01*
X160062000Y-94067877D01*
X160179054Y-94044593D01*
X160278288Y-93978288D01*
X160344593Y-93879054D01*
X160367877Y-93762000D01*
X160367877Y-92912000D01*
X162865471Y-92912000D01*
X162954724Y-93360707D01*
X163208897Y-93741103D01*
X163589293Y-93995276D01*
X163924739Y-94062000D01*
X164151261Y-94062000D01*
X164486707Y-93995276D01*
X164867103Y-93741103D01*
X165121276Y-93360707D01*
X165164978Y-93141000D01*
X165428000Y-93141000D01*
X165428000Y-93821674D01*
X165473672Y-93931937D01*
X165558064Y-94016328D01*
X165668327Y-94062000D01*
X166349000Y-94062000D01*
X166424000Y-93987000D01*
X166424000Y-93066000D01*
X166732000Y-93066000D01*
X166732000Y-93987000D01*
X166807000Y-94062000D01*
X167487673Y-94062000D01*
X167597936Y-94016328D01*
X167682328Y-93931937D01*
X167728000Y-93821674D01*
X167728000Y-93141000D01*
X167653000Y-93066000D01*
X166732000Y-93066000D01*
X166424000Y-93066000D01*
X165503000Y-93066000D01*
X165428000Y-93141000D01*
X165164978Y-93141000D01*
X165210529Y-92912000D01*
X165121276Y-92463293D01*
X164867103Y-92082897D01*
X164746521Y-92002326D01*
X165428000Y-92002326D01*
X165428000Y-92683000D01*
X165503000Y-92758000D01*
X166424000Y-92758000D01*
X166424000Y-91837000D01*
X166732000Y-91837000D01*
X166732000Y-92758000D01*
X167653000Y-92758000D01*
X167728000Y-92683000D01*
X167728000Y-92002326D01*
X167682328Y-91892063D01*
X167597936Y-91807672D01*
X167487673Y-91762000D01*
X166807000Y-91762000D01*
X166732000Y-91837000D01*
X166424000Y-91837000D01*
X166349000Y-91762000D01*
X165668327Y-91762000D01*
X165558064Y-91807672D01*
X165473672Y-91892063D01*
X165428000Y-92002326D01*
X164746521Y-92002326D01*
X164486707Y-91828724D01*
X164151261Y-91762000D01*
X163924739Y-91762000D01*
X163589293Y-91828724D01*
X163208897Y-92082897D01*
X162954724Y-92463293D01*
X162865471Y-92912000D01*
X160367877Y-92912000D01*
X160367877Y-92062000D01*
X160344593Y-91944946D01*
X160278288Y-91845712D01*
X160179054Y-91779407D01*
X160062000Y-91756123D01*
X158362000Y-91756123D01*
X158244946Y-91779407D01*
X158145712Y-91845712D01*
X158079407Y-91944946D01*
X158056123Y-92062000D01*
X157469829Y-92062000D01*
X157120707Y-91828724D01*
X156785261Y-91762000D01*
X156558739Y-91762000D01*
X156223293Y-91828724D01*
X155842897Y-92082897D01*
X155588724Y-92463293D01*
X155499471Y-92912000D01*
X155304529Y-92912000D01*
X155215276Y-92463293D01*
X154961103Y-92082897D01*
X154580707Y-91828724D01*
X154245261Y-91762000D01*
X154018739Y-91762000D01*
X153683293Y-91828724D01*
X153302897Y-92082897D01*
X153048724Y-92463293D01*
X152959471Y-92912000D01*
X126100000Y-92912000D01*
X126100000Y-91500000D01*
X126092388Y-91461732D01*
X126070711Y-91429289D01*
X126038268Y-91407612D01*
X126000000Y-91400000D01*
X120149333Y-91400000D01*
X120149336Y-91245812D01*
X172718000Y-91245812D01*
X172718000Y-92482187D01*
X172787625Y-92832216D01*
X173052848Y-93229152D01*
X173449783Y-93494375D01*
X173918000Y-93587509D01*
X174386216Y-93494375D01*
X174783152Y-93229152D01*
X175048375Y-92832217D01*
X175118000Y-92482188D01*
X175118000Y-91245812D01*
X175048375Y-90895783D01*
X174783152Y-90498848D01*
X174386217Y-90233625D01*
X173918000Y-90140491D01*
X173449784Y-90233625D01*
X173052849Y-90498848D01*
X172787625Y-90895783D01*
X172718000Y-91245812D01*
X120149336Y-91245812D01*
X120149366Y-90018000D01*
X180618000Y-90018000D01*
X180618000Y-90518000D01*
X180768278Y-90965498D01*
X181078367Y-91321423D01*
X181479727Y-91515334D01*
X181664000Y-91478410D01*
X181664000Y-90018000D01*
X181972000Y-90018000D01*
X181972000Y-91478410D01*
X182156273Y-91515334D01*
X182557633Y-91321423D01*
X182867722Y-90965498D01*
X183018000Y-90518000D01*
X183018000Y-90018000D01*
X181972000Y-90018000D01*
X181664000Y-90018000D01*
X180618000Y-90018000D01*
X120149366Y-90018000D01*
X120149386Y-89210000D01*
X180618000Y-89210000D01*
X180618000Y-89710000D01*
X181664000Y-89710000D01*
X181664000Y-88249590D01*
X181972000Y-88249590D01*
X181972000Y-89710000D01*
X183018000Y-89710000D01*
X183018000Y-89210000D01*
X182867722Y-88762502D01*
X182557633Y-88406577D01*
X182156273Y-88212666D01*
X181972000Y-88249590D01*
X181664000Y-88249590D01*
X181479727Y-88212666D01*
X181078367Y-88406577D01*
X180768278Y-88762502D01*
X180618000Y-89210000D01*
X120149386Y-89210000D01*
X120149617Y-80003142D01*
X169338000Y-80003142D01*
X169338000Y-80420858D01*
X169497853Y-80806777D01*
X169793223Y-81102147D01*
X170179142Y-81262000D01*
X170596858Y-81262000D01*
X170982777Y-81102147D01*
X171278147Y-80806777D01*
X171309120Y-80732000D01*
X171872123Y-80732000D01*
X171872123Y-82232000D01*
X171895407Y-82349054D01*
X171961712Y-82448288D01*
X172060946Y-82514593D01*
X172178000Y-82537877D01*
X173678000Y-82537877D01*
X173795054Y-82514593D01*
X173894288Y-82448288D01*
X173943880Y-82374067D01*
X177378000Y-82374067D01*
X177378000Y-83129933D01*
X177667258Y-83828263D01*
X178201737Y-84362742D01*
X178900067Y-84652000D01*
X179655933Y-84652000D01*
X180354263Y-84362742D01*
X180888742Y-83828263D01*
X181178000Y-83129933D01*
X181178000Y-82374067D01*
X180888742Y-81675737D01*
X180354263Y-81141258D01*
X179655933Y-80852000D01*
X178900067Y-80852000D01*
X178201737Y-81141258D01*
X177667258Y-81675737D01*
X177378000Y-82374067D01*
X173943880Y-82374067D01*
X173960593Y-82349054D01*
X173983877Y-82232000D01*
X173983877Y-80732000D01*
X173960593Y-80614946D01*
X173894288Y-80515712D01*
X173795054Y-80449407D01*
X173678000Y-80426123D01*
X172178000Y-80426123D01*
X172060946Y-80449407D01*
X171961712Y-80515712D01*
X171895407Y-80614946D01*
X171872123Y-80732000D01*
X171309120Y-80732000D01*
X171438000Y-80420858D01*
X171438000Y-80003142D01*
X171278147Y-79617223D01*
X170982777Y-79321853D01*
X170596858Y-79162000D01*
X170179142Y-79162000D01*
X169793223Y-79321853D01*
X169497853Y-79617223D01*
X169338000Y-80003142D01*
X120149617Y-80003142D01*
X120149648Y-78733142D01*
X171878000Y-78733142D01*
X171878000Y-79150858D01*
X172037853Y-79536777D01*
X172333223Y-79832147D01*
X172719142Y-79992000D01*
X173136858Y-79992000D01*
X173522777Y-79832147D01*
X173818147Y-79536777D01*
X173978000Y-79150858D01*
X173978000Y-78733142D01*
X173818147Y-78347223D01*
X173522777Y-78051853D01*
X173136858Y-77892000D01*
X172719142Y-77892000D01*
X172333223Y-78051853D01*
X172037853Y-78347223D01*
X171878000Y-78733142D01*
X120149648Y-78733142D01*
X120149680Y-77463142D01*
X169338000Y-77463142D01*
X169338000Y-77880858D01*
X169497853Y-78266777D01*
X169793223Y-78562147D01*
X170179142Y-78722000D01*
X170596858Y-78722000D01*
X170982777Y-78562147D01*
X171278147Y-78266777D01*
X171438000Y-77880858D01*
X171438000Y-77463142D01*
X171278147Y-77077223D01*
X170982777Y-76781853D01*
X170596858Y-76622000D01*
X170179142Y-76622000D01*
X169793223Y-76781853D01*
X169497853Y-77077223D01*
X169338000Y-77463142D01*
X120149680Y-77463142D01*
X120149990Y-65102188D01*
X126980562Y-64926147D01*
X127875001Y-64914122D01*
X127875000Y-72070976D01*
X127875000Y-72070976D01*
G37*
X127875000Y-72070976D02*
X127876929Y-72080674D01*
X127897426Y-72471786D01*
X127898831Y-72480862D01*
X127898831Y-72490056D01*
X127904837Y-72528846D01*
X128070162Y-73320212D01*
X128075708Y-73337694D01*
X128079397Y-73355667D01*
X128093079Y-73392457D01*
X128414154Y-74134416D01*
X128423104Y-74150430D01*
X128430330Y-74167289D01*
X128451125Y-74200568D01*
X128451130Y-74200577D01*
X128451134Y-74200581D01*
X128914838Y-74862820D01*
X128926827Y-74876709D01*
X128937293Y-74891768D01*
X128964353Y-74920183D01*
X128964362Y-74920194D01*
X128964368Y-74920198D01*
X129551761Y-75475670D01*
X129566290Y-75486859D01*
X129579579Y-75499514D01*
X129611801Y-75521908D01*
X129611810Y-75521915D01*
X129611815Y-75521917D01*
X130298907Y-75947932D01*
X130315392Y-75955972D01*
X130330950Y-75965694D01*
X130367028Y-75981157D01*
X131125753Y-76260314D01*
X131143522Y-76264876D01*
X131160714Y-76271270D01*
X131199164Y-76279163D01*
X131998525Y-76400055D01*
X132016850Y-76400951D01*
X132034975Y-76403757D01*
X132074227Y-76403757D01*
X132881569Y-76361446D01*
X132899692Y-76358640D01*
X132918019Y-76357744D01*
X132956469Y-76349851D01*
X133558083Y-76193142D01*
X171878000Y-76193142D01*
X171878000Y-76610858D01*
X172037853Y-76996777D01*
X172333223Y-77292147D01*
X172719142Y-77452000D01*
X173136858Y-77452000D01*
X173522777Y-77292147D01*
X173818147Y-76996777D01*
X173978000Y-76610858D01*
X173978000Y-76193142D01*
X173818147Y-75807223D01*
X173522777Y-75511853D01*
X173136858Y-75352000D01*
X172719142Y-75352000D01*
X172333223Y-75511853D01*
X172037853Y-75807223D01*
X171878000Y-76193142D01*
X133558083Y-76193142D01*
X133738815Y-76146065D01*
X133756009Y-76139671D01*
X133773775Y-76135109D01*
X133809853Y-76119646D01*
X134535242Y-75762710D01*
X134550796Y-75752991D01*
X134567286Y-75744948D01*
X134599517Y-75722546D01*
X135238318Y-75227041D01*
X135251600Y-75214393D01*
X135266136Y-75203199D01*
X135293195Y-75174784D01*
X135293205Y-75174774D01*
X135293209Y-75174769D01*
X135508879Y-74923142D01*
X169338000Y-74923142D01*
X169338000Y-75340858D01*
X169497853Y-75726777D01*
X169793223Y-76022147D01*
X170179142Y-76182000D01*
X170596858Y-76182000D01*
X170982777Y-76022147D01*
X171278147Y-75726777D01*
X171438000Y-75340858D01*
X171438000Y-74923142D01*
X171278147Y-74537223D01*
X170982777Y-74241853D01*
X170596858Y-74082000D01*
X170179142Y-74082000D01*
X169793223Y-74241853D01*
X169497853Y-74537223D01*
X169338000Y-74923142D01*
X135508879Y-74923142D01*
X135819323Y-74560941D01*
X135829791Y-74545879D01*
X135841779Y-74531991D01*
X135862579Y-74498704D01*
X136254524Y-73791617D01*
X136261750Y-73774758D01*
X136270699Y-73758745D01*
X136284381Y-73721954D01*
X136386404Y-73396396D01*
X169801393Y-73396396D01*
X169889867Y-73539621D01*
X170290424Y-73658116D01*
X170337584Y-73653142D01*
X171878000Y-73653142D01*
X171878000Y-74070858D01*
X172037853Y-74456777D01*
X172333223Y-74752147D01*
X172719142Y-74912000D01*
X173136858Y-74912000D01*
X173522777Y-74752147D01*
X173818147Y-74456777D01*
X173978000Y-74070858D01*
X173978000Y-73653142D01*
X173818147Y-73267223D01*
X173522777Y-72971853D01*
X173136858Y-72812000D01*
X172719142Y-72812000D01*
X172333223Y-72971853D01*
X172037853Y-73267223D01*
X171878000Y-73653142D01*
X170337584Y-73653142D01*
X170705837Y-73614303D01*
X170886133Y-73539621D01*
X170974607Y-73396396D01*
X170388000Y-72809789D01*
X169801393Y-73396396D01*
X136386404Y-73396396D01*
X136526141Y-72950498D01*
X136529829Y-72932534D01*
X136535377Y-72915044D01*
X136541378Y-72876274D01*
X136541382Y-72876254D01*
X136541382Y-72876244D01*
X136580166Y-72494424D01*
X169321884Y-72494424D01*
X169365697Y-72909837D01*
X169440379Y-73090133D01*
X169583604Y-73178607D01*
X170170211Y-72592000D01*
X170605789Y-72592000D01*
X171192396Y-73178607D01*
X171335621Y-73090133D01*
X171454116Y-72689576D01*
X171410303Y-72274163D01*
X171335621Y-72093867D01*
X171192396Y-72005393D01*
X170605789Y-72592000D01*
X170170211Y-72592000D01*
X169583604Y-72005393D01*
X169440379Y-72093867D01*
X169321884Y-72494424D01*
X136580166Y-72494424D01*
X136621277Y-72089696D01*
X136625000Y-72070977D01*
X136625000Y-69872067D01*
X155350000Y-69872067D01*
X155350000Y-70627933D01*
X155639258Y-71326263D01*
X156173737Y-71860742D01*
X156872067Y-72150000D01*
X157627933Y-72150000D01*
X158326263Y-71860742D01*
X158399401Y-71787604D01*
X169801393Y-71787604D01*
X170388000Y-72374211D01*
X170974607Y-71787604D01*
X170886133Y-71644379D01*
X170485576Y-71525884D01*
X170070163Y-71569697D01*
X169889867Y-71644379D01*
X169801393Y-71787604D01*
X158399401Y-71787604D01*
X158860742Y-71326263D01*
X159019052Y-70944067D01*
X177378000Y-70944067D01*
X177378000Y-71699933D01*
X177667258Y-72398263D01*
X178201737Y-72932742D01*
X178900067Y-73222000D01*
X179655933Y-73222000D01*
X180354263Y-72932742D01*
X180888742Y-72398263D01*
X181178000Y-71699933D01*
X181178000Y-70944067D01*
X180888742Y-70245737D01*
X180354263Y-69711258D01*
X179655933Y-69422000D01*
X178900067Y-69422000D01*
X178201737Y-69711258D01*
X177667258Y-70245737D01*
X177378000Y-70944067D01*
X159019052Y-70944067D01*
X159150000Y-70627933D01*
X159150000Y-69872067D01*
X158860742Y-69173737D01*
X158326263Y-68639258D01*
X157627933Y-68350000D01*
X156872067Y-68350000D01*
X156173737Y-68639258D01*
X155639258Y-69173737D01*
X155350000Y-69872067D01*
X136625000Y-69872067D01*
X136625000Y-64998592D01*
X143459440Y-65149423D01*
X150669215Y-65459705D01*
X157870917Y-65920908D01*
X165061351Y-66532829D01*
X172237449Y-67295205D01*
X179396639Y-68207781D01*
X183850001Y-68854863D01*
X183850000Y-128177967D01*
X177048468Y-129142382D01*
X169883838Y-130005641D01*
X162702674Y-130718668D01*
X155508164Y-131281148D01*
X148303465Y-131692833D01*
X141091079Y-131953567D01*
X136625000Y-132036773D01*
X136625000Y-126372067D01*
X155350000Y-126372067D01*
X155350000Y-127127933D01*
X155639258Y-127826263D01*
X156173737Y-128360742D01*
X156872067Y-128650000D01*
X157627933Y-128650000D01*
X158326263Y-128360742D01*
X158860742Y-127826263D01*
X159150000Y-127127933D01*
X159150000Y-126372067D01*
X158919472Y-125815523D01*
X177029000Y-125815523D01*
X177029000Y-126372477D01*
X177242137Y-126887037D01*
X177635963Y-127280863D01*
X178150523Y-127494000D01*
X178707477Y-127494000D01*
X179222037Y-127280863D01*
X179615863Y-126887037D01*
X179829000Y-126372477D01*
X179829000Y-125815523D01*
X179789967Y-125721288D01*
X180269501Y-125721288D01*
X180370363Y-125874898D01*
X180807394Y-126010206D01*
X181262939Y-125967971D01*
X181487637Y-125874898D01*
X181588499Y-125721288D01*
X180929000Y-125061789D01*
X180269501Y-125721288D01*
X179789967Y-125721288D01*
X179615863Y-125300963D01*
X179222037Y-124907137D01*
X178776027Y-124722394D01*
X179762794Y-124722394D01*
X179805029Y-125177939D01*
X179898102Y-125402637D01*
X180051712Y-125503499D01*
X180711211Y-124844000D01*
X181146789Y-124844000D01*
X181806288Y-125503499D01*
X181959898Y-125402637D01*
X182095206Y-124965606D01*
X182052971Y-124510061D01*
X181959898Y-124285363D01*
X181806288Y-124184501D01*
X181146789Y-124844000D01*
X180711211Y-124844000D01*
X180051712Y-124184501D01*
X179898102Y-124285363D01*
X179762794Y-124722394D01*
X178776027Y-124722394D01*
X178707477Y-124694000D01*
X178150523Y-124694000D01*
X177635963Y-124907137D01*
X177242137Y-125300963D01*
X177029000Y-125815523D01*
X158919472Y-125815523D01*
X158860742Y-125673737D01*
X158326263Y-125139258D01*
X157627933Y-124850000D01*
X156872067Y-124850000D01*
X156173737Y-125139258D01*
X155639258Y-125673737D01*
X155350000Y-126372067D01*
X136625000Y-126372067D01*
X136625000Y-124963069D01*
X136623071Y-124953370D01*
X136602574Y-124562260D01*
X136601169Y-124553184D01*
X136601169Y-124543990D01*
X136595163Y-124505200D01*
X136482667Y-123966712D01*
X180269501Y-123966712D01*
X180929000Y-124626211D01*
X181588499Y-123966712D01*
X181487637Y-123813102D01*
X181050606Y-123677794D01*
X180595061Y-123720029D01*
X180370363Y-123813102D01*
X180269501Y-123966712D01*
X136482667Y-123966712D01*
X136429838Y-123713834D01*
X136424292Y-123696351D01*
X136420603Y-123678380D01*
X136406921Y-123641590D01*
X136085846Y-122899630D01*
X136076899Y-122883622D01*
X136069671Y-122866757D01*
X136048870Y-122833470D01*
X135585162Y-122171227D01*
X135573177Y-122157342D01*
X135562707Y-122142278D01*
X135535647Y-122113863D01*
X135535638Y-122113852D01*
X135535632Y-122113848D01*
X134948239Y-121558376D01*
X134933710Y-121547187D01*
X134920421Y-121534532D01*
X134888199Y-121512138D01*
X134888190Y-121512131D01*
X134888185Y-121512129D01*
X134201093Y-121086114D01*
X134184608Y-121078074D01*
X134169050Y-121068352D01*
X134132972Y-121052889D01*
X133374247Y-120773732D01*
X133356478Y-120769170D01*
X133339286Y-120762776D01*
X133300836Y-120754883D01*
X132501475Y-120633991D01*
X132483150Y-120633095D01*
X132465025Y-120630289D01*
X132425773Y-120630289D01*
X131618431Y-120672600D01*
X131600308Y-120675406D01*
X131581981Y-120676302D01*
X131543531Y-120684195D01*
X130761186Y-120887981D01*
X130743994Y-120894375D01*
X130726225Y-120898937D01*
X130690147Y-120914400D01*
X129964758Y-121271336D01*
X129949204Y-121281055D01*
X129932714Y-121289098D01*
X129900483Y-121311500D01*
X129261682Y-121807005D01*
X129248397Y-121819656D01*
X129233864Y-121830848D01*
X129206805Y-121859262D01*
X129206795Y-121859272D01*
X129206791Y-121859277D01*
X128680676Y-122473106D01*
X128670207Y-122488168D01*
X128658221Y-122502055D01*
X128637421Y-122535342D01*
X128245477Y-123242428D01*
X128238252Y-123259285D01*
X128229301Y-123275301D01*
X128215619Y-123312091D01*
X127973859Y-124083548D01*
X127970172Y-124101510D01*
X127964623Y-124119002D01*
X127958619Y-124157792D01*
X127878723Y-124944352D01*
X127875000Y-124963070D01*
X127875001Y-132116632D01*
X121036282Y-131965707D01*
X120148319Y-131935158D01*
X120148646Y-118815523D01*
X177029000Y-118815523D01*
X177029000Y-119372477D01*
X177242137Y-119887037D01*
X177635963Y-120280863D01*
X178150523Y-120494000D01*
X178707477Y-120494000D01*
X179222037Y-120280863D01*
X179615863Y-119887037D01*
X179829000Y-119372477D01*
X179829000Y-118815523D01*
X179615863Y-118300963D01*
X179222037Y-117907137D01*
X178707477Y-117694000D01*
X178150523Y-117694000D01*
X177635963Y-117907137D01*
X177242137Y-118300963D01*
X177029000Y-118815523D01*
X120148646Y-118815523D01*
X120148744Y-114918196D01*
X147571000Y-114918196D01*
X147571000Y-115355804D01*
X147738465Y-115760100D01*
X148047900Y-116069535D01*
X148452196Y-116237000D01*
X148889804Y-116237000D01*
X149294100Y-116069535D01*
X149603535Y-115760100D01*
X149771000Y-115355804D01*
X149771000Y-114918196D01*
X150111000Y-114918196D01*
X150111000Y-115355804D01*
X150278465Y-115760100D01*
X150587900Y-116069535D01*
X150992196Y-116237000D01*
X151429804Y-116237000D01*
X151834100Y-116069535D01*
X152143535Y-115760100D01*
X152311000Y-115355804D01*
X152311000Y-114918196D01*
X152651000Y-114918196D01*
X152651000Y-115355804D01*
X152818465Y-115760100D01*
X153127900Y-116069535D01*
X153532196Y-116237000D01*
X153969804Y-116237000D01*
X154374100Y-116069535D01*
X154683535Y-115760100D01*
X154851000Y-115355804D01*
X154851000Y-114918196D01*
X155191000Y-114918196D01*
X155191000Y-115355804D01*
X155358465Y-115760100D01*
X155667900Y-116069535D01*
X156072196Y-116237000D01*
X156509804Y-116237000D01*
X156914100Y-116069535D01*
X157223535Y-115760100D01*
X157391000Y-115355804D01*
X157391000Y-114918196D01*
X157731000Y-114918196D01*
X157731000Y-115355804D01*
X157898465Y-115760100D01*
X158207900Y-116069535D01*
X158612196Y-116237000D01*
X159049804Y-116237000D01*
X159454100Y-116069535D01*
X159763535Y-115760100D01*
X159931000Y-115355804D01*
X159931000Y-114918196D01*
X160271000Y-114918196D01*
X160271000Y-115355804D01*
X160438465Y-115760100D01*
X160747900Y-116069535D01*
X161152196Y-116237000D01*
X161589804Y-116237000D01*
X161994100Y-116069535D01*
X162303535Y-115760100D01*
X162471000Y-115355804D01*
X162471000Y-114918196D01*
X162811000Y-114918196D01*
X162811000Y-115355804D01*
X162978465Y-115760100D01*
X163287900Y-116069535D01*
X163692196Y-116237000D01*
X164129804Y-116237000D01*
X164534100Y-116069535D01*
X164843535Y-115760100D01*
X165011000Y-115355804D01*
X165011000Y-114918196D01*
X165351000Y-114918196D01*
X165351000Y-115355804D01*
X165518465Y-115760100D01*
X165827900Y-116069535D01*
X166232196Y-116237000D01*
X166669804Y-116237000D01*
X167074100Y-116069535D01*
X167383535Y-115760100D01*
X167551000Y-115355804D01*
X167551000Y-114918196D01*
X167891000Y-114918196D01*
X167891000Y-115355804D01*
X168058465Y-115760100D01*
X168367900Y-116069535D01*
X168772196Y-116237000D01*
X169209804Y-116237000D01*
X169614100Y-116069535D01*
X169923535Y-115760100D01*
X170091000Y-115355804D01*
X170091000Y-114918196D01*
X170431000Y-114918196D01*
X170431000Y-115355804D01*
X170598465Y-115760100D01*
X170907900Y-116069535D01*
X171312196Y-116237000D01*
X171749804Y-116237000D01*
X172154100Y-116069535D01*
X172463535Y-115760100D01*
X172631000Y-115355804D01*
X172631000Y-114918196D01*
X172971000Y-114918196D01*
X172971000Y-115355804D01*
X173138465Y-115760100D01*
X173447900Y-116069535D01*
X173852196Y-116237000D01*
X174289804Y-116237000D01*
X174487904Y-116154944D01*
X175603881Y-117270922D01*
X175627592Y-117306408D01*
X175663077Y-117330118D01*
X175768173Y-117400341D01*
X175934000Y-117433326D01*
X175975857Y-117425000D01*
X179573960Y-117425000D01*
X180504000Y-118355041D01*
X180504001Y-119275289D01*
X180277577Y-119369077D01*
X179954077Y-119692577D01*
X179779000Y-120115251D01*
X179779000Y-120572749D01*
X179954077Y-120995423D01*
X180277577Y-121318923D01*
X180700251Y-121494000D01*
X181157749Y-121494000D01*
X181580423Y-121318923D01*
X181903923Y-120995423D01*
X182079000Y-120572749D01*
X182079000Y-120115251D01*
X181903923Y-119692577D01*
X181580423Y-119369077D01*
X181354000Y-119275290D01*
X181354000Y-118220857D01*
X181362326Y-118179000D01*
X181329341Y-118013173D01*
X181259118Y-117908077D01*
X181235408Y-117872592D01*
X181199923Y-117848882D01*
X180080121Y-116729081D01*
X180056408Y-116693592D01*
X179915827Y-116599659D01*
X179791858Y-116575000D01*
X179791857Y-116575000D01*
X179750000Y-116566674D01*
X179708143Y-116575000D01*
X176110041Y-116575000D01*
X175088944Y-115553904D01*
X175171000Y-115355804D01*
X175171000Y-114918196D01*
X175511000Y-114918196D01*
X175511000Y-115355804D01*
X175678465Y-115760100D01*
X175987900Y-116069535D01*
X176392196Y-116237000D01*
X176829804Y-116237000D01*
X177234100Y-116069535D01*
X177325774Y-115977861D01*
X178527928Y-115977861D01*
X178622602Y-116126278D01*
X179041403Y-116253183D01*
X179476891Y-116210160D01*
X179679398Y-116126278D01*
X179774072Y-115977861D01*
X179151000Y-115354789D01*
X178527928Y-115977861D01*
X177325774Y-115977861D01*
X177543535Y-115760100D01*
X177711000Y-115355804D01*
X177711000Y-115027403D01*
X178034817Y-115027403D01*
X178077840Y-115462891D01*
X178161722Y-115665398D01*
X178310139Y-115760072D01*
X178933211Y-115137000D01*
X179368789Y-115137000D01*
X179991861Y-115760072D01*
X180140278Y-115665398D01*
X180267183Y-115246597D01*
X180234740Y-114918196D01*
X180591000Y-114918196D01*
X180591000Y-115355804D01*
X180758465Y-115760100D01*
X181067900Y-116069535D01*
X181472196Y-116237000D01*
X181909804Y-116237000D01*
X182314100Y-116069535D01*
X182623535Y-115760100D01*
X182791000Y-115355804D01*
X182791000Y-114918196D01*
X182623535Y-114513900D01*
X182314100Y-114204465D01*
X181909804Y-114037000D01*
X181472196Y-114037000D01*
X181067900Y-114204465D01*
X180758465Y-114513900D01*
X180591000Y-114918196D01*
X180234740Y-114918196D01*
X180224160Y-114811109D01*
X180140278Y-114608602D01*
X179991861Y-114513928D01*
X179368789Y-115137000D01*
X178933211Y-115137000D01*
X178310139Y-114513928D01*
X178161722Y-114608602D01*
X178034817Y-115027403D01*
X177711000Y-115027403D01*
X177711000Y-114918196D01*
X177543535Y-114513900D01*
X177325774Y-114296139D01*
X178527928Y-114296139D01*
X179151000Y-114919211D01*
X179774072Y-114296139D01*
X179679398Y-114147722D01*
X179260597Y-114020817D01*
X178825109Y-114063840D01*
X178622602Y-114147722D01*
X178527928Y-114296139D01*
X177325774Y-114296139D01*
X177234100Y-114204465D01*
X176829804Y-114037000D01*
X176392196Y-114037000D01*
X175987900Y-114204465D01*
X175678465Y-114513900D01*
X175511000Y-114918196D01*
X175171000Y-114918196D01*
X175003535Y-114513900D01*
X174694100Y-114204465D01*
X174289804Y-114037000D01*
X173852196Y-114037000D01*
X173447900Y-114204465D01*
X173138465Y-114513900D01*
X172971000Y-114918196D01*
X172631000Y-114918196D01*
X172463535Y-114513900D01*
X172154100Y-114204465D01*
X171749804Y-114037000D01*
X171312196Y-114037000D01*
X170907900Y-114204465D01*
X170598465Y-114513900D01*
X170431000Y-114918196D01*
X170091000Y-114918196D01*
X169923535Y-114513900D01*
X169614100Y-114204465D01*
X169209804Y-114037000D01*
X168772196Y-114037000D01*
X168367900Y-114204465D01*
X168058465Y-114513900D01*
X167891000Y-114918196D01*
X167551000Y-114918196D01*
X167383535Y-114513900D01*
X167074100Y-114204465D01*
X166669804Y-114037000D01*
X166232196Y-114037000D01*
X165827900Y-114204465D01*
X165518465Y-114513900D01*
X165351000Y-114918196D01*
X165011000Y-114918196D01*
X164843535Y-114513900D01*
X164534100Y-114204465D01*
X164129804Y-114037000D01*
X163692196Y-114037000D01*
X163287900Y-114204465D01*
X162978465Y-114513900D01*
X162811000Y-114918196D01*
X162471000Y-114918196D01*
X162303535Y-114513900D01*
X161994100Y-114204465D01*
X161589804Y-114037000D01*
X161152196Y-114037000D01*
X160747900Y-114204465D01*
X160438465Y-114513900D01*
X160271000Y-114918196D01*
X159931000Y-114918196D01*
X159763535Y-114513900D01*
X159454100Y-114204465D01*
X159049804Y-114037000D01*
X158612196Y-114037000D01*
X158207900Y-114204465D01*
X157898465Y-114513900D01*
X157731000Y-114918196D01*
X157391000Y-114918196D01*
X157223535Y-114513900D01*
X156914100Y-114204465D01*
X156509804Y-114037000D01*
X156072196Y-114037000D01*
X155667900Y-114204465D01*
X155358465Y-114513900D01*
X155191000Y-114918196D01*
X154851000Y-114918196D01*
X154683535Y-114513900D01*
X154374100Y-114204465D01*
X153969804Y-114037000D01*
X153532196Y-114037000D01*
X153127900Y-114204465D01*
X152818465Y-114513900D01*
X152651000Y-114918196D01*
X152311000Y-114918196D01*
X152143535Y-114513900D01*
X151834100Y-114204465D01*
X151429804Y-114037000D01*
X150992196Y-114037000D01*
X150587900Y-114204465D01*
X150278465Y-114513900D01*
X150111000Y-114918196D01*
X149771000Y-114918196D01*
X149603535Y-114513900D01*
X149294100Y-114204465D01*
X148889804Y-114037000D01*
X148452196Y-114037000D01*
X148047900Y-114204465D01*
X147738465Y-114513900D01*
X147571000Y-114918196D01*
X120148744Y-114918196D01*
X120148824Y-111729000D01*
X123770000Y-111729000D01*
X123770000Y-112409674D01*
X123815672Y-112519937D01*
X123900064Y-112604328D01*
X124010327Y-112650000D01*
X124691000Y-112650000D01*
X124766000Y-112575000D01*
X124766000Y-111654000D01*
X125074000Y-111654000D01*
X125074000Y-112575000D01*
X125149000Y-112650000D01*
X125829673Y-112650000D01*
X125939936Y-112604328D01*
X126024328Y-112519937D01*
X126070000Y-112409674D01*
X126070000Y-111729000D01*
X125995000Y-111654000D01*
X125074000Y-111654000D01*
X124766000Y-111654000D01*
X123845000Y-111654000D01*
X123770000Y-111729000D01*
X120148824Y-111729000D01*
X120148829Y-111500000D01*
X126287471Y-111500000D01*
X126376724Y-111948707D01*
X126630897Y-112329103D01*
X127011293Y-112583276D01*
X127346739Y-112650000D01*
X127573261Y-112650000D01*
X127908707Y-112583276D01*
X128289103Y-112329103D01*
X128543276Y-111948707D01*
X128632529Y-111500000D01*
X128827471Y-111500000D01*
X128916724Y-111948707D01*
X129170897Y-112329103D01*
X129551293Y-112583276D01*
X129886739Y-112650000D01*
X130113261Y-112650000D01*
X130448707Y-112583276D01*
X130829103Y-112329103D01*
X131083276Y-111948707D01*
X131172529Y-111500000D01*
X131367471Y-111500000D01*
X131456724Y-111948707D01*
X131710897Y-112329103D01*
X132091293Y-112583276D01*
X132426739Y-112650000D01*
X132653261Y-112650000D01*
X132988707Y-112583276D01*
X133295630Y-112378196D01*
X147571000Y-112378196D01*
X147571000Y-112815804D01*
X147738465Y-113220100D01*
X148047900Y-113529535D01*
X148452196Y-113697000D01*
X148889804Y-113697000D01*
X149294100Y-113529535D01*
X149603535Y-113220100D01*
X149771000Y-112815804D01*
X149771000Y-112378196D01*
X178051000Y-112378196D01*
X178051000Y-112815804D01*
X178218465Y-113220100D01*
X178527900Y-113529535D01*
X178932196Y-113697000D01*
X179369804Y-113697000D01*
X179774100Y-113529535D01*
X180083535Y-113220100D01*
X180251000Y-112815804D01*
X180251000Y-112378196D01*
X180083535Y-111973900D01*
X179774100Y-111664465D01*
X179369804Y-111497000D01*
X178932196Y-111497000D01*
X178527900Y-111664465D01*
X178218465Y-111973900D01*
X178051000Y-112378196D01*
X149771000Y-112378196D01*
X149603535Y-111973900D01*
X149294100Y-111664465D01*
X148889804Y-111497000D01*
X148452196Y-111497000D01*
X148047900Y-111664465D01*
X147738465Y-111973900D01*
X147571000Y-112378196D01*
X133295630Y-112378196D01*
X133369103Y-112329103D01*
X133623276Y-111948707D01*
X133712529Y-111500000D01*
X133623276Y-111051293D01*
X133369103Y-110670897D01*
X132988707Y-110416724D01*
X132653261Y-110350000D01*
X132426739Y-110350000D01*
X132091293Y-110416724D01*
X131710897Y-110670897D01*
X131456724Y-111051293D01*
X131367471Y-111500000D01*
X131172529Y-111500000D01*
X131083276Y-111051293D01*
X130829103Y-110670897D01*
X130448707Y-110416724D01*
X130113261Y-110350000D01*
X129886739Y-110350000D01*
X129551293Y-110416724D01*
X129170897Y-110670897D01*
X128916724Y-111051293D01*
X128827471Y-111500000D01*
X128632529Y-111500000D01*
X128543276Y-111051293D01*
X128289103Y-110670897D01*
X128010101Y-110484473D01*
X128018089Y-110472518D01*
X128050000Y-110312089D01*
X128050000Y-110312088D01*
X128060775Y-110257919D01*
X128050000Y-110203750D01*
X128050000Y-109838196D01*
X147571000Y-109838196D01*
X147571000Y-110275804D01*
X147738465Y-110680100D01*
X148047900Y-110989535D01*
X148452196Y-111157000D01*
X148889804Y-111157000D01*
X149294100Y-110989535D01*
X149603535Y-110680100D01*
X149771000Y-110275804D01*
X149771000Y-109838196D01*
X149603535Y-109433900D01*
X149294100Y-109124465D01*
X148889804Y-108957000D01*
X148452196Y-108957000D01*
X148047900Y-109124465D01*
X147738465Y-109433900D01*
X147571000Y-109838196D01*
X128050000Y-109838196D01*
X128050000Y-108357861D01*
X148047928Y-108357861D01*
X148142602Y-108506278D01*
X148561403Y-108633183D01*
X148996891Y-108590160D01*
X149199398Y-108506278D01*
X149294072Y-108357861D01*
X148671000Y-107734789D01*
X148047928Y-108357861D01*
X128050000Y-108357861D01*
X128050000Y-108227816D01*
X128870413Y-107407403D01*
X147554817Y-107407403D01*
X147597840Y-107842891D01*
X147681722Y-108045398D01*
X147830139Y-108140072D01*
X148453211Y-107517000D01*
X148888789Y-107517000D01*
X149511861Y-108140072D01*
X149660278Y-108045398D01*
X149787183Y-107626597D01*
X149744160Y-107191109D01*
X149660278Y-106988602D01*
X149511861Y-106893928D01*
X148888789Y-107517000D01*
X148453211Y-107517000D01*
X147830139Y-106893928D01*
X147681722Y-106988602D01*
X147554817Y-107407403D01*
X128870413Y-107407403D01*
X129601677Y-106676139D01*
X148047928Y-106676139D01*
X148671000Y-107299211D01*
X149294072Y-106676139D01*
X149199398Y-106527722D01*
X148780597Y-106400817D01*
X148345109Y-106443840D01*
X148142602Y-106527722D01*
X148047928Y-106676139D01*
X129601677Y-106676139D01*
X130877817Y-105400000D01*
X143532050Y-105400000D01*
X143575482Y-105443432D01*
X143832761Y-105550000D01*
X144111239Y-105550000D01*
X144368518Y-105443432D01*
X144411950Y-105400000D01*
X147655581Y-105400000D01*
X147738465Y-105600100D01*
X148047900Y-105909535D01*
X148452196Y-106077000D01*
X148889804Y-106077000D01*
X149294100Y-105909535D01*
X149603535Y-105600100D01*
X149633814Y-105527000D01*
X149748201Y-105527000D01*
X149802370Y-105537775D01*
X149856539Y-105527000D01*
X149856540Y-105527000D01*
X150016969Y-105495089D01*
X150198898Y-105373528D01*
X150229586Y-105327601D01*
X150411187Y-105146000D01*
X164360050Y-105146000D01*
X164403482Y-105189432D01*
X164660761Y-105296000D01*
X164939239Y-105296000D01*
X165196518Y-105189432D01*
X165393432Y-104992518D01*
X165500000Y-104735239D01*
X165500000Y-104456761D01*
X165393432Y-104199482D01*
X165196518Y-104002568D01*
X164939239Y-103896000D01*
X164660761Y-103896000D01*
X164403482Y-104002568D01*
X164360050Y-104046000D01*
X150237538Y-104046000D01*
X150183369Y-104035225D01*
X150129200Y-104046000D01*
X149968771Y-104077911D01*
X149968770Y-104077912D01*
X149968769Y-104077912D01*
X149860882Y-104150000D01*
X149786842Y-104199472D01*
X149756157Y-104245395D01*
X149616457Y-104385096D01*
X149603535Y-104353900D01*
X149294100Y-104044465D01*
X148889804Y-103877000D01*
X148452196Y-103877000D01*
X148047900Y-104044465D01*
X147792365Y-104300000D01*
X144411950Y-104300000D01*
X144368518Y-104256568D01*
X144111239Y-104150000D01*
X143832761Y-104150000D01*
X143575482Y-104256568D01*
X143532050Y-104300000D01*
X130704169Y-104300000D01*
X130650000Y-104289225D01*
X130595831Y-104300000D01*
X130595830Y-104300000D01*
X130435401Y-104331911D01*
X130253472Y-104453472D01*
X130222786Y-104499397D01*
X127149398Y-107572786D01*
X127103473Y-107603472D01*
X127072788Y-107649396D01*
X126981912Y-107785401D01*
X126939225Y-108000000D01*
X126950001Y-108054174D01*
X126950000Y-110071215D01*
X126941912Y-110083320D01*
X126899225Y-110297919D01*
X126910001Y-110352092D01*
X126910001Y-110484405D01*
X126630897Y-110670897D01*
X126376724Y-111051293D01*
X126287471Y-111500000D01*
X120148829Y-111500000D01*
X120148852Y-110590326D01*
X123770000Y-110590326D01*
X123770000Y-111271000D01*
X123845000Y-111346000D01*
X124766000Y-111346000D01*
X124766000Y-110425000D01*
X125074000Y-110425000D01*
X125074000Y-111346000D01*
X125995000Y-111346000D01*
X126070000Y-111271000D01*
X126070000Y-110590326D01*
X126024328Y-110480063D01*
X125939936Y-110395672D01*
X125829673Y-110350000D01*
X125149000Y-110350000D01*
X125074000Y-110425000D01*
X124766000Y-110425000D01*
X124691000Y-110350000D01*
X124010327Y-110350000D01*
X123900064Y-110395672D01*
X123815672Y-110480063D01*
X123770000Y-110590326D01*
X120148852Y-110590326D01*
X120149062Y-102218196D01*
X147571000Y-102218196D01*
X147571000Y-102655804D01*
X147738465Y-103060100D01*
X148047900Y-103369535D01*
X148452196Y-103537000D01*
X148889804Y-103537000D01*
X149294100Y-103369535D01*
X149603535Y-103060100D01*
X149771000Y-102655804D01*
X149771000Y-102218196D01*
X149603535Y-101813900D01*
X149294100Y-101504465D01*
X148889804Y-101337000D01*
X148452196Y-101337000D01*
X148047900Y-101504465D01*
X147738465Y-101813900D01*
X147571000Y-102218196D01*
X120149062Y-102218196D01*
X120149078Y-101600000D01*
X126000000Y-101600000D01*
X126038268Y-101592388D01*
X126070711Y-101570711D01*
X126092388Y-101538268D01*
X126100000Y-101500000D01*
X126100000Y-99678196D01*
X147571000Y-99678196D01*
X147571000Y-100115804D01*
X147738465Y-100520100D01*
X148047900Y-100829535D01*
X148452196Y-100997000D01*
X148889804Y-100997000D01*
X149294100Y-100829535D01*
X149603535Y-100520100D01*
X149771000Y-100115804D01*
X149771000Y-99678196D01*
X150111000Y-99678196D01*
X150111000Y-100115804D01*
X150278465Y-100520100D01*
X150587900Y-100829535D01*
X150992196Y-100997000D01*
X151429804Y-100997000D01*
X151834100Y-100829535D01*
X152143535Y-100520100D01*
X152311000Y-100115804D01*
X152311000Y-99678196D01*
X152651000Y-99678196D01*
X152651000Y-100115804D01*
X152818465Y-100520100D01*
X153127900Y-100829535D01*
X153532196Y-100997000D01*
X153969804Y-100997000D01*
X154374100Y-100829535D01*
X154683535Y-100520100D01*
X154851000Y-100115804D01*
X154851000Y-99678196D01*
X155191000Y-99678196D01*
X155191000Y-100115804D01*
X155358465Y-100520100D01*
X155667900Y-100829535D01*
X156072196Y-100997000D01*
X156509804Y-100997000D01*
X156914100Y-100829535D01*
X157223535Y-100520100D01*
X157391000Y-100115804D01*
X157391000Y-99678196D01*
X157731000Y-99678196D01*
X157731000Y-100115804D01*
X157898465Y-100520100D01*
X158207900Y-100829535D01*
X158612196Y-100997000D01*
X159049804Y-100997000D01*
X159454100Y-100829535D01*
X159763535Y-100520100D01*
X159931000Y-100115804D01*
X159931000Y-99678196D01*
X160271000Y-99678196D01*
X160271000Y-100115804D01*
X160438465Y-100520100D01*
X160747900Y-100829535D01*
X161152196Y-100997000D01*
X161589804Y-100997000D01*
X161994100Y-100829535D01*
X162303535Y-100520100D01*
X162471000Y-100115804D01*
X162471000Y-99678196D01*
X162303535Y-99273900D01*
X161994100Y-98964465D01*
X161589804Y-98797000D01*
X161152196Y-98797000D01*
X160747900Y-98964465D01*
X160438465Y-99273900D01*
X160271000Y-99678196D01*
X159931000Y-99678196D01*
X159763535Y-99273900D01*
X159454100Y-98964465D01*
X159049804Y-98797000D01*
X158612196Y-98797000D01*
X158207900Y-98964465D01*
X157898465Y-99273900D01*
X157731000Y-99678196D01*
X157391000Y-99678196D01*
X157223535Y-99273900D01*
X156914100Y-98964465D01*
X156509804Y-98797000D01*
X156072196Y-98797000D01*
X155667900Y-98964465D01*
X155358465Y-99273900D01*
X155191000Y-99678196D01*
X154851000Y-99678196D01*
X154683535Y-99273900D01*
X154374100Y-98964465D01*
X153969804Y-98797000D01*
X153532196Y-98797000D01*
X153127900Y-98964465D01*
X152818465Y-99273900D01*
X152651000Y-99678196D01*
X152311000Y-99678196D01*
X152143535Y-99273900D01*
X151834100Y-98964465D01*
X151429804Y-98797000D01*
X150992196Y-98797000D01*
X150587900Y-98964465D01*
X150278465Y-99273900D01*
X150111000Y-99678196D01*
X149771000Y-99678196D01*
X149603535Y-99273900D01*
X149294100Y-98964465D01*
X148889804Y-98797000D01*
X148452196Y-98797000D01*
X148047900Y-98964465D01*
X147738465Y-99273900D01*
X147571000Y-99678196D01*
X126100000Y-99678196D01*
X126100000Y-92912000D01*
X152959471Y-92912000D01*
X153048724Y-93360707D01*
X153302897Y-93741103D01*
X153683293Y-93995276D01*
X153707001Y-93999992D01*
X153707001Y-94326219D01*
X153698674Y-94368081D01*
X153731659Y-94533907D01*
X153731660Y-94533908D01*
X153825593Y-94674489D01*
X153861079Y-94698200D01*
X157171800Y-98008922D01*
X157195511Y-98044408D01*
X157230996Y-98068118D01*
X157336092Y-98138341D01*
X157501918Y-98171326D01*
X157543776Y-98163000D01*
X161575960Y-98163000D01*
X162893056Y-99480096D01*
X162811000Y-99678196D01*
X162811000Y-100115804D01*
X162978465Y-100520100D01*
X163287900Y-100829535D01*
X163692196Y-100997000D01*
X164129804Y-100997000D01*
X164534100Y-100829535D01*
X164843535Y-100520100D01*
X165011000Y-100115804D01*
X165011000Y-99678196D01*
X165351000Y-99678196D01*
X165351000Y-100115804D01*
X165518465Y-100520100D01*
X165827900Y-100829535D01*
X166232196Y-100997000D01*
X166669804Y-100997000D01*
X167074100Y-100829535D01*
X167383535Y-100520100D01*
X167551000Y-100115804D01*
X167551000Y-99678196D01*
X167891000Y-99678196D01*
X167891000Y-100115804D01*
X168058465Y-100520100D01*
X168367900Y-100829535D01*
X168772196Y-100997000D01*
X169209804Y-100997000D01*
X169614100Y-100829535D01*
X169923535Y-100520100D01*
X170091000Y-100115804D01*
X170091000Y-99678196D01*
X170431000Y-99678196D01*
X170431000Y-100115804D01*
X170598465Y-100520100D01*
X170907900Y-100829535D01*
X171312196Y-100997000D01*
X171749804Y-100997000D01*
X172154100Y-100829535D01*
X172463535Y-100520100D01*
X172631000Y-100115804D01*
X172631000Y-99678196D01*
X172971000Y-99678196D01*
X172971000Y-100115804D01*
X173138465Y-100520100D01*
X173447900Y-100829535D01*
X173852196Y-100997000D01*
X174289804Y-100997000D01*
X174694100Y-100829535D01*
X175003535Y-100520100D01*
X175171000Y-100115804D01*
X175171000Y-99678196D01*
X175511000Y-99678196D01*
X175511000Y-100115804D01*
X175678465Y-100520100D01*
X175987900Y-100829535D01*
X176392196Y-100997000D01*
X176829804Y-100997000D01*
X177234100Y-100829535D01*
X177543535Y-100520100D01*
X177711000Y-100115804D01*
X177711000Y-99678196D01*
X178051000Y-99678196D01*
X178051000Y-100115804D01*
X178218465Y-100520100D01*
X178527900Y-100829535D01*
X178932196Y-100997000D01*
X179369804Y-100997000D01*
X179774100Y-100829535D01*
X180083535Y-100520100D01*
X180246776Y-100126000D01*
X180591000Y-100126000D01*
X180591000Y-100756673D01*
X180636672Y-100866936D01*
X180721063Y-100951328D01*
X180831326Y-100997000D01*
X181462000Y-100997000D01*
X181537000Y-100922000D01*
X181537000Y-100051000D01*
X181845000Y-100051000D01*
X181845000Y-100922000D01*
X181920000Y-100997000D01*
X182550674Y-100997000D01*
X182660937Y-100951328D01*
X182745328Y-100866936D01*
X182791000Y-100756673D01*
X182791000Y-100126000D01*
X182716000Y-100051000D01*
X181845000Y-100051000D01*
X181537000Y-100051000D01*
X180666000Y-100051000D01*
X180591000Y-100126000D01*
X180246776Y-100126000D01*
X180251000Y-100115804D01*
X180251000Y-99678196D01*
X180083535Y-99273900D01*
X179846962Y-99037327D01*
X180591000Y-99037327D01*
X180591000Y-99668000D01*
X180666000Y-99743000D01*
X181537000Y-99743000D01*
X181537000Y-98872000D01*
X181845000Y-98872000D01*
X181845000Y-99743000D01*
X182716000Y-99743000D01*
X182791000Y-99668000D01*
X182791000Y-99037327D01*
X182745328Y-98927064D01*
X182660937Y-98842672D01*
X182550674Y-98797000D01*
X181920000Y-98797000D01*
X181845000Y-98872000D01*
X181537000Y-98872000D01*
X181462000Y-98797000D01*
X180831326Y-98797000D01*
X180721063Y-98842672D01*
X180636672Y-98927064D01*
X180591000Y-99037327D01*
X179846962Y-99037327D01*
X179774100Y-98964465D01*
X179369804Y-98797000D01*
X178932196Y-98797000D01*
X178527900Y-98964465D01*
X178218465Y-99273900D01*
X178051000Y-99678196D01*
X177711000Y-99678196D01*
X177543535Y-99273900D01*
X177234100Y-98964465D01*
X176829804Y-98797000D01*
X176392196Y-98797000D01*
X175987900Y-98964465D01*
X175678465Y-99273900D01*
X175511000Y-99678196D01*
X175171000Y-99678196D01*
X175003535Y-99273900D01*
X174694100Y-98964465D01*
X174289804Y-98797000D01*
X173852196Y-98797000D01*
X173447900Y-98964465D01*
X173138465Y-99273900D01*
X172971000Y-99678196D01*
X172631000Y-99678196D01*
X172463535Y-99273900D01*
X172154100Y-98964465D01*
X171749804Y-98797000D01*
X171312196Y-98797000D01*
X170907900Y-98964465D01*
X170598465Y-99273900D01*
X170431000Y-99678196D01*
X170091000Y-99678196D01*
X169923535Y-99273900D01*
X169614100Y-98964465D01*
X169209804Y-98797000D01*
X168772196Y-98797000D01*
X168367900Y-98964465D01*
X168058465Y-99273900D01*
X167891000Y-99678196D01*
X167551000Y-99678196D01*
X167383535Y-99273900D01*
X167074100Y-98964465D01*
X166669804Y-98797000D01*
X166232196Y-98797000D01*
X165827900Y-98964465D01*
X165518465Y-99273900D01*
X165351000Y-99678196D01*
X165011000Y-99678196D01*
X164843535Y-99273900D01*
X164534100Y-98964465D01*
X164129804Y-98797000D01*
X163692196Y-98797000D01*
X163494096Y-98879056D01*
X162082121Y-97467081D01*
X162058408Y-97431592D01*
X161917827Y-97337659D01*
X161793858Y-97313000D01*
X161793857Y-97313000D01*
X161752000Y-97304674D01*
X161710143Y-97313000D01*
X157677960Y-97313000D01*
X156864960Y-96500000D01*
X169287471Y-96500000D01*
X169376724Y-96948707D01*
X169630897Y-97329103D01*
X170011293Y-97583276D01*
X170346739Y-97650000D01*
X170573261Y-97650000D01*
X170908707Y-97583276D01*
X171289103Y-97329103D01*
X171543276Y-96948707D01*
X171632529Y-96500000D01*
X171543276Y-96051293D01*
X171289103Y-95670897D01*
X171257829Y-95650000D01*
X171844123Y-95650000D01*
X171844123Y-97350000D01*
X171867407Y-97467054D01*
X171933712Y-97566288D01*
X172032946Y-97632593D01*
X172150000Y-97655877D01*
X173850000Y-97655877D01*
X173967054Y-97632593D01*
X174066288Y-97566288D01*
X174132593Y-97467054D01*
X174155877Y-97350000D01*
X174155877Y-96925000D01*
X175240143Y-96925000D01*
X175282000Y-96933326D01*
X175323857Y-96925000D01*
X175323858Y-96925000D01*
X175447827Y-96900341D01*
X175588408Y-96806408D01*
X175612121Y-96770919D01*
X178913146Y-93469895D01*
X178949783Y-93494375D01*
X179418000Y-93587509D01*
X179886216Y-93494375D01*
X180283152Y-93229152D01*
X180548375Y-92832217D01*
X180618000Y-92482188D01*
X180618000Y-91245812D01*
X180548375Y-90895783D01*
X180283152Y-90498848D01*
X179886217Y-90233625D01*
X179418000Y-90140491D01*
X178949784Y-90233625D01*
X178552849Y-90498848D01*
X178287625Y-90895783D01*
X178218000Y-91245812D01*
X178218000Y-92482187D01*
X178287625Y-92832216D01*
X178312105Y-92868854D01*
X175105960Y-96075000D01*
X174155877Y-96075000D01*
X174155877Y-95650000D01*
X174132593Y-95532946D01*
X174066288Y-95433712D01*
X173967054Y-95367407D01*
X173850000Y-95344123D01*
X172150000Y-95344123D01*
X172032946Y-95367407D01*
X171933712Y-95433712D01*
X171867407Y-95532946D01*
X171844123Y-95650000D01*
X171257829Y-95650000D01*
X170908707Y-95416724D01*
X170573261Y-95350000D01*
X170346739Y-95350000D01*
X170011293Y-95416724D01*
X169630897Y-95670897D01*
X169376724Y-96051293D01*
X169287471Y-96500000D01*
X156864960Y-96500000D01*
X154557000Y-94192041D01*
X154557000Y-93999992D01*
X154580707Y-93995276D01*
X154961103Y-93741103D01*
X155215276Y-93360707D01*
X155304529Y-92912000D01*
X155499471Y-92912000D01*
X155588724Y-93360707D01*
X155842897Y-93741103D01*
X156223293Y-93995276D01*
X156558739Y-94062000D01*
X156785261Y-94062000D01*
X157120707Y-93995276D01*
X157501103Y-93741103D01*
X157755276Y-93360707D01*
X157844529Y-92912000D01*
X157755276Y-92463293D01*
X157501103Y-92082897D01*
X157469829Y-92062000D01*
X158056123Y-92062000D01*
X158056123Y-93762000D01*
X158079407Y-93879054D01*
X158145712Y-93978288D01*
X158244946Y-94044593D01*
X158362000Y-94067877D01*
X160062000Y-94067877D01*
X160179054Y-94044593D01*
X160278288Y-93978288D01*
X160344593Y-93879054D01*
X160367877Y-93762000D01*
X160367877Y-92912000D01*
X162865471Y-92912000D01*
X162954724Y-93360707D01*
X163208897Y-93741103D01*
X163589293Y-93995276D01*
X163924739Y-94062000D01*
X164151261Y-94062000D01*
X164486707Y-93995276D01*
X164867103Y-93741103D01*
X165121276Y-93360707D01*
X165164978Y-93141000D01*
X165428000Y-93141000D01*
X165428000Y-93821674D01*
X165473672Y-93931937D01*
X165558064Y-94016328D01*
X165668327Y-94062000D01*
X166349000Y-94062000D01*
X166424000Y-93987000D01*
X166424000Y-93066000D01*
X166732000Y-93066000D01*
X166732000Y-93987000D01*
X166807000Y-94062000D01*
X167487673Y-94062000D01*
X167597936Y-94016328D01*
X167682328Y-93931937D01*
X167728000Y-93821674D01*
X167728000Y-93141000D01*
X167653000Y-93066000D01*
X166732000Y-93066000D01*
X166424000Y-93066000D01*
X165503000Y-93066000D01*
X165428000Y-93141000D01*
X165164978Y-93141000D01*
X165210529Y-92912000D01*
X165121276Y-92463293D01*
X164867103Y-92082897D01*
X164746521Y-92002326D01*
X165428000Y-92002326D01*
X165428000Y-92683000D01*
X165503000Y-92758000D01*
X166424000Y-92758000D01*
X166424000Y-91837000D01*
X166732000Y-91837000D01*
X166732000Y-92758000D01*
X167653000Y-92758000D01*
X167728000Y-92683000D01*
X167728000Y-92002326D01*
X167682328Y-91892063D01*
X167597936Y-91807672D01*
X167487673Y-91762000D01*
X166807000Y-91762000D01*
X166732000Y-91837000D01*
X166424000Y-91837000D01*
X166349000Y-91762000D01*
X165668327Y-91762000D01*
X165558064Y-91807672D01*
X165473672Y-91892063D01*
X165428000Y-92002326D01*
X164746521Y-92002326D01*
X164486707Y-91828724D01*
X164151261Y-91762000D01*
X163924739Y-91762000D01*
X163589293Y-91828724D01*
X163208897Y-92082897D01*
X162954724Y-92463293D01*
X162865471Y-92912000D01*
X160367877Y-92912000D01*
X160367877Y-92062000D01*
X160344593Y-91944946D01*
X160278288Y-91845712D01*
X160179054Y-91779407D01*
X160062000Y-91756123D01*
X158362000Y-91756123D01*
X158244946Y-91779407D01*
X158145712Y-91845712D01*
X158079407Y-91944946D01*
X158056123Y-92062000D01*
X157469829Y-92062000D01*
X157120707Y-91828724D01*
X156785261Y-91762000D01*
X156558739Y-91762000D01*
X156223293Y-91828724D01*
X155842897Y-92082897D01*
X155588724Y-92463293D01*
X155499471Y-92912000D01*
X155304529Y-92912000D01*
X155215276Y-92463293D01*
X154961103Y-92082897D01*
X154580707Y-91828724D01*
X154245261Y-91762000D01*
X154018739Y-91762000D01*
X153683293Y-91828724D01*
X153302897Y-92082897D01*
X153048724Y-92463293D01*
X152959471Y-92912000D01*
X126100000Y-92912000D01*
X126100000Y-91500000D01*
X126092388Y-91461732D01*
X126070711Y-91429289D01*
X126038268Y-91407612D01*
X126000000Y-91400000D01*
X120149333Y-91400000D01*
X120149336Y-91245812D01*
X172718000Y-91245812D01*
X172718000Y-92482187D01*
X172787625Y-92832216D01*
X173052848Y-93229152D01*
X173449783Y-93494375D01*
X173918000Y-93587509D01*
X174386216Y-93494375D01*
X174783152Y-93229152D01*
X175048375Y-92832217D01*
X175118000Y-92482188D01*
X175118000Y-91245812D01*
X175048375Y-90895783D01*
X174783152Y-90498848D01*
X174386217Y-90233625D01*
X173918000Y-90140491D01*
X173449784Y-90233625D01*
X173052849Y-90498848D01*
X172787625Y-90895783D01*
X172718000Y-91245812D01*
X120149336Y-91245812D01*
X120149366Y-90018000D01*
X180618000Y-90018000D01*
X180618000Y-90518000D01*
X180768278Y-90965498D01*
X181078367Y-91321423D01*
X181479727Y-91515334D01*
X181664000Y-91478410D01*
X181664000Y-90018000D01*
X181972000Y-90018000D01*
X181972000Y-91478410D01*
X182156273Y-91515334D01*
X182557633Y-91321423D01*
X182867722Y-90965498D01*
X183018000Y-90518000D01*
X183018000Y-90018000D01*
X181972000Y-90018000D01*
X181664000Y-90018000D01*
X180618000Y-90018000D01*
X120149366Y-90018000D01*
X120149386Y-89210000D01*
X180618000Y-89210000D01*
X180618000Y-89710000D01*
X181664000Y-89710000D01*
X181664000Y-88249590D01*
X181972000Y-88249590D01*
X181972000Y-89710000D01*
X183018000Y-89710000D01*
X183018000Y-89210000D01*
X182867722Y-88762502D01*
X182557633Y-88406577D01*
X182156273Y-88212666D01*
X181972000Y-88249590D01*
X181664000Y-88249590D01*
X181479727Y-88212666D01*
X181078367Y-88406577D01*
X180768278Y-88762502D01*
X180618000Y-89210000D01*
X120149386Y-89210000D01*
X120149617Y-80003142D01*
X169338000Y-80003142D01*
X169338000Y-80420858D01*
X169497853Y-80806777D01*
X169793223Y-81102147D01*
X170179142Y-81262000D01*
X170596858Y-81262000D01*
X170982777Y-81102147D01*
X171278147Y-80806777D01*
X171309120Y-80732000D01*
X171872123Y-80732000D01*
X171872123Y-82232000D01*
X171895407Y-82349054D01*
X171961712Y-82448288D01*
X172060946Y-82514593D01*
X172178000Y-82537877D01*
X173678000Y-82537877D01*
X173795054Y-82514593D01*
X173894288Y-82448288D01*
X173943880Y-82374067D01*
X177378000Y-82374067D01*
X177378000Y-83129933D01*
X177667258Y-83828263D01*
X178201737Y-84362742D01*
X178900067Y-84652000D01*
X179655933Y-84652000D01*
X180354263Y-84362742D01*
X180888742Y-83828263D01*
X181178000Y-83129933D01*
X181178000Y-82374067D01*
X180888742Y-81675737D01*
X180354263Y-81141258D01*
X179655933Y-80852000D01*
X178900067Y-80852000D01*
X178201737Y-81141258D01*
X177667258Y-81675737D01*
X177378000Y-82374067D01*
X173943880Y-82374067D01*
X173960593Y-82349054D01*
X173983877Y-82232000D01*
X173983877Y-80732000D01*
X173960593Y-80614946D01*
X173894288Y-80515712D01*
X173795054Y-80449407D01*
X173678000Y-80426123D01*
X172178000Y-80426123D01*
X172060946Y-80449407D01*
X171961712Y-80515712D01*
X171895407Y-80614946D01*
X171872123Y-80732000D01*
X171309120Y-80732000D01*
X171438000Y-80420858D01*
X171438000Y-80003142D01*
X171278147Y-79617223D01*
X170982777Y-79321853D01*
X170596858Y-79162000D01*
X170179142Y-79162000D01*
X169793223Y-79321853D01*
X169497853Y-79617223D01*
X169338000Y-80003142D01*
X120149617Y-80003142D01*
X120149648Y-78733142D01*
X171878000Y-78733142D01*
X171878000Y-79150858D01*
X172037853Y-79536777D01*
X172333223Y-79832147D01*
X172719142Y-79992000D01*
X173136858Y-79992000D01*
X173522777Y-79832147D01*
X173818147Y-79536777D01*
X173978000Y-79150858D01*
X173978000Y-78733142D01*
X173818147Y-78347223D01*
X173522777Y-78051853D01*
X173136858Y-77892000D01*
X172719142Y-77892000D01*
X172333223Y-78051853D01*
X172037853Y-78347223D01*
X171878000Y-78733142D01*
X120149648Y-78733142D01*
X120149680Y-77463142D01*
X169338000Y-77463142D01*
X169338000Y-77880858D01*
X169497853Y-78266777D01*
X169793223Y-78562147D01*
X170179142Y-78722000D01*
X170596858Y-78722000D01*
X170982777Y-78562147D01*
X171278147Y-78266777D01*
X171438000Y-77880858D01*
X171438000Y-77463142D01*
X171278147Y-77077223D01*
X170982777Y-76781853D01*
X170596858Y-76622000D01*
X170179142Y-76622000D01*
X169793223Y-76781853D01*
X169497853Y-77077223D01*
X169338000Y-77463142D01*
X120149680Y-77463142D01*
X120149990Y-65102188D01*
X126980562Y-64926147D01*
X127875001Y-64914122D01*
X127875000Y-72070976D01*
G04 #@! TD*
M02*
