G04 #@! TF.GenerationSoftware,KiCad,Pcbnew,5.1.2+dfsg1-1*
G04 #@! TF.CreationDate,2019-08-13T22:45:40+02:00*
G04 #@! TF.ProjectId,bt-trx-dev-board,62742d74-7278-42d6-9465-762d626f6172,2.0*
G04 #@! TF.SameCoordinates,Original*
G04 #@! TF.FileFunction,Soldermask,Top*
G04 #@! TF.FilePolarity,Negative*
%FSLAX46Y46*%
G04 Gerber Fmt 4.6, Leading zero omitted, Abs format (unit mm)*
G04 Created by KiCad (PCBNEW 5.1.2+dfsg1-1) date 2019-08-13 22:45:40*
%MOMM*%
%LPD*%
G04 APERTURE LIST*
%ADD10C,0.100000*%
G04 APERTURE END LIST*
D10*
G36*
X171800256Y-125941298D02*
G01*
X171906579Y-125962447D01*
X172119037Y-126050450D01*
X172131695Y-126055693D01*
X172207042Y-126086903D01*
X172477451Y-126267585D01*
X172707415Y-126497549D01*
X172888097Y-126767958D01*
X173012553Y-127068421D01*
X173076000Y-127387391D01*
X173076000Y-127712609D01*
X173012553Y-128031579D01*
X172888097Y-128332042D01*
X172707415Y-128602451D01*
X172477451Y-128832415D01*
X172207042Y-129013097D01*
X171906579Y-129137553D01*
X171800256Y-129158702D01*
X171587611Y-129201000D01*
X171262389Y-129201000D01*
X171049744Y-129158702D01*
X170943421Y-129137553D01*
X170642958Y-129013097D01*
X170372549Y-128832415D01*
X170142585Y-128602451D01*
X169961903Y-128332042D01*
X169837447Y-128031579D01*
X169774000Y-127712609D01*
X169774000Y-127387391D01*
X169837447Y-127068421D01*
X169961903Y-126767958D01*
X170142585Y-126497549D01*
X170372549Y-126267585D01*
X170642958Y-126086903D01*
X170718306Y-126055693D01*
X170730963Y-126050450D01*
X170943421Y-125962447D01*
X171049744Y-125941298D01*
X171262389Y-125899000D01*
X171587611Y-125899000D01*
X171800256Y-125941298D01*
X171800256Y-125941298D01*
G37*
G36*
X131800256Y-125941298D02*
G01*
X131906579Y-125962447D01*
X132119037Y-126050450D01*
X132131695Y-126055693D01*
X132207042Y-126086903D01*
X132477451Y-126267585D01*
X132707415Y-126497549D01*
X132888097Y-126767958D01*
X133012553Y-127068421D01*
X133076000Y-127387391D01*
X133076000Y-127712609D01*
X133012553Y-128031579D01*
X132888097Y-128332042D01*
X132707415Y-128602451D01*
X132477451Y-128832415D01*
X132207042Y-129013097D01*
X131906579Y-129137553D01*
X131800256Y-129158702D01*
X131587611Y-129201000D01*
X131262389Y-129201000D01*
X131049744Y-129158702D01*
X130943421Y-129137553D01*
X130642958Y-129013097D01*
X130372549Y-128832415D01*
X130142585Y-128602451D01*
X129961903Y-128332042D01*
X129837447Y-128031579D01*
X129774000Y-127712609D01*
X129774000Y-127387391D01*
X129837447Y-127068421D01*
X129961903Y-126767958D01*
X130142585Y-126497549D01*
X130372549Y-126267585D01*
X130642958Y-126086903D01*
X130718306Y-126055693D01*
X130730963Y-126050450D01*
X130943421Y-125962447D01*
X131049744Y-125941298D01*
X131262389Y-125899000D01*
X131587611Y-125899000D01*
X131800256Y-125941298D01*
X131800256Y-125941298D01*
G37*
G36*
X194636425Y-123752760D02*
G01*
X194636428Y-123752761D01*
X194636429Y-123752761D01*
X194815693Y-123807140D01*
X194815696Y-123807142D01*
X194815697Y-123807142D01*
X194980903Y-123895446D01*
X195125712Y-124014288D01*
X195244554Y-124159097D01*
X195332858Y-124324303D01*
X195332860Y-124324307D01*
X195387239Y-124503571D01*
X195387240Y-124503575D01*
X195401000Y-124643282D01*
X195401000Y-125736718D01*
X195387240Y-125876425D01*
X195387239Y-125876428D01*
X195387239Y-125876429D01*
X195332860Y-126055693D01*
X195332858Y-126055696D01*
X195332858Y-126055697D01*
X195244554Y-126220903D01*
X195125712Y-126365712D01*
X194980903Y-126484554D01*
X194815696Y-126572858D01*
X194815692Y-126572860D01*
X194636428Y-126627239D01*
X194636427Y-126627239D01*
X194636424Y-126627240D01*
X194450000Y-126645601D01*
X194263575Y-126627240D01*
X194263572Y-126627239D01*
X194263571Y-126627239D01*
X194084307Y-126572860D01*
X194084303Y-126572858D01*
X193919097Y-126484554D01*
X193774288Y-126365712D01*
X193655446Y-126220903D01*
X193567142Y-126055696D01*
X193567141Y-126055693D01*
X193567140Y-126055692D01*
X193512761Y-125876428D01*
X193512761Y-125876427D01*
X193512760Y-125876424D01*
X193499000Y-125736717D01*
X193499000Y-124643282D01*
X193512760Y-124503570D01*
X193567140Y-124324308D01*
X193655447Y-124159097D01*
X193774289Y-124014288D01*
X193919098Y-123895446D01*
X194084304Y-123807142D01*
X194084305Y-123807142D01*
X194084308Y-123807140D01*
X194263572Y-123752761D01*
X194263573Y-123752761D01*
X194263576Y-123752760D01*
X194450000Y-123734399D01*
X194636425Y-123752760D01*
X194636425Y-123752760D01*
G37*
G36*
X189136425Y-123752760D02*
G01*
X189136428Y-123752761D01*
X189136429Y-123752761D01*
X189315693Y-123807140D01*
X189315696Y-123807142D01*
X189315697Y-123807142D01*
X189480903Y-123895446D01*
X189625712Y-124014288D01*
X189744554Y-124159097D01*
X189832858Y-124324303D01*
X189832860Y-124324307D01*
X189887239Y-124503571D01*
X189887240Y-124503575D01*
X189901000Y-124643282D01*
X189901000Y-125736718D01*
X189887240Y-125876425D01*
X189887239Y-125876428D01*
X189887239Y-125876429D01*
X189832860Y-126055693D01*
X189832858Y-126055696D01*
X189832858Y-126055697D01*
X189744554Y-126220903D01*
X189625712Y-126365712D01*
X189480903Y-126484554D01*
X189315696Y-126572858D01*
X189315692Y-126572860D01*
X189136428Y-126627239D01*
X189136427Y-126627239D01*
X189136424Y-126627240D01*
X188950000Y-126645601D01*
X188763575Y-126627240D01*
X188763572Y-126627239D01*
X188763571Y-126627239D01*
X188584307Y-126572860D01*
X188584303Y-126572858D01*
X188419097Y-126484554D01*
X188274288Y-126365712D01*
X188155446Y-126220903D01*
X188067142Y-126055696D01*
X188067141Y-126055693D01*
X188067140Y-126055692D01*
X188012761Y-125876428D01*
X188012761Y-125876427D01*
X188012760Y-125876424D01*
X187999000Y-125736717D01*
X187999000Y-124643282D01*
X188012760Y-124503570D01*
X188067140Y-124324308D01*
X188155447Y-124159097D01*
X188274289Y-124014288D01*
X188419098Y-123895446D01*
X188584304Y-123807142D01*
X188584305Y-123807142D01*
X188584308Y-123807140D01*
X188763572Y-123752761D01*
X188763573Y-123752761D01*
X188763576Y-123752760D01*
X188950000Y-123734399D01*
X189136425Y-123752760D01*
X189136425Y-123752760D01*
G37*
G36*
X177431000Y-126631000D02*
G01*
X175629000Y-126631000D01*
X175629000Y-124829000D01*
X177431000Y-124829000D01*
X177431000Y-126631000D01*
X177431000Y-126631000D01*
G37*
G36*
X197036425Y-121752760D02*
G01*
X197036428Y-121752761D01*
X197036429Y-121752761D01*
X197215693Y-121807140D01*
X197215696Y-121807142D01*
X197215697Y-121807142D01*
X197380903Y-121895446D01*
X197525712Y-122014288D01*
X197644554Y-122159097D01*
X197732858Y-122324303D01*
X197732860Y-122324307D01*
X197787239Y-122503571D01*
X197787240Y-122503575D01*
X197801000Y-122643282D01*
X197801000Y-123736718D01*
X197787240Y-123876425D01*
X197787239Y-123876428D01*
X197787239Y-123876429D01*
X197732860Y-124055693D01*
X197732858Y-124055696D01*
X197732858Y-124055697D01*
X197644554Y-124220903D01*
X197525712Y-124365712D01*
X197380903Y-124484554D01*
X197215696Y-124572858D01*
X197215692Y-124572860D01*
X197036428Y-124627239D01*
X197036427Y-124627239D01*
X197036424Y-124627240D01*
X196850000Y-124645601D01*
X196663575Y-124627240D01*
X196663572Y-124627239D01*
X196663571Y-124627239D01*
X196484307Y-124572860D01*
X196484303Y-124572858D01*
X196319097Y-124484554D01*
X196174288Y-124365712D01*
X196055446Y-124220903D01*
X195967142Y-124055696D01*
X195967141Y-124055693D01*
X195967140Y-124055692D01*
X195912761Y-123876428D01*
X195912761Y-123876427D01*
X195912760Y-123876424D01*
X195899000Y-123736717D01*
X195899000Y-122643282D01*
X195912760Y-122503570D01*
X195967140Y-122324308D01*
X196055447Y-122159097D01*
X196174289Y-122014288D01*
X196319098Y-121895446D01*
X196484304Y-121807142D01*
X196484305Y-121807142D01*
X196484308Y-121807140D01*
X196663572Y-121752761D01*
X196663573Y-121752761D01*
X196663576Y-121752760D01*
X196850000Y-121734399D01*
X197036425Y-121752760D01*
X197036425Y-121752760D01*
G37*
G36*
X176640443Y-122295519D02*
G01*
X176706627Y-122302037D01*
X176876466Y-122353557D01*
X177032991Y-122437222D01*
X177068729Y-122466552D01*
X177170186Y-122549814D01*
X177246892Y-122643282D01*
X177282778Y-122687009D01*
X177366443Y-122843534D01*
X177417963Y-123013373D01*
X177435359Y-123190000D01*
X177417963Y-123366627D01*
X177366443Y-123536466D01*
X177282778Y-123692991D01*
X177253448Y-123728729D01*
X177170186Y-123830186D01*
X177090665Y-123895446D01*
X177032991Y-123942778D01*
X176876466Y-124026443D01*
X176706627Y-124077963D01*
X176640442Y-124084482D01*
X176574260Y-124091000D01*
X176485740Y-124091000D01*
X176419558Y-124084482D01*
X176353373Y-124077963D01*
X176183534Y-124026443D01*
X176027009Y-123942778D01*
X175969335Y-123895446D01*
X175889814Y-123830186D01*
X175806552Y-123728729D01*
X175777222Y-123692991D01*
X175693557Y-123536466D01*
X175642037Y-123366627D01*
X175624641Y-123190000D01*
X175642037Y-123013373D01*
X175693557Y-122843534D01*
X175777222Y-122687009D01*
X175813108Y-122643282D01*
X175889814Y-122549814D01*
X175991271Y-122466552D01*
X176027009Y-122437222D01*
X176183534Y-122353557D01*
X176353373Y-122302037D01*
X176419557Y-122295519D01*
X176485740Y-122289000D01*
X176574260Y-122289000D01*
X176640443Y-122295519D01*
X176640443Y-122295519D01*
G37*
G36*
X160130443Y-120009519D02*
G01*
X160196627Y-120016037D01*
X160366466Y-120067557D01*
X160522991Y-120151222D01*
X160558729Y-120180552D01*
X160660186Y-120263814D01*
X160715323Y-120331000D01*
X160772778Y-120401009D01*
X160856443Y-120557534D01*
X160907963Y-120727373D01*
X160925359Y-120904000D01*
X160907963Y-121080627D01*
X160856443Y-121250466D01*
X160772778Y-121406991D01*
X160743448Y-121442729D01*
X160660186Y-121544186D01*
X160558729Y-121627448D01*
X160522991Y-121656778D01*
X160522989Y-121656779D01*
X160377774Y-121734399D01*
X160366466Y-121740443D01*
X160196627Y-121791963D01*
X160130442Y-121798482D01*
X160064260Y-121805000D01*
X159975740Y-121805000D01*
X159909558Y-121798482D01*
X159843373Y-121791963D01*
X159673534Y-121740443D01*
X159662227Y-121734399D01*
X159517011Y-121656779D01*
X159517009Y-121656778D01*
X159481271Y-121627448D01*
X159379814Y-121544186D01*
X159296552Y-121442729D01*
X159267222Y-121406991D01*
X159183557Y-121250466D01*
X159132037Y-121080627D01*
X159114641Y-120904000D01*
X159132037Y-120727373D01*
X159183557Y-120557534D01*
X159267222Y-120401009D01*
X159324677Y-120331000D01*
X159379814Y-120263814D01*
X159481271Y-120180552D01*
X159517009Y-120151222D01*
X159673534Y-120067557D01*
X159843373Y-120016037D01*
X159909557Y-120009519D01*
X159975740Y-120003000D01*
X160064260Y-120003000D01*
X160130443Y-120009519D01*
X160130443Y-120009519D01*
G37*
G36*
X169020443Y-120009519D02*
G01*
X169086627Y-120016037D01*
X169256466Y-120067557D01*
X169412991Y-120151222D01*
X169448729Y-120180552D01*
X169550186Y-120263814D01*
X169605323Y-120331000D01*
X169662778Y-120401009D01*
X169746443Y-120557534D01*
X169797963Y-120727373D01*
X169815359Y-120904000D01*
X169797963Y-121080627D01*
X169746443Y-121250466D01*
X169662778Y-121406991D01*
X169633448Y-121442729D01*
X169550186Y-121544186D01*
X169448729Y-121627448D01*
X169412991Y-121656778D01*
X169412989Y-121656779D01*
X169267774Y-121734399D01*
X169256466Y-121740443D01*
X169086627Y-121791963D01*
X169020442Y-121798482D01*
X168954260Y-121805000D01*
X168865740Y-121805000D01*
X168799558Y-121798482D01*
X168733373Y-121791963D01*
X168563534Y-121740443D01*
X168552227Y-121734399D01*
X168407011Y-121656779D01*
X168407009Y-121656778D01*
X168371271Y-121627448D01*
X168269814Y-121544186D01*
X168186552Y-121442729D01*
X168157222Y-121406991D01*
X168073557Y-121250466D01*
X168022037Y-121080627D01*
X168004641Y-120904000D01*
X168022037Y-120727373D01*
X168073557Y-120557534D01*
X168157222Y-120401009D01*
X168214677Y-120331000D01*
X168269814Y-120263814D01*
X168371271Y-120180552D01*
X168407009Y-120151222D01*
X168563534Y-120067557D01*
X168733373Y-120016037D01*
X168799557Y-120009519D01*
X168865740Y-120003000D01*
X168954260Y-120003000D01*
X169020443Y-120009519D01*
X169020443Y-120009519D01*
G37*
G36*
X167271000Y-121805000D02*
G01*
X165469000Y-121805000D01*
X165469000Y-120003000D01*
X167271000Y-120003000D01*
X167271000Y-121805000D01*
X167271000Y-121805000D01*
G37*
G36*
X158381000Y-121805000D02*
G01*
X156579000Y-121805000D01*
X156579000Y-120003000D01*
X158381000Y-120003000D01*
X158381000Y-121805000D01*
X158381000Y-121805000D01*
G37*
G36*
X176640442Y-119755518D02*
G01*
X176706627Y-119762037D01*
X176876466Y-119813557D01*
X177032991Y-119897222D01*
X177036857Y-119900395D01*
X177170186Y-120009814D01*
X177253448Y-120111271D01*
X177282778Y-120147009D01*
X177366443Y-120303534D01*
X177417963Y-120473373D01*
X177435359Y-120650000D01*
X177417963Y-120826627D01*
X177366443Y-120996466D01*
X177282778Y-121152991D01*
X177280867Y-121155319D01*
X177170186Y-121290186D01*
X177068729Y-121373448D01*
X177032991Y-121402778D01*
X176876466Y-121486443D01*
X176706627Y-121537963D01*
X176643453Y-121544185D01*
X176574260Y-121551000D01*
X176485740Y-121551000D01*
X176416547Y-121544185D01*
X176353373Y-121537963D01*
X176183534Y-121486443D01*
X176027009Y-121402778D01*
X175991271Y-121373448D01*
X175889814Y-121290186D01*
X175779133Y-121155319D01*
X175777222Y-121152991D01*
X175693557Y-120996466D01*
X175642037Y-120826627D01*
X175624641Y-120650000D01*
X175642037Y-120473373D01*
X175693557Y-120303534D01*
X175777222Y-120147009D01*
X175806552Y-120111271D01*
X175889814Y-120009814D01*
X176023143Y-119900395D01*
X176027009Y-119897222D01*
X176183534Y-119813557D01*
X176353373Y-119762037D01*
X176419558Y-119755518D01*
X176485740Y-119749000D01*
X176574260Y-119749000D01*
X176640442Y-119755518D01*
X176640442Y-119755518D01*
G37*
G36*
X138189562Y-119636681D02*
G01*
X138224481Y-119647274D01*
X138256663Y-119664476D01*
X138284873Y-119687627D01*
X138308024Y-119715837D01*
X138325226Y-119748019D01*
X138335819Y-119782938D01*
X138340000Y-119825395D01*
X138340000Y-120966605D01*
X138335819Y-121009062D01*
X138325226Y-121043981D01*
X138308024Y-121076163D01*
X138284873Y-121104373D01*
X138256663Y-121127524D01*
X138224481Y-121144726D01*
X138189562Y-121155319D01*
X138147105Y-121159500D01*
X136680895Y-121159500D01*
X136638438Y-121155319D01*
X136603519Y-121144726D01*
X136571337Y-121127524D01*
X136543127Y-121104373D01*
X136519976Y-121076163D01*
X136502774Y-121043981D01*
X136492181Y-121009062D01*
X136488000Y-120966605D01*
X136488000Y-119825395D01*
X136492181Y-119782938D01*
X136502774Y-119748019D01*
X136519976Y-119715837D01*
X136543127Y-119687627D01*
X136571337Y-119664476D01*
X136603519Y-119647274D01*
X136638438Y-119636681D01*
X136680895Y-119632500D01*
X138147105Y-119632500D01*
X138189562Y-119636681D01*
X138189562Y-119636681D01*
G37*
G36*
X142589000Y-120331000D02*
G01*
X139987000Y-120331000D01*
X139987000Y-118429000D01*
X142589000Y-118429000D01*
X142589000Y-120331000D01*
X142589000Y-120331000D01*
G37*
G36*
X146589000Y-120331000D02*
G01*
X143987000Y-120331000D01*
X143987000Y-118429000D01*
X146589000Y-118429000D01*
X146589000Y-120331000D01*
X146589000Y-120331000D01*
G37*
G36*
X134591934Y-116050671D02*
G01*
X134621877Y-116059754D01*
X134649465Y-116074500D01*
X134673651Y-116094349D01*
X134693500Y-116118535D01*
X134708246Y-116146123D01*
X134717329Y-116176066D01*
X134721000Y-116213340D01*
X134721000Y-118482660D01*
X134717329Y-118519934D01*
X134708246Y-118549877D01*
X134693500Y-118577465D01*
X134673651Y-118601651D01*
X134649465Y-118621500D01*
X134621877Y-118636246D01*
X134591934Y-118645329D01*
X134554660Y-118649000D01*
X130385340Y-118649000D01*
X130348066Y-118645329D01*
X130318123Y-118636246D01*
X130290535Y-118621500D01*
X130266349Y-118601651D01*
X130246500Y-118577465D01*
X130231754Y-118549877D01*
X130222671Y-118519934D01*
X130219000Y-118482660D01*
X130219000Y-116213340D01*
X130222671Y-116176066D01*
X130231754Y-116146123D01*
X130246500Y-116118535D01*
X130266349Y-116094349D01*
X130290535Y-116074500D01*
X130318123Y-116059754D01*
X130348066Y-116050671D01*
X130385340Y-116047000D01*
X134554660Y-116047000D01*
X134591934Y-116050671D01*
X134591934Y-116050671D01*
G37*
G36*
X126191934Y-116050671D02*
G01*
X126221877Y-116059754D01*
X126249465Y-116074500D01*
X126273651Y-116094349D01*
X126293500Y-116118535D01*
X126308246Y-116146123D01*
X126317329Y-116176066D01*
X126321000Y-116213340D01*
X126321000Y-118482660D01*
X126317329Y-118519934D01*
X126308246Y-118549877D01*
X126293500Y-118577465D01*
X126273651Y-118601651D01*
X126249465Y-118621500D01*
X126221877Y-118636246D01*
X126191934Y-118645329D01*
X126154660Y-118649000D01*
X121985340Y-118649000D01*
X121948066Y-118645329D01*
X121918123Y-118636246D01*
X121890535Y-118621500D01*
X121866349Y-118601651D01*
X121846500Y-118577465D01*
X121831754Y-118549877D01*
X121822671Y-118519934D01*
X121819000Y-118482660D01*
X121819000Y-116213340D01*
X121822671Y-116176066D01*
X121831754Y-116146123D01*
X121846500Y-116118535D01*
X121866349Y-116094349D01*
X121890535Y-116074500D01*
X121918123Y-116059754D01*
X121948066Y-116050671D01*
X121985340Y-116047000D01*
X126154660Y-116047000D01*
X126191934Y-116050671D01*
X126191934Y-116050671D01*
G37*
G36*
X138189562Y-116661681D02*
G01*
X138224481Y-116672274D01*
X138256663Y-116689476D01*
X138284873Y-116712627D01*
X138308024Y-116740837D01*
X138325226Y-116773019D01*
X138335819Y-116807938D01*
X138340000Y-116850395D01*
X138340000Y-117991605D01*
X138335819Y-118034062D01*
X138325226Y-118068981D01*
X138308024Y-118101163D01*
X138284873Y-118129373D01*
X138256663Y-118152524D01*
X138224481Y-118169726D01*
X138189562Y-118180319D01*
X138147105Y-118184500D01*
X136680895Y-118184500D01*
X136638438Y-118180319D01*
X136603519Y-118169726D01*
X136571337Y-118152524D01*
X136543127Y-118129373D01*
X136519976Y-118101163D01*
X136502774Y-118068981D01*
X136492181Y-118034062D01*
X136488000Y-117991605D01*
X136488000Y-116850395D01*
X136492181Y-116807938D01*
X136502774Y-116773019D01*
X136519976Y-116740837D01*
X136543127Y-116712627D01*
X136571337Y-116689476D01*
X136603519Y-116672274D01*
X136638438Y-116661681D01*
X136680895Y-116657500D01*
X138147105Y-116657500D01*
X138189562Y-116661681D01*
X138189562Y-116661681D01*
G37*
G36*
X150864394Y-114770934D02*
G01*
X151015624Y-114833576D01*
X151015626Y-114833577D01*
X151151732Y-114924520D01*
X151267480Y-115040268D01*
X151358423Y-115176374D01*
X151358424Y-115176376D01*
X151421066Y-115327606D01*
X151453000Y-115488152D01*
X151453000Y-115651848D01*
X151421066Y-115812394D01*
X151358424Y-115963624D01*
X151358423Y-115963626D01*
X151267480Y-116099732D01*
X151151732Y-116215480D01*
X151015626Y-116306423D01*
X151015625Y-116306424D01*
X151015624Y-116306424D01*
X150864394Y-116369066D01*
X150703848Y-116401000D01*
X150540152Y-116401000D01*
X150379606Y-116369066D01*
X150228376Y-116306424D01*
X150228375Y-116306424D01*
X150228374Y-116306423D01*
X150092268Y-116215480D01*
X149976520Y-116099732D01*
X149885577Y-115963626D01*
X149885576Y-115963624D01*
X149822934Y-115812394D01*
X149791000Y-115651848D01*
X149791000Y-115488152D01*
X149822934Y-115327606D01*
X149885576Y-115176376D01*
X149885577Y-115176374D01*
X149976520Y-115040268D01*
X150092268Y-114924520D01*
X150228374Y-114833577D01*
X150228376Y-114833576D01*
X150379606Y-114770934D01*
X150540152Y-114739000D01*
X150703848Y-114739000D01*
X150864394Y-114770934D01*
X150864394Y-114770934D01*
G37*
G36*
X148913000Y-116401000D02*
G01*
X147251000Y-116401000D01*
X147251000Y-114739000D01*
X148913000Y-114739000D01*
X148913000Y-116401000D01*
X148913000Y-116401000D01*
G37*
G36*
X153404394Y-114770934D02*
G01*
X153555624Y-114833576D01*
X153555626Y-114833577D01*
X153691732Y-114924520D01*
X153807480Y-115040268D01*
X153898423Y-115176374D01*
X153898424Y-115176376D01*
X153961066Y-115327606D01*
X153993000Y-115488152D01*
X153993000Y-115651848D01*
X153961066Y-115812394D01*
X153898424Y-115963624D01*
X153898423Y-115963626D01*
X153807480Y-116099732D01*
X153691732Y-116215480D01*
X153555626Y-116306423D01*
X153555625Y-116306424D01*
X153555624Y-116306424D01*
X153404394Y-116369066D01*
X153243848Y-116401000D01*
X153080152Y-116401000D01*
X152919606Y-116369066D01*
X152768376Y-116306424D01*
X152768375Y-116306424D01*
X152768374Y-116306423D01*
X152632268Y-116215480D01*
X152516520Y-116099732D01*
X152425577Y-115963626D01*
X152425576Y-115963624D01*
X152362934Y-115812394D01*
X152331000Y-115651848D01*
X152331000Y-115488152D01*
X152362934Y-115327606D01*
X152425576Y-115176376D01*
X152425577Y-115176374D01*
X152516520Y-115040268D01*
X152632268Y-114924520D01*
X152768374Y-114833577D01*
X152768376Y-114833576D01*
X152919606Y-114770934D01*
X153080152Y-114739000D01*
X153243848Y-114739000D01*
X153404394Y-114770934D01*
X153404394Y-114770934D01*
G37*
G36*
X194044394Y-114770934D02*
G01*
X194195624Y-114833576D01*
X194195626Y-114833577D01*
X194331732Y-114924520D01*
X194447480Y-115040268D01*
X194538423Y-115176374D01*
X194538424Y-115176376D01*
X194601066Y-115327606D01*
X194633000Y-115488152D01*
X194633000Y-115651848D01*
X194601066Y-115812394D01*
X194538424Y-115963624D01*
X194538423Y-115963626D01*
X194447480Y-116099732D01*
X194331732Y-116215480D01*
X194195626Y-116306423D01*
X194195625Y-116306424D01*
X194195624Y-116306424D01*
X194044394Y-116369066D01*
X193883848Y-116401000D01*
X193720152Y-116401000D01*
X193559606Y-116369066D01*
X193408376Y-116306424D01*
X193408375Y-116306424D01*
X193408374Y-116306423D01*
X193272268Y-116215480D01*
X193156520Y-116099732D01*
X193065577Y-115963626D01*
X193065576Y-115963624D01*
X193002934Y-115812394D01*
X192971000Y-115651848D01*
X192971000Y-115488152D01*
X193002934Y-115327606D01*
X193065576Y-115176376D01*
X193065577Y-115176374D01*
X193156520Y-115040268D01*
X193272268Y-114924520D01*
X193408374Y-114833577D01*
X193408376Y-114833576D01*
X193559606Y-114770934D01*
X193720152Y-114739000D01*
X193883848Y-114739000D01*
X194044394Y-114770934D01*
X194044394Y-114770934D01*
G37*
G36*
X191504394Y-114770934D02*
G01*
X191655624Y-114833576D01*
X191655626Y-114833577D01*
X191791732Y-114924520D01*
X191907480Y-115040268D01*
X191998423Y-115176374D01*
X191998424Y-115176376D01*
X192061066Y-115327606D01*
X192093000Y-115488152D01*
X192093000Y-115651848D01*
X192061066Y-115812394D01*
X191998424Y-115963624D01*
X191998423Y-115963626D01*
X191907480Y-116099732D01*
X191791732Y-116215480D01*
X191655626Y-116306423D01*
X191655625Y-116306424D01*
X191655624Y-116306424D01*
X191504394Y-116369066D01*
X191343848Y-116401000D01*
X191180152Y-116401000D01*
X191019606Y-116369066D01*
X190868376Y-116306424D01*
X190868375Y-116306424D01*
X190868374Y-116306423D01*
X190732268Y-116215480D01*
X190616520Y-116099732D01*
X190525577Y-115963626D01*
X190525576Y-115963624D01*
X190462934Y-115812394D01*
X190431000Y-115651848D01*
X190431000Y-115488152D01*
X190462934Y-115327606D01*
X190525576Y-115176376D01*
X190525577Y-115176374D01*
X190616520Y-115040268D01*
X190732268Y-114924520D01*
X190868374Y-114833577D01*
X190868376Y-114833576D01*
X191019606Y-114770934D01*
X191180152Y-114739000D01*
X191343848Y-114739000D01*
X191504394Y-114770934D01*
X191504394Y-114770934D01*
G37*
G36*
X188964394Y-114770934D02*
G01*
X189115624Y-114833576D01*
X189115626Y-114833577D01*
X189251732Y-114924520D01*
X189367480Y-115040268D01*
X189458423Y-115176374D01*
X189458424Y-115176376D01*
X189521066Y-115327606D01*
X189553000Y-115488152D01*
X189553000Y-115651848D01*
X189521066Y-115812394D01*
X189458424Y-115963624D01*
X189458423Y-115963626D01*
X189367480Y-116099732D01*
X189251732Y-116215480D01*
X189115626Y-116306423D01*
X189115625Y-116306424D01*
X189115624Y-116306424D01*
X188964394Y-116369066D01*
X188803848Y-116401000D01*
X188640152Y-116401000D01*
X188479606Y-116369066D01*
X188328376Y-116306424D01*
X188328375Y-116306424D01*
X188328374Y-116306423D01*
X188192268Y-116215480D01*
X188076520Y-116099732D01*
X187985577Y-115963626D01*
X187985576Y-115963624D01*
X187922934Y-115812394D01*
X187891000Y-115651848D01*
X187891000Y-115488152D01*
X187922934Y-115327606D01*
X187985576Y-115176376D01*
X187985577Y-115176374D01*
X188076520Y-115040268D01*
X188192268Y-114924520D01*
X188328374Y-114833577D01*
X188328376Y-114833576D01*
X188479606Y-114770934D01*
X188640152Y-114739000D01*
X188803848Y-114739000D01*
X188964394Y-114770934D01*
X188964394Y-114770934D01*
G37*
G36*
X186424394Y-114770934D02*
G01*
X186575624Y-114833576D01*
X186575626Y-114833577D01*
X186711732Y-114924520D01*
X186827480Y-115040268D01*
X186918423Y-115176374D01*
X186918424Y-115176376D01*
X186981066Y-115327606D01*
X187013000Y-115488152D01*
X187013000Y-115651848D01*
X186981066Y-115812394D01*
X186918424Y-115963624D01*
X186918423Y-115963626D01*
X186827480Y-116099732D01*
X186711732Y-116215480D01*
X186575626Y-116306423D01*
X186575625Y-116306424D01*
X186575624Y-116306424D01*
X186424394Y-116369066D01*
X186263848Y-116401000D01*
X186100152Y-116401000D01*
X185939606Y-116369066D01*
X185788376Y-116306424D01*
X185788375Y-116306424D01*
X185788374Y-116306423D01*
X185652268Y-116215480D01*
X185536520Y-116099732D01*
X185445577Y-115963626D01*
X185445576Y-115963624D01*
X185382934Y-115812394D01*
X185351000Y-115651848D01*
X185351000Y-115488152D01*
X185382934Y-115327606D01*
X185445576Y-115176376D01*
X185445577Y-115176374D01*
X185536520Y-115040268D01*
X185652268Y-114924520D01*
X185788374Y-114833577D01*
X185788376Y-114833576D01*
X185939606Y-114770934D01*
X186100152Y-114739000D01*
X186263848Y-114739000D01*
X186424394Y-114770934D01*
X186424394Y-114770934D01*
G37*
G36*
X183884394Y-114770934D02*
G01*
X184035624Y-114833576D01*
X184035626Y-114833577D01*
X184171732Y-114924520D01*
X184287480Y-115040268D01*
X184378423Y-115176374D01*
X184378424Y-115176376D01*
X184441066Y-115327606D01*
X184473000Y-115488152D01*
X184473000Y-115651848D01*
X184441066Y-115812394D01*
X184378424Y-115963624D01*
X184378423Y-115963626D01*
X184287480Y-116099732D01*
X184171732Y-116215480D01*
X184035626Y-116306423D01*
X184035625Y-116306424D01*
X184035624Y-116306424D01*
X183884394Y-116369066D01*
X183723848Y-116401000D01*
X183560152Y-116401000D01*
X183399606Y-116369066D01*
X183248376Y-116306424D01*
X183248375Y-116306424D01*
X183248374Y-116306423D01*
X183112268Y-116215480D01*
X182996520Y-116099732D01*
X182905577Y-115963626D01*
X182905576Y-115963624D01*
X182842934Y-115812394D01*
X182811000Y-115651848D01*
X182811000Y-115488152D01*
X182842934Y-115327606D01*
X182905576Y-115176376D01*
X182905577Y-115176374D01*
X182996520Y-115040268D01*
X183112268Y-114924520D01*
X183248374Y-114833577D01*
X183248376Y-114833576D01*
X183399606Y-114770934D01*
X183560152Y-114739000D01*
X183723848Y-114739000D01*
X183884394Y-114770934D01*
X183884394Y-114770934D01*
G37*
G36*
X176264394Y-114770934D02*
G01*
X176415624Y-114833576D01*
X176415626Y-114833577D01*
X176551732Y-114924520D01*
X176667480Y-115040268D01*
X176758423Y-115176374D01*
X176758424Y-115176376D01*
X176821066Y-115327606D01*
X176853000Y-115488152D01*
X176853000Y-115651848D01*
X176821066Y-115812394D01*
X176758424Y-115963624D01*
X176758423Y-115963626D01*
X176667480Y-116099732D01*
X176551732Y-116215480D01*
X176415626Y-116306423D01*
X176415625Y-116306424D01*
X176415624Y-116306424D01*
X176264394Y-116369066D01*
X176103848Y-116401000D01*
X175940152Y-116401000D01*
X175779606Y-116369066D01*
X175628376Y-116306424D01*
X175628375Y-116306424D01*
X175628374Y-116306423D01*
X175492268Y-116215480D01*
X175376520Y-116099732D01*
X175285577Y-115963626D01*
X175285576Y-115963624D01*
X175222934Y-115812394D01*
X175191000Y-115651848D01*
X175191000Y-115488152D01*
X175222934Y-115327606D01*
X175285576Y-115176376D01*
X175285577Y-115176374D01*
X175376520Y-115040268D01*
X175492268Y-114924520D01*
X175628374Y-114833577D01*
X175628376Y-114833576D01*
X175779606Y-114770934D01*
X175940152Y-114739000D01*
X176103848Y-114739000D01*
X176264394Y-114770934D01*
X176264394Y-114770934D01*
G37*
G36*
X181344394Y-114770934D02*
G01*
X181495624Y-114833576D01*
X181495626Y-114833577D01*
X181631732Y-114924520D01*
X181747480Y-115040268D01*
X181838423Y-115176374D01*
X181838424Y-115176376D01*
X181901066Y-115327606D01*
X181933000Y-115488152D01*
X181933000Y-115651848D01*
X181901066Y-115812394D01*
X181838424Y-115963624D01*
X181838423Y-115963626D01*
X181747480Y-116099732D01*
X181631732Y-116215480D01*
X181495626Y-116306423D01*
X181495625Y-116306424D01*
X181495624Y-116306424D01*
X181344394Y-116369066D01*
X181183848Y-116401000D01*
X181020152Y-116401000D01*
X180859606Y-116369066D01*
X180708376Y-116306424D01*
X180708375Y-116306424D01*
X180708374Y-116306423D01*
X180572268Y-116215480D01*
X180456520Y-116099732D01*
X180365577Y-115963626D01*
X180365576Y-115963624D01*
X180302934Y-115812394D01*
X180271000Y-115651848D01*
X180271000Y-115488152D01*
X180302934Y-115327606D01*
X180365576Y-115176376D01*
X180365577Y-115176374D01*
X180456520Y-115040268D01*
X180572268Y-114924520D01*
X180708374Y-114833577D01*
X180708376Y-114833576D01*
X180859606Y-114770934D01*
X181020152Y-114739000D01*
X181183848Y-114739000D01*
X181344394Y-114770934D01*
X181344394Y-114770934D01*
G37*
G36*
X173724394Y-114770934D02*
G01*
X173875624Y-114833576D01*
X173875626Y-114833577D01*
X174011732Y-114924520D01*
X174127480Y-115040268D01*
X174218423Y-115176374D01*
X174218424Y-115176376D01*
X174281066Y-115327606D01*
X174313000Y-115488152D01*
X174313000Y-115651848D01*
X174281066Y-115812394D01*
X174218424Y-115963624D01*
X174218423Y-115963626D01*
X174127480Y-116099732D01*
X174011732Y-116215480D01*
X173875626Y-116306423D01*
X173875625Y-116306424D01*
X173875624Y-116306424D01*
X173724394Y-116369066D01*
X173563848Y-116401000D01*
X173400152Y-116401000D01*
X173239606Y-116369066D01*
X173088376Y-116306424D01*
X173088375Y-116306424D01*
X173088374Y-116306423D01*
X172952268Y-116215480D01*
X172836520Y-116099732D01*
X172745577Y-115963626D01*
X172745576Y-115963624D01*
X172682934Y-115812394D01*
X172651000Y-115651848D01*
X172651000Y-115488152D01*
X172682934Y-115327606D01*
X172745576Y-115176376D01*
X172745577Y-115176374D01*
X172836520Y-115040268D01*
X172952268Y-114924520D01*
X173088374Y-114833577D01*
X173088376Y-114833576D01*
X173239606Y-114770934D01*
X173400152Y-114739000D01*
X173563848Y-114739000D01*
X173724394Y-114770934D01*
X173724394Y-114770934D01*
G37*
G36*
X171184394Y-114770934D02*
G01*
X171335624Y-114833576D01*
X171335626Y-114833577D01*
X171471732Y-114924520D01*
X171587480Y-115040268D01*
X171678423Y-115176374D01*
X171678424Y-115176376D01*
X171741066Y-115327606D01*
X171773000Y-115488152D01*
X171773000Y-115651848D01*
X171741066Y-115812394D01*
X171678424Y-115963624D01*
X171678423Y-115963626D01*
X171587480Y-116099732D01*
X171471732Y-116215480D01*
X171335626Y-116306423D01*
X171335625Y-116306424D01*
X171335624Y-116306424D01*
X171184394Y-116369066D01*
X171023848Y-116401000D01*
X170860152Y-116401000D01*
X170699606Y-116369066D01*
X170548376Y-116306424D01*
X170548375Y-116306424D01*
X170548374Y-116306423D01*
X170412268Y-116215480D01*
X170296520Y-116099732D01*
X170205577Y-115963626D01*
X170205576Y-115963624D01*
X170142934Y-115812394D01*
X170111000Y-115651848D01*
X170111000Y-115488152D01*
X170142934Y-115327606D01*
X170205576Y-115176376D01*
X170205577Y-115176374D01*
X170296520Y-115040268D01*
X170412268Y-114924520D01*
X170548374Y-114833577D01*
X170548376Y-114833576D01*
X170699606Y-114770934D01*
X170860152Y-114739000D01*
X171023848Y-114739000D01*
X171184394Y-114770934D01*
X171184394Y-114770934D01*
G37*
G36*
X168644394Y-114770934D02*
G01*
X168795624Y-114833576D01*
X168795626Y-114833577D01*
X168931732Y-114924520D01*
X169047480Y-115040268D01*
X169138423Y-115176374D01*
X169138424Y-115176376D01*
X169201066Y-115327606D01*
X169233000Y-115488152D01*
X169233000Y-115651848D01*
X169201066Y-115812394D01*
X169138424Y-115963624D01*
X169138423Y-115963626D01*
X169047480Y-116099732D01*
X168931732Y-116215480D01*
X168795626Y-116306423D01*
X168795625Y-116306424D01*
X168795624Y-116306424D01*
X168644394Y-116369066D01*
X168483848Y-116401000D01*
X168320152Y-116401000D01*
X168159606Y-116369066D01*
X168008376Y-116306424D01*
X168008375Y-116306424D01*
X168008374Y-116306423D01*
X167872268Y-116215480D01*
X167756520Y-116099732D01*
X167665577Y-115963626D01*
X167665576Y-115963624D01*
X167602934Y-115812394D01*
X167571000Y-115651848D01*
X167571000Y-115488152D01*
X167602934Y-115327606D01*
X167665576Y-115176376D01*
X167665577Y-115176374D01*
X167756520Y-115040268D01*
X167872268Y-114924520D01*
X168008374Y-114833577D01*
X168008376Y-114833576D01*
X168159606Y-114770934D01*
X168320152Y-114739000D01*
X168483848Y-114739000D01*
X168644394Y-114770934D01*
X168644394Y-114770934D01*
G37*
G36*
X166104394Y-114770934D02*
G01*
X166255624Y-114833576D01*
X166255626Y-114833577D01*
X166391732Y-114924520D01*
X166507480Y-115040268D01*
X166598423Y-115176374D01*
X166598424Y-115176376D01*
X166661066Y-115327606D01*
X166693000Y-115488152D01*
X166693000Y-115651848D01*
X166661066Y-115812394D01*
X166598424Y-115963624D01*
X166598423Y-115963626D01*
X166507480Y-116099732D01*
X166391732Y-116215480D01*
X166255626Y-116306423D01*
X166255625Y-116306424D01*
X166255624Y-116306424D01*
X166104394Y-116369066D01*
X165943848Y-116401000D01*
X165780152Y-116401000D01*
X165619606Y-116369066D01*
X165468376Y-116306424D01*
X165468375Y-116306424D01*
X165468374Y-116306423D01*
X165332268Y-116215480D01*
X165216520Y-116099732D01*
X165125577Y-115963626D01*
X165125576Y-115963624D01*
X165062934Y-115812394D01*
X165031000Y-115651848D01*
X165031000Y-115488152D01*
X165062934Y-115327606D01*
X165125576Y-115176376D01*
X165125577Y-115176374D01*
X165216520Y-115040268D01*
X165332268Y-114924520D01*
X165468374Y-114833577D01*
X165468376Y-114833576D01*
X165619606Y-114770934D01*
X165780152Y-114739000D01*
X165943848Y-114739000D01*
X166104394Y-114770934D01*
X166104394Y-114770934D01*
G37*
G36*
X163564394Y-114770934D02*
G01*
X163715624Y-114833576D01*
X163715626Y-114833577D01*
X163851732Y-114924520D01*
X163967480Y-115040268D01*
X164058423Y-115176374D01*
X164058424Y-115176376D01*
X164121066Y-115327606D01*
X164153000Y-115488152D01*
X164153000Y-115651848D01*
X164121066Y-115812394D01*
X164058424Y-115963624D01*
X164058423Y-115963626D01*
X163967480Y-116099732D01*
X163851732Y-116215480D01*
X163715626Y-116306423D01*
X163715625Y-116306424D01*
X163715624Y-116306424D01*
X163564394Y-116369066D01*
X163403848Y-116401000D01*
X163240152Y-116401000D01*
X163079606Y-116369066D01*
X162928376Y-116306424D01*
X162928375Y-116306424D01*
X162928374Y-116306423D01*
X162792268Y-116215480D01*
X162676520Y-116099732D01*
X162585577Y-115963626D01*
X162585576Y-115963624D01*
X162522934Y-115812394D01*
X162491000Y-115651848D01*
X162491000Y-115488152D01*
X162522934Y-115327606D01*
X162585576Y-115176376D01*
X162585577Y-115176374D01*
X162676520Y-115040268D01*
X162792268Y-114924520D01*
X162928374Y-114833577D01*
X162928376Y-114833576D01*
X163079606Y-114770934D01*
X163240152Y-114739000D01*
X163403848Y-114739000D01*
X163564394Y-114770934D01*
X163564394Y-114770934D01*
G37*
G36*
X158484394Y-114770934D02*
G01*
X158635624Y-114833576D01*
X158635626Y-114833577D01*
X158771732Y-114924520D01*
X158887480Y-115040268D01*
X158978423Y-115176374D01*
X158978424Y-115176376D01*
X159041066Y-115327606D01*
X159073000Y-115488152D01*
X159073000Y-115651848D01*
X159041066Y-115812394D01*
X158978424Y-115963624D01*
X158978423Y-115963626D01*
X158887480Y-116099732D01*
X158771732Y-116215480D01*
X158635626Y-116306423D01*
X158635625Y-116306424D01*
X158635624Y-116306424D01*
X158484394Y-116369066D01*
X158323848Y-116401000D01*
X158160152Y-116401000D01*
X157999606Y-116369066D01*
X157848376Y-116306424D01*
X157848375Y-116306424D01*
X157848374Y-116306423D01*
X157712268Y-116215480D01*
X157596520Y-116099732D01*
X157505577Y-115963626D01*
X157505576Y-115963624D01*
X157442934Y-115812394D01*
X157411000Y-115651848D01*
X157411000Y-115488152D01*
X157442934Y-115327606D01*
X157505576Y-115176376D01*
X157505577Y-115176374D01*
X157596520Y-115040268D01*
X157712268Y-114924520D01*
X157848374Y-114833577D01*
X157848376Y-114833576D01*
X157999606Y-114770934D01*
X158160152Y-114739000D01*
X158323848Y-114739000D01*
X158484394Y-114770934D01*
X158484394Y-114770934D01*
G37*
G36*
X161024394Y-114770934D02*
G01*
X161175624Y-114833576D01*
X161175626Y-114833577D01*
X161311732Y-114924520D01*
X161427480Y-115040268D01*
X161518423Y-115176374D01*
X161518424Y-115176376D01*
X161581066Y-115327606D01*
X161613000Y-115488152D01*
X161613000Y-115651848D01*
X161581066Y-115812394D01*
X161518424Y-115963624D01*
X161518423Y-115963626D01*
X161427480Y-116099732D01*
X161311732Y-116215480D01*
X161175626Y-116306423D01*
X161175625Y-116306424D01*
X161175624Y-116306424D01*
X161024394Y-116369066D01*
X160863848Y-116401000D01*
X160700152Y-116401000D01*
X160539606Y-116369066D01*
X160388376Y-116306424D01*
X160388375Y-116306424D01*
X160388374Y-116306423D01*
X160252268Y-116215480D01*
X160136520Y-116099732D01*
X160045577Y-115963626D01*
X160045576Y-115963624D01*
X159982934Y-115812394D01*
X159951000Y-115651848D01*
X159951000Y-115488152D01*
X159982934Y-115327606D01*
X160045576Y-115176376D01*
X160045577Y-115176374D01*
X160136520Y-115040268D01*
X160252268Y-114924520D01*
X160388374Y-114833577D01*
X160388376Y-114833576D01*
X160539606Y-114770934D01*
X160700152Y-114739000D01*
X160863848Y-114739000D01*
X161024394Y-114770934D01*
X161024394Y-114770934D01*
G37*
G36*
X155944394Y-114770934D02*
G01*
X156095624Y-114833576D01*
X156095626Y-114833577D01*
X156231732Y-114924520D01*
X156347480Y-115040268D01*
X156438423Y-115176374D01*
X156438424Y-115176376D01*
X156501066Y-115327606D01*
X156533000Y-115488152D01*
X156533000Y-115651848D01*
X156501066Y-115812394D01*
X156438424Y-115963624D01*
X156438423Y-115963626D01*
X156347480Y-116099732D01*
X156231732Y-116215480D01*
X156095626Y-116306423D01*
X156095625Y-116306424D01*
X156095624Y-116306424D01*
X155944394Y-116369066D01*
X155783848Y-116401000D01*
X155620152Y-116401000D01*
X155459606Y-116369066D01*
X155308376Y-116306424D01*
X155308375Y-116306424D01*
X155308374Y-116306423D01*
X155172268Y-116215480D01*
X155056520Y-116099732D01*
X154965577Y-115963626D01*
X154965576Y-115963624D01*
X154902934Y-115812394D01*
X154871000Y-115651848D01*
X154871000Y-115488152D01*
X154902934Y-115327606D01*
X154965576Y-115176376D01*
X154965577Y-115176374D01*
X155056520Y-115040268D01*
X155172268Y-114924520D01*
X155308374Y-114833577D01*
X155308376Y-114833576D01*
X155459606Y-114770934D01*
X155620152Y-114739000D01*
X155783848Y-114739000D01*
X155944394Y-114770934D01*
X155944394Y-114770934D01*
G37*
G36*
X178804394Y-114770934D02*
G01*
X178955624Y-114833576D01*
X178955626Y-114833577D01*
X179091732Y-114924520D01*
X179207480Y-115040268D01*
X179298423Y-115176374D01*
X179298424Y-115176376D01*
X179361066Y-115327606D01*
X179393000Y-115488152D01*
X179393000Y-115651848D01*
X179361066Y-115812394D01*
X179298424Y-115963624D01*
X179298423Y-115963626D01*
X179207480Y-116099732D01*
X179091732Y-116215480D01*
X178955626Y-116306423D01*
X178955625Y-116306424D01*
X178955624Y-116306424D01*
X178804394Y-116369066D01*
X178643848Y-116401000D01*
X178480152Y-116401000D01*
X178319606Y-116369066D01*
X178168376Y-116306424D01*
X178168375Y-116306424D01*
X178168374Y-116306423D01*
X178032268Y-116215480D01*
X177916520Y-116099732D01*
X177825577Y-115963626D01*
X177825576Y-115963624D01*
X177762934Y-115812394D01*
X177731000Y-115651848D01*
X177731000Y-115488152D01*
X177762934Y-115327606D01*
X177825576Y-115176376D01*
X177825577Y-115176374D01*
X177916520Y-115040268D01*
X178032268Y-114924520D01*
X178168374Y-114833577D01*
X178168376Y-114833576D01*
X178319606Y-114770934D01*
X178480152Y-114739000D01*
X178643848Y-114739000D01*
X178804394Y-114770934D01*
X178804394Y-114770934D01*
G37*
G36*
X197908431Y-112713569D02*
G01*
X197909000Y-112719339D01*
X197909000Y-113708657D01*
X197908431Y-113714431D01*
X197902657Y-113715000D01*
X196813343Y-113715000D01*
X196807569Y-113714431D01*
X196807000Y-113708657D01*
X196807000Y-112719339D01*
X196807569Y-112713569D01*
X196813343Y-112713000D01*
X197902657Y-112713000D01*
X197908431Y-112713569D01*
X197908431Y-112713569D01*
G37*
G36*
X165180674Y-111646465D02*
G01*
X165218367Y-111657899D01*
X165253103Y-111676466D01*
X165283548Y-111701452D01*
X165308534Y-111731897D01*
X165327101Y-111766633D01*
X165338535Y-111804326D01*
X165343000Y-111849661D01*
X165343000Y-112686339D01*
X165338535Y-112731674D01*
X165327101Y-112769367D01*
X165308534Y-112804103D01*
X165283548Y-112834548D01*
X165253103Y-112859534D01*
X165218367Y-112878101D01*
X165180674Y-112889535D01*
X165135339Y-112894000D01*
X164048661Y-112894000D01*
X164003326Y-112889535D01*
X163965633Y-112878101D01*
X163930897Y-112859534D01*
X163900452Y-112834548D01*
X163875466Y-112804103D01*
X163856899Y-112769367D01*
X163845465Y-112731674D01*
X163841000Y-112686339D01*
X163841000Y-111849661D01*
X163845465Y-111804326D01*
X163856899Y-111766633D01*
X163875466Y-111731897D01*
X163900452Y-111701452D01*
X163930897Y-111676466D01*
X163965633Y-111657899D01*
X164003326Y-111646465D01*
X164048661Y-111642000D01*
X165135339Y-111642000D01*
X165180674Y-111646465D01*
X165180674Y-111646465D01*
G37*
G36*
X194528674Y-110251465D02*
G01*
X194566367Y-110262899D01*
X194601103Y-110281466D01*
X194631548Y-110306452D01*
X194656534Y-110336897D01*
X194675101Y-110371633D01*
X194686535Y-110409326D01*
X194691000Y-110454661D01*
X194691000Y-111541339D01*
X194686535Y-111586674D01*
X194675101Y-111624367D01*
X194656534Y-111659103D01*
X194631548Y-111689548D01*
X194601103Y-111714534D01*
X194566367Y-111733101D01*
X194528674Y-111744535D01*
X194483339Y-111749000D01*
X193646661Y-111749000D01*
X193601326Y-111744535D01*
X193563633Y-111733101D01*
X193528897Y-111714534D01*
X193498452Y-111689548D01*
X193473466Y-111659103D01*
X193454899Y-111624367D01*
X193443465Y-111586674D01*
X193439000Y-111541339D01*
X193439000Y-110454661D01*
X193443465Y-110409326D01*
X193454899Y-110371633D01*
X193473466Y-110336897D01*
X193498452Y-110306452D01*
X193528897Y-110281466D01*
X193563633Y-110262899D01*
X193601326Y-110251465D01*
X193646661Y-110247000D01*
X194483339Y-110247000D01*
X194528674Y-110251465D01*
X194528674Y-110251465D01*
G37*
G36*
X192478674Y-110251465D02*
G01*
X192516367Y-110262899D01*
X192551103Y-110281466D01*
X192581548Y-110306452D01*
X192606534Y-110336897D01*
X192625101Y-110371633D01*
X192636535Y-110409326D01*
X192641000Y-110454661D01*
X192641000Y-111541339D01*
X192636535Y-111586674D01*
X192625101Y-111624367D01*
X192606534Y-111659103D01*
X192581548Y-111689548D01*
X192551103Y-111714534D01*
X192516367Y-111733101D01*
X192478674Y-111744535D01*
X192433339Y-111749000D01*
X191596661Y-111749000D01*
X191551326Y-111744535D01*
X191513633Y-111733101D01*
X191478897Y-111714534D01*
X191448452Y-111689548D01*
X191423466Y-111659103D01*
X191404899Y-111624367D01*
X191393465Y-111586674D01*
X191389000Y-111541339D01*
X191389000Y-110454661D01*
X191393465Y-110409326D01*
X191404899Y-110371633D01*
X191423466Y-110336897D01*
X191448452Y-110306452D01*
X191478897Y-110281466D01*
X191513633Y-110262899D01*
X191551326Y-110251465D01*
X191596661Y-110247000D01*
X192433339Y-110247000D01*
X192478674Y-110251465D01*
X192478674Y-110251465D01*
G37*
G36*
X197908431Y-110313569D02*
G01*
X197909000Y-110319339D01*
X197909000Y-111308657D01*
X197908431Y-111314431D01*
X197902657Y-111315000D01*
X196813343Y-111315000D01*
X196807569Y-111314431D01*
X196807000Y-111308657D01*
X196807000Y-110319339D01*
X196807569Y-110313569D01*
X196813343Y-110313000D01*
X197902657Y-110313000D01*
X197908431Y-110313569D01*
X197908431Y-110313569D01*
G37*
G36*
X165180674Y-109596465D02*
G01*
X165218367Y-109607899D01*
X165253103Y-109626466D01*
X165283548Y-109651452D01*
X165308534Y-109681897D01*
X165327101Y-109716633D01*
X165338535Y-109754326D01*
X165343000Y-109799661D01*
X165343000Y-110636339D01*
X165338535Y-110681674D01*
X165327101Y-110719367D01*
X165308534Y-110754103D01*
X165283548Y-110784548D01*
X165253103Y-110809534D01*
X165218367Y-110828101D01*
X165180674Y-110839535D01*
X165135339Y-110844000D01*
X164048661Y-110844000D01*
X164003326Y-110839535D01*
X163965633Y-110828101D01*
X163930897Y-110809534D01*
X163900452Y-110784548D01*
X163875466Y-110754103D01*
X163856899Y-110719367D01*
X163845465Y-110681674D01*
X163841000Y-110636339D01*
X163841000Y-109799661D01*
X163845465Y-109754326D01*
X163856899Y-109716633D01*
X163875466Y-109681897D01*
X163900452Y-109651452D01*
X163930897Y-109626466D01*
X163965633Y-109607899D01*
X164003326Y-109596465D01*
X164048661Y-109592000D01*
X165135339Y-109592000D01*
X165180674Y-109596465D01*
X165180674Y-109596465D01*
G37*
G36*
X134584000Y-110463000D02*
G01*
X133132000Y-110463000D01*
X133132000Y-106961000D01*
X134584000Y-106961000D01*
X134584000Y-110463000D01*
X134584000Y-110463000D01*
G37*
G36*
X132434000Y-110463000D02*
G01*
X130982000Y-110463000D01*
X130982000Y-106961000D01*
X132434000Y-106961000D01*
X132434000Y-110463000D01*
X132434000Y-110463000D01*
G37*
G36*
X125525000Y-109913000D02*
G01*
X122923000Y-109913000D01*
X122923000Y-107511000D01*
X125525000Y-107511000D01*
X125525000Y-109913000D01*
X125525000Y-109913000D01*
G37*
G36*
X129825000Y-109913000D02*
G01*
X127223000Y-109913000D01*
X127223000Y-107511000D01*
X129825000Y-107511000D01*
X129825000Y-109913000D01*
X129825000Y-109913000D01*
G37*
G36*
X138493000Y-109663000D02*
G01*
X135891000Y-109663000D01*
X135891000Y-107761000D01*
X138493000Y-107761000D01*
X138493000Y-109663000D01*
X138493000Y-109663000D01*
G37*
G36*
X142493000Y-109663000D02*
G01*
X139891000Y-109663000D01*
X139891000Y-107761000D01*
X142493000Y-107761000D01*
X142493000Y-109663000D01*
X142493000Y-109663000D01*
G37*
G36*
X197908431Y-108141569D02*
G01*
X197909000Y-108147339D01*
X197909000Y-109136657D01*
X197908431Y-109142431D01*
X197902657Y-109143000D01*
X196813343Y-109143000D01*
X196807569Y-109142431D01*
X196807000Y-109136657D01*
X196807000Y-108147339D01*
X196807569Y-108141569D01*
X196813343Y-108141000D01*
X197902657Y-108141000D01*
X197908431Y-108141569D01*
X197908431Y-108141569D01*
G37*
G36*
X194528674Y-105679465D02*
G01*
X194566367Y-105690899D01*
X194601103Y-105709466D01*
X194631548Y-105734452D01*
X194656534Y-105764897D01*
X194675101Y-105799633D01*
X194686535Y-105837326D01*
X194691000Y-105882661D01*
X194691000Y-106969339D01*
X194686535Y-107014674D01*
X194675101Y-107052367D01*
X194656534Y-107087103D01*
X194631548Y-107117548D01*
X194601103Y-107142534D01*
X194566367Y-107161101D01*
X194528674Y-107172535D01*
X194483339Y-107177000D01*
X193646661Y-107177000D01*
X193601326Y-107172535D01*
X193563633Y-107161101D01*
X193528897Y-107142534D01*
X193498452Y-107117548D01*
X193473466Y-107087103D01*
X193454899Y-107052367D01*
X193443465Y-107014674D01*
X193439000Y-106969339D01*
X193439000Y-105882661D01*
X193443465Y-105837326D01*
X193454899Y-105799633D01*
X193473466Y-105764897D01*
X193498452Y-105734452D01*
X193528897Y-105709466D01*
X193563633Y-105690899D01*
X193601326Y-105679465D01*
X193646661Y-105675000D01*
X194483339Y-105675000D01*
X194528674Y-105679465D01*
X194528674Y-105679465D01*
G37*
G36*
X192478674Y-105679465D02*
G01*
X192516367Y-105690899D01*
X192551103Y-105709466D01*
X192581548Y-105734452D01*
X192606534Y-105764897D01*
X192625101Y-105799633D01*
X192636535Y-105837326D01*
X192641000Y-105882661D01*
X192641000Y-106969339D01*
X192636535Y-107014674D01*
X192625101Y-107052367D01*
X192606534Y-107087103D01*
X192581548Y-107117548D01*
X192551103Y-107142534D01*
X192516367Y-107161101D01*
X192478674Y-107172535D01*
X192433339Y-107177000D01*
X191596661Y-107177000D01*
X191551326Y-107172535D01*
X191513633Y-107161101D01*
X191478897Y-107142534D01*
X191448452Y-107117548D01*
X191423466Y-107087103D01*
X191404899Y-107052367D01*
X191393465Y-107014674D01*
X191389000Y-106969339D01*
X191389000Y-105882661D01*
X191393465Y-105837326D01*
X191404899Y-105799633D01*
X191423466Y-105764897D01*
X191448452Y-105734452D01*
X191478897Y-105709466D01*
X191513633Y-105690899D01*
X191551326Y-105679465D01*
X191596661Y-105675000D01*
X192433339Y-105675000D01*
X192478674Y-105679465D01*
X192478674Y-105679465D01*
G37*
G36*
X197908431Y-105741569D02*
G01*
X197909000Y-105747339D01*
X197909000Y-106736657D01*
X197908431Y-106742431D01*
X197902657Y-106743000D01*
X196813343Y-106743000D01*
X196807569Y-106742431D01*
X196807000Y-106736657D01*
X196807000Y-105747339D01*
X196807569Y-105741569D01*
X196813343Y-105741000D01*
X197902657Y-105741000D01*
X197908431Y-105741569D01*
X197908431Y-105741569D01*
G37*
G36*
X197908431Y-103569569D02*
G01*
X197909000Y-103575339D01*
X197909000Y-104564657D01*
X197908431Y-104570431D01*
X197902657Y-104571000D01*
X196813343Y-104571000D01*
X196807569Y-104570431D01*
X196807000Y-104564657D01*
X196807000Y-103575339D01*
X196807569Y-103569569D01*
X196813343Y-103569000D01*
X197902657Y-103569000D01*
X197908431Y-103569569D01*
X197908431Y-103569569D01*
G37*
G36*
X194528674Y-101107465D02*
G01*
X194566367Y-101118899D01*
X194601103Y-101137466D01*
X194631548Y-101162452D01*
X194656534Y-101192897D01*
X194675101Y-101227633D01*
X194686535Y-101265326D01*
X194691000Y-101310661D01*
X194691000Y-102397339D01*
X194686535Y-102442674D01*
X194675101Y-102480367D01*
X194656534Y-102515103D01*
X194631548Y-102545548D01*
X194601103Y-102570534D01*
X194566367Y-102589101D01*
X194528674Y-102600535D01*
X194483339Y-102605000D01*
X193646661Y-102605000D01*
X193601326Y-102600535D01*
X193563633Y-102589101D01*
X193528897Y-102570534D01*
X193498452Y-102545548D01*
X193473466Y-102515103D01*
X193454899Y-102480367D01*
X193443465Y-102442674D01*
X193439000Y-102397339D01*
X193439000Y-101310661D01*
X193443465Y-101265326D01*
X193454899Y-101227633D01*
X193473466Y-101192897D01*
X193498452Y-101162452D01*
X193528897Y-101137466D01*
X193563633Y-101118899D01*
X193601326Y-101107465D01*
X193646661Y-101103000D01*
X194483339Y-101103000D01*
X194528674Y-101107465D01*
X194528674Y-101107465D01*
G37*
G36*
X192478674Y-101107465D02*
G01*
X192516367Y-101118899D01*
X192551103Y-101137466D01*
X192581548Y-101162452D01*
X192606534Y-101192897D01*
X192625101Y-101227633D01*
X192636535Y-101265326D01*
X192641000Y-101310661D01*
X192641000Y-102397339D01*
X192636535Y-102442674D01*
X192625101Y-102480367D01*
X192606534Y-102515103D01*
X192581548Y-102545548D01*
X192551103Y-102570534D01*
X192516367Y-102589101D01*
X192478674Y-102600535D01*
X192433339Y-102605000D01*
X191596661Y-102605000D01*
X191551326Y-102600535D01*
X191513633Y-102589101D01*
X191478897Y-102570534D01*
X191448452Y-102545548D01*
X191423466Y-102515103D01*
X191404899Y-102480367D01*
X191393465Y-102442674D01*
X191389000Y-102397339D01*
X191389000Y-101310661D01*
X191393465Y-101265326D01*
X191404899Y-101227633D01*
X191423466Y-101192897D01*
X191448452Y-101162452D01*
X191478897Y-101137466D01*
X191513633Y-101118899D01*
X191551326Y-101107465D01*
X191596661Y-101103000D01*
X192433339Y-101103000D01*
X192478674Y-101107465D01*
X192478674Y-101107465D01*
G37*
G36*
X197908431Y-101169569D02*
G01*
X197909000Y-101175339D01*
X197909000Y-102164657D01*
X197908431Y-102170431D01*
X197902657Y-102171000D01*
X196813343Y-102171000D01*
X196807569Y-102170431D01*
X196807000Y-102164657D01*
X196807000Y-101175339D01*
X196807569Y-101169569D01*
X196813343Y-101169000D01*
X197902657Y-101169000D01*
X197908431Y-101169569D01*
X197908431Y-101169569D01*
G37*
G36*
X141971000Y-100627000D02*
G01*
X141269000Y-100627000D01*
X141269000Y-98525000D01*
X141971000Y-98525000D01*
X141971000Y-100627000D01*
X141971000Y-100627000D01*
G37*
G36*
X131971000Y-100627000D02*
G01*
X131269000Y-100627000D01*
X131269000Y-98525000D01*
X131971000Y-98525000D01*
X131971000Y-100627000D01*
X131971000Y-100627000D01*
G37*
G36*
X132971000Y-100627000D02*
G01*
X132269000Y-100627000D01*
X132269000Y-98525000D01*
X132971000Y-98525000D01*
X132971000Y-100627000D01*
X132971000Y-100627000D01*
G37*
G36*
X134971000Y-100627000D02*
G01*
X134269000Y-100627000D01*
X134269000Y-98525000D01*
X134971000Y-98525000D01*
X134971000Y-100627000D01*
X134971000Y-100627000D01*
G37*
G36*
X127971000Y-100627000D02*
G01*
X127269000Y-100627000D01*
X127269000Y-98525000D01*
X127971000Y-98525000D01*
X127971000Y-100627000D01*
X127971000Y-100627000D01*
G37*
G36*
X128971000Y-100627000D02*
G01*
X128269000Y-100627000D01*
X128269000Y-98525000D01*
X128971000Y-98525000D01*
X128971000Y-100627000D01*
X128971000Y-100627000D01*
G37*
G36*
X126971000Y-100627000D02*
G01*
X126269000Y-100627000D01*
X126269000Y-98525000D01*
X126971000Y-98525000D01*
X126971000Y-100627000D01*
X126971000Y-100627000D01*
G37*
G36*
X139971000Y-100627000D02*
G01*
X139269000Y-100627000D01*
X139269000Y-98525000D01*
X139971000Y-98525000D01*
X139971000Y-100627000D01*
X139971000Y-100627000D01*
G37*
G36*
X140971000Y-100627000D02*
G01*
X140269000Y-100627000D01*
X140269000Y-98525000D01*
X140971000Y-98525000D01*
X140971000Y-100627000D01*
X140971000Y-100627000D01*
G37*
G36*
X142971000Y-100627000D02*
G01*
X142269000Y-100627000D01*
X142269000Y-98775000D01*
X142971000Y-98775000D01*
X142971000Y-100627000D01*
X142971000Y-100627000D01*
G37*
G36*
X130971000Y-100627000D02*
G01*
X130269000Y-100627000D01*
X130269000Y-98525000D01*
X130971000Y-98525000D01*
X130971000Y-100627000D01*
X130971000Y-100627000D01*
G37*
G36*
X138971000Y-100627000D02*
G01*
X138269000Y-100627000D01*
X138269000Y-98525000D01*
X138971000Y-98525000D01*
X138971000Y-100627000D01*
X138971000Y-100627000D01*
G37*
G36*
X136971000Y-100627000D02*
G01*
X136269000Y-100627000D01*
X136269000Y-98525000D01*
X136971000Y-98525000D01*
X136971000Y-100627000D01*
X136971000Y-100627000D01*
G37*
G36*
X137971000Y-100627000D02*
G01*
X137269000Y-100627000D01*
X137269000Y-98525000D01*
X137971000Y-98525000D01*
X137971000Y-100627000D01*
X137971000Y-100627000D01*
G37*
G36*
X135971000Y-100627000D02*
G01*
X135269000Y-100627000D01*
X135269000Y-98525000D01*
X135971000Y-98525000D01*
X135971000Y-100627000D01*
X135971000Y-100627000D01*
G37*
G36*
X133971000Y-100627000D02*
G01*
X133269000Y-100627000D01*
X133269000Y-98525000D01*
X133971000Y-98525000D01*
X133971000Y-100627000D01*
X133971000Y-100627000D01*
G37*
G36*
X129971000Y-100627000D02*
G01*
X129269000Y-100627000D01*
X129269000Y-98525000D01*
X129971000Y-98525000D01*
X129971000Y-100627000D01*
X129971000Y-100627000D01*
G37*
G36*
X197743000Y-99209000D02*
G01*
X196641000Y-99209000D01*
X196641000Y-97557000D01*
X197743000Y-97557000D01*
X197743000Y-99209000D01*
X197743000Y-99209000D01*
G37*
G36*
X196043000Y-99209000D02*
G01*
X194941000Y-99209000D01*
X194941000Y-97557000D01*
X196043000Y-97557000D01*
X196043000Y-99209000D01*
X196043000Y-99209000D01*
G37*
G36*
X145001000Y-98477000D02*
G01*
X143149000Y-98477000D01*
X143149000Y-97775000D01*
X145001000Y-97775000D01*
X145001000Y-98477000D01*
X145001000Y-98477000D01*
G37*
G36*
X145001000Y-97477000D02*
G01*
X142899000Y-97477000D01*
X142899000Y-96775000D01*
X145001000Y-96775000D01*
X145001000Y-97477000D01*
X145001000Y-97477000D01*
G37*
G36*
X145001000Y-96477000D02*
G01*
X142899000Y-96477000D01*
X142899000Y-95775000D01*
X145001000Y-95775000D01*
X145001000Y-96477000D01*
X145001000Y-96477000D01*
G37*
G36*
X195091260Y-95348371D02*
G01*
X195121993Y-95361101D01*
X195168784Y-95380482D01*
X195168787Y-95380484D01*
X195238559Y-95427104D01*
X195297896Y-95486441D01*
X195297897Y-95486443D01*
X195344518Y-95556216D01*
X195362624Y-95599929D01*
X195376629Y-95633740D01*
X195393000Y-95716043D01*
X195393000Y-95799957D01*
X195376629Y-95882260D01*
X195362624Y-95916071D01*
X195344518Y-95959784D01*
X195344516Y-95959787D01*
X195297896Y-96029559D01*
X195238559Y-96088896D01*
X195168787Y-96135516D01*
X195168784Y-96135518D01*
X195125071Y-96153624D01*
X195091260Y-96167629D01*
X195008957Y-96184000D01*
X194925043Y-96184000D01*
X194842740Y-96167629D01*
X194808929Y-96153624D01*
X194765216Y-96135518D01*
X194765213Y-96135516D01*
X194695441Y-96088896D01*
X194636104Y-96029559D01*
X194589484Y-95959787D01*
X194589482Y-95959784D01*
X194571376Y-95916071D01*
X194557371Y-95882260D01*
X194541000Y-95799957D01*
X194541000Y-95716043D01*
X194557371Y-95633740D01*
X194571376Y-95599929D01*
X194589482Y-95556216D01*
X194636103Y-95486443D01*
X194636104Y-95486441D01*
X194695441Y-95427104D01*
X194765213Y-95380484D01*
X194765216Y-95380482D01*
X194812007Y-95361101D01*
X194842740Y-95348371D01*
X194925043Y-95332000D01*
X195008957Y-95332000D01*
X195091260Y-95348371D01*
X195091260Y-95348371D01*
G37*
G36*
X197841260Y-95348371D02*
G01*
X197871993Y-95361101D01*
X197918784Y-95380482D01*
X197918787Y-95380484D01*
X197988559Y-95427104D01*
X198047896Y-95486441D01*
X198047897Y-95486443D01*
X198094518Y-95556216D01*
X198112624Y-95599929D01*
X198126629Y-95633740D01*
X198143000Y-95716043D01*
X198143000Y-95799957D01*
X198126629Y-95882260D01*
X198112624Y-95916071D01*
X198094518Y-95959784D01*
X198094516Y-95959787D01*
X198047896Y-96029559D01*
X197988559Y-96088896D01*
X197918787Y-96135516D01*
X197918784Y-96135518D01*
X197875071Y-96153624D01*
X197841260Y-96167629D01*
X197758957Y-96184000D01*
X197675043Y-96184000D01*
X197592740Y-96167629D01*
X197558929Y-96153624D01*
X197515216Y-96135518D01*
X197515213Y-96135516D01*
X197445441Y-96088896D01*
X197386104Y-96029559D01*
X197339484Y-95959787D01*
X197339482Y-95959784D01*
X197321376Y-95916071D01*
X197307371Y-95882260D01*
X197291000Y-95799957D01*
X197291000Y-95716043D01*
X197307371Y-95633740D01*
X197321376Y-95599929D01*
X197339482Y-95556216D01*
X197386103Y-95486443D01*
X197386104Y-95486441D01*
X197445441Y-95427104D01*
X197515213Y-95380484D01*
X197515216Y-95380482D01*
X197562007Y-95361101D01*
X197592740Y-95348371D01*
X197675043Y-95332000D01*
X197758957Y-95332000D01*
X197841260Y-95348371D01*
X197841260Y-95348371D01*
G37*
G36*
X145001000Y-95477000D02*
G01*
X142899000Y-95477000D01*
X142899000Y-94775000D01*
X145001000Y-94775000D01*
X145001000Y-95477000D01*
X145001000Y-95477000D01*
G37*
G36*
X161370674Y-94129465D02*
G01*
X161408367Y-94140899D01*
X161443103Y-94159466D01*
X161473548Y-94184452D01*
X161498534Y-94214897D01*
X161517101Y-94249633D01*
X161528535Y-94287326D01*
X161533000Y-94332661D01*
X161533000Y-95169339D01*
X161528535Y-95214674D01*
X161517101Y-95252367D01*
X161498534Y-95287103D01*
X161473548Y-95317548D01*
X161443103Y-95342534D01*
X161408367Y-95361101D01*
X161370674Y-95372535D01*
X161325339Y-95377000D01*
X160238661Y-95377000D01*
X160193326Y-95372535D01*
X160155633Y-95361101D01*
X160120897Y-95342534D01*
X160090452Y-95317548D01*
X160065466Y-95287103D01*
X160046899Y-95252367D01*
X160035465Y-95214674D01*
X160031000Y-95169339D01*
X160031000Y-94332661D01*
X160035465Y-94287326D01*
X160046899Y-94249633D01*
X160065466Y-94214897D01*
X160090452Y-94184452D01*
X160120897Y-94159466D01*
X160155633Y-94140899D01*
X160193326Y-94129465D01*
X160238661Y-94125000D01*
X161325339Y-94125000D01*
X161370674Y-94129465D01*
X161370674Y-94129465D01*
G37*
G36*
X153750674Y-94129465D02*
G01*
X153788367Y-94140899D01*
X153823103Y-94159466D01*
X153853548Y-94184452D01*
X153878534Y-94214897D01*
X153897101Y-94249633D01*
X153908535Y-94287326D01*
X153913000Y-94332661D01*
X153913000Y-95169339D01*
X153908535Y-95214674D01*
X153897101Y-95252367D01*
X153878534Y-95287103D01*
X153853548Y-95317548D01*
X153823103Y-95342534D01*
X153788367Y-95361101D01*
X153750674Y-95372535D01*
X153705339Y-95377000D01*
X152618661Y-95377000D01*
X152573326Y-95372535D01*
X152535633Y-95361101D01*
X152500897Y-95342534D01*
X152470452Y-95317548D01*
X152445466Y-95287103D01*
X152426899Y-95252367D01*
X152415465Y-95214674D01*
X152411000Y-95169339D01*
X152411000Y-94332661D01*
X152415465Y-94287326D01*
X152426899Y-94249633D01*
X152445466Y-94214897D01*
X152470452Y-94184452D01*
X152500897Y-94159466D01*
X152535633Y-94140899D01*
X152573326Y-94129465D01*
X152618661Y-94125000D01*
X153705339Y-94125000D01*
X153750674Y-94129465D01*
X153750674Y-94129465D01*
G37*
G36*
X145001000Y-94477000D02*
G01*
X142899000Y-94477000D01*
X142899000Y-93775000D01*
X145001000Y-93775000D01*
X145001000Y-94477000D01*
X145001000Y-94477000D01*
G37*
G36*
X196043000Y-93959000D02*
G01*
X194941000Y-93959000D01*
X194941000Y-92307000D01*
X196043000Y-92307000D01*
X196043000Y-93959000D01*
X196043000Y-93959000D01*
G37*
G36*
X197743000Y-93959000D02*
G01*
X196641000Y-93959000D01*
X196641000Y-92307000D01*
X197743000Y-92307000D01*
X197743000Y-93959000D01*
X197743000Y-93959000D01*
G37*
G36*
X145001000Y-93477000D02*
G01*
X142899000Y-93477000D01*
X142899000Y-92775000D01*
X145001000Y-92775000D01*
X145001000Y-93477000D01*
X145001000Y-93477000D01*
G37*
G36*
X153750674Y-92079465D02*
G01*
X153788367Y-92090899D01*
X153823103Y-92109466D01*
X153853548Y-92134452D01*
X153878534Y-92164897D01*
X153897101Y-92199633D01*
X153908535Y-92237326D01*
X153913000Y-92282661D01*
X153913000Y-93119339D01*
X153908535Y-93164674D01*
X153897101Y-93202367D01*
X153878534Y-93237103D01*
X153853548Y-93267548D01*
X153823103Y-93292534D01*
X153788367Y-93311101D01*
X153750674Y-93322535D01*
X153705339Y-93327000D01*
X152618661Y-93327000D01*
X152573326Y-93322535D01*
X152535633Y-93311101D01*
X152500897Y-93292534D01*
X152470452Y-93267548D01*
X152445466Y-93237103D01*
X152426899Y-93202367D01*
X152415465Y-93164674D01*
X152411000Y-93119339D01*
X152411000Y-92282661D01*
X152415465Y-92237326D01*
X152426899Y-92199633D01*
X152445466Y-92164897D01*
X152470452Y-92134452D01*
X152500897Y-92109466D01*
X152535633Y-92090899D01*
X152573326Y-92079465D01*
X152618661Y-92075000D01*
X153705339Y-92075000D01*
X153750674Y-92079465D01*
X153750674Y-92079465D01*
G37*
G36*
X161370674Y-92079465D02*
G01*
X161408367Y-92090899D01*
X161443103Y-92109466D01*
X161473548Y-92134452D01*
X161498534Y-92164897D01*
X161517101Y-92199633D01*
X161528535Y-92237326D01*
X161533000Y-92282661D01*
X161533000Y-93119339D01*
X161528535Y-93164674D01*
X161517101Y-93202367D01*
X161498534Y-93237103D01*
X161473548Y-93267548D01*
X161443103Y-93292534D01*
X161408367Y-93311101D01*
X161370674Y-93322535D01*
X161325339Y-93327000D01*
X160238661Y-93327000D01*
X160193326Y-93322535D01*
X160155633Y-93311101D01*
X160120897Y-93292534D01*
X160090452Y-93267548D01*
X160065466Y-93237103D01*
X160046899Y-93202367D01*
X160035465Y-93164674D01*
X160031000Y-93119339D01*
X160031000Y-92282661D01*
X160035465Y-92237326D01*
X160046899Y-92199633D01*
X160065466Y-92164897D01*
X160090452Y-92134452D01*
X160120897Y-92109466D01*
X160155633Y-92090899D01*
X160193326Y-92079465D01*
X160238661Y-92075000D01*
X161325339Y-92075000D01*
X161370674Y-92079465D01*
X161370674Y-92079465D01*
G37*
G36*
X145001000Y-92477000D02*
G01*
X142899000Y-92477000D01*
X142899000Y-91775000D01*
X145001000Y-91775000D01*
X145001000Y-92477000D01*
X145001000Y-92477000D01*
G37*
G36*
X145001000Y-91477000D02*
G01*
X142899000Y-91477000D01*
X142899000Y-90775000D01*
X145001000Y-90775000D01*
X145001000Y-91477000D01*
X145001000Y-91477000D01*
G37*
G36*
X186424394Y-89370934D02*
G01*
X186575624Y-89433576D01*
X186575626Y-89433577D01*
X186711732Y-89524520D01*
X186827480Y-89640268D01*
X186917505Y-89775000D01*
X186918424Y-89776376D01*
X186981066Y-89927606D01*
X187013000Y-90088152D01*
X187013000Y-90251848D01*
X186981066Y-90412394D01*
X186918424Y-90563624D01*
X186918423Y-90563626D01*
X186827480Y-90699732D01*
X186711732Y-90815480D01*
X186575626Y-90906423D01*
X186575625Y-90906424D01*
X186575624Y-90906424D01*
X186424394Y-90969066D01*
X186263848Y-91001000D01*
X186100152Y-91001000D01*
X185939606Y-90969066D01*
X185788376Y-90906424D01*
X185788375Y-90906424D01*
X185788374Y-90906423D01*
X185652268Y-90815480D01*
X185536520Y-90699732D01*
X185445577Y-90563626D01*
X185445576Y-90563624D01*
X185382934Y-90412394D01*
X185351000Y-90251848D01*
X185351000Y-90088152D01*
X185382934Y-89927606D01*
X185445576Y-89776376D01*
X185446495Y-89775000D01*
X185536520Y-89640268D01*
X185652268Y-89524520D01*
X185788374Y-89433577D01*
X185788376Y-89433576D01*
X185939606Y-89370934D01*
X186100152Y-89339000D01*
X186263848Y-89339000D01*
X186424394Y-89370934D01*
X186424394Y-89370934D01*
G37*
G36*
X183884394Y-89370934D02*
G01*
X184035624Y-89433576D01*
X184035626Y-89433577D01*
X184171732Y-89524520D01*
X184287480Y-89640268D01*
X184377505Y-89775000D01*
X184378424Y-89776376D01*
X184441066Y-89927606D01*
X184473000Y-90088152D01*
X184473000Y-90251848D01*
X184441066Y-90412394D01*
X184378424Y-90563624D01*
X184378423Y-90563626D01*
X184287480Y-90699732D01*
X184171732Y-90815480D01*
X184035626Y-90906423D01*
X184035625Y-90906424D01*
X184035624Y-90906424D01*
X183884394Y-90969066D01*
X183723848Y-91001000D01*
X183560152Y-91001000D01*
X183399606Y-90969066D01*
X183248376Y-90906424D01*
X183248375Y-90906424D01*
X183248374Y-90906423D01*
X183112268Y-90815480D01*
X182996520Y-90699732D01*
X182905577Y-90563626D01*
X182905576Y-90563624D01*
X182842934Y-90412394D01*
X182811000Y-90251848D01*
X182811000Y-90088152D01*
X182842934Y-89927606D01*
X182905576Y-89776376D01*
X182906495Y-89775000D01*
X182996520Y-89640268D01*
X183112268Y-89524520D01*
X183248374Y-89433577D01*
X183248376Y-89433576D01*
X183399606Y-89370934D01*
X183560152Y-89339000D01*
X183723848Y-89339000D01*
X183884394Y-89370934D01*
X183884394Y-89370934D01*
G37*
G36*
X181344394Y-89370934D02*
G01*
X181495624Y-89433576D01*
X181495626Y-89433577D01*
X181631732Y-89524520D01*
X181747480Y-89640268D01*
X181837505Y-89775000D01*
X181838424Y-89776376D01*
X181901066Y-89927606D01*
X181933000Y-90088152D01*
X181933000Y-90251848D01*
X181901066Y-90412394D01*
X181838424Y-90563624D01*
X181838423Y-90563626D01*
X181747480Y-90699732D01*
X181631732Y-90815480D01*
X181495626Y-90906423D01*
X181495625Y-90906424D01*
X181495624Y-90906424D01*
X181344394Y-90969066D01*
X181183848Y-91001000D01*
X181020152Y-91001000D01*
X180859606Y-90969066D01*
X180708376Y-90906424D01*
X180708375Y-90906424D01*
X180708374Y-90906423D01*
X180572268Y-90815480D01*
X180456520Y-90699732D01*
X180365577Y-90563626D01*
X180365576Y-90563624D01*
X180302934Y-90412394D01*
X180271000Y-90251848D01*
X180271000Y-90088152D01*
X180302934Y-89927606D01*
X180365576Y-89776376D01*
X180366495Y-89775000D01*
X180456520Y-89640268D01*
X180572268Y-89524520D01*
X180708374Y-89433577D01*
X180708376Y-89433576D01*
X180859606Y-89370934D01*
X181020152Y-89339000D01*
X181183848Y-89339000D01*
X181344394Y-89370934D01*
X181344394Y-89370934D01*
G37*
G36*
X178804394Y-89370934D02*
G01*
X178955624Y-89433576D01*
X178955626Y-89433577D01*
X179091732Y-89524520D01*
X179207480Y-89640268D01*
X179297505Y-89775000D01*
X179298424Y-89776376D01*
X179361066Y-89927606D01*
X179393000Y-90088152D01*
X179393000Y-90251848D01*
X179361066Y-90412394D01*
X179298424Y-90563624D01*
X179298423Y-90563626D01*
X179207480Y-90699732D01*
X179091732Y-90815480D01*
X178955626Y-90906423D01*
X178955625Y-90906424D01*
X178955624Y-90906424D01*
X178804394Y-90969066D01*
X178643848Y-91001000D01*
X178480152Y-91001000D01*
X178319606Y-90969066D01*
X178168376Y-90906424D01*
X178168375Y-90906424D01*
X178168374Y-90906423D01*
X178032268Y-90815480D01*
X177916520Y-90699732D01*
X177825577Y-90563626D01*
X177825576Y-90563624D01*
X177762934Y-90412394D01*
X177731000Y-90251848D01*
X177731000Y-90088152D01*
X177762934Y-89927606D01*
X177825576Y-89776376D01*
X177826495Y-89775000D01*
X177916520Y-89640268D01*
X178032268Y-89524520D01*
X178168374Y-89433577D01*
X178168376Y-89433576D01*
X178319606Y-89370934D01*
X178480152Y-89339000D01*
X178643848Y-89339000D01*
X178804394Y-89370934D01*
X178804394Y-89370934D01*
G37*
G36*
X176264394Y-89370934D02*
G01*
X176415624Y-89433576D01*
X176415626Y-89433577D01*
X176551732Y-89524520D01*
X176667480Y-89640268D01*
X176757505Y-89775000D01*
X176758424Y-89776376D01*
X176821066Y-89927606D01*
X176853000Y-90088152D01*
X176853000Y-90251848D01*
X176821066Y-90412394D01*
X176758424Y-90563624D01*
X176758423Y-90563626D01*
X176667480Y-90699732D01*
X176551732Y-90815480D01*
X176415626Y-90906423D01*
X176415625Y-90906424D01*
X176415624Y-90906424D01*
X176264394Y-90969066D01*
X176103848Y-91001000D01*
X175940152Y-91001000D01*
X175779606Y-90969066D01*
X175628376Y-90906424D01*
X175628375Y-90906424D01*
X175628374Y-90906423D01*
X175492268Y-90815480D01*
X175376520Y-90699732D01*
X175285577Y-90563626D01*
X175285576Y-90563624D01*
X175222934Y-90412394D01*
X175191000Y-90251848D01*
X175191000Y-90088152D01*
X175222934Y-89927606D01*
X175285576Y-89776376D01*
X175286495Y-89775000D01*
X175376520Y-89640268D01*
X175492268Y-89524520D01*
X175628374Y-89433577D01*
X175628376Y-89433576D01*
X175779606Y-89370934D01*
X175940152Y-89339000D01*
X176103848Y-89339000D01*
X176264394Y-89370934D01*
X176264394Y-89370934D01*
G37*
G36*
X173724394Y-89370934D02*
G01*
X173875624Y-89433576D01*
X173875626Y-89433577D01*
X174011732Y-89524520D01*
X174127480Y-89640268D01*
X174217505Y-89775000D01*
X174218424Y-89776376D01*
X174281066Y-89927606D01*
X174313000Y-90088152D01*
X174313000Y-90251848D01*
X174281066Y-90412394D01*
X174218424Y-90563624D01*
X174218423Y-90563626D01*
X174127480Y-90699732D01*
X174011732Y-90815480D01*
X173875626Y-90906423D01*
X173875625Y-90906424D01*
X173875624Y-90906424D01*
X173724394Y-90969066D01*
X173563848Y-91001000D01*
X173400152Y-91001000D01*
X173239606Y-90969066D01*
X173088376Y-90906424D01*
X173088375Y-90906424D01*
X173088374Y-90906423D01*
X172952268Y-90815480D01*
X172836520Y-90699732D01*
X172745577Y-90563626D01*
X172745576Y-90563624D01*
X172682934Y-90412394D01*
X172651000Y-90251848D01*
X172651000Y-90088152D01*
X172682934Y-89927606D01*
X172745576Y-89776376D01*
X172746495Y-89775000D01*
X172836520Y-89640268D01*
X172952268Y-89524520D01*
X173088374Y-89433577D01*
X173088376Y-89433576D01*
X173239606Y-89370934D01*
X173400152Y-89339000D01*
X173563848Y-89339000D01*
X173724394Y-89370934D01*
X173724394Y-89370934D01*
G37*
G36*
X155944394Y-89370934D02*
G01*
X156095624Y-89433576D01*
X156095626Y-89433577D01*
X156231732Y-89524520D01*
X156347480Y-89640268D01*
X156437505Y-89775000D01*
X156438424Y-89776376D01*
X156501066Y-89927606D01*
X156533000Y-90088152D01*
X156533000Y-90251848D01*
X156501066Y-90412394D01*
X156438424Y-90563624D01*
X156438423Y-90563626D01*
X156347480Y-90699732D01*
X156231732Y-90815480D01*
X156095626Y-90906423D01*
X156095625Y-90906424D01*
X156095624Y-90906424D01*
X155944394Y-90969066D01*
X155783848Y-91001000D01*
X155620152Y-91001000D01*
X155459606Y-90969066D01*
X155308376Y-90906424D01*
X155308375Y-90906424D01*
X155308374Y-90906423D01*
X155172268Y-90815480D01*
X155056520Y-90699732D01*
X154965577Y-90563626D01*
X154965576Y-90563624D01*
X154902934Y-90412394D01*
X154871000Y-90251848D01*
X154871000Y-90088152D01*
X154902934Y-89927606D01*
X154965576Y-89776376D01*
X154966495Y-89775000D01*
X155056520Y-89640268D01*
X155172268Y-89524520D01*
X155308374Y-89433577D01*
X155308376Y-89433576D01*
X155459606Y-89370934D01*
X155620152Y-89339000D01*
X155783848Y-89339000D01*
X155944394Y-89370934D01*
X155944394Y-89370934D01*
G37*
G36*
X171184394Y-89370934D02*
G01*
X171335624Y-89433576D01*
X171335626Y-89433577D01*
X171471732Y-89524520D01*
X171587480Y-89640268D01*
X171677505Y-89775000D01*
X171678424Y-89776376D01*
X171741066Y-89927606D01*
X171773000Y-90088152D01*
X171773000Y-90251848D01*
X171741066Y-90412394D01*
X171678424Y-90563624D01*
X171678423Y-90563626D01*
X171587480Y-90699732D01*
X171471732Y-90815480D01*
X171335626Y-90906423D01*
X171335625Y-90906424D01*
X171335624Y-90906424D01*
X171184394Y-90969066D01*
X171023848Y-91001000D01*
X170860152Y-91001000D01*
X170699606Y-90969066D01*
X170548376Y-90906424D01*
X170548375Y-90906424D01*
X170548374Y-90906423D01*
X170412268Y-90815480D01*
X170296520Y-90699732D01*
X170205577Y-90563626D01*
X170205576Y-90563624D01*
X170142934Y-90412394D01*
X170111000Y-90251848D01*
X170111000Y-90088152D01*
X170142934Y-89927606D01*
X170205576Y-89776376D01*
X170206495Y-89775000D01*
X170296520Y-89640268D01*
X170412268Y-89524520D01*
X170548374Y-89433577D01*
X170548376Y-89433576D01*
X170699606Y-89370934D01*
X170860152Y-89339000D01*
X171023848Y-89339000D01*
X171184394Y-89370934D01*
X171184394Y-89370934D01*
G37*
G36*
X188964394Y-89370934D02*
G01*
X189115624Y-89433576D01*
X189115626Y-89433577D01*
X189251732Y-89524520D01*
X189367480Y-89640268D01*
X189457505Y-89775000D01*
X189458424Y-89776376D01*
X189521066Y-89927606D01*
X189553000Y-90088152D01*
X189553000Y-90251848D01*
X189521066Y-90412394D01*
X189458424Y-90563624D01*
X189458423Y-90563626D01*
X189367480Y-90699732D01*
X189251732Y-90815480D01*
X189115626Y-90906423D01*
X189115625Y-90906424D01*
X189115624Y-90906424D01*
X188964394Y-90969066D01*
X188803848Y-91001000D01*
X188640152Y-91001000D01*
X188479606Y-90969066D01*
X188328376Y-90906424D01*
X188328375Y-90906424D01*
X188328374Y-90906423D01*
X188192268Y-90815480D01*
X188076520Y-90699732D01*
X187985577Y-90563626D01*
X187985576Y-90563624D01*
X187922934Y-90412394D01*
X187891000Y-90251848D01*
X187891000Y-90088152D01*
X187922934Y-89927606D01*
X187985576Y-89776376D01*
X187986495Y-89775000D01*
X188076520Y-89640268D01*
X188192268Y-89524520D01*
X188328374Y-89433577D01*
X188328376Y-89433576D01*
X188479606Y-89370934D01*
X188640152Y-89339000D01*
X188803848Y-89339000D01*
X188964394Y-89370934D01*
X188964394Y-89370934D01*
G37*
G36*
X166104394Y-89370934D02*
G01*
X166255624Y-89433576D01*
X166255626Y-89433577D01*
X166391732Y-89524520D01*
X166507480Y-89640268D01*
X166597505Y-89775000D01*
X166598424Y-89776376D01*
X166661066Y-89927606D01*
X166693000Y-90088152D01*
X166693000Y-90251848D01*
X166661066Y-90412394D01*
X166598424Y-90563624D01*
X166598423Y-90563626D01*
X166507480Y-90699732D01*
X166391732Y-90815480D01*
X166255626Y-90906423D01*
X166255625Y-90906424D01*
X166255624Y-90906424D01*
X166104394Y-90969066D01*
X165943848Y-91001000D01*
X165780152Y-91001000D01*
X165619606Y-90969066D01*
X165468376Y-90906424D01*
X165468375Y-90906424D01*
X165468374Y-90906423D01*
X165332268Y-90815480D01*
X165216520Y-90699732D01*
X165125577Y-90563626D01*
X165125576Y-90563624D01*
X165062934Y-90412394D01*
X165031000Y-90251848D01*
X165031000Y-90088152D01*
X165062934Y-89927606D01*
X165125576Y-89776376D01*
X165126495Y-89775000D01*
X165216520Y-89640268D01*
X165332268Y-89524520D01*
X165468374Y-89433577D01*
X165468376Y-89433576D01*
X165619606Y-89370934D01*
X165780152Y-89339000D01*
X165943848Y-89339000D01*
X166104394Y-89370934D01*
X166104394Y-89370934D01*
G37*
G36*
X161024394Y-89370934D02*
G01*
X161175624Y-89433576D01*
X161175626Y-89433577D01*
X161311732Y-89524520D01*
X161427480Y-89640268D01*
X161517505Y-89775000D01*
X161518424Y-89776376D01*
X161581066Y-89927606D01*
X161613000Y-90088152D01*
X161613000Y-90251848D01*
X161581066Y-90412394D01*
X161518424Y-90563624D01*
X161518423Y-90563626D01*
X161427480Y-90699732D01*
X161311732Y-90815480D01*
X161175626Y-90906423D01*
X161175625Y-90906424D01*
X161175624Y-90906424D01*
X161024394Y-90969066D01*
X160863848Y-91001000D01*
X160700152Y-91001000D01*
X160539606Y-90969066D01*
X160388376Y-90906424D01*
X160388375Y-90906424D01*
X160388374Y-90906423D01*
X160252268Y-90815480D01*
X160136520Y-90699732D01*
X160045577Y-90563626D01*
X160045576Y-90563624D01*
X159982934Y-90412394D01*
X159951000Y-90251848D01*
X159951000Y-90088152D01*
X159982934Y-89927606D01*
X160045576Y-89776376D01*
X160046495Y-89775000D01*
X160136520Y-89640268D01*
X160252268Y-89524520D01*
X160388374Y-89433577D01*
X160388376Y-89433576D01*
X160539606Y-89370934D01*
X160700152Y-89339000D01*
X160863848Y-89339000D01*
X161024394Y-89370934D01*
X161024394Y-89370934D01*
G37*
G36*
X163564394Y-89370934D02*
G01*
X163715624Y-89433576D01*
X163715626Y-89433577D01*
X163851732Y-89524520D01*
X163967480Y-89640268D01*
X164057505Y-89775000D01*
X164058424Y-89776376D01*
X164121066Y-89927606D01*
X164153000Y-90088152D01*
X164153000Y-90251848D01*
X164121066Y-90412394D01*
X164058424Y-90563624D01*
X164058423Y-90563626D01*
X163967480Y-90699732D01*
X163851732Y-90815480D01*
X163715626Y-90906423D01*
X163715625Y-90906424D01*
X163715624Y-90906424D01*
X163564394Y-90969066D01*
X163403848Y-91001000D01*
X163240152Y-91001000D01*
X163079606Y-90969066D01*
X162928376Y-90906424D01*
X162928375Y-90906424D01*
X162928374Y-90906423D01*
X162792268Y-90815480D01*
X162676520Y-90699732D01*
X162585577Y-90563626D01*
X162585576Y-90563624D01*
X162522934Y-90412394D01*
X162491000Y-90251848D01*
X162491000Y-90088152D01*
X162522934Y-89927606D01*
X162585576Y-89776376D01*
X162586495Y-89775000D01*
X162676520Y-89640268D01*
X162792268Y-89524520D01*
X162928374Y-89433577D01*
X162928376Y-89433576D01*
X163079606Y-89370934D01*
X163240152Y-89339000D01*
X163403848Y-89339000D01*
X163564394Y-89370934D01*
X163564394Y-89370934D01*
G37*
G36*
X194044394Y-89370934D02*
G01*
X194195624Y-89433576D01*
X194195626Y-89433577D01*
X194331732Y-89524520D01*
X194447480Y-89640268D01*
X194537505Y-89775000D01*
X194538424Y-89776376D01*
X194601066Y-89927606D01*
X194633000Y-90088152D01*
X194633000Y-90251848D01*
X194601066Y-90412394D01*
X194538424Y-90563624D01*
X194538423Y-90563626D01*
X194447480Y-90699732D01*
X194331732Y-90815480D01*
X194195626Y-90906423D01*
X194195625Y-90906424D01*
X194195624Y-90906424D01*
X194044394Y-90969066D01*
X193883848Y-91001000D01*
X193720152Y-91001000D01*
X193559606Y-90969066D01*
X193408376Y-90906424D01*
X193408375Y-90906424D01*
X193408374Y-90906423D01*
X193272268Y-90815480D01*
X193156520Y-90699732D01*
X193065577Y-90563626D01*
X193065576Y-90563624D01*
X193002934Y-90412394D01*
X192971000Y-90251848D01*
X192971000Y-90088152D01*
X193002934Y-89927606D01*
X193065576Y-89776376D01*
X193066495Y-89775000D01*
X193156520Y-89640268D01*
X193272268Y-89524520D01*
X193408374Y-89433577D01*
X193408376Y-89433576D01*
X193559606Y-89370934D01*
X193720152Y-89339000D01*
X193883848Y-89339000D01*
X194044394Y-89370934D01*
X194044394Y-89370934D01*
G37*
G36*
X191504394Y-89370934D02*
G01*
X191655624Y-89433576D01*
X191655626Y-89433577D01*
X191791732Y-89524520D01*
X191907480Y-89640268D01*
X191997505Y-89775000D01*
X191998424Y-89776376D01*
X192061066Y-89927606D01*
X192093000Y-90088152D01*
X192093000Y-90251848D01*
X192061066Y-90412394D01*
X191998424Y-90563624D01*
X191998423Y-90563626D01*
X191907480Y-90699732D01*
X191791732Y-90815480D01*
X191655626Y-90906423D01*
X191655625Y-90906424D01*
X191655624Y-90906424D01*
X191504394Y-90969066D01*
X191343848Y-91001000D01*
X191180152Y-91001000D01*
X191019606Y-90969066D01*
X190868376Y-90906424D01*
X190868375Y-90906424D01*
X190868374Y-90906423D01*
X190732268Y-90815480D01*
X190616520Y-90699732D01*
X190525577Y-90563626D01*
X190525576Y-90563624D01*
X190462934Y-90412394D01*
X190431000Y-90251848D01*
X190431000Y-90088152D01*
X190462934Y-89927606D01*
X190525576Y-89776376D01*
X190526495Y-89775000D01*
X190616520Y-89640268D01*
X190732268Y-89524520D01*
X190868374Y-89433577D01*
X190868376Y-89433576D01*
X191019606Y-89370934D01*
X191180152Y-89339000D01*
X191343848Y-89339000D01*
X191504394Y-89370934D01*
X191504394Y-89370934D01*
G37*
G36*
X168644394Y-89370934D02*
G01*
X168795624Y-89433576D01*
X168795626Y-89433577D01*
X168931732Y-89524520D01*
X169047480Y-89640268D01*
X169137505Y-89775000D01*
X169138424Y-89776376D01*
X169201066Y-89927606D01*
X169233000Y-90088152D01*
X169233000Y-90251848D01*
X169201066Y-90412394D01*
X169138424Y-90563624D01*
X169138423Y-90563626D01*
X169047480Y-90699732D01*
X168931732Y-90815480D01*
X168795626Y-90906423D01*
X168795625Y-90906424D01*
X168795624Y-90906424D01*
X168644394Y-90969066D01*
X168483848Y-91001000D01*
X168320152Y-91001000D01*
X168159606Y-90969066D01*
X168008376Y-90906424D01*
X168008375Y-90906424D01*
X168008374Y-90906423D01*
X167872268Y-90815480D01*
X167756520Y-90699732D01*
X167665577Y-90563626D01*
X167665576Y-90563624D01*
X167602934Y-90412394D01*
X167571000Y-90251848D01*
X167571000Y-90088152D01*
X167602934Y-89927606D01*
X167665576Y-89776376D01*
X167666495Y-89775000D01*
X167756520Y-89640268D01*
X167872268Y-89524520D01*
X168008374Y-89433577D01*
X168008376Y-89433576D01*
X168159606Y-89370934D01*
X168320152Y-89339000D01*
X168483848Y-89339000D01*
X168644394Y-89370934D01*
X168644394Y-89370934D01*
G37*
G36*
X150864394Y-89370934D02*
G01*
X151015624Y-89433576D01*
X151015626Y-89433577D01*
X151151732Y-89524520D01*
X151267480Y-89640268D01*
X151357505Y-89775000D01*
X151358424Y-89776376D01*
X151421066Y-89927606D01*
X151453000Y-90088152D01*
X151453000Y-90251848D01*
X151421066Y-90412394D01*
X151358424Y-90563624D01*
X151358423Y-90563626D01*
X151267480Y-90699732D01*
X151151732Y-90815480D01*
X151015626Y-90906423D01*
X151015625Y-90906424D01*
X151015624Y-90906424D01*
X150864394Y-90969066D01*
X150703848Y-91001000D01*
X150540152Y-91001000D01*
X150379606Y-90969066D01*
X150228376Y-90906424D01*
X150228375Y-90906424D01*
X150228374Y-90906423D01*
X150092268Y-90815480D01*
X149976520Y-90699732D01*
X149885577Y-90563626D01*
X149885576Y-90563624D01*
X149822934Y-90412394D01*
X149791000Y-90251848D01*
X149791000Y-90088152D01*
X149822934Y-89927606D01*
X149885576Y-89776376D01*
X149886495Y-89775000D01*
X149976520Y-89640268D01*
X150092268Y-89524520D01*
X150228374Y-89433577D01*
X150228376Y-89433576D01*
X150379606Y-89370934D01*
X150540152Y-89339000D01*
X150703848Y-89339000D01*
X150864394Y-89370934D01*
X150864394Y-89370934D01*
G37*
G36*
X153404394Y-89370934D02*
G01*
X153555624Y-89433576D01*
X153555626Y-89433577D01*
X153691732Y-89524520D01*
X153807480Y-89640268D01*
X153897505Y-89775000D01*
X153898424Y-89776376D01*
X153961066Y-89927606D01*
X153993000Y-90088152D01*
X153993000Y-90251848D01*
X153961066Y-90412394D01*
X153898424Y-90563624D01*
X153898423Y-90563626D01*
X153807480Y-90699732D01*
X153691732Y-90815480D01*
X153555626Y-90906423D01*
X153555625Y-90906424D01*
X153555624Y-90906424D01*
X153404394Y-90969066D01*
X153243848Y-91001000D01*
X153080152Y-91001000D01*
X152919606Y-90969066D01*
X152768376Y-90906424D01*
X152768375Y-90906424D01*
X152768374Y-90906423D01*
X152632268Y-90815480D01*
X152516520Y-90699732D01*
X152425577Y-90563626D01*
X152425576Y-90563624D01*
X152362934Y-90412394D01*
X152331000Y-90251848D01*
X152331000Y-90088152D01*
X152362934Y-89927606D01*
X152425576Y-89776376D01*
X152426495Y-89775000D01*
X152516520Y-89640268D01*
X152632268Y-89524520D01*
X152768374Y-89433577D01*
X152768376Y-89433576D01*
X152919606Y-89370934D01*
X153080152Y-89339000D01*
X153243848Y-89339000D01*
X153404394Y-89370934D01*
X153404394Y-89370934D01*
G37*
G36*
X158484394Y-89370934D02*
G01*
X158635624Y-89433576D01*
X158635626Y-89433577D01*
X158771732Y-89524520D01*
X158887480Y-89640268D01*
X158977505Y-89775000D01*
X158978424Y-89776376D01*
X159041066Y-89927606D01*
X159073000Y-90088152D01*
X159073000Y-90251848D01*
X159041066Y-90412394D01*
X158978424Y-90563624D01*
X158978423Y-90563626D01*
X158887480Y-90699732D01*
X158771732Y-90815480D01*
X158635626Y-90906423D01*
X158635625Y-90906424D01*
X158635624Y-90906424D01*
X158484394Y-90969066D01*
X158323848Y-91001000D01*
X158160152Y-91001000D01*
X157999606Y-90969066D01*
X157848376Y-90906424D01*
X157848375Y-90906424D01*
X157848374Y-90906423D01*
X157712268Y-90815480D01*
X157596520Y-90699732D01*
X157505577Y-90563626D01*
X157505576Y-90563624D01*
X157442934Y-90412394D01*
X157411000Y-90251848D01*
X157411000Y-90088152D01*
X157442934Y-89927606D01*
X157505576Y-89776376D01*
X157506495Y-89775000D01*
X157596520Y-89640268D01*
X157712268Y-89524520D01*
X157848374Y-89433577D01*
X157848376Y-89433576D01*
X157999606Y-89370934D01*
X158160152Y-89339000D01*
X158323848Y-89339000D01*
X158484394Y-89370934D01*
X158484394Y-89370934D01*
G37*
G36*
X148324394Y-89370934D02*
G01*
X148475624Y-89433576D01*
X148475626Y-89433577D01*
X148611732Y-89524520D01*
X148727480Y-89640268D01*
X148817505Y-89775000D01*
X148818424Y-89776376D01*
X148881066Y-89927606D01*
X148913000Y-90088152D01*
X148913000Y-90251848D01*
X148881066Y-90412394D01*
X148818424Y-90563624D01*
X148818423Y-90563626D01*
X148727480Y-90699732D01*
X148611732Y-90815480D01*
X148475626Y-90906423D01*
X148475625Y-90906424D01*
X148475624Y-90906424D01*
X148324394Y-90969066D01*
X148163848Y-91001000D01*
X148000152Y-91001000D01*
X147839606Y-90969066D01*
X147688376Y-90906424D01*
X147688375Y-90906424D01*
X147688374Y-90906423D01*
X147552268Y-90815480D01*
X147436520Y-90699732D01*
X147345577Y-90563626D01*
X147345576Y-90563624D01*
X147282934Y-90412394D01*
X147251000Y-90251848D01*
X147251000Y-90088152D01*
X147282934Y-89927606D01*
X147345576Y-89776376D01*
X147346495Y-89775000D01*
X147436520Y-89640268D01*
X147552268Y-89524520D01*
X147688374Y-89433577D01*
X147688376Y-89433576D01*
X147839606Y-89370934D01*
X148000152Y-89339000D01*
X148163848Y-89339000D01*
X148324394Y-89370934D01*
X148324394Y-89370934D01*
G37*
G36*
X145001000Y-90477000D02*
G01*
X142899000Y-90477000D01*
X142899000Y-89775000D01*
X145001000Y-89775000D01*
X145001000Y-90477000D01*
X145001000Y-90477000D01*
G37*
G36*
X145001000Y-89477000D02*
G01*
X142899000Y-89477000D01*
X142899000Y-88775000D01*
X145001000Y-88775000D01*
X145001000Y-89477000D01*
X145001000Y-89477000D01*
G37*
G36*
X145001000Y-88477000D02*
G01*
X142899000Y-88477000D01*
X142899000Y-87775000D01*
X145001000Y-87775000D01*
X145001000Y-88477000D01*
X145001000Y-88477000D01*
G37*
G36*
X145001000Y-87477000D02*
G01*
X142899000Y-87477000D01*
X142899000Y-86775000D01*
X145001000Y-86775000D01*
X145001000Y-87477000D01*
X145001000Y-87477000D01*
G37*
G36*
X172107000Y-87226000D02*
G01*
X170705000Y-87226000D01*
X170705000Y-85824000D01*
X172107000Y-85824000D01*
X172107000Y-87226000D01*
X172107000Y-87226000D01*
G37*
G36*
X158352443Y-85211519D02*
G01*
X158418627Y-85218037D01*
X158588466Y-85269557D01*
X158744991Y-85353222D01*
X158780729Y-85382552D01*
X158882186Y-85465814D01*
X158965448Y-85567271D01*
X158994778Y-85603009D01*
X159078443Y-85759534D01*
X159129963Y-85929373D01*
X159147359Y-86106000D01*
X159129963Y-86282627D01*
X159078443Y-86452466D01*
X158994778Y-86608991D01*
X158965448Y-86644729D01*
X158882186Y-86746186D01*
X158780729Y-86829448D01*
X158744991Y-86858778D01*
X158588466Y-86942443D01*
X158418627Y-86993963D01*
X158352442Y-87000482D01*
X158286260Y-87007000D01*
X158197740Y-87007000D01*
X158131558Y-87000482D01*
X158065373Y-86993963D01*
X157895534Y-86942443D01*
X157739009Y-86858778D01*
X157703271Y-86829448D01*
X157601814Y-86746186D01*
X157518552Y-86644729D01*
X157489222Y-86608991D01*
X157405557Y-86452466D01*
X157354037Y-86282627D01*
X157336641Y-86106000D01*
X157354037Y-85929373D01*
X157405557Y-85759534D01*
X157489222Y-85603009D01*
X157518552Y-85567271D01*
X157601814Y-85465814D01*
X157703271Y-85382552D01*
X157739009Y-85353222D01*
X157895534Y-85269557D01*
X158065373Y-85218037D01*
X158131557Y-85211519D01*
X158197740Y-85205000D01*
X158286260Y-85205000D01*
X158352443Y-85211519D01*
X158352443Y-85211519D01*
G37*
G36*
X155812443Y-85211519D02*
G01*
X155878627Y-85218037D01*
X156048466Y-85269557D01*
X156204991Y-85353222D01*
X156240729Y-85382552D01*
X156342186Y-85465814D01*
X156425448Y-85567271D01*
X156454778Y-85603009D01*
X156538443Y-85759534D01*
X156589963Y-85929373D01*
X156607359Y-86106000D01*
X156589963Y-86282627D01*
X156538443Y-86452466D01*
X156454778Y-86608991D01*
X156425448Y-86644729D01*
X156342186Y-86746186D01*
X156240729Y-86829448D01*
X156204991Y-86858778D01*
X156048466Y-86942443D01*
X155878627Y-86993963D01*
X155812442Y-87000482D01*
X155746260Y-87007000D01*
X155657740Y-87007000D01*
X155591558Y-87000482D01*
X155525373Y-86993963D01*
X155355534Y-86942443D01*
X155199009Y-86858778D01*
X155163271Y-86829448D01*
X155061814Y-86746186D01*
X154978552Y-86644729D01*
X154949222Y-86608991D01*
X154865557Y-86452466D01*
X154814037Y-86282627D01*
X154796641Y-86106000D01*
X154814037Y-85929373D01*
X154865557Y-85759534D01*
X154949222Y-85603009D01*
X154978552Y-85567271D01*
X155061814Y-85465814D01*
X155163271Y-85382552D01*
X155199009Y-85353222D01*
X155355534Y-85269557D01*
X155525373Y-85218037D01*
X155591557Y-85211519D01*
X155657740Y-85205000D01*
X155746260Y-85205000D01*
X155812443Y-85211519D01*
X155812443Y-85211519D01*
G37*
G36*
X153272443Y-85211519D02*
G01*
X153338627Y-85218037D01*
X153508466Y-85269557D01*
X153664991Y-85353222D01*
X153700729Y-85382552D01*
X153802186Y-85465814D01*
X153885448Y-85567271D01*
X153914778Y-85603009D01*
X153998443Y-85759534D01*
X154049963Y-85929373D01*
X154067359Y-86106000D01*
X154049963Y-86282627D01*
X153998443Y-86452466D01*
X153914778Y-86608991D01*
X153885448Y-86644729D01*
X153802186Y-86746186D01*
X153700729Y-86829448D01*
X153664991Y-86858778D01*
X153508466Y-86942443D01*
X153338627Y-86993963D01*
X153272442Y-87000482D01*
X153206260Y-87007000D01*
X153117740Y-87007000D01*
X153051558Y-87000482D01*
X152985373Y-86993963D01*
X152815534Y-86942443D01*
X152659009Y-86858778D01*
X152623271Y-86829448D01*
X152521814Y-86746186D01*
X152438552Y-86644729D01*
X152409222Y-86608991D01*
X152325557Y-86452466D01*
X152274037Y-86282627D01*
X152256641Y-86106000D01*
X152274037Y-85929373D01*
X152325557Y-85759534D01*
X152409222Y-85603009D01*
X152438552Y-85567271D01*
X152521814Y-85465814D01*
X152623271Y-85382552D01*
X152659009Y-85353222D01*
X152815534Y-85269557D01*
X152985373Y-85218037D01*
X153051557Y-85211519D01*
X153117740Y-85205000D01*
X153206260Y-85205000D01*
X153272443Y-85211519D01*
X153272443Y-85211519D01*
G37*
G36*
X151523000Y-87007000D02*
G01*
X149721000Y-87007000D01*
X149721000Y-85205000D01*
X151523000Y-85205000D01*
X151523000Y-87007000D01*
X151523000Y-87007000D01*
G37*
G36*
X195955256Y-83481298D02*
G01*
X196061579Y-83502447D01*
X196362042Y-83626903D01*
X196632451Y-83807585D01*
X196862415Y-84037549D01*
X196862416Y-84037551D01*
X197043098Y-84307960D01*
X197167553Y-84608422D01*
X197230724Y-84926000D01*
X197231000Y-84927391D01*
X197231000Y-85252609D01*
X197167553Y-85571579D01*
X197043097Y-85872042D01*
X196862415Y-86142451D01*
X196632451Y-86372415D01*
X196362042Y-86553097D01*
X196061579Y-86677553D01*
X195955256Y-86698702D01*
X195742611Y-86741000D01*
X195417389Y-86741000D01*
X195204744Y-86698702D01*
X195098421Y-86677553D01*
X194797958Y-86553097D01*
X194527549Y-86372415D01*
X194297585Y-86142451D01*
X194116903Y-85872042D01*
X193992447Y-85571579D01*
X193929000Y-85252609D01*
X193929000Y-84927391D01*
X193929277Y-84926000D01*
X193992447Y-84608422D01*
X194116902Y-84307960D01*
X194297584Y-84037551D01*
X194297585Y-84037549D01*
X194527549Y-83807585D01*
X194797958Y-83626903D01*
X195098421Y-83502447D01*
X195204744Y-83481298D01*
X195417389Y-83439000D01*
X195742611Y-83439000D01*
X195955256Y-83481298D01*
X195955256Y-83481298D01*
G37*
G36*
X145001000Y-86477000D02*
G01*
X143149000Y-86477000D01*
X143149000Y-85775000D01*
X145001000Y-85775000D01*
X145001000Y-86477000D01*
X145001000Y-86477000D01*
G37*
G36*
X166957000Y-86076000D02*
G01*
X164855000Y-86076000D01*
X164855000Y-84674000D01*
X166957000Y-84674000D01*
X166957000Y-86076000D01*
X166957000Y-86076000D01*
G37*
G36*
X124971000Y-85727000D02*
G01*
X124269000Y-85727000D01*
X124269000Y-83625000D01*
X124971000Y-83625000D01*
X124971000Y-85727000D01*
X124971000Y-85727000D01*
G37*
G36*
X130971000Y-85727000D02*
G01*
X130269000Y-85727000D01*
X130269000Y-83625000D01*
X130971000Y-83625000D01*
X130971000Y-85727000D01*
X130971000Y-85727000D01*
G37*
G36*
X140971000Y-85727000D02*
G01*
X140269000Y-85727000D01*
X140269000Y-83625000D01*
X140971000Y-83625000D01*
X140971000Y-85727000D01*
X140971000Y-85727000D01*
G37*
G36*
X133971000Y-85727000D02*
G01*
X133269000Y-85727000D01*
X133269000Y-83625000D01*
X133971000Y-83625000D01*
X133971000Y-85727000D01*
X133971000Y-85727000D01*
G37*
G36*
X131971000Y-85727000D02*
G01*
X131269000Y-85727000D01*
X131269000Y-83625000D01*
X131971000Y-83625000D01*
X131971000Y-85727000D01*
X131971000Y-85727000D01*
G37*
G36*
X125971000Y-85727000D02*
G01*
X125269000Y-85727000D01*
X125269000Y-83625000D01*
X125971000Y-83625000D01*
X125971000Y-85727000D01*
X125971000Y-85727000D01*
G37*
G36*
X126971000Y-85727000D02*
G01*
X126269000Y-85727000D01*
X126269000Y-83625000D01*
X126971000Y-83625000D01*
X126971000Y-85727000D01*
X126971000Y-85727000D01*
G37*
G36*
X136971000Y-85727000D02*
G01*
X136269000Y-85727000D01*
X136269000Y-83625000D01*
X136971000Y-83625000D01*
X136971000Y-85727000D01*
X136971000Y-85727000D01*
G37*
G36*
X138971000Y-85727000D02*
G01*
X138269000Y-85727000D01*
X138269000Y-83625000D01*
X138971000Y-83625000D01*
X138971000Y-85727000D01*
X138971000Y-85727000D01*
G37*
G36*
X128971000Y-85727000D02*
G01*
X128269000Y-85727000D01*
X128269000Y-83625000D01*
X128971000Y-83625000D01*
X128971000Y-85727000D01*
X128971000Y-85727000D01*
G37*
G36*
X129971000Y-85727000D02*
G01*
X129269000Y-85727000D01*
X129269000Y-83625000D01*
X129971000Y-83625000D01*
X129971000Y-85727000D01*
X129971000Y-85727000D01*
G37*
G36*
X127971000Y-85727000D02*
G01*
X127269000Y-85727000D01*
X127269000Y-83625000D01*
X127971000Y-83625000D01*
X127971000Y-85727000D01*
X127971000Y-85727000D01*
G37*
G36*
X134971000Y-85727000D02*
G01*
X134269000Y-85727000D01*
X134269000Y-83625000D01*
X134971000Y-83625000D01*
X134971000Y-85727000D01*
X134971000Y-85727000D01*
G37*
G36*
X132971000Y-85727000D02*
G01*
X132269000Y-85727000D01*
X132269000Y-83625000D01*
X132971000Y-83625000D01*
X132971000Y-85727000D01*
X132971000Y-85727000D01*
G37*
G36*
X123971000Y-85727000D02*
G01*
X123269000Y-85727000D01*
X123269000Y-83625000D01*
X123971000Y-83625000D01*
X123971000Y-85727000D01*
X123971000Y-85727000D01*
G37*
G36*
X137971000Y-85727000D02*
G01*
X137269000Y-85727000D01*
X137269000Y-83625000D01*
X137971000Y-83625000D01*
X137971000Y-85727000D01*
X137971000Y-85727000D01*
G37*
G36*
X135971000Y-85727000D02*
G01*
X135269000Y-85727000D01*
X135269000Y-83625000D01*
X135971000Y-83625000D01*
X135971000Y-85727000D01*
X135971000Y-85727000D01*
G37*
G36*
X139971000Y-85727000D02*
G01*
X139269000Y-85727000D01*
X139269000Y-83625000D01*
X139971000Y-83625000D01*
X139971000Y-85727000D01*
X139971000Y-85727000D01*
G37*
G36*
X141971000Y-85727000D02*
G01*
X141269000Y-85727000D01*
X141269000Y-83625000D01*
X141971000Y-83625000D01*
X141971000Y-85727000D01*
X141971000Y-85727000D01*
G37*
G36*
X142971000Y-85477000D02*
G01*
X142269000Y-85477000D01*
X142269000Y-83625000D01*
X142971000Y-83625000D01*
X142971000Y-85477000D01*
X142971000Y-85477000D01*
G37*
G36*
X172107000Y-84926000D02*
G01*
X170705000Y-84926000D01*
X170705000Y-83524000D01*
X172107000Y-83524000D01*
X172107000Y-84926000D01*
X172107000Y-84926000D01*
G37*
G36*
X190031000Y-84621000D02*
G01*
X188429000Y-84621000D01*
X188429000Y-83019000D01*
X190031000Y-83019000D01*
X190031000Y-84621000D01*
X190031000Y-84621000D01*
G37*
G36*
X162303999Y-81020737D02*
G01*
X162313608Y-81023652D01*
X162322472Y-81028390D01*
X162330237Y-81034763D01*
X162336610Y-81042528D01*
X162341348Y-81051392D01*
X162344263Y-81061001D01*
X162345852Y-81077140D01*
X162345852Y-82064860D01*
X162344263Y-82080999D01*
X162341348Y-82090608D01*
X162336610Y-82099472D01*
X162330258Y-82107212D01*
X162330237Y-82107237D01*
X162322427Y-82113640D01*
X162322372Y-82113677D01*
X162312853Y-82121480D01*
X162312878Y-82121511D01*
X162299028Y-82132853D01*
X162283463Y-82151779D01*
X162271889Y-82173377D01*
X162264751Y-82196819D01*
X162262324Y-82221202D01*
X162264700Y-82245591D01*
X162271789Y-82269047D01*
X162283318Y-82290670D01*
X162298843Y-82309628D01*
X162317769Y-82325193D01*
X162320825Y-82327029D01*
X162322514Y-82328418D01*
X162322516Y-82328419D01*
X162328712Y-82333515D01*
X162330274Y-82334800D01*
X162336642Y-82342575D01*
X162339791Y-82348483D01*
X162341367Y-82351438D01*
X162344257Y-82361001D01*
X162344282Y-82361085D01*
X162345852Y-82377113D01*
X162345852Y-83514860D01*
X162344263Y-83530999D01*
X162341348Y-83540608D01*
X162336610Y-83549472D01*
X162330237Y-83557237D01*
X162322472Y-83563610D01*
X162313608Y-83568348D01*
X162303999Y-83571263D01*
X162287860Y-83572852D01*
X160800140Y-83572852D01*
X160784001Y-83571263D01*
X160774392Y-83568348D01*
X160765528Y-83563610D01*
X160757763Y-83557237D01*
X160751390Y-83549472D01*
X160746652Y-83540608D01*
X160743737Y-83530999D01*
X160742148Y-83514860D01*
X160742148Y-82377140D01*
X160743737Y-82361001D01*
X160746652Y-82351392D01*
X160751390Y-82342528D01*
X160757763Y-82334763D01*
X160770737Y-82324116D01*
X160779968Y-82317947D01*
X160797294Y-82300619D01*
X160810907Y-82280244D01*
X160820283Y-82257605D01*
X160825063Y-82233572D01*
X160825062Y-82209068D01*
X160820280Y-82185035D01*
X160810902Y-82162396D01*
X160797287Y-82142022D01*
X160779959Y-82124696D01*
X160770683Y-82117825D01*
X160757800Y-82107274D01*
X160756668Y-82105897D01*
X160751419Y-82099516D01*
X160746674Y-82090661D01*
X160745749Y-82087623D01*
X160743758Y-82081085D01*
X160743758Y-82081082D01*
X160743748Y-82081050D01*
X160742753Y-82071000D01*
X160742753Y-82070935D01*
X160742148Y-82064825D01*
X160742148Y-81077140D01*
X160743737Y-81061001D01*
X160746652Y-81051392D01*
X160751390Y-81042528D01*
X160757763Y-81034763D01*
X160765528Y-81028390D01*
X160774392Y-81023652D01*
X160784001Y-81020737D01*
X160800140Y-81019148D01*
X162287860Y-81019148D01*
X162303999Y-81020737D01*
X162303999Y-81020737D01*
G37*
G36*
X186923642Y-81779781D02*
G01*
X187053248Y-81833466D01*
X187069416Y-81840163D01*
X187200608Y-81927822D01*
X187312178Y-82039392D01*
X187387272Y-82151779D01*
X187399838Y-82170586D01*
X187460219Y-82316358D01*
X187491000Y-82471107D01*
X187491000Y-82628893D01*
X187460219Y-82783642D01*
X187441876Y-82827925D01*
X187399837Y-82929416D01*
X187312178Y-83060608D01*
X187200608Y-83172178D01*
X187069416Y-83259837D01*
X187069415Y-83259838D01*
X187069414Y-83259838D01*
X186923642Y-83320219D01*
X186768893Y-83351000D01*
X186611107Y-83351000D01*
X186456358Y-83320219D01*
X186310586Y-83259838D01*
X186310585Y-83259838D01*
X186310584Y-83259837D01*
X186179392Y-83172178D01*
X186067822Y-83060608D01*
X185980163Y-82929416D01*
X185938124Y-82827925D01*
X185919781Y-82783642D01*
X185889000Y-82628893D01*
X185889000Y-82471107D01*
X185919781Y-82316358D01*
X185980162Y-82170586D01*
X185992728Y-82151779D01*
X186067822Y-82039392D01*
X186179392Y-81927822D01*
X186310584Y-81840163D01*
X186326752Y-81833466D01*
X186456358Y-81779781D01*
X186611107Y-81749000D01*
X186768893Y-81749000D01*
X186923642Y-81779781D01*
X186923642Y-81779781D01*
G37*
G36*
X181843642Y-81779781D02*
G01*
X181973248Y-81833466D01*
X181989416Y-81840163D01*
X182120608Y-81927822D01*
X182232178Y-82039392D01*
X182307272Y-82151779D01*
X182319838Y-82170586D01*
X182380219Y-82316358D01*
X182411000Y-82471107D01*
X182411000Y-82628893D01*
X182380219Y-82783642D01*
X182361876Y-82827925D01*
X182319837Y-82929416D01*
X182232178Y-83060608D01*
X182120608Y-83172178D01*
X181989416Y-83259837D01*
X181989415Y-83259838D01*
X181989414Y-83259838D01*
X181843642Y-83320219D01*
X181688893Y-83351000D01*
X181531107Y-83351000D01*
X181376358Y-83320219D01*
X181230586Y-83259838D01*
X181230585Y-83259838D01*
X181230584Y-83259837D01*
X181099392Y-83172178D01*
X180987822Y-83060608D01*
X180900163Y-82929416D01*
X180858124Y-82827925D01*
X180839781Y-82783642D01*
X180809000Y-82628893D01*
X180809000Y-82471107D01*
X180839781Y-82316358D01*
X180900162Y-82170586D01*
X180912728Y-82151779D01*
X180987822Y-82039392D01*
X181099392Y-81927822D01*
X181230584Y-81840163D01*
X181246752Y-81833466D01*
X181376358Y-81779781D01*
X181531107Y-81749000D01*
X181688893Y-81749000D01*
X181843642Y-81779781D01*
X181843642Y-81779781D01*
G37*
G36*
X176739674Y-81803465D02*
G01*
X176777367Y-81814899D01*
X176812103Y-81833466D01*
X176842548Y-81858452D01*
X176867534Y-81888897D01*
X176886101Y-81923633D01*
X176897535Y-81961326D01*
X176902000Y-82006661D01*
X176902000Y-83093339D01*
X176897535Y-83138674D01*
X176886101Y-83176367D01*
X176867534Y-83211103D01*
X176842548Y-83241548D01*
X176812103Y-83266534D01*
X176777367Y-83285101D01*
X176739674Y-83296535D01*
X176694339Y-83301000D01*
X175857661Y-83301000D01*
X175812326Y-83296535D01*
X175774633Y-83285101D01*
X175739897Y-83266534D01*
X175709452Y-83241548D01*
X175684466Y-83211103D01*
X175665899Y-83176367D01*
X175654465Y-83138674D01*
X175650000Y-83093339D01*
X175650000Y-82006661D01*
X175654465Y-81961326D01*
X175665899Y-81923633D01*
X175684466Y-81888897D01*
X175709452Y-81858452D01*
X175739897Y-81833466D01*
X175774633Y-81814899D01*
X175812326Y-81803465D01*
X175857661Y-81799000D01*
X176694339Y-81799000D01*
X176739674Y-81803465D01*
X176739674Y-81803465D01*
G37*
G36*
X174689674Y-81803465D02*
G01*
X174727367Y-81814899D01*
X174762103Y-81833466D01*
X174792548Y-81858452D01*
X174817534Y-81888897D01*
X174836101Y-81923633D01*
X174847535Y-81961326D01*
X174852000Y-82006661D01*
X174852000Y-83093339D01*
X174847535Y-83138674D01*
X174836101Y-83176367D01*
X174817534Y-83211103D01*
X174792548Y-83241548D01*
X174762103Y-83266534D01*
X174727367Y-83285101D01*
X174689674Y-83296535D01*
X174644339Y-83301000D01*
X173807661Y-83301000D01*
X173762326Y-83296535D01*
X173724633Y-83285101D01*
X173689897Y-83266534D01*
X173659452Y-83241548D01*
X173634466Y-83211103D01*
X173615899Y-83176367D01*
X173604465Y-83138674D01*
X173600000Y-83093339D01*
X173600000Y-82006661D01*
X173604465Y-81961326D01*
X173615899Y-81923633D01*
X173634466Y-81888897D01*
X173659452Y-81858452D01*
X173689897Y-81833466D01*
X173724633Y-81814899D01*
X173762326Y-81803465D01*
X173807661Y-81799000D01*
X174644339Y-81799000D01*
X174689674Y-81803465D01*
X174689674Y-81803465D01*
G37*
G36*
X137360674Y-81549465D02*
G01*
X137398367Y-81560899D01*
X137433103Y-81579466D01*
X137463548Y-81604452D01*
X137488534Y-81634897D01*
X137507101Y-81669633D01*
X137518535Y-81707326D01*
X137523000Y-81752661D01*
X137523000Y-82839339D01*
X137518535Y-82884674D01*
X137507101Y-82922367D01*
X137488534Y-82957103D01*
X137463548Y-82987548D01*
X137433103Y-83012534D01*
X137398367Y-83031101D01*
X137360674Y-83042535D01*
X137315339Y-83047000D01*
X136478661Y-83047000D01*
X136433326Y-83042535D01*
X136395633Y-83031101D01*
X136360897Y-83012534D01*
X136330452Y-82987548D01*
X136305466Y-82957103D01*
X136286899Y-82922367D01*
X136275465Y-82884674D01*
X136271000Y-82839339D01*
X136271000Y-81752661D01*
X136275465Y-81707326D01*
X136286899Y-81669633D01*
X136305466Y-81634897D01*
X136330452Y-81604452D01*
X136360897Y-81579466D01*
X136395633Y-81560899D01*
X136433326Y-81549465D01*
X136478661Y-81545000D01*
X137315339Y-81545000D01*
X137360674Y-81549465D01*
X137360674Y-81549465D01*
G37*
G36*
X139410674Y-81549465D02*
G01*
X139448367Y-81560899D01*
X139483103Y-81579466D01*
X139513548Y-81604452D01*
X139538534Y-81634897D01*
X139557101Y-81669633D01*
X139568535Y-81707326D01*
X139573000Y-81752661D01*
X139573000Y-82839339D01*
X139568535Y-82884674D01*
X139557101Y-82922367D01*
X139538534Y-82957103D01*
X139513548Y-82987548D01*
X139483103Y-83012534D01*
X139448367Y-83031101D01*
X139410674Y-83042535D01*
X139365339Y-83047000D01*
X138528661Y-83047000D01*
X138483326Y-83042535D01*
X138445633Y-83031101D01*
X138410897Y-83012534D01*
X138380452Y-82987548D01*
X138355466Y-82957103D01*
X138336899Y-82922367D01*
X138325465Y-82884674D01*
X138321000Y-82839339D01*
X138321000Y-81752661D01*
X138325465Y-81707326D01*
X138336899Y-81669633D01*
X138355466Y-81634897D01*
X138380452Y-81604452D01*
X138410897Y-81579466D01*
X138445633Y-81560899D01*
X138483326Y-81549465D01*
X138528661Y-81545000D01*
X139365339Y-81545000D01*
X139410674Y-81549465D01*
X139410674Y-81549465D01*
G37*
G36*
X157172674Y-81295465D02*
G01*
X157210367Y-81306899D01*
X157245103Y-81325466D01*
X157275548Y-81350452D01*
X157300534Y-81380897D01*
X157319101Y-81415633D01*
X157330535Y-81453326D01*
X157335000Y-81498661D01*
X157335000Y-82585339D01*
X157330535Y-82630674D01*
X157319101Y-82668367D01*
X157300534Y-82703103D01*
X157275548Y-82733548D01*
X157245103Y-82758534D01*
X157210367Y-82777101D01*
X157172674Y-82788535D01*
X157127339Y-82793000D01*
X156290661Y-82793000D01*
X156245326Y-82788535D01*
X156207633Y-82777101D01*
X156172897Y-82758534D01*
X156142452Y-82733548D01*
X156117466Y-82703103D01*
X156098899Y-82668367D01*
X156087465Y-82630674D01*
X156083000Y-82585339D01*
X156083000Y-81498661D01*
X156087465Y-81453326D01*
X156098899Y-81415633D01*
X156117466Y-81380897D01*
X156142452Y-81350452D01*
X156172897Y-81325466D01*
X156207633Y-81306899D01*
X156245326Y-81295465D01*
X156290661Y-81291000D01*
X157127339Y-81291000D01*
X157172674Y-81295465D01*
X157172674Y-81295465D01*
G37*
G36*
X159222674Y-81295465D02*
G01*
X159260367Y-81306899D01*
X159295103Y-81325466D01*
X159325548Y-81350452D01*
X159350534Y-81380897D01*
X159369101Y-81415633D01*
X159380535Y-81453326D01*
X159385000Y-81498661D01*
X159385000Y-82585339D01*
X159380535Y-82630674D01*
X159369101Y-82668367D01*
X159350534Y-82703103D01*
X159325548Y-82733548D01*
X159295103Y-82758534D01*
X159260367Y-82777101D01*
X159222674Y-82788535D01*
X159177339Y-82793000D01*
X158340661Y-82793000D01*
X158295326Y-82788535D01*
X158257633Y-82777101D01*
X158222897Y-82758534D01*
X158192452Y-82733548D01*
X158167466Y-82703103D01*
X158148899Y-82668367D01*
X158137465Y-82630674D01*
X158133000Y-82585339D01*
X158133000Y-81498661D01*
X158137465Y-81453326D01*
X158148899Y-81415633D01*
X158167466Y-81380897D01*
X158192452Y-81350452D01*
X158222897Y-81325466D01*
X158257633Y-81306899D01*
X158295326Y-81295465D01*
X158340661Y-81291000D01*
X159177339Y-81291000D01*
X159222674Y-81295465D01*
X159222674Y-81295465D01*
G37*
G36*
X189463642Y-80509781D02*
G01*
X189609414Y-80570162D01*
X189609416Y-80570163D01*
X189740608Y-80657822D01*
X189852178Y-80769392D01*
X189859412Y-80780219D01*
X189939838Y-80900586D01*
X190000219Y-81046358D01*
X190031000Y-81201107D01*
X190031000Y-81358893D01*
X190000219Y-81513642D01*
X189949993Y-81634897D01*
X189939837Y-81659416D01*
X189852178Y-81790608D01*
X189740608Y-81902178D01*
X189609416Y-81989837D01*
X189609415Y-81989838D01*
X189609414Y-81989838D01*
X189463642Y-82050219D01*
X189308893Y-82081000D01*
X189151107Y-82081000D01*
X188996358Y-82050219D01*
X188850586Y-81989838D01*
X188850585Y-81989838D01*
X188850584Y-81989837D01*
X188719392Y-81902178D01*
X188607822Y-81790608D01*
X188520163Y-81659416D01*
X188510007Y-81634897D01*
X188459781Y-81513642D01*
X188429000Y-81358893D01*
X188429000Y-81201107D01*
X188459781Y-81046358D01*
X188520162Y-80900586D01*
X188600588Y-80780219D01*
X188607822Y-80769392D01*
X188719392Y-80657822D01*
X188850584Y-80570163D01*
X188850586Y-80570162D01*
X188996358Y-80509781D01*
X189151107Y-80479000D01*
X189308893Y-80479000D01*
X189463642Y-80509781D01*
X189463642Y-80509781D01*
G37*
G36*
X172107000Y-81353000D02*
G01*
X170705000Y-81353000D01*
X170705000Y-79951000D01*
X172107000Y-79951000D01*
X172107000Y-81353000D01*
X172107000Y-81353000D01*
G37*
G36*
X186923642Y-79239781D02*
G01*
X187053248Y-79293466D01*
X187069416Y-79300163D01*
X187200608Y-79387822D01*
X187312178Y-79499392D01*
X187399837Y-79630584D01*
X187399838Y-79630586D01*
X187460219Y-79776358D01*
X187491000Y-79931107D01*
X187491000Y-80088893D01*
X187460219Y-80243642D01*
X187435632Y-80303000D01*
X187399837Y-80389416D01*
X187312178Y-80520608D01*
X187200608Y-80632178D01*
X187069416Y-80719837D01*
X187069415Y-80719838D01*
X187069414Y-80719838D01*
X186923642Y-80780219D01*
X186768893Y-80811000D01*
X186611107Y-80811000D01*
X186456358Y-80780219D01*
X186310586Y-80719838D01*
X186310585Y-80719838D01*
X186310584Y-80719837D01*
X186179392Y-80632178D01*
X186067822Y-80520608D01*
X185980163Y-80389416D01*
X185944368Y-80303000D01*
X185919781Y-80243642D01*
X185889000Y-80088893D01*
X185889000Y-79931107D01*
X185919781Y-79776358D01*
X185980162Y-79630586D01*
X185980163Y-79630584D01*
X186067822Y-79499392D01*
X186179392Y-79387822D01*
X186310584Y-79300163D01*
X186326752Y-79293466D01*
X186456358Y-79239781D01*
X186611107Y-79209000D01*
X186768893Y-79209000D01*
X186923642Y-79239781D01*
X186923642Y-79239781D01*
G37*
G36*
X181843642Y-79239781D02*
G01*
X181973248Y-79293466D01*
X181989416Y-79300163D01*
X182120608Y-79387822D01*
X182232178Y-79499392D01*
X182319837Y-79630584D01*
X182319838Y-79630586D01*
X182380219Y-79776358D01*
X182411000Y-79931107D01*
X182411000Y-80088893D01*
X182380219Y-80243642D01*
X182355632Y-80303000D01*
X182319837Y-80389416D01*
X182232178Y-80520608D01*
X182120608Y-80632178D01*
X181989416Y-80719837D01*
X181989415Y-80719838D01*
X181989414Y-80719838D01*
X181843642Y-80780219D01*
X181688893Y-80811000D01*
X181531107Y-80811000D01*
X181376358Y-80780219D01*
X181230586Y-80719838D01*
X181230585Y-80719838D01*
X181230584Y-80719837D01*
X181099392Y-80632178D01*
X180987822Y-80520608D01*
X180900163Y-80389416D01*
X180864368Y-80303000D01*
X180839781Y-80243642D01*
X180809000Y-80088893D01*
X180809000Y-79931107D01*
X180839781Y-79776358D01*
X180900162Y-79630586D01*
X180900163Y-79630584D01*
X180987822Y-79499392D01*
X181099392Y-79387822D01*
X181230584Y-79300163D01*
X181246752Y-79293466D01*
X181376358Y-79239781D01*
X181531107Y-79209000D01*
X181688893Y-79209000D01*
X181843642Y-79239781D01*
X181843642Y-79239781D01*
G37*
G36*
X176739674Y-79263465D02*
G01*
X176777367Y-79274899D01*
X176812103Y-79293466D01*
X176842548Y-79318452D01*
X176867534Y-79348897D01*
X176886101Y-79383633D01*
X176897535Y-79421326D01*
X176902000Y-79466661D01*
X176902000Y-80553339D01*
X176897535Y-80598674D01*
X176886101Y-80636367D01*
X176867534Y-80671103D01*
X176842548Y-80701548D01*
X176812103Y-80726534D01*
X176777367Y-80745101D01*
X176739674Y-80756535D01*
X176694339Y-80761000D01*
X175857661Y-80761000D01*
X175812326Y-80756535D01*
X175774633Y-80745101D01*
X175739897Y-80726534D01*
X175709452Y-80701548D01*
X175684466Y-80671103D01*
X175665899Y-80636367D01*
X175654465Y-80598674D01*
X175650000Y-80553339D01*
X175650000Y-79466661D01*
X175654465Y-79421326D01*
X175665899Y-79383633D01*
X175684466Y-79348897D01*
X175709452Y-79318452D01*
X175739897Y-79293466D01*
X175774633Y-79274899D01*
X175812326Y-79263465D01*
X175857661Y-79259000D01*
X176694339Y-79259000D01*
X176739674Y-79263465D01*
X176739674Y-79263465D01*
G37*
G36*
X174689674Y-79263465D02*
G01*
X174727367Y-79274899D01*
X174762103Y-79293466D01*
X174792548Y-79318452D01*
X174817534Y-79348897D01*
X174836101Y-79383633D01*
X174847535Y-79421326D01*
X174852000Y-79466661D01*
X174852000Y-80553339D01*
X174847535Y-80598674D01*
X174836101Y-80636367D01*
X174817534Y-80671103D01*
X174792548Y-80701548D01*
X174762103Y-80726534D01*
X174727367Y-80745101D01*
X174689674Y-80756535D01*
X174644339Y-80761000D01*
X173807661Y-80761000D01*
X173762326Y-80756535D01*
X173724633Y-80745101D01*
X173689897Y-80726534D01*
X173659452Y-80701548D01*
X173634466Y-80671103D01*
X173615899Y-80636367D01*
X173604465Y-80598674D01*
X173600000Y-80553339D01*
X173600000Y-79466661D01*
X173604465Y-79421326D01*
X173615899Y-79383633D01*
X173634466Y-79348897D01*
X173659452Y-79318452D01*
X173689897Y-79293466D01*
X173724633Y-79274899D01*
X173762326Y-79263465D01*
X173807661Y-79259000D01*
X174644339Y-79259000D01*
X174689674Y-79263465D01*
X174689674Y-79263465D01*
G37*
G36*
X153996642Y-78731781D02*
G01*
X154126248Y-78785466D01*
X154142416Y-78792163D01*
X154273608Y-78879822D01*
X154385178Y-78991392D01*
X154470719Y-79119414D01*
X154472838Y-79122586D01*
X154533219Y-79268358D01*
X154564000Y-79423107D01*
X154564000Y-79580893D01*
X154533219Y-79735642D01*
X154472838Y-79881414D01*
X154472837Y-79881416D01*
X154385178Y-80012608D01*
X154273608Y-80124178D01*
X154142416Y-80211837D01*
X154142415Y-80211838D01*
X154142414Y-80211838D01*
X153996642Y-80272219D01*
X153841893Y-80303000D01*
X153684107Y-80303000D01*
X153529358Y-80272219D01*
X153383586Y-80211838D01*
X153383585Y-80211838D01*
X153383584Y-80211837D01*
X153252392Y-80124178D01*
X153140822Y-80012608D01*
X153053163Y-79881416D01*
X153053162Y-79881414D01*
X152992781Y-79735642D01*
X152962000Y-79580893D01*
X152962000Y-79423107D01*
X152992781Y-79268358D01*
X153053162Y-79122586D01*
X153055281Y-79119414D01*
X153140822Y-78991392D01*
X153252392Y-78879822D01*
X153383584Y-78792163D01*
X153399752Y-78785466D01*
X153529358Y-78731781D01*
X153684107Y-78701000D01*
X153841893Y-78701000D01*
X153996642Y-78731781D01*
X153996642Y-78731781D01*
G37*
G36*
X123883642Y-78731781D02*
G01*
X124013248Y-78785466D01*
X124029416Y-78792163D01*
X124160608Y-78879822D01*
X124272178Y-78991392D01*
X124357719Y-79119414D01*
X124359838Y-79122586D01*
X124420219Y-79268358D01*
X124451000Y-79423107D01*
X124451000Y-79580893D01*
X124420219Y-79735642D01*
X124359838Y-79881414D01*
X124359837Y-79881416D01*
X124272178Y-80012608D01*
X124160608Y-80124178D01*
X124029416Y-80211837D01*
X124029415Y-80211838D01*
X124029414Y-80211838D01*
X123883642Y-80272219D01*
X123728893Y-80303000D01*
X123571107Y-80303000D01*
X123416358Y-80272219D01*
X123270586Y-80211838D01*
X123270585Y-80211838D01*
X123270584Y-80211837D01*
X123139392Y-80124178D01*
X123027822Y-80012608D01*
X122940163Y-79881416D01*
X122940162Y-79881414D01*
X122879781Y-79735642D01*
X122849000Y-79580893D01*
X122849000Y-79423107D01*
X122879781Y-79268358D01*
X122940162Y-79122586D01*
X122942281Y-79119414D01*
X123027822Y-78991392D01*
X123139392Y-78879822D01*
X123270584Y-78792163D01*
X123286752Y-78785466D01*
X123416358Y-78731781D01*
X123571107Y-78701000D01*
X123728893Y-78701000D01*
X123883642Y-78731781D01*
X123883642Y-78731781D01*
G37*
G36*
X159222674Y-78755465D02*
G01*
X159260367Y-78766899D01*
X159295103Y-78785466D01*
X159325548Y-78810452D01*
X159350534Y-78840897D01*
X159369101Y-78875633D01*
X159380535Y-78913326D01*
X159385000Y-78958661D01*
X159385000Y-80045339D01*
X159380535Y-80090674D01*
X159369101Y-80128367D01*
X159350534Y-80163103D01*
X159325548Y-80193548D01*
X159295103Y-80218534D01*
X159260367Y-80237101D01*
X159222674Y-80248535D01*
X159177339Y-80253000D01*
X158340661Y-80253000D01*
X158295326Y-80248535D01*
X158257633Y-80237101D01*
X158222897Y-80218534D01*
X158192452Y-80193548D01*
X158167466Y-80163103D01*
X158148899Y-80128367D01*
X158137465Y-80090674D01*
X158133000Y-80045339D01*
X158133000Y-78958661D01*
X158137465Y-78913326D01*
X158148899Y-78875633D01*
X158167466Y-78840897D01*
X158192452Y-78810452D01*
X158222897Y-78785466D01*
X158257633Y-78766899D01*
X158295326Y-78755465D01*
X158340661Y-78751000D01*
X159177339Y-78751000D01*
X159222674Y-78755465D01*
X159222674Y-78755465D01*
G37*
G36*
X157172674Y-78755465D02*
G01*
X157210367Y-78766899D01*
X157245103Y-78785466D01*
X157275548Y-78810452D01*
X157300534Y-78840897D01*
X157319101Y-78875633D01*
X157330535Y-78913326D01*
X157335000Y-78958661D01*
X157335000Y-80045339D01*
X157330535Y-80090674D01*
X157319101Y-80128367D01*
X157300534Y-80163103D01*
X157275548Y-80193548D01*
X157245103Y-80218534D01*
X157210367Y-80237101D01*
X157172674Y-80248535D01*
X157127339Y-80253000D01*
X156290661Y-80253000D01*
X156245326Y-80248535D01*
X156207633Y-80237101D01*
X156172897Y-80218534D01*
X156142452Y-80193548D01*
X156117466Y-80163103D01*
X156098899Y-80128367D01*
X156087465Y-80090674D01*
X156083000Y-80045339D01*
X156083000Y-78958661D01*
X156087465Y-78913326D01*
X156098899Y-78875633D01*
X156117466Y-78840897D01*
X156142452Y-78810452D01*
X156172897Y-78785466D01*
X156207633Y-78766899D01*
X156245326Y-78755465D01*
X156290661Y-78751000D01*
X157127339Y-78751000D01*
X157172674Y-78755465D01*
X157172674Y-78755465D01*
G37*
G36*
X166957000Y-80203000D02*
G01*
X164855000Y-80203000D01*
X164855000Y-78801000D01*
X166957000Y-78801000D01*
X166957000Y-80203000D01*
X166957000Y-80203000D01*
G37*
G36*
X164164674Y-78381465D02*
G01*
X164202367Y-78392899D01*
X164237103Y-78411466D01*
X164267548Y-78436452D01*
X164292534Y-78466897D01*
X164311101Y-78501633D01*
X164322535Y-78539326D01*
X164327000Y-78584661D01*
X164327000Y-79421339D01*
X164322535Y-79466674D01*
X164311101Y-79504367D01*
X164292534Y-79539103D01*
X164267548Y-79569548D01*
X164237103Y-79594534D01*
X164202367Y-79613101D01*
X164164674Y-79624535D01*
X164119339Y-79629000D01*
X163032661Y-79629000D01*
X162987326Y-79624535D01*
X162949633Y-79613101D01*
X162914897Y-79594534D01*
X162884452Y-79569548D01*
X162859466Y-79539103D01*
X162840899Y-79504367D01*
X162829465Y-79466674D01*
X162825000Y-79421339D01*
X162825000Y-78584661D01*
X162829465Y-78539326D01*
X162840899Y-78501633D01*
X162859466Y-78466897D01*
X162884452Y-78436452D01*
X162914897Y-78411466D01*
X162949633Y-78392899D01*
X162987326Y-78381465D01*
X163032661Y-78377000D01*
X164119339Y-78377000D01*
X164164674Y-78381465D01*
X164164674Y-78381465D01*
G37*
G36*
X161878674Y-78372465D02*
G01*
X161916367Y-78383899D01*
X161951103Y-78402466D01*
X161981548Y-78427452D01*
X162006534Y-78457897D01*
X162025101Y-78492633D01*
X162036535Y-78530326D01*
X162041000Y-78575661D01*
X162041000Y-79412339D01*
X162036535Y-79457674D01*
X162025101Y-79495367D01*
X162006534Y-79530103D01*
X161981548Y-79560548D01*
X161951103Y-79585534D01*
X161916367Y-79604101D01*
X161878674Y-79615535D01*
X161833339Y-79620000D01*
X160746661Y-79620000D01*
X160701326Y-79615535D01*
X160663633Y-79604101D01*
X160628897Y-79585534D01*
X160598452Y-79560548D01*
X160573466Y-79530103D01*
X160554899Y-79495367D01*
X160543465Y-79457674D01*
X160539000Y-79412339D01*
X160539000Y-78575661D01*
X160543465Y-78530326D01*
X160554899Y-78492633D01*
X160573466Y-78457897D01*
X160598452Y-78427452D01*
X160628897Y-78402466D01*
X160663633Y-78383899D01*
X160701326Y-78372465D01*
X160746661Y-78368000D01*
X161833339Y-78368000D01*
X161878674Y-78372465D01*
X161878674Y-78372465D01*
G37*
G36*
X189463642Y-77969781D02*
G01*
X189609414Y-78030162D01*
X189609416Y-78030163D01*
X189740608Y-78117822D01*
X189852178Y-78229392D01*
X189859412Y-78240219D01*
X189939838Y-78360586D01*
X190000219Y-78506358D01*
X190031000Y-78661107D01*
X190031000Y-78818893D01*
X190000219Y-78973642D01*
X189939838Y-79119414D01*
X189939837Y-79119416D01*
X189852178Y-79250608D01*
X189740608Y-79362178D01*
X189609416Y-79449837D01*
X189609415Y-79449838D01*
X189609414Y-79449838D01*
X189463642Y-79510219D01*
X189308893Y-79541000D01*
X189151107Y-79541000D01*
X188996358Y-79510219D01*
X188850586Y-79449838D01*
X188850585Y-79449838D01*
X188850584Y-79449837D01*
X188719392Y-79362178D01*
X188607822Y-79250608D01*
X188520163Y-79119416D01*
X188520162Y-79119414D01*
X188459781Y-78973642D01*
X188429000Y-78818893D01*
X188429000Y-78661107D01*
X188459781Y-78506358D01*
X188520162Y-78360586D01*
X188600588Y-78240219D01*
X188607822Y-78229392D01*
X188719392Y-78117822D01*
X188850584Y-78030163D01*
X188850586Y-78030162D01*
X188996358Y-77969781D01*
X189151107Y-77939000D01*
X189308893Y-77939000D01*
X189463642Y-77969781D01*
X189463642Y-77969781D01*
G37*
G36*
X172107000Y-79053000D02*
G01*
X170705000Y-79053000D01*
X170705000Y-77651000D01*
X172107000Y-77651000D01*
X172107000Y-79053000D01*
X172107000Y-79053000D01*
G37*
G36*
X181843642Y-76699781D02*
G01*
X181973248Y-76753466D01*
X181989416Y-76760163D01*
X182120608Y-76847822D01*
X182232178Y-76959392D01*
X182301456Y-77063075D01*
X182319838Y-77090586D01*
X182380219Y-77236358D01*
X182411000Y-77391107D01*
X182411000Y-77548893D01*
X182380219Y-77703642D01*
X182319838Y-77849414D01*
X182319837Y-77849416D01*
X182232178Y-77980608D01*
X182120608Y-78092178D01*
X181989416Y-78179837D01*
X181989415Y-78179838D01*
X181989414Y-78179838D01*
X181843642Y-78240219D01*
X181688893Y-78271000D01*
X181531107Y-78271000D01*
X181376358Y-78240219D01*
X181230586Y-78179838D01*
X181230585Y-78179838D01*
X181230584Y-78179837D01*
X181099392Y-78092178D01*
X180987822Y-77980608D01*
X180900163Y-77849416D01*
X180900162Y-77849414D01*
X180839781Y-77703642D01*
X180809000Y-77548893D01*
X180809000Y-77391107D01*
X180839781Y-77236358D01*
X180900162Y-77090586D01*
X180918544Y-77063075D01*
X180987822Y-76959392D01*
X181099392Y-76847822D01*
X181230584Y-76760163D01*
X181246752Y-76753466D01*
X181376358Y-76699781D01*
X181531107Y-76669000D01*
X181688893Y-76669000D01*
X181843642Y-76699781D01*
X181843642Y-76699781D01*
G37*
G36*
X186923642Y-76699781D02*
G01*
X187053248Y-76753466D01*
X187069416Y-76760163D01*
X187200608Y-76847822D01*
X187312178Y-76959392D01*
X187381456Y-77063075D01*
X187399838Y-77090586D01*
X187460219Y-77236358D01*
X187491000Y-77391107D01*
X187491000Y-77548893D01*
X187460219Y-77703642D01*
X187399838Y-77849414D01*
X187399837Y-77849416D01*
X187312178Y-77980608D01*
X187200608Y-78092178D01*
X187069416Y-78179837D01*
X187069415Y-78179838D01*
X187069414Y-78179838D01*
X186923642Y-78240219D01*
X186768893Y-78271000D01*
X186611107Y-78271000D01*
X186456358Y-78240219D01*
X186310586Y-78179838D01*
X186310585Y-78179838D01*
X186310584Y-78179837D01*
X186179392Y-78092178D01*
X186067822Y-77980608D01*
X185980163Y-77849416D01*
X185980162Y-77849414D01*
X185919781Y-77703642D01*
X185889000Y-77548893D01*
X185889000Y-77391107D01*
X185919781Y-77236358D01*
X185980162Y-77090586D01*
X185998544Y-77063075D01*
X186067822Y-76959392D01*
X186179392Y-76847822D01*
X186310584Y-76760163D01*
X186326752Y-76753466D01*
X186456358Y-76699781D01*
X186611107Y-76669000D01*
X186768893Y-76669000D01*
X186923642Y-76699781D01*
X186923642Y-76699781D01*
G37*
G36*
X174689674Y-76723465D02*
G01*
X174727367Y-76734899D01*
X174762103Y-76753466D01*
X174792548Y-76778452D01*
X174817534Y-76808897D01*
X174836101Y-76843633D01*
X174847535Y-76881326D01*
X174852000Y-76926661D01*
X174852000Y-78013339D01*
X174847535Y-78058674D01*
X174836101Y-78096367D01*
X174817534Y-78131103D01*
X174792548Y-78161548D01*
X174762103Y-78186534D01*
X174727367Y-78205101D01*
X174689674Y-78216535D01*
X174644339Y-78221000D01*
X173807661Y-78221000D01*
X173762326Y-78216535D01*
X173724633Y-78205101D01*
X173689897Y-78186534D01*
X173659452Y-78161548D01*
X173634466Y-78131103D01*
X173615899Y-78096367D01*
X173604465Y-78058674D01*
X173600000Y-78013339D01*
X173600000Y-76926661D01*
X173604465Y-76881326D01*
X173615899Y-76843633D01*
X173634466Y-76808897D01*
X173659452Y-76778452D01*
X173689897Y-76753466D01*
X173724633Y-76734899D01*
X173762326Y-76723465D01*
X173807661Y-76719000D01*
X174644339Y-76719000D01*
X174689674Y-76723465D01*
X174689674Y-76723465D01*
G37*
G36*
X176739674Y-76723465D02*
G01*
X176777367Y-76734899D01*
X176812103Y-76753466D01*
X176842548Y-76778452D01*
X176867534Y-76808897D01*
X176886101Y-76843633D01*
X176897535Y-76881326D01*
X176902000Y-76926661D01*
X176902000Y-78013339D01*
X176897535Y-78058674D01*
X176886101Y-78096367D01*
X176867534Y-78131103D01*
X176842548Y-78161548D01*
X176812103Y-78186534D01*
X176777367Y-78205101D01*
X176739674Y-78216535D01*
X176694339Y-78221000D01*
X175857661Y-78221000D01*
X175812326Y-78216535D01*
X175774633Y-78205101D01*
X175739897Y-78186534D01*
X175709452Y-78161548D01*
X175684466Y-78131103D01*
X175665899Y-78096367D01*
X175654465Y-78058674D01*
X175650000Y-78013339D01*
X175650000Y-76926661D01*
X175654465Y-76881326D01*
X175665899Y-76843633D01*
X175684466Y-76808897D01*
X175709452Y-76778452D01*
X175739897Y-76753466D01*
X175774633Y-76734899D01*
X175812326Y-76723465D01*
X175857661Y-76719000D01*
X176694339Y-76719000D01*
X176739674Y-76723465D01*
X176739674Y-76723465D01*
G37*
G36*
X179404674Y-76848465D02*
G01*
X179442367Y-76859899D01*
X179477103Y-76878466D01*
X179507548Y-76903452D01*
X179532534Y-76933897D01*
X179551101Y-76968633D01*
X179562535Y-77006326D01*
X179567000Y-77051661D01*
X179567000Y-77888339D01*
X179562535Y-77933674D01*
X179551101Y-77971367D01*
X179532534Y-78006103D01*
X179507548Y-78036548D01*
X179477103Y-78061534D01*
X179442367Y-78080101D01*
X179404674Y-78091535D01*
X179359339Y-78096000D01*
X178272661Y-78096000D01*
X178227326Y-78091535D01*
X178189633Y-78080101D01*
X178154897Y-78061534D01*
X178124452Y-78036548D01*
X178099466Y-78006103D01*
X178080899Y-77971367D01*
X178069465Y-77933674D01*
X178065000Y-77888339D01*
X178065000Y-77051661D01*
X178069465Y-77006326D01*
X178080899Y-76968633D01*
X178099466Y-76933897D01*
X178124452Y-76903452D01*
X178154897Y-76878466D01*
X178189633Y-76859899D01*
X178227326Y-76848465D01*
X178272661Y-76844000D01*
X179359339Y-76844000D01*
X179404674Y-76848465D01*
X179404674Y-76848465D01*
G37*
G36*
X154071642Y-76191781D02*
G01*
X154201248Y-76245466D01*
X154217416Y-76252163D01*
X154348608Y-76339822D01*
X154460178Y-76451392D01*
X154545719Y-76579414D01*
X154547838Y-76582586D01*
X154608219Y-76728358D01*
X154639000Y-76883107D01*
X154639000Y-77040893D01*
X154608219Y-77195642D01*
X154565892Y-77297827D01*
X154547837Y-77341416D01*
X154460178Y-77472608D01*
X154348608Y-77584178D01*
X154217416Y-77671837D01*
X154217415Y-77671838D01*
X154217414Y-77671838D01*
X154071642Y-77732219D01*
X153916893Y-77763000D01*
X153759107Y-77763000D01*
X153604358Y-77732219D01*
X153458586Y-77671838D01*
X153458585Y-77671838D01*
X153458584Y-77671837D01*
X153327392Y-77584178D01*
X153215822Y-77472608D01*
X153128163Y-77341416D01*
X153110108Y-77297827D01*
X153067781Y-77195642D01*
X153037000Y-77040893D01*
X153037000Y-76883107D01*
X153067781Y-76728358D01*
X153128162Y-76582586D01*
X153130281Y-76579414D01*
X153215822Y-76451392D01*
X153327392Y-76339822D01*
X153458584Y-76252163D01*
X153474752Y-76245466D01*
X153604358Y-76191781D01*
X153759107Y-76161000D01*
X153916893Y-76161000D01*
X154071642Y-76191781D01*
X154071642Y-76191781D01*
G37*
G36*
X159231674Y-76215465D02*
G01*
X159269367Y-76226899D01*
X159304103Y-76245466D01*
X159334548Y-76270452D01*
X159359534Y-76300897D01*
X159378101Y-76335633D01*
X159389535Y-76373326D01*
X159394000Y-76418661D01*
X159394000Y-77505339D01*
X159389535Y-77550674D01*
X159378101Y-77588367D01*
X159359534Y-77623103D01*
X159334548Y-77653548D01*
X159304103Y-77678534D01*
X159269367Y-77697101D01*
X159231674Y-77708535D01*
X159186339Y-77713000D01*
X158349661Y-77713000D01*
X158304326Y-77708535D01*
X158266633Y-77697101D01*
X158231897Y-77678534D01*
X158201452Y-77653548D01*
X158176466Y-77623103D01*
X158157899Y-77588367D01*
X158146465Y-77550674D01*
X158142000Y-77505339D01*
X158142000Y-76418661D01*
X158146465Y-76373326D01*
X158157899Y-76335633D01*
X158176466Y-76300897D01*
X158201452Y-76270452D01*
X158231897Y-76245466D01*
X158266633Y-76226899D01*
X158304326Y-76215465D01*
X158349661Y-76211000D01*
X159186339Y-76211000D01*
X159231674Y-76215465D01*
X159231674Y-76215465D01*
G37*
G36*
X157181674Y-76215465D02*
G01*
X157219367Y-76226899D01*
X157254103Y-76245466D01*
X157284548Y-76270452D01*
X157309534Y-76300897D01*
X157328101Y-76335633D01*
X157339535Y-76373326D01*
X157344000Y-76418661D01*
X157344000Y-77505339D01*
X157339535Y-77550674D01*
X157328101Y-77588367D01*
X157309534Y-77623103D01*
X157284548Y-77653548D01*
X157254103Y-77678534D01*
X157219367Y-77697101D01*
X157181674Y-77708535D01*
X157136339Y-77713000D01*
X156299661Y-77713000D01*
X156254326Y-77708535D01*
X156216633Y-77697101D01*
X156181897Y-77678534D01*
X156151452Y-77653548D01*
X156126466Y-77623103D01*
X156107899Y-77588367D01*
X156096465Y-77550674D01*
X156092000Y-77505339D01*
X156092000Y-76418661D01*
X156096465Y-76373326D01*
X156107899Y-76335633D01*
X156126466Y-76300897D01*
X156151452Y-76270452D01*
X156181897Y-76245466D01*
X156216633Y-76226899D01*
X156254326Y-76215465D01*
X156299661Y-76211000D01*
X157136339Y-76211000D01*
X157181674Y-76215465D01*
X157181674Y-76215465D01*
G37*
G36*
X164164674Y-76331465D02*
G01*
X164202367Y-76342899D01*
X164237103Y-76361466D01*
X164267548Y-76386452D01*
X164292534Y-76416897D01*
X164311101Y-76451633D01*
X164322535Y-76489326D01*
X164327000Y-76534661D01*
X164327000Y-77371339D01*
X164322535Y-77416674D01*
X164311101Y-77454367D01*
X164292534Y-77489103D01*
X164267548Y-77519548D01*
X164237103Y-77544534D01*
X164202367Y-77563101D01*
X164164674Y-77574535D01*
X164119339Y-77579000D01*
X163032661Y-77579000D01*
X162987326Y-77574535D01*
X162949633Y-77563101D01*
X162914897Y-77544534D01*
X162884452Y-77519548D01*
X162859466Y-77489103D01*
X162840899Y-77454367D01*
X162829465Y-77416674D01*
X162825000Y-77371339D01*
X162825000Y-76534661D01*
X162829465Y-76489326D01*
X162840899Y-76451633D01*
X162859466Y-76416897D01*
X162884452Y-76386452D01*
X162914897Y-76361466D01*
X162949633Y-76342899D01*
X162987326Y-76331465D01*
X163032661Y-76327000D01*
X164119339Y-76327000D01*
X164164674Y-76331465D01*
X164164674Y-76331465D01*
G37*
G36*
X161878674Y-76322465D02*
G01*
X161916367Y-76333899D01*
X161951103Y-76352466D01*
X161981548Y-76377452D01*
X162006534Y-76407897D01*
X162025101Y-76442633D01*
X162036535Y-76480326D01*
X162041000Y-76525661D01*
X162041000Y-77362339D01*
X162036535Y-77407674D01*
X162025101Y-77445367D01*
X162006534Y-77480103D01*
X161981548Y-77510548D01*
X161951103Y-77535534D01*
X161916367Y-77554101D01*
X161878674Y-77565535D01*
X161833339Y-77570000D01*
X160746661Y-77570000D01*
X160701326Y-77565535D01*
X160663633Y-77554101D01*
X160628897Y-77535534D01*
X160598452Y-77510548D01*
X160573466Y-77480103D01*
X160554899Y-77445367D01*
X160543465Y-77407674D01*
X160539000Y-77362339D01*
X160539000Y-76525661D01*
X160543465Y-76480326D01*
X160554899Y-76442633D01*
X160573466Y-76407897D01*
X160598452Y-76377452D01*
X160628897Y-76352466D01*
X160663633Y-76333899D01*
X160701326Y-76322465D01*
X160746661Y-76318000D01*
X161833339Y-76318000D01*
X161878674Y-76322465D01*
X161878674Y-76322465D01*
G37*
G36*
X189463642Y-75429781D02*
G01*
X189609414Y-75490162D01*
X189609416Y-75490163D01*
X189740608Y-75577822D01*
X189852178Y-75689392D01*
X189859412Y-75700219D01*
X189939838Y-75820586D01*
X190000219Y-75966358D01*
X190031000Y-76121107D01*
X190031000Y-76278893D01*
X190000219Y-76433642D01*
X189939838Y-76579414D01*
X189939837Y-76579416D01*
X189852178Y-76710608D01*
X189740608Y-76822178D01*
X189609416Y-76909837D01*
X189609415Y-76909838D01*
X189609414Y-76909838D01*
X189463642Y-76970219D01*
X189308893Y-77001000D01*
X189151107Y-77001000D01*
X188996358Y-76970219D01*
X188850586Y-76909838D01*
X188850585Y-76909838D01*
X188850584Y-76909837D01*
X188719392Y-76822178D01*
X188607822Y-76710608D01*
X188520163Y-76579416D01*
X188520162Y-76579414D01*
X188459781Y-76433642D01*
X188429000Y-76278893D01*
X188429000Y-76121107D01*
X188459781Y-75966358D01*
X188520162Y-75820586D01*
X188600588Y-75700219D01*
X188607822Y-75689392D01*
X188719392Y-75577822D01*
X188850584Y-75490163D01*
X188850586Y-75490162D01*
X188996358Y-75429781D01*
X189151107Y-75399000D01*
X189308893Y-75399000D01*
X189463642Y-75429781D01*
X189463642Y-75429781D01*
G37*
G36*
X179404674Y-74798465D02*
G01*
X179442367Y-74809899D01*
X179477103Y-74828466D01*
X179507548Y-74853452D01*
X179532534Y-74883897D01*
X179551101Y-74918633D01*
X179562535Y-74956326D01*
X179567000Y-75001661D01*
X179567000Y-75838339D01*
X179562535Y-75883674D01*
X179551101Y-75921367D01*
X179532534Y-75956103D01*
X179507548Y-75986548D01*
X179477103Y-76011534D01*
X179442367Y-76030101D01*
X179404674Y-76041535D01*
X179359339Y-76046000D01*
X178272661Y-76046000D01*
X178227326Y-76041535D01*
X178189633Y-76030101D01*
X178154897Y-76011534D01*
X178124452Y-75986548D01*
X178099466Y-75956103D01*
X178080899Y-75921367D01*
X178069465Y-75883674D01*
X178065000Y-75838339D01*
X178065000Y-75001661D01*
X178069465Y-74956326D01*
X178080899Y-74918633D01*
X178099466Y-74883897D01*
X178124452Y-74853452D01*
X178154897Y-74828466D01*
X178189633Y-74809899D01*
X178227326Y-74798465D01*
X178272661Y-74794000D01*
X179359339Y-74794000D01*
X179404674Y-74798465D01*
X179404674Y-74798465D01*
G37*
G36*
X186923642Y-74159781D02*
G01*
X187069414Y-74220162D01*
X187069416Y-74220163D01*
X187200608Y-74307822D01*
X187312178Y-74419392D01*
X187399837Y-74550584D01*
X187399838Y-74550586D01*
X187460219Y-74696358D01*
X187491000Y-74851107D01*
X187491000Y-75008893D01*
X187460219Y-75163642D01*
X187399838Y-75309414D01*
X187399837Y-75309416D01*
X187312178Y-75440608D01*
X187200608Y-75552178D01*
X187069416Y-75639837D01*
X187069415Y-75639838D01*
X187069414Y-75639838D01*
X186923642Y-75700219D01*
X186768893Y-75731000D01*
X186611107Y-75731000D01*
X186456358Y-75700219D01*
X186310586Y-75639838D01*
X186310585Y-75639838D01*
X186310584Y-75639837D01*
X186179392Y-75552178D01*
X186067822Y-75440608D01*
X185980163Y-75309416D01*
X185980162Y-75309414D01*
X185919781Y-75163642D01*
X185889000Y-75008893D01*
X185889000Y-74851107D01*
X185919781Y-74696358D01*
X185980162Y-74550586D01*
X185980163Y-74550584D01*
X186067822Y-74419392D01*
X186179392Y-74307822D01*
X186310584Y-74220163D01*
X186310586Y-74220162D01*
X186456358Y-74159781D01*
X186611107Y-74129000D01*
X186768893Y-74129000D01*
X186923642Y-74159781D01*
X186923642Y-74159781D01*
G37*
G36*
X195955256Y-72051298D02*
G01*
X196061579Y-72072447D01*
X196362042Y-72196903D01*
X196632451Y-72377585D01*
X196862415Y-72607549D01*
X197043097Y-72877958D01*
X197167553Y-73178421D01*
X197168047Y-73180907D01*
X197231000Y-73497389D01*
X197231000Y-73822611D01*
X197188702Y-74035256D01*
X197167553Y-74141579D01*
X197043097Y-74442042D01*
X196862415Y-74712451D01*
X196632451Y-74942415D01*
X196362042Y-75123097D01*
X196362041Y-75123098D01*
X196362040Y-75123098D01*
X196324774Y-75138534D01*
X196061579Y-75247553D01*
X195955256Y-75268702D01*
X195742611Y-75311000D01*
X195417389Y-75311000D01*
X195204744Y-75268702D01*
X195098421Y-75247553D01*
X194835226Y-75138534D01*
X194797960Y-75123098D01*
X194797959Y-75123098D01*
X194797958Y-75123097D01*
X194527549Y-74942415D01*
X194297585Y-74712451D01*
X194116903Y-74442042D01*
X193992447Y-74141579D01*
X193971298Y-74035256D01*
X193929000Y-73822611D01*
X193929000Y-73497389D01*
X193991953Y-73180907D01*
X193992447Y-73178421D01*
X194116903Y-72877958D01*
X194297585Y-72607549D01*
X194527549Y-72377585D01*
X194797958Y-72196903D01*
X195098421Y-72072447D01*
X195204744Y-72051298D01*
X195417389Y-72009000D01*
X195742611Y-72009000D01*
X195955256Y-72051298D01*
X195955256Y-72051298D01*
G37*
G36*
X154121642Y-73651781D02*
G01*
X154251248Y-73705466D01*
X154267416Y-73712163D01*
X154398608Y-73799822D01*
X154510178Y-73911392D01*
X154531413Y-73943173D01*
X154597838Y-74042586D01*
X154658219Y-74188358D01*
X154689000Y-74343107D01*
X154689000Y-74500893D01*
X154658219Y-74655642D01*
X154597838Y-74801414D01*
X154597837Y-74801416D01*
X154510178Y-74932608D01*
X154398608Y-75044178D01*
X154267416Y-75131837D01*
X154267415Y-75131838D01*
X154267414Y-75131838D01*
X154121642Y-75192219D01*
X153966893Y-75223000D01*
X153809107Y-75223000D01*
X153654358Y-75192219D01*
X153508586Y-75131838D01*
X153508585Y-75131838D01*
X153508584Y-75131837D01*
X153377392Y-75044178D01*
X153265822Y-74932608D01*
X153178163Y-74801416D01*
X153178162Y-74801414D01*
X153117781Y-74655642D01*
X153087000Y-74500893D01*
X153087000Y-74343107D01*
X153117781Y-74188358D01*
X153178162Y-74042586D01*
X153244587Y-73943173D01*
X153265822Y-73911392D01*
X153377392Y-73799822D01*
X153508584Y-73712163D01*
X153524752Y-73705466D01*
X153654358Y-73651781D01*
X153809107Y-73621000D01*
X153966893Y-73621000D01*
X154121642Y-73651781D01*
X154121642Y-73651781D01*
G37*
G36*
X159222674Y-73675465D02*
G01*
X159260367Y-73686899D01*
X159295103Y-73705466D01*
X159325548Y-73730452D01*
X159350534Y-73760897D01*
X159369101Y-73795633D01*
X159380535Y-73833326D01*
X159385000Y-73878661D01*
X159385000Y-74965339D01*
X159380535Y-75010674D01*
X159369101Y-75048367D01*
X159350534Y-75083103D01*
X159325548Y-75113548D01*
X159295103Y-75138534D01*
X159260367Y-75157101D01*
X159222674Y-75168535D01*
X159177339Y-75173000D01*
X158340661Y-75173000D01*
X158295326Y-75168535D01*
X158257633Y-75157101D01*
X158222897Y-75138534D01*
X158192452Y-75113548D01*
X158167466Y-75083103D01*
X158148899Y-75048367D01*
X158137465Y-75010674D01*
X158133000Y-74965339D01*
X158133000Y-73878661D01*
X158137465Y-73833326D01*
X158148899Y-73795633D01*
X158167466Y-73760897D01*
X158192452Y-73730452D01*
X158222897Y-73705466D01*
X158257633Y-73686899D01*
X158295326Y-73675465D01*
X158340661Y-73671000D01*
X159177339Y-73671000D01*
X159222674Y-73675465D01*
X159222674Y-73675465D01*
G37*
G36*
X157172674Y-73675465D02*
G01*
X157210367Y-73686899D01*
X157245103Y-73705466D01*
X157275548Y-73730452D01*
X157300534Y-73760897D01*
X157319101Y-73795633D01*
X157330535Y-73833326D01*
X157335000Y-73878661D01*
X157335000Y-74965339D01*
X157330535Y-75010674D01*
X157319101Y-75048367D01*
X157300534Y-75083103D01*
X157275548Y-75113548D01*
X157245103Y-75138534D01*
X157210367Y-75157101D01*
X157172674Y-75168535D01*
X157127339Y-75173000D01*
X156290661Y-75173000D01*
X156245326Y-75168535D01*
X156207633Y-75157101D01*
X156172897Y-75138534D01*
X156142452Y-75113548D01*
X156117466Y-75083103D01*
X156098899Y-75048367D01*
X156087465Y-75010674D01*
X156083000Y-74965339D01*
X156083000Y-73878661D01*
X156087465Y-73833326D01*
X156098899Y-73795633D01*
X156117466Y-73760897D01*
X156142452Y-73730452D01*
X156172897Y-73705466D01*
X156207633Y-73686899D01*
X156245326Y-73675465D01*
X156290661Y-73671000D01*
X157127339Y-73671000D01*
X157172674Y-73675465D01*
X157172674Y-73675465D01*
G37*
G36*
X161527000Y-75003000D02*
G01*
X160125000Y-75003000D01*
X160125000Y-73601000D01*
X161527000Y-73601000D01*
X161527000Y-75003000D01*
X161527000Y-75003000D01*
G37*
G36*
X163256999Y-73113737D02*
G01*
X163266608Y-73116652D01*
X163275472Y-73121390D01*
X163283237Y-73127763D01*
X163293884Y-73140737D01*
X163300053Y-73149968D01*
X163317381Y-73167294D01*
X163337756Y-73180907D01*
X163360395Y-73190283D01*
X163384428Y-73195063D01*
X163408932Y-73195062D01*
X163432965Y-73190280D01*
X163455604Y-73180902D01*
X163475978Y-73167287D01*
X163493304Y-73149959D01*
X163500175Y-73140683D01*
X163510726Y-73127800D01*
X163512103Y-73126668D01*
X163518484Y-73121419D01*
X163527339Y-73116674D01*
X163530377Y-73115749D01*
X163536915Y-73113758D01*
X163536918Y-73113758D01*
X163536950Y-73113748D01*
X163547000Y-73112753D01*
X163547065Y-73112753D01*
X163553175Y-73112148D01*
X164540860Y-73112148D01*
X164556999Y-73113737D01*
X164566608Y-73116652D01*
X164575472Y-73121390D01*
X164583237Y-73127763D01*
X164589610Y-73135528D01*
X164594348Y-73144392D01*
X164597263Y-73154001D01*
X164598852Y-73170140D01*
X164598852Y-74657860D01*
X164597263Y-74673999D01*
X164594348Y-74683608D01*
X164589610Y-74692472D01*
X164583237Y-74700237D01*
X164575472Y-74706610D01*
X164566608Y-74711348D01*
X164556999Y-74714263D01*
X164540860Y-74715852D01*
X163553140Y-74715852D01*
X163537001Y-74714263D01*
X163527392Y-74711348D01*
X163518528Y-74706610D01*
X163510788Y-74700258D01*
X163510787Y-74700257D01*
X163510763Y-74700237D01*
X163504360Y-74692427D01*
X163504323Y-74692372D01*
X163496520Y-74682853D01*
X163496489Y-74682878D01*
X163485147Y-74669028D01*
X163466221Y-74653463D01*
X163444623Y-74641889D01*
X163421181Y-74634751D01*
X163396798Y-74632324D01*
X163372409Y-74634700D01*
X163348953Y-74641789D01*
X163327330Y-74653318D01*
X163308372Y-74668843D01*
X163292807Y-74687769D01*
X163290971Y-74690825D01*
X163289582Y-74692514D01*
X163289581Y-74692516D01*
X163286421Y-74696358D01*
X163283200Y-74700274D01*
X163275425Y-74706642D01*
X163269517Y-74709791D01*
X163266562Y-74711367D01*
X163256981Y-74714262D01*
X163256915Y-74714282D01*
X163240887Y-74715852D01*
X162103140Y-74715852D01*
X162087001Y-74714263D01*
X162077392Y-74711348D01*
X162068528Y-74706610D01*
X162060763Y-74700237D01*
X162054390Y-74692472D01*
X162049652Y-74683608D01*
X162046737Y-74673999D01*
X162045148Y-74657860D01*
X162045148Y-73170140D01*
X162046737Y-73154001D01*
X162049652Y-73144392D01*
X162054390Y-73135528D01*
X162060763Y-73127763D01*
X162068528Y-73121390D01*
X162077392Y-73116652D01*
X162087001Y-73113737D01*
X162103140Y-73112148D01*
X163240860Y-73112148D01*
X163256999Y-73113737D01*
X163256999Y-73113737D01*
G37*
G36*
X167377000Y-73853000D02*
G01*
X165275000Y-73853000D01*
X165275000Y-72451000D01*
X167377000Y-72451000D01*
X167377000Y-73853000D01*
X167377000Y-73853000D01*
G37*
G36*
X161527000Y-72703000D02*
G01*
X160125000Y-72703000D01*
X160125000Y-71301000D01*
X161527000Y-71301000D01*
X161527000Y-72703000D01*
X161527000Y-72703000D01*
G37*
G36*
X131800256Y-69441298D02*
G01*
X131906579Y-69462447D01*
X132207042Y-69586903D01*
X132477451Y-69767585D01*
X132707415Y-69997549D01*
X132888097Y-70267958D01*
X133012553Y-70568421D01*
X133076000Y-70887391D01*
X133076000Y-71212609D01*
X133012553Y-71531579D01*
X132888097Y-71832042D01*
X132707415Y-72102451D01*
X132477451Y-72332415D01*
X132207042Y-72513097D01*
X131906579Y-72637553D01*
X131800256Y-72658702D01*
X131587611Y-72701000D01*
X131262389Y-72701000D01*
X131049744Y-72658702D01*
X130943421Y-72637553D01*
X130642958Y-72513097D01*
X130372549Y-72332415D01*
X130142585Y-72102451D01*
X129961903Y-71832042D01*
X129837447Y-71531579D01*
X129774000Y-71212609D01*
X129774000Y-70887391D01*
X129837447Y-70568421D01*
X129961903Y-70267958D01*
X130142585Y-69997549D01*
X130372549Y-69767585D01*
X130642958Y-69586903D01*
X130943421Y-69462447D01*
X131049744Y-69441298D01*
X131262389Y-69399000D01*
X131587611Y-69399000D01*
X131800256Y-69441298D01*
X131800256Y-69441298D01*
G37*
G36*
X171800256Y-69441298D02*
G01*
X171906579Y-69462447D01*
X172207042Y-69586903D01*
X172477451Y-69767585D01*
X172707415Y-69997549D01*
X172888097Y-70267958D01*
X173012553Y-70568421D01*
X173076000Y-70887391D01*
X173076000Y-71212609D01*
X173012553Y-71531579D01*
X172888097Y-71832042D01*
X172707415Y-72102451D01*
X172477451Y-72332415D01*
X172207042Y-72513097D01*
X171906579Y-72637553D01*
X171800256Y-72658702D01*
X171587611Y-72701000D01*
X171262389Y-72701000D01*
X171049744Y-72658702D01*
X170943421Y-72637553D01*
X170642958Y-72513097D01*
X170372549Y-72332415D01*
X170142585Y-72102451D01*
X169961903Y-71832042D01*
X169837447Y-71531579D01*
X169774000Y-71212609D01*
X169774000Y-70887391D01*
X169837447Y-70568421D01*
X169961903Y-70267958D01*
X170142585Y-69997549D01*
X170372549Y-69767585D01*
X170642958Y-69586903D01*
X170943421Y-69462447D01*
X171049744Y-69441298D01*
X171262389Y-69399000D01*
X171587611Y-69399000D01*
X171800256Y-69441298D01*
X171800256Y-69441298D01*
G37*
G36*
X142151000Y-69701000D02*
G01*
X138049000Y-69701000D01*
X138049000Y-65599000D01*
X142151000Y-65599000D01*
X142151000Y-69701000D01*
X142151000Y-69701000D01*
G37*
M02*
