G04 #@! TF.GenerationSoftware,KiCad,Pcbnew,5.1.4+dfsg1-1*
G04 #@! TF.CreationDate,2019-10-06T21:28:02+02:00*
G04 #@! TF.ProjectId,bt-trx-dev-board,62742d74-7278-42d6-9465-762d626f6172,4.1*
G04 #@! TF.SameCoordinates,Original*
G04 #@! TF.FileFunction,Soldermask,Top*
G04 #@! TF.FilePolarity,Negative*
%FSLAX46Y46*%
G04 Gerber Fmt 4.6, Leading zero omitted, Abs format (unit mm)*
G04 Created by KiCad (PCBNEW 5.1.4+dfsg1-1) date 2019-10-06 21:28:02*
%MOMM*%
%LPD*%
G04 APERTURE LIST*
%ADD10C,0.100000*%
G04 APERTURE END LIST*
D10*
X196238500Y-93691000D02*
G75*
G03X196238500Y-93691000I-444500J0D01*
G01*
X196238500Y-98191000D02*
G75*
G03X196238500Y-98191000I-444500J0D01*
G01*
X193929000Y-99441000D02*
G75*
G03X193929000Y-99441000I-635000J0D01*
G01*
X193929000Y-92441000D02*
G75*
G03X193929000Y-92441000I-635000J0D01*
G01*
G36*
X171756025Y-125932500D02*
G01*
X171906579Y-125962447D01*
X172119037Y-126050450D01*
X172131695Y-126055693D01*
X172207042Y-126086903D01*
X172477451Y-126267585D01*
X172707415Y-126497549D01*
X172888097Y-126767958D01*
X173012553Y-127068421D01*
X173076000Y-127387391D01*
X173076000Y-127712609D01*
X173012553Y-128031579D01*
X172888097Y-128332042D01*
X172707415Y-128602451D01*
X172477451Y-128832415D01*
X172207042Y-129013097D01*
X171906579Y-129137553D01*
X171800256Y-129158702D01*
X171587611Y-129201000D01*
X171262389Y-129201000D01*
X171049744Y-129158702D01*
X170943421Y-129137553D01*
X170642958Y-129013097D01*
X170372549Y-128832415D01*
X170142585Y-128602451D01*
X169961903Y-128332042D01*
X169837447Y-128031579D01*
X169774000Y-127712609D01*
X169774000Y-127387391D01*
X169837447Y-127068421D01*
X169961903Y-126767958D01*
X170142585Y-126497549D01*
X170372549Y-126267585D01*
X170642958Y-126086903D01*
X170718306Y-126055693D01*
X170730963Y-126050450D01*
X170943421Y-125962447D01*
X171093975Y-125932500D01*
X171262389Y-125899000D01*
X171587611Y-125899000D01*
X171756025Y-125932500D01*
X171756025Y-125932500D01*
G37*
G36*
X131756025Y-125932500D02*
G01*
X131906579Y-125962447D01*
X132119037Y-126050450D01*
X132131695Y-126055693D01*
X132207042Y-126086903D01*
X132477451Y-126267585D01*
X132707415Y-126497549D01*
X132888097Y-126767958D01*
X133012553Y-127068421D01*
X133076000Y-127387391D01*
X133076000Y-127712609D01*
X133012553Y-128031579D01*
X132888097Y-128332042D01*
X132707415Y-128602451D01*
X132477451Y-128832415D01*
X132207042Y-129013097D01*
X131906579Y-129137553D01*
X131800256Y-129158702D01*
X131587611Y-129201000D01*
X131262389Y-129201000D01*
X131049744Y-129158702D01*
X130943421Y-129137553D01*
X130642958Y-129013097D01*
X130372549Y-128832415D01*
X130142585Y-128602451D01*
X129961903Y-128332042D01*
X129837447Y-128031579D01*
X129774000Y-127712609D01*
X129774000Y-127387391D01*
X129837447Y-127068421D01*
X129961903Y-126767958D01*
X130142585Y-126497549D01*
X130372549Y-126267585D01*
X130642958Y-126086903D01*
X130718306Y-126055693D01*
X130730963Y-126050450D01*
X130943421Y-125962447D01*
X131093975Y-125932500D01*
X131262389Y-125899000D01*
X131587611Y-125899000D01*
X131756025Y-125932500D01*
X131756025Y-125932500D01*
G37*
G36*
X194636425Y-123752760D02*
G01*
X194636428Y-123752761D01*
X194636429Y-123752761D01*
X194815693Y-123807140D01*
X194815696Y-123807142D01*
X194815697Y-123807142D01*
X194980903Y-123895446D01*
X195125712Y-124014288D01*
X195244554Y-124159097D01*
X195332858Y-124324303D01*
X195332860Y-124324307D01*
X195387239Y-124503571D01*
X195387240Y-124503575D01*
X195401000Y-124643282D01*
X195401000Y-125736718D01*
X195387240Y-125876425D01*
X195387239Y-125876428D01*
X195387239Y-125876429D01*
X195332860Y-126055693D01*
X195332858Y-126055696D01*
X195332858Y-126055697D01*
X195244554Y-126220903D01*
X195125712Y-126365712D01*
X194980903Y-126484554D01*
X194815696Y-126572858D01*
X194815692Y-126572860D01*
X194636428Y-126627239D01*
X194636427Y-126627239D01*
X194636424Y-126627240D01*
X194450000Y-126645601D01*
X194263575Y-126627240D01*
X194263572Y-126627239D01*
X194263571Y-126627239D01*
X194084307Y-126572860D01*
X194084303Y-126572858D01*
X193919097Y-126484554D01*
X193774288Y-126365712D01*
X193655446Y-126220903D01*
X193567142Y-126055696D01*
X193567141Y-126055693D01*
X193567140Y-126055692D01*
X193512761Y-125876428D01*
X193512761Y-125876427D01*
X193512760Y-125876424D01*
X193499000Y-125736717D01*
X193499000Y-124643282D01*
X193512760Y-124503570D01*
X193567140Y-124324308D01*
X193655447Y-124159097D01*
X193774289Y-124014288D01*
X193919098Y-123895446D01*
X194084304Y-123807142D01*
X194084305Y-123807142D01*
X194084308Y-123807140D01*
X194263572Y-123752761D01*
X194263573Y-123752761D01*
X194263576Y-123752760D01*
X194450000Y-123734399D01*
X194636425Y-123752760D01*
X194636425Y-123752760D01*
G37*
G36*
X189136425Y-123752760D02*
G01*
X189136428Y-123752761D01*
X189136429Y-123752761D01*
X189315693Y-123807140D01*
X189315696Y-123807142D01*
X189315697Y-123807142D01*
X189480903Y-123895446D01*
X189625712Y-124014288D01*
X189744554Y-124159097D01*
X189832858Y-124324303D01*
X189832860Y-124324307D01*
X189887239Y-124503571D01*
X189887240Y-124503575D01*
X189901000Y-124643282D01*
X189901000Y-125736718D01*
X189887240Y-125876425D01*
X189887239Y-125876428D01*
X189887239Y-125876429D01*
X189832860Y-126055693D01*
X189832858Y-126055696D01*
X189832858Y-126055697D01*
X189744554Y-126220903D01*
X189625712Y-126365712D01*
X189480903Y-126484554D01*
X189315696Y-126572858D01*
X189315692Y-126572860D01*
X189136428Y-126627239D01*
X189136427Y-126627239D01*
X189136424Y-126627240D01*
X188950000Y-126645601D01*
X188763575Y-126627240D01*
X188763572Y-126627239D01*
X188763571Y-126627239D01*
X188584307Y-126572860D01*
X188584303Y-126572858D01*
X188419097Y-126484554D01*
X188274288Y-126365712D01*
X188155446Y-126220903D01*
X188067142Y-126055696D01*
X188067141Y-126055693D01*
X188067140Y-126055692D01*
X188012761Y-125876428D01*
X188012761Y-125876427D01*
X188012760Y-125876424D01*
X187999000Y-125736717D01*
X187999000Y-124643282D01*
X188012760Y-124503570D01*
X188067140Y-124324308D01*
X188155447Y-124159097D01*
X188274289Y-124014288D01*
X188419098Y-123895446D01*
X188584304Y-123807142D01*
X188584305Y-123807142D01*
X188584308Y-123807140D01*
X188763572Y-123752761D01*
X188763573Y-123752761D01*
X188763576Y-123752760D01*
X188950000Y-123734399D01*
X189136425Y-123752760D01*
X189136425Y-123752760D01*
G37*
G36*
X181847442Y-124137018D02*
G01*
X181913627Y-124143537D01*
X182083466Y-124195057D01*
X182239991Y-124278722D01*
X182275729Y-124308052D01*
X182377186Y-124391314D01*
X182453704Y-124484553D01*
X182489778Y-124528509D01*
X182573443Y-124685034D01*
X182624963Y-124854873D01*
X182642359Y-125031500D01*
X182624963Y-125208127D01*
X182573443Y-125377966D01*
X182489778Y-125534491D01*
X182460448Y-125570229D01*
X182377186Y-125671686D01*
X182297944Y-125736717D01*
X182239991Y-125784278D01*
X182083466Y-125867943D01*
X181913627Y-125919463D01*
X181847442Y-125925982D01*
X181781260Y-125932500D01*
X181692740Y-125932500D01*
X181626558Y-125925982D01*
X181560373Y-125919463D01*
X181390534Y-125867943D01*
X181234009Y-125784278D01*
X181176056Y-125736717D01*
X181096814Y-125671686D01*
X181013552Y-125570229D01*
X180984222Y-125534491D01*
X180900557Y-125377966D01*
X180849037Y-125208127D01*
X180831641Y-125031500D01*
X180849037Y-124854873D01*
X180900557Y-124685034D01*
X180984222Y-124528509D01*
X181020296Y-124484553D01*
X181096814Y-124391314D01*
X181198271Y-124308052D01*
X181234009Y-124278722D01*
X181390534Y-124195057D01*
X181560373Y-124143537D01*
X181626558Y-124137018D01*
X181692740Y-124130500D01*
X181781260Y-124130500D01*
X181847442Y-124137018D01*
X181847442Y-124137018D01*
G37*
G36*
X177177000Y-125869000D02*
G01*
X175375000Y-125869000D01*
X175375000Y-124067000D01*
X177177000Y-124067000D01*
X177177000Y-125869000D01*
X177177000Y-125869000D01*
G37*
G36*
X197036425Y-121752760D02*
G01*
X197036428Y-121752761D01*
X197036429Y-121752761D01*
X197215693Y-121807140D01*
X197215696Y-121807142D01*
X197215697Y-121807142D01*
X197380903Y-121895446D01*
X197525712Y-122014288D01*
X197644554Y-122159097D01*
X197732858Y-122324303D01*
X197732860Y-122324307D01*
X197787239Y-122503571D01*
X197787240Y-122503575D01*
X197801000Y-122643282D01*
X197801000Y-123736718D01*
X197787240Y-123876425D01*
X197787239Y-123876428D01*
X197787239Y-123876429D01*
X197732860Y-124055693D01*
X197732858Y-124055696D01*
X197732858Y-124055697D01*
X197644554Y-124220903D01*
X197525712Y-124365712D01*
X197380903Y-124484554D01*
X197215696Y-124572858D01*
X197215692Y-124572860D01*
X197036428Y-124627239D01*
X197036427Y-124627239D01*
X197036424Y-124627240D01*
X196850000Y-124645601D01*
X196663575Y-124627240D01*
X196663572Y-124627239D01*
X196663571Y-124627239D01*
X196484307Y-124572860D01*
X196484303Y-124572858D01*
X196319097Y-124484554D01*
X196174288Y-124365712D01*
X196055446Y-124220903D01*
X195967142Y-124055696D01*
X195967141Y-124055693D01*
X195967140Y-124055692D01*
X195912761Y-123876428D01*
X195912761Y-123876427D01*
X195912760Y-123876424D01*
X195899000Y-123736717D01*
X195899000Y-122643282D01*
X195912760Y-122503570D01*
X195967140Y-122324308D01*
X196055447Y-122159097D01*
X196174289Y-122014288D01*
X196319098Y-121895446D01*
X196484304Y-121807142D01*
X196484305Y-121807142D01*
X196484308Y-121807140D01*
X196663572Y-121752761D01*
X196663573Y-121752761D01*
X196663576Y-121752760D01*
X196850000Y-121734399D01*
X197036425Y-121752760D01*
X197036425Y-121752760D01*
G37*
G36*
X181847442Y-121597018D02*
G01*
X181913627Y-121603537D01*
X182083466Y-121655057D01*
X182239991Y-121738722D01*
X182257096Y-121752760D01*
X182377186Y-121851314D01*
X182460448Y-121952771D01*
X182489778Y-121988509D01*
X182573443Y-122145034D01*
X182624963Y-122314873D01*
X182642359Y-122491500D01*
X182624963Y-122668127D01*
X182573443Y-122837966D01*
X182489778Y-122994491D01*
X182460448Y-123030229D01*
X182377186Y-123131686D01*
X182275729Y-123214948D01*
X182239991Y-123244278D01*
X182083466Y-123327943D01*
X181913627Y-123379463D01*
X181847443Y-123385981D01*
X181781260Y-123392500D01*
X181692740Y-123392500D01*
X181626557Y-123385981D01*
X181560373Y-123379463D01*
X181390534Y-123327943D01*
X181234009Y-123244278D01*
X181198271Y-123214948D01*
X181096814Y-123131686D01*
X181013552Y-123030229D01*
X180984222Y-122994491D01*
X180900557Y-122837966D01*
X180849037Y-122668127D01*
X180831641Y-122491500D01*
X180849037Y-122314873D01*
X180900557Y-122145034D01*
X180984222Y-121988509D01*
X181013552Y-121952771D01*
X181096814Y-121851314D01*
X181216904Y-121752760D01*
X181234009Y-121738722D01*
X181390534Y-121655057D01*
X181560373Y-121603537D01*
X181626558Y-121597018D01*
X181692740Y-121590500D01*
X181781260Y-121590500D01*
X181847442Y-121597018D01*
X181847442Y-121597018D01*
G37*
G36*
X176386443Y-121533519D02*
G01*
X176452627Y-121540037D01*
X176622466Y-121591557D01*
X176778991Y-121675222D01*
X176814729Y-121704552D01*
X176916186Y-121787814D01*
X176999448Y-121889271D01*
X177028778Y-121925009D01*
X177112443Y-122081534D01*
X177163963Y-122251373D01*
X177181359Y-122428000D01*
X177163963Y-122604627D01*
X177112443Y-122774466D01*
X177028778Y-122930991D01*
X176999448Y-122966729D01*
X176916186Y-123068186D01*
X176814729Y-123151448D01*
X176778991Y-123180778D01*
X176622466Y-123264443D01*
X176452627Y-123315963D01*
X176386442Y-123322482D01*
X176320260Y-123329000D01*
X176231740Y-123329000D01*
X176165558Y-123322482D01*
X176099373Y-123315963D01*
X175929534Y-123264443D01*
X175773009Y-123180778D01*
X175737271Y-123151448D01*
X175635814Y-123068186D01*
X175552552Y-122966729D01*
X175523222Y-122930991D01*
X175439557Y-122774466D01*
X175388037Y-122604627D01*
X175370641Y-122428000D01*
X175388037Y-122251373D01*
X175439557Y-122081534D01*
X175523222Y-121925009D01*
X175552552Y-121889271D01*
X175635814Y-121787814D01*
X175737271Y-121704552D01*
X175773009Y-121675222D01*
X175929534Y-121591557D01*
X176099373Y-121540037D01*
X176165557Y-121533519D01*
X176231740Y-121527000D01*
X176320260Y-121527000D01*
X176386443Y-121533519D01*
X176386443Y-121533519D01*
G37*
G36*
X160970999Y-119722737D02*
G01*
X160980608Y-119725652D01*
X160989472Y-119730390D01*
X160997237Y-119736763D01*
X161007884Y-119749737D01*
X161014053Y-119758968D01*
X161031381Y-119776294D01*
X161051756Y-119789907D01*
X161074395Y-119799283D01*
X161098428Y-119804063D01*
X161122932Y-119804062D01*
X161146965Y-119799280D01*
X161169604Y-119789902D01*
X161189978Y-119776287D01*
X161207304Y-119758959D01*
X161214175Y-119749683D01*
X161224726Y-119736800D01*
X161226103Y-119735668D01*
X161232484Y-119730419D01*
X161241339Y-119725674D01*
X161244377Y-119724749D01*
X161250915Y-119722758D01*
X161250918Y-119722758D01*
X161250950Y-119722748D01*
X161261000Y-119721753D01*
X161261065Y-119721753D01*
X161267175Y-119721148D01*
X162254860Y-119721148D01*
X162270999Y-119722737D01*
X162280608Y-119725652D01*
X162289472Y-119730390D01*
X162297237Y-119736763D01*
X162303610Y-119744528D01*
X162308348Y-119753392D01*
X162311263Y-119763001D01*
X162312852Y-119779140D01*
X162312852Y-121266860D01*
X162311263Y-121282999D01*
X162308348Y-121292608D01*
X162303610Y-121301472D01*
X162297237Y-121309237D01*
X162289472Y-121315610D01*
X162280608Y-121320348D01*
X162270999Y-121323263D01*
X162254860Y-121324852D01*
X161267140Y-121324852D01*
X161251001Y-121323263D01*
X161241392Y-121320348D01*
X161232528Y-121315610D01*
X161224788Y-121309258D01*
X161224787Y-121309257D01*
X161224763Y-121309237D01*
X161218360Y-121301427D01*
X161218323Y-121301372D01*
X161210520Y-121291853D01*
X161210489Y-121291878D01*
X161199147Y-121278028D01*
X161180221Y-121262463D01*
X161158623Y-121250889D01*
X161135181Y-121243751D01*
X161110798Y-121241324D01*
X161086409Y-121243700D01*
X161062953Y-121250789D01*
X161041330Y-121262318D01*
X161022372Y-121277843D01*
X161006807Y-121296769D01*
X161004971Y-121299825D01*
X161003582Y-121301514D01*
X161003581Y-121301516D01*
X160998485Y-121307712D01*
X160997200Y-121309274D01*
X160989425Y-121315642D01*
X160983517Y-121318791D01*
X160980562Y-121320367D01*
X160970981Y-121323262D01*
X160970915Y-121323282D01*
X160954887Y-121324852D01*
X159817140Y-121324852D01*
X159801001Y-121323263D01*
X159791392Y-121320348D01*
X159782528Y-121315610D01*
X159774763Y-121309237D01*
X159768390Y-121301472D01*
X159763652Y-121292608D01*
X159760737Y-121282999D01*
X159759148Y-121266860D01*
X159759148Y-119779140D01*
X159760737Y-119763001D01*
X159763652Y-119753392D01*
X159768390Y-119744528D01*
X159774763Y-119736763D01*
X159782528Y-119730390D01*
X159791392Y-119725652D01*
X159801001Y-119722737D01*
X159817140Y-119721148D01*
X160954860Y-119721148D01*
X160970999Y-119722737D01*
X160970999Y-119722737D01*
G37*
G36*
X155276674Y-119776465D02*
G01*
X155314367Y-119787899D01*
X155349103Y-119806466D01*
X155379548Y-119831452D01*
X155404534Y-119861897D01*
X155423101Y-119896633D01*
X155434535Y-119934326D01*
X155439000Y-119979661D01*
X155439000Y-121066339D01*
X155434535Y-121111674D01*
X155423101Y-121149367D01*
X155404534Y-121184103D01*
X155379548Y-121214548D01*
X155349103Y-121239534D01*
X155314367Y-121258101D01*
X155276674Y-121269535D01*
X155231339Y-121274000D01*
X154394661Y-121274000D01*
X154349326Y-121269535D01*
X154311633Y-121258101D01*
X154276897Y-121239534D01*
X154246452Y-121214548D01*
X154221466Y-121184103D01*
X154202899Y-121149367D01*
X154191465Y-121111674D01*
X154187000Y-121066339D01*
X154187000Y-119979661D01*
X154191465Y-119934326D01*
X154202899Y-119896633D01*
X154221466Y-119861897D01*
X154246452Y-119831452D01*
X154276897Y-119806466D01*
X154311633Y-119787899D01*
X154349326Y-119776465D01*
X154394661Y-119772000D01*
X155231339Y-119772000D01*
X155276674Y-119776465D01*
X155276674Y-119776465D01*
G37*
G36*
X153226674Y-119776465D02*
G01*
X153264367Y-119787899D01*
X153299103Y-119806466D01*
X153329548Y-119831452D01*
X153354534Y-119861897D01*
X153373101Y-119896633D01*
X153384535Y-119934326D01*
X153389000Y-119979661D01*
X153389000Y-121066339D01*
X153384535Y-121111674D01*
X153373101Y-121149367D01*
X153354534Y-121184103D01*
X153329548Y-121214548D01*
X153299103Y-121239534D01*
X153264367Y-121258101D01*
X153226674Y-121269535D01*
X153181339Y-121274000D01*
X152344661Y-121274000D01*
X152299326Y-121269535D01*
X152261633Y-121258101D01*
X152226897Y-121239534D01*
X152196452Y-121214548D01*
X152171466Y-121184103D01*
X152152899Y-121149367D01*
X152141465Y-121111674D01*
X152137000Y-121066339D01*
X152137000Y-119979661D01*
X152141465Y-119934326D01*
X152152899Y-119896633D01*
X152171466Y-119861897D01*
X152196452Y-119831452D01*
X152226897Y-119806466D01*
X152261633Y-119787899D01*
X152299326Y-119776465D01*
X152344661Y-119772000D01*
X153181339Y-119772000D01*
X153226674Y-119776465D01*
X153226674Y-119776465D01*
G37*
G36*
X182638000Y-120852500D02*
G01*
X180836000Y-120852500D01*
X180836000Y-119050500D01*
X182638000Y-119050500D01*
X182638000Y-120852500D01*
X182638000Y-120852500D01*
G37*
G36*
X176386442Y-118993518D02*
G01*
X176452627Y-119000037D01*
X176622466Y-119051557D01*
X176778991Y-119135222D01*
X176803010Y-119154934D01*
X176916186Y-119247814D01*
X176999448Y-119349271D01*
X177028778Y-119385009D01*
X177112443Y-119541534D01*
X177163963Y-119711373D01*
X177181359Y-119888000D01*
X177163963Y-120064627D01*
X177112443Y-120234466D01*
X177028778Y-120390991D01*
X176999448Y-120426729D01*
X176916186Y-120528186D01*
X176814729Y-120611448D01*
X176778991Y-120640778D01*
X176622466Y-120724443D01*
X176452627Y-120775963D01*
X176386442Y-120782482D01*
X176320260Y-120789000D01*
X176231740Y-120789000D01*
X176165558Y-120782482D01*
X176099373Y-120775963D01*
X175929534Y-120724443D01*
X175773009Y-120640778D01*
X175737271Y-120611448D01*
X175635814Y-120528186D01*
X175552552Y-120426729D01*
X175523222Y-120390991D01*
X175439557Y-120234466D01*
X175388037Y-120064627D01*
X175370641Y-119888000D01*
X175388037Y-119711373D01*
X175439557Y-119541534D01*
X175523222Y-119385009D01*
X175552552Y-119349271D01*
X175635814Y-119247814D01*
X175748990Y-119154934D01*
X175773009Y-119135222D01*
X175929534Y-119051557D01*
X176099373Y-119000037D01*
X176165558Y-118993518D01*
X176231740Y-118987000D01*
X176320260Y-118987000D01*
X176386442Y-118993518D01*
X176386442Y-118993518D01*
G37*
G36*
X139885000Y-119284000D02*
G01*
X137483000Y-119284000D01*
X137483000Y-116682000D01*
X139885000Y-116682000D01*
X139885000Y-119284000D01*
X139885000Y-119284000D01*
G37*
G36*
X126191934Y-116685671D02*
G01*
X126221877Y-116694754D01*
X126249465Y-116709500D01*
X126273651Y-116729349D01*
X126293500Y-116753535D01*
X126308246Y-116781123D01*
X126317329Y-116811066D01*
X126321000Y-116848340D01*
X126321000Y-119117660D01*
X126317329Y-119154934D01*
X126308246Y-119184877D01*
X126293500Y-119212465D01*
X126273651Y-119236651D01*
X126249465Y-119256500D01*
X126221877Y-119271246D01*
X126191934Y-119280329D01*
X126154660Y-119284000D01*
X121985340Y-119284000D01*
X121948066Y-119280329D01*
X121918123Y-119271246D01*
X121890535Y-119256500D01*
X121866349Y-119236651D01*
X121846500Y-119212465D01*
X121831754Y-119184877D01*
X121822671Y-119154934D01*
X121819000Y-119117660D01*
X121819000Y-116848340D01*
X121822671Y-116811066D01*
X121831754Y-116781123D01*
X121846500Y-116753535D01*
X121866349Y-116729349D01*
X121890535Y-116709500D01*
X121918123Y-116694754D01*
X121948066Y-116685671D01*
X121985340Y-116682000D01*
X126154660Y-116682000D01*
X126191934Y-116685671D01*
X126191934Y-116685671D01*
G37*
G36*
X134591934Y-116685671D02*
G01*
X134621877Y-116694754D01*
X134649465Y-116709500D01*
X134673651Y-116729349D01*
X134693500Y-116753535D01*
X134708246Y-116781123D01*
X134717329Y-116811066D01*
X134721000Y-116848340D01*
X134721000Y-119117660D01*
X134717329Y-119154934D01*
X134708246Y-119184877D01*
X134693500Y-119212465D01*
X134673651Y-119236651D01*
X134649465Y-119256500D01*
X134621877Y-119271246D01*
X134591934Y-119280329D01*
X134554660Y-119284000D01*
X130385340Y-119284000D01*
X130348066Y-119280329D01*
X130318123Y-119271246D01*
X130290535Y-119256500D01*
X130266349Y-119236651D01*
X130246500Y-119212465D01*
X130231754Y-119184877D01*
X130222671Y-119154934D01*
X130219000Y-119117660D01*
X130219000Y-116848340D01*
X130222671Y-116811066D01*
X130231754Y-116781123D01*
X130246500Y-116753535D01*
X130266349Y-116729349D01*
X130290535Y-116709500D01*
X130318123Y-116694754D01*
X130348066Y-116685671D01*
X130385340Y-116682000D01*
X134554660Y-116682000D01*
X134591934Y-116685671D01*
X134591934Y-116685671D01*
G37*
G36*
X164326394Y-114770934D02*
G01*
X164477624Y-114833576D01*
X164477626Y-114833577D01*
X164613732Y-114924520D01*
X164729480Y-115040268D01*
X164820423Y-115176374D01*
X164820424Y-115176376D01*
X164883066Y-115327606D01*
X164915000Y-115488152D01*
X164915000Y-115651848D01*
X164883066Y-115812394D01*
X164820424Y-115963624D01*
X164820423Y-115963626D01*
X164729480Y-116099732D01*
X164613732Y-116215480D01*
X164477626Y-116306423D01*
X164477625Y-116306424D01*
X164477624Y-116306424D01*
X164326394Y-116369066D01*
X164165848Y-116401000D01*
X164002152Y-116401000D01*
X163841606Y-116369066D01*
X163690376Y-116306424D01*
X163690375Y-116306424D01*
X163690374Y-116306423D01*
X163554268Y-116215480D01*
X163438520Y-116099732D01*
X163347577Y-115963626D01*
X163347576Y-115963624D01*
X163284934Y-115812394D01*
X163253000Y-115651848D01*
X163253000Y-115488152D01*
X163284934Y-115327606D01*
X163347576Y-115176376D01*
X163347577Y-115176374D01*
X163438520Y-115040268D01*
X163554268Y-114924520D01*
X163690374Y-114833577D01*
X163690376Y-114833576D01*
X163841606Y-114770934D01*
X164002152Y-114739000D01*
X164165848Y-114739000D01*
X164326394Y-114770934D01*
X164326394Y-114770934D01*
G37*
G36*
X192266394Y-114770934D02*
G01*
X192417624Y-114833576D01*
X192417626Y-114833577D01*
X192553732Y-114924520D01*
X192669480Y-115040268D01*
X192760423Y-115176374D01*
X192760424Y-115176376D01*
X192823066Y-115327606D01*
X192855000Y-115488152D01*
X192855000Y-115651848D01*
X192823066Y-115812394D01*
X192760424Y-115963624D01*
X192760423Y-115963626D01*
X192669480Y-116099732D01*
X192553732Y-116215480D01*
X192417626Y-116306423D01*
X192417625Y-116306424D01*
X192417624Y-116306424D01*
X192266394Y-116369066D01*
X192105848Y-116401000D01*
X191942152Y-116401000D01*
X191781606Y-116369066D01*
X191630376Y-116306424D01*
X191630375Y-116306424D01*
X191630374Y-116306423D01*
X191494268Y-116215480D01*
X191378520Y-116099732D01*
X191287577Y-115963626D01*
X191287576Y-115963624D01*
X191224934Y-115812394D01*
X191193000Y-115651848D01*
X191193000Y-115488152D01*
X191224934Y-115327606D01*
X191287576Y-115176376D01*
X191287577Y-115176374D01*
X191378520Y-115040268D01*
X191494268Y-114924520D01*
X191630374Y-114833577D01*
X191630376Y-114833576D01*
X191781606Y-114770934D01*
X191942152Y-114739000D01*
X192105848Y-114739000D01*
X192266394Y-114770934D01*
X192266394Y-114770934D01*
G37*
G36*
X189726394Y-114770934D02*
G01*
X189877624Y-114833576D01*
X189877626Y-114833577D01*
X190013732Y-114924520D01*
X190129480Y-115040268D01*
X190220423Y-115176374D01*
X190220424Y-115176376D01*
X190283066Y-115327606D01*
X190315000Y-115488152D01*
X190315000Y-115651848D01*
X190283066Y-115812394D01*
X190220424Y-115963624D01*
X190220423Y-115963626D01*
X190129480Y-116099732D01*
X190013732Y-116215480D01*
X189877626Y-116306423D01*
X189877625Y-116306424D01*
X189877624Y-116306424D01*
X189726394Y-116369066D01*
X189565848Y-116401000D01*
X189402152Y-116401000D01*
X189241606Y-116369066D01*
X189090376Y-116306424D01*
X189090375Y-116306424D01*
X189090374Y-116306423D01*
X188954268Y-116215480D01*
X188838520Y-116099732D01*
X188747577Y-115963626D01*
X188747576Y-115963624D01*
X188684934Y-115812394D01*
X188653000Y-115651848D01*
X188653000Y-115488152D01*
X188684934Y-115327606D01*
X188747576Y-115176376D01*
X188747577Y-115176374D01*
X188838520Y-115040268D01*
X188954268Y-114924520D01*
X189090374Y-114833577D01*
X189090376Y-114833576D01*
X189241606Y-114770934D01*
X189402152Y-114739000D01*
X189565848Y-114739000D01*
X189726394Y-114770934D01*
X189726394Y-114770934D01*
G37*
G36*
X187186394Y-114770934D02*
G01*
X187337624Y-114833576D01*
X187337626Y-114833577D01*
X187473732Y-114924520D01*
X187589480Y-115040268D01*
X187680423Y-115176374D01*
X187680424Y-115176376D01*
X187743066Y-115327606D01*
X187775000Y-115488152D01*
X187775000Y-115651848D01*
X187743066Y-115812394D01*
X187680424Y-115963624D01*
X187680423Y-115963626D01*
X187589480Y-116099732D01*
X187473732Y-116215480D01*
X187337626Y-116306423D01*
X187337625Y-116306424D01*
X187337624Y-116306424D01*
X187186394Y-116369066D01*
X187025848Y-116401000D01*
X186862152Y-116401000D01*
X186701606Y-116369066D01*
X186550376Y-116306424D01*
X186550375Y-116306424D01*
X186550374Y-116306423D01*
X186414268Y-116215480D01*
X186298520Y-116099732D01*
X186207577Y-115963626D01*
X186207576Y-115963624D01*
X186144934Y-115812394D01*
X186113000Y-115651848D01*
X186113000Y-115488152D01*
X186144934Y-115327606D01*
X186207576Y-115176376D01*
X186207577Y-115176374D01*
X186298520Y-115040268D01*
X186414268Y-114924520D01*
X186550374Y-114833577D01*
X186550376Y-114833576D01*
X186701606Y-114770934D01*
X186862152Y-114739000D01*
X187025848Y-114739000D01*
X187186394Y-114770934D01*
X187186394Y-114770934D01*
G37*
G36*
X184646394Y-114770934D02*
G01*
X184797624Y-114833576D01*
X184797626Y-114833577D01*
X184933732Y-114924520D01*
X185049480Y-115040268D01*
X185140423Y-115176374D01*
X185140424Y-115176376D01*
X185203066Y-115327606D01*
X185235000Y-115488152D01*
X185235000Y-115651848D01*
X185203066Y-115812394D01*
X185140424Y-115963624D01*
X185140423Y-115963626D01*
X185049480Y-116099732D01*
X184933732Y-116215480D01*
X184797626Y-116306423D01*
X184797625Y-116306424D01*
X184797624Y-116306424D01*
X184646394Y-116369066D01*
X184485848Y-116401000D01*
X184322152Y-116401000D01*
X184161606Y-116369066D01*
X184010376Y-116306424D01*
X184010375Y-116306424D01*
X184010374Y-116306423D01*
X183874268Y-116215480D01*
X183758520Y-116099732D01*
X183667577Y-115963626D01*
X183667576Y-115963624D01*
X183604934Y-115812394D01*
X183573000Y-115651848D01*
X183573000Y-115488152D01*
X183604934Y-115327606D01*
X183667576Y-115176376D01*
X183667577Y-115176374D01*
X183758520Y-115040268D01*
X183874268Y-114924520D01*
X184010374Y-114833577D01*
X184010376Y-114833576D01*
X184161606Y-114770934D01*
X184322152Y-114739000D01*
X184485848Y-114739000D01*
X184646394Y-114770934D01*
X184646394Y-114770934D01*
G37*
G36*
X182106394Y-114770934D02*
G01*
X182257624Y-114833576D01*
X182257626Y-114833577D01*
X182393732Y-114924520D01*
X182509480Y-115040268D01*
X182600423Y-115176374D01*
X182600424Y-115176376D01*
X182663066Y-115327606D01*
X182695000Y-115488152D01*
X182695000Y-115651848D01*
X182663066Y-115812394D01*
X182600424Y-115963624D01*
X182600423Y-115963626D01*
X182509480Y-116099732D01*
X182393732Y-116215480D01*
X182257626Y-116306423D01*
X182257625Y-116306424D01*
X182257624Y-116306424D01*
X182106394Y-116369066D01*
X181945848Y-116401000D01*
X181782152Y-116401000D01*
X181621606Y-116369066D01*
X181470376Y-116306424D01*
X181470375Y-116306424D01*
X181470374Y-116306423D01*
X181334268Y-116215480D01*
X181218520Y-116099732D01*
X181127577Y-115963626D01*
X181127576Y-115963624D01*
X181064934Y-115812394D01*
X181033000Y-115651848D01*
X181033000Y-115488152D01*
X181064934Y-115327606D01*
X181127576Y-115176376D01*
X181127577Y-115176374D01*
X181218520Y-115040268D01*
X181334268Y-114924520D01*
X181470374Y-114833577D01*
X181470376Y-114833576D01*
X181621606Y-114770934D01*
X181782152Y-114739000D01*
X181945848Y-114739000D01*
X182106394Y-114770934D01*
X182106394Y-114770934D01*
G37*
G36*
X179566394Y-114770934D02*
G01*
X179717624Y-114833576D01*
X179717626Y-114833577D01*
X179853732Y-114924520D01*
X179969480Y-115040268D01*
X180060423Y-115176374D01*
X180060424Y-115176376D01*
X180123066Y-115327606D01*
X180155000Y-115488152D01*
X180155000Y-115651848D01*
X180123066Y-115812394D01*
X180060424Y-115963624D01*
X180060423Y-115963626D01*
X179969480Y-116099732D01*
X179853732Y-116215480D01*
X179717626Y-116306423D01*
X179717625Y-116306424D01*
X179717624Y-116306424D01*
X179566394Y-116369066D01*
X179405848Y-116401000D01*
X179242152Y-116401000D01*
X179081606Y-116369066D01*
X178930376Y-116306424D01*
X178930375Y-116306424D01*
X178930374Y-116306423D01*
X178794268Y-116215480D01*
X178678520Y-116099732D01*
X178587577Y-115963626D01*
X178587576Y-115963624D01*
X178524934Y-115812394D01*
X178493000Y-115651848D01*
X178493000Y-115488152D01*
X178524934Y-115327606D01*
X178587576Y-115176376D01*
X178587577Y-115176374D01*
X178678520Y-115040268D01*
X178794268Y-114924520D01*
X178930374Y-114833577D01*
X178930376Y-114833576D01*
X179081606Y-114770934D01*
X179242152Y-114739000D01*
X179405848Y-114739000D01*
X179566394Y-114770934D01*
X179566394Y-114770934D01*
G37*
G36*
X177026394Y-114770934D02*
G01*
X177177624Y-114833576D01*
X177177626Y-114833577D01*
X177313732Y-114924520D01*
X177429480Y-115040268D01*
X177520423Y-115176374D01*
X177520424Y-115176376D01*
X177583066Y-115327606D01*
X177615000Y-115488152D01*
X177615000Y-115651848D01*
X177583066Y-115812394D01*
X177520424Y-115963624D01*
X177520423Y-115963626D01*
X177429480Y-116099732D01*
X177313732Y-116215480D01*
X177177626Y-116306423D01*
X177177625Y-116306424D01*
X177177624Y-116306424D01*
X177026394Y-116369066D01*
X176865848Y-116401000D01*
X176702152Y-116401000D01*
X176541606Y-116369066D01*
X176390376Y-116306424D01*
X176390375Y-116306424D01*
X176390374Y-116306423D01*
X176254268Y-116215480D01*
X176138520Y-116099732D01*
X176047577Y-115963626D01*
X176047576Y-115963624D01*
X175984934Y-115812394D01*
X175953000Y-115651848D01*
X175953000Y-115488152D01*
X175984934Y-115327606D01*
X176047576Y-115176376D01*
X176047577Y-115176374D01*
X176138520Y-115040268D01*
X176254268Y-114924520D01*
X176390374Y-114833577D01*
X176390376Y-114833576D01*
X176541606Y-114770934D01*
X176702152Y-114739000D01*
X176865848Y-114739000D01*
X177026394Y-114770934D01*
X177026394Y-114770934D01*
G37*
G36*
X174486394Y-114770934D02*
G01*
X174637624Y-114833576D01*
X174637626Y-114833577D01*
X174773732Y-114924520D01*
X174889480Y-115040268D01*
X174980423Y-115176374D01*
X174980424Y-115176376D01*
X175043066Y-115327606D01*
X175075000Y-115488152D01*
X175075000Y-115651848D01*
X175043066Y-115812394D01*
X174980424Y-115963624D01*
X174980423Y-115963626D01*
X174889480Y-116099732D01*
X174773732Y-116215480D01*
X174637626Y-116306423D01*
X174637625Y-116306424D01*
X174637624Y-116306424D01*
X174486394Y-116369066D01*
X174325848Y-116401000D01*
X174162152Y-116401000D01*
X174001606Y-116369066D01*
X173850376Y-116306424D01*
X173850375Y-116306424D01*
X173850374Y-116306423D01*
X173714268Y-116215480D01*
X173598520Y-116099732D01*
X173507577Y-115963626D01*
X173507576Y-115963624D01*
X173444934Y-115812394D01*
X173413000Y-115651848D01*
X173413000Y-115488152D01*
X173444934Y-115327606D01*
X173507576Y-115176376D01*
X173507577Y-115176374D01*
X173598520Y-115040268D01*
X173714268Y-114924520D01*
X173850374Y-114833577D01*
X173850376Y-114833576D01*
X174001606Y-114770934D01*
X174162152Y-114739000D01*
X174325848Y-114739000D01*
X174486394Y-114770934D01*
X174486394Y-114770934D01*
G37*
G36*
X194806394Y-114770934D02*
G01*
X194957624Y-114833576D01*
X194957626Y-114833577D01*
X195093732Y-114924520D01*
X195209480Y-115040268D01*
X195300423Y-115176374D01*
X195300424Y-115176376D01*
X195363066Y-115327606D01*
X195395000Y-115488152D01*
X195395000Y-115651848D01*
X195363066Y-115812394D01*
X195300424Y-115963624D01*
X195300423Y-115963626D01*
X195209480Y-116099732D01*
X195093732Y-116215480D01*
X194957626Y-116306423D01*
X194957625Y-116306424D01*
X194957624Y-116306424D01*
X194806394Y-116369066D01*
X194645848Y-116401000D01*
X194482152Y-116401000D01*
X194321606Y-116369066D01*
X194170376Y-116306424D01*
X194170375Y-116306424D01*
X194170374Y-116306423D01*
X194034268Y-116215480D01*
X193918520Y-116099732D01*
X193827577Y-115963626D01*
X193827576Y-115963624D01*
X193764934Y-115812394D01*
X193733000Y-115651848D01*
X193733000Y-115488152D01*
X193764934Y-115327606D01*
X193827576Y-115176376D01*
X193827577Y-115176374D01*
X193918520Y-115040268D01*
X194034268Y-114924520D01*
X194170374Y-114833577D01*
X194170376Y-114833576D01*
X194321606Y-114770934D01*
X194482152Y-114739000D01*
X194645848Y-114739000D01*
X194806394Y-114770934D01*
X194806394Y-114770934D01*
G37*
G36*
X166866394Y-114770934D02*
G01*
X167017624Y-114833576D01*
X167017626Y-114833577D01*
X167153732Y-114924520D01*
X167269480Y-115040268D01*
X167360423Y-115176374D01*
X167360424Y-115176376D01*
X167423066Y-115327606D01*
X167455000Y-115488152D01*
X167455000Y-115651848D01*
X167423066Y-115812394D01*
X167360424Y-115963624D01*
X167360423Y-115963626D01*
X167269480Y-116099732D01*
X167153732Y-116215480D01*
X167017626Y-116306423D01*
X167017625Y-116306424D01*
X167017624Y-116306424D01*
X166866394Y-116369066D01*
X166705848Y-116401000D01*
X166542152Y-116401000D01*
X166381606Y-116369066D01*
X166230376Y-116306424D01*
X166230375Y-116306424D01*
X166230374Y-116306423D01*
X166094268Y-116215480D01*
X165978520Y-116099732D01*
X165887577Y-115963626D01*
X165887576Y-115963624D01*
X165824934Y-115812394D01*
X165793000Y-115651848D01*
X165793000Y-115488152D01*
X165824934Y-115327606D01*
X165887576Y-115176376D01*
X165887577Y-115176374D01*
X165978520Y-115040268D01*
X166094268Y-114924520D01*
X166230374Y-114833577D01*
X166230376Y-114833576D01*
X166381606Y-114770934D01*
X166542152Y-114739000D01*
X166705848Y-114739000D01*
X166866394Y-114770934D01*
X166866394Y-114770934D01*
G37*
G36*
X161786394Y-114770934D02*
G01*
X161937624Y-114833576D01*
X161937626Y-114833577D01*
X162073732Y-114924520D01*
X162189480Y-115040268D01*
X162280423Y-115176374D01*
X162280424Y-115176376D01*
X162343066Y-115327606D01*
X162375000Y-115488152D01*
X162375000Y-115651848D01*
X162343066Y-115812394D01*
X162280424Y-115963624D01*
X162280423Y-115963626D01*
X162189480Y-116099732D01*
X162073732Y-116215480D01*
X161937626Y-116306423D01*
X161937625Y-116306424D01*
X161937624Y-116306424D01*
X161786394Y-116369066D01*
X161625848Y-116401000D01*
X161462152Y-116401000D01*
X161301606Y-116369066D01*
X161150376Y-116306424D01*
X161150375Y-116306424D01*
X161150374Y-116306423D01*
X161014268Y-116215480D01*
X160898520Y-116099732D01*
X160807577Y-115963626D01*
X160807576Y-115963624D01*
X160744934Y-115812394D01*
X160713000Y-115651848D01*
X160713000Y-115488152D01*
X160744934Y-115327606D01*
X160807576Y-115176376D01*
X160807577Y-115176374D01*
X160898520Y-115040268D01*
X161014268Y-114924520D01*
X161150374Y-114833577D01*
X161150376Y-114833576D01*
X161301606Y-114770934D01*
X161462152Y-114739000D01*
X161625848Y-114739000D01*
X161786394Y-114770934D01*
X161786394Y-114770934D01*
G37*
G36*
X159246394Y-114770934D02*
G01*
X159397624Y-114833576D01*
X159397626Y-114833577D01*
X159533732Y-114924520D01*
X159649480Y-115040268D01*
X159740423Y-115176374D01*
X159740424Y-115176376D01*
X159803066Y-115327606D01*
X159835000Y-115488152D01*
X159835000Y-115651848D01*
X159803066Y-115812394D01*
X159740424Y-115963624D01*
X159740423Y-115963626D01*
X159649480Y-116099732D01*
X159533732Y-116215480D01*
X159397626Y-116306423D01*
X159397625Y-116306424D01*
X159397624Y-116306424D01*
X159246394Y-116369066D01*
X159085848Y-116401000D01*
X158922152Y-116401000D01*
X158761606Y-116369066D01*
X158610376Y-116306424D01*
X158610375Y-116306424D01*
X158610374Y-116306423D01*
X158474268Y-116215480D01*
X158358520Y-116099732D01*
X158267577Y-115963626D01*
X158267576Y-115963624D01*
X158204934Y-115812394D01*
X158173000Y-115651848D01*
X158173000Y-115488152D01*
X158204934Y-115327606D01*
X158267576Y-115176376D01*
X158267577Y-115176374D01*
X158358520Y-115040268D01*
X158474268Y-114924520D01*
X158610374Y-114833577D01*
X158610376Y-114833576D01*
X158761606Y-114770934D01*
X158922152Y-114739000D01*
X159085848Y-114739000D01*
X159246394Y-114770934D01*
X159246394Y-114770934D01*
G37*
G36*
X156706394Y-114770934D02*
G01*
X156857624Y-114833576D01*
X156857626Y-114833577D01*
X156993732Y-114924520D01*
X157109480Y-115040268D01*
X157200423Y-115176374D01*
X157200424Y-115176376D01*
X157263066Y-115327606D01*
X157295000Y-115488152D01*
X157295000Y-115651848D01*
X157263066Y-115812394D01*
X157200424Y-115963624D01*
X157200423Y-115963626D01*
X157109480Y-116099732D01*
X156993732Y-116215480D01*
X156857626Y-116306423D01*
X156857625Y-116306424D01*
X156857624Y-116306424D01*
X156706394Y-116369066D01*
X156545848Y-116401000D01*
X156382152Y-116401000D01*
X156221606Y-116369066D01*
X156070376Y-116306424D01*
X156070375Y-116306424D01*
X156070374Y-116306423D01*
X155934268Y-116215480D01*
X155818520Y-116099732D01*
X155727577Y-115963626D01*
X155727576Y-115963624D01*
X155664934Y-115812394D01*
X155633000Y-115651848D01*
X155633000Y-115488152D01*
X155664934Y-115327606D01*
X155727576Y-115176376D01*
X155727577Y-115176374D01*
X155818520Y-115040268D01*
X155934268Y-114924520D01*
X156070374Y-114833577D01*
X156070376Y-114833576D01*
X156221606Y-114770934D01*
X156382152Y-114739000D01*
X156545848Y-114739000D01*
X156706394Y-114770934D01*
X156706394Y-114770934D01*
G37*
G36*
X197346394Y-114770934D02*
G01*
X197497624Y-114833576D01*
X197497626Y-114833577D01*
X197633732Y-114924520D01*
X197749480Y-115040268D01*
X197840423Y-115176374D01*
X197840424Y-115176376D01*
X197903066Y-115327606D01*
X197935000Y-115488152D01*
X197935000Y-115651848D01*
X197903066Y-115812394D01*
X197840424Y-115963624D01*
X197840423Y-115963626D01*
X197749480Y-116099732D01*
X197633732Y-116215480D01*
X197497626Y-116306423D01*
X197497625Y-116306424D01*
X197497624Y-116306424D01*
X197346394Y-116369066D01*
X197185848Y-116401000D01*
X197022152Y-116401000D01*
X196861606Y-116369066D01*
X196710376Y-116306424D01*
X196710375Y-116306424D01*
X196710374Y-116306423D01*
X196574268Y-116215480D01*
X196458520Y-116099732D01*
X196367577Y-115963626D01*
X196367576Y-115963624D01*
X196304934Y-115812394D01*
X196273000Y-115651848D01*
X196273000Y-115488152D01*
X196304934Y-115327606D01*
X196367576Y-115176376D01*
X196367577Y-115176374D01*
X196458520Y-115040268D01*
X196574268Y-114924520D01*
X196710374Y-114833577D01*
X196710376Y-114833576D01*
X196861606Y-114770934D01*
X197022152Y-114739000D01*
X197185848Y-114739000D01*
X197346394Y-114770934D01*
X197346394Y-114770934D01*
G37*
G36*
X154166394Y-114770934D02*
G01*
X154317624Y-114833576D01*
X154317626Y-114833577D01*
X154453732Y-114924520D01*
X154569480Y-115040268D01*
X154660423Y-115176374D01*
X154660424Y-115176376D01*
X154723066Y-115327606D01*
X154755000Y-115488152D01*
X154755000Y-115651848D01*
X154723066Y-115812394D01*
X154660424Y-115963624D01*
X154660423Y-115963626D01*
X154569480Y-116099732D01*
X154453732Y-116215480D01*
X154317626Y-116306423D01*
X154317625Y-116306424D01*
X154317624Y-116306424D01*
X154166394Y-116369066D01*
X154005848Y-116401000D01*
X153842152Y-116401000D01*
X153681606Y-116369066D01*
X153530376Y-116306424D01*
X153530375Y-116306424D01*
X153530374Y-116306423D01*
X153394268Y-116215480D01*
X153278520Y-116099732D01*
X153187577Y-115963626D01*
X153187576Y-115963624D01*
X153124934Y-115812394D01*
X153093000Y-115651848D01*
X153093000Y-115488152D01*
X153124934Y-115327606D01*
X153187576Y-115176376D01*
X153187577Y-115176374D01*
X153278520Y-115040268D01*
X153394268Y-114924520D01*
X153530374Y-114833577D01*
X153530376Y-114833576D01*
X153681606Y-114770934D01*
X153842152Y-114739000D01*
X154005848Y-114739000D01*
X154166394Y-114770934D01*
X154166394Y-114770934D01*
G37*
G36*
X171946394Y-114770934D02*
G01*
X172097624Y-114833576D01*
X172097626Y-114833577D01*
X172233732Y-114924520D01*
X172349480Y-115040268D01*
X172440423Y-115176374D01*
X172440424Y-115176376D01*
X172503066Y-115327606D01*
X172535000Y-115488152D01*
X172535000Y-115651848D01*
X172503066Y-115812394D01*
X172440424Y-115963624D01*
X172440423Y-115963626D01*
X172349480Y-116099732D01*
X172233732Y-116215480D01*
X172097626Y-116306423D01*
X172097625Y-116306424D01*
X172097624Y-116306424D01*
X171946394Y-116369066D01*
X171785848Y-116401000D01*
X171622152Y-116401000D01*
X171461606Y-116369066D01*
X171310376Y-116306424D01*
X171310375Y-116306424D01*
X171310374Y-116306423D01*
X171174268Y-116215480D01*
X171058520Y-116099732D01*
X170967577Y-115963626D01*
X170967576Y-115963624D01*
X170904934Y-115812394D01*
X170873000Y-115651848D01*
X170873000Y-115488152D01*
X170904934Y-115327606D01*
X170967576Y-115176376D01*
X170967577Y-115176374D01*
X171058520Y-115040268D01*
X171174268Y-114924520D01*
X171310374Y-114833577D01*
X171310376Y-114833576D01*
X171461606Y-114770934D01*
X171622152Y-114739000D01*
X171785848Y-114739000D01*
X171946394Y-114770934D01*
X171946394Y-114770934D01*
G37*
G36*
X152215000Y-116401000D02*
G01*
X150553000Y-116401000D01*
X150553000Y-114739000D01*
X152215000Y-114739000D01*
X152215000Y-116401000D01*
X152215000Y-116401000D01*
G37*
G36*
X169406394Y-114770934D02*
G01*
X169557624Y-114833576D01*
X169557626Y-114833577D01*
X169693732Y-114924520D01*
X169809480Y-115040268D01*
X169900423Y-115176374D01*
X169900424Y-115176376D01*
X169963066Y-115327606D01*
X169995000Y-115488152D01*
X169995000Y-115651848D01*
X169963066Y-115812394D01*
X169900424Y-115963624D01*
X169900423Y-115963626D01*
X169809480Y-116099732D01*
X169693732Y-116215480D01*
X169557626Y-116306423D01*
X169557625Y-116306424D01*
X169557624Y-116306424D01*
X169406394Y-116369066D01*
X169245848Y-116401000D01*
X169082152Y-116401000D01*
X168921606Y-116369066D01*
X168770376Y-116306424D01*
X168770375Y-116306424D01*
X168770374Y-116306423D01*
X168634268Y-116215480D01*
X168518520Y-116099732D01*
X168427577Y-115963626D01*
X168427576Y-115963624D01*
X168364934Y-115812394D01*
X168333000Y-115651848D01*
X168333000Y-115488152D01*
X168364934Y-115327606D01*
X168427576Y-115176376D01*
X168427577Y-115176374D01*
X168518520Y-115040268D01*
X168634268Y-114924520D01*
X168770374Y-114833577D01*
X168770376Y-114833576D01*
X168921606Y-114770934D01*
X169082152Y-114739000D01*
X169245848Y-114739000D01*
X169406394Y-114770934D01*
X169406394Y-114770934D01*
G37*
G36*
X139885000Y-114984000D02*
G01*
X137483000Y-114984000D01*
X137483000Y-112382000D01*
X139885000Y-112382000D01*
X139885000Y-114984000D01*
X139885000Y-114984000D01*
G37*
G36*
X197908431Y-112713569D02*
G01*
X197909000Y-112719339D01*
X197909000Y-113708657D01*
X197908431Y-113714431D01*
X197902657Y-113715000D01*
X196813343Y-113715000D01*
X196807569Y-113714431D01*
X196807000Y-113708657D01*
X196807000Y-112719339D01*
X196807569Y-112713569D01*
X196813343Y-112713000D01*
X197902657Y-112713000D01*
X197908431Y-112713569D01*
X197908431Y-112713569D01*
G37*
G36*
X194528674Y-110251465D02*
G01*
X194566367Y-110262899D01*
X194601103Y-110281466D01*
X194631548Y-110306452D01*
X194656534Y-110336897D01*
X194675101Y-110371633D01*
X194686535Y-110409326D01*
X194691000Y-110454661D01*
X194691000Y-111541339D01*
X194686535Y-111586674D01*
X194675101Y-111624367D01*
X194656534Y-111659103D01*
X194631548Y-111689548D01*
X194601103Y-111714534D01*
X194566367Y-111733101D01*
X194528674Y-111744535D01*
X194483339Y-111749000D01*
X193646661Y-111749000D01*
X193601326Y-111744535D01*
X193563633Y-111733101D01*
X193528897Y-111714534D01*
X193498452Y-111689548D01*
X193473466Y-111659103D01*
X193454899Y-111624367D01*
X193443465Y-111586674D01*
X193439000Y-111541339D01*
X193439000Y-110454661D01*
X193443465Y-110409326D01*
X193454899Y-110371633D01*
X193473466Y-110336897D01*
X193498452Y-110306452D01*
X193528897Y-110281466D01*
X193563633Y-110262899D01*
X193601326Y-110251465D01*
X193646661Y-110247000D01*
X194483339Y-110247000D01*
X194528674Y-110251465D01*
X194528674Y-110251465D01*
G37*
G36*
X192478674Y-110251465D02*
G01*
X192516367Y-110262899D01*
X192551103Y-110281466D01*
X192581548Y-110306452D01*
X192606534Y-110336897D01*
X192625101Y-110371633D01*
X192636535Y-110409326D01*
X192641000Y-110454661D01*
X192641000Y-111541339D01*
X192636535Y-111586674D01*
X192625101Y-111624367D01*
X192606534Y-111659103D01*
X192581548Y-111689548D01*
X192551103Y-111714534D01*
X192516367Y-111733101D01*
X192478674Y-111744535D01*
X192433339Y-111749000D01*
X191596661Y-111749000D01*
X191551326Y-111744535D01*
X191513633Y-111733101D01*
X191478897Y-111714534D01*
X191448452Y-111689548D01*
X191423466Y-111659103D01*
X191404899Y-111624367D01*
X191393465Y-111586674D01*
X191389000Y-111541339D01*
X191389000Y-110454661D01*
X191393465Y-110409326D01*
X191404899Y-110371633D01*
X191423466Y-110336897D01*
X191448452Y-110306452D01*
X191478897Y-110281466D01*
X191513633Y-110262899D01*
X191551326Y-110251465D01*
X191596661Y-110247000D01*
X192433339Y-110247000D01*
X192478674Y-110251465D01*
X192478674Y-110251465D01*
G37*
G36*
X197908431Y-110313569D02*
G01*
X197909000Y-110319339D01*
X197909000Y-111308657D01*
X197908431Y-111314431D01*
X197902657Y-111315000D01*
X196813343Y-111315000D01*
X196807569Y-111314431D01*
X196807000Y-111308657D01*
X196807000Y-110319339D01*
X196807569Y-110313569D01*
X196813343Y-110313000D01*
X197902657Y-110313000D01*
X197908431Y-110313569D01*
X197908431Y-110313569D01*
G37*
G36*
X126710000Y-110463000D02*
G01*
X125258000Y-110463000D01*
X125258000Y-106961000D01*
X126710000Y-106961000D01*
X126710000Y-110463000D01*
X126710000Y-110463000D01*
G37*
G36*
X124560000Y-110463000D02*
G01*
X123108000Y-110463000D01*
X123108000Y-106961000D01*
X124560000Y-106961000D01*
X124560000Y-110463000D01*
X124560000Y-110463000D01*
G37*
G36*
X132111000Y-109663000D02*
G01*
X129509000Y-109663000D01*
X129509000Y-107761000D01*
X132111000Y-107761000D01*
X132111000Y-109663000D01*
X132111000Y-109663000D01*
G37*
G36*
X136111000Y-109663000D02*
G01*
X133509000Y-109663000D01*
X133509000Y-107761000D01*
X136111000Y-107761000D01*
X136111000Y-109663000D01*
X136111000Y-109663000D01*
G37*
G36*
X141764062Y-107790181D02*
G01*
X141798981Y-107800774D01*
X141831163Y-107817976D01*
X141859373Y-107841127D01*
X141882524Y-107869337D01*
X141899726Y-107901519D01*
X141910319Y-107936438D01*
X141914500Y-107978895D01*
X141914500Y-109445105D01*
X141910319Y-109487562D01*
X141899726Y-109522481D01*
X141882524Y-109554663D01*
X141859373Y-109582873D01*
X141831163Y-109606024D01*
X141798981Y-109623226D01*
X141764062Y-109633819D01*
X141721605Y-109638000D01*
X140580395Y-109638000D01*
X140537938Y-109633819D01*
X140503019Y-109623226D01*
X140470837Y-109606024D01*
X140442627Y-109582873D01*
X140419476Y-109554663D01*
X140402274Y-109522481D01*
X140391681Y-109487562D01*
X140387500Y-109445105D01*
X140387500Y-107978895D01*
X140391681Y-107936438D01*
X140402274Y-107901519D01*
X140419476Y-107869337D01*
X140442627Y-107841127D01*
X140470837Y-107817976D01*
X140503019Y-107800774D01*
X140537938Y-107790181D01*
X140580395Y-107786000D01*
X141721605Y-107786000D01*
X141764062Y-107790181D01*
X141764062Y-107790181D01*
G37*
G36*
X138789062Y-107790181D02*
G01*
X138823981Y-107800774D01*
X138856163Y-107817976D01*
X138884373Y-107841127D01*
X138907524Y-107869337D01*
X138924726Y-107901519D01*
X138935319Y-107936438D01*
X138939500Y-107978895D01*
X138939500Y-109445105D01*
X138935319Y-109487562D01*
X138924726Y-109522481D01*
X138907524Y-109554663D01*
X138884373Y-109582873D01*
X138856163Y-109606024D01*
X138823981Y-109623226D01*
X138789062Y-109633819D01*
X138746605Y-109638000D01*
X137605395Y-109638000D01*
X137562938Y-109633819D01*
X137528019Y-109623226D01*
X137495837Y-109606024D01*
X137467627Y-109582873D01*
X137444476Y-109554663D01*
X137427274Y-109522481D01*
X137416681Y-109487562D01*
X137412500Y-109445105D01*
X137412500Y-107978895D01*
X137416681Y-107936438D01*
X137427274Y-107901519D01*
X137444476Y-107869337D01*
X137467627Y-107841127D01*
X137495837Y-107817976D01*
X137528019Y-107800774D01*
X137562938Y-107790181D01*
X137605395Y-107786000D01*
X138746605Y-107786000D01*
X138789062Y-107790181D01*
X138789062Y-107790181D01*
G37*
G36*
X197908431Y-108141569D02*
G01*
X197909000Y-108147339D01*
X197909000Y-109136657D01*
X197908431Y-109142431D01*
X197902657Y-109143000D01*
X196813343Y-109143000D01*
X196807569Y-109142431D01*
X196807000Y-109136657D01*
X196807000Y-108147339D01*
X196807569Y-108141569D01*
X196813343Y-108141000D01*
X197902657Y-108141000D01*
X197908431Y-108141569D01*
X197908431Y-108141569D01*
G37*
G36*
X194528674Y-105679465D02*
G01*
X194566367Y-105690899D01*
X194601103Y-105709466D01*
X194631548Y-105734452D01*
X194656534Y-105764897D01*
X194675101Y-105799633D01*
X194686535Y-105837326D01*
X194691000Y-105882661D01*
X194691000Y-106969339D01*
X194686535Y-107014674D01*
X194675101Y-107052367D01*
X194656534Y-107087103D01*
X194631548Y-107117548D01*
X194601103Y-107142534D01*
X194566367Y-107161101D01*
X194528674Y-107172535D01*
X194483339Y-107177000D01*
X193646661Y-107177000D01*
X193601326Y-107172535D01*
X193563633Y-107161101D01*
X193528897Y-107142534D01*
X193498452Y-107117548D01*
X193473466Y-107087103D01*
X193454899Y-107052367D01*
X193443465Y-107014674D01*
X193439000Y-106969339D01*
X193439000Y-105882661D01*
X193443465Y-105837326D01*
X193454899Y-105799633D01*
X193473466Y-105764897D01*
X193498452Y-105734452D01*
X193528897Y-105709466D01*
X193563633Y-105690899D01*
X193601326Y-105679465D01*
X193646661Y-105675000D01*
X194483339Y-105675000D01*
X194528674Y-105679465D01*
X194528674Y-105679465D01*
G37*
G36*
X192478674Y-105679465D02*
G01*
X192516367Y-105690899D01*
X192551103Y-105709466D01*
X192581548Y-105734452D01*
X192606534Y-105764897D01*
X192625101Y-105799633D01*
X192636535Y-105837326D01*
X192641000Y-105882661D01*
X192641000Y-106969339D01*
X192636535Y-107014674D01*
X192625101Y-107052367D01*
X192606534Y-107087103D01*
X192581548Y-107117548D01*
X192551103Y-107142534D01*
X192516367Y-107161101D01*
X192478674Y-107172535D01*
X192433339Y-107177000D01*
X191596661Y-107177000D01*
X191551326Y-107172535D01*
X191513633Y-107161101D01*
X191478897Y-107142534D01*
X191448452Y-107117548D01*
X191423466Y-107087103D01*
X191404899Y-107052367D01*
X191393465Y-107014674D01*
X191389000Y-106969339D01*
X191389000Y-105882661D01*
X191393465Y-105837326D01*
X191404899Y-105799633D01*
X191423466Y-105764897D01*
X191448452Y-105734452D01*
X191478897Y-105709466D01*
X191513633Y-105690899D01*
X191551326Y-105679465D01*
X191596661Y-105675000D01*
X192433339Y-105675000D01*
X192478674Y-105679465D01*
X192478674Y-105679465D01*
G37*
G36*
X197908431Y-105741569D02*
G01*
X197909000Y-105747339D01*
X197909000Y-106736657D01*
X197908431Y-106742431D01*
X197902657Y-106743000D01*
X196813343Y-106743000D01*
X196807569Y-106742431D01*
X196807000Y-106736657D01*
X196807000Y-105747339D01*
X196807569Y-105741569D01*
X196813343Y-105741000D01*
X197902657Y-105741000D01*
X197908431Y-105741569D01*
X197908431Y-105741569D01*
G37*
G36*
X197908431Y-103569569D02*
G01*
X197909000Y-103575339D01*
X197909000Y-104564657D01*
X197908431Y-104570431D01*
X197902657Y-104571000D01*
X196813343Y-104571000D01*
X196807569Y-104570431D01*
X196807000Y-104564657D01*
X196807000Y-103575339D01*
X196807569Y-103569569D01*
X196813343Y-103569000D01*
X197902657Y-103569000D01*
X197908431Y-103569569D01*
X197908431Y-103569569D01*
G37*
G36*
X194528674Y-101107465D02*
G01*
X194566367Y-101118899D01*
X194601103Y-101137466D01*
X194631548Y-101162452D01*
X194656534Y-101192897D01*
X194675101Y-101227633D01*
X194686535Y-101265326D01*
X194691000Y-101310661D01*
X194691000Y-102397339D01*
X194686535Y-102442674D01*
X194675101Y-102480367D01*
X194656534Y-102515103D01*
X194631548Y-102545548D01*
X194601103Y-102570534D01*
X194566367Y-102589101D01*
X194528674Y-102600535D01*
X194483339Y-102605000D01*
X193646661Y-102605000D01*
X193601326Y-102600535D01*
X193563633Y-102589101D01*
X193528897Y-102570534D01*
X193498452Y-102545548D01*
X193473466Y-102515103D01*
X193454899Y-102480367D01*
X193443465Y-102442674D01*
X193439000Y-102397339D01*
X193439000Y-101310661D01*
X193443465Y-101265326D01*
X193454899Y-101227633D01*
X193473466Y-101192897D01*
X193498452Y-101162452D01*
X193528897Y-101137466D01*
X193563633Y-101118899D01*
X193601326Y-101107465D01*
X193646661Y-101103000D01*
X194483339Y-101103000D01*
X194528674Y-101107465D01*
X194528674Y-101107465D01*
G37*
G36*
X192478674Y-101107465D02*
G01*
X192516367Y-101118899D01*
X192551103Y-101137466D01*
X192581548Y-101162452D01*
X192606534Y-101192897D01*
X192625101Y-101227633D01*
X192636535Y-101265326D01*
X192641000Y-101310661D01*
X192641000Y-102397339D01*
X192636535Y-102442674D01*
X192625101Y-102480367D01*
X192606534Y-102515103D01*
X192581548Y-102545548D01*
X192551103Y-102570534D01*
X192516367Y-102589101D01*
X192478674Y-102600535D01*
X192433339Y-102605000D01*
X191596661Y-102605000D01*
X191551326Y-102600535D01*
X191513633Y-102589101D01*
X191478897Y-102570534D01*
X191448452Y-102545548D01*
X191423466Y-102515103D01*
X191404899Y-102480367D01*
X191393465Y-102442674D01*
X191389000Y-102397339D01*
X191389000Y-101310661D01*
X191393465Y-101265326D01*
X191404899Y-101227633D01*
X191423466Y-101192897D01*
X191448452Y-101162452D01*
X191478897Y-101137466D01*
X191513633Y-101118899D01*
X191551326Y-101107465D01*
X191596661Y-101103000D01*
X192433339Y-101103000D01*
X192478674Y-101107465D01*
X192478674Y-101107465D01*
G37*
G36*
X197908431Y-101169569D02*
G01*
X197909000Y-101175339D01*
X197909000Y-102164657D01*
X197908431Y-102170431D01*
X197902657Y-102171000D01*
X196813343Y-102171000D01*
X196807569Y-102170431D01*
X196807000Y-102164657D01*
X196807000Y-101175339D01*
X196807569Y-101169569D01*
X196813343Y-101169000D01*
X197902657Y-101169000D01*
X197908431Y-101169569D01*
X197908431Y-101169569D01*
G37*
G36*
X134971000Y-100627000D02*
G01*
X134269000Y-100627000D01*
X134269000Y-98525000D01*
X134971000Y-98525000D01*
X134971000Y-100627000D01*
X134971000Y-100627000D01*
G37*
G36*
X140971000Y-100627000D02*
G01*
X140269000Y-100627000D01*
X140269000Y-98525000D01*
X140971000Y-98525000D01*
X140971000Y-100627000D01*
X140971000Y-100627000D01*
G37*
G36*
X127971000Y-100627000D02*
G01*
X127269000Y-100627000D01*
X127269000Y-98525000D01*
X127971000Y-98525000D01*
X127971000Y-100627000D01*
X127971000Y-100627000D01*
G37*
G36*
X129971000Y-100627000D02*
G01*
X129269000Y-100627000D01*
X129269000Y-98525000D01*
X129971000Y-98525000D01*
X129971000Y-100627000D01*
X129971000Y-100627000D01*
G37*
G36*
X130971000Y-100627000D02*
G01*
X130269000Y-100627000D01*
X130269000Y-98525000D01*
X130971000Y-98525000D01*
X130971000Y-100627000D01*
X130971000Y-100627000D01*
G37*
G36*
X131971000Y-100627000D02*
G01*
X131269000Y-100627000D01*
X131269000Y-98525000D01*
X131971000Y-98525000D01*
X131971000Y-100627000D01*
X131971000Y-100627000D01*
G37*
G36*
X132971000Y-100627000D02*
G01*
X132269000Y-100627000D01*
X132269000Y-98525000D01*
X132971000Y-98525000D01*
X132971000Y-100627000D01*
X132971000Y-100627000D01*
G37*
G36*
X126971000Y-100627000D02*
G01*
X126269000Y-100627000D01*
X126269000Y-98525000D01*
X126971000Y-98525000D01*
X126971000Y-100627000D01*
X126971000Y-100627000D01*
G37*
G36*
X141971000Y-100627000D02*
G01*
X141269000Y-100627000D01*
X141269000Y-98525000D01*
X141971000Y-98525000D01*
X141971000Y-100627000D01*
X141971000Y-100627000D01*
G37*
G36*
X135971000Y-100627000D02*
G01*
X135269000Y-100627000D01*
X135269000Y-98525000D01*
X135971000Y-98525000D01*
X135971000Y-100627000D01*
X135971000Y-100627000D01*
G37*
G36*
X136971000Y-100627000D02*
G01*
X136269000Y-100627000D01*
X136269000Y-98525000D01*
X136971000Y-98525000D01*
X136971000Y-100627000D01*
X136971000Y-100627000D01*
G37*
G36*
X137971000Y-100627000D02*
G01*
X137269000Y-100627000D01*
X137269000Y-98525000D01*
X137971000Y-98525000D01*
X137971000Y-100627000D01*
X137971000Y-100627000D01*
G37*
G36*
X138971000Y-100627000D02*
G01*
X138269000Y-100627000D01*
X138269000Y-98525000D01*
X138971000Y-98525000D01*
X138971000Y-100627000D01*
X138971000Y-100627000D01*
G37*
G36*
X139971000Y-100627000D02*
G01*
X139269000Y-100627000D01*
X139269000Y-98525000D01*
X139971000Y-98525000D01*
X139971000Y-100627000D01*
X139971000Y-100627000D01*
G37*
G36*
X128971000Y-100627000D02*
G01*
X128269000Y-100627000D01*
X128269000Y-98525000D01*
X128971000Y-98525000D01*
X128971000Y-100627000D01*
X128971000Y-100627000D01*
G37*
G36*
X133971000Y-100627000D02*
G01*
X133269000Y-100627000D01*
X133269000Y-98525000D01*
X133971000Y-98525000D01*
X133971000Y-100627000D01*
X133971000Y-100627000D01*
G37*
G36*
X142971000Y-100627000D02*
G01*
X142269000Y-100627000D01*
X142269000Y-98775000D01*
X142971000Y-98775000D01*
X142971000Y-100627000D01*
X142971000Y-100627000D01*
G37*
G36*
X193518549Y-98312116D02*
G01*
X193629734Y-98334232D01*
X193839203Y-98420997D01*
X194027720Y-98546960D01*
X194188040Y-98707280D01*
X194314003Y-98895797D01*
X194400768Y-99105266D01*
X194445000Y-99327636D01*
X194445000Y-99554364D01*
X194400768Y-99776734D01*
X194314003Y-99986203D01*
X194188040Y-100174720D01*
X194027720Y-100335040D01*
X193839203Y-100461003D01*
X193629734Y-100547768D01*
X193518549Y-100569884D01*
X193407365Y-100592000D01*
X193180635Y-100592000D01*
X193069451Y-100569884D01*
X192958266Y-100547768D01*
X192748797Y-100461003D01*
X192560280Y-100335040D01*
X192399960Y-100174720D01*
X192273997Y-99986203D01*
X192187232Y-99776734D01*
X192143000Y-99554364D01*
X192143000Y-99327636D01*
X192187232Y-99105266D01*
X192273997Y-98895797D01*
X192399960Y-98707280D01*
X192560280Y-98546960D01*
X192748797Y-98420997D01*
X192958266Y-98334232D01*
X193069451Y-98312116D01*
X193180635Y-98290000D01*
X193407365Y-98290000D01*
X193518549Y-98312116D01*
X193518549Y-98312116D01*
G37*
G36*
X195907512Y-97294927D02*
G01*
X196056812Y-97324624D01*
X196220784Y-97392544D01*
X196368354Y-97491147D01*
X196493853Y-97616646D01*
X196592456Y-97764216D01*
X196660376Y-97928188D01*
X196690073Y-98077488D01*
X196695000Y-98102258D01*
X196695000Y-98279742D01*
X196690073Y-98304512D01*
X196660376Y-98453812D01*
X196592456Y-98617784D01*
X196493853Y-98765354D01*
X196368354Y-98890853D01*
X196220784Y-98989456D01*
X196056812Y-99057376D01*
X195907512Y-99087073D01*
X195882742Y-99092000D01*
X195705258Y-99092000D01*
X195680488Y-99087073D01*
X195531188Y-99057376D01*
X195367216Y-98989456D01*
X195219646Y-98890853D01*
X195094147Y-98765354D01*
X194995544Y-98617784D01*
X194927624Y-98453812D01*
X194897927Y-98304512D01*
X194893000Y-98279742D01*
X194893000Y-98102258D01*
X194897927Y-98077488D01*
X194927624Y-97928188D01*
X194995544Y-97764216D01*
X195094147Y-97616646D01*
X195219646Y-97491147D01*
X195367216Y-97392544D01*
X195531188Y-97324624D01*
X195680488Y-97294927D01*
X195705258Y-97290000D01*
X195882742Y-97290000D01*
X195907512Y-97294927D01*
X195907512Y-97294927D01*
G37*
G36*
X145001000Y-98477000D02*
G01*
X143149000Y-98477000D01*
X143149000Y-97775000D01*
X145001000Y-97775000D01*
X145001000Y-98477000D01*
X145001000Y-98477000D01*
G37*
G36*
X145001000Y-97477000D02*
G01*
X142899000Y-97477000D01*
X142899000Y-96775000D01*
X145001000Y-96775000D01*
X145001000Y-97477000D01*
X145001000Y-97477000D01*
G37*
G36*
X145001000Y-96477000D02*
G01*
X142899000Y-96477000D01*
X142899000Y-95775000D01*
X145001000Y-95775000D01*
X145001000Y-96477000D01*
X145001000Y-96477000D01*
G37*
G36*
X145001000Y-95477000D02*
G01*
X142899000Y-95477000D01*
X142899000Y-94775000D01*
X145001000Y-94775000D01*
X145001000Y-95477000D01*
X145001000Y-95477000D01*
G37*
G36*
X172292674Y-94129465D02*
G01*
X172330367Y-94140899D01*
X172365103Y-94159466D01*
X172395548Y-94184452D01*
X172420534Y-94214897D01*
X172439101Y-94249633D01*
X172450535Y-94287326D01*
X172455000Y-94332661D01*
X172455000Y-95169339D01*
X172450535Y-95214674D01*
X172439101Y-95252367D01*
X172420534Y-95287103D01*
X172395548Y-95317548D01*
X172365103Y-95342534D01*
X172330367Y-95361101D01*
X172292674Y-95372535D01*
X172247339Y-95377000D01*
X171160661Y-95377000D01*
X171115326Y-95372535D01*
X171077633Y-95361101D01*
X171042897Y-95342534D01*
X171012452Y-95317548D01*
X170987466Y-95287103D01*
X170968899Y-95252367D01*
X170957465Y-95214674D01*
X170953000Y-95169339D01*
X170953000Y-94332661D01*
X170957465Y-94287326D01*
X170968899Y-94249633D01*
X170987466Y-94214897D01*
X171012452Y-94184452D01*
X171042897Y-94159466D01*
X171077633Y-94140899D01*
X171115326Y-94129465D01*
X171160661Y-94125000D01*
X172247339Y-94125000D01*
X172292674Y-94129465D01*
X172292674Y-94129465D01*
G37*
G36*
X164672674Y-94129465D02*
G01*
X164710367Y-94140899D01*
X164745103Y-94159466D01*
X164775548Y-94184452D01*
X164800534Y-94214897D01*
X164819101Y-94249633D01*
X164830535Y-94287326D01*
X164835000Y-94332661D01*
X164835000Y-95169339D01*
X164830535Y-95214674D01*
X164819101Y-95252367D01*
X164800534Y-95287103D01*
X164775548Y-95317548D01*
X164745103Y-95342534D01*
X164710367Y-95361101D01*
X164672674Y-95372535D01*
X164627339Y-95377000D01*
X163540661Y-95377000D01*
X163495326Y-95372535D01*
X163457633Y-95361101D01*
X163422897Y-95342534D01*
X163392452Y-95317548D01*
X163367466Y-95287103D01*
X163348899Y-95252367D01*
X163337465Y-95214674D01*
X163333000Y-95169339D01*
X163333000Y-94332661D01*
X163337465Y-94287326D01*
X163348899Y-94249633D01*
X163367466Y-94214897D01*
X163392452Y-94184452D01*
X163422897Y-94159466D01*
X163457633Y-94140899D01*
X163495326Y-94129465D01*
X163540661Y-94125000D01*
X164627339Y-94125000D01*
X164672674Y-94129465D01*
X164672674Y-94129465D01*
G37*
G36*
X157052674Y-94120465D02*
G01*
X157090367Y-94131899D01*
X157125103Y-94150466D01*
X157155548Y-94175452D01*
X157180534Y-94205897D01*
X157199101Y-94240633D01*
X157210535Y-94278326D01*
X157215000Y-94323661D01*
X157215000Y-95160339D01*
X157210535Y-95205674D01*
X157199101Y-95243367D01*
X157180534Y-95278103D01*
X157155548Y-95308548D01*
X157125103Y-95333534D01*
X157090367Y-95352101D01*
X157052674Y-95363535D01*
X157007339Y-95368000D01*
X155920661Y-95368000D01*
X155875326Y-95363535D01*
X155837633Y-95352101D01*
X155802897Y-95333534D01*
X155772452Y-95308548D01*
X155747466Y-95278103D01*
X155728899Y-95243367D01*
X155717465Y-95205674D01*
X155713000Y-95160339D01*
X155713000Y-94323661D01*
X155717465Y-94278326D01*
X155728899Y-94240633D01*
X155747466Y-94205897D01*
X155772452Y-94175452D01*
X155802897Y-94150466D01*
X155837633Y-94131899D01*
X155875326Y-94120465D01*
X155920661Y-94116000D01*
X157007339Y-94116000D01*
X157052674Y-94120465D01*
X157052674Y-94120465D01*
G37*
G36*
X195907512Y-92794927D02*
G01*
X196056812Y-92824624D01*
X196220784Y-92892544D01*
X196368354Y-92991147D01*
X196493853Y-93116646D01*
X196592456Y-93264216D01*
X196660376Y-93428188D01*
X196684161Y-93547768D01*
X196692960Y-93592000D01*
X196695000Y-93602259D01*
X196695000Y-93779741D01*
X196660376Y-93953812D01*
X196592456Y-94117784D01*
X196493853Y-94265354D01*
X196368354Y-94390853D01*
X196220784Y-94489456D01*
X196056812Y-94557376D01*
X195907512Y-94587073D01*
X195882742Y-94592000D01*
X195705258Y-94592000D01*
X195680488Y-94587073D01*
X195531188Y-94557376D01*
X195367216Y-94489456D01*
X195219646Y-94390853D01*
X195094147Y-94265354D01*
X194995544Y-94117784D01*
X194927624Y-93953812D01*
X194893000Y-93779741D01*
X194893000Y-93602259D01*
X194895041Y-93592000D01*
X194903839Y-93547768D01*
X194927624Y-93428188D01*
X194995544Y-93264216D01*
X195094147Y-93116646D01*
X195219646Y-92991147D01*
X195367216Y-92892544D01*
X195531188Y-92824624D01*
X195680488Y-92794927D01*
X195705258Y-92790000D01*
X195882742Y-92790000D01*
X195907512Y-92794927D01*
X195907512Y-92794927D01*
G37*
G36*
X145001000Y-94477000D02*
G01*
X142899000Y-94477000D01*
X142899000Y-93775000D01*
X145001000Y-93775000D01*
X145001000Y-94477000D01*
X145001000Y-94477000D01*
G37*
G36*
X193518549Y-91312116D02*
G01*
X193629734Y-91334232D01*
X193839203Y-91420997D01*
X194027720Y-91546960D01*
X194188040Y-91707280D01*
X194314003Y-91895797D01*
X194400768Y-92105266D01*
X194445000Y-92327636D01*
X194445000Y-92554364D01*
X194400768Y-92776734D01*
X194314003Y-92986203D01*
X194188040Y-93174720D01*
X194027720Y-93335040D01*
X193839203Y-93461003D01*
X193629734Y-93547768D01*
X193518549Y-93569884D01*
X193407365Y-93592000D01*
X193180635Y-93592000D01*
X193069451Y-93569884D01*
X192958266Y-93547768D01*
X192748797Y-93461003D01*
X192560280Y-93335040D01*
X192399960Y-93174720D01*
X192273997Y-92986203D01*
X192187232Y-92776734D01*
X192143000Y-92554364D01*
X192143000Y-92327636D01*
X192187232Y-92105266D01*
X192273997Y-91895797D01*
X192399960Y-91707280D01*
X192560280Y-91546960D01*
X192748797Y-91420997D01*
X192958266Y-91334232D01*
X193069451Y-91312116D01*
X193180635Y-91290000D01*
X193407365Y-91290000D01*
X193518549Y-91312116D01*
X193518549Y-91312116D01*
G37*
G36*
X145001000Y-93477000D02*
G01*
X142899000Y-93477000D01*
X142899000Y-92775000D01*
X145001000Y-92775000D01*
X145001000Y-93477000D01*
X145001000Y-93477000D01*
G37*
G36*
X172292674Y-92079465D02*
G01*
X172330367Y-92090899D01*
X172365103Y-92109466D01*
X172395548Y-92134452D01*
X172420534Y-92164897D01*
X172439101Y-92199633D01*
X172450535Y-92237326D01*
X172455000Y-92282661D01*
X172455000Y-93119339D01*
X172450535Y-93164674D01*
X172439101Y-93202367D01*
X172420534Y-93237103D01*
X172395548Y-93267548D01*
X172365103Y-93292534D01*
X172330367Y-93311101D01*
X172292674Y-93322535D01*
X172247339Y-93327000D01*
X171160661Y-93327000D01*
X171115326Y-93322535D01*
X171077633Y-93311101D01*
X171042897Y-93292534D01*
X171012452Y-93267548D01*
X170987466Y-93237103D01*
X170968899Y-93202367D01*
X170957465Y-93164674D01*
X170953000Y-93119339D01*
X170953000Y-92282661D01*
X170957465Y-92237326D01*
X170968899Y-92199633D01*
X170987466Y-92164897D01*
X171012452Y-92134452D01*
X171042897Y-92109466D01*
X171077633Y-92090899D01*
X171115326Y-92079465D01*
X171160661Y-92075000D01*
X172247339Y-92075000D01*
X172292674Y-92079465D01*
X172292674Y-92079465D01*
G37*
G36*
X164672674Y-92079465D02*
G01*
X164710367Y-92090899D01*
X164745103Y-92109466D01*
X164775548Y-92134452D01*
X164800534Y-92164897D01*
X164819101Y-92199633D01*
X164830535Y-92237326D01*
X164835000Y-92282661D01*
X164835000Y-93119339D01*
X164830535Y-93164674D01*
X164819101Y-93202367D01*
X164800534Y-93237103D01*
X164775548Y-93267548D01*
X164745103Y-93292534D01*
X164710367Y-93311101D01*
X164672674Y-93322535D01*
X164627339Y-93327000D01*
X163540661Y-93327000D01*
X163495326Y-93322535D01*
X163457633Y-93311101D01*
X163422897Y-93292534D01*
X163392452Y-93267548D01*
X163367466Y-93237103D01*
X163348899Y-93202367D01*
X163337465Y-93164674D01*
X163333000Y-93119339D01*
X163333000Y-92282661D01*
X163337465Y-92237326D01*
X163348899Y-92199633D01*
X163367466Y-92164897D01*
X163392452Y-92134452D01*
X163422897Y-92109466D01*
X163457633Y-92090899D01*
X163495326Y-92079465D01*
X163540661Y-92075000D01*
X164627339Y-92075000D01*
X164672674Y-92079465D01*
X164672674Y-92079465D01*
G37*
G36*
X157052674Y-92070465D02*
G01*
X157090367Y-92081899D01*
X157125103Y-92100466D01*
X157155548Y-92125452D01*
X157180534Y-92155897D01*
X157199101Y-92190633D01*
X157210535Y-92228326D01*
X157215000Y-92273661D01*
X157215000Y-93110339D01*
X157210535Y-93155674D01*
X157199101Y-93193367D01*
X157180534Y-93228103D01*
X157155548Y-93258548D01*
X157125103Y-93283534D01*
X157090367Y-93302101D01*
X157052674Y-93313535D01*
X157007339Y-93318000D01*
X155920661Y-93318000D01*
X155875326Y-93313535D01*
X155837633Y-93302101D01*
X155802897Y-93283534D01*
X155772452Y-93258548D01*
X155747466Y-93228103D01*
X155728899Y-93193367D01*
X155717465Y-93155674D01*
X155713000Y-93110339D01*
X155713000Y-92273661D01*
X155717465Y-92228326D01*
X155728899Y-92190633D01*
X155747466Y-92155897D01*
X155772452Y-92125452D01*
X155802897Y-92100466D01*
X155837633Y-92081899D01*
X155875326Y-92070465D01*
X155920661Y-92066000D01*
X157007339Y-92066000D01*
X157052674Y-92070465D01*
X157052674Y-92070465D01*
G37*
G36*
X145001000Y-92477000D02*
G01*
X142899000Y-92477000D01*
X142899000Y-91775000D01*
X145001000Y-91775000D01*
X145001000Y-92477000D01*
X145001000Y-92477000D01*
G37*
G36*
X145001000Y-91477000D02*
G01*
X142899000Y-91477000D01*
X142899000Y-90775000D01*
X145001000Y-90775000D01*
X145001000Y-91477000D01*
X145001000Y-91477000D01*
G37*
G36*
X197346394Y-89370934D02*
G01*
X197497624Y-89433576D01*
X197497626Y-89433577D01*
X197633732Y-89524520D01*
X197749480Y-89640268D01*
X197839505Y-89775000D01*
X197840424Y-89776376D01*
X197903066Y-89927606D01*
X197935000Y-90088152D01*
X197935000Y-90251848D01*
X197903066Y-90412394D01*
X197840424Y-90563624D01*
X197840423Y-90563626D01*
X197749480Y-90699732D01*
X197633732Y-90815480D01*
X197497626Y-90906423D01*
X197497625Y-90906424D01*
X197497624Y-90906424D01*
X197346394Y-90969066D01*
X197185848Y-91001000D01*
X197022152Y-91001000D01*
X196861606Y-90969066D01*
X196710376Y-90906424D01*
X196710375Y-90906424D01*
X196710374Y-90906423D01*
X196574268Y-90815480D01*
X196458520Y-90699732D01*
X196367577Y-90563626D01*
X196367576Y-90563624D01*
X196304934Y-90412394D01*
X196273000Y-90251848D01*
X196273000Y-90088152D01*
X196304934Y-89927606D01*
X196367576Y-89776376D01*
X196368495Y-89775000D01*
X196458520Y-89640268D01*
X196574268Y-89524520D01*
X196710374Y-89433577D01*
X196710376Y-89433576D01*
X196861606Y-89370934D01*
X197022152Y-89339000D01*
X197185848Y-89339000D01*
X197346394Y-89370934D01*
X197346394Y-89370934D01*
G37*
G36*
X194806394Y-89370934D02*
G01*
X194957624Y-89433576D01*
X194957626Y-89433577D01*
X195093732Y-89524520D01*
X195209480Y-89640268D01*
X195299505Y-89775000D01*
X195300424Y-89776376D01*
X195363066Y-89927606D01*
X195395000Y-90088152D01*
X195395000Y-90251848D01*
X195363066Y-90412394D01*
X195300424Y-90563624D01*
X195300423Y-90563626D01*
X195209480Y-90699732D01*
X195093732Y-90815480D01*
X194957626Y-90906423D01*
X194957625Y-90906424D01*
X194957624Y-90906424D01*
X194806394Y-90969066D01*
X194645848Y-91001000D01*
X194482152Y-91001000D01*
X194321606Y-90969066D01*
X194170376Y-90906424D01*
X194170375Y-90906424D01*
X194170374Y-90906423D01*
X194034268Y-90815480D01*
X193918520Y-90699732D01*
X193827577Y-90563626D01*
X193827576Y-90563624D01*
X193764934Y-90412394D01*
X193733000Y-90251848D01*
X193733000Y-90088152D01*
X193764934Y-89927606D01*
X193827576Y-89776376D01*
X193828495Y-89775000D01*
X193918520Y-89640268D01*
X194034268Y-89524520D01*
X194170374Y-89433577D01*
X194170376Y-89433576D01*
X194321606Y-89370934D01*
X194482152Y-89339000D01*
X194645848Y-89339000D01*
X194806394Y-89370934D01*
X194806394Y-89370934D01*
G37*
G36*
X192266394Y-89370934D02*
G01*
X192417624Y-89433576D01*
X192417626Y-89433577D01*
X192553732Y-89524520D01*
X192669480Y-89640268D01*
X192759505Y-89775000D01*
X192760424Y-89776376D01*
X192823066Y-89927606D01*
X192855000Y-90088152D01*
X192855000Y-90251848D01*
X192823066Y-90412394D01*
X192760424Y-90563624D01*
X192760423Y-90563626D01*
X192669480Y-90699732D01*
X192553732Y-90815480D01*
X192417626Y-90906423D01*
X192417625Y-90906424D01*
X192417624Y-90906424D01*
X192266394Y-90969066D01*
X192105848Y-91001000D01*
X191942152Y-91001000D01*
X191781606Y-90969066D01*
X191630376Y-90906424D01*
X191630375Y-90906424D01*
X191630374Y-90906423D01*
X191494268Y-90815480D01*
X191378520Y-90699732D01*
X191287577Y-90563626D01*
X191287576Y-90563624D01*
X191224934Y-90412394D01*
X191193000Y-90251848D01*
X191193000Y-90088152D01*
X191224934Y-89927606D01*
X191287576Y-89776376D01*
X191288495Y-89775000D01*
X191378520Y-89640268D01*
X191494268Y-89524520D01*
X191630374Y-89433577D01*
X191630376Y-89433576D01*
X191781606Y-89370934D01*
X191942152Y-89339000D01*
X192105848Y-89339000D01*
X192266394Y-89370934D01*
X192266394Y-89370934D01*
G37*
G36*
X189726394Y-89370934D02*
G01*
X189877624Y-89433576D01*
X189877626Y-89433577D01*
X190013732Y-89524520D01*
X190129480Y-89640268D01*
X190219505Y-89775000D01*
X190220424Y-89776376D01*
X190283066Y-89927606D01*
X190315000Y-90088152D01*
X190315000Y-90251848D01*
X190283066Y-90412394D01*
X190220424Y-90563624D01*
X190220423Y-90563626D01*
X190129480Y-90699732D01*
X190013732Y-90815480D01*
X189877626Y-90906423D01*
X189877625Y-90906424D01*
X189877624Y-90906424D01*
X189726394Y-90969066D01*
X189565848Y-91001000D01*
X189402152Y-91001000D01*
X189241606Y-90969066D01*
X189090376Y-90906424D01*
X189090375Y-90906424D01*
X189090374Y-90906423D01*
X188954268Y-90815480D01*
X188838520Y-90699732D01*
X188747577Y-90563626D01*
X188747576Y-90563624D01*
X188684934Y-90412394D01*
X188653000Y-90251848D01*
X188653000Y-90088152D01*
X188684934Y-89927606D01*
X188747576Y-89776376D01*
X188748495Y-89775000D01*
X188838520Y-89640268D01*
X188954268Y-89524520D01*
X189090374Y-89433577D01*
X189090376Y-89433576D01*
X189241606Y-89370934D01*
X189402152Y-89339000D01*
X189565848Y-89339000D01*
X189726394Y-89370934D01*
X189726394Y-89370934D01*
G37*
G36*
X187186394Y-89370934D02*
G01*
X187337624Y-89433576D01*
X187337626Y-89433577D01*
X187473732Y-89524520D01*
X187589480Y-89640268D01*
X187679505Y-89775000D01*
X187680424Y-89776376D01*
X187743066Y-89927606D01*
X187775000Y-90088152D01*
X187775000Y-90251848D01*
X187743066Y-90412394D01*
X187680424Y-90563624D01*
X187680423Y-90563626D01*
X187589480Y-90699732D01*
X187473732Y-90815480D01*
X187337626Y-90906423D01*
X187337625Y-90906424D01*
X187337624Y-90906424D01*
X187186394Y-90969066D01*
X187025848Y-91001000D01*
X186862152Y-91001000D01*
X186701606Y-90969066D01*
X186550376Y-90906424D01*
X186550375Y-90906424D01*
X186550374Y-90906423D01*
X186414268Y-90815480D01*
X186298520Y-90699732D01*
X186207577Y-90563626D01*
X186207576Y-90563624D01*
X186144934Y-90412394D01*
X186113000Y-90251848D01*
X186113000Y-90088152D01*
X186144934Y-89927606D01*
X186207576Y-89776376D01*
X186208495Y-89775000D01*
X186298520Y-89640268D01*
X186414268Y-89524520D01*
X186550374Y-89433577D01*
X186550376Y-89433576D01*
X186701606Y-89370934D01*
X186862152Y-89339000D01*
X187025848Y-89339000D01*
X187186394Y-89370934D01*
X187186394Y-89370934D01*
G37*
G36*
X184646394Y-89370934D02*
G01*
X184797624Y-89433576D01*
X184797626Y-89433577D01*
X184933732Y-89524520D01*
X185049480Y-89640268D01*
X185139505Y-89775000D01*
X185140424Y-89776376D01*
X185203066Y-89927606D01*
X185235000Y-90088152D01*
X185235000Y-90251848D01*
X185203066Y-90412394D01*
X185140424Y-90563624D01*
X185140423Y-90563626D01*
X185049480Y-90699732D01*
X184933732Y-90815480D01*
X184797626Y-90906423D01*
X184797625Y-90906424D01*
X184797624Y-90906424D01*
X184646394Y-90969066D01*
X184485848Y-91001000D01*
X184322152Y-91001000D01*
X184161606Y-90969066D01*
X184010376Y-90906424D01*
X184010375Y-90906424D01*
X184010374Y-90906423D01*
X183874268Y-90815480D01*
X183758520Y-90699732D01*
X183667577Y-90563626D01*
X183667576Y-90563624D01*
X183604934Y-90412394D01*
X183573000Y-90251848D01*
X183573000Y-90088152D01*
X183604934Y-89927606D01*
X183667576Y-89776376D01*
X183668495Y-89775000D01*
X183758520Y-89640268D01*
X183874268Y-89524520D01*
X184010374Y-89433577D01*
X184010376Y-89433576D01*
X184161606Y-89370934D01*
X184322152Y-89339000D01*
X184485848Y-89339000D01*
X184646394Y-89370934D01*
X184646394Y-89370934D01*
G37*
G36*
X182106394Y-89370934D02*
G01*
X182257624Y-89433576D01*
X182257626Y-89433577D01*
X182393732Y-89524520D01*
X182509480Y-89640268D01*
X182599505Y-89775000D01*
X182600424Y-89776376D01*
X182663066Y-89927606D01*
X182695000Y-90088152D01*
X182695000Y-90251848D01*
X182663066Y-90412394D01*
X182600424Y-90563624D01*
X182600423Y-90563626D01*
X182509480Y-90699732D01*
X182393732Y-90815480D01*
X182257626Y-90906423D01*
X182257625Y-90906424D01*
X182257624Y-90906424D01*
X182106394Y-90969066D01*
X181945848Y-91001000D01*
X181782152Y-91001000D01*
X181621606Y-90969066D01*
X181470376Y-90906424D01*
X181470375Y-90906424D01*
X181470374Y-90906423D01*
X181334268Y-90815480D01*
X181218520Y-90699732D01*
X181127577Y-90563626D01*
X181127576Y-90563624D01*
X181064934Y-90412394D01*
X181033000Y-90251848D01*
X181033000Y-90088152D01*
X181064934Y-89927606D01*
X181127576Y-89776376D01*
X181128495Y-89775000D01*
X181218520Y-89640268D01*
X181334268Y-89524520D01*
X181470374Y-89433577D01*
X181470376Y-89433576D01*
X181621606Y-89370934D01*
X181782152Y-89339000D01*
X181945848Y-89339000D01*
X182106394Y-89370934D01*
X182106394Y-89370934D01*
G37*
G36*
X179566394Y-89370934D02*
G01*
X179717624Y-89433576D01*
X179717626Y-89433577D01*
X179853732Y-89524520D01*
X179969480Y-89640268D01*
X180059505Y-89775000D01*
X180060424Y-89776376D01*
X180123066Y-89927606D01*
X180155000Y-90088152D01*
X180155000Y-90251848D01*
X180123066Y-90412394D01*
X180060424Y-90563624D01*
X180060423Y-90563626D01*
X179969480Y-90699732D01*
X179853732Y-90815480D01*
X179717626Y-90906423D01*
X179717625Y-90906424D01*
X179717624Y-90906424D01*
X179566394Y-90969066D01*
X179405848Y-91001000D01*
X179242152Y-91001000D01*
X179081606Y-90969066D01*
X178930376Y-90906424D01*
X178930375Y-90906424D01*
X178930374Y-90906423D01*
X178794268Y-90815480D01*
X178678520Y-90699732D01*
X178587577Y-90563626D01*
X178587576Y-90563624D01*
X178524934Y-90412394D01*
X178493000Y-90251848D01*
X178493000Y-90088152D01*
X178524934Y-89927606D01*
X178587576Y-89776376D01*
X178588495Y-89775000D01*
X178678520Y-89640268D01*
X178794268Y-89524520D01*
X178930374Y-89433577D01*
X178930376Y-89433576D01*
X179081606Y-89370934D01*
X179242152Y-89339000D01*
X179405848Y-89339000D01*
X179566394Y-89370934D01*
X179566394Y-89370934D01*
G37*
G36*
X171946394Y-89370934D02*
G01*
X172097624Y-89433576D01*
X172097626Y-89433577D01*
X172233732Y-89524520D01*
X172349480Y-89640268D01*
X172439505Y-89775000D01*
X172440424Y-89776376D01*
X172503066Y-89927606D01*
X172535000Y-90088152D01*
X172535000Y-90251848D01*
X172503066Y-90412394D01*
X172440424Y-90563624D01*
X172440423Y-90563626D01*
X172349480Y-90699732D01*
X172233732Y-90815480D01*
X172097626Y-90906423D01*
X172097625Y-90906424D01*
X172097624Y-90906424D01*
X171946394Y-90969066D01*
X171785848Y-91001000D01*
X171622152Y-91001000D01*
X171461606Y-90969066D01*
X171310376Y-90906424D01*
X171310375Y-90906424D01*
X171310374Y-90906423D01*
X171174268Y-90815480D01*
X171058520Y-90699732D01*
X170967577Y-90563626D01*
X170967576Y-90563624D01*
X170904934Y-90412394D01*
X170873000Y-90251848D01*
X170873000Y-90088152D01*
X170904934Y-89927606D01*
X170967576Y-89776376D01*
X170968495Y-89775000D01*
X171058520Y-89640268D01*
X171174268Y-89524520D01*
X171310374Y-89433577D01*
X171310376Y-89433576D01*
X171461606Y-89370934D01*
X171622152Y-89339000D01*
X171785848Y-89339000D01*
X171946394Y-89370934D01*
X171946394Y-89370934D01*
G37*
G36*
X177026394Y-89370934D02*
G01*
X177177624Y-89433576D01*
X177177626Y-89433577D01*
X177313732Y-89524520D01*
X177429480Y-89640268D01*
X177519505Y-89775000D01*
X177520424Y-89776376D01*
X177583066Y-89927606D01*
X177615000Y-90088152D01*
X177615000Y-90251848D01*
X177583066Y-90412394D01*
X177520424Y-90563624D01*
X177520423Y-90563626D01*
X177429480Y-90699732D01*
X177313732Y-90815480D01*
X177177626Y-90906423D01*
X177177625Y-90906424D01*
X177177624Y-90906424D01*
X177026394Y-90969066D01*
X176865848Y-91001000D01*
X176702152Y-91001000D01*
X176541606Y-90969066D01*
X176390376Y-90906424D01*
X176390375Y-90906424D01*
X176390374Y-90906423D01*
X176254268Y-90815480D01*
X176138520Y-90699732D01*
X176047577Y-90563626D01*
X176047576Y-90563624D01*
X175984934Y-90412394D01*
X175953000Y-90251848D01*
X175953000Y-90088152D01*
X175984934Y-89927606D01*
X176047576Y-89776376D01*
X176048495Y-89775000D01*
X176138520Y-89640268D01*
X176254268Y-89524520D01*
X176390374Y-89433577D01*
X176390376Y-89433576D01*
X176541606Y-89370934D01*
X176702152Y-89339000D01*
X176865848Y-89339000D01*
X177026394Y-89370934D01*
X177026394Y-89370934D01*
G37*
G36*
X169406394Y-89370934D02*
G01*
X169557624Y-89433576D01*
X169557626Y-89433577D01*
X169693732Y-89524520D01*
X169809480Y-89640268D01*
X169899505Y-89775000D01*
X169900424Y-89776376D01*
X169963066Y-89927606D01*
X169995000Y-90088152D01*
X169995000Y-90251848D01*
X169963066Y-90412394D01*
X169900424Y-90563624D01*
X169900423Y-90563626D01*
X169809480Y-90699732D01*
X169693732Y-90815480D01*
X169557626Y-90906423D01*
X169557625Y-90906424D01*
X169557624Y-90906424D01*
X169406394Y-90969066D01*
X169245848Y-91001000D01*
X169082152Y-91001000D01*
X168921606Y-90969066D01*
X168770376Y-90906424D01*
X168770375Y-90906424D01*
X168770374Y-90906423D01*
X168634268Y-90815480D01*
X168518520Y-90699732D01*
X168427577Y-90563626D01*
X168427576Y-90563624D01*
X168364934Y-90412394D01*
X168333000Y-90251848D01*
X168333000Y-90088152D01*
X168364934Y-89927606D01*
X168427576Y-89776376D01*
X168428495Y-89775000D01*
X168518520Y-89640268D01*
X168634268Y-89524520D01*
X168770374Y-89433577D01*
X168770376Y-89433576D01*
X168921606Y-89370934D01*
X169082152Y-89339000D01*
X169245848Y-89339000D01*
X169406394Y-89370934D01*
X169406394Y-89370934D01*
G37*
G36*
X174486394Y-89370934D02*
G01*
X174637624Y-89433576D01*
X174637626Y-89433577D01*
X174773732Y-89524520D01*
X174889480Y-89640268D01*
X174979505Y-89775000D01*
X174980424Y-89776376D01*
X175043066Y-89927606D01*
X175075000Y-90088152D01*
X175075000Y-90251848D01*
X175043066Y-90412394D01*
X174980424Y-90563624D01*
X174980423Y-90563626D01*
X174889480Y-90699732D01*
X174773732Y-90815480D01*
X174637626Y-90906423D01*
X174637625Y-90906424D01*
X174637624Y-90906424D01*
X174486394Y-90969066D01*
X174325848Y-91001000D01*
X174162152Y-91001000D01*
X174001606Y-90969066D01*
X173850376Y-90906424D01*
X173850375Y-90906424D01*
X173850374Y-90906423D01*
X173714268Y-90815480D01*
X173598520Y-90699732D01*
X173507577Y-90563626D01*
X173507576Y-90563624D01*
X173444934Y-90412394D01*
X173413000Y-90251848D01*
X173413000Y-90088152D01*
X173444934Y-89927606D01*
X173507576Y-89776376D01*
X173508495Y-89775000D01*
X173598520Y-89640268D01*
X173714268Y-89524520D01*
X173850374Y-89433577D01*
X173850376Y-89433576D01*
X174001606Y-89370934D01*
X174162152Y-89339000D01*
X174325848Y-89339000D01*
X174486394Y-89370934D01*
X174486394Y-89370934D01*
G37*
G36*
X151626394Y-89370934D02*
G01*
X151777624Y-89433576D01*
X151777626Y-89433577D01*
X151913732Y-89524520D01*
X152029480Y-89640268D01*
X152119505Y-89775000D01*
X152120424Y-89776376D01*
X152183066Y-89927606D01*
X152215000Y-90088152D01*
X152215000Y-90251848D01*
X152183066Y-90412394D01*
X152120424Y-90563624D01*
X152120423Y-90563626D01*
X152029480Y-90699732D01*
X151913732Y-90815480D01*
X151777626Y-90906423D01*
X151777625Y-90906424D01*
X151777624Y-90906424D01*
X151626394Y-90969066D01*
X151465848Y-91001000D01*
X151302152Y-91001000D01*
X151141606Y-90969066D01*
X150990376Y-90906424D01*
X150990375Y-90906424D01*
X150990374Y-90906423D01*
X150854268Y-90815480D01*
X150738520Y-90699732D01*
X150647577Y-90563626D01*
X150647576Y-90563624D01*
X150584934Y-90412394D01*
X150553000Y-90251848D01*
X150553000Y-90088152D01*
X150584934Y-89927606D01*
X150647576Y-89776376D01*
X150648495Y-89775000D01*
X150738520Y-89640268D01*
X150854268Y-89524520D01*
X150990374Y-89433577D01*
X150990376Y-89433576D01*
X151141606Y-89370934D01*
X151302152Y-89339000D01*
X151465848Y-89339000D01*
X151626394Y-89370934D01*
X151626394Y-89370934D01*
G37*
G36*
X154166394Y-89370934D02*
G01*
X154317624Y-89433576D01*
X154317626Y-89433577D01*
X154453732Y-89524520D01*
X154569480Y-89640268D01*
X154659505Y-89775000D01*
X154660424Y-89776376D01*
X154723066Y-89927606D01*
X154755000Y-90088152D01*
X154755000Y-90251848D01*
X154723066Y-90412394D01*
X154660424Y-90563624D01*
X154660423Y-90563626D01*
X154569480Y-90699732D01*
X154453732Y-90815480D01*
X154317626Y-90906423D01*
X154317625Y-90906424D01*
X154317624Y-90906424D01*
X154166394Y-90969066D01*
X154005848Y-91001000D01*
X153842152Y-91001000D01*
X153681606Y-90969066D01*
X153530376Y-90906424D01*
X153530375Y-90906424D01*
X153530374Y-90906423D01*
X153394268Y-90815480D01*
X153278520Y-90699732D01*
X153187577Y-90563626D01*
X153187576Y-90563624D01*
X153124934Y-90412394D01*
X153093000Y-90251848D01*
X153093000Y-90088152D01*
X153124934Y-89927606D01*
X153187576Y-89776376D01*
X153188495Y-89775000D01*
X153278520Y-89640268D01*
X153394268Y-89524520D01*
X153530374Y-89433577D01*
X153530376Y-89433576D01*
X153681606Y-89370934D01*
X153842152Y-89339000D01*
X154005848Y-89339000D01*
X154166394Y-89370934D01*
X154166394Y-89370934D01*
G37*
G36*
X156706394Y-89370934D02*
G01*
X156857624Y-89433576D01*
X156857626Y-89433577D01*
X156993732Y-89524520D01*
X157109480Y-89640268D01*
X157199505Y-89775000D01*
X157200424Y-89776376D01*
X157263066Y-89927606D01*
X157295000Y-90088152D01*
X157295000Y-90251848D01*
X157263066Y-90412394D01*
X157200424Y-90563624D01*
X157200423Y-90563626D01*
X157109480Y-90699732D01*
X156993732Y-90815480D01*
X156857626Y-90906423D01*
X156857625Y-90906424D01*
X156857624Y-90906424D01*
X156706394Y-90969066D01*
X156545848Y-91001000D01*
X156382152Y-91001000D01*
X156221606Y-90969066D01*
X156070376Y-90906424D01*
X156070375Y-90906424D01*
X156070374Y-90906423D01*
X155934268Y-90815480D01*
X155818520Y-90699732D01*
X155727577Y-90563626D01*
X155727576Y-90563624D01*
X155664934Y-90412394D01*
X155633000Y-90251848D01*
X155633000Y-90088152D01*
X155664934Y-89927606D01*
X155727576Y-89776376D01*
X155728495Y-89775000D01*
X155818520Y-89640268D01*
X155934268Y-89524520D01*
X156070374Y-89433577D01*
X156070376Y-89433576D01*
X156221606Y-89370934D01*
X156382152Y-89339000D01*
X156545848Y-89339000D01*
X156706394Y-89370934D01*
X156706394Y-89370934D01*
G37*
G36*
X161786394Y-89370934D02*
G01*
X161937624Y-89433576D01*
X161937626Y-89433577D01*
X162073732Y-89524520D01*
X162189480Y-89640268D01*
X162279505Y-89775000D01*
X162280424Y-89776376D01*
X162343066Y-89927606D01*
X162375000Y-90088152D01*
X162375000Y-90251848D01*
X162343066Y-90412394D01*
X162280424Y-90563624D01*
X162280423Y-90563626D01*
X162189480Y-90699732D01*
X162073732Y-90815480D01*
X161937626Y-90906423D01*
X161937625Y-90906424D01*
X161937624Y-90906424D01*
X161786394Y-90969066D01*
X161625848Y-91001000D01*
X161462152Y-91001000D01*
X161301606Y-90969066D01*
X161150376Y-90906424D01*
X161150375Y-90906424D01*
X161150374Y-90906423D01*
X161014268Y-90815480D01*
X160898520Y-90699732D01*
X160807577Y-90563626D01*
X160807576Y-90563624D01*
X160744934Y-90412394D01*
X160713000Y-90251848D01*
X160713000Y-90088152D01*
X160744934Y-89927606D01*
X160807576Y-89776376D01*
X160808495Y-89775000D01*
X160898520Y-89640268D01*
X161014268Y-89524520D01*
X161150374Y-89433577D01*
X161150376Y-89433576D01*
X161301606Y-89370934D01*
X161462152Y-89339000D01*
X161625848Y-89339000D01*
X161786394Y-89370934D01*
X161786394Y-89370934D01*
G37*
G36*
X164326394Y-89370934D02*
G01*
X164477624Y-89433576D01*
X164477626Y-89433577D01*
X164613732Y-89524520D01*
X164729480Y-89640268D01*
X164819505Y-89775000D01*
X164820424Y-89776376D01*
X164883066Y-89927606D01*
X164915000Y-90088152D01*
X164915000Y-90251848D01*
X164883066Y-90412394D01*
X164820424Y-90563624D01*
X164820423Y-90563626D01*
X164729480Y-90699732D01*
X164613732Y-90815480D01*
X164477626Y-90906423D01*
X164477625Y-90906424D01*
X164477624Y-90906424D01*
X164326394Y-90969066D01*
X164165848Y-91001000D01*
X164002152Y-91001000D01*
X163841606Y-90969066D01*
X163690376Y-90906424D01*
X163690375Y-90906424D01*
X163690374Y-90906423D01*
X163554268Y-90815480D01*
X163438520Y-90699732D01*
X163347577Y-90563626D01*
X163347576Y-90563624D01*
X163284934Y-90412394D01*
X163253000Y-90251848D01*
X163253000Y-90088152D01*
X163284934Y-89927606D01*
X163347576Y-89776376D01*
X163348495Y-89775000D01*
X163438520Y-89640268D01*
X163554268Y-89524520D01*
X163690374Y-89433577D01*
X163690376Y-89433576D01*
X163841606Y-89370934D01*
X164002152Y-89339000D01*
X164165848Y-89339000D01*
X164326394Y-89370934D01*
X164326394Y-89370934D01*
G37*
G36*
X166866394Y-89370934D02*
G01*
X167017624Y-89433576D01*
X167017626Y-89433577D01*
X167153732Y-89524520D01*
X167269480Y-89640268D01*
X167359505Y-89775000D01*
X167360424Y-89776376D01*
X167423066Y-89927606D01*
X167455000Y-90088152D01*
X167455000Y-90251848D01*
X167423066Y-90412394D01*
X167360424Y-90563624D01*
X167360423Y-90563626D01*
X167269480Y-90699732D01*
X167153732Y-90815480D01*
X167017626Y-90906423D01*
X167017625Y-90906424D01*
X167017624Y-90906424D01*
X166866394Y-90969066D01*
X166705848Y-91001000D01*
X166542152Y-91001000D01*
X166381606Y-90969066D01*
X166230376Y-90906424D01*
X166230375Y-90906424D01*
X166230374Y-90906423D01*
X166094268Y-90815480D01*
X165978520Y-90699732D01*
X165887577Y-90563626D01*
X165887576Y-90563624D01*
X165824934Y-90412394D01*
X165793000Y-90251848D01*
X165793000Y-90088152D01*
X165824934Y-89927606D01*
X165887576Y-89776376D01*
X165888495Y-89775000D01*
X165978520Y-89640268D01*
X166094268Y-89524520D01*
X166230374Y-89433577D01*
X166230376Y-89433576D01*
X166381606Y-89370934D01*
X166542152Y-89339000D01*
X166705848Y-89339000D01*
X166866394Y-89370934D01*
X166866394Y-89370934D01*
G37*
G36*
X159246394Y-89370934D02*
G01*
X159397624Y-89433576D01*
X159397626Y-89433577D01*
X159533732Y-89524520D01*
X159649480Y-89640268D01*
X159739505Y-89775000D01*
X159740424Y-89776376D01*
X159803066Y-89927606D01*
X159835000Y-90088152D01*
X159835000Y-90251848D01*
X159803066Y-90412394D01*
X159740424Y-90563624D01*
X159740423Y-90563626D01*
X159649480Y-90699732D01*
X159533732Y-90815480D01*
X159397626Y-90906423D01*
X159397625Y-90906424D01*
X159397624Y-90906424D01*
X159246394Y-90969066D01*
X159085848Y-91001000D01*
X158922152Y-91001000D01*
X158761606Y-90969066D01*
X158610376Y-90906424D01*
X158610375Y-90906424D01*
X158610374Y-90906423D01*
X158474268Y-90815480D01*
X158358520Y-90699732D01*
X158267577Y-90563626D01*
X158267576Y-90563624D01*
X158204934Y-90412394D01*
X158173000Y-90251848D01*
X158173000Y-90088152D01*
X158204934Y-89927606D01*
X158267576Y-89776376D01*
X158268495Y-89775000D01*
X158358520Y-89640268D01*
X158474268Y-89524520D01*
X158610374Y-89433577D01*
X158610376Y-89433576D01*
X158761606Y-89370934D01*
X158922152Y-89339000D01*
X159085848Y-89339000D01*
X159246394Y-89370934D01*
X159246394Y-89370934D01*
G37*
G36*
X145001000Y-90477000D02*
G01*
X142899000Y-90477000D01*
X142899000Y-89775000D01*
X145001000Y-89775000D01*
X145001000Y-90477000D01*
X145001000Y-90477000D01*
G37*
G36*
X145001000Y-89477000D02*
G01*
X142899000Y-89477000D01*
X142899000Y-88775000D01*
X145001000Y-88775000D01*
X145001000Y-89477000D01*
X145001000Y-89477000D01*
G37*
G36*
X145001000Y-88477000D02*
G01*
X142899000Y-88477000D01*
X142899000Y-87775000D01*
X145001000Y-87775000D01*
X145001000Y-88477000D01*
X145001000Y-88477000D01*
G37*
G36*
X183244443Y-85846519D02*
G01*
X183310627Y-85853037D01*
X183480466Y-85904557D01*
X183636991Y-85988222D01*
X183672729Y-86017552D01*
X183774186Y-86100814D01*
X183857448Y-86202271D01*
X183886778Y-86238009D01*
X183970443Y-86394534D01*
X184021963Y-86564373D01*
X184039359Y-86741000D01*
X184021963Y-86917627D01*
X183970443Y-87087466D01*
X183886778Y-87243991D01*
X183857448Y-87279729D01*
X183774186Y-87381186D01*
X183672729Y-87464448D01*
X183636991Y-87493778D01*
X183480466Y-87577443D01*
X183310627Y-87628963D01*
X183244442Y-87635482D01*
X183178260Y-87642000D01*
X183089740Y-87642000D01*
X183023558Y-87635482D01*
X182957373Y-87628963D01*
X182787534Y-87577443D01*
X182631009Y-87493778D01*
X182595271Y-87464448D01*
X182493814Y-87381186D01*
X182410552Y-87279729D01*
X182381222Y-87243991D01*
X182297557Y-87087466D01*
X182246037Y-86917627D01*
X182228641Y-86741000D01*
X182246037Y-86564373D01*
X182297557Y-86394534D01*
X182381222Y-86238009D01*
X182410552Y-86202271D01*
X182493814Y-86100814D01*
X182595271Y-86017552D01*
X182631009Y-85988222D01*
X182787534Y-85904557D01*
X182957373Y-85853037D01*
X183023557Y-85846519D01*
X183089740Y-85840000D01*
X183178260Y-85840000D01*
X183244443Y-85846519D01*
X183244443Y-85846519D01*
G37*
G36*
X181495000Y-87642000D02*
G01*
X179693000Y-87642000D01*
X179693000Y-85840000D01*
X181495000Y-85840000D01*
X181495000Y-87642000D01*
X181495000Y-87642000D01*
G37*
G36*
X145001000Y-87477000D02*
G01*
X142899000Y-87477000D01*
X142899000Y-86775000D01*
X145001000Y-86775000D01*
X145001000Y-87477000D01*
X145001000Y-87477000D01*
G37*
G36*
X172107000Y-87226000D02*
G01*
X170705000Y-87226000D01*
X170705000Y-85824000D01*
X172107000Y-85824000D01*
X172107000Y-87226000D01*
X172107000Y-87226000D01*
G37*
G36*
X175448999Y-85559737D02*
G01*
X175458608Y-85562652D01*
X175467472Y-85567390D01*
X175475237Y-85573763D01*
X175485884Y-85586737D01*
X175492053Y-85595968D01*
X175509381Y-85613294D01*
X175529756Y-85626907D01*
X175552395Y-85636283D01*
X175576428Y-85641063D01*
X175600932Y-85641062D01*
X175624965Y-85636280D01*
X175647604Y-85626902D01*
X175667978Y-85613287D01*
X175685304Y-85595959D01*
X175692175Y-85586683D01*
X175702726Y-85573800D01*
X175704103Y-85572668D01*
X175710484Y-85567419D01*
X175719339Y-85562674D01*
X175722377Y-85561749D01*
X175728915Y-85559758D01*
X175728918Y-85559758D01*
X175728950Y-85559748D01*
X175739000Y-85558753D01*
X175739065Y-85558753D01*
X175745175Y-85558148D01*
X176732860Y-85558148D01*
X176748999Y-85559737D01*
X176758608Y-85562652D01*
X176767472Y-85567390D01*
X176775237Y-85573763D01*
X176781610Y-85581528D01*
X176786348Y-85590392D01*
X176789263Y-85600001D01*
X176790852Y-85616140D01*
X176790852Y-87103860D01*
X176789263Y-87119999D01*
X176786348Y-87129608D01*
X176781610Y-87138472D01*
X176775237Y-87146237D01*
X176767472Y-87152610D01*
X176758608Y-87157348D01*
X176748999Y-87160263D01*
X176732860Y-87161852D01*
X175745140Y-87161852D01*
X175729001Y-87160263D01*
X175719392Y-87157348D01*
X175710528Y-87152610D01*
X175702788Y-87146258D01*
X175702787Y-87146257D01*
X175702763Y-87146237D01*
X175696360Y-87138427D01*
X175696323Y-87138372D01*
X175688520Y-87128853D01*
X175688489Y-87128878D01*
X175677147Y-87115028D01*
X175658221Y-87099463D01*
X175636623Y-87087889D01*
X175613181Y-87080751D01*
X175588798Y-87078324D01*
X175564409Y-87080700D01*
X175540953Y-87087789D01*
X175519330Y-87099318D01*
X175500372Y-87114843D01*
X175484807Y-87133769D01*
X175482971Y-87136825D01*
X175481582Y-87138514D01*
X175481581Y-87138516D01*
X175476485Y-87144712D01*
X175475200Y-87146274D01*
X175467425Y-87152642D01*
X175461517Y-87155791D01*
X175458562Y-87157367D01*
X175448981Y-87160262D01*
X175448915Y-87160282D01*
X175432887Y-87161852D01*
X174295140Y-87161852D01*
X174279001Y-87160263D01*
X174269392Y-87157348D01*
X174260528Y-87152610D01*
X174252763Y-87146237D01*
X174246390Y-87138472D01*
X174241652Y-87129608D01*
X174238737Y-87119999D01*
X174237148Y-87103860D01*
X174237148Y-85616140D01*
X174238737Y-85600001D01*
X174241652Y-85590392D01*
X174246390Y-85581528D01*
X174252763Y-85573763D01*
X174260528Y-85567390D01*
X174269392Y-85562652D01*
X174279001Y-85559737D01*
X174295140Y-85558148D01*
X175432860Y-85558148D01*
X175448999Y-85559737D01*
X175448999Y-85559737D01*
G37*
G36*
X159114443Y-85211519D02*
G01*
X159180627Y-85218037D01*
X159350466Y-85269557D01*
X159506991Y-85353222D01*
X159542729Y-85382552D01*
X159644186Y-85465814D01*
X159719961Y-85558148D01*
X159756778Y-85603009D01*
X159840443Y-85759534D01*
X159891963Y-85929373D01*
X159909359Y-86106000D01*
X159891963Y-86282627D01*
X159840443Y-86452466D01*
X159756778Y-86608991D01*
X159727448Y-86644729D01*
X159644186Y-86746186D01*
X159542729Y-86829448D01*
X159506991Y-86858778D01*
X159350466Y-86942443D01*
X159180627Y-86993963D01*
X159114442Y-87000482D01*
X159048260Y-87007000D01*
X158959740Y-87007000D01*
X158893558Y-87000482D01*
X158827373Y-86993963D01*
X158657534Y-86942443D01*
X158501009Y-86858778D01*
X158465271Y-86829448D01*
X158363814Y-86746186D01*
X158280552Y-86644729D01*
X158251222Y-86608991D01*
X158167557Y-86452466D01*
X158116037Y-86282627D01*
X158098641Y-86106000D01*
X158116037Y-85929373D01*
X158167557Y-85759534D01*
X158251222Y-85603009D01*
X158288039Y-85558148D01*
X158363814Y-85465814D01*
X158465271Y-85382552D01*
X158501009Y-85353222D01*
X158657534Y-85269557D01*
X158827373Y-85218037D01*
X158893557Y-85211519D01*
X158959740Y-85205000D01*
X159048260Y-85205000D01*
X159114443Y-85211519D01*
X159114443Y-85211519D01*
G37*
G36*
X152285000Y-87007000D02*
G01*
X150483000Y-87007000D01*
X150483000Y-85205000D01*
X152285000Y-85205000D01*
X152285000Y-87007000D01*
X152285000Y-87007000D01*
G37*
G36*
X154034443Y-85211519D02*
G01*
X154100627Y-85218037D01*
X154270466Y-85269557D01*
X154426991Y-85353222D01*
X154462729Y-85382552D01*
X154564186Y-85465814D01*
X154639961Y-85558148D01*
X154676778Y-85603009D01*
X154760443Y-85759534D01*
X154811963Y-85929373D01*
X154829359Y-86106000D01*
X154811963Y-86282627D01*
X154760443Y-86452466D01*
X154676778Y-86608991D01*
X154647448Y-86644729D01*
X154564186Y-86746186D01*
X154462729Y-86829448D01*
X154426991Y-86858778D01*
X154270466Y-86942443D01*
X154100627Y-86993963D01*
X154034442Y-87000482D01*
X153968260Y-87007000D01*
X153879740Y-87007000D01*
X153813558Y-87000482D01*
X153747373Y-86993963D01*
X153577534Y-86942443D01*
X153421009Y-86858778D01*
X153385271Y-86829448D01*
X153283814Y-86746186D01*
X153200552Y-86644729D01*
X153171222Y-86608991D01*
X153087557Y-86452466D01*
X153036037Y-86282627D01*
X153018641Y-86106000D01*
X153036037Y-85929373D01*
X153087557Y-85759534D01*
X153171222Y-85603009D01*
X153208039Y-85558148D01*
X153283814Y-85465814D01*
X153385271Y-85382552D01*
X153421009Y-85353222D01*
X153577534Y-85269557D01*
X153747373Y-85218037D01*
X153813557Y-85211519D01*
X153879740Y-85205000D01*
X153968260Y-85205000D01*
X154034443Y-85211519D01*
X154034443Y-85211519D01*
G37*
G36*
X156574443Y-85211519D02*
G01*
X156640627Y-85218037D01*
X156810466Y-85269557D01*
X156966991Y-85353222D01*
X157002729Y-85382552D01*
X157104186Y-85465814D01*
X157179961Y-85558148D01*
X157216778Y-85603009D01*
X157300443Y-85759534D01*
X157351963Y-85929373D01*
X157369359Y-86106000D01*
X157351963Y-86282627D01*
X157300443Y-86452466D01*
X157216778Y-86608991D01*
X157187448Y-86644729D01*
X157104186Y-86746186D01*
X157002729Y-86829448D01*
X156966991Y-86858778D01*
X156810466Y-86942443D01*
X156640627Y-86993963D01*
X156574442Y-87000482D01*
X156508260Y-87007000D01*
X156419740Y-87007000D01*
X156353558Y-87000482D01*
X156287373Y-86993963D01*
X156117534Y-86942443D01*
X155961009Y-86858778D01*
X155925271Y-86829448D01*
X155823814Y-86746186D01*
X155740552Y-86644729D01*
X155711222Y-86608991D01*
X155627557Y-86452466D01*
X155576037Y-86282627D01*
X155558641Y-86106000D01*
X155576037Y-85929373D01*
X155627557Y-85759534D01*
X155711222Y-85603009D01*
X155748039Y-85558148D01*
X155823814Y-85465814D01*
X155925271Y-85382552D01*
X155961009Y-85353222D01*
X156117534Y-85269557D01*
X156287373Y-85218037D01*
X156353557Y-85211519D01*
X156419740Y-85205000D01*
X156508260Y-85205000D01*
X156574443Y-85211519D01*
X156574443Y-85211519D01*
G37*
G36*
X195955256Y-83481298D02*
G01*
X196061579Y-83502447D01*
X196362042Y-83626903D01*
X196632451Y-83807585D01*
X196862415Y-84037549D01*
X196862416Y-84037551D01*
X197043098Y-84307960D01*
X197167553Y-84608422D01*
X197230724Y-84926000D01*
X197231000Y-84927391D01*
X197231000Y-85252609D01*
X197167553Y-85571579D01*
X197043097Y-85872042D01*
X196862415Y-86142451D01*
X196632451Y-86372415D01*
X196362042Y-86553097D01*
X196362041Y-86553098D01*
X196362040Y-86553098D01*
X196334815Y-86564375D01*
X196061579Y-86677553D01*
X195955256Y-86698702D01*
X195742611Y-86741000D01*
X195417389Y-86741000D01*
X195204744Y-86698702D01*
X195098421Y-86677553D01*
X194825185Y-86564375D01*
X194797960Y-86553098D01*
X194797959Y-86553098D01*
X194797958Y-86553097D01*
X194527549Y-86372415D01*
X194297585Y-86142451D01*
X194116903Y-85872042D01*
X193992447Y-85571579D01*
X193929000Y-85252609D01*
X193929000Y-84927391D01*
X193929277Y-84926000D01*
X193992447Y-84608422D01*
X194116902Y-84307960D01*
X194297584Y-84037551D01*
X194297585Y-84037549D01*
X194527549Y-83807585D01*
X194797958Y-83626903D01*
X195098421Y-83502447D01*
X195204744Y-83481298D01*
X195417389Y-83439000D01*
X195742611Y-83439000D01*
X195955256Y-83481298D01*
X195955256Y-83481298D01*
G37*
G36*
X145001000Y-86477000D02*
G01*
X143149000Y-86477000D01*
X143149000Y-85775000D01*
X145001000Y-85775000D01*
X145001000Y-86477000D01*
X145001000Y-86477000D01*
G37*
G36*
X166957000Y-86076000D02*
G01*
X164855000Y-86076000D01*
X164855000Y-84674000D01*
X166957000Y-84674000D01*
X166957000Y-86076000D01*
X166957000Y-86076000D01*
G37*
G36*
X129971000Y-85727000D02*
G01*
X129269000Y-85727000D01*
X129269000Y-83625000D01*
X129971000Y-83625000D01*
X129971000Y-85727000D01*
X129971000Y-85727000D01*
G37*
G36*
X130971000Y-85727000D02*
G01*
X130269000Y-85727000D01*
X130269000Y-83625000D01*
X130971000Y-83625000D01*
X130971000Y-85727000D01*
X130971000Y-85727000D01*
G37*
G36*
X132971000Y-85727000D02*
G01*
X132269000Y-85727000D01*
X132269000Y-83625000D01*
X132971000Y-83625000D01*
X132971000Y-85727000D01*
X132971000Y-85727000D01*
G37*
G36*
X140971000Y-85727000D02*
G01*
X140269000Y-85727000D01*
X140269000Y-83625000D01*
X140971000Y-83625000D01*
X140971000Y-85727000D01*
X140971000Y-85727000D01*
G37*
G36*
X133971000Y-85727000D02*
G01*
X133269000Y-85727000D01*
X133269000Y-83625000D01*
X133971000Y-83625000D01*
X133971000Y-85727000D01*
X133971000Y-85727000D01*
G37*
G36*
X131971000Y-85727000D02*
G01*
X131269000Y-85727000D01*
X131269000Y-83625000D01*
X131971000Y-83625000D01*
X131971000Y-85727000D01*
X131971000Y-85727000D01*
G37*
G36*
X136971000Y-85727000D02*
G01*
X136269000Y-85727000D01*
X136269000Y-83625000D01*
X136971000Y-83625000D01*
X136971000Y-85727000D01*
X136971000Y-85727000D01*
G37*
G36*
X124971000Y-85727000D02*
G01*
X124269000Y-85727000D01*
X124269000Y-83625000D01*
X124971000Y-83625000D01*
X124971000Y-85727000D01*
X124971000Y-85727000D01*
G37*
G36*
X125971000Y-85727000D02*
G01*
X125269000Y-85727000D01*
X125269000Y-83625000D01*
X125971000Y-83625000D01*
X125971000Y-85727000D01*
X125971000Y-85727000D01*
G37*
G36*
X126971000Y-85727000D02*
G01*
X126269000Y-85727000D01*
X126269000Y-83625000D01*
X126971000Y-83625000D01*
X126971000Y-85727000D01*
X126971000Y-85727000D01*
G37*
G36*
X138971000Y-85727000D02*
G01*
X138269000Y-85727000D01*
X138269000Y-83625000D01*
X138971000Y-83625000D01*
X138971000Y-85727000D01*
X138971000Y-85727000D01*
G37*
G36*
X127971000Y-85727000D02*
G01*
X127269000Y-85727000D01*
X127269000Y-83625000D01*
X127971000Y-83625000D01*
X127971000Y-85727000D01*
X127971000Y-85727000D01*
G37*
G36*
X134971000Y-85727000D02*
G01*
X134269000Y-85727000D01*
X134269000Y-83625000D01*
X134971000Y-83625000D01*
X134971000Y-85727000D01*
X134971000Y-85727000D01*
G37*
G36*
X128971000Y-85727000D02*
G01*
X128269000Y-85727000D01*
X128269000Y-83625000D01*
X128971000Y-83625000D01*
X128971000Y-85727000D01*
X128971000Y-85727000D01*
G37*
G36*
X139971000Y-85727000D02*
G01*
X139269000Y-85727000D01*
X139269000Y-83625000D01*
X139971000Y-83625000D01*
X139971000Y-85727000D01*
X139971000Y-85727000D01*
G37*
G36*
X141971000Y-85727000D02*
G01*
X141269000Y-85727000D01*
X141269000Y-83625000D01*
X141971000Y-83625000D01*
X141971000Y-85727000D01*
X141971000Y-85727000D01*
G37*
G36*
X135971000Y-85727000D02*
G01*
X135269000Y-85727000D01*
X135269000Y-83625000D01*
X135971000Y-83625000D01*
X135971000Y-85727000D01*
X135971000Y-85727000D01*
G37*
G36*
X137971000Y-85727000D02*
G01*
X137269000Y-85727000D01*
X137269000Y-83625000D01*
X137971000Y-83625000D01*
X137971000Y-85727000D01*
X137971000Y-85727000D01*
G37*
G36*
X123971000Y-85727000D02*
G01*
X123269000Y-85727000D01*
X123269000Y-83625000D01*
X123971000Y-83625000D01*
X123971000Y-85727000D01*
X123971000Y-85727000D01*
G37*
G36*
X142971000Y-85477000D02*
G01*
X142269000Y-85477000D01*
X142269000Y-83625000D01*
X142971000Y-83625000D01*
X142971000Y-85477000D01*
X142971000Y-85477000D01*
G37*
G36*
X172107000Y-84926000D02*
G01*
X170705000Y-84926000D01*
X170705000Y-83524000D01*
X172107000Y-83524000D01*
X172107000Y-84926000D01*
X172107000Y-84926000D01*
G37*
G36*
X190031000Y-84621000D02*
G01*
X188429000Y-84621000D01*
X188429000Y-83019000D01*
X190031000Y-83019000D01*
X190031000Y-84621000D01*
X190031000Y-84621000D01*
G37*
G36*
X162303999Y-81020737D02*
G01*
X162313608Y-81023652D01*
X162322472Y-81028390D01*
X162330237Y-81034763D01*
X162336610Y-81042528D01*
X162341348Y-81051392D01*
X162344263Y-81061001D01*
X162345852Y-81077140D01*
X162345852Y-82064860D01*
X162344263Y-82080999D01*
X162341348Y-82090608D01*
X162336610Y-82099472D01*
X162330258Y-82107212D01*
X162330237Y-82107237D01*
X162322427Y-82113640D01*
X162322372Y-82113677D01*
X162312853Y-82121480D01*
X162312878Y-82121511D01*
X162299028Y-82132853D01*
X162283463Y-82151779D01*
X162271889Y-82173377D01*
X162264751Y-82196819D01*
X162262324Y-82221202D01*
X162264700Y-82245591D01*
X162271789Y-82269047D01*
X162283318Y-82290670D01*
X162298843Y-82309628D01*
X162317769Y-82325193D01*
X162320825Y-82327029D01*
X162322514Y-82328418D01*
X162322516Y-82328419D01*
X162328712Y-82333515D01*
X162330274Y-82334800D01*
X162336642Y-82342575D01*
X162339791Y-82348483D01*
X162341367Y-82351438D01*
X162344257Y-82361001D01*
X162344282Y-82361085D01*
X162345852Y-82377113D01*
X162345852Y-83514860D01*
X162344263Y-83530999D01*
X162341348Y-83540608D01*
X162336610Y-83549472D01*
X162330237Y-83557237D01*
X162322472Y-83563610D01*
X162313608Y-83568348D01*
X162303999Y-83571263D01*
X162287860Y-83572852D01*
X160800140Y-83572852D01*
X160784001Y-83571263D01*
X160774392Y-83568348D01*
X160765528Y-83563610D01*
X160757763Y-83557237D01*
X160751390Y-83549472D01*
X160746652Y-83540608D01*
X160743737Y-83530999D01*
X160742148Y-83514860D01*
X160742148Y-82377140D01*
X160743737Y-82361001D01*
X160746652Y-82351392D01*
X160751390Y-82342528D01*
X160757763Y-82334763D01*
X160770737Y-82324116D01*
X160779968Y-82317947D01*
X160797294Y-82300619D01*
X160810907Y-82280244D01*
X160820283Y-82257605D01*
X160825063Y-82233572D01*
X160825062Y-82209068D01*
X160820280Y-82185035D01*
X160810902Y-82162396D01*
X160797287Y-82142022D01*
X160779959Y-82124696D01*
X160770683Y-82117825D01*
X160757800Y-82107274D01*
X160756668Y-82105897D01*
X160751419Y-82099516D01*
X160746674Y-82090661D01*
X160745749Y-82087623D01*
X160743758Y-82081085D01*
X160743758Y-82081082D01*
X160743748Y-82081050D01*
X160742753Y-82071000D01*
X160742753Y-82070935D01*
X160742148Y-82064825D01*
X160742148Y-81077140D01*
X160743737Y-81061001D01*
X160746652Y-81051392D01*
X160751390Y-81042528D01*
X160757763Y-81034763D01*
X160765528Y-81028390D01*
X160774392Y-81023652D01*
X160784001Y-81020737D01*
X160800140Y-81019148D01*
X162287860Y-81019148D01*
X162303999Y-81020737D01*
X162303999Y-81020737D01*
G37*
G36*
X186923642Y-81779781D02*
G01*
X187053248Y-81833466D01*
X187069416Y-81840163D01*
X187200608Y-81927822D01*
X187312178Y-82039392D01*
X187387272Y-82151779D01*
X187399838Y-82170586D01*
X187460219Y-82316358D01*
X187491000Y-82471107D01*
X187491000Y-82628893D01*
X187460219Y-82783642D01*
X187441876Y-82827925D01*
X187399837Y-82929416D01*
X187312178Y-83060608D01*
X187200608Y-83172178D01*
X187069416Y-83259837D01*
X187069415Y-83259838D01*
X187069414Y-83259838D01*
X186923642Y-83320219D01*
X186768893Y-83351000D01*
X186611107Y-83351000D01*
X186456358Y-83320219D01*
X186310586Y-83259838D01*
X186310585Y-83259838D01*
X186310584Y-83259837D01*
X186179392Y-83172178D01*
X186067822Y-83060608D01*
X185980163Y-82929416D01*
X185938124Y-82827925D01*
X185919781Y-82783642D01*
X185889000Y-82628893D01*
X185889000Y-82471107D01*
X185919781Y-82316358D01*
X185980162Y-82170586D01*
X185992728Y-82151779D01*
X186067822Y-82039392D01*
X186179392Y-81927822D01*
X186310584Y-81840163D01*
X186326752Y-81833466D01*
X186456358Y-81779781D01*
X186611107Y-81749000D01*
X186768893Y-81749000D01*
X186923642Y-81779781D01*
X186923642Y-81779781D01*
G37*
G36*
X181843642Y-81779781D02*
G01*
X181973248Y-81833466D01*
X181989416Y-81840163D01*
X182120608Y-81927822D01*
X182232178Y-82039392D01*
X182307272Y-82151779D01*
X182319838Y-82170586D01*
X182380219Y-82316358D01*
X182411000Y-82471107D01*
X182411000Y-82628893D01*
X182380219Y-82783642D01*
X182361876Y-82827925D01*
X182319837Y-82929416D01*
X182232178Y-83060608D01*
X182120608Y-83172178D01*
X181989416Y-83259837D01*
X181989415Y-83259838D01*
X181989414Y-83259838D01*
X181843642Y-83320219D01*
X181688893Y-83351000D01*
X181531107Y-83351000D01*
X181376358Y-83320219D01*
X181230586Y-83259838D01*
X181230585Y-83259838D01*
X181230584Y-83259837D01*
X181099392Y-83172178D01*
X180987822Y-83060608D01*
X180900163Y-82929416D01*
X180858124Y-82827925D01*
X180839781Y-82783642D01*
X180809000Y-82628893D01*
X180809000Y-82471107D01*
X180839781Y-82316358D01*
X180900162Y-82170586D01*
X180912728Y-82151779D01*
X180987822Y-82039392D01*
X181099392Y-81927822D01*
X181230584Y-81840163D01*
X181246752Y-81833466D01*
X181376358Y-81779781D01*
X181531107Y-81749000D01*
X181688893Y-81749000D01*
X181843642Y-81779781D01*
X181843642Y-81779781D01*
G37*
G36*
X174689674Y-81803465D02*
G01*
X174727367Y-81814899D01*
X174762103Y-81833466D01*
X174792548Y-81858452D01*
X174817534Y-81888897D01*
X174836101Y-81923633D01*
X174847535Y-81961326D01*
X174852000Y-82006661D01*
X174852000Y-83093339D01*
X174847535Y-83138674D01*
X174836101Y-83176367D01*
X174817534Y-83211103D01*
X174792548Y-83241548D01*
X174762103Y-83266534D01*
X174727367Y-83285101D01*
X174689674Y-83296535D01*
X174644339Y-83301000D01*
X173807661Y-83301000D01*
X173762326Y-83296535D01*
X173724633Y-83285101D01*
X173689897Y-83266534D01*
X173659452Y-83241548D01*
X173634466Y-83211103D01*
X173615899Y-83176367D01*
X173604465Y-83138674D01*
X173600000Y-83093339D01*
X173600000Y-82006661D01*
X173604465Y-81961326D01*
X173615899Y-81923633D01*
X173634466Y-81888897D01*
X173659452Y-81858452D01*
X173689897Y-81833466D01*
X173724633Y-81814899D01*
X173762326Y-81803465D01*
X173807661Y-81799000D01*
X174644339Y-81799000D01*
X174689674Y-81803465D01*
X174689674Y-81803465D01*
G37*
G36*
X176739674Y-81803465D02*
G01*
X176777367Y-81814899D01*
X176812103Y-81833466D01*
X176842548Y-81858452D01*
X176867534Y-81888897D01*
X176886101Y-81923633D01*
X176897535Y-81961326D01*
X176902000Y-82006661D01*
X176902000Y-83093339D01*
X176897535Y-83138674D01*
X176886101Y-83176367D01*
X176867534Y-83211103D01*
X176842548Y-83241548D01*
X176812103Y-83266534D01*
X176777367Y-83285101D01*
X176739674Y-83296535D01*
X176694339Y-83301000D01*
X175857661Y-83301000D01*
X175812326Y-83296535D01*
X175774633Y-83285101D01*
X175739897Y-83266534D01*
X175709452Y-83241548D01*
X175684466Y-83211103D01*
X175665899Y-83176367D01*
X175654465Y-83138674D01*
X175650000Y-83093339D01*
X175650000Y-82006661D01*
X175654465Y-81961326D01*
X175665899Y-81923633D01*
X175684466Y-81888897D01*
X175709452Y-81858452D01*
X175739897Y-81833466D01*
X175774633Y-81814899D01*
X175812326Y-81803465D01*
X175857661Y-81799000D01*
X176694339Y-81799000D01*
X176739674Y-81803465D01*
X176739674Y-81803465D01*
G37*
G36*
X137360674Y-81549465D02*
G01*
X137398367Y-81560899D01*
X137433103Y-81579466D01*
X137463548Y-81604452D01*
X137488534Y-81634897D01*
X137507101Y-81669633D01*
X137518535Y-81707326D01*
X137523000Y-81752661D01*
X137523000Y-82839339D01*
X137518535Y-82884674D01*
X137507101Y-82922367D01*
X137488534Y-82957103D01*
X137463548Y-82987548D01*
X137433103Y-83012534D01*
X137398367Y-83031101D01*
X137360674Y-83042535D01*
X137315339Y-83047000D01*
X136478661Y-83047000D01*
X136433326Y-83042535D01*
X136395633Y-83031101D01*
X136360897Y-83012534D01*
X136330452Y-82987548D01*
X136305466Y-82957103D01*
X136286899Y-82922367D01*
X136275465Y-82884674D01*
X136271000Y-82839339D01*
X136271000Y-81752661D01*
X136275465Y-81707326D01*
X136286899Y-81669633D01*
X136305466Y-81634897D01*
X136330452Y-81604452D01*
X136360897Y-81579466D01*
X136395633Y-81560899D01*
X136433326Y-81549465D01*
X136478661Y-81545000D01*
X137315339Y-81545000D01*
X137360674Y-81549465D01*
X137360674Y-81549465D01*
G37*
G36*
X139410674Y-81549465D02*
G01*
X139448367Y-81560899D01*
X139483103Y-81579466D01*
X139513548Y-81604452D01*
X139538534Y-81634897D01*
X139557101Y-81669633D01*
X139568535Y-81707326D01*
X139573000Y-81752661D01*
X139573000Y-82839339D01*
X139568535Y-82884674D01*
X139557101Y-82922367D01*
X139538534Y-82957103D01*
X139513548Y-82987548D01*
X139483103Y-83012534D01*
X139448367Y-83031101D01*
X139410674Y-83042535D01*
X139365339Y-83047000D01*
X138528661Y-83047000D01*
X138483326Y-83042535D01*
X138445633Y-83031101D01*
X138410897Y-83012534D01*
X138380452Y-82987548D01*
X138355466Y-82957103D01*
X138336899Y-82922367D01*
X138325465Y-82884674D01*
X138321000Y-82839339D01*
X138321000Y-81752661D01*
X138325465Y-81707326D01*
X138336899Y-81669633D01*
X138355466Y-81634897D01*
X138380452Y-81604452D01*
X138410897Y-81579466D01*
X138445633Y-81560899D01*
X138483326Y-81549465D01*
X138528661Y-81545000D01*
X139365339Y-81545000D01*
X139410674Y-81549465D01*
X139410674Y-81549465D01*
G37*
G36*
X159222674Y-81295465D02*
G01*
X159260367Y-81306899D01*
X159295103Y-81325466D01*
X159325548Y-81350452D01*
X159350534Y-81380897D01*
X159369101Y-81415633D01*
X159380535Y-81453326D01*
X159385000Y-81498661D01*
X159385000Y-82585339D01*
X159380535Y-82630674D01*
X159369101Y-82668367D01*
X159350534Y-82703103D01*
X159325548Y-82733548D01*
X159295103Y-82758534D01*
X159260367Y-82777101D01*
X159222674Y-82788535D01*
X159177339Y-82793000D01*
X158340661Y-82793000D01*
X158295326Y-82788535D01*
X158257633Y-82777101D01*
X158222897Y-82758534D01*
X158192452Y-82733548D01*
X158167466Y-82703103D01*
X158148899Y-82668367D01*
X158137465Y-82630674D01*
X158133000Y-82585339D01*
X158133000Y-81498661D01*
X158137465Y-81453326D01*
X158148899Y-81415633D01*
X158167466Y-81380897D01*
X158192452Y-81350452D01*
X158222897Y-81325466D01*
X158257633Y-81306899D01*
X158295326Y-81295465D01*
X158340661Y-81291000D01*
X159177339Y-81291000D01*
X159222674Y-81295465D01*
X159222674Y-81295465D01*
G37*
G36*
X157172674Y-81295465D02*
G01*
X157210367Y-81306899D01*
X157245103Y-81325466D01*
X157275548Y-81350452D01*
X157300534Y-81380897D01*
X157319101Y-81415633D01*
X157330535Y-81453326D01*
X157335000Y-81498661D01*
X157335000Y-82585339D01*
X157330535Y-82630674D01*
X157319101Y-82668367D01*
X157300534Y-82703103D01*
X157275548Y-82733548D01*
X157245103Y-82758534D01*
X157210367Y-82777101D01*
X157172674Y-82788535D01*
X157127339Y-82793000D01*
X156290661Y-82793000D01*
X156245326Y-82788535D01*
X156207633Y-82777101D01*
X156172897Y-82758534D01*
X156142452Y-82733548D01*
X156117466Y-82703103D01*
X156098899Y-82668367D01*
X156087465Y-82630674D01*
X156083000Y-82585339D01*
X156083000Y-81498661D01*
X156087465Y-81453326D01*
X156098899Y-81415633D01*
X156117466Y-81380897D01*
X156142452Y-81350452D01*
X156172897Y-81325466D01*
X156207633Y-81306899D01*
X156245326Y-81295465D01*
X156290661Y-81291000D01*
X157127339Y-81291000D01*
X157172674Y-81295465D01*
X157172674Y-81295465D01*
G37*
G36*
X189463642Y-80509781D02*
G01*
X189609414Y-80570162D01*
X189609416Y-80570163D01*
X189740608Y-80657822D01*
X189852178Y-80769392D01*
X189859412Y-80780219D01*
X189939838Y-80900586D01*
X190000219Y-81046358D01*
X190031000Y-81201107D01*
X190031000Y-81358893D01*
X190000219Y-81513642D01*
X189949993Y-81634897D01*
X189939837Y-81659416D01*
X189852178Y-81790608D01*
X189740608Y-81902178D01*
X189609416Y-81989837D01*
X189609415Y-81989838D01*
X189609414Y-81989838D01*
X189463642Y-82050219D01*
X189308893Y-82081000D01*
X189151107Y-82081000D01*
X188996358Y-82050219D01*
X188850586Y-81989838D01*
X188850585Y-81989838D01*
X188850584Y-81989837D01*
X188719392Y-81902178D01*
X188607822Y-81790608D01*
X188520163Y-81659416D01*
X188510007Y-81634897D01*
X188459781Y-81513642D01*
X188429000Y-81358893D01*
X188429000Y-81201107D01*
X188459781Y-81046358D01*
X188520162Y-80900586D01*
X188600588Y-80780219D01*
X188607822Y-80769392D01*
X188719392Y-80657822D01*
X188850584Y-80570163D01*
X188850586Y-80570162D01*
X188996358Y-80509781D01*
X189151107Y-80479000D01*
X189308893Y-80479000D01*
X189463642Y-80509781D01*
X189463642Y-80509781D01*
G37*
G36*
X172107000Y-81353000D02*
G01*
X170705000Y-81353000D01*
X170705000Y-79951000D01*
X172107000Y-79951000D01*
X172107000Y-81353000D01*
X172107000Y-81353000D01*
G37*
G36*
X181843642Y-79239781D02*
G01*
X181973248Y-79293466D01*
X181989416Y-79300163D01*
X182120608Y-79387822D01*
X182232178Y-79499392D01*
X182319837Y-79630584D01*
X182319838Y-79630586D01*
X182380219Y-79776358D01*
X182411000Y-79931107D01*
X182411000Y-80088893D01*
X182380219Y-80243642D01*
X182355632Y-80303000D01*
X182319837Y-80389416D01*
X182232178Y-80520608D01*
X182120608Y-80632178D01*
X181989416Y-80719837D01*
X181989415Y-80719838D01*
X181989414Y-80719838D01*
X181843642Y-80780219D01*
X181688893Y-80811000D01*
X181531107Y-80811000D01*
X181376358Y-80780219D01*
X181230586Y-80719838D01*
X181230585Y-80719838D01*
X181230584Y-80719837D01*
X181099392Y-80632178D01*
X180987822Y-80520608D01*
X180900163Y-80389416D01*
X180864368Y-80303000D01*
X180839781Y-80243642D01*
X180809000Y-80088893D01*
X180809000Y-79931107D01*
X180839781Y-79776358D01*
X180900162Y-79630586D01*
X180900163Y-79630584D01*
X180987822Y-79499392D01*
X181099392Y-79387822D01*
X181230584Y-79300163D01*
X181246752Y-79293466D01*
X181376358Y-79239781D01*
X181531107Y-79209000D01*
X181688893Y-79209000D01*
X181843642Y-79239781D01*
X181843642Y-79239781D01*
G37*
G36*
X186923642Y-79239781D02*
G01*
X187053248Y-79293466D01*
X187069416Y-79300163D01*
X187200608Y-79387822D01*
X187312178Y-79499392D01*
X187399837Y-79630584D01*
X187399838Y-79630586D01*
X187460219Y-79776358D01*
X187491000Y-79931107D01*
X187491000Y-80088893D01*
X187460219Y-80243642D01*
X187435632Y-80303000D01*
X187399837Y-80389416D01*
X187312178Y-80520608D01*
X187200608Y-80632178D01*
X187069416Y-80719837D01*
X187069415Y-80719838D01*
X187069414Y-80719838D01*
X186923642Y-80780219D01*
X186768893Y-80811000D01*
X186611107Y-80811000D01*
X186456358Y-80780219D01*
X186310586Y-80719838D01*
X186310585Y-80719838D01*
X186310584Y-80719837D01*
X186179392Y-80632178D01*
X186067822Y-80520608D01*
X185980163Y-80389416D01*
X185944368Y-80303000D01*
X185919781Y-80243642D01*
X185889000Y-80088893D01*
X185889000Y-79931107D01*
X185919781Y-79776358D01*
X185980162Y-79630586D01*
X185980163Y-79630584D01*
X186067822Y-79499392D01*
X186179392Y-79387822D01*
X186310584Y-79300163D01*
X186326752Y-79293466D01*
X186456358Y-79239781D01*
X186611107Y-79209000D01*
X186768893Y-79209000D01*
X186923642Y-79239781D01*
X186923642Y-79239781D01*
G37*
G36*
X174689674Y-79263465D02*
G01*
X174727367Y-79274899D01*
X174762103Y-79293466D01*
X174792548Y-79318452D01*
X174817534Y-79348897D01*
X174836101Y-79383633D01*
X174847535Y-79421326D01*
X174852000Y-79466661D01*
X174852000Y-80553339D01*
X174847535Y-80598674D01*
X174836101Y-80636367D01*
X174817534Y-80671103D01*
X174792548Y-80701548D01*
X174762103Y-80726534D01*
X174727367Y-80745101D01*
X174689674Y-80756535D01*
X174644339Y-80761000D01*
X173807661Y-80761000D01*
X173762326Y-80756535D01*
X173724633Y-80745101D01*
X173689897Y-80726534D01*
X173659452Y-80701548D01*
X173634466Y-80671103D01*
X173615899Y-80636367D01*
X173604465Y-80598674D01*
X173600000Y-80553339D01*
X173600000Y-79466661D01*
X173604465Y-79421326D01*
X173615899Y-79383633D01*
X173634466Y-79348897D01*
X173659452Y-79318452D01*
X173689897Y-79293466D01*
X173724633Y-79274899D01*
X173762326Y-79263465D01*
X173807661Y-79259000D01*
X174644339Y-79259000D01*
X174689674Y-79263465D01*
X174689674Y-79263465D01*
G37*
G36*
X176739674Y-79263465D02*
G01*
X176777367Y-79274899D01*
X176812103Y-79293466D01*
X176842548Y-79318452D01*
X176867534Y-79348897D01*
X176886101Y-79383633D01*
X176897535Y-79421326D01*
X176902000Y-79466661D01*
X176902000Y-80553339D01*
X176897535Y-80598674D01*
X176886101Y-80636367D01*
X176867534Y-80671103D01*
X176842548Y-80701548D01*
X176812103Y-80726534D01*
X176777367Y-80745101D01*
X176739674Y-80756535D01*
X176694339Y-80761000D01*
X175857661Y-80761000D01*
X175812326Y-80756535D01*
X175774633Y-80745101D01*
X175739897Y-80726534D01*
X175709452Y-80701548D01*
X175684466Y-80671103D01*
X175665899Y-80636367D01*
X175654465Y-80598674D01*
X175650000Y-80553339D01*
X175650000Y-79466661D01*
X175654465Y-79421326D01*
X175665899Y-79383633D01*
X175684466Y-79348897D01*
X175709452Y-79318452D01*
X175739897Y-79293466D01*
X175774633Y-79274899D01*
X175812326Y-79263465D01*
X175857661Y-79259000D01*
X176694339Y-79259000D01*
X176739674Y-79263465D01*
X176739674Y-79263465D01*
G37*
G36*
X123883642Y-78731781D02*
G01*
X124013248Y-78785466D01*
X124029416Y-78792163D01*
X124160608Y-78879822D01*
X124272178Y-78991392D01*
X124357719Y-79119414D01*
X124359838Y-79122586D01*
X124420219Y-79268358D01*
X124451000Y-79423107D01*
X124451000Y-79580893D01*
X124420219Y-79735642D01*
X124359838Y-79881414D01*
X124359837Y-79881416D01*
X124272178Y-80012608D01*
X124160608Y-80124178D01*
X124029416Y-80211837D01*
X124029415Y-80211838D01*
X124029414Y-80211838D01*
X123883642Y-80272219D01*
X123728893Y-80303000D01*
X123571107Y-80303000D01*
X123416358Y-80272219D01*
X123270586Y-80211838D01*
X123270585Y-80211838D01*
X123270584Y-80211837D01*
X123139392Y-80124178D01*
X123027822Y-80012608D01*
X122940163Y-79881416D01*
X122940162Y-79881414D01*
X122879781Y-79735642D01*
X122849000Y-79580893D01*
X122849000Y-79423107D01*
X122879781Y-79268358D01*
X122940162Y-79122586D01*
X122942281Y-79119414D01*
X123027822Y-78991392D01*
X123139392Y-78879822D01*
X123270584Y-78792163D01*
X123286752Y-78785466D01*
X123416358Y-78731781D01*
X123571107Y-78701000D01*
X123728893Y-78701000D01*
X123883642Y-78731781D01*
X123883642Y-78731781D01*
G37*
G36*
X153996642Y-78731781D02*
G01*
X154126248Y-78785466D01*
X154142416Y-78792163D01*
X154273608Y-78879822D01*
X154385178Y-78991392D01*
X154470719Y-79119414D01*
X154472838Y-79122586D01*
X154533219Y-79268358D01*
X154564000Y-79423107D01*
X154564000Y-79580893D01*
X154533219Y-79735642D01*
X154472838Y-79881414D01*
X154472837Y-79881416D01*
X154385178Y-80012608D01*
X154273608Y-80124178D01*
X154142416Y-80211837D01*
X154142415Y-80211838D01*
X154142414Y-80211838D01*
X153996642Y-80272219D01*
X153841893Y-80303000D01*
X153684107Y-80303000D01*
X153529358Y-80272219D01*
X153383586Y-80211838D01*
X153383585Y-80211838D01*
X153383584Y-80211837D01*
X153252392Y-80124178D01*
X153140822Y-80012608D01*
X153053163Y-79881416D01*
X153053162Y-79881414D01*
X152992781Y-79735642D01*
X152962000Y-79580893D01*
X152962000Y-79423107D01*
X152992781Y-79268358D01*
X153053162Y-79122586D01*
X153055281Y-79119414D01*
X153140822Y-78991392D01*
X153252392Y-78879822D01*
X153383584Y-78792163D01*
X153399752Y-78785466D01*
X153529358Y-78731781D01*
X153684107Y-78701000D01*
X153841893Y-78701000D01*
X153996642Y-78731781D01*
X153996642Y-78731781D01*
G37*
G36*
X157172674Y-78755465D02*
G01*
X157210367Y-78766899D01*
X157245103Y-78785466D01*
X157275548Y-78810452D01*
X157300534Y-78840897D01*
X157319101Y-78875633D01*
X157330535Y-78913326D01*
X157335000Y-78958661D01*
X157335000Y-80045339D01*
X157330535Y-80090674D01*
X157319101Y-80128367D01*
X157300534Y-80163103D01*
X157275548Y-80193548D01*
X157245103Y-80218534D01*
X157210367Y-80237101D01*
X157172674Y-80248535D01*
X157127339Y-80253000D01*
X156290661Y-80253000D01*
X156245326Y-80248535D01*
X156207633Y-80237101D01*
X156172897Y-80218534D01*
X156142452Y-80193548D01*
X156117466Y-80163103D01*
X156098899Y-80128367D01*
X156087465Y-80090674D01*
X156083000Y-80045339D01*
X156083000Y-78958661D01*
X156087465Y-78913326D01*
X156098899Y-78875633D01*
X156117466Y-78840897D01*
X156142452Y-78810452D01*
X156172897Y-78785466D01*
X156207633Y-78766899D01*
X156245326Y-78755465D01*
X156290661Y-78751000D01*
X157127339Y-78751000D01*
X157172674Y-78755465D01*
X157172674Y-78755465D01*
G37*
G36*
X159222674Y-78755465D02*
G01*
X159260367Y-78766899D01*
X159295103Y-78785466D01*
X159325548Y-78810452D01*
X159350534Y-78840897D01*
X159369101Y-78875633D01*
X159380535Y-78913326D01*
X159385000Y-78958661D01*
X159385000Y-80045339D01*
X159380535Y-80090674D01*
X159369101Y-80128367D01*
X159350534Y-80163103D01*
X159325548Y-80193548D01*
X159295103Y-80218534D01*
X159260367Y-80237101D01*
X159222674Y-80248535D01*
X159177339Y-80253000D01*
X158340661Y-80253000D01*
X158295326Y-80248535D01*
X158257633Y-80237101D01*
X158222897Y-80218534D01*
X158192452Y-80193548D01*
X158167466Y-80163103D01*
X158148899Y-80128367D01*
X158137465Y-80090674D01*
X158133000Y-80045339D01*
X158133000Y-78958661D01*
X158137465Y-78913326D01*
X158148899Y-78875633D01*
X158167466Y-78840897D01*
X158192452Y-78810452D01*
X158222897Y-78785466D01*
X158257633Y-78766899D01*
X158295326Y-78755465D01*
X158340661Y-78751000D01*
X159177339Y-78751000D01*
X159222674Y-78755465D01*
X159222674Y-78755465D01*
G37*
G36*
X166957000Y-80203000D02*
G01*
X164855000Y-80203000D01*
X164855000Y-78801000D01*
X166957000Y-78801000D01*
X166957000Y-80203000D01*
X166957000Y-80203000D01*
G37*
G36*
X164164674Y-78381465D02*
G01*
X164202367Y-78392899D01*
X164237103Y-78411466D01*
X164267548Y-78436452D01*
X164292534Y-78466897D01*
X164311101Y-78501633D01*
X164322535Y-78539326D01*
X164327000Y-78584661D01*
X164327000Y-79421339D01*
X164322535Y-79466674D01*
X164311101Y-79504367D01*
X164292534Y-79539103D01*
X164267548Y-79569548D01*
X164237103Y-79594534D01*
X164202367Y-79613101D01*
X164164674Y-79624535D01*
X164119339Y-79629000D01*
X163032661Y-79629000D01*
X162987326Y-79624535D01*
X162949633Y-79613101D01*
X162914897Y-79594534D01*
X162884452Y-79569548D01*
X162859466Y-79539103D01*
X162840899Y-79504367D01*
X162829465Y-79466674D01*
X162825000Y-79421339D01*
X162825000Y-78584661D01*
X162829465Y-78539326D01*
X162840899Y-78501633D01*
X162859466Y-78466897D01*
X162884452Y-78436452D01*
X162914897Y-78411466D01*
X162949633Y-78392899D01*
X162987326Y-78381465D01*
X163032661Y-78377000D01*
X164119339Y-78377000D01*
X164164674Y-78381465D01*
X164164674Y-78381465D01*
G37*
G36*
X161878674Y-78372465D02*
G01*
X161916367Y-78383899D01*
X161951103Y-78402466D01*
X161981548Y-78427452D01*
X162006534Y-78457897D01*
X162025101Y-78492633D01*
X162036535Y-78530326D01*
X162041000Y-78575661D01*
X162041000Y-79412339D01*
X162036535Y-79457674D01*
X162025101Y-79495367D01*
X162006534Y-79530103D01*
X161981548Y-79560548D01*
X161951103Y-79585534D01*
X161916367Y-79604101D01*
X161878674Y-79615535D01*
X161833339Y-79620000D01*
X160746661Y-79620000D01*
X160701326Y-79615535D01*
X160663633Y-79604101D01*
X160628897Y-79585534D01*
X160598452Y-79560548D01*
X160573466Y-79530103D01*
X160554899Y-79495367D01*
X160543465Y-79457674D01*
X160539000Y-79412339D01*
X160539000Y-78575661D01*
X160543465Y-78530326D01*
X160554899Y-78492633D01*
X160573466Y-78457897D01*
X160598452Y-78427452D01*
X160628897Y-78402466D01*
X160663633Y-78383899D01*
X160701326Y-78372465D01*
X160746661Y-78368000D01*
X161833339Y-78368000D01*
X161878674Y-78372465D01*
X161878674Y-78372465D01*
G37*
G36*
X189463642Y-77969781D02*
G01*
X189609414Y-78030162D01*
X189609416Y-78030163D01*
X189740608Y-78117822D01*
X189852178Y-78229392D01*
X189859412Y-78240219D01*
X189939838Y-78360586D01*
X190000219Y-78506358D01*
X190031000Y-78661107D01*
X190031000Y-78818893D01*
X190000219Y-78973642D01*
X189939838Y-79119414D01*
X189939837Y-79119416D01*
X189852178Y-79250608D01*
X189740608Y-79362178D01*
X189609416Y-79449837D01*
X189609415Y-79449838D01*
X189609414Y-79449838D01*
X189463642Y-79510219D01*
X189308893Y-79541000D01*
X189151107Y-79541000D01*
X188996358Y-79510219D01*
X188850586Y-79449838D01*
X188850585Y-79449838D01*
X188850584Y-79449837D01*
X188719392Y-79362178D01*
X188607822Y-79250608D01*
X188520163Y-79119416D01*
X188520162Y-79119414D01*
X188459781Y-78973642D01*
X188429000Y-78818893D01*
X188429000Y-78661107D01*
X188459781Y-78506358D01*
X188520162Y-78360586D01*
X188600588Y-78240219D01*
X188607822Y-78229392D01*
X188719392Y-78117822D01*
X188850584Y-78030163D01*
X188850586Y-78030162D01*
X188996358Y-77969781D01*
X189151107Y-77939000D01*
X189308893Y-77939000D01*
X189463642Y-77969781D01*
X189463642Y-77969781D01*
G37*
G36*
X172107000Y-79053000D02*
G01*
X170705000Y-79053000D01*
X170705000Y-77651000D01*
X172107000Y-77651000D01*
X172107000Y-79053000D01*
X172107000Y-79053000D01*
G37*
G36*
X186923642Y-76699781D02*
G01*
X187053248Y-76753466D01*
X187069416Y-76760163D01*
X187200608Y-76847822D01*
X187312178Y-76959392D01*
X187381456Y-77063075D01*
X187399838Y-77090586D01*
X187460219Y-77236358D01*
X187491000Y-77391107D01*
X187491000Y-77548893D01*
X187460219Y-77703642D01*
X187399838Y-77849414D01*
X187399837Y-77849416D01*
X187312178Y-77980608D01*
X187200608Y-78092178D01*
X187069416Y-78179837D01*
X187069415Y-78179838D01*
X187069414Y-78179838D01*
X186923642Y-78240219D01*
X186768893Y-78271000D01*
X186611107Y-78271000D01*
X186456358Y-78240219D01*
X186310586Y-78179838D01*
X186310585Y-78179838D01*
X186310584Y-78179837D01*
X186179392Y-78092178D01*
X186067822Y-77980608D01*
X185980163Y-77849416D01*
X185980162Y-77849414D01*
X185919781Y-77703642D01*
X185889000Y-77548893D01*
X185889000Y-77391107D01*
X185919781Y-77236358D01*
X185980162Y-77090586D01*
X185998544Y-77063075D01*
X186067822Y-76959392D01*
X186179392Y-76847822D01*
X186310584Y-76760163D01*
X186326752Y-76753466D01*
X186456358Y-76699781D01*
X186611107Y-76669000D01*
X186768893Y-76669000D01*
X186923642Y-76699781D01*
X186923642Y-76699781D01*
G37*
G36*
X181843642Y-76699781D02*
G01*
X181973248Y-76753466D01*
X181989416Y-76760163D01*
X182120608Y-76847822D01*
X182232178Y-76959392D01*
X182301456Y-77063075D01*
X182319838Y-77090586D01*
X182380219Y-77236358D01*
X182411000Y-77391107D01*
X182411000Y-77548893D01*
X182380219Y-77703642D01*
X182319838Y-77849414D01*
X182319837Y-77849416D01*
X182232178Y-77980608D01*
X182120608Y-78092178D01*
X181989416Y-78179837D01*
X181989415Y-78179838D01*
X181989414Y-78179838D01*
X181843642Y-78240219D01*
X181688893Y-78271000D01*
X181531107Y-78271000D01*
X181376358Y-78240219D01*
X181230586Y-78179838D01*
X181230585Y-78179838D01*
X181230584Y-78179837D01*
X181099392Y-78092178D01*
X180987822Y-77980608D01*
X180900163Y-77849416D01*
X180900162Y-77849414D01*
X180839781Y-77703642D01*
X180809000Y-77548893D01*
X180809000Y-77391107D01*
X180839781Y-77236358D01*
X180900162Y-77090586D01*
X180918544Y-77063075D01*
X180987822Y-76959392D01*
X181099392Y-76847822D01*
X181230584Y-76760163D01*
X181246752Y-76753466D01*
X181376358Y-76699781D01*
X181531107Y-76669000D01*
X181688893Y-76669000D01*
X181843642Y-76699781D01*
X181843642Y-76699781D01*
G37*
G36*
X176739674Y-76723465D02*
G01*
X176777367Y-76734899D01*
X176812103Y-76753466D01*
X176842548Y-76778452D01*
X176867534Y-76808897D01*
X176886101Y-76843633D01*
X176897535Y-76881326D01*
X176902000Y-76926661D01*
X176902000Y-78013339D01*
X176897535Y-78058674D01*
X176886101Y-78096367D01*
X176867534Y-78131103D01*
X176842548Y-78161548D01*
X176812103Y-78186534D01*
X176777367Y-78205101D01*
X176739674Y-78216535D01*
X176694339Y-78221000D01*
X175857661Y-78221000D01*
X175812326Y-78216535D01*
X175774633Y-78205101D01*
X175739897Y-78186534D01*
X175709452Y-78161548D01*
X175684466Y-78131103D01*
X175665899Y-78096367D01*
X175654465Y-78058674D01*
X175650000Y-78013339D01*
X175650000Y-76926661D01*
X175654465Y-76881326D01*
X175665899Y-76843633D01*
X175684466Y-76808897D01*
X175709452Y-76778452D01*
X175739897Y-76753466D01*
X175774633Y-76734899D01*
X175812326Y-76723465D01*
X175857661Y-76719000D01*
X176694339Y-76719000D01*
X176739674Y-76723465D01*
X176739674Y-76723465D01*
G37*
G36*
X174689674Y-76723465D02*
G01*
X174727367Y-76734899D01*
X174762103Y-76753466D01*
X174792548Y-76778452D01*
X174817534Y-76808897D01*
X174836101Y-76843633D01*
X174847535Y-76881326D01*
X174852000Y-76926661D01*
X174852000Y-78013339D01*
X174847535Y-78058674D01*
X174836101Y-78096367D01*
X174817534Y-78131103D01*
X174792548Y-78161548D01*
X174762103Y-78186534D01*
X174727367Y-78205101D01*
X174689674Y-78216535D01*
X174644339Y-78221000D01*
X173807661Y-78221000D01*
X173762326Y-78216535D01*
X173724633Y-78205101D01*
X173689897Y-78186534D01*
X173659452Y-78161548D01*
X173634466Y-78131103D01*
X173615899Y-78096367D01*
X173604465Y-78058674D01*
X173600000Y-78013339D01*
X173600000Y-76926661D01*
X173604465Y-76881326D01*
X173615899Y-76843633D01*
X173634466Y-76808897D01*
X173659452Y-76778452D01*
X173689897Y-76753466D01*
X173724633Y-76734899D01*
X173762326Y-76723465D01*
X173807661Y-76719000D01*
X174644339Y-76719000D01*
X174689674Y-76723465D01*
X174689674Y-76723465D01*
G37*
G36*
X179404674Y-76848465D02*
G01*
X179442367Y-76859899D01*
X179477103Y-76878466D01*
X179507548Y-76903452D01*
X179532534Y-76933897D01*
X179551101Y-76968633D01*
X179562535Y-77006326D01*
X179567000Y-77051661D01*
X179567000Y-77888339D01*
X179562535Y-77933674D01*
X179551101Y-77971367D01*
X179532534Y-78006103D01*
X179507548Y-78036548D01*
X179477103Y-78061534D01*
X179442367Y-78080101D01*
X179404674Y-78091535D01*
X179359339Y-78096000D01*
X178272661Y-78096000D01*
X178227326Y-78091535D01*
X178189633Y-78080101D01*
X178154897Y-78061534D01*
X178124452Y-78036548D01*
X178099466Y-78006103D01*
X178080899Y-77971367D01*
X178069465Y-77933674D01*
X178065000Y-77888339D01*
X178065000Y-77051661D01*
X178069465Y-77006326D01*
X178080899Y-76968633D01*
X178099466Y-76933897D01*
X178124452Y-76903452D01*
X178154897Y-76878466D01*
X178189633Y-76859899D01*
X178227326Y-76848465D01*
X178272661Y-76844000D01*
X179359339Y-76844000D01*
X179404674Y-76848465D01*
X179404674Y-76848465D01*
G37*
G36*
X154071642Y-76191781D02*
G01*
X154201248Y-76245466D01*
X154217416Y-76252163D01*
X154348608Y-76339822D01*
X154460178Y-76451392D01*
X154545719Y-76579414D01*
X154547838Y-76582586D01*
X154608219Y-76728358D01*
X154639000Y-76883107D01*
X154639000Y-77040893D01*
X154608219Y-77195642D01*
X154565892Y-77297827D01*
X154547837Y-77341416D01*
X154460178Y-77472608D01*
X154348608Y-77584178D01*
X154217416Y-77671837D01*
X154217415Y-77671838D01*
X154217414Y-77671838D01*
X154071642Y-77732219D01*
X153916893Y-77763000D01*
X153759107Y-77763000D01*
X153604358Y-77732219D01*
X153458586Y-77671838D01*
X153458585Y-77671838D01*
X153458584Y-77671837D01*
X153327392Y-77584178D01*
X153215822Y-77472608D01*
X153128163Y-77341416D01*
X153110108Y-77297827D01*
X153067781Y-77195642D01*
X153037000Y-77040893D01*
X153037000Y-76883107D01*
X153067781Y-76728358D01*
X153128162Y-76582586D01*
X153130281Y-76579414D01*
X153215822Y-76451392D01*
X153327392Y-76339822D01*
X153458584Y-76252163D01*
X153474752Y-76245466D01*
X153604358Y-76191781D01*
X153759107Y-76161000D01*
X153916893Y-76161000D01*
X154071642Y-76191781D01*
X154071642Y-76191781D01*
G37*
G36*
X157181674Y-76215465D02*
G01*
X157219367Y-76226899D01*
X157254103Y-76245466D01*
X157284548Y-76270452D01*
X157309534Y-76300897D01*
X157328101Y-76335633D01*
X157339535Y-76373326D01*
X157344000Y-76418661D01*
X157344000Y-77505339D01*
X157339535Y-77550674D01*
X157328101Y-77588367D01*
X157309534Y-77623103D01*
X157284548Y-77653548D01*
X157254103Y-77678534D01*
X157219367Y-77697101D01*
X157181674Y-77708535D01*
X157136339Y-77713000D01*
X156299661Y-77713000D01*
X156254326Y-77708535D01*
X156216633Y-77697101D01*
X156181897Y-77678534D01*
X156151452Y-77653548D01*
X156126466Y-77623103D01*
X156107899Y-77588367D01*
X156096465Y-77550674D01*
X156092000Y-77505339D01*
X156092000Y-76418661D01*
X156096465Y-76373326D01*
X156107899Y-76335633D01*
X156126466Y-76300897D01*
X156151452Y-76270452D01*
X156181897Y-76245466D01*
X156216633Y-76226899D01*
X156254326Y-76215465D01*
X156299661Y-76211000D01*
X157136339Y-76211000D01*
X157181674Y-76215465D01*
X157181674Y-76215465D01*
G37*
G36*
X159231674Y-76215465D02*
G01*
X159269367Y-76226899D01*
X159304103Y-76245466D01*
X159334548Y-76270452D01*
X159359534Y-76300897D01*
X159378101Y-76335633D01*
X159389535Y-76373326D01*
X159394000Y-76418661D01*
X159394000Y-77505339D01*
X159389535Y-77550674D01*
X159378101Y-77588367D01*
X159359534Y-77623103D01*
X159334548Y-77653548D01*
X159304103Y-77678534D01*
X159269367Y-77697101D01*
X159231674Y-77708535D01*
X159186339Y-77713000D01*
X158349661Y-77713000D01*
X158304326Y-77708535D01*
X158266633Y-77697101D01*
X158231897Y-77678534D01*
X158201452Y-77653548D01*
X158176466Y-77623103D01*
X158157899Y-77588367D01*
X158146465Y-77550674D01*
X158142000Y-77505339D01*
X158142000Y-76418661D01*
X158146465Y-76373326D01*
X158157899Y-76335633D01*
X158176466Y-76300897D01*
X158201452Y-76270452D01*
X158231897Y-76245466D01*
X158266633Y-76226899D01*
X158304326Y-76215465D01*
X158349661Y-76211000D01*
X159186339Y-76211000D01*
X159231674Y-76215465D01*
X159231674Y-76215465D01*
G37*
G36*
X164164674Y-76331465D02*
G01*
X164202367Y-76342899D01*
X164237103Y-76361466D01*
X164267548Y-76386452D01*
X164292534Y-76416897D01*
X164311101Y-76451633D01*
X164322535Y-76489326D01*
X164327000Y-76534661D01*
X164327000Y-77371339D01*
X164322535Y-77416674D01*
X164311101Y-77454367D01*
X164292534Y-77489103D01*
X164267548Y-77519548D01*
X164237103Y-77544534D01*
X164202367Y-77563101D01*
X164164674Y-77574535D01*
X164119339Y-77579000D01*
X163032661Y-77579000D01*
X162987326Y-77574535D01*
X162949633Y-77563101D01*
X162914897Y-77544534D01*
X162884452Y-77519548D01*
X162859466Y-77489103D01*
X162840899Y-77454367D01*
X162829465Y-77416674D01*
X162825000Y-77371339D01*
X162825000Y-76534661D01*
X162829465Y-76489326D01*
X162840899Y-76451633D01*
X162859466Y-76416897D01*
X162884452Y-76386452D01*
X162914897Y-76361466D01*
X162949633Y-76342899D01*
X162987326Y-76331465D01*
X163032661Y-76327000D01*
X164119339Y-76327000D01*
X164164674Y-76331465D01*
X164164674Y-76331465D01*
G37*
G36*
X161878674Y-76322465D02*
G01*
X161916367Y-76333899D01*
X161951103Y-76352466D01*
X161981548Y-76377452D01*
X162006534Y-76407897D01*
X162025101Y-76442633D01*
X162036535Y-76480326D01*
X162041000Y-76525661D01*
X162041000Y-77362339D01*
X162036535Y-77407674D01*
X162025101Y-77445367D01*
X162006534Y-77480103D01*
X161981548Y-77510548D01*
X161951103Y-77535534D01*
X161916367Y-77554101D01*
X161878674Y-77565535D01*
X161833339Y-77570000D01*
X160746661Y-77570000D01*
X160701326Y-77565535D01*
X160663633Y-77554101D01*
X160628897Y-77535534D01*
X160598452Y-77510548D01*
X160573466Y-77480103D01*
X160554899Y-77445367D01*
X160543465Y-77407674D01*
X160539000Y-77362339D01*
X160539000Y-76525661D01*
X160543465Y-76480326D01*
X160554899Y-76442633D01*
X160573466Y-76407897D01*
X160598452Y-76377452D01*
X160628897Y-76352466D01*
X160663633Y-76333899D01*
X160701326Y-76322465D01*
X160746661Y-76318000D01*
X161833339Y-76318000D01*
X161878674Y-76322465D01*
X161878674Y-76322465D01*
G37*
G36*
X189463642Y-75429781D02*
G01*
X189609414Y-75490162D01*
X189609416Y-75490163D01*
X189740608Y-75577822D01*
X189852178Y-75689392D01*
X189859412Y-75700219D01*
X189939838Y-75820586D01*
X190000219Y-75966358D01*
X190031000Y-76121107D01*
X190031000Y-76278893D01*
X190000219Y-76433642D01*
X189939838Y-76579414D01*
X189939837Y-76579416D01*
X189852178Y-76710608D01*
X189740608Y-76822178D01*
X189609416Y-76909837D01*
X189609415Y-76909838D01*
X189609414Y-76909838D01*
X189463642Y-76970219D01*
X189308893Y-77001000D01*
X189151107Y-77001000D01*
X188996358Y-76970219D01*
X188850586Y-76909838D01*
X188850585Y-76909838D01*
X188850584Y-76909837D01*
X188719392Y-76822178D01*
X188607822Y-76710608D01*
X188520163Y-76579416D01*
X188520162Y-76579414D01*
X188459781Y-76433642D01*
X188429000Y-76278893D01*
X188429000Y-76121107D01*
X188459781Y-75966358D01*
X188520162Y-75820586D01*
X188600588Y-75700219D01*
X188607822Y-75689392D01*
X188719392Y-75577822D01*
X188850584Y-75490163D01*
X188850586Y-75490162D01*
X188996358Y-75429781D01*
X189151107Y-75399000D01*
X189308893Y-75399000D01*
X189463642Y-75429781D01*
X189463642Y-75429781D01*
G37*
G36*
X179404674Y-74798465D02*
G01*
X179442367Y-74809899D01*
X179477103Y-74828466D01*
X179507548Y-74853452D01*
X179532534Y-74883897D01*
X179551101Y-74918633D01*
X179562535Y-74956326D01*
X179567000Y-75001661D01*
X179567000Y-75838339D01*
X179562535Y-75883674D01*
X179551101Y-75921367D01*
X179532534Y-75956103D01*
X179507548Y-75986548D01*
X179477103Y-76011534D01*
X179442367Y-76030101D01*
X179404674Y-76041535D01*
X179359339Y-76046000D01*
X178272661Y-76046000D01*
X178227326Y-76041535D01*
X178189633Y-76030101D01*
X178154897Y-76011534D01*
X178124452Y-75986548D01*
X178099466Y-75956103D01*
X178080899Y-75921367D01*
X178069465Y-75883674D01*
X178065000Y-75838339D01*
X178065000Y-75001661D01*
X178069465Y-74956326D01*
X178080899Y-74918633D01*
X178099466Y-74883897D01*
X178124452Y-74853452D01*
X178154897Y-74828466D01*
X178189633Y-74809899D01*
X178227326Y-74798465D01*
X178272661Y-74794000D01*
X179359339Y-74794000D01*
X179404674Y-74798465D01*
X179404674Y-74798465D01*
G37*
G36*
X186923642Y-74159781D02*
G01*
X187069414Y-74220162D01*
X187069416Y-74220163D01*
X187200608Y-74307822D01*
X187312178Y-74419392D01*
X187399837Y-74550584D01*
X187399838Y-74550586D01*
X187460219Y-74696358D01*
X187491000Y-74851107D01*
X187491000Y-75008893D01*
X187460219Y-75163642D01*
X187399838Y-75309414D01*
X187399837Y-75309416D01*
X187312178Y-75440608D01*
X187200608Y-75552178D01*
X187069416Y-75639837D01*
X187069415Y-75639838D01*
X187069414Y-75639838D01*
X186923642Y-75700219D01*
X186768893Y-75731000D01*
X186611107Y-75731000D01*
X186456358Y-75700219D01*
X186310586Y-75639838D01*
X186310585Y-75639838D01*
X186310584Y-75639837D01*
X186179392Y-75552178D01*
X186067822Y-75440608D01*
X185980163Y-75309416D01*
X185980162Y-75309414D01*
X185919781Y-75163642D01*
X185889000Y-75008893D01*
X185889000Y-74851107D01*
X185919781Y-74696358D01*
X185980162Y-74550586D01*
X185980163Y-74550584D01*
X186067822Y-74419392D01*
X186179392Y-74307822D01*
X186310584Y-74220163D01*
X186310586Y-74220162D01*
X186456358Y-74159781D01*
X186611107Y-74129000D01*
X186768893Y-74129000D01*
X186923642Y-74159781D01*
X186923642Y-74159781D01*
G37*
G36*
X195955256Y-72051298D02*
G01*
X196061579Y-72072447D01*
X196362042Y-72196903D01*
X196632451Y-72377585D01*
X196862415Y-72607549D01*
X197043097Y-72877958D01*
X197167553Y-73178421D01*
X197168047Y-73180907D01*
X197231000Y-73497389D01*
X197231000Y-73822611D01*
X197188702Y-74035256D01*
X197167553Y-74141579D01*
X197043097Y-74442042D01*
X196862415Y-74712451D01*
X196632451Y-74942415D01*
X196362042Y-75123097D01*
X196362041Y-75123098D01*
X196362040Y-75123098D01*
X196324774Y-75138534D01*
X196061579Y-75247553D01*
X195955256Y-75268702D01*
X195742611Y-75311000D01*
X195417389Y-75311000D01*
X195204744Y-75268702D01*
X195098421Y-75247553D01*
X194835226Y-75138534D01*
X194797960Y-75123098D01*
X194797959Y-75123098D01*
X194797958Y-75123097D01*
X194527549Y-74942415D01*
X194297585Y-74712451D01*
X194116903Y-74442042D01*
X193992447Y-74141579D01*
X193971298Y-74035256D01*
X193929000Y-73822611D01*
X193929000Y-73497389D01*
X193991953Y-73180907D01*
X193992447Y-73178421D01*
X194116903Y-72877958D01*
X194297585Y-72607549D01*
X194527549Y-72377585D01*
X194797958Y-72196903D01*
X195098421Y-72072447D01*
X195204744Y-72051298D01*
X195417389Y-72009000D01*
X195742611Y-72009000D01*
X195955256Y-72051298D01*
X195955256Y-72051298D01*
G37*
G36*
X154121642Y-73651781D02*
G01*
X154251248Y-73705466D01*
X154267416Y-73712163D01*
X154398608Y-73799822D01*
X154510178Y-73911392D01*
X154531413Y-73943173D01*
X154597838Y-74042586D01*
X154658219Y-74188358D01*
X154689000Y-74343107D01*
X154689000Y-74500893D01*
X154658219Y-74655642D01*
X154597838Y-74801414D01*
X154597837Y-74801416D01*
X154510178Y-74932608D01*
X154398608Y-75044178D01*
X154267416Y-75131837D01*
X154267415Y-75131838D01*
X154267414Y-75131838D01*
X154121642Y-75192219D01*
X153966893Y-75223000D01*
X153809107Y-75223000D01*
X153654358Y-75192219D01*
X153508586Y-75131838D01*
X153508585Y-75131838D01*
X153508584Y-75131837D01*
X153377392Y-75044178D01*
X153265822Y-74932608D01*
X153178163Y-74801416D01*
X153178162Y-74801414D01*
X153117781Y-74655642D01*
X153087000Y-74500893D01*
X153087000Y-74343107D01*
X153117781Y-74188358D01*
X153178162Y-74042586D01*
X153244587Y-73943173D01*
X153265822Y-73911392D01*
X153377392Y-73799822D01*
X153508584Y-73712163D01*
X153524752Y-73705466D01*
X153654358Y-73651781D01*
X153809107Y-73621000D01*
X153966893Y-73621000D01*
X154121642Y-73651781D01*
X154121642Y-73651781D01*
G37*
G36*
X157172674Y-73675465D02*
G01*
X157210367Y-73686899D01*
X157245103Y-73705466D01*
X157275548Y-73730452D01*
X157300534Y-73760897D01*
X157319101Y-73795633D01*
X157330535Y-73833326D01*
X157335000Y-73878661D01*
X157335000Y-74965339D01*
X157330535Y-75010674D01*
X157319101Y-75048367D01*
X157300534Y-75083103D01*
X157275548Y-75113548D01*
X157245103Y-75138534D01*
X157210367Y-75157101D01*
X157172674Y-75168535D01*
X157127339Y-75173000D01*
X156290661Y-75173000D01*
X156245326Y-75168535D01*
X156207633Y-75157101D01*
X156172897Y-75138534D01*
X156142452Y-75113548D01*
X156117466Y-75083103D01*
X156098899Y-75048367D01*
X156087465Y-75010674D01*
X156083000Y-74965339D01*
X156083000Y-73878661D01*
X156087465Y-73833326D01*
X156098899Y-73795633D01*
X156117466Y-73760897D01*
X156142452Y-73730452D01*
X156172897Y-73705466D01*
X156207633Y-73686899D01*
X156245326Y-73675465D01*
X156290661Y-73671000D01*
X157127339Y-73671000D01*
X157172674Y-73675465D01*
X157172674Y-73675465D01*
G37*
G36*
X159222674Y-73675465D02*
G01*
X159260367Y-73686899D01*
X159295103Y-73705466D01*
X159325548Y-73730452D01*
X159350534Y-73760897D01*
X159369101Y-73795633D01*
X159380535Y-73833326D01*
X159385000Y-73878661D01*
X159385000Y-74965339D01*
X159380535Y-75010674D01*
X159369101Y-75048367D01*
X159350534Y-75083103D01*
X159325548Y-75113548D01*
X159295103Y-75138534D01*
X159260367Y-75157101D01*
X159222674Y-75168535D01*
X159177339Y-75173000D01*
X158340661Y-75173000D01*
X158295326Y-75168535D01*
X158257633Y-75157101D01*
X158222897Y-75138534D01*
X158192452Y-75113548D01*
X158167466Y-75083103D01*
X158148899Y-75048367D01*
X158137465Y-75010674D01*
X158133000Y-74965339D01*
X158133000Y-73878661D01*
X158137465Y-73833326D01*
X158148899Y-73795633D01*
X158167466Y-73760897D01*
X158192452Y-73730452D01*
X158222897Y-73705466D01*
X158257633Y-73686899D01*
X158295326Y-73675465D01*
X158340661Y-73671000D01*
X159177339Y-73671000D01*
X159222674Y-73675465D01*
X159222674Y-73675465D01*
G37*
G36*
X161527000Y-75003000D02*
G01*
X160125000Y-75003000D01*
X160125000Y-73601000D01*
X161527000Y-73601000D01*
X161527000Y-75003000D01*
X161527000Y-75003000D01*
G37*
G36*
X163256999Y-73113737D02*
G01*
X163266608Y-73116652D01*
X163275472Y-73121390D01*
X163283237Y-73127763D01*
X163293884Y-73140737D01*
X163300053Y-73149968D01*
X163317381Y-73167294D01*
X163337756Y-73180907D01*
X163360395Y-73190283D01*
X163384428Y-73195063D01*
X163408932Y-73195062D01*
X163432965Y-73190280D01*
X163455604Y-73180902D01*
X163475978Y-73167287D01*
X163493304Y-73149959D01*
X163500175Y-73140683D01*
X163510726Y-73127800D01*
X163512103Y-73126668D01*
X163518484Y-73121419D01*
X163527339Y-73116674D01*
X163530377Y-73115749D01*
X163536915Y-73113758D01*
X163536918Y-73113758D01*
X163536950Y-73113748D01*
X163547000Y-73112753D01*
X163547065Y-73112753D01*
X163553175Y-73112148D01*
X164540860Y-73112148D01*
X164556999Y-73113737D01*
X164566608Y-73116652D01*
X164575472Y-73121390D01*
X164583237Y-73127763D01*
X164589610Y-73135528D01*
X164594348Y-73144392D01*
X164597263Y-73154001D01*
X164598852Y-73170140D01*
X164598852Y-74657860D01*
X164597263Y-74673999D01*
X164594348Y-74683608D01*
X164589610Y-74692472D01*
X164583237Y-74700237D01*
X164575472Y-74706610D01*
X164566608Y-74711348D01*
X164556999Y-74714263D01*
X164540860Y-74715852D01*
X163553140Y-74715852D01*
X163537001Y-74714263D01*
X163527392Y-74711348D01*
X163518528Y-74706610D01*
X163510788Y-74700258D01*
X163510787Y-74700257D01*
X163510763Y-74700237D01*
X163504360Y-74692427D01*
X163504323Y-74692372D01*
X163496520Y-74682853D01*
X163496489Y-74682878D01*
X163485147Y-74669028D01*
X163466221Y-74653463D01*
X163444623Y-74641889D01*
X163421181Y-74634751D01*
X163396798Y-74632324D01*
X163372409Y-74634700D01*
X163348953Y-74641789D01*
X163327330Y-74653318D01*
X163308372Y-74668843D01*
X163292807Y-74687769D01*
X163290971Y-74690825D01*
X163289582Y-74692514D01*
X163289581Y-74692516D01*
X163286421Y-74696358D01*
X163283200Y-74700274D01*
X163275425Y-74706642D01*
X163269517Y-74709791D01*
X163266562Y-74711367D01*
X163256981Y-74714262D01*
X163256915Y-74714282D01*
X163240887Y-74715852D01*
X162103140Y-74715852D01*
X162087001Y-74714263D01*
X162077392Y-74711348D01*
X162068528Y-74706610D01*
X162060763Y-74700237D01*
X162054390Y-74692472D01*
X162049652Y-74683608D01*
X162046737Y-74673999D01*
X162045148Y-74657860D01*
X162045148Y-73170140D01*
X162046737Y-73154001D01*
X162049652Y-73144392D01*
X162054390Y-73135528D01*
X162060763Y-73127763D01*
X162068528Y-73121390D01*
X162077392Y-73116652D01*
X162087001Y-73113737D01*
X162103140Y-73112148D01*
X163240860Y-73112148D01*
X163256999Y-73113737D01*
X163256999Y-73113737D01*
G37*
G36*
X167377000Y-73853000D02*
G01*
X165275000Y-73853000D01*
X165275000Y-72451000D01*
X167377000Y-72451000D01*
X167377000Y-73853000D01*
X167377000Y-73853000D01*
G37*
G36*
X161527000Y-72703000D02*
G01*
X160125000Y-72703000D01*
X160125000Y-71301000D01*
X161527000Y-71301000D01*
X161527000Y-72703000D01*
X161527000Y-72703000D01*
G37*
G36*
X171800256Y-69441298D02*
G01*
X171906579Y-69462447D01*
X172207042Y-69586903D01*
X172477451Y-69767585D01*
X172707415Y-69997549D01*
X172888097Y-70267958D01*
X173012553Y-70568421D01*
X173076000Y-70887391D01*
X173076000Y-71212609D01*
X173012553Y-71531579D01*
X172888097Y-71832042D01*
X172707415Y-72102451D01*
X172477451Y-72332415D01*
X172207042Y-72513097D01*
X171906579Y-72637553D01*
X171800256Y-72658702D01*
X171587611Y-72701000D01*
X171262389Y-72701000D01*
X171049744Y-72658702D01*
X170943421Y-72637553D01*
X170642958Y-72513097D01*
X170372549Y-72332415D01*
X170142585Y-72102451D01*
X169961903Y-71832042D01*
X169837447Y-71531579D01*
X169774000Y-71212609D01*
X169774000Y-70887391D01*
X169837447Y-70568421D01*
X169961903Y-70267958D01*
X170142585Y-69997549D01*
X170372549Y-69767585D01*
X170642958Y-69586903D01*
X170943421Y-69462447D01*
X171049744Y-69441298D01*
X171262389Y-69399000D01*
X171587611Y-69399000D01*
X171800256Y-69441298D01*
X171800256Y-69441298D01*
G37*
G36*
X131800256Y-69441298D02*
G01*
X131906579Y-69462447D01*
X132207042Y-69586903D01*
X132477451Y-69767585D01*
X132707415Y-69997549D01*
X132888097Y-70267958D01*
X133012553Y-70568421D01*
X133076000Y-70887391D01*
X133076000Y-71212609D01*
X133012553Y-71531579D01*
X132888097Y-71832042D01*
X132707415Y-72102451D01*
X132477451Y-72332415D01*
X132207042Y-72513097D01*
X131906579Y-72637553D01*
X131800256Y-72658702D01*
X131587611Y-72701000D01*
X131262389Y-72701000D01*
X131049744Y-72658702D01*
X130943421Y-72637553D01*
X130642958Y-72513097D01*
X130372549Y-72332415D01*
X130142585Y-72102451D01*
X129961903Y-71832042D01*
X129837447Y-71531579D01*
X129774000Y-71212609D01*
X129774000Y-70887391D01*
X129837447Y-70568421D01*
X129961903Y-70267958D01*
X130142585Y-69997549D01*
X130372549Y-69767585D01*
X130642958Y-69586903D01*
X130943421Y-69462447D01*
X131049744Y-69441298D01*
X131262389Y-69399000D01*
X131587611Y-69399000D01*
X131800256Y-69441298D01*
X131800256Y-69441298D01*
G37*
G36*
X142151000Y-69701000D02*
G01*
X138049000Y-69701000D01*
X138049000Y-65599000D01*
X142151000Y-65599000D01*
X142151000Y-69701000D01*
X142151000Y-69701000D01*
G37*
M02*
