M48
; DRILL file {KiCad 5.1.4+dfsg1-1} date Sun 06 Oct 2019 09:28:21 PM CEST
; FORMAT={3:3/ absolute / metric / suppress leading zeros}
; #@! TF.CreationDate,2019-10-06T21:28:21+02:00
; #@! TF.GenerationSoftware,Kicad,Pcbnew,5.1.4+dfsg1-1
FMAT,2
METRIC,TZ
T1C0.400
T2C0.500
T3C0.760
T4C1.000
T5C1.040
T6C1.300
T7C3.200
%
G90
G05
T1
X121412Y-81280
X121412Y-83312
X121412Y-85344
X121412Y-87376
X121412Y-99060
X121412Y-101092
X121412Y-103124
X122174Y-67818
X122174Y-130810
X123444Y-87376
X123444Y-99060
X125476Y-87376
X125476Y-99060
X126238Y-77978
X127508Y-87376
X127508Y-89408
X127508Y-91440
X127508Y-93472
X127508Y-95504
X127508Y-97536
X127762Y-82296
X128778Y-75438
X129540Y-97536
X130556Y-86614
X131572Y-78740
X132588Y-75438
X132842Y-82296
X134620Y-86614
X135382Y-81026
X136398Y-75438
X140208Y-66294
X140208Y-70358
X140208Y-75438
X140208Y-81026
X140970Y-124714
X140970Y-131826
X141986Y-86614
X144018Y-81026
X147828Y-81026
X148717Y-99822
X151638Y-66294
X151638Y-76962
X151638Y-81026
X151892Y-70358
X151892Y-124714
X151892Y-131826
X154178Y-82804
X154940Y-70358
X157988Y-70358
X158750Y-84328
X161036Y-70358
X163068Y-84328
X164084Y-70358
X166624Y-120523
X167132Y-70358
X168402Y-72644
X168402Y-86868
X173228Y-86868
X174498Y-72898
X177889Y-86322
X178308Y-72898
X182118Y-72898
X184404Y-108712
X185928Y-72898
X196596Y-70612
X196850Y-128016
T2
X151384Y-119253
T3
X186690Y-74930
X186690Y-77470
X186690Y-80010
X186690Y-82550
X189230Y-76200
X189230Y-78740
X189230Y-81280
X189230Y-83820
T4
X151384Y-86106
X153924Y-86106
X156464Y-86106
X159004Y-86106
X195794Y-93691
X195794Y-98191
X181737Y-119951
X181737Y-122492
X181737Y-125032
X180594Y-86741
X183134Y-86741
X176276Y-119888
X176276Y-122428
X176276Y-124968
T5
X151384Y-90170
X151384Y-115570
X153924Y-90170
X153924Y-115570
X156464Y-90170
X156464Y-115570
X159004Y-90170
X159004Y-115570
X161544Y-90170
X161544Y-115570
X164084Y-90170
X164084Y-115570
X166624Y-90170
X166624Y-115570
X169164Y-90170
X169164Y-115570
X171704Y-90170
X171704Y-115570
X174244Y-90170
X174244Y-115570
X176784Y-90170
X176784Y-115570
X179324Y-90170
X179324Y-115570
X181864Y-90170
X181864Y-115570
X184404Y-90170
X184404Y-115570
X186944Y-90170
X186944Y-115570
X189484Y-90170
X189484Y-115570
X192024Y-90170
X192024Y-115570
X194564Y-90170
X194564Y-115570
X197104Y-90170
X197104Y-115570
T6
X193294Y-92441
X193294Y-99441
T7
X195580Y-73660
X195580Y-85090
X131425Y-127550
X131425Y-71050
X171425Y-127550
X171425Y-71050
T4
G00X188950Y-124690
M15
G01X188950Y-125690
M16
G05
G00X194450Y-124690
M15
G01X194450Y-125690
M16
G05
G00X196850Y-122690
M15
G01X196850Y-123690
M16
G05
T0
M30
