G04 #@! TF.GenerationSoftware,KiCad,Pcbnew,5.0.2+dfsg1-1*
G04 #@! TF.CreationDate,2019-05-10T18:20:53+02:00*
G04 #@! TF.ProjectId,bt-trx-dev-board,62742d74-7278-42d6-9465-762d626f6172,2.0*
G04 #@! TF.SameCoordinates,Original*
G04 #@! TF.FileFunction,Soldermask,Bot*
G04 #@! TF.FilePolarity,Negative*
%FSLAX46Y46*%
G04 Gerber Fmt 4.6, Leading zero omitted, Abs format (unit mm)*
G04 Created by KiCad (PCBNEW 5.0.2+dfsg1-1) date Fri 10 May 2019 06:20:53 PM CEST*
%MOMM*%
%LPD*%
G01*
G04 APERTURE LIST*
%ADD10C,0.100000*%
G04 APERTURE END LIST*
D10*
G04 #@! TO.C,SW1*
X179572000Y-126094000D02*
G75*
G03X179572000Y-126094000I-1143000J0D01*
G01*
X181818000Y-120344000D02*
G75*
G03X181818000Y-120344000I-889000J0D01*
G01*
X181818000Y-124844000D02*
G75*
G03X181818000Y-124844000I-889000J0D01*
G01*
X179572000Y-119094000D02*
G75*
G03X179572000Y-119094000I-1143000J0D01*
G01*
G36*
X157625256Y-125141298D02*
X157731579Y-125162447D01*
X157822143Y-125199960D01*
X157993128Y-125270784D01*
X158032042Y-125286903D01*
X158141858Y-125360280D01*
X158302454Y-125467587D01*
X158532413Y-125697546D01*
X158713098Y-125967960D01*
X158749550Y-126055963D01*
X158812263Y-126207365D01*
X158837553Y-126268422D01*
X158901000Y-126587389D01*
X158901000Y-126912611D01*
X158885996Y-126988040D01*
X158837553Y-127231579D01*
X158749550Y-127444037D01*
X158713098Y-127532040D01*
X158532413Y-127802454D01*
X158302454Y-128032413D01*
X158302451Y-128032415D01*
X158032042Y-128213097D01*
X157731579Y-128337553D01*
X157625256Y-128358702D01*
X157412611Y-128401000D01*
X157087389Y-128401000D01*
X156874744Y-128358702D01*
X156768421Y-128337553D01*
X156467958Y-128213097D01*
X156197549Y-128032415D01*
X156197546Y-128032413D01*
X155967587Y-127802454D01*
X155786902Y-127532040D01*
X155750450Y-127444037D01*
X155662447Y-127231579D01*
X155614004Y-126988040D01*
X155599000Y-126912611D01*
X155599000Y-126587389D01*
X155662447Y-126268422D01*
X155687738Y-126207365D01*
X155750450Y-126055963D01*
X155786902Y-125967960D01*
X155967587Y-125697546D01*
X156197546Y-125467587D01*
X156358142Y-125360280D01*
X156467958Y-125286903D01*
X156506873Y-125270784D01*
X156677857Y-125199960D01*
X156768421Y-125162447D01*
X156874744Y-125141298D01*
X157087389Y-125099000D01*
X157412611Y-125099000D01*
X157625256Y-125141298D01*
X157625256Y-125141298D01*
G37*
G36*
X178764734Y-124987232D02*
X178974202Y-125073996D01*
X179162723Y-125199962D01*
X179323038Y-125360277D01*
X179449004Y-125548798D01*
X179535768Y-125758266D01*
X179580000Y-125980635D01*
X179580000Y-126207365D01*
X179535768Y-126429734D01*
X179449004Y-126639202D01*
X179323038Y-126827723D01*
X179162723Y-126988038D01*
X178974202Y-127114004D01*
X178764734Y-127200768D01*
X178542365Y-127245000D01*
X178315635Y-127245000D01*
X178093266Y-127200768D01*
X177883798Y-127114004D01*
X177695277Y-126988038D01*
X177534962Y-126827723D01*
X177408996Y-126639202D01*
X177322232Y-126429734D01*
X177278000Y-126207365D01*
X177278000Y-125980635D01*
X177322232Y-125758266D01*
X177408996Y-125548798D01*
X177534962Y-125360277D01*
X177695277Y-125199962D01*
X177883798Y-125073996D01*
X178093266Y-124987232D01*
X178315635Y-124943000D01*
X178542365Y-124943000D01*
X178764734Y-124987232D01*
X178764734Y-124987232D01*
G37*
G36*
X181191812Y-123977624D02*
X181355784Y-124045544D01*
X181503354Y-124144147D01*
X181628853Y-124269646D01*
X181727456Y-124417216D01*
X181795376Y-124581188D01*
X181830000Y-124755259D01*
X181830000Y-124932741D01*
X181795376Y-125106812D01*
X181727456Y-125270784D01*
X181628853Y-125418354D01*
X181503354Y-125543853D01*
X181355784Y-125642456D01*
X181191812Y-125710376D01*
X181017741Y-125745000D01*
X180840259Y-125745000D01*
X180666188Y-125710376D01*
X180502216Y-125642456D01*
X180354646Y-125543853D01*
X180229147Y-125418354D01*
X180130544Y-125270784D01*
X180062624Y-125106812D01*
X180028000Y-124932741D01*
X180028000Y-124755259D01*
X180062624Y-124581188D01*
X180130544Y-124417216D01*
X180229147Y-124269646D01*
X180354646Y-124144147D01*
X180502216Y-124045544D01*
X180666188Y-123977624D01*
X180840259Y-123943000D01*
X181017741Y-123943000D01*
X181191812Y-123977624D01*
X181191812Y-123977624D01*
G37*
G36*
X181191812Y-119477624D02*
X181355784Y-119545544D01*
X181503354Y-119644147D01*
X181628853Y-119769646D01*
X181727456Y-119917216D01*
X181795376Y-120081188D01*
X181830000Y-120255259D01*
X181830000Y-120432741D01*
X181795376Y-120606812D01*
X181727456Y-120770784D01*
X181628853Y-120918354D01*
X181503354Y-121043853D01*
X181355784Y-121142456D01*
X181191812Y-121210376D01*
X181017741Y-121245000D01*
X180840259Y-121245000D01*
X180666188Y-121210376D01*
X180502216Y-121142456D01*
X180354646Y-121043853D01*
X180229147Y-120918354D01*
X180130544Y-120770784D01*
X180062624Y-120606812D01*
X180028000Y-120432741D01*
X180028000Y-120255259D01*
X180062624Y-120081188D01*
X180130544Y-119917216D01*
X180229147Y-119769646D01*
X180354646Y-119644147D01*
X180502216Y-119545544D01*
X180666188Y-119477624D01*
X180840259Y-119443000D01*
X181017741Y-119443000D01*
X181191812Y-119477624D01*
X181191812Y-119477624D01*
G37*
G36*
X178764734Y-117987232D02*
X178974202Y-118073996D01*
X179162723Y-118199962D01*
X179323038Y-118360277D01*
X179449004Y-118548798D01*
X179535768Y-118758266D01*
X179580000Y-118980635D01*
X179580000Y-119207365D01*
X179535768Y-119429734D01*
X179449004Y-119639202D01*
X179323038Y-119827723D01*
X179162723Y-119988038D01*
X178974202Y-120114004D01*
X178764734Y-120200768D01*
X178542365Y-120245000D01*
X178315635Y-120245000D01*
X178093266Y-120200768D01*
X177883798Y-120114004D01*
X177695277Y-119988038D01*
X177534962Y-119827723D01*
X177408996Y-119639202D01*
X177322232Y-119429734D01*
X177278000Y-119207365D01*
X177278000Y-118980635D01*
X177322232Y-118758266D01*
X177408996Y-118548798D01*
X177534962Y-118360277D01*
X177695277Y-118199962D01*
X177883798Y-118073996D01*
X178093266Y-117987232D01*
X178315635Y-117943000D01*
X178542365Y-117943000D01*
X178764734Y-117987232D01*
X178764734Y-117987232D01*
G37*
G36*
X179399228Y-114318703D02*
X179554100Y-114382853D01*
X179693481Y-114475985D01*
X179812015Y-114594519D01*
X179905147Y-114733900D01*
X179969297Y-114888772D01*
X180002000Y-115053184D01*
X180002000Y-115220816D01*
X179969297Y-115385228D01*
X179905147Y-115540100D01*
X179812015Y-115679481D01*
X179693481Y-115798015D01*
X179554100Y-115891147D01*
X179399228Y-115955297D01*
X179234816Y-115988000D01*
X179067184Y-115988000D01*
X178902772Y-115955297D01*
X178747900Y-115891147D01*
X178608519Y-115798015D01*
X178489985Y-115679481D01*
X178396853Y-115540100D01*
X178332703Y-115385228D01*
X178300000Y-115220816D01*
X178300000Y-115053184D01*
X178332703Y-114888772D01*
X178396853Y-114733900D01*
X178489985Y-114594519D01*
X178608519Y-114475985D01*
X178747900Y-114382853D01*
X178902772Y-114318703D01*
X179067184Y-114286000D01*
X179234816Y-114286000D01*
X179399228Y-114318703D01*
X179399228Y-114318703D01*
G37*
G36*
X181939228Y-114318703D02*
X182094100Y-114382853D01*
X182233481Y-114475985D01*
X182352015Y-114594519D01*
X182445147Y-114733900D01*
X182509297Y-114888772D01*
X182542000Y-115053184D01*
X182542000Y-115220816D01*
X182509297Y-115385228D01*
X182445147Y-115540100D01*
X182352015Y-115679481D01*
X182233481Y-115798015D01*
X182094100Y-115891147D01*
X181939228Y-115955297D01*
X181774816Y-115988000D01*
X181607184Y-115988000D01*
X181442772Y-115955297D01*
X181287900Y-115891147D01*
X181148519Y-115798015D01*
X181029985Y-115679481D01*
X180936853Y-115540100D01*
X180872703Y-115385228D01*
X180840000Y-115220816D01*
X180840000Y-115053184D01*
X180872703Y-114888772D01*
X180936853Y-114733900D01*
X181029985Y-114594519D01*
X181148519Y-114475985D01*
X181287900Y-114382853D01*
X181442772Y-114318703D01*
X181607184Y-114286000D01*
X181774816Y-114286000D01*
X181939228Y-114318703D01*
X181939228Y-114318703D01*
G37*
G36*
X174319228Y-114318703D02*
X174474100Y-114382853D01*
X174613481Y-114475985D01*
X174732015Y-114594519D01*
X174825147Y-114733900D01*
X174889297Y-114888772D01*
X174922000Y-115053184D01*
X174922000Y-115220816D01*
X174889297Y-115385228D01*
X174825147Y-115540100D01*
X174732015Y-115679481D01*
X174613481Y-115798015D01*
X174474100Y-115891147D01*
X174319228Y-115955297D01*
X174154816Y-115988000D01*
X173987184Y-115988000D01*
X173822772Y-115955297D01*
X173667900Y-115891147D01*
X173528519Y-115798015D01*
X173409985Y-115679481D01*
X173316853Y-115540100D01*
X173252703Y-115385228D01*
X173220000Y-115220816D01*
X173220000Y-115053184D01*
X173252703Y-114888772D01*
X173316853Y-114733900D01*
X173409985Y-114594519D01*
X173528519Y-114475985D01*
X173667900Y-114382853D01*
X173822772Y-114318703D01*
X173987184Y-114286000D01*
X174154816Y-114286000D01*
X174319228Y-114318703D01*
X174319228Y-114318703D01*
G37*
G36*
X171779228Y-114318703D02*
X171934100Y-114382853D01*
X172073481Y-114475985D01*
X172192015Y-114594519D01*
X172285147Y-114733900D01*
X172349297Y-114888772D01*
X172382000Y-115053184D01*
X172382000Y-115220816D01*
X172349297Y-115385228D01*
X172285147Y-115540100D01*
X172192015Y-115679481D01*
X172073481Y-115798015D01*
X171934100Y-115891147D01*
X171779228Y-115955297D01*
X171614816Y-115988000D01*
X171447184Y-115988000D01*
X171282772Y-115955297D01*
X171127900Y-115891147D01*
X170988519Y-115798015D01*
X170869985Y-115679481D01*
X170776853Y-115540100D01*
X170712703Y-115385228D01*
X170680000Y-115220816D01*
X170680000Y-115053184D01*
X170712703Y-114888772D01*
X170776853Y-114733900D01*
X170869985Y-114594519D01*
X170988519Y-114475985D01*
X171127900Y-114382853D01*
X171282772Y-114318703D01*
X171447184Y-114286000D01*
X171614816Y-114286000D01*
X171779228Y-114318703D01*
X171779228Y-114318703D01*
G37*
G36*
X169239228Y-114318703D02*
X169394100Y-114382853D01*
X169533481Y-114475985D01*
X169652015Y-114594519D01*
X169745147Y-114733900D01*
X169809297Y-114888772D01*
X169842000Y-115053184D01*
X169842000Y-115220816D01*
X169809297Y-115385228D01*
X169745147Y-115540100D01*
X169652015Y-115679481D01*
X169533481Y-115798015D01*
X169394100Y-115891147D01*
X169239228Y-115955297D01*
X169074816Y-115988000D01*
X168907184Y-115988000D01*
X168742772Y-115955297D01*
X168587900Y-115891147D01*
X168448519Y-115798015D01*
X168329985Y-115679481D01*
X168236853Y-115540100D01*
X168172703Y-115385228D01*
X168140000Y-115220816D01*
X168140000Y-115053184D01*
X168172703Y-114888772D01*
X168236853Y-114733900D01*
X168329985Y-114594519D01*
X168448519Y-114475985D01*
X168587900Y-114382853D01*
X168742772Y-114318703D01*
X168907184Y-114286000D01*
X169074816Y-114286000D01*
X169239228Y-114318703D01*
X169239228Y-114318703D01*
G37*
G36*
X166699228Y-114318703D02*
X166854100Y-114382853D01*
X166993481Y-114475985D01*
X167112015Y-114594519D01*
X167205147Y-114733900D01*
X167269297Y-114888772D01*
X167302000Y-115053184D01*
X167302000Y-115220816D01*
X167269297Y-115385228D01*
X167205147Y-115540100D01*
X167112015Y-115679481D01*
X166993481Y-115798015D01*
X166854100Y-115891147D01*
X166699228Y-115955297D01*
X166534816Y-115988000D01*
X166367184Y-115988000D01*
X166202772Y-115955297D01*
X166047900Y-115891147D01*
X165908519Y-115798015D01*
X165789985Y-115679481D01*
X165696853Y-115540100D01*
X165632703Y-115385228D01*
X165600000Y-115220816D01*
X165600000Y-115053184D01*
X165632703Y-114888772D01*
X165696853Y-114733900D01*
X165789985Y-114594519D01*
X165908519Y-114475985D01*
X166047900Y-114382853D01*
X166202772Y-114318703D01*
X166367184Y-114286000D01*
X166534816Y-114286000D01*
X166699228Y-114318703D01*
X166699228Y-114318703D01*
G37*
G36*
X164159228Y-114318703D02*
X164314100Y-114382853D01*
X164453481Y-114475985D01*
X164572015Y-114594519D01*
X164665147Y-114733900D01*
X164729297Y-114888772D01*
X164762000Y-115053184D01*
X164762000Y-115220816D01*
X164729297Y-115385228D01*
X164665147Y-115540100D01*
X164572015Y-115679481D01*
X164453481Y-115798015D01*
X164314100Y-115891147D01*
X164159228Y-115955297D01*
X163994816Y-115988000D01*
X163827184Y-115988000D01*
X163662772Y-115955297D01*
X163507900Y-115891147D01*
X163368519Y-115798015D01*
X163249985Y-115679481D01*
X163156853Y-115540100D01*
X163092703Y-115385228D01*
X163060000Y-115220816D01*
X163060000Y-115053184D01*
X163092703Y-114888772D01*
X163156853Y-114733900D01*
X163249985Y-114594519D01*
X163368519Y-114475985D01*
X163507900Y-114382853D01*
X163662772Y-114318703D01*
X163827184Y-114286000D01*
X163994816Y-114286000D01*
X164159228Y-114318703D01*
X164159228Y-114318703D01*
G37*
G36*
X159079228Y-114318703D02*
X159234100Y-114382853D01*
X159373481Y-114475985D01*
X159492015Y-114594519D01*
X159585147Y-114733900D01*
X159649297Y-114888772D01*
X159682000Y-115053184D01*
X159682000Y-115220816D01*
X159649297Y-115385228D01*
X159585147Y-115540100D01*
X159492015Y-115679481D01*
X159373481Y-115798015D01*
X159234100Y-115891147D01*
X159079228Y-115955297D01*
X158914816Y-115988000D01*
X158747184Y-115988000D01*
X158582772Y-115955297D01*
X158427900Y-115891147D01*
X158288519Y-115798015D01*
X158169985Y-115679481D01*
X158076853Y-115540100D01*
X158012703Y-115385228D01*
X157980000Y-115220816D01*
X157980000Y-115053184D01*
X158012703Y-114888772D01*
X158076853Y-114733900D01*
X158169985Y-114594519D01*
X158288519Y-114475985D01*
X158427900Y-114382853D01*
X158582772Y-114318703D01*
X158747184Y-114286000D01*
X158914816Y-114286000D01*
X159079228Y-114318703D01*
X159079228Y-114318703D01*
G37*
G36*
X153999228Y-114318703D02*
X154154100Y-114382853D01*
X154293481Y-114475985D01*
X154412015Y-114594519D01*
X154505147Y-114733900D01*
X154569297Y-114888772D01*
X154602000Y-115053184D01*
X154602000Y-115220816D01*
X154569297Y-115385228D01*
X154505147Y-115540100D01*
X154412015Y-115679481D01*
X154293481Y-115798015D01*
X154154100Y-115891147D01*
X153999228Y-115955297D01*
X153834816Y-115988000D01*
X153667184Y-115988000D01*
X153502772Y-115955297D01*
X153347900Y-115891147D01*
X153208519Y-115798015D01*
X153089985Y-115679481D01*
X152996853Y-115540100D01*
X152932703Y-115385228D01*
X152900000Y-115220816D01*
X152900000Y-115053184D01*
X152932703Y-114888772D01*
X152996853Y-114733900D01*
X153089985Y-114594519D01*
X153208519Y-114475985D01*
X153347900Y-114382853D01*
X153502772Y-114318703D01*
X153667184Y-114286000D01*
X153834816Y-114286000D01*
X153999228Y-114318703D01*
X153999228Y-114318703D01*
G37*
G36*
X151459228Y-114318703D02*
X151614100Y-114382853D01*
X151753481Y-114475985D01*
X151872015Y-114594519D01*
X151965147Y-114733900D01*
X152029297Y-114888772D01*
X152062000Y-115053184D01*
X152062000Y-115220816D01*
X152029297Y-115385228D01*
X151965147Y-115540100D01*
X151872015Y-115679481D01*
X151753481Y-115798015D01*
X151614100Y-115891147D01*
X151459228Y-115955297D01*
X151294816Y-115988000D01*
X151127184Y-115988000D01*
X150962772Y-115955297D01*
X150807900Y-115891147D01*
X150668519Y-115798015D01*
X150549985Y-115679481D01*
X150456853Y-115540100D01*
X150392703Y-115385228D01*
X150360000Y-115220816D01*
X150360000Y-115053184D01*
X150392703Y-114888772D01*
X150456853Y-114733900D01*
X150549985Y-114594519D01*
X150668519Y-114475985D01*
X150807900Y-114382853D01*
X150962772Y-114318703D01*
X151127184Y-114286000D01*
X151294816Y-114286000D01*
X151459228Y-114318703D01*
X151459228Y-114318703D01*
G37*
G36*
X148919228Y-114318703D02*
X149074100Y-114382853D01*
X149213481Y-114475985D01*
X149332015Y-114594519D01*
X149425147Y-114733900D01*
X149489297Y-114888772D01*
X149522000Y-115053184D01*
X149522000Y-115220816D01*
X149489297Y-115385228D01*
X149425147Y-115540100D01*
X149332015Y-115679481D01*
X149213481Y-115798015D01*
X149074100Y-115891147D01*
X148919228Y-115955297D01*
X148754816Y-115988000D01*
X148587184Y-115988000D01*
X148422772Y-115955297D01*
X148267900Y-115891147D01*
X148128519Y-115798015D01*
X148009985Y-115679481D01*
X147916853Y-115540100D01*
X147852703Y-115385228D01*
X147820000Y-115220816D01*
X147820000Y-115053184D01*
X147852703Y-114888772D01*
X147916853Y-114733900D01*
X148009985Y-114594519D01*
X148128519Y-114475985D01*
X148267900Y-114382853D01*
X148422772Y-114318703D01*
X148587184Y-114286000D01*
X148754816Y-114286000D01*
X148919228Y-114318703D01*
X148919228Y-114318703D01*
G37*
G36*
X176859228Y-114318703D02*
X177014100Y-114382853D01*
X177153481Y-114475985D01*
X177272015Y-114594519D01*
X177365147Y-114733900D01*
X177429297Y-114888772D01*
X177462000Y-115053184D01*
X177462000Y-115220816D01*
X177429297Y-115385228D01*
X177365147Y-115540100D01*
X177272015Y-115679481D01*
X177153481Y-115798015D01*
X177014100Y-115891147D01*
X176859228Y-115955297D01*
X176694816Y-115988000D01*
X176527184Y-115988000D01*
X176362772Y-115955297D01*
X176207900Y-115891147D01*
X176068519Y-115798015D01*
X175949985Y-115679481D01*
X175856853Y-115540100D01*
X175792703Y-115385228D01*
X175760000Y-115220816D01*
X175760000Y-115053184D01*
X175792703Y-114888772D01*
X175856853Y-114733900D01*
X175949985Y-114594519D01*
X176068519Y-114475985D01*
X176207900Y-114382853D01*
X176362772Y-114318703D01*
X176527184Y-114286000D01*
X176694816Y-114286000D01*
X176859228Y-114318703D01*
X176859228Y-114318703D01*
G37*
G36*
X156539228Y-114318703D02*
X156694100Y-114382853D01*
X156833481Y-114475985D01*
X156952015Y-114594519D01*
X157045147Y-114733900D01*
X157109297Y-114888772D01*
X157142000Y-115053184D01*
X157142000Y-115220816D01*
X157109297Y-115385228D01*
X157045147Y-115540100D01*
X156952015Y-115679481D01*
X156833481Y-115798015D01*
X156694100Y-115891147D01*
X156539228Y-115955297D01*
X156374816Y-115988000D01*
X156207184Y-115988000D01*
X156042772Y-115955297D01*
X155887900Y-115891147D01*
X155748519Y-115798015D01*
X155629985Y-115679481D01*
X155536853Y-115540100D01*
X155472703Y-115385228D01*
X155440000Y-115220816D01*
X155440000Y-115053184D01*
X155472703Y-114888772D01*
X155536853Y-114733900D01*
X155629985Y-114594519D01*
X155748519Y-114475985D01*
X155887900Y-114382853D01*
X156042772Y-114318703D01*
X156207184Y-114286000D01*
X156374816Y-114286000D01*
X156539228Y-114318703D01*
X156539228Y-114318703D01*
G37*
G36*
X161619228Y-114318703D02*
X161774100Y-114382853D01*
X161913481Y-114475985D01*
X162032015Y-114594519D01*
X162125147Y-114733900D01*
X162189297Y-114888772D01*
X162222000Y-115053184D01*
X162222000Y-115220816D01*
X162189297Y-115385228D01*
X162125147Y-115540100D01*
X162032015Y-115679481D01*
X161913481Y-115798015D01*
X161774100Y-115891147D01*
X161619228Y-115955297D01*
X161454816Y-115988000D01*
X161287184Y-115988000D01*
X161122772Y-115955297D01*
X160967900Y-115891147D01*
X160828519Y-115798015D01*
X160709985Y-115679481D01*
X160616853Y-115540100D01*
X160552703Y-115385228D01*
X160520000Y-115220816D01*
X160520000Y-115053184D01*
X160552703Y-114888772D01*
X160616853Y-114733900D01*
X160709985Y-114594519D01*
X160828519Y-114475985D01*
X160967900Y-114382853D01*
X161122772Y-114318703D01*
X161287184Y-114286000D01*
X161454816Y-114286000D01*
X161619228Y-114318703D01*
X161619228Y-114318703D01*
G37*
G36*
X148919228Y-111778703D02*
X149074100Y-111842853D01*
X149213481Y-111935985D01*
X149332015Y-112054519D01*
X149425147Y-112193900D01*
X149489297Y-112348772D01*
X149522000Y-112513184D01*
X149522000Y-112680816D01*
X149489297Y-112845228D01*
X149425147Y-113000100D01*
X149332015Y-113139481D01*
X149213481Y-113258015D01*
X149074100Y-113351147D01*
X148919228Y-113415297D01*
X148754816Y-113448000D01*
X148587184Y-113448000D01*
X148422772Y-113415297D01*
X148267900Y-113351147D01*
X148128519Y-113258015D01*
X148009985Y-113139481D01*
X147916853Y-113000100D01*
X147852703Y-112845228D01*
X147820000Y-112680816D01*
X147820000Y-112513184D01*
X147852703Y-112348772D01*
X147916853Y-112193900D01*
X148009985Y-112054519D01*
X148128519Y-111935985D01*
X148267900Y-111842853D01*
X148422772Y-111778703D01*
X148587184Y-111746000D01*
X148754816Y-111746000D01*
X148919228Y-111778703D01*
X148919228Y-111778703D01*
G37*
G36*
X179399228Y-111778703D02*
X179554100Y-111842853D01*
X179693481Y-111935985D01*
X179812015Y-112054519D01*
X179905147Y-112193900D01*
X179969297Y-112348772D01*
X180002000Y-112513184D01*
X180002000Y-112680816D01*
X179969297Y-112845228D01*
X179905147Y-113000100D01*
X179812015Y-113139481D01*
X179693481Y-113258015D01*
X179554100Y-113351147D01*
X179399228Y-113415297D01*
X179234816Y-113448000D01*
X179067184Y-113448000D01*
X178902772Y-113415297D01*
X178747900Y-113351147D01*
X178608519Y-113258015D01*
X178489985Y-113139481D01*
X178396853Y-113000100D01*
X178332703Y-112845228D01*
X178300000Y-112680816D01*
X178300000Y-112513184D01*
X178332703Y-112348772D01*
X178396853Y-112193900D01*
X178489985Y-112054519D01*
X178608519Y-111935985D01*
X178747900Y-111842853D01*
X178902772Y-111778703D01*
X179067184Y-111746000D01*
X179234816Y-111746000D01*
X179399228Y-111778703D01*
X179399228Y-111778703D01*
G37*
G36*
X130110443Y-110605519D02*
X130176627Y-110612037D01*
X130289853Y-110646384D01*
X130346467Y-110663557D01*
X130448347Y-110718014D01*
X130502991Y-110747222D01*
X130538729Y-110776552D01*
X130640186Y-110859814D01*
X130723448Y-110961271D01*
X130752778Y-110997009D01*
X130752779Y-110997011D01*
X130836443Y-111153533D01*
X130836443Y-111153534D01*
X130887963Y-111323373D01*
X130905359Y-111500000D01*
X130887963Y-111676627D01*
X130866919Y-111746000D01*
X130836443Y-111846467D01*
X130788594Y-111935985D01*
X130752778Y-112002991D01*
X130723448Y-112038729D01*
X130640186Y-112140186D01*
X130574734Y-112193900D01*
X130502991Y-112252778D01*
X130502989Y-112252779D01*
X130346467Y-112336443D01*
X130305823Y-112348772D01*
X130176627Y-112387963D01*
X130110443Y-112394481D01*
X130044260Y-112401000D01*
X129955740Y-112401000D01*
X129889557Y-112394481D01*
X129823373Y-112387963D01*
X129694177Y-112348772D01*
X129653533Y-112336443D01*
X129497011Y-112252779D01*
X129497009Y-112252778D01*
X129425266Y-112193900D01*
X129359814Y-112140186D01*
X129276552Y-112038729D01*
X129247222Y-112002991D01*
X129211406Y-111935985D01*
X129163557Y-111846467D01*
X129133081Y-111746000D01*
X129112037Y-111676627D01*
X129094641Y-111500000D01*
X129112037Y-111323373D01*
X129163557Y-111153534D01*
X129163557Y-111153533D01*
X129247221Y-110997011D01*
X129247222Y-110997009D01*
X129276552Y-110961271D01*
X129359814Y-110859814D01*
X129461271Y-110776552D01*
X129497009Y-110747222D01*
X129551653Y-110718014D01*
X129653533Y-110663557D01*
X129710147Y-110646384D01*
X129823373Y-110612037D01*
X129889557Y-110605519D01*
X129955740Y-110599000D01*
X130044260Y-110599000D01*
X130110443Y-110605519D01*
X130110443Y-110605519D01*
G37*
G36*
X127570443Y-110605519D02*
X127636627Y-110612037D01*
X127749853Y-110646384D01*
X127806467Y-110663557D01*
X127908347Y-110718014D01*
X127962991Y-110747222D01*
X127998729Y-110776552D01*
X128100186Y-110859814D01*
X128183448Y-110961271D01*
X128212778Y-110997009D01*
X128212779Y-110997011D01*
X128296443Y-111153533D01*
X128296443Y-111153534D01*
X128347963Y-111323373D01*
X128365359Y-111500000D01*
X128347963Y-111676627D01*
X128326919Y-111746000D01*
X128296443Y-111846467D01*
X128248594Y-111935985D01*
X128212778Y-112002991D01*
X128183448Y-112038729D01*
X128100186Y-112140186D01*
X128034734Y-112193900D01*
X127962991Y-112252778D01*
X127962989Y-112252779D01*
X127806467Y-112336443D01*
X127765823Y-112348772D01*
X127636627Y-112387963D01*
X127570443Y-112394481D01*
X127504260Y-112401000D01*
X127415740Y-112401000D01*
X127349557Y-112394481D01*
X127283373Y-112387963D01*
X127154177Y-112348772D01*
X127113533Y-112336443D01*
X126957011Y-112252779D01*
X126957009Y-112252778D01*
X126885266Y-112193900D01*
X126819814Y-112140186D01*
X126736552Y-112038729D01*
X126707222Y-112002991D01*
X126671406Y-111935985D01*
X126623557Y-111846467D01*
X126593081Y-111746000D01*
X126572037Y-111676627D01*
X126554641Y-111500000D01*
X126572037Y-111323373D01*
X126623557Y-111153534D01*
X126623557Y-111153533D01*
X126707221Y-110997011D01*
X126707222Y-110997009D01*
X126736552Y-110961271D01*
X126819814Y-110859814D01*
X126921271Y-110776552D01*
X126957009Y-110747222D01*
X127011653Y-110718014D01*
X127113533Y-110663557D01*
X127170147Y-110646384D01*
X127283373Y-110612037D01*
X127349557Y-110605519D01*
X127415740Y-110599000D01*
X127504260Y-110599000D01*
X127570443Y-110605519D01*
X127570443Y-110605519D01*
G37*
G36*
X132650443Y-110605519D02*
X132716627Y-110612037D01*
X132829853Y-110646384D01*
X132886467Y-110663557D01*
X132988347Y-110718014D01*
X133042991Y-110747222D01*
X133078729Y-110776552D01*
X133180186Y-110859814D01*
X133263448Y-110961271D01*
X133292778Y-110997009D01*
X133292779Y-110997011D01*
X133376443Y-111153533D01*
X133376443Y-111153534D01*
X133427963Y-111323373D01*
X133445359Y-111500000D01*
X133427963Y-111676627D01*
X133406919Y-111746000D01*
X133376443Y-111846467D01*
X133328594Y-111935985D01*
X133292778Y-112002991D01*
X133263448Y-112038729D01*
X133180186Y-112140186D01*
X133114734Y-112193900D01*
X133042991Y-112252778D01*
X133042989Y-112252779D01*
X132886467Y-112336443D01*
X132845823Y-112348772D01*
X132716627Y-112387963D01*
X132650443Y-112394481D01*
X132584260Y-112401000D01*
X132495740Y-112401000D01*
X132429557Y-112394481D01*
X132363373Y-112387963D01*
X132234177Y-112348772D01*
X132193533Y-112336443D01*
X132037011Y-112252779D01*
X132037009Y-112252778D01*
X131965266Y-112193900D01*
X131899814Y-112140186D01*
X131816552Y-112038729D01*
X131787222Y-112002991D01*
X131751406Y-111935985D01*
X131703557Y-111846467D01*
X131673081Y-111746000D01*
X131652037Y-111676627D01*
X131634641Y-111500000D01*
X131652037Y-111323373D01*
X131703557Y-111153534D01*
X131703557Y-111153533D01*
X131787221Y-110997011D01*
X131787222Y-110997009D01*
X131816552Y-110961271D01*
X131899814Y-110859814D01*
X132001271Y-110776552D01*
X132037009Y-110747222D01*
X132091653Y-110718014D01*
X132193533Y-110663557D01*
X132250147Y-110646384D01*
X132363373Y-110612037D01*
X132429557Y-110605519D01*
X132495740Y-110599000D01*
X132584260Y-110599000D01*
X132650443Y-110605519D01*
X132650443Y-110605519D01*
G37*
G36*
X125821000Y-112401000D02*
X124019000Y-112401000D01*
X124019000Y-110599000D01*
X125821000Y-110599000D01*
X125821000Y-112401000D01*
X125821000Y-112401000D01*
G37*
G36*
X148919228Y-109238703D02*
X149074100Y-109302853D01*
X149213481Y-109395985D01*
X149332015Y-109514519D01*
X149425147Y-109653900D01*
X149489297Y-109808772D01*
X149522000Y-109973184D01*
X149522000Y-110140816D01*
X149489297Y-110305228D01*
X149425147Y-110460100D01*
X149332015Y-110599481D01*
X149213481Y-110718015D01*
X149074100Y-110811147D01*
X148919228Y-110875297D01*
X148754816Y-110908000D01*
X148587184Y-110908000D01*
X148422772Y-110875297D01*
X148267900Y-110811147D01*
X148128519Y-110718015D01*
X148009985Y-110599481D01*
X147916853Y-110460100D01*
X147852703Y-110305228D01*
X147820000Y-110140816D01*
X147820000Y-109973184D01*
X147852703Y-109808772D01*
X147916853Y-109653900D01*
X148009985Y-109514519D01*
X148128519Y-109395985D01*
X148267900Y-109302853D01*
X148422772Y-109238703D01*
X148587184Y-109206000D01*
X148754816Y-109206000D01*
X148919228Y-109238703D01*
X148919228Y-109238703D01*
G37*
G36*
X148919228Y-106698703D02*
X149074100Y-106762853D01*
X149213481Y-106855985D01*
X149332015Y-106974519D01*
X149425147Y-107113900D01*
X149489297Y-107268772D01*
X149522000Y-107433184D01*
X149522000Y-107600816D01*
X149489297Y-107765228D01*
X149425147Y-107920100D01*
X149332015Y-108059481D01*
X149213481Y-108178015D01*
X149074100Y-108271147D01*
X148919228Y-108335297D01*
X148754816Y-108368000D01*
X148587184Y-108368000D01*
X148422772Y-108335297D01*
X148267900Y-108271147D01*
X148128519Y-108178015D01*
X148009985Y-108059481D01*
X147916853Y-107920100D01*
X147852703Y-107765228D01*
X147820000Y-107600816D01*
X147820000Y-107433184D01*
X147852703Y-107268772D01*
X147916853Y-107113900D01*
X148009985Y-106974519D01*
X148128519Y-106855985D01*
X148267900Y-106762853D01*
X148422772Y-106698703D01*
X148587184Y-106666000D01*
X148754816Y-106666000D01*
X148919228Y-106698703D01*
X148919228Y-106698703D01*
G37*
G36*
X148919228Y-104158703D02*
X149074100Y-104222853D01*
X149213481Y-104315985D01*
X149332015Y-104434519D01*
X149425147Y-104573900D01*
X149489297Y-104728772D01*
X149522000Y-104893184D01*
X149522000Y-105060816D01*
X149489297Y-105225228D01*
X149425147Y-105380100D01*
X149332015Y-105519481D01*
X149213481Y-105638015D01*
X149074100Y-105731147D01*
X148919228Y-105795297D01*
X148754816Y-105828000D01*
X148587184Y-105828000D01*
X148422772Y-105795297D01*
X148267900Y-105731147D01*
X148128519Y-105638015D01*
X148009985Y-105519481D01*
X147916853Y-105380100D01*
X147852703Y-105225228D01*
X147820000Y-105060816D01*
X147820000Y-104893184D01*
X147852703Y-104728772D01*
X147916853Y-104573900D01*
X148009985Y-104434519D01*
X148128519Y-104315985D01*
X148267900Y-104222853D01*
X148422772Y-104158703D01*
X148587184Y-104126000D01*
X148754816Y-104126000D01*
X148919228Y-104158703D01*
X148919228Y-104158703D01*
G37*
G36*
X148919228Y-101618703D02*
X149074100Y-101682853D01*
X149213481Y-101775985D01*
X149332015Y-101894519D01*
X149425147Y-102033900D01*
X149489297Y-102188772D01*
X149522000Y-102353184D01*
X149522000Y-102520816D01*
X149489297Y-102685228D01*
X149425147Y-102840100D01*
X149332015Y-102979481D01*
X149213481Y-103098015D01*
X149074100Y-103191147D01*
X148919228Y-103255297D01*
X148754816Y-103288000D01*
X148587184Y-103288000D01*
X148422772Y-103255297D01*
X148267900Y-103191147D01*
X148128519Y-103098015D01*
X148009985Y-102979481D01*
X147916853Y-102840100D01*
X147852703Y-102685228D01*
X147820000Y-102520816D01*
X147820000Y-102353184D01*
X147852703Y-102188772D01*
X147916853Y-102033900D01*
X148009985Y-101894519D01*
X148128519Y-101775985D01*
X148267900Y-101682853D01*
X148422772Y-101618703D01*
X148587184Y-101586000D01*
X148754816Y-101586000D01*
X148919228Y-101618703D01*
X148919228Y-101618703D01*
G37*
G36*
X153999228Y-99078703D02*
X154154100Y-99142853D01*
X154293481Y-99235985D01*
X154412015Y-99354519D01*
X154505147Y-99493900D01*
X154569297Y-99648772D01*
X154602000Y-99813184D01*
X154602000Y-99980816D01*
X154569297Y-100145228D01*
X154505147Y-100300100D01*
X154412015Y-100439481D01*
X154293481Y-100558015D01*
X154154100Y-100651147D01*
X153999228Y-100715297D01*
X153834816Y-100748000D01*
X153667184Y-100748000D01*
X153502772Y-100715297D01*
X153347900Y-100651147D01*
X153208519Y-100558015D01*
X153089985Y-100439481D01*
X152996853Y-100300100D01*
X152932703Y-100145228D01*
X152900000Y-99980816D01*
X152900000Y-99813184D01*
X152932703Y-99648772D01*
X152996853Y-99493900D01*
X153089985Y-99354519D01*
X153208519Y-99235985D01*
X153347900Y-99142853D01*
X153502772Y-99078703D01*
X153667184Y-99046000D01*
X153834816Y-99046000D01*
X153999228Y-99078703D01*
X153999228Y-99078703D01*
G37*
G36*
X156539228Y-99078703D02*
X156694100Y-99142853D01*
X156833481Y-99235985D01*
X156952015Y-99354519D01*
X157045147Y-99493900D01*
X157109297Y-99648772D01*
X157142000Y-99813184D01*
X157142000Y-99980816D01*
X157109297Y-100145228D01*
X157045147Y-100300100D01*
X156952015Y-100439481D01*
X156833481Y-100558015D01*
X156694100Y-100651147D01*
X156539228Y-100715297D01*
X156374816Y-100748000D01*
X156207184Y-100748000D01*
X156042772Y-100715297D01*
X155887900Y-100651147D01*
X155748519Y-100558015D01*
X155629985Y-100439481D01*
X155536853Y-100300100D01*
X155472703Y-100145228D01*
X155440000Y-99980816D01*
X155440000Y-99813184D01*
X155472703Y-99648772D01*
X155536853Y-99493900D01*
X155629985Y-99354519D01*
X155748519Y-99235985D01*
X155887900Y-99142853D01*
X156042772Y-99078703D01*
X156207184Y-99046000D01*
X156374816Y-99046000D01*
X156539228Y-99078703D01*
X156539228Y-99078703D01*
G37*
G36*
X159079228Y-99078703D02*
X159234100Y-99142853D01*
X159373481Y-99235985D01*
X159492015Y-99354519D01*
X159585147Y-99493900D01*
X159649297Y-99648772D01*
X159682000Y-99813184D01*
X159682000Y-99980816D01*
X159649297Y-100145228D01*
X159585147Y-100300100D01*
X159492015Y-100439481D01*
X159373481Y-100558015D01*
X159234100Y-100651147D01*
X159079228Y-100715297D01*
X158914816Y-100748000D01*
X158747184Y-100748000D01*
X158582772Y-100715297D01*
X158427900Y-100651147D01*
X158288519Y-100558015D01*
X158169985Y-100439481D01*
X158076853Y-100300100D01*
X158012703Y-100145228D01*
X157980000Y-99980816D01*
X157980000Y-99813184D01*
X158012703Y-99648772D01*
X158076853Y-99493900D01*
X158169985Y-99354519D01*
X158288519Y-99235985D01*
X158427900Y-99142853D01*
X158582772Y-99078703D01*
X158747184Y-99046000D01*
X158914816Y-99046000D01*
X159079228Y-99078703D01*
X159079228Y-99078703D01*
G37*
G36*
X151459228Y-99078703D02*
X151614100Y-99142853D01*
X151753481Y-99235985D01*
X151872015Y-99354519D01*
X151965147Y-99493900D01*
X152029297Y-99648772D01*
X152062000Y-99813184D01*
X152062000Y-99980816D01*
X152029297Y-100145228D01*
X151965147Y-100300100D01*
X151872015Y-100439481D01*
X151753481Y-100558015D01*
X151614100Y-100651147D01*
X151459228Y-100715297D01*
X151294816Y-100748000D01*
X151127184Y-100748000D01*
X150962772Y-100715297D01*
X150807900Y-100651147D01*
X150668519Y-100558015D01*
X150549985Y-100439481D01*
X150456853Y-100300100D01*
X150392703Y-100145228D01*
X150360000Y-99980816D01*
X150360000Y-99813184D01*
X150392703Y-99648772D01*
X150456853Y-99493900D01*
X150549985Y-99354519D01*
X150668519Y-99235985D01*
X150807900Y-99142853D01*
X150962772Y-99078703D01*
X151127184Y-99046000D01*
X151294816Y-99046000D01*
X151459228Y-99078703D01*
X151459228Y-99078703D01*
G37*
G36*
X161619228Y-99078703D02*
X161774100Y-99142853D01*
X161913481Y-99235985D01*
X162032015Y-99354519D01*
X162125147Y-99493900D01*
X162189297Y-99648772D01*
X162222000Y-99813184D01*
X162222000Y-99980816D01*
X162189297Y-100145228D01*
X162125147Y-100300100D01*
X162032015Y-100439481D01*
X161913481Y-100558015D01*
X161774100Y-100651147D01*
X161619228Y-100715297D01*
X161454816Y-100748000D01*
X161287184Y-100748000D01*
X161122772Y-100715297D01*
X160967900Y-100651147D01*
X160828519Y-100558015D01*
X160709985Y-100439481D01*
X160616853Y-100300100D01*
X160552703Y-100145228D01*
X160520000Y-99980816D01*
X160520000Y-99813184D01*
X160552703Y-99648772D01*
X160616853Y-99493900D01*
X160709985Y-99354519D01*
X160828519Y-99235985D01*
X160967900Y-99142853D01*
X161122772Y-99078703D01*
X161287184Y-99046000D01*
X161454816Y-99046000D01*
X161619228Y-99078703D01*
X161619228Y-99078703D01*
G37*
G36*
X164159228Y-99078703D02*
X164314100Y-99142853D01*
X164453481Y-99235985D01*
X164572015Y-99354519D01*
X164665147Y-99493900D01*
X164729297Y-99648772D01*
X164762000Y-99813184D01*
X164762000Y-99980816D01*
X164729297Y-100145228D01*
X164665147Y-100300100D01*
X164572015Y-100439481D01*
X164453481Y-100558015D01*
X164314100Y-100651147D01*
X164159228Y-100715297D01*
X163994816Y-100748000D01*
X163827184Y-100748000D01*
X163662772Y-100715297D01*
X163507900Y-100651147D01*
X163368519Y-100558015D01*
X163249985Y-100439481D01*
X163156853Y-100300100D01*
X163092703Y-100145228D01*
X163060000Y-99980816D01*
X163060000Y-99813184D01*
X163092703Y-99648772D01*
X163156853Y-99493900D01*
X163249985Y-99354519D01*
X163368519Y-99235985D01*
X163507900Y-99142853D01*
X163662772Y-99078703D01*
X163827184Y-99046000D01*
X163994816Y-99046000D01*
X164159228Y-99078703D01*
X164159228Y-99078703D01*
G37*
G36*
X166699228Y-99078703D02*
X166854100Y-99142853D01*
X166993481Y-99235985D01*
X167112015Y-99354519D01*
X167205147Y-99493900D01*
X167269297Y-99648772D01*
X167302000Y-99813184D01*
X167302000Y-99980816D01*
X167269297Y-100145228D01*
X167205147Y-100300100D01*
X167112015Y-100439481D01*
X166993481Y-100558015D01*
X166854100Y-100651147D01*
X166699228Y-100715297D01*
X166534816Y-100748000D01*
X166367184Y-100748000D01*
X166202772Y-100715297D01*
X166047900Y-100651147D01*
X165908519Y-100558015D01*
X165789985Y-100439481D01*
X165696853Y-100300100D01*
X165632703Y-100145228D01*
X165600000Y-99980816D01*
X165600000Y-99813184D01*
X165632703Y-99648772D01*
X165696853Y-99493900D01*
X165789985Y-99354519D01*
X165908519Y-99235985D01*
X166047900Y-99142853D01*
X166202772Y-99078703D01*
X166367184Y-99046000D01*
X166534816Y-99046000D01*
X166699228Y-99078703D01*
X166699228Y-99078703D01*
G37*
G36*
X171779228Y-99078703D02*
X171934100Y-99142853D01*
X172073481Y-99235985D01*
X172192015Y-99354519D01*
X172285147Y-99493900D01*
X172349297Y-99648772D01*
X172382000Y-99813184D01*
X172382000Y-99980816D01*
X172349297Y-100145228D01*
X172285147Y-100300100D01*
X172192015Y-100439481D01*
X172073481Y-100558015D01*
X171934100Y-100651147D01*
X171779228Y-100715297D01*
X171614816Y-100748000D01*
X171447184Y-100748000D01*
X171282772Y-100715297D01*
X171127900Y-100651147D01*
X170988519Y-100558015D01*
X170869985Y-100439481D01*
X170776853Y-100300100D01*
X170712703Y-100145228D01*
X170680000Y-99980816D01*
X170680000Y-99813184D01*
X170712703Y-99648772D01*
X170776853Y-99493900D01*
X170869985Y-99354519D01*
X170988519Y-99235985D01*
X171127900Y-99142853D01*
X171282772Y-99078703D01*
X171447184Y-99046000D01*
X171614816Y-99046000D01*
X171779228Y-99078703D01*
X171779228Y-99078703D01*
G37*
G36*
X174319228Y-99078703D02*
X174474100Y-99142853D01*
X174613481Y-99235985D01*
X174732015Y-99354519D01*
X174825147Y-99493900D01*
X174889297Y-99648772D01*
X174922000Y-99813184D01*
X174922000Y-99980816D01*
X174889297Y-100145228D01*
X174825147Y-100300100D01*
X174732015Y-100439481D01*
X174613481Y-100558015D01*
X174474100Y-100651147D01*
X174319228Y-100715297D01*
X174154816Y-100748000D01*
X173987184Y-100748000D01*
X173822772Y-100715297D01*
X173667900Y-100651147D01*
X173528519Y-100558015D01*
X173409985Y-100439481D01*
X173316853Y-100300100D01*
X173252703Y-100145228D01*
X173220000Y-99980816D01*
X173220000Y-99813184D01*
X173252703Y-99648772D01*
X173316853Y-99493900D01*
X173409985Y-99354519D01*
X173528519Y-99235985D01*
X173667900Y-99142853D01*
X173822772Y-99078703D01*
X173987184Y-99046000D01*
X174154816Y-99046000D01*
X174319228Y-99078703D01*
X174319228Y-99078703D01*
G37*
G36*
X148919228Y-99078703D02*
X149074100Y-99142853D01*
X149213481Y-99235985D01*
X149332015Y-99354519D01*
X149425147Y-99493900D01*
X149489297Y-99648772D01*
X149522000Y-99813184D01*
X149522000Y-99980816D01*
X149489297Y-100145228D01*
X149425147Y-100300100D01*
X149332015Y-100439481D01*
X149213481Y-100558015D01*
X149074100Y-100651147D01*
X148919228Y-100715297D01*
X148754816Y-100748000D01*
X148587184Y-100748000D01*
X148422772Y-100715297D01*
X148267900Y-100651147D01*
X148128519Y-100558015D01*
X148009985Y-100439481D01*
X147916853Y-100300100D01*
X147852703Y-100145228D01*
X147820000Y-99980816D01*
X147820000Y-99813184D01*
X147852703Y-99648772D01*
X147916853Y-99493900D01*
X148009985Y-99354519D01*
X148128519Y-99235985D01*
X148267900Y-99142853D01*
X148422772Y-99078703D01*
X148587184Y-99046000D01*
X148754816Y-99046000D01*
X148919228Y-99078703D01*
X148919228Y-99078703D01*
G37*
G36*
X179399228Y-99078703D02*
X179554100Y-99142853D01*
X179693481Y-99235985D01*
X179812015Y-99354519D01*
X179905147Y-99493900D01*
X179969297Y-99648772D01*
X180002000Y-99813184D01*
X180002000Y-99980816D01*
X179969297Y-100145228D01*
X179905147Y-100300100D01*
X179812015Y-100439481D01*
X179693481Y-100558015D01*
X179554100Y-100651147D01*
X179399228Y-100715297D01*
X179234816Y-100748000D01*
X179067184Y-100748000D01*
X178902772Y-100715297D01*
X178747900Y-100651147D01*
X178608519Y-100558015D01*
X178489985Y-100439481D01*
X178396853Y-100300100D01*
X178332703Y-100145228D01*
X178300000Y-99980816D01*
X178300000Y-99813184D01*
X178332703Y-99648772D01*
X178396853Y-99493900D01*
X178489985Y-99354519D01*
X178608519Y-99235985D01*
X178747900Y-99142853D01*
X178902772Y-99078703D01*
X179067184Y-99046000D01*
X179234816Y-99046000D01*
X179399228Y-99078703D01*
X179399228Y-99078703D01*
G37*
G36*
X182542000Y-100748000D02*
X180840000Y-100748000D01*
X180840000Y-99046000D01*
X182542000Y-99046000D01*
X182542000Y-100748000D01*
X182542000Y-100748000D01*
G37*
G36*
X176859228Y-99078703D02*
X177014100Y-99142853D01*
X177153481Y-99235985D01*
X177272015Y-99354519D01*
X177365147Y-99493900D01*
X177429297Y-99648772D01*
X177462000Y-99813184D01*
X177462000Y-99980816D01*
X177429297Y-100145228D01*
X177365147Y-100300100D01*
X177272015Y-100439481D01*
X177153481Y-100558015D01*
X177014100Y-100651147D01*
X176859228Y-100715297D01*
X176694816Y-100748000D01*
X176527184Y-100748000D01*
X176362772Y-100715297D01*
X176207900Y-100651147D01*
X176068519Y-100558015D01*
X175949985Y-100439481D01*
X175856853Y-100300100D01*
X175792703Y-100145228D01*
X175760000Y-99980816D01*
X175760000Y-99813184D01*
X175792703Y-99648772D01*
X175856853Y-99493900D01*
X175949985Y-99354519D01*
X176068519Y-99235985D01*
X176207900Y-99142853D01*
X176362772Y-99078703D01*
X176527184Y-99046000D01*
X176694816Y-99046000D01*
X176859228Y-99078703D01*
X176859228Y-99078703D01*
G37*
G36*
X169239228Y-99078703D02*
X169394100Y-99142853D01*
X169533481Y-99235985D01*
X169652015Y-99354519D01*
X169745147Y-99493900D01*
X169809297Y-99648772D01*
X169842000Y-99813184D01*
X169842000Y-99980816D01*
X169809297Y-100145228D01*
X169745147Y-100300100D01*
X169652015Y-100439481D01*
X169533481Y-100558015D01*
X169394100Y-100651147D01*
X169239228Y-100715297D01*
X169074816Y-100748000D01*
X168907184Y-100748000D01*
X168742772Y-100715297D01*
X168587900Y-100651147D01*
X168448519Y-100558015D01*
X168329985Y-100439481D01*
X168236853Y-100300100D01*
X168172703Y-100145228D01*
X168140000Y-99980816D01*
X168140000Y-99813184D01*
X168172703Y-99648772D01*
X168236853Y-99493900D01*
X168329985Y-99354519D01*
X168448519Y-99235985D01*
X168587900Y-99142853D01*
X168742772Y-99078703D01*
X168907184Y-99046000D01*
X169074816Y-99046000D01*
X169239228Y-99078703D01*
X169239228Y-99078703D01*
G37*
G36*
X170570442Y-95605518D02*
X170636627Y-95612037D01*
X170749853Y-95646384D01*
X170806467Y-95663557D01*
X170945087Y-95737652D01*
X170962991Y-95747222D01*
X170998729Y-95776552D01*
X171100186Y-95859814D01*
X171183448Y-95961271D01*
X171212778Y-95997009D01*
X171212779Y-95997011D01*
X171296443Y-96153533D01*
X171296443Y-96153534D01*
X171347963Y-96323373D01*
X171365359Y-96500000D01*
X171347963Y-96676627D01*
X171313616Y-96789853D01*
X171296443Y-96846467D01*
X171222348Y-96985087D01*
X171212778Y-97002991D01*
X171183448Y-97038729D01*
X171100186Y-97140186D01*
X170998729Y-97223448D01*
X170962991Y-97252778D01*
X170962989Y-97252779D01*
X170806467Y-97336443D01*
X170749853Y-97353616D01*
X170636627Y-97387963D01*
X170570443Y-97394481D01*
X170504260Y-97401000D01*
X170415740Y-97401000D01*
X170349557Y-97394481D01*
X170283373Y-97387963D01*
X170170147Y-97353616D01*
X170113533Y-97336443D01*
X169957011Y-97252779D01*
X169957009Y-97252778D01*
X169921271Y-97223448D01*
X169819814Y-97140186D01*
X169736552Y-97038729D01*
X169707222Y-97002991D01*
X169697652Y-96985087D01*
X169623557Y-96846467D01*
X169606384Y-96789853D01*
X169572037Y-96676627D01*
X169554641Y-96500000D01*
X169572037Y-96323373D01*
X169623557Y-96153534D01*
X169623557Y-96153533D01*
X169707221Y-95997011D01*
X169707222Y-95997009D01*
X169736552Y-95961271D01*
X169819814Y-95859814D01*
X169921271Y-95776552D01*
X169957009Y-95747222D01*
X169974913Y-95737652D01*
X170113533Y-95663557D01*
X170170147Y-95646384D01*
X170283373Y-95612037D01*
X170349557Y-95605519D01*
X170415740Y-95599000D01*
X170504260Y-95599000D01*
X170570442Y-95605518D01*
X170570442Y-95605518D01*
G37*
G36*
X173901000Y-97401000D02*
X172099000Y-97401000D01*
X172099000Y-95599000D01*
X173901000Y-95599000D01*
X173901000Y-97401000D01*
X173901000Y-97401000D01*
G37*
G36*
X167479000Y-93813000D02*
X165677000Y-93813000D01*
X165677000Y-92011000D01*
X167479000Y-92011000D01*
X167479000Y-93813000D01*
X167479000Y-93813000D01*
G37*
G36*
X164148443Y-92017519D02*
X164214627Y-92024037D01*
X164327853Y-92058384D01*
X164384467Y-92075557D01*
X164523087Y-92149652D01*
X164540991Y-92159222D01*
X164576729Y-92188552D01*
X164678186Y-92271814D01*
X164761448Y-92373271D01*
X164790778Y-92409009D01*
X164790779Y-92409011D01*
X164874443Y-92565533D01*
X164874443Y-92565534D01*
X164925963Y-92735373D01*
X164943359Y-92912000D01*
X164925963Y-93088627D01*
X164904751Y-93158553D01*
X164874443Y-93258467D01*
X164800348Y-93397087D01*
X164790778Y-93414991D01*
X164761448Y-93450729D01*
X164678186Y-93552186D01*
X164576729Y-93635448D01*
X164540991Y-93664778D01*
X164540989Y-93664779D01*
X164384467Y-93748443D01*
X164327853Y-93765616D01*
X164214627Y-93799963D01*
X164148443Y-93806481D01*
X164082260Y-93813000D01*
X163993740Y-93813000D01*
X163927557Y-93806481D01*
X163861373Y-93799963D01*
X163748147Y-93765616D01*
X163691533Y-93748443D01*
X163535011Y-93664779D01*
X163535009Y-93664778D01*
X163499271Y-93635448D01*
X163397814Y-93552186D01*
X163314552Y-93450729D01*
X163285222Y-93414991D01*
X163275652Y-93397087D01*
X163201557Y-93258467D01*
X163171249Y-93158553D01*
X163150037Y-93088627D01*
X163132641Y-92912000D01*
X163150037Y-92735373D01*
X163201557Y-92565534D01*
X163201557Y-92565533D01*
X163285221Y-92409011D01*
X163285222Y-92409009D01*
X163314552Y-92373271D01*
X163397814Y-92271814D01*
X163499271Y-92188552D01*
X163535009Y-92159222D01*
X163552913Y-92149652D01*
X163691533Y-92075557D01*
X163748147Y-92058384D01*
X163861373Y-92024037D01*
X163927557Y-92017519D01*
X163993740Y-92011000D01*
X164082260Y-92011000D01*
X164148443Y-92017519D01*
X164148443Y-92017519D01*
G37*
G36*
X156782443Y-92017519D02*
X156848627Y-92024037D01*
X156961853Y-92058384D01*
X157018467Y-92075557D01*
X157157087Y-92149652D01*
X157174991Y-92159222D01*
X157210729Y-92188552D01*
X157312186Y-92271814D01*
X157395448Y-92373271D01*
X157424778Y-92409009D01*
X157424779Y-92409011D01*
X157508443Y-92565533D01*
X157508443Y-92565534D01*
X157559963Y-92735373D01*
X157577359Y-92912000D01*
X157559963Y-93088627D01*
X157538751Y-93158553D01*
X157508443Y-93258467D01*
X157434348Y-93397087D01*
X157424778Y-93414991D01*
X157395448Y-93450729D01*
X157312186Y-93552186D01*
X157210729Y-93635448D01*
X157174991Y-93664778D01*
X157174989Y-93664779D01*
X157018467Y-93748443D01*
X156961853Y-93765616D01*
X156848627Y-93799963D01*
X156782443Y-93806481D01*
X156716260Y-93813000D01*
X156627740Y-93813000D01*
X156561557Y-93806481D01*
X156495373Y-93799963D01*
X156382147Y-93765616D01*
X156325533Y-93748443D01*
X156169011Y-93664779D01*
X156169009Y-93664778D01*
X156133271Y-93635448D01*
X156031814Y-93552186D01*
X155948552Y-93450729D01*
X155919222Y-93414991D01*
X155909652Y-93397087D01*
X155835557Y-93258467D01*
X155805249Y-93158553D01*
X155784037Y-93088627D01*
X155766641Y-92912000D01*
X155784037Y-92735373D01*
X155835557Y-92565534D01*
X155835557Y-92565533D01*
X155919221Y-92409011D01*
X155919222Y-92409009D01*
X155948552Y-92373271D01*
X156031814Y-92271814D01*
X156133271Y-92188552D01*
X156169009Y-92159222D01*
X156186913Y-92149652D01*
X156325533Y-92075557D01*
X156382147Y-92058384D01*
X156495373Y-92024037D01*
X156561557Y-92017519D01*
X156627740Y-92011000D01*
X156716260Y-92011000D01*
X156782443Y-92017519D01*
X156782443Y-92017519D01*
G37*
G36*
X154242443Y-92017519D02*
X154308627Y-92024037D01*
X154421853Y-92058384D01*
X154478467Y-92075557D01*
X154617087Y-92149652D01*
X154634991Y-92159222D01*
X154670729Y-92188552D01*
X154772186Y-92271814D01*
X154855448Y-92373271D01*
X154884778Y-92409009D01*
X154884779Y-92409011D01*
X154968443Y-92565533D01*
X154968443Y-92565534D01*
X155019963Y-92735373D01*
X155037359Y-92912000D01*
X155019963Y-93088627D01*
X154998751Y-93158553D01*
X154968443Y-93258467D01*
X154894348Y-93397087D01*
X154884778Y-93414991D01*
X154855448Y-93450729D01*
X154772186Y-93552186D01*
X154670729Y-93635448D01*
X154634991Y-93664778D01*
X154634989Y-93664779D01*
X154478467Y-93748443D01*
X154421853Y-93765616D01*
X154308627Y-93799963D01*
X154242443Y-93806481D01*
X154176260Y-93813000D01*
X154087740Y-93813000D01*
X154021557Y-93806481D01*
X153955373Y-93799963D01*
X153842147Y-93765616D01*
X153785533Y-93748443D01*
X153629011Y-93664779D01*
X153629009Y-93664778D01*
X153593271Y-93635448D01*
X153491814Y-93552186D01*
X153408552Y-93450729D01*
X153379222Y-93414991D01*
X153369652Y-93397087D01*
X153295557Y-93258467D01*
X153265249Y-93158553D01*
X153244037Y-93088627D01*
X153226641Y-92912000D01*
X153244037Y-92735373D01*
X153295557Y-92565534D01*
X153295557Y-92565533D01*
X153379221Y-92409011D01*
X153379222Y-92409009D01*
X153408552Y-92373271D01*
X153491814Y-92271814D01*
X153593271Y-92188552D01*
X153629009Y-92159222D01*
X153646913Y-92149652D01*
X153785533Y-92075557D01*
X153842147Y-92058384D01*
X153955373Y-92024037D01*
X154021557Y-92017519D01*
X154087740Y-92011000D01*
X154176260Y-92011000D01*
X154242443Y-92017519D01*
X154242443Y-92017519D01*
G37*
G36*
X160113000Y-93813000D02*
X158311000Y-93813000D01*
X158311000Y-92011000D01*
X160113000Y-92011000D01*
X160113000Y-93813000D01*
X160113000Y-93813000D01*
G37*
G36*
X174104425Y-90426760D02*
X174104428Y-90426761D01*
X174104429Y-90426761D01*
X174283693Y-90481140D01*
X174283695Y-90481141D01*
X174448905Y-90569448D01*
X174593712Y-90688288D01*
X174712552Y-90833095D01*
X174712553Y-90833097D01*
X174800860Y-90998307D01*
X174855239Y-91177571D01*
X174855240Y-91177575D01*
X174869000Y-91317282D01*
X174869000Y-92410718D01*
X174855240Y-92550425D01*
X174800859Y-92729695D01*
X174712552Y-92894905D01*
X174593712Y-93039712D01*
X174448904Y-93158554D01*
X174283697Y-93246858D01*
X174283694Y-93246859D01*
X174283692Y-93246860D01*
X174104428Y-93301239D01*
X174104427Y-93301239D01*
X174104424Y-93301240D01*
X173918000Y-93319601D01*
X173731575Y-93301240D01*
X173731572Y-93301239D01*
X173731571Y-93301239D01*
X173552307Y-93246860D01*
X173387097Y-93158553D01*
X173387095Y-93158552D01*
X173242288Y-93039712D01*
X173123446Y-92894904D01*
X173035142Y-92729697D01*
X172985344Y-92565534D01*
X172980761Y-92550428D01*
X172980761Y-92550427D01*
X172980760Y-92550424D01*
X172967000Y-92410717D01*
X172967000Y-91317282D01*
X172980760Y-91177570D01*
X173035140Y-90998309D01*
X173123449Y-90833095D01*
X173242289Y-90688288D01*
X173387096Y-90569448D01*
X173552306Y-90481141D01*
X173552308Y-90481140D01*
X173731572Y-90426761D01*
X173731573Y-90426761D01*
X173731576Y-90426760D01*
X173918000Y-90408399D01*
X174104425Y-90426760D01*
X174104425Y-90426760D01*
G37*
G36*
X179604425Y-90426760D02*
X179604428Y-90426761D01*
X179604429Y-90426761D01*
X179783693Y-90481140D01*
X179783695Y-90481141D01*
X179948905Y-90569448D01*
X180093712Y-90688288D01*
X180212552Y-90833095D01*
X180212553Y-90833097D01*
X180300860Y-90998307D01*
X180355239Y-91177571D01*
X180355240Y-91177575D01*
X180369000Y-91317282D01*
X180369000Y-92410718D01*
X180355240Y-92550425D01*
X180300859Y-92729695D01*
X180212552Y-92894905D01*
X180093712Y-93039712D01*
X179948904Y-93158554D01*
X179783697Y-93246858D01*
X179783694Y-93246859D01*
X179783692Y-93246860D01*
X179604428Y-93301239D01*
X179604427Y-93301239D01*
X179604424Y-93301240D01*
X179418000Y-93319601D01*
X179231575Y-93301240D01*
X179231572Y-93301239D01*
X179231571Y-93301239D01*
X179052307Y-93246860D01*
X178887097Y-93158553D01*
X178887095Y-93158552D01*
X178742288Y-93039712D01*
X178623446Y-92894904D01*
X178535142Y-92729697D01*
X178485344Y-92565534D01*
X178480761Y-92550428D01*
X178480761Y-92550427D01*
X178480760Y-92550424D01*
X178467000Y-92410717D01*
X178467000Y-91317282D01*
X178480760Y-91177570D01*
X178535140Y-90998309D01*
X178623449Y-90833095D01*
X178742289Y-90688288D01*
X178887096Y-90569448D01*
X179052306Y-90481141D01*
X179052308Y-90481140D01*
X179231572Y-90426761D01*
X179231573Y-90426761D01*
X179231576Y-90426760D01*
X179418000Y-90408399D01*
X179604425Y-90426760D01*
X179604425Y-90426760D01*
G37*
G36*
X182004425Y-88426760D02*
X182004428Y-88426761D01*
X182004429Y-88426761D01*
X182183693Y-88481140D01*
X182183695Y-88481141D01*
X182348905Y-88569448D01*
X182493712Y-88688288D01*
X182612552Y-88833095D01*
X182612553Y-88833097D01*
X182700860Y-88998307D01*
X182755239Y-89177571D01*
X182755240Y-89177575D01*
X182769000Y-89317282D01*
X182769000Y-90410718D01*
X182755240Y-90550425D01*
X182755239Y-90550428D01*
X182755239Y-90550429D01*
X182749470Y-90569448D01*
X182700859Y-90729695D01*
X182612552Y-90894905D01*
X182493712Y-91039712D01*
X182348904Y-91158554D01*
X182183697Y-91246858D01*
X182183694Y-91246859D01*
X182183692Y-91246860D01*
X182004428Y-91301239D01*
X182004427Y-91301239D01*
X182004424Y-91301240D01*
X181818000Y-91319601D01*
X181631575Y-91301240D01*
X181631572Y-91301239D01*
X181631571Y-91301239D01*
X181452307Y-91246860D01*
X181287097Y-91158553D01*
X181287095Y-91158552D01*
X181142288Y-91039712D01*
X181023446Y-90894904D01*
X180935142Y-90729697D01*
X180922581Y-90688288D01*
X180880761Y-90550428D01*
X180880761Y-90550427D01*
X180880760Y-90550424D01*
X180867000Y-90410717D01*
X180867000Y-89317282D01*
X180880760Y-89177570D01*
X180935140Y-88998309D01*
X181023449Y-88833095D01*
X181142289Y-88688288D01*
X181287096Y-88569448D01*
X181452306Y-88481141D01*
X181452308Y-88481140D01*
X181631572Y-88426761D01*
X181631573Y-88426761D01*
X181631576Y-88426760D01*
X181818000Y-88408399D01*
X182004425Y-88426760D01*
X182004425Y-88426760D01*
G37*
G36*
X179653256Y-81143298D02*
X179759579Y-81164447D01*
X180060042Y-81288903D01*
X180326852Y-81467180D01*
X180330454Y-81469587D01*
X180560413Y-81699546D01*
X180741098Y-81969960D01*
X180865553Y-82270422D01*
X180929000Y-82589389D01*
X180929000Y-82914611D01*
X180865553Y-83233578D01*
X180741098Y-83534040D01*
X180560413Y-83804454D01*
X180330454Y-84034413D01*
X180330451Y-84034415D01*
X180060042Y-84215097D01*
X179759579Y-84339553D01*
X179653256Y-84360702D01*
X179440611Y-84403000D01*
X179115389Y-84403000D01*
X178902744Y-84360702D01*
X178796421Y-84339553D01*
X178495958Y-84215097D01*
X178225549Y-84034415D01*
X178225546Y-84034413D01*
X177995587Y-83804454D01*
X177814902Y-83534040D01*
X177690447Y-83233578D01*
X177627000Y-82914611D01*
X177627000Y-82589389D01*
X177690447Y-82270422D01*
X177814902Y-81969960D01*
X177995587Y-81699546D01*
X178225546Y-81469587D01*
X178229148Y-81467180D01*
X178495958Y-81288903D01*
X178796421Y-81164447D01*
X178902744Y-81143298D01*
X179115389Y-81101000D01*
X179440611Y-81101000D01*
X179653256Y-81143298D01*
X179653256Y-81143298D01*
G37*
G36*
X173729000Y-82283000D02*
X172127000Y-82283000D01*
X172127000Y-80681000D01*
X173729000Y-80681000D01*
X173729000Y-82283000D01*
X173729000Y-82283000D01*
G37*
G36*
X170621643Y-79441781D02*
X170767415Y-79502162D01*
X170898611Y-79589824D01*
X171010176Y-79701389D01*
X171097838Y-79832585D01*
X171158219Y-79978357D01*
X171189000Y-80133107D01*
X171189000Y-80290893D01*
X171158219Y-80445643D01*
X171097838Y-80591415D01*
X171010176Y-80722611D01*
X170898611Y-80834176D01*
X170767415Y-80921838D01*
X170621643Y-80982219D01*
X170466893Y-81013000D01*
X170309107Y-81013000D01*
X170154357Y-80982219D01*
X170008585Y-80921838D01*
X169877389Y-80834176D01*
X169765824Y-80722611D01*
X169678162Y-80591415D01*
X169617781Y-80445643D01*
X169587000Y-80290893D01*
X169587000Y-80133107D01*
X169617781Y-79978357D01*
X169678162Y-79832585D01*
X169765824Y-79701389D01*
X169877389Y-79589824D01*
X170008585Y-79502162D01*
X170154357Y-79441781D01*
X170309107Y-79411000D01*
X170466893Y-79411000D01*
X170621643Y-79441781D01*
X170621643Y-79441781D01*
G37*
G36*
X173161643Y-78171781D02*
X173307415Y-78232162D01*
X173438611Y-78319824D01*
X173550176Y-78431389D01*
X173637838Y-78562585D01*
X173698219Y-78708357D01*
X173729000Y-78863107D01*
X173729000Y-79020893D01*
X173698219Y-79175643D01*
X173637838Y-79321415D01*
X173550176Y-79452611D01*
X173438611Y-79564176D01*
X173307415Y-79651838D01*
X173161643Y-79712219D01*
X173006893Y-79743000D01*
X172849107Y-79743000D01*
X172694357Y-79712219D01*
X172548585Y-79651838D01*
X172417389Y-79564176D01*
X172305824Y-79452611D01*
X172218162Y-79321415D01*
X172157781Y-79175643D01*
X172127000Y-79020893D01*
X172127000Y-78863107D01*
X172157781Y-78708357D01*
X172218162Y-78562585D01*
X172305824Y-78431389D01*
X172417389Y-78319824D01*
X172548585Y-78232162D01*
X172694357Y-78171781D01*
X172849107Y-78141000D01*
X173006893Y-78141000D01*
X173161643Y-78171781D01*
X173161643Y-78171781D01*
G37*
G36*
X170621643Y-76901781D02*
X170767415Y-76962162D01*
X170898611Y-77049824D01*
X171010176Y-77161389D01*
X171097838Y-77292585D01*
X171158219Y-77438357D01*
X171189000Y-77593107D01*
X171189000Y-77750893D01*
X171158219Y-77905643D01*
X171097838Y-78051415D01*
X171010176Y-78182611D01*
X170898611Y-78294176D01*
X170767415Y-78381838D01*
X170621643Y-78442219D01*
X170466893Y-78473000D01*
X170309107Y-78473000D01*
X170154357Y-78442219D01*
X170008585Y-78381838D01*
X169877389Y-78294176D01*
X169765824Y-78182611D01*
X169678162Y-78051415D01*
X169617781Y-77905643D01*
X169587000Y-77750893D01*
X169587000Y-77593107D01*
X169617781Y-77438357D01*
X169678162Y-77292585D01*
X169765824Y-77161389D01*
X169877389Y-77049824D01*
X170008585Y-76962162D01*
X170154357Y-76901781D01*
X170309107Y-76871000D01*
X170466893Y-76871000D01*
X170621643Y-76901781D01*
X170621643Y-76901781D01*
G37*
G36*
X173161643Y-75631781D02*
X173307415Y-75692162D01*
X173438611Y-75779824D01*
X173550176Y-75891389D01*
X173637838Y-76022585D01*
X173698219Y-76168357D01*
X173729000Y-76323107D01*
X173729000Y-76480893D01*
X173698219Y-76635643D01*
X173637838Y-76781415D01*
X173550176Y-76912611D01*
X173438611Y-77024176D01*
X173307415Y-77111838D01*
X173161643Y-77172219D01*
X173006893Y-77203000D01*
X172849107Y-77203000D01*
X172694357Y-77172219D01*
X172548585Y-77111838D01*
X172417389Y-77024176D01*
X172305824Y-76912611D01*
X172218162Y-76781415D01*
X172157781Y-76635643D01*
X172127000Y-76480893D01*
X172127000Y-76323107D01*
X172157781Y-76168357D01*
X172218162Y-76022585D01*
X172305824Y-75891389D01*
X172417389Y-75779824D01*
X172548585Y-75692162D01*
X172694357Y-75631781D01*
X172849107Y-75601000D01*
X173006893Y-75601000D01*
X173161643Y-75631781D01*
X173161643Y-75631781D01*
G37*
G36*
X170621643Y-74361781D02*
X170767415Y-74422162D01*
X170898611Y-74509824D01*
X171010176Y-74621389D01*
X171097838Y-74752585D01*
X171158219Y-74898357D01*
X171189000Y-75053107D01*
X171189000Y-75210893D01*
X171158219Y-75365643D01*
X171097838Y-75511415D01*
X171010176Y-75642611D01*
X170898611Y-75754176D01*
X170767415Y-75841838D01*
X170621643Y-75902219D01*
X170466893Y-75933000D01*
X170309107Y-75933000D01*
X170154357Y-75902219D01*
X170008585Y-75841838D01*
X169877389Y-75754176D01*
X169765824Y-75642611D01*
X169678162Y-75511415D01*
X169617781Y-75365643D01*
X169587000Y-75210893D01*
X169587000Y-75053107D01*
X169617781Y-74898357D01*
X169678162Y-74752585D01*
X169765824Y-74621389D01*
X169877389Y-74509824D01*
X170008585Y-74422162D01*
X170154357Y-74361781D01*
X170309107Y-74331000D01*
X170466893Y-74331000D01*
X170621643Y-74361781D01*
X170621643Y-74361781D01*
G37*
G36*
X173161643Y-73091781D02*
X173307415Y-73152162D01*
X173438611Y-73239824D01*
X173550176Y-73351389D01*
X173637838Y-73482585D01*
X173698219Y-73628357D01*
X173729000Y-73783107D01*
X173729000Y-73940893D01*
X173698219Y-74095643D01*
X173637838Y-74241415D01*
X173550176Y-74372611D01*
X173438611Y-74484176D01*
X173307415Y-74571838D01*
X173161643Y-74632219D01*
X173006893Y-74663000D01*
X172849107Y-74663000D01*
X172694357Y-74632219D01*
X172548585Y-74571838D01*
X172417389Y-74484176D01*
X172305824Y-74372611D01*
X172218162Y-74241415D01*
X172157781Y-74095643D01*
X172127000Y-73940893D01*
X172127000Y-73783107D01*
X172157781Y-73628357D01*
X172218162Y-73482585D01*
X172305824Y-73351389D01*
X172417389Y-73239824D01*
X172548585Y-73152162D01*
X172694357Y-73091781D01*
X172849107Y-73061000D01*
X173006893Y-73061000D01*
X173161643Y-73091781D01*
X173161643Y-73091781D01*
G37*
G36*
X170621643Y-71821781D02*
X170767415Y-71882162D01*
X170898611Y-71969824D01*
X171010176Y-72081389D01*
X171097838Y-72212585D01*
X171158219Y-72358357D01*
X171189000Y-72513107D01*
X171189000Y-72670893D01*
X171158219Y-72825643D01*
X171097838Y-72971415D01*
X171010176Y-73102611D01*
X170898611Y-73214176D01*
X170767415Y-73301838D01*
X170621643Y-73362219D01*
X170466893Y-73393000D01*
X170309107Y-73393000D01*
X170154357Y-73362219D01*
X170008585Y-73301838D01*
X169877389Y-73214176D01*
X169765824Y-73102611D01*
X169678162Y-72971415D01*
X169617781Y-72825643D01*
X169587000Y-72670893D01*
X169587000Y-72513107D01*
X169617781Y-72358357D01*
X169678162Y-72212585D01*
X169765824Y-72081389D01*
X169877389Y-71969824D01*
X170008585Y-71882162D01*
X170154357Y-71821781D01*
X170309107Y-71791000D01*
X170466893Y-71791000D01*
X170621643Y-71821781D01*
X170621643Y-71821781D01*
G37*
G36*
X179653256Y-69713298D02*
X179759579Y-69734447D01*
X180060042Y-69858903D01*
X180326852Y-70037180D01*
X180330454Y-70039587D01*
X180560413Y-70269546D01*
X180560415Y-70269549D01*
X180741097Y-70539958D01*
X180820469Y-70731578D01*
X180865553Y-70840422D01*
X180929000Y-71159389D01*
X180929000Y-71484611D01*
X180919491Y-71532415D01*
X180865553Y-71803579D01*
X180741097Y-72104042D01*
X180571169Y-72358357D01*
X180560413Y-72374454D01*
X180330454Y-72604413D01*
X180330451Y-72604415D01*
X180060042Y-72785097D01*
X179759579Y-72909553D01*
X179653256Y-72930702D01*
X179440611Y-72973000D01*
X179115389Y-72973000D01*
X178902744Y-72930702D01*
X178796421Y-72909553D01*
X178495958Y-72785097D01*
X178225549Y-72604415D01*
X178225546Y-72604413D01*
X177995587Y-72374454D01*
X177984831Y-72358357D01*
X177814903Y-72104042D01*
X177690447Y-71803579D01*
X177636509Y-71532415D01*
X177627000Y-71484611D01*
X177627000Y-71159389D01*
X177690447Y-70840422D01*
X177735532Y-70731578D01*
X177814903Y-70539958D01*
X177995585Y-70269549D01*
X177995587Y-70269546D01*
X178225546Y-70039587D01*
X178229148Y-70037180D01*
X178495958Y-69858903D01*
X178796421Y-69734447D01*
X178902744Y-69713298D01*
X179115389Y-69671000D01*
X179440611Y-69671000D01*
X179653256Y-69713298D01*
X179653256Y-69713298D01*
G37*
G36*
X157625256Y-68641298D02*
X157731579Y-68662447D01*
X158032042Y-68786903D01*
X158298852Y-68965180D01*
X158302454Y-68967587D01*
X158532413Y-69197546D01*
X158713098Y-69467960D01*
X158837553Y-69768422D01*
X158901000Y-70087389D01*
X158901000Y-70412611D01*
X158858702Y-70625256D01*
X158837553Y-70731579D01*
X158749550Y-70944037D01*
X158713098Y-71032040D01*
X158532413Y-71302454D01*
X158302454Y-71532413D01*
X158302451Y-71532415D01*
X158032042Y-71713097D01*
X157731579Y-71837553D01*
X157625256Y-71858702D01*
X157412611Y-71901000D01*
X157087389Y-71901000D01*
X156874744Y-71858702D01*
X156768421Y-71837553D01*
X156467958Y-71713097D01*
X156197549Y-71532415D01*
X156197546Y-71532413D01*
X155967587Y-71302454D01*
X155786902Y-71032040D01*
X155750450Y-70944037D01*
X155662447Y-70731579D01*
X155641298Y-70625256D01*
X155599000Y-70412611D01*
X155599000Y-70087389D01*
X155662447Y-69768422D01*
X155786902Y-69467960D01*
X155967587Y-69197546D01*
X156197546Y-68967587D01*
X156201148Y-68965180D01*
X156467958Y-68786903D01*
X156768421Y-68662447D01*
X156874744Y-68641298D01*
X157087389Y-68599000D01*
X157412611Y-68599000D01*
X157625256Y-68641298D01*
X157625256Y-68641298D01*
G37*
M02*
